<?xml version="1.0" encoding="UTF-8"?>
<svg id="Layer_1" data-name="Layer 1" xmlns="http://www.w3.org/2000/svg" version="1.1" viewBox="0 0 500 200">
  <defs>
    <style>
      .cls-1 {
        font-family: Aller-Bold, Aller;
        font-size: 31.78px;
        font-weight: 700;
      }

      .cls-1, .cls-2 {
        fill: #575756;
      }

      .cls-3 {
        fill: #86bc25;
      }

      .cls-3, .cls-2 {
        fill-rule: evenodd;
        stroke-width: 0px;
      }
    </style>
  </defs>
  <g>
    <path class="cls-3" d="M101.38,111.7c3.18,0,5.76,2.58,5.76,5.76s-2.58,5.76-5.76,5.76-5.76-2.58-5.76-5.76,2.58-5.76,5.76-5.76"/>
    <path class="cls-3" d="M115.93,81.79c.86.54,1.47.11,2.64-.83,5.48-4.45,19.33-16.35,26.74-26.61,10.88-15.06-8.12-26.43-16.65-10.25-5.95,11.29-11.33,28.17-13.11,34.98-.38,1.45-.49,2.19.38,2.72"/>
    <path class="cls-3" d="M99.08,109.63c.85-.3.9-.96.89-2.29-.04-6.28-.59-22.49-3.59-33.34-4.4-15.92-22.85-9.06-16.36,5.85,4.52,10.4,13.24,23.52,16.97,28.53.79,1.07,1.25,1.55,2.1,1.24"/>
    <path class="cls-3" d="M109.41,113.18c.57.68,1.19.49,2.41.02,5.75-2.2,20.46-8.32,29.39-14.82,13.1-9.54.43-24.12-11.03-13.01-7.99,7.75-17.03,20.29-20.35,25.45-.71,1.1-1,1.68-.42,2.35"/>
    <path class="cls-3" d="M111.11,118.18c-.02.75.48.98,1.52,1.37,4.9,1.84,17.68,6.22,27.01,7.11,13.7,1.3,13.84-15.09.31-14.47-9.44.43-22.24,3.32-27.25,4.73-1.07.3-1.58.51-1.59,1.26"/>
    <path class="cls-3" d="M93.28,114.71c-.41.65-.97.55-2.07.28-5.19-1.27-18.5-4.91-26.89-9.52-12.31-6.77-2.61-20.95,8.46-12.65,7.72,5.79,16.46,15.84,19.88,19.91.73.87,1.04,1.34.62,1.98"/>
    <path class="cls-3" d="M94.36,121.32c.06.75-.39,1.01-1.33,1.46-4.43,2.11-16.01,7.21-24.59,8.63-12.59,2.08-13.58-14.28-1.04-14.43,8.75-.11,20.72,2.05,25.43,3.18,1,.24,1.49.42,1.54,1.17"/>
    <path class="cls-3" d="M97.4,125.1c.56.42.47.89.2,1.82-1.23,4.38-4.73,15.6-8.97,22.46-6.23,10.07-18.27.78-10.73-8.08,5.26-6.18,14.08-13.23,17.74-15.83.78-.56,1.2-.78,1.76-.36"/>
    <path class="cls-3" d="M103.21,126.15c.64-.04.86.36,1.22,1.17,1.72,3.84,5.87,13.88,6.92,21.26,1.54,10.84-12.52,11.37-12.4.61.08-7.5,2.17-17.73,3.22-21.75.23-.86.39-1.27,1.03-1.29"/>
    <path class="cls-3" d="M110.01,123.8c.49-.54.97-.4,1.91-.04,4.44,1.7,15,6.47,22.24,11.41,10.21,6.97.54,17.76-8.59,9.19-6.18-5.8-13.01-14.65-15.36-18.7-.5-.86-.7-1.32-.2-1.86"/>
  </g>
  <g>
    <path class="cls-2" d="M219.43,63.52h3.12c3.2,0,5.82,2.62,5.82,5.82v11.18c1.92-3.35,5.78-5.57,10.16-5.57,6.53,0,12.3,5.41,12.3,11.72v25.29h-3.12c-3.2,0-5.82-2.62-5.82-5.82v-15.97c0-7.43-10.6-9.88-13.51-.91v22.71h-3.12c-3.2,0-5.82-2.62-5.82-5.82v-42.62Z"/>
    <path class="cls-2" d="M340.88,100.17l-.02-34.23h3.12c3.2,0,5.82,2.62,5.82,5.82v29.13c0,6.57-5.62,11.9-12.56,11.9-3.6,0-6.84-1.43-9.13-3.73v-6.31c3.34,2.76,12.76,4.03,12.76-2.59"/>
    <path class="cls-2" d="M301.08,96.42h-7.56c-2.54,0-4.62,2.08-4.62,4.62s2.08,4.62,4.62,4.62h2.94c2.54,0,4.62-2.08,4.62-4.62v-4.62ZM301.08,86.68c-2.63-4.7-11.45-6.31-19.42.73-.55-12.6,12.09-15.06,21.16-10.74,4.39,2.09,7.19,6.05,7.19,11.64v14.81c-1.21,5.5-7.42,9.68-14.88,9.68-8.33,0-15.07-5.21-15.07-11.64s6.75-11.64,15.07-11.64h5.94v-2.83Z"/>
    <path class="cls-2" d="M377.18,96.42h-7.56c-2.54,0-4.62,2.08-4.62,4.62s2.08,4.62,4.62,4.62h2.94c2.54,0,4.62-2.08,4.62-4.62v-4.62ZM377.18,86.68c-2.63-4.7-11.45-6.31-19.42.73-.55-12.6,12.09-15.06,21.16-10.74,4.39,2.09,7.19,6.05,7.19,11.64v14.81c-1.21,5.5-7.42,9.68-14.88,9.68-8.33,0-15.08-5.21-15.08-11.64s6.75-11.64,15.08-11.64h5.94v-2.83Z"/>
    <path class="cls-2" d="M269.13,100.23v-30.89c0-3.2-2.62-5.82-5.82-5.82h-3.12v39.5c0,4.92,4.02,8.94,8.94,8.94h4.44c2.44,0,4.44-2,4.44-4.44v-2.86h-4.44c-2.44,0-4.44-2-4.44-4.44"/>
    <path class="cls-2" d="M201.31,93.25c-.83-3.93-3.93-15.57-7.77-17.79-3.86,2.23-6.94,13.86-7.77,17.79h15.54ZM184.13,100.48c-.75,3.7-1.39,7.55-2.1,11.48h-3.75c-3.98,0-4.26-4.15-3.59-7.27,2.76-13.05,9.38-31.1,15.42-38.37,4.16-.52,7.65.6,9.83,2.63,5.76,5.34,12.97,34.94,13.85,43.02-6.07,0-8.73-.48-10.85-11.48h-18.81Z"/>
    <path class="cls-2" d="M415.82,92.6c-.94,5.1-3.87,13.42-7.19,18.39-1.45,2.17-4.34,1.64-5.77-.16-4.88-6.1-10.66-17.66-13.05-34.98h4.37c2.8.2,5.23,1.49,5.82,4.57,1.51,7.92,3.23,14.67,5.3,19.75,3.05-6.04,5.33-14.2,7.28-23.29,3.79,0,7.86.1,8.69,4.57,1.5,8.03,4.18,13.59,6.25,18.67,3.05-6.04,4.96-15.4,6.9-24.49,5.04-.44,6.94,1.33,7.09,4.82.31,7.27-7.23,24.57-11.21,30.52-1.45,2.17-4.34,1.64-5.77-.16-3.19-3.99-6.28-9.79-8.71-18.24"/>
    <text class="cls-1" transform="translate(174.38 155.87)"><tspan x="0" y="0">Nature... Indoor</tspan></text>
  </g>
</svg>