<?xml version="1.0" encoding="UTF-8"?>
<svg id="Layer_1" data-name="Layer 1" xmlns="http://www.w3.org/2000/svg" viewBox="0 0 200 200">
  <defs>
    <style>
      .cls-1 {
        fill: #1d252c;
      }

      .cls-2 {
        fill: #e3e3e4;
      }

      .cls-3 {
        fill: #db0032;
      }
    </style>
  </defs>
  <path class="cls-1" d="M100,14.33h0c47.31,0,85.67,38.35,85.67,85.67h0c0,47.31-38.35,85.67-85.67,85.67h0c-47.31,0-85.67-38.35-85.67-85.67h0C14.33,52.69,52.69,14.33,100,14.33Z"/>
  <g>
    <g>
      <g>
        <path class="cls-3" d="M106.9,77.28h-13.79c-.58,0-1.04.47-1.04,1.04v3.92c0,.58.47,1.04,1.04,1.04h1.3v2.09c0,.8.65,1.46,1.46,1.46h8.28c.8,0,1.46-.65,1.46-1.46v-2.09h1.3c.58,0,1.04-.47,1.04-1.04v-3.92c0-.58-.47-1.04-1.04-1.04Z"/>
        <path class="cls-3" d="M117.16,53.4c0,4.85-2.02,9.24-5.26,12.36-1.22,1.18-2.09,2.67-2.58,4.29l-1.39,4.61h-6.59v-19.93h3.97c.37,0,.71-.15.95-.39s.39-.58.39-.95c0-.74-.6-1.35-1.35-1.35h-10.64c-.75,0-1.35.6-1.35,1.35s.6,1.35,1.35,1.35h3.97v19.93h-6.59l-1.38-4.61c-.49-1.63-1.35-3.12-2.58-4.3-3.38-3.26-5.43-7.89-5.25-12.99.33-9.07,8.05-16.52,17.15-16.52,9.6,0,17.15,7.59,17.15,17.16Z"/>
      </g>
      <g>
        <path class="cls-3" d="M101.84,21.77v8.8c-.7-.06-1.4-.1-2.12-.1-.53,0-1.04.02-1.56.06v-8.76c0-1.02.83-1.84,1.84-1.84s1.84.82,1.84,1.84Z"/>
        <path class="cls-3" d="M123.9,32.43l-6.33,6.33c-.79-.94-1.66-1.82-2.59-2.61l6.31-6.31c.72-.72,1.88-.72,2.6,0,.72.72.72,1.88,0,2.6Z"/>
        <path class="cls-3" d="M133.81,53.74c0,1.02-.83,1.84-1.84,1.84h-9.14c.07-.72.1-1.45.1-2.18,0-.5-.02-1-.05-1.5h9.09c1.02,0,1.84.82,1.84,1.84Z"/>
        <path class="cls-3" d="M77.18,55.58h-9.14c-1.02,0-1.84-.83-1.84-1.84s.82-1.84,1.84-1.84h9.09c-.02.21-.03.43-.03.65-.03,1.02,0,2.03.09,3.03Z"/>
        <path class="cls-3" d="M84.97,36.11c-.92.81-1.78,1.69-2.57,2.64l-6.3-6.31c-.72-.72-.72-1.88,0-2.6.72-.72,1.88-.72,2.6,0l6.27,6.27Z"/>
      </g>
    </g>
    <path class="cls-2" d="M150.88,78.72h-6.26c-1.04-3.83-2.56-7.47-4.49-10.83l4.43-4.43c1.85-1.85,1.85-4.85,0-6.7l-5.12-5.12c.19.67.3,1.37.3,2.1,0,4.28-3.48,7.76-7.76,7.76h-9.14c-.39,0-.78-.04-1.16-.12-1.19,3.23-3.1,6.17-5.66,8.64-.42.4-.74.95-.96,1.59,5.91,4.63,9.64,11.91,9.38,20.05-.41,12.8-10.83,23.22-23.63,23.63-14.13.45-25.68-11.1-25.23-25.23.24-7.45,3.87-14.09,9.39-18.42-.21-.65-.55-1.21-.98-1.62-2.53-2.43-4.43-5.4-5.63-8.63-.39.08-.78.12-1.18.12h-9.14c-4.28,0-7.76-3.48-7.76-7.76,0-.73.11-1.44.3-2.11l-5.13,5.13c-1.85,1.85-1.85,4.85,0,6.7l4.43,4.43c-1.93,3.37-3.45,7-4.49,10.83h-6.26c-2.62,0-4.74,2.12-4.74,4.74v14.8c0,2.62,2.12,4.74,4.74,4.74h6.26c1.04,3.83,2.56,7.47,4.49,10.83l-4.43,4.43c-1.85,1.85-1.85,4.85,0,6.7l10.46,10.46c1.85,1.85,4.85,1.85,6.7,0l4.43-4.43c3.37,1.93,7,3.45,10.83,4.49v6.26c0,2.62,2.12,4.74,4.74,4.74h14.8c2.62,0,4.74-2.12,4.74-4.74v-6.26c3.83-1.04,7.47-2.56,10.83-4.49l4.43,4.43c1.85,1.85,4.85,1.85,6.7,0l10.46-10.46c1.85-1.85,1.85-4.85,0-6.7l-4.43-4.43c1.93-3.37,3.45-7,4.49-10.83h6.26c2.62,0,4.74-2.12,4.74-4.74v-14.8c0-2.62-2.12-4.74-4.74-4.74Z"/>
    <g>
      <path class="cls-3" d="M108.32,171.74c0,4.59-3.72,8.32-8.32,8.32s-8.32-3.72-8.32-8.32c0-3.55,2.23-6.58,5.36-7.77v-11.58h5.92v11.58c3.13,1.2,5.36,4.22,5.36,7.77Z"/>
      <path class="cls-3" d="M180.06,148.55c0,4.59-3.72,8.32-8.32,8.32-4.16,0-7.6-3.06-8.21-7.04l-10.86-2.14-11.23-11.23,4.19-4.19,9.96,9.96,9.18,1.81c1.49-2.29,4.06-3.81,6.99-3.81,4.6,0,8.32,3.72,8.32,8.32Z"/>
      <path class="cls-3" d="M58.57,136.46l-11.23,11.23-10.87,2.14c-.62,3.98-4.05,7.04-8.21,7.04-4.59,0-8.32-3.72-8.32-8.32s3.73-8.32,8.32-8.32c2.93,0,5.51,1.52,6.99,3.81l9.18-1.81,9.96-9.95,4.19,4.19Z"/>
    </g>
  </g>
</svg>