<?xml version="1.0" encoding="UTF-8"?>
<svg id="Layer_1" data-name="Layer 1" xmlns="http://www.w3.org/2000/svg" viewBox="0 0 200 200">
  <defs>
    <style>
      .cls-1 {
        fill: #1d252c;
      }

      .cls-2 {
        fill: #e3e3e4;
      }

      .cls-3 {
        fill: #db0032;
      }
    </style>
  </defs>
  <g>
    <g>
      <rect class="cls-1" x="41.79" y="16.85" width="97.72" height="166.3" rx="27.08" ry="27.08"/>
      <circle class="cls-3" cx="90.65" cy="169.68" r="4"/>
      <path class="cls-3" d="M112.43,183.8h-43.56c-15.29,0-27.73-12.44-27.73-27.73V43.93c0-15.29,12.44-27.73,27.73-27.73h43.56c15.29,0,27.73,12.44,27.73,27.73v112.13c0,15.29-12.44,27.73-27.73,27.73h0ZM68.87,17.49c-14.58,0-26.44,11.86-26.44,26.44v112.13c0,14.58,11.86,26.44,26.44,26.44h43.56c14.58,0,26.44-11.86,26.44-26.44V43.93c0-14.58-11.86-26.44-26.44-26.44h-43.56Z"/>
    </g>
    <g>
      <rect class="cls-2" x="59.59" y="115.18" width="17.75" height="17.75" rx="5.81" ry="5.81"/>
      <rect class="cls-2" x="80.7" y="115.18" width="17.75" height="17.75" rx="5.81" ry="5.81"/>
      <rect class="cls-2" x="103.96" y="115.18" width="17.75" height="17.75" rx="5.81" ry="5.81"/>
    </g>
  </g>
  <g>
    <path class="cls-3" d="M158.86,65.09c0-16-11.6-29.26-26.83-31.91-.28-.05-.56-.08-.84-.13-.87-.13-1.74-.23-2.63-.28-.41-.03-.83-.05-1.24-.07-.29,0-.59-.04-.88-.04-.45,0-.89.05-1.35.07-.57.01-1.16.04-1.75.09-.27.03-.53.07-.79.09-.91.09-1.8.17-2.74.35-21.01,3.82-32.3,26.63-23.1,45.91.39.8.75,1.61,1.12,2.46-2.79,3.9-5.5,7.67-8.2,11.45-.47.65-1.07,1.28-1.32,2.02-.2.56-.17,1.49.17,1.88.36.41,1.23.49,1.87.49.47,0,.93-.35,1.39-.56,4.58-2.14,9.16-4.26,13.73-6.39.19-.08.36-.17.53-.27,2.5,2.02,5.29,3.67,8.32,4.89.03.01.04.05.07.07.92.59,1.98,1.05,3.04,1.28,1.83.39,3.66.64,5.49.81.16.01.32.03.47.04.75.05,1.49.11,2.26.12.25,0,.51.04.76.04.61,0,1.2-.05,1.8-.09.19,0,.36,0,.55-.03,16.8-1.21,30.07-15.19,30.07-32.3h.03Z"/>
    <g>
      <circle class="cls-1" cx="108.75" cy="64.27" r="4.22"/>
      <circle class="cls-1" cx="126.01" cy="64.27" r="4.22"/>
      <circle class="cls-1" cx="143.63" cy="64.27" r="4.22"/>
    </g>
  </g>
</svg>