<?xml version="1.0" encoding="UTF-8"?>
<svg id="Layer_1" data-name="Layer 1" xmlns="http://www.w3.org/2000/svg" viewBox="0 0 200 200">
  <defs>
    <style>
      .cls-1 {
        fill: #1d252c;
      }

      .cls-2, .cls-3 {
        fill: #e3e3e4;
      }

      .cls-2, .cls-4 {
        fill-rule: evenodd;
      }

      .cls-4, .cls-5 {
        fill: #db0032;
      }
    </style>
  </defs>
  <g>
    <path class="cls-1" d="M160.63,19.39H39.37c-4.49,4.09-7.31,9.99-7.31,16.54v124.61c0,12.36,10.02,22.38,22.38,22.38h91.11c12.36,0,22.38-10.02,22.38-22.38V35.93c0-6.55-2.82-12.45-7.31-16.54Z"/>
    <g>
      <path class="cls-5" d="M46,17.08h107.99c7.69,0,13.95,6.24,13.95,13.95v2.55H32.06v-2.55c0-7.69,6.24-13.95,13.95-13.95h0Z"/>
      <circle class="cls-1" cx="49.8" cy="26.66" r="3.16"/>
      <circle class="cls-3" cx="60.32" cy="26.66" r="3.16"/>
      <circle class="cls-3" cx="70.84" cy="26.66" r="3.16"/>
    </g>
  </g>
  <g>
    <path class="cls-2" d="M86.9,64.27h-14.04v-3.05h15.57c.84,0,1.53.68,1.53,1.53v18.84h-3.05v-17.31Z"/>
    <path class="cls-2" d="M86.9,144.72h-8.35v3.05h9.87c.84,0,1.53-.68,1.53-1.53v-19.1h-3.05v17.58Z"/>
    <path class="cls-4" d="M112.78,62.88v40.09h-4.81c-.12-.2-.27-.4-.44-.57l-17.01-17.01c-1.15-1.15-3.03-1.15-4.18,0l-17.01,17.01c-1.15,1.15-1.15,3.03,0,4.18l17.01,17.01c1.15,1.15,3.03,1.15,4.18,0l17.01-17.01c.17-.17.32-.37.44-.57h4.81v40.23c0,.84.68,1.53,1.52,1.53h13.01v-3.05h-11.49v-38.7h11.49v-3.04h-11.49s0-38.7,0-38.7h11.49v-3.05h-13.01c-.9,0-1.52.76-1.52,1.66Z"/>
    <path class="cls-4" d="M141.75,51.08c-6.42,0-11.66,5.24-11.66,11.66s5.24,11.66,11.66,11.66,11.66-5.24,11.66-11.66-5.24-11.66-11.66-11.66ZM148.11,59.93l-7.78,7.78c-.71.71-1.9.54-2.4-.32l-2.79-4.83c-.42-.73-.17-1.66.56-2.07.73-.42,1.66-.17,2.07.56l1.79,3.11,6.38-6.38c.6-.6,1.56-.6,2.16,0,.6.6.6,1.56,0,2.16Z"/>
    <path class="cls-2" d="M58.25,51.08c-6.42,0-11.66,5.24-11.66,11.66s5.24,11.66,11.66,11.66,11.66-5.24,11.66-11.66-5.24-11.66-11.66-11.66ZM63.69,66.03c.6.6.6,1.56,0,2.16-.6.6-1.56.6-2.16,0l-3.28-3.28-3.28,3.28c-.6.6-1.56.6-2.16,0s-.6-1.56,0-2.16l3.28-3.28-3.28-3.28c-.6-.6-.6-1.56,0-2.16.6-.6,1.56-.6,2.16,0l3.28,3.28,3.28-3.28c.6-.6,1.56-.6,2.16,0s.6,1.56,0,2.16l-3.28,3.28,3.28,3.28Z"/>
    <polygon class="cls-4" points="70.38 125.15 75.44 125.15 70.38 120.09 70.38 125.15"/>
    <path class="cls-4" d="M68.85,128.2c-.84,0-1.53-.68-1.53-1.53v-7.09h-19.43c-.72,0-1.31.59-1.31,1.31v35.7c0,.72.59,1.31,1.31,1.31h26.73c.72,0,1.31-.59,1.31-1.31v-28.4h-7.09ZM53.41,125.78h7.74c.84,0,1.53.68,1.53,1.53s-.68,1.53-1.53,1.53h-7.74c-.84,0-1.53-.68-1.53-1.53s.68-1.53,1.53-1.53ZM69.11,151.72h-15.7c-.84,0-1.53-.68-1.53-1.53s.68-1.53,1.53-1.53h15.7c.84,0,1.53.68,1.53,1.53s-.68,1.53-1.53,1.53ZM69.11,144.09h-15.7c-.84,0-1.53-.68-1.53-1.53s.68-1.53,1.53-1.53h15.7c.84,0,1.53.68,1.53,1.53s-.68,1.53-1.53,1.53ZM69.11,136.46h-15.7c-.84,0-1.53-.68-1.53-1.53s.68-1.53,1.53-1.53h15.7c.84,0,1.53.68,1.53,1.53s-.68,1.53-1.53,1.53Z"/>
    <path class="cls-4" d="M141.75,92.83c-6.42,0-11.66,5.24-11.66,11.66s5.24,11.66,11.66,11.66,11.66-5.24,11.66-11.66-5.24-11.66-11.66-11.66ZM148.11,101.68l-7.78,7.78c-.71.71-1.9.54-2.4-.32l-2.79-4.83c-.42-.73-.17-1.66.56-2.07.73-.42,1.66-.17,2.07.56l1.79,3.11,6.38-6.38c.6-.6,1.56-.6,2.16,0,.6.6.6,1.56,0,2.16Z"/>
    <path class="cls-4" d="M141.75,134.58c-6.42,0-11.66,5.24-11.66,11.66s5.24,11.66,11.66,11.66,11.66-5.24,11.66-11.66-5.24-11.66-11.66-11.66ZM148.11,143.43l-7.78,7.78c-.71.71-1.9.54-2.4-.32l-2.79-4.83c-.42-.73-.17-1.66.56-2.07.73-.42,1.66-.17,2.07.56l1.79,3.11,6.38-6.38c.6-.6,1.56-.6,2.16,0,.6.6.6,1.56,0,2.16Z"/>
  </g>
</svg>