<?xml version="1.0" encoding="UTF-8"?>
<svg id="Layer_1" data-name="Layer 1" xmlns="http://www.w3.org/2000/svg" xmlns:xlink="http://www.w3.org/1999/xlink" viewBox="0 0 500 300">
  <defs>
    <style>
      .cls-1 {
        fill: url(#linear-gradient);
      }

      .cls-1, .cls-2, .cls-3 {
        stroke-width: 0px;
      }

      .cls-2 {
        fill: #a3803c;
      }

      .cls-3 {
        fill: url(#linear-gradient-2);
      }
    </style>
    <linearGradient id="linear-gradient" x1="267.68" y1="218.45" x2="367.28" y2="160.94" gradientUnits="userSpaceOnUse">
      <stop offset="0" stop-color="#d9b67a"/>
      <stop offset="1" stop-color="#a3803c"/>
    </linearGradient>
    <linearGradient id="linear-gradient-2" x1="108.77" y1="171.15" x2="366.95" y2="22.09" xlink:href="#linear-gradient"/>
  </defs>
  <g>
    <path class="cls-1" d="m360,167.7h0c-11.09,11.01-26.36,17.8-43.22,17.8-13.38,0-25.76-4.29-35.85-11.56-2.6-1.88-5.04-3.95-7.31-6.18-3.46,26.52-14.7,35.5-14.7,35.5,16.22,11.89,36.21,18.9,57.85,18.9,27.06,0,51.56-10.96,69.29-28.69l-26.06-25.77Z"/>
    <path class="cls-3" d="m385.54,54.28l-25.91,25.91c-11.06-10.8-26.18-17.44-42.85-17.44-31.65,0-57.72,23.97-61,54.77-16.09-15.4-33.92-17.95-33.92-17.95,1.72-6.69,4.14-13.09,7.16-19.14-22.95-24.26-50.75-18.68-63.28-14.34-5.62,1.95-10.54,5.61-13.76,10.62-11.59,18.05,9.63,32.72,38.02,30.09,11.01-1.02,19.66-1.21,26.35-.41,1.39.16,2.69.35,3.91.56,25.46,5.57,35.48,23.42,35.48,23.42,0,0,9.3,14.54,10.2,28.14h0s2.2,22.96-12.88,40.12c-.36.4-.69.81-1.01,1.19-19.92,22.73-57.64,22.35-57.64,22.35-49.25,1.36-78.3-38.33-78.3-38.33l25.79-25.79c11,12.91,21.75,23.98,42.84,26.93,21.1,2.94,33.3-4.43,33.3-4.43,6.44-3.85,9.73-8.19,11.39-11.87,2.19-4.86,1.53-8.59,1.53-8.59-.71-7.03-5.05-11.21-9.74-14.01-4.59-2.74-9.65-3.89-12.43-4.36-5.31-.9-23.35-.4-30.38.21-7.02.61-15.76-.31-15.76-.31-35.15-3.82-45.8-38.23-45.8-38.23-6.87-22.28-.46-38.95,7.67-50.06,7.08-9.67,16.99-16.88,28.21-21.09,56.78-21.35,98.9,18.67,98.9,18.67,17.32-15.43,40.14-24.79,65.15-24.79,26.8,0,51.08,10.75,68.77,28.18Z"/>
  </g>
  <g>
    <path class="cls-2" d="m129.1,244.61h-4.47v13.99h-3.97v-13.99h-4.47v-3.26h12.92v3.26Z"/>
    <path class="cls-2" d="m144.67,241.34v17.26h-3.91v-7.17h-5.77v7.17h-3.91v-17.26h3.91v6.84h5.77v-6.84h3.91Z"/>
    <path class="cls-2" d="m159,255.52v3.09h-11.16v-17.26h10.9v3.04h-6.99v3.97h6.31v2.94h-6.31v4.22h7.25Z"/>
    <path class="cls-2" d="m174.13,257.82l.73-3.18c1.51.7,3.02,1.04,4.55,1.04,1.74,0,2.25-.47,2.25-2.07,0-1.13-.47-1.42-3.32-2.62-2.6-1.09-3.81-2.46-3.81-4.87,0-3.34,1.9-5,5.72-5,1.55,0,3.09.3,4.66.9l-.76,3.19c-1.18-.64-2.38-.97-3.63-.97-1.6,0-2.07.4-2.07,1.74s.54,1.61,3.45,2.84c2.57,1.08,3.74,2.34,3.74,4.53,0,3.67-2.05,5.49-6.19,5.49-1.95,0-3.72-.34-5.34-1.02Z"/>
    <path class="cls-2" d="m199.54,244.61h-4.47v13.99h-3.97v-13.99h-4.47v-3.26h12.92v3.26Z"/>
    <path class="cls-2" d="m201.52,241.34h6.5c3.7,0,5.53,1.74,5.53,5.24,0,2.59-1.12,4.18-3.27,4.78l4.18,7.23h-4.37l-3.51-6.78h-1.15v6.78h-3.91v-17.26Zm6.03,7.61c1.76,0,2.2-.47,2.2-2.37s-.44-2.33-2.18-2.33h-2.2v4.69h2.19Z"/>
    <path class="cls-2" d="m226,255.29h-5.44l-.94,3.32h-4.15l5.91-17.26h3.92l5.88,17.26h-4.25l-.94-3.32Zm-.79-2.78l-1.94-6.83-1.93,6.83h3.87Z"/>
    <path class="cls-2" d="m242.98,244.61h-4.47v13.99h-3.97v-13.99h-4.47v-3.26h12.92v3.26Z"/>
    <path class="cls-2" d="m256.12,255.52v3.09h-11.16v-17.26h10.9v3.04h-6.99v3.97h6.31v2.94h-6.31v4.22h7.25Z"/>
    <path class="cls-2" d="m270.68,249.18v9.42h-2.02l-.47-1.62h-.02c-.95,1.24-2.28,1.86-4.01,1.86-4.06,0-6.39-3.22-6.39-8.83,0-5.95,2.69-8.9,8.11-8.9,1.51,0,2.83.21,3.98.64l-.72,3.23c-.87-.48-1.87-.72-3.01-.72-3.51,0-4.38,1.15-4.38,5.74s.8,5.63,3.81,5.63c.75,0,1.36-.21,1.84-.64v-3.1h-2.88v-2.71h6.17Z"/>
    <path class="cls-2" d="m273.59,241.34h4.03v17.26h-4.03v-17.26Z"/>
    <path class="cls-2" d="m280.11,250c0-5.95,2.61-8.9,7.88-8.9,1.33,0,2.54.19,3.63.57l-.73,3.16c-.77-.38-1.66-.58-2.68-.58-3.24,0-4.11,1.15-4.11,5.75s.86,5.65,4.05,5.65c1.21,0,2.23-.25,3.08-.75l.71,3.25c-1.12.46-2.44.69-3.97.69-5.26,0-7.87-2.93-7.87-8.83Z"/>
    <path class="cls-2" d="m300.65,250c0-5.95,2.61-8.9,7.88-8.9,1.33,0,2.54.19,3.63.57l-.73,3.16c-.77-.38-1.66-.58-2.68-.58-3.24,0-4.11,1.15-4.11,5.75s.86,5.65,4.05,5.65c1.21,0,2.23-.25,3.08-.75l.71,3.25c-1.12.46-2.44.69-3.97.69-5.26,0-7.87-2.93-7.87-8.83Z"/>
    <path class="cls-2" d="m325.89,255.52v3.09h-11.16v-17.26h10.9v3.04h-6.99v3.97h6.31v2.94h-6.31v4.22h7.25Z"/>
    <path class="cls-2" d="m328.22,241.34h3.14l6.88,10.12v-10.12h3.77v17.26h-3.14l-6.88-10.12v10.12h-3.77v-17.26Z"/>
    <path class="cls-2" d="m356.77,244.61h-4.47v13.99h-3.97v-13.99h-4.47v-3.26h12.92v3.26Z"/>
    <path class="cls-2" d="m369.9,255.52v3.09h-11.16v-17.26h10.9v3.04h-6.99v3.97h6.31v2.94h-6.31v4.22h7.25Z"/>
    <path class="cls-2" d="m372.36,241.34h6.5c3.7,0,5.53,1.74,5.53,5.24,0,2.59-1.12,4.18-3.27,4.78l4.18,7.23h-4.37l-3.51-6.78h-1.15v6.78h-3.91v-17.26Zm6.03,7.61c1.76,0,2.2-.47,2.2-2.37s-.44-2.33-2.18-2.33h-2.2v4.69h2.19Z"/>
  </g>
  <g>
    <path class="cls-2" d="m116.58,267.7c0-2.65,1.05-3.97,3.19-3.97.55,0,1.04.1,1.45.29l-.14.59c-.36-.19-.8-.28-1.28-.28-1.91,0-2.53.83-2.53,3.38s.62,3.33,2.52,3.33c.59,0,1.07-.11,1.45-.33l.13.61c-.43.21-.98.31-1.61.31-2.12,0-3.17-1.3-3.17-3.93Z"/>
    <path class="cls-2" d="m122.55,268.68c0-1.97.8-2.95,2.43-2.95s2.43.98,2.43,2.95-.8,2.95-2.43,2.95-2.43-.98-2.43-2.95Zm4.19,0c0-1.78-.44-2.36-1.76-2.36s-1.76.58-1.76,2.36.44,2.36,1.76,2.36,1.76-.58,1.76-2.36Z"/>
    <path class="cls-2" d="m128.95,265.84h.45l.12.86h.01c.54-.6,1.28-.96,2.06-.96,1.1,0,1.65.67,1.65,2.01v3.78h-.65v-3.7c0-1.09-.3-1.47-1.17-1.47-.63,0-1.3.27-1.83.75v4.41h-.65v-5.68Z"/>
    <path class="cls-2" d="m134.74,271.31l.13-.58c.44.22.92.32,1.44.32.95,0,1.28-.25,1.28-.99s-.32-.84-1.35-1.23c-1.06-.39-1.41-.75-1.41-1.61,0-.99.56-1.49,1.69-1.49.54,0,1.01.1,1.42.31l-.13.56c-.41-.2-.83-.3-1.25-.3-.82,0-1.1.24-1.1.94,0,.64.27.74,1.25,1.12,1.04.4,1.51.74,1.51,1.71,0,1.03-.61,1.56-1.84,1.56-.62,0-1.16-.11-1.63-.32Z"/>
    <path class="cls-2" d="m139.32,268.68c0-1.97.8-2.95,2.43-2.95s2.43.98,2.43,2.95-.8,2.95-2.43,2.95-2.43-.98-2.43-2.95Zm4.19,0c0-1.78-.44-2.36-1.76-2.36s-1.76.58-1.76,2.36.44,2.36,1.76,2.36,1.76-.58,1.76-2.36Z"/>
    <path class="cls-2" d="m145.71,265.84h.45l.11.99h.01c.37-.71.89-1.1,1.54-1.1.21,0,.4.03.58.09l-.13.64c-.14-.06-.32-.09-.52-.09-.57,0-1.03.33-1.39.96v4.2h-.64v-5.68Z"/>
    <path class="cls-2" d="m152.43,271.29c-.32.22-.69.34-1.11.34-.91,0-1.37-.49-1.37-1.47v-3.77s-.75,0-.75,0v-.55h.75v-1.15s.65-.17.65-.17v1.31h1.64v.55h-1.64v3.69c0,.74.19.98.81.98.31,0,.61-.12.88-.35l.14.58Z"/>
    <path class="cls-2" d="m153.46,264.35c0-.36.13-.49.49-.49s.48.13.48.49-.13.5-.48.5-.48-.13-.48-.49Zm.16,1.49h.65v5.68h-.65v-5.68Z"/>
    <path class="cls-2" d="m156.06,269.62v-3.78h.65v3.7c0,1.09.3,1.47,1.17,1.47.67,0,1.34-.27,1.85-.74v-4.43h.65v5.68h-.45l-.12-.83h-.01c-.54.57-1.28.93-2.08.93-1.1,0-1.65-.67-1.65-2.01Z"/>
    <path class="cls-2" d="m168.04,265.73c1.05,0,1.57.67,1.57,2.01v3.78h-.65v-3.7c0-1.04-.32-1.47-1.09-1.47-.59,0-1.24.28-1.74.85.02.16.03.34.03.54v3.78h-.65v-3.7c0-1.04-.32-1.47-1.09-1.47-.61,0-1.23.29-1.71.81v4.35h-.65v-5.68h.45l.12.86h.01c.51-.6,1.21-.96,1.95-.96s1.23.34,1.44,1.04c.56-.69,1.29-1.04,2.01-1.04h0Z"/>
    <path class="cls-2" d="m174.76,264.42v3.02h3.04s0,.58,0,.58h-3.04v3.51h-.67v-7.68h4.01v.59h-3.34Z"/>
    <path class="cls-2" d="m178.95,268.68c0-1.97.8-2.95,2.43-2.95s2.43.98,2.43,2.95-.8,2.95-2.43,2.95-2.43-.98-2.43-2.95Zm4.19,0c0-1.78-.44-2.36-1.76-2.36s-1.76.58-1.76,2.36.44,2.36,1.76,2.36,1.76-.58,1.76-2.36Z"/>
    <path class="cls-2" d="m185.34,265.84h.45l.11.99h.01c.37-.71.89-1.1,1.54-1.1.21,0,.4.03.58.09l-.13.64c-.14-.06-.32-.09-.52-.09-.57,0-1.03.33-1.39.96v4.2h-.64v-5.68Z"/>
    <path class="cls-2" d="m191.39,271.33l.14-.64c.33.21.71.32,1.13.32.97,0,1.29-.41,1.29-1.66v-5.51h.66v5.48c0,1.54-.64,2.3-1.92,2.3-.47,0-.9-.1-1.3-.29Z"/>
    <path class="cls-2" d="m196.38,268.68c0-1.97.8-2.95,2.43-2.95s2.43.98,2.43,2.95-.8,2.95-2.43,2.95-2.43-.98-2.43-2.95Zm4.19,0c0-1.78-.44-2.36-1.76-2.36s-1.76.58-1.76,2.36.44,2.36,1.76,2.36,1.76-.58,1.76-2.36Z"/>
    <path class="cls-2" d="m202.63,264.35c0-.36.13-.49.49-.49s.48.13.48.49-.13.5-.48.5-.48-.13-.48-.49Zm.16,1.49h.65v5.68h-.65v-5.68Z"/>
    <path class="cls-2" d="m205.21,265.84h.45l.12.86h.01c.54-.6,1.28-.96,2.06-.96,1.1,0,1.65.67,1.65,2.01v3.78h-.65v-3.7c0-1.09-.3-1.47-1.17-1.47-.63,0-1.3.27-1.83.75v4.41h-.65v-5.68Z"/>
    <path class="cls-2" d="m213.91,271.29c-.32.22-.69.34-1.11.34-.91,0-1.37-.49-1.37-1.47v-3.77s-.75,0-.75,0v-.55h.75v-1.15s.65-.17.65-.17v1.31h1.64v.55h-1.64v3.69c0,.74.19.98.81.98.31,0,.61-.12.88-.35l.14.58Z"/>
    <path class="cls-2" d="m222.02,269.57h-3.39l-.67,1.95h-.71l2.78-7.69h.62l2.77,7.69h-.72l-.67-1.95Zm-.2-.57l-1.5-4.35-1.5,4.35h3Z"/>
    <path class="cls-2" d="m224.29,268.68c0-1.97.84-2.95,2.49-2.95.51,0,1.01.1,1.37.29l-.14.6c-.32-.19-.74-.3-1.18-.3-1.39,0-1.87.59-1.87,2.36s.48,2.36,1.87,2.36c.49,0,.96-.1,1.3-.27l.14.62c-.44.16-.98.24-1.49.24-1.66,0-2.49-.98-2.49-2.95Z"/>
    <path class="cls-2" d="m229.25,269.99c0-1.12.6-1.71,1.81-1.71.6,0,1.19.09,1.76.27v-.84c0-1.03-.35-1.39-1.34-1.39-.57,0-1.1.15-1.63.44l-.15-.6c.59-.29,1.2-.43,1.83-.43,1.37,0,1.92.58,1.92,2.02v3.77h-.45l-.09-.85h-.01c-.56.63-1.24.96-2.01.96-1.09,0-1.64-.54-1.64-1.63Zm3.57.25v-1.21c-.48-.12-1.03-.19-1.56-.19-1.04,0-1.39.28-1.39,1.1s.32,1.08,1.26,1.08c.63,0,1.19-.26,1.7-.79Z"/>
    <path class="cls-2" d="m239.48,263.58v7.94h-.45l-.12-.83h0c-.52.6-1.18.94-1.91.94-1.38,0-2.07-.98-2.07-2.95s.72-2.96,2.1-2.96c.73,0,1.38.3,1.81.84v-2.98h.65Zm-.65,6.68v-3.21c-.44-.47-1.05-.74-1.69-.74-1.16,0-1.55.59-1.55,2.37s.38,2.36,1.52,2.36c.62,0,1.22-.26,1.72-.78Z"/>
    <path class="cls-2" d="m245.22,268.98h-3.58c.06,1.54.57,2.07,1.95,2.07.52,0,1-.12,1.37-.3l.14.6c-.46.17-1.01.28-1.53.28-1.75,0-2.56-.91-2.56-2.95s.78-2.95,2.23-2.95c1.61,0,2.27,1.11,1.98,3.25Zm-1.99-2.67c-1.14,0-1.56.54-1.6,2.12h3.05c.12-1.51-.29-2.12-1.45-2.12Z"/>
    <path class="cls-2" d="m254.42,267.74v3.78h-.65v-3.7c0-1.04-.32-1.47-1.09-1.47-.59,0-1.24.28-1.74.85.02.16.03.34.03.54v3.78h-.65v-3.7c0-1.04-.32-1.47-1.09-1.47-.61,0-1.23.29-1.71.81v4.35h-.65v-5.68h.45l.12.86h.01c.51-.6,1.21-.96,1.95-.96s1.23.34,1.44,1.04c.56-.69,1.29-1.04,2.01-1.04,1.05,0,1.57.67,1.57,2.01Z"/>
    <path class="cls-2" d="m256.07,264.35c0-.36.13-.49.49-.49s.48.13.48.49-.13.5-.48.5-.48-.13-.48-.49Zm.16,1.49h.65v5.68h-.65v-5.68Z"/>
    <path class="cls-2" d="m258.41,268.68c0-1.97.84-2.95,2.49-2.95.51,0,1.01.1,1.37.29l-.14.6c-.32-.19-.74-.3-1.18-.3-1.39,0-1.87.59-1.87,2.36s.48,2.36,1.87,2.36c.49,0,.96-.1,1.3-.27l.14.62c-.44.16-.98.24-1.49.24-1.66,0-2.49-.98-2.49-2.95Z"/>
    <path class="cls-2" d="m270.91,266.12c0,1.53-.74,2.28-2.22,2.28h-1.58v3.12h-.66v-7.68h2.26c1.48,0,2.21.76,2.21,2.28Zm-.65,0c0-1.28-.4-1.71-1.59-1.71h-1.57v3.41h1.55c1.2,0,1.61-.43,1.61-1.71Z"/>
    <path class="cls-2" d="m272.48,265.84h.45l.11.99h.01c.37-.71.89-1.1,1.54-1.1.21,0,.4.03.58.09l-.13.64c-.14-.06-.32-.09-.52-.09-.57,0-1.03.33-1.39.96v4.2h-.64v-5.68Z"/>
    <path class="cls-2" d="m275.92,268.68c0-1.97.8-2.95,2.43-2.95s2.43.98,2.43,2.95-.8,2.95-2.43,2.95-2.43-.98-2.43-2.95Zm4.19,0c0-1.78-.44-2.36-1.76-2.36s-1.76.58-1.76,2.36.44,2.36,1.76,2.36,1.76-.58,1.76-2.36Z"/>
    <path class="cls-2" d="m286.72,272.32c0,1.1-.93,1.73-2.57,1.73-1.43,0-2.14-.53-2.14-1.59,0-.6.26-1.07.76-1.39-.3-.18-.42-.42-.42-.73,0-.38.15-.74.44-1.04-.39-.33-.59-.85-.59-1.56,0-1.33.68-1.99,2.04-1.99.69,0,1.21.17,1.55.51.18-.3.48-.49.86-.53l.13.63c-.31.02-.54.12-.72.28.15.29.22.66.22,1.1,0,1.33-.68,1.99-2.04,1.99-.44,0-.81-.07-1.11-.21-.13.18-.2.39-.2.62,0,.48.31.62,1.77.74,1.5.11,2.02.44,2.02,1.45Zm-.66.05c0-.69-.32-.86-1.71-.95-.49-.03-.88-.09-1.17-.18-.41.26-.54.55-.54,1.15,0,.86.34,1.1,1.52,1.1,1.36,0,1.91-.33,1.91-1.12Zm-3.25-4.64c0,1.06.36,1.42,1.42,1.42s1.42-.35,1.42-1.42-.36-1.42-1.42-1.42-1.42.36-1.42,1.42Z"/>
    <path class="cls-2" d="m288.03,265.84h.45l.11.99h.01c.37-.71.89-1.1,1.54-1.1.21,0,.4.03.58.09l-.13.64c-.14-.06-.32-.09-.52-.09-.57,0-1.03.33-1.39.96v4.2h-.64v-5.68Z"/>
    <path class="cls-2" d="m291.36,269.99c0-1.12.6-1.71,1.81-1.71.6,0,1.19.09,1.76.27v-.84c0-1.03-.35-1.39-1.34-1.39-.57,0-1.1.15-1.63.44l-.15-.6c.59-.29,1.2-.43,1.83-.43,1.37,0,1.92.58,1.92,2.02v3.77h-.45l-.09-.85h-.01c-.56.63-1.24.96-2.01.96-1.09,0-1.64-.54-1.64-1.63Zm3.57.25v-1.21c-.48-.12-1.03-.19-1.56-.19-1.04,0-1.39.28-1.39,1.1s.32,1.08,1.26,1.08c.63,0,1.19-.26,1.7-.79Z"/>
    <path class="cls-2" d="m303.36,265.73c1.05,0,1.57.67,1.57,2.01v3.78h-.65v-3.7c0-1.04-.32-1.47-1.09-1.47-.59,0-1.24.28-1.74.85.02.16.03.34.03.54v3.78h-.65v-3.7c0-1.04-.32-1.47-1.09-1.47-.61,0-1.23.29-1.71.81v4.35h-.65v-5.68h.45l.12.86h.01c.51-.6,1.21-.96,1.95-.96s1.23.34,1.44,1.04c.56-.69,1.29-1.04,2.01-1.04h0Z"/>
    <path class="cls-2" d="m306.42,271.31l.13-.58c.44.22.92.32,1.44.32.95,0,1.28-.25,1.28-.99s-.32-.84-1.35-1.23c-1.06-.39-1.41-.75-1.41-1.61,0-.99.56-1.49,1.69-1.49.54,0,1.01.1,1.42.31l-.13.56c-.41-.2-.83-.3-1.25-.3-.82,0-1.1.24-1.1.94,0,.64.27.74,1.25,1.12,1.04.4,1.51.74,1.51,1.71,0,1.03-.61,1.56-1.84,1.56-.62,0-1.16-.11-1.63-.32Z"/>
    <path class="cls-2" d="m313.75,269.99c0-1.12.6-1.71,1.81-1.71.6,0,1.19.09,1.76.27v-.84c0-1.03-.35-1.39-1.34-1.39-.57,0-1.1.15-1.63.44l-.15-.6c.59-.29,1.2-.43,1.83-.43,1.37,0,1.92.58,1.92,2.02v3.77h-.45l-.09-.85h-.01c-.56.63-1.24.96-2.01.96-1.09,0-1.64-.54-1.64-1.63Zm3.57.25v-1.21c-.48-.12-1.03-.19-1.56-.19-1.04,0-1.39.28-1.39,1.1s.32,1.08,1.26,1.08c.63,0,1.19-.26,1.7-.79Z"/>
    <path class="cls-2" d="m319.77,265.84h.45l.12.86h.01c.54-.6,1.28-.96,2.06-.96,1.1,0,1.65.67,1.65,2.01v3.78h-.65v-3.7c0-1.09-.3-1.47-1.17-1.47-.63,0-1.3.27-1.83.75v4.41h-.65v-5.68Z"/>
    <path class="cls-2" d="m330.06,263.58v7.94h-.45l-.12-.83h0c-.52.6-1.18.94-1.91.94-1.38,0-2.07-.98-2.07-2.95s.72-2.96,2.1-2.96c.73,0,1.38.3,1.81.84v-2.98h.65Zm-.65,6.68v-3.21c-.44-.47-1.05-.74-1.69-.74-1.16,0-1.55.59-1.55,2.37s.38,2.36,1.52,2.36c.62,0,1.22-.26,1.72-.78Z"/>
    <path class="cls-2" d="m334.64,263.84h2.3c1.51,0,2.29.74,2.29,2.17,0,1.27-.66,1.99-1.94,2.13l2.19,3.39h-.79l-2.12-3.34h-1.27v3.34h-.66v-7.68Zm2.26,3.8c1.24,0,1.69-.43,1.69-1.63s-.44-1.62-1.67-1.62h-1.62v3.25h1.6Z"/>
    <path class="cls-2" d="m344.55,268.98h-3.58c.06,1.54.57,2.07,1.95,2.07.52,0,1-.12,1.37-.3l.14.6c-.46.17-1.01.28-1.53.28-1.75,0-2.56-.91-2.56-2.95s.78-2.95,2.23-2.95c1.61,0,2.27,1.11,1.98,3.25Zm-1.99-2.67c-1.14,0-1.56.54-1.6,2.12h3.05c.12-1.51-.29-2.12-1.45-2.12Z"/>
    <path class="cls-2" d="m345.8,271.31l.13-.58c.44.22.92.32,1.44.32.95,0,1.28-.25,1.28-.99s-.32-.84-1.35-1.23c-1.06-.39-1.41-.75-1.41-1.61,0-.99.56-1.49,1.69-1.49.54,0,1.01.1,1.42.31l-.13.56c-.41-.2-.83-.3-1.25-.3-.82,0-1.1.24-1.1.94,0,.64.27.74,1.25,1.12,1.04.4,1.51.74,1.51,1.71,0,1.03-.61,1.56-1.84,1.56-.62,0-1.16-.11-1.63-.32Z"/>
    <path class="cls-2" d="m354.59,268.98h-3.58c.06,1.54.57,2.07,1.95,2.07.52,0,1-.12,1.37-.3l.14.6c-.46.17-1.01.28-1.53.28-1.75,0-2.56-.91-2.56-2.95s.78-2.95,2.23-2.95c1.61,0,2.27,1.11,1.98,3.25Zm-1.99-2.67c-1.14,0-1.56.54-1.6,2.12h3.05c.12-1.51-.29-2.12-1.45-2.12Z"/>
    <path class="cls-2" d="m355.88,269.99c0-1.12.6-1.71,1.81-1.71.6,0,1.19.09,1.76.27v-.84c0-1.03-.35-1.39-1.34-1.39-.57,0-1.1.15-1.63.44l-.15-.6c.59-.29,1.2-.43,1.83-.43,1.37,0,1.92.58,1.92,2.02v3.77h-.45l-.09-.85h-.01c-.56.63-1.24.96-2.01.96-1.09,0-1.64-.54-1.64-1.63Zm3.57.25v-1.21c-.48-.12-1.03-.19-1.56-.19-1.04,0-1.39.28-1.39,1.1s.32,1.08,1.26,1.08c.63,0,1.19-.26,1.7-.79Z"/>
    <path class="cls-2" d="m361.91,265.84h.45l.11.99h.01c.37-.71.89-1.1,1.54-1.1.21,0,.4.03.58.09l-.13.64c-.14-.06-.32-.09-.52-.09-.57,0-1.03.33-1.39.96v4.2h-.64v-5.68Z"/>
    <path class="cls-2" d="m365.35,268.68c0-1.97.84-2.95,2.49-2.95.51,0,1.01.1,1.37.29l-.14.6c-.32-.19-.74-.3-1.18-.3-1.39,0-1.87.59-1.87,2.36s.48,2.36,1.87,2.36c.49,0,.96-.1,1.3-.27l.14.62c-.44.16-.98.24-1.49.24-1.66,0-2.49-.98-2.49-2.95Z"/>
    <path class="cls-2" d="m370.75,263.58h.64v3.06h.01c.55-.61,1.26-.94,1.98-.94,1.11,0,1.66.69,1.66,2.05v3.76h-.65v-3.67c0-1.13-.3-1.51-1.17-1.51-.64,0-1.28.27-1.83.77v4.41h-.65v-7.94Z"/>
    <path class="cls-2" d="m380.7,268.98h-3.58c.06,1.54.57,2.07,1.95,2.07.52,0,1-.12,1.37-.3l.14.6c-.46.17-1.01.28-1.53.28-1.75,0-2.56-.91-2.56-2.95s.78-2.95,2.23-2.95c1.61,0,2.27,1.11,1.98,3.25Zm-1.99-2.67c-1.14,0-1.56.54-1.6,2.12h3.05c.12-1.51-.29-2.12-1.45-2.12Z"/>
    <path class="cls-2" d="m381.95,271.31l.13-.58c.44.22.92.32,1.44.32.95,0,1.28-.25,1.28-.99s-.32-.84-1.35-1.23c-1.06-.39-1.41-.75-1.41-1.61,0-.99.56-1.49,1.69-1.49.54,0,1.01.1,1.42.31l-.13.56c-.41-.2-.83-.3-1.25-.3-.82,0-1.1.24-1.1.94,0,.64.27.74,1.25,1.12,1.04.4,1.51.74,1.51,1.71,0,1.03-.61,1.56-1.84,1.56-.62,0-1.16-.11-1.63-.32Z"/>
  </g>
</svg>