<?xml version="1.0" encoding="UTF-8"?>
<svg id="Layer_1" data-name="Layer 1" xmlns="http://www.w3.org/2000/svg" viewBox="0 0 500 300">
  <defs>
    <style>
      .cls-1 {
        font-size: 78.29px;
      }

      .cls-1, .cls-2, .cls-3 {
        font-family: HelveticaLTStd-Roman, 'Helvetica LT Std';
      }

      .cls-1, .cls-3 {
        fill: #ff9e18;
      }

      .cls-2 {
        font-size: 27.4px;
      }

      .cls-2, .cls-4 {
        fill: #005487;
      }

      .cls-4 {
        stroke-width: 0px;
      }

      .cls-3 {
        font-size: 12.43px;
      }
    </style>
  </defs>
  <text class="cls-3" transform="translate(439.9 236.95)"><tspan x="0" y="0">®</tspan></text>
  <g>
    <path class="cls-4" d="m247.89,16.21l49.75,49.71v59.57l-59.57-59.99,9.83-9.86,19.96,19.51,8.66-9.23-28.62-29.37-15.49,15.94s-9.86,6.92-18.88-1.05l34.37-35.24Z"/>
    <path class="cls-4" d="m246.2,157.45l-49.75-49.71v-59.57l59.57,59.99-9.83,9.86-19.96-19.51-8.66,9.23,28.63,29.37,15.49-15.94s9.86-6.92,18.88,1.05l-34.37,35.24Z"/>
    <text class="cls-1" transform="translate(50.75 236.63) scale(1 1.06)"><tspan x="0" y="0">SAWAEED</tspan></text>
    <text class="cls-2" transform="translate(136.21 277.63)"><tspan x="0" y="0">HOLDING P.J.S.C</tspan></text>
  </g>
</svg>