<?xml version="1.0" encoding="UTF-8"?>
<svg xmlns="http://www.w3.org/2000/svg" version="1.1" viewBox="0 0 500 300">
  <defs>
    <style>
      .cls-1 {
        fill: #699043;
      }

      .cls-2 {
        fill: #70715b;
      }
    </style>
  </defs>
  <!-- Generator: Adobe Illustrator 28.6.0, SVG Export Plug-In . SVG Version: 1.2.0 Build 709)  -->
  <g>
    <g id="Layer_1">
      <g>
        <path class="cls-1" d="M317.2,108.6h-.1c0,.2-4.6,6.1-14.6,11.8l-1.6.9v17.4h-88.8v-35.9c2.6-3.7,5.4-7,8.6-9.6,8.6-7.1,20.3-11.1,36.3-10.7,4.3,0,7.2,0,7.5-2.2s-5.9-4.8-23.7-6c13.7-1.6,27.2-.5,38.1,13.7,1.5,2,3.6,3,5.2,3s.7,0,1-.2c.2,0,.4-.2.5-.3-14-32.1-53.2-33.1-78.6-13.8-3.9,2.9-7.4,6.3-10.5,10.2-.2.2-.3.4-.5.7v68.7h121.3c0-1.4,0-22.7,0-47.7M322.4,101.6l-2.5,3.2h0v54.3h-127.1v-67.6q0,0,.1-.2c-1.2,2-2.1,3.8-2.6,5.3v65.1h132.1v-60.1Z"/>
        <path class="cls-2" d="M195.8,28c0,1.2-.1,22.7-.1,47.6,3.1-3.4,7.9-7.5,14.7-11.7l1.6-.9v-17.4h88.8v36c-2.6,3.7-5.4,7-8.6,9.6-8.6,7.1-20.3,11.1-36.3,10.7-4.3,0-7.2,0-7.5,2.2s6,4.8,23.7,6c-13.7,1.6-27.2.5-38.1-13.7-1.5-2-3.7-3-5.2-3s-.7,0-1,.2c-.2,0-.4.2-.5.4,13.1,30,48.2,32.8,73.5,17.3h0c.4-.2.8-.5,1.3-.8,1.3-.9,2.6-1.8,3.9-2.7,4.1-3.1,7.9-6.8,11.1-11V28h-121.3M190.4,22.7v60s.8-1.5,2.5-3.7v-4.6h0V25h127v67.8c.9-1.4,1.7-2.8,2.4-4.2V22.7h-131.9Z"/>
        <path class="cls-2" d="M112.6,215.7c-.2,0-.8.1-1.1,0-.4-.1-.8-.2-1-.4-1.2-.8-3.7-2.4-4.4-3.3-.2-.2-.4-.7-.4-1,0-1.6,5.4-2.7,5.9-2.7s1.6.2,2.2.4c1.1.4,2.5,1.5,3.4,2v-.5c-.4-1.6-1.6-4-3.7-5.1-.3-.2-.8-.3-1.1-.3s-1.7.2-2.2.4c-2.4.7-5,3.2-6.2,5.2-.4.7-.8,1.5-1.1,2.1,0,.2,0,.5,0,.7,0,.3,0,.5,0,.7.2.5.5,1.6.8,1.6h-5.5c-2.3-3.6-1.7-9.4-3.5-13.5-.6,1.2-1.4,2.6-2,3.8l1.9,7.4c0,.5-.5,2.1-1.5,2.3-1.6.4-3.4.5-4.6.7-.4,0-.8.1-1,.1-.3,0-2.2-.1-3.2-.4-.3-.1-.5-.4-.5-.5-.7-.7,0-2.3-.7-2.7-.6,1.7-1.3,4.9-1.3,5.2s.2.8.4,1.1c0,.1.4.2.5.4.8.2,2.5.4,2.8.4s3.4-.2,5.1-.4c1-.1,2.6-.4,2.9-.7,1-.8,1.3-2.2,2-3.2.6.8.8,2.3,1.9,3,.2.2.7.4.9.4h21.7l1.7-3.5h-2.7l-6.4.3Z"/>
        <path class="cls-2" d="M145.9,199.7l4,2.3c.5-1,1-2,1.6-3l-3.9-2.4-1.2,2.3-4.2-2.7c-.7,1.1-1.3,2.2-1.7,3.2,1.4.8,2.9,1.6,4.2,2.3.4-.7.9-1.5,1.2-2"/>
        <path class="cls-2" d="M158.8,201.3l3.7,2.2c.7-1,1.2-2,1.7-2.9-1.3-.7-2.8-1.6-4.1-2.3-.4.6-.8,1.3-1.2,1.9-1.3-.7-2.9-1.7-3.8-2.2-.7,1-1.1,2-1.6,3l4,2.4c.4-.8.9-1.5,1.3-2.1"/>
        <path class="cls-2" d="M147.1,215.6c-.2,0-1.1-.2-1.5-.2-.8-.2-2.2-1.8-2.2-2.4,0-1.3,2.8-2.3,3.1-2.4.2-.1.5-.1.8-.1,1.9,0,2.8,2.1,2.8,3.3-.1,1.2-2.4,1.8-3,1.8M185.6,201.1l2-3.9c-1-.5-2-1.1-3-1.6-.3-.2-.4-.3-.4-.5s.1-.3.2-.6c.1-.3.2-.5.2-.6,0-.2-.1-.3-.3-.3-.2-.1-.4.1-.8.7l-1.8,3.2c-.2.3-.2.6-.2.8,0,.4.2.7.7,1h.2c1.4,8.2,2,13.4,2,15.7s0,.8-.1.8h-9l-1.7-22.9-3,3.6,2.5,19.3h-8.2c-.4,0-.8-.1-1.1-.5l1-6.3v-1.6c-1.1,1.1-2.3,2.4-3.2,3.6-.1.2-.2.5-.2.8v4h-10.8c.7-1.1,2-3.2,2-4.5s-.7-4.8-2.4-4.8c-2.8,0-7.7,4.3-9.1,6.8-.4.7-.2,1.6-.4,2.5h-6.3c-1.3,0-3.2-.2-3.5-1.7-1.4-9.5-1.3-13.5-2.3-23.8-.8.9-1.8,2-2.5,3.1,0,.2,0,.5,0,.8l2,25.1h31.6c.5-.7,1-1.4,1.4-2.1.4.5.5,1,.7,1.3.3.4.8.7,1.1.7h8.3c.5,0,.9-.2,1.2-.6.1-.1.3-.5.8-1.3l.3,1.9h11.3c.3,0,.7-.9,1-2.7.3-1.7.5-3,.5-3.9l-1.2-11.6c.2,0,.4,0,.6,0"/>
        <path class="cls-2" d="M214.2,234.6l-3.7-2.3c-.7,1-1.3,2.1-1.6,2.8,1.3.7,2.7,1.5,3.9,2.1.4-.7.7-1.4,1.1-1.8,1.2.7,2.5,1.5,3.5,1.9.4-.7,1.4-2,1.4-2.4v-.4l-3.4-1.9c-.5.7-.9,1.5-1.2,2"/>
        <path class="cls-2" d="M232.1,227.3c1.5.9,3.2,1.7,4.7,2.5l1.8-3.4-4.7-2.4c-.7,1-1.4,2.2-1.8,3.3"/>
        <path class="cls-2" d="M250.4,215.6c2.4-1.3,5.4-4.8,8.3-4.8s5.8,2.5,5.8,3.9-1,.9-1.3.9h-12.8ZM267.2,213.1c0-2.5-4.3-6-6.5-6s-6.9,3.9-9,5.3c-1.1.7-2.2,1.5-3.1,1.9.4-2.2.8-3.5.8-6.9s-.4-4.8-.4-7.2c.1,0,.2.1.2.1l2.2-4.3c-1.1-.5-2.9-1.3-3.5-2.1-.4-.5.7-1.4-.2-2-.5.5-2.8,4.2-2.8,4.9s.1.6.2.7c.2.5.9.8,1,1.2.4,3.1.5,6.6.8,9.3.1.8.2,1.9.2,2.7.1,1.1.4,2.9.4,3.1,0,1.1-1.5,2-2.2,2h-4.2c-.3,0-.6-.4-.8-.5-.3-.2-.5-.5-.5-.8v-3.6c0-.4-.1-1.4-.2-2.1-.1-.5-.1-1.3-.4-1.7-1.6,1.2-2,2.5-2.5,3.6-.1.2-.2.5-.2.8s.4,2.7.5,4.4h-19.9c-.7,1.4-1.3,2.7-1.9,3.6,1.9,1,7.4-.7,7.6,3.4-.6.5-2.2,1.3-3.2,1.6-1.8.7-3.6.9-5.4,1-.8.1-2.3.2-2.5.2-2.4,0-7-.5-7-5.1s2.8-6.9,2.7-7.4v-.5c-.1,0-.3-.1-.3-.1-2.1,1.9-4.4,7.2-4.4,10.7s3.7,6.4,7.5,6.4,3.4-.3,4.7-.7c2.6-.7,5.3-1.6,7.3-2.8.3-.2.4-.5.5-.7,1.7-2.1,2.4-4.2,3.6-6.2h9.5c.5-.7,1-1.5,1.5-2.1.2.8.4,1.4.7,2.1h26.1c1.3,0,3.1-5.8,3.1-6.2"/>
        <path class="cls-2" d="M260.8,200.5l-4-2.5c-.6,1-1.1,2.1-1.6,3,1.3.7,2.8,1.6,4,2.2l1.6-2.7Z"/>
        <path class="cls-2" d="M279.2,215.3c-.2,0-.6.1-1-.1-.8-.1-1.8-.4-2.5-.8-.4-.2-1-.7-1-1,0-1,2.2-2.8,2.3-2.8q.2-.1.5-.1c.3,0,.4,0,.5.1.3.1.7.3,1,.7.8.9,1.4,2.7,1.4,3.6-.3.3-.9.4-1.2.4M290.8,209.5c0,.3,2.3,4.1,2.3,5.9s.1.4-.1.4h-9.1c-.6,0-1.2-.2-1.3-.8-.2-1.9-.7-4.6-1.6-6.3-.4-.7-1-1.4-1.6-1.9-.4-.3-.8-.4-1.1-.4s-.6.1-.7.2c-.7.4-1.7,1.3-2,1.9-.6.9-1.3,2.1-1.6,2.8-.4.8-.6,1.8-.8,2.7-.1.4-.1.8-.1,1.1s.1,1.5.3,1.9c1.5,2.8,4.9,1.8,7.3,2.2-1.2,3.2-5.4,7.1-8.3,8.1-.8.3-1.9.4-2.2.4s-.7,0-.9-.1c-1-.2-2.5-.7-3.5-1-.2-.1-.7-.2-1-.2s-.4.3-.5.5c.9,1,2.8,1.6,3.9,1.7,2.2.4,5.2,1.3,5.5,1.3s1.2-.1,1.6-.3c.7-.3,1.6-.8,2.1-1.1,2.8-2.4,4.1-5.7,4.8-8.3.1-.4.1-.7.3-1.1h11.6c.5-1.9,1.1-5.4,1.1-5.7,0-1.9-1.6-6.4-2.7-7.5-.6,1.3-1.7,3.3-1.7,3.6"/>
        <path class="cls-2" d="M286.2,226.5l3.9,2.5c.7-1.1,1.3-2.1,1.7-3-1.3-.7-2.7-1.6-4-2.2-.4.7-1,1.7-1.6,2.7"/>
        <path class="cls-2" d="M300.7,185.8c-.4-.1-.7-.2-1.1-.5v-.2c0-1,2-1.4,2.6-1.4s.7.1,1,.3c.2.1.5.4.7.4.2-.5.5-1.2.5-1.7-.1-.1-.3-.3-.4-.4-.2-.2-.8-.2-1.1-.2-2,0-4.7,2-4.7,4.2s.1.5.2.6c.5.7,2.2.7,2.9,1-1,.6-2.7,1.9-2.7,2.1v.4c2.1-1.2,5-2.6,6.9-2.5.4-.4.8-1,1-1.5-1.9-.1-4-.2-5.8-.6"/>
        <path class="cls-2" d="M301.4,196.8l2.2,22.4c1-2.1,1.7-4.5,1.7-6.2l-1.3-22.1c-.7,1.3-2.6,4.2-2.6,5.9"/>
        <path class="cls-2" d="M92.6,249.9s-.8-2.2-1.7-3.1c0,1.5-.7,3.9-.7,3.9-.7,2-1.5,4.3-2.2,6.5h7.1c-1.2-3.4-2.4-6.8-2.5-7.3M99.8,269.1c-1.2-1.5-2.1-4-2.1-4-.9-2.6-1.9-5.7-1.9-5.7h-8.5s-1.1,3.1-1.8,5.5c0,0-.9,2.3-.8,4.2h-2.9c0-1.8,1-4.2,1-4.2l5.6-16.3s.9-2.9.7-3.9h3.7c1.9,1,3.2,4.7,3.2,4.7l5.2,15.5s1,2.6,2.4,4.1h-3.8Z"/>
        <path class="cls-2" d="M112.9,252.7s-2.6,0-3.8,2v10.5c.9,2.6,3.7,2.6,3.7,2.6,2.5,0,4.2-3.1,4.2-8.2,0-3.2-1-6.9-4.1-6.9M112.3,269.3c-2.3,0-5.5-1.1-6.4-3.4v-17.6s0-2.8-.8-3.6h3.2c.8,1.1.8,4,.8,4v4.6c1.9-2.1,3.9-1.9,3.9-1.9,5,0,7.5,3.7,7.5,8.9,0,5.8-3.8,9-8.2,9"/>
        <path class="cls-2" d="M135.1,269.1s-.5-.7-.7-1.8c-1.9,2-4.3,2-4.3,2-4.2,0-6-2.1-6-4.9v-13h3.1v12.9c0,1.3.4,3.3,3.4,3.3s3-.8,3.8-1.5v-14.7h3.2v13.9s0,2.5,1.1,3.6h-3.6v.2Z"/>
        <path class="cls-2" d="M153.6,246.9h-2.7c.5,1,.5,2.1.5,2.1v15.9s0,1.1.4,1.9h3.1c3.5,0,6.9-4.8,6.9-10.1,0-5.3-2.7-9.8-8.2-9.8M154.4,269.1h-5.5c-.9-.5-.9-3.6-.9-3.6v-16.7s0-2.3-1.1-3.9h7.6c6,0,10.8,4.5,10.8,12.1,0,6.6-4.8,12.1-10.9,12.1"/>
        <path class="cls-2" d="M180.9,269.1c-.7-.8-.7-3.5-.7-3.5v-9.3c0-2.6-1.5-3.1-3.4-3.1,0,0-2.1,0-3.6,2.2v10.2h0s0,2.3,1.2,3.5h-3.7c-.7-.6-.7-3.5-.7-3.5h0v-17.2s0-2.8-.9-3.5h3.2c.9,1.1.9,4,.9,4v4.9c1-1.3,2.4-2.4,5-2.4s5.2,1.2,5.2,4.8v9.4s0,2.3,1.1,3.5h-3.6Z"/>
        <path class="cls-2" d="M196.6,258.3c-1.7,1.4-6.2,1.7-6.2,6.6s1,2.6,2.4,2.6,2.7-.6,3.8-1.4v-7.8ZM197.3,269.1c-.6-.9-.6-2.1-.6-2.1-.5,1-2.8,2.2-4.9,2.2s-3.8-.8-4.4-3.3c-1.3-6.5,7.8-7,8.9-8.9,1.3-2.2-.1-4.8-2.4-4.5,0,0-2.7.3-3.8,2.8v-2.8c1.6-1.3,4.3-1.3,4.3-1.3,2.7,0,5.4,2.1,5.4,4.5v9.9s0,2.3,1.1,3.5h-3.6Z"/>
        <path class="cls-2" d="M211.1,252.7s-2.6,0-3.8,2v10.5c.9,2.6,3.7,2.6,3.7,2.6,2.5,0,4.2-3.1,4.2-8.2,0-3.2-1-6.9-4.1-6.9M210.6,269.3c-2.3,0-5.5-1.1-6.4-3.4v-17.6s0-2.8-.8-3.6h3.2c.8,1.1.8,4,.8,4v4.6c1.9-2.1,3.9-1.9,3.9-1.9,5,0,7.5,3.7,7.5,8.9-.1,5.8-3.8,9-8.2,9"/>
        <path class="cls-2" d="M223.8,269.1c-.7-.9-.7-3.5-.7-3.5h0v-14.1h3.2v14.1s0,2.3,1.1,3.5h-3.6ZM224.6,248.5c-1.1,0-2-.9-2-2s.9-2,2-2,2,.9,2,2c0,1.1-1,2-2,2"/>
        <path class="cls-2" d="M247.6,246.9h-3.2c.2.2.5,1.9.5,3.2v7.6h3.2c2.7,0,5.1-1.8,5.1-5.6s-1.8-5.2-5.6-5.2M249.1,259.6h-4.2v5s0,2.9,1.6,4.5h-3.9c-.9-1-.9-4.1-.9-4.1v-15.2c.1,0,.1-3.8-1-5h7.7c4.5,0,8.6,2.1,8.6,7.1-.2,5-4.4,7.7-7.9,7.7"/>
        <path class="cls-2" d="M266.1,252.7c-2.5,0-4,3.5-4,8.1s0,1.1.1,1.7c1.8-1.7,4.9-2.4,5.9-4.8,1.2-2.8-.2-5-2-5M271.3,268c-1.4,1.3-4.9,1.3-4.9,1.3-4.5,0-7.6-3.6-7.6-8.6s2.5-9.4,7.2-9.4,7.1,3.8,3.8,7.5c-2.4,2.6-5.6,3.1-7.5,4.9,1.3,4.7,5.8,5.8,8.9,1.6v2.7h.1Z"/>
        <path class="cls-2" d="M286.8,269.1c-.8-.6-.8-3.5-.8-3.5v-9.1c0-1.3-.3-3.2-3.1-3.2s-3.7,2-4,2.9v9.3c0,2.2,1,3.5,1.1,3.5h-3.6c-.7-.7-.7-3.5-.7-3.5v-14.1h3.1v3.3c1.3-3.5,5.2-3.5,5.2-3.5,1.7,0,4.5.9,5,3.5.2.9.2,1.4.2,2.1v8.5s0,2.3,1.1,3.5h-3.5v.3Z"/>
        <path class="cls-2" d="M298.3,269.3s-2.7,0-4.4-1.3v-2.8c1,2.5,3.7,2.5,3.7,2.5,2.3,0,3.6-1.5,3.6-3s-1.6-2.7-3.8-4.2c-2.4-1.7-3.6-3.1-3.6-5.4s2.5-3.7,5.3-3.7c0,0,2.6,0,4.4,1.2v2.8c-1.5-2.8-3.8-2.8-3.8-2.8-3.3,0-4.1,2.8-.8,4.8,3.8,2.4,5.7,3.9,5.7,6.3,0,3.9-3.1,5.6-6.3,5.6"/>
        <path class="cls-2" d="M309.4,269.1c-.7-.9-.7-3.5-.7-3.5h0v-14.1h3.2v14.1s0,2.3,1.1,3.5h-3.6ZM310.3,248.5c-1.1,0-2-.9-2-2s.9-2,2-2,2,.9,2,2c-.1,1.1-1,2-2,2"/>
        <path class="cls-2" d="M370.2,246.9h-3.8s.5.9.5,3v3.7h3.2s3.7,0,4.9,2.5c-1.8-.5-3.5-.6-4.9-.6h-3.2v8.7s0,3.6,1.5,4.8h-3.9c-.9-.7-.9-3.5-.9-3.5v-15.8s0-3.9-1.1-5h9.5s5.6,0,6.1,3.1c-2-1-5-.9-7.9-.9"/>
        <path class="cls-2" d="M391.8,269.1s-.5-.7-.7-1.8c-1.9,2-4.4,2-4.4,2-4.2,0-6-2.1-6-4.9v-13h3.1v12.9c0,1.3.4,3.3,3.4,3.3s3-.8,3.8-1.5v-14.7h3.2v13.9s0,2.5,1.1,3.6h-3.5v.2Z"/>
        <path class="cls-2" d="M410.1,269.1c-.8-.6-.8-3.5-.8-3.5v-9.1c0-1.3-.3-3.2-3.1-3.2s-3.7,2-4,2.9v9.3c0,2.2,1,3.5,1.1,3.5h-3.5c-.7-.7-.7-3.5-.7-3.5v-14.1h3.1v3.3c1.3-3.5,5.1-3.5,5.1-3.5,1.7,0,4.5.9,5,3.5.2.9.2,1.4.2,2.1v8.5s0,2.3,1.1,3.5h-3.5v.3Z"/>
        <path class="cls-2" d="M424.2,252.6c-2.5,0-4.1,2.9-4.3,7.3-.3,4.8,2.3,7.9,5.5,7.9,0,0,1.1,0,2.4-.9v-11.6c-.9-2.7-3.6-2.7-3.6-2.7M424.2,269.3c-4.4,0-7.5-4-7.5-8.4s3.3-9.6,7.3-9.6c0,0,2.7,0,4,1.3v-4.6s0-2.2-.9-3.3h3.2c.9,1,.9,3.7.9,3.7v17.2c-2,3.7-7,3.7-7,3.7"/>
        <path class="cls-2" d="M324.2,252.8c-1.9,0-4.3,2.1-4.3,7.4s2.2,7.8,4.3,7.8,4.5-2.9,4.5-7.8c-.1-5.2-2.6-7.4-4.5-7.4M324.2,269.3c-4.4,0-7.9-3-7.9-9s3.5-9,7.9-9,7.9,3.3,7.9,9c0,5-3.6,9-7.9,9"/>
        <path class="cls-2" d="M347.3,269.1c-.8-.6-.8-3.5-.8-3.5v-9.1c0-1.3-.3-3.2-3.1-3.2s-3.7,2-4,2.9v9.3c0,2.2,1,3.5,1.1,3.5h-3.5c-.7-.7-.7-3.5-.7-3.5v-14.1h3.1v3.3c1.3-3.5,5.2-3.5,5.2-3.5,1.7,0,4.5.9,5,3.5.2.9.2,1.4.2,2.1v8.5s0,2.3,1.1,3.5h-3.6v.3Z"/>
        <path class="cls-2" d="M339.2,213.2c-.1.1-.2.1-.4.1-.2.1-.7.1-.9.1-.7,0-2.9-.3-2.9-1.6s2-2.8,2.9-2.8,2.6,2.7,2.6,3c0,.3-.8,1-1.3,1.2M343.7,218.8c.2-.8.2-2.5.2-2.8s0-1.5-.1-2c0-.5-.2-1.5-.4-1.9-.2-.8-.4-1.7-.7-2.4-.5-1.1-1.1-3-2.6-4-.4-.2-1-.4-1.3-.4-2.3,0-5.5,5.4-5.5,8s.4,4.1,3.4,4.1,1.6-.1,2-.2c1.2-.5,2.1-1.7,2.7-2.8.2.7.5,1.4.6,2.1.1.5.1,1.1.1,1.4s0,1.5-.2,2c-.1.1-.2.4-.2.5-1.5,1.8-4.5,2.6-5.8,3-1.2.3-2.6.5-3.7.7-.6.1-1.7.1-2,.1-3.3,0-6.5-.2-6.5-4.9s1.7-4.6,1.7-6.2-.1-.6-.4-.7c-1.1.8-3.5,6.5-3.5,9.5,0,5.2,4.4,6.2,8.1,6.2s2.6-.1,3.7-.2c3.2-.5,8.2-2.8,9.6-6.6.4-1.1.7-1.9.8-2.5"/>
        <path class="cls-2" d="M336.6,199.2l3.7,2.2,1.6-3c-1.3-.8-2.7-1.7-3.8-2.4-.4.8-.7,1.4-1.2,2.2l-4.1-2.7c-.7,1.1-1.4,2.3-1.9,3.3l4.3,2.3c.6-.7,1-1.6,1.4-1.9"/>
        <path class="cls-2" d="M354.8,214.3c-.8,0-3.1-.4-3.1-1.8s1.8-2.7,2.6-2.7c1.7,0,2.5,3.3,2.5,3.7-.8.8-1.2.8-2,.8M358.4,209.1c-.2-.7-1.9-3.4-2.9-3.4-1.9,0-5.3,6-5.3,7.9s.7,4.6,3.5,4.6,3-1,4.1-3.3c.1.1.1.2.2.2,0,.5.1,1.3.1,1.5,0,3.4-3.3,6.3-7.2,8.9-1,.6-2.8,1.5-3.9,1.5s-4.2-.8-4.5-.8-.5.3-.6.5c1.1.9,7.2,2.1,7.2,2.1.8.1,1.4.1,1.7.1,4.1,0,7-5.3,8.2-9,.5-1.6.5-3.3.7-4.3s.1-1,.1-1.3-.2-2.2-.4-3.3c-.4-.5-.8-1.4-1-1.9"/>
        <path class="cls-2" d="M394.9,197.2l-4.7-2.5-1.8,3.4c1.5,1,3.1,1.9,4.7,2.7.6-1.2,1.3-2.5,1.8-3.6"/>
        <path class="cls-2" d="M428.2,215.3c-.3.2-1.1.5-1.4.5h-13.5c1.7-.5,4.9-3.5,7.3-4.5.6-.3,1.9-.4,2.2-.4s.8.2,1.2.2c1.2-.1,4.4,2.8,4.2,4.2M424.7,207.1c-.3,0-1.4.2-1.9.4-2.6.8-6.4,4.1-9.3,6-.6.4-1.9,1.1-2.5,1.5-.4.2-1.2.8-2,.8-1-.1-2.1,0-2.9,0s-.8-.2-.9-.5c1.4-1.7,1.3-5.1,1.4-6.5-1,1-2.3,2.3-3.2,3.3-.2.2.5,3.6-1.3,3.6h-6.7c-1-.1-2.2-.4-2.2-1.7l1.6-6.4v-1.7c-1.2.8-3.5,3-3.7,3.8-.4,1.3-.1,4.5-1.3,6-.9,0-7.2-.1-9.3,0h-.6c-2.3-3.6-1.7-9.4-3.5-13.5-.6,1.2-1.4,2.6-2,3.8l1.9,7.4c-.1.5-.5,2.1-1.5,2.3-1.6.4-3.4.5-4.6.7-.4,0-.8.1-1,.1-.3,0-2.1-.1-3.2-.4-.3-.1-.5-.4-.5-.5-.7-.7.1-2.3-.7-2.7-.6,1.7-1.3,4.9-1.3,5.2s.2.8.4,1.1c.1.1.4.2.5.4.8.2,2.5.4,2.8.4s3.4-.2,5.1-.4c1-.1,2.6-.4,2.9-.7,1-.8,1.3-2.2,2-3.2.6.8.8,2.3,1.9,3,.2.2.8.4,1,.4h10.3c.3-.7.6-1.4,1.1-2.1.4.5,1.2,2.1,1.9,2.1h8.1c.4,0,1.1-.7,1.6-1.2.2.4.6.8.8,1.2h23.5c.3,0,1-.5,1.3-.9.6-1.1,1.1-2.2,1.7-3.1.4-.7.7-1.9.7-2.1,0-2.4-4.3-5.9-6.4-5.9"/>
      </g>
    </g>
  </g>
</svg>