<?xml version="1.0" encoding="UTF-8"?>
<svg id="Layer_1" data-name="Layer 1" xmlns="http://www.w3.org/2000/svg" viewBox="0 0 200 200">
  <defs>
    <style>
      .cls-1 {
        fill: #1d252c;
      }

      .cls-2 {
        fill: #e3e3e4;
      }

      .cls-3 {
        fill: #db0032;
      }
    </style>
  </defs>
  <g>
    <circle class="cls-1" cx="100" cy="100" r="70.03"/>
    <circle class="cls-2" cx="100" cy="100" r="56.52"/>
    <circle class="cls-1" cx="100" cy="100" r="41.94"/>
    <circle class="cls-3" cx="100" cy="100" r="24.95"/>
    <circle class="cls-1" cx="100" cy="100" r="9.82"/>
  </g>
  <path class="cls-3" d="M181.9,97.3h-6.55c-1.4-39.43-33.21-71.25-72.65-72.65v-6.56c0-1.49-1.21-2.7-2.7-2.7s-2.7,1.21-2.7,2.7v6.56c-39.43,1.39-71.25,33.21-72.65,72.65h-6.55c-1.49,0-2.7,1.21-2.7,2.7s1.21,2.7,2.7,2.7h6.55c1.4,39.43,33.21,71.25,72.65,72.65v6.56c0,1.49,1.21,2.7,2.7,2.7s2.7-1.21,2.7-2.7v-6.56c39.43-1.39,71.25-33.21,72.65-72.65h6.55c1.49,0,2.7-1.21,2.7-2.7s-1.21-2.7-2.7-2.7h0ZM102.7,169.94v-6.44c0-1.49-1.21-2.7-2.7-2.7s-2.7,1.21-2.7,2.7v6.44c-36.45-1.39-65.85-30.79-67.24-67.24h6.45c1.49,0,2.7-1.21,2.7-2.7s-1.21-2.7-2.7-2.7h-6.45c1.39-36.45,30.79-65.85,67.24-67.24v6.44c0,1.49,1.21,2.7,2.7,2.7s2.7-1.21,2.7-2.7v-6.44c36.45,1.39,65.85,30.79,67.24,67.24h-6.45c-1.49,0-2.7,1.21-2.7,2.7s1.21,2.7,2.7,2.7h6.45c-1.39,36.45-30.79,65.85-67.24,67.24h0Z"/>
</svg>