<?xml version="1.0" encoding="UTF-8"?>
<svg id="Layer_1" data-name="Layer 1" xmlns="http://www.w3.org/2000/svg" viewBox="0 0 200 200">
  <defs>
    <style>
      .cls-1 {
        fill: #1d252c;
      }

      .cls-2 {
        fill: #f2f3f5;
      }

      .cls-3 {
        fill: #db0032;
      }
    </style>
  </defs>
  <rect class="cls-3" x="37.36" y="54.98" width="122.81" height="87.48"/>
  <g>
    <path class="cls-1" d="M156.76,52.56H43.24c-4.63,0-8.39,3.76-8.39,8.39v78.11c0,4.63,3.76,8.39,8.39,8.39h113.52c4.63,0,8.39-3.76,8.39-8.39V60.95c0-4.63-3.76-8.39-8.39-8.39ZM160.16,139.05c0,1.88-1.53,3.4-3.4,3.4H43.24c-1.88,0-3.4-1.53-3.4-3.4V60.95c0-1.88,1.53-3.4,3.4-3.4h113.52c1.88,0,3.4,1.53,3.4,3.4v78.11h0Z"/>
    <path class="cls-1" d="M151.42,71.67H48.58c-1.38,0-2.49,1.12-2.49,2.49s1.12,2.49,2.49,2.49h102.84c1.38,0,2.49-1.12,2.49-2.49s-1.12-2.49-2.49-2.49Z"/>
    <path class="cls-1" d="M124.36,66.17c1.38,0,2.49-1.12,2.49-2.49s-1.12-2.49-2.49-2.49-2.49,1.12-2.49,2.49,1.12,2.49,2.49,2.49Z"/>
    <path class="cls-1" d="M137,66.17c1.38,0,2.49-1.12,2.49-2.49s-1.12-2.49-2.49-2.49-2.49,1.12-2.49,2.49,1.12,2.49,2.49,2.49Z"/>
    <path class="cls-2" d="M149.64,66.17c1.38,0,2.49-1.12,2.49-2.49s-1.12-2.49-2.49-2.49-2.49,1.12-2.49,2.49,1.12,2.49,2.49,2.49Z"/>
  </g>
  <g>
    <g>
      <path class="cls-3" d="M192.31,99.9l-3.19-1.64c-.17-1.64-.53-3.25-1.09-4.79l2.19-2.91c.63-.84.61-2-.04-2.81l-4.37-5.45c-.44-.55-1.09-.86-1.79-.86-.33,0-.65.07-.95.21l-3.37,1.53c-1.27-.79-2.64-1.44-4.05-1.93l-.9-3.52c-.26-1.02-1.17-1.73-2.22-1.73h-3.48v4.59h1.7l.78,3.04c.2.8.83,1.43,1.62,1.65,1.8.49,3.48,1.29,5,2.39.65.46,1.56.56,2.29.23l2.91-1.32,2.14,2.67-1.89,2.51c-.5.66-.6,1.55-.27,2.3.8,1.81,1.24,3.75,1.31,5.74.03.83.5,1.58,1.24,1.96l2.75,1.42-.77,3.34-3.14.07c-.82.02-1.57.48-1.96,1.2-.89,1.63-2.05,3.09-3.46,4.32-.62.54-.9,1.37-.74,2.17l.62,3.12-3.09,1.48-2-2.4c-.53-.63-1.37-.94-2.18-.79-.93.17-1.9.26-2.86.26v4.59c.79,0,1.58-.05,2.35-.14l2.32,2.78c.44.52,1.08.82,1.76.82.34,0,.68-.08.99-.22l6.31-3.01c.95-.45,1.47-1.49,1.26-2.52l-.72-3.62c1.06-1.05,2-2.23,2.8-3.49l3.65-.09c1.05-.03,1.95-.76,2.18-1.78l1.57-6.81c.24-1.02-.25-2.07-1.19-2.55h-.02Z"/>
      <path class="cls-3" d="M180.5,100.37c0-6.32-5.14-11.46-11.46-11.46h0v4.29h0c3.95,0,7.17,3.21,7.17,7.17s-3.21,7.16-7.17,7.16h0v4.29h0c6.32,0,11.46-5.14,11.46-11.46h0Z"/>
    </g>
    <g>
      <path class="cls-1" d="M7.69,99.9l3.19-1.64c.17-1.64.53-3.25,1.09-4.79l-2.19-2.91c-.63-.84-.61-2,.04-2.81l4.37-5.45c.44-.55,1.09-.86,1.79-.86.33,0,.65.07.95.21l3.37,1.53c1.27-.79,2.64-1.44,4.05-1.93l.9-3.52c.26-1.02,1.17-1.73,2.22-1.73h3.48v4.59h-1.7l-.78,3.04c-.2.8-.83,1.43-1.62,1.65-1.8.49-3.48,1.29-5,2.39-.65.46-1.56.56-2.29.23l-2.91-1.32-2.14,2.67,1.89,2.51c.5.66.6,1.55.27,2.3-.8,1.81-1.24,3.75-1.31,5.74-.03.83-.5,1.58-1.24,1.96l-2.75,1.42.77,3.34,3.14.07c.82.02,1.57.48,1.96,1.2.89,1.63,2.05,3.09,3.46,4.32.62.54.9,1.37.74,2.17l-.62,3.13,3.09,1.48,2-2.4c.53-.63,1.37-.94,2.18-.79.93.17,1.9.26,2.86.26v4.59c-.79,0-1.58-.05-2.35-.14l-2.32,2.78c-.44.52-1.08.82-1.76.82-.34,0-.68-.08-.99-.22l-6.31-3.01c-.95-.45-1.47-1.49-1.26-2.52l.72-3.62c-1.06-1.05-2-2.23-2.8-3.49l-3.65-.09c-1.05-.03-1.95-.76-2.18-1.78l-1.57-6.81c-.24-1.02.25-2.07,1.19-2.55l.02-.02Z"/>
      <path class="cls-1" d="M19.5,100.37c0-6.32,5.14-11.46,11.46-11.46h0v4.29h0c-3.95,0-7.17,3.21-7.17,7.17s3.21,7.17,7.17,7.17h0v4.29h0c-6.32,0-11.46-5.14-11.46-11.46Z"/>
    </g>
  </g>
  <g>
    <path class="cls-1" d="M103.61,108.2c-5.3,0-9.61,4.31-9.61,9.61s4.31,9.61,9.61,9.61,9.61-4.31,9.61-9.61-4.31-9.61-9.61-9.61Z"/>
    <path class="cls-1" d="M125.28,96.14s0-.01,0-.02c0-10.02-8.13-18.15-18.15-18.15-7.19,0-13.4,4.18-16.34,10.24-.8-.15-1.62-.23-2.46-.23-7.45,0-13.49,6.04-13.49,13.49,0,0,0,.02,0,.02-4.33,1.57-7.38,5.74-7.34,10.56v1.19c.07,7.56,6.21,13.65,13.77,13.65l2.4-.08c2.92,8.2,10.74,14.07,19.94,14.07,9.71,0,17.89-6.54,20.38-15.45l2.08-.07c7.61-.26,13.65-6.51,13.65-14.13h0c0-8.2-6.5-14.76-14.44-15.11ZM123.24,120.51c0,.71-.57,1.28-1.28,1.28h-3.67c-.34,1.27-.85,2.47-1.49,3.59l2.6,2.6c.5.5.5,1.31,0,1.81l-3.82,3.82c-.5.5-1.31.5-1.81,0l-2.6-2.6c-1.11.64-2.32,1.14-3.59,1.49v3.67c0,.71-.57,1.28-1.28,1.28h-5.4c-.31,0-.59-.11-.81-.29-.28-.23-.47-.59-.47-.99v-3.67c-1.27-.34-2.47-.85-3.59-1.49l-2.6,2.6c-.5.5-1.31.5-1.81,0l-3.82-3.82c-.5-.5-.5-1.31,0-1.81l2.6-2.6c-.64-1.11-1.14-2.32-1.49-3.59h-3.67c-.71,0-1.28-.57-1.28-1.28v-5.4c0-.71.57-1.28,1.28-1.28h3.67c.34-1.27.85-2.47,1.49-3.59l-2.6-2.6c-.5-.5-.5-1.31,0-1.81l3.82-3.82c.5-.5,1.31-.5,1.81,0l2.6,2.6c1.11-.64,2.32-1.14,3.59-1.49v-3.67c0-.71.57-1.28,1.28-1.28h5.4c.71,0,1.28.57,1.28,1.28v3.67c1.27.34,2.47.85,3.59,1.49l2.6-2.6c.5-.5,1.31-.5,1.81,0l3.82,3.82c.5.5.5,1.31,0,1.81l-2.6,2.6c.64,1.11,1.14,2.32,1.49,3.59h3.67c.71,0,1.28.57,1.28,1.28v5.4Z"/>
  </g>
</svg>