<?xml version="1.0" encoding="UTF-8"?>
<svg id="Layer_1" data-name="Layer 1" xmlns="http://www.w3.org/2000/svg" xmlns:xlink="http://www.w3.org/1999/xlink" viewBox="0 0 500 300">
  <defs>
    <style>
      .cls-1 {
        fill: url(#linear-gradient-6);
      }

      .cls-1, .cls-2, .cls-3, .cls-4, .cls-5, .cls-6, .cls-7 {
        stroke-width: 0px;
      }

      .cls-2 {
        fill: url(#linear-gradient);
        opacity: .81;
      }

      .cls-3 {
        fill: url(#linear-gradient-5);
      }

      .cls-4 {
        fill: url(#linear-gradient-2);
      }

      .cls-5 {
        fill: #b89564;
      }

      .cls-6 {
        fill: url(#linear-gradient-3);
      }

      .cls-7 {
        fill: url(#linear-gradient-4);
      }
    </style>
    <linearGradient id="linear-gradient" x1="301.47" y1="139.78" x2="301.5" y2="139.78" gradientUnits="userSpaceOnUse">
      <stop offset="0" stop-color="#ddba79"/>
      <stop offset="1" stop-color="#a7813a"/>
    </linearGradient>
    <linearGradient id="linear-gradient-2" x1="202.22" y1="175.07" x2="272.47" y2="175.07" xlink:href="#linear-gradient"/>
    <linearGradient id="linear-gradient-3" x1="257.08" y1="97.65" x2="300.77" y2="97.65" xlink:href="#linear-gradient"/>
    <linearGradient id="linear-gradient-4" x1="150.39" y1="85.63" x2="272.47" y2="85.63" xlink:href="#linear-gradient"/>
    <linearGradient id="linear-gradient-5" x1="262.33" y1="140.59" x2="349.1" y2="140.59" xlink:href="#linear-gradient"/>
    <linearGradient id="linear-gradient-6" x1="301.47" y1="139.73" x2="301.52" y2="139.73" xlink:href="#linear-gradient"/>
  </defs>
  <g>
    <path class="cls-5" d="m160.24,257.97h-10.22v-20.37h10.22c5.6,0,10.18,4.55,10.18,10.18s-4.58,10.18-10.18,10.18Zm-7.65-2.54h7.65c4.19,0,7.61-3.43,7.61-7.65s-3.43-7.65-7.61-7.65h-7.65v15.29Z"/>
    <path class="cls-5" d="m195.11,257.97h-20.37v-20.37h20.37v2.54h-17.83v6.33h16.15v2.57h-16.15v6.39h17.83v2.54Z"/>
    <path class="cls-5" d="m199.43,247.76c0-5.64,4.58-10.18,10.22-10.18,4.42,0,8.17,2.83,9.59,6.79h-2.77c-1.25-2.5-3.86-4.25-6.82-4.25-4.22,0-7.65,3.43-7.65,7.65s3.43,7.65,7.65,7.65c2.97,0,5.57-1.75,6.82-4.25h2.77c-1.42,3.95-5.17,6.79-9.59,6.79-5.64,0-10.22-4.55-10.22-10.18Z"/>
    <path class="cls-5" d="m223.56,247.79c0-5.64,4.58-10.18,10.18-10.18s10.18,4.55,10.18,10.18-4.55,10.18-10.18,10.18-10.18-4.58-10.18-10.18Zm2.54,0c0,4.19,3.43,7.61,7.65,7.61s7.65-3.43,7.65-7.61-3.43-7.65-7.65-7.65-7.65,3.43-7.65,7.65Z"/>
    <path class="cls-5" d="m268.64,252.24v5.73h-2.57v-5.73c0-1.75-1.42-3.2-3.2-3.2h-12.06v8.93h-2.57v-20.37h14.63c3.16,0,5.73,2.57,5.73,5.73,0,1.78-.82,3.39-2.11,4.45,1.29,1.05,2.14,2.64,2.14,4.45Zm-2.57-8.9c0-1.78-1.42-3.2-3.2-3.2h-12.06v6.36h12.06c1.78,0,3.2-1.42,3.2-3.16Z"/>
    <path class="cls-5" d="m272.96,237.57h2.57v20.4h-2.57v-20.4Z"/>
    <path class="cls-5" d="m279.85,247.79c0-5.64,4.58-10.18,10.18-10.18s10.18,4.55,10.18,10.18-4.55,10.18-10.18,10.18-10.18-4.58-10.18-10.18Zm2.54,0c0,4.19,3.43,7.61,7.65,7.61s7.65-3.43,7.65-7.61-3.43-7.65-7.65-7.65-7.65,3.43-7.65,7.65Z"/>
    <path class="cls-5" d="m322.37,237.6h2.54v10.18c0,5.64-4.55,10.18-10.18,10.18s-10.18-4.55-10.18-10.18v-10.18h2.57v10.18c0,4.22,3.39,7.65,7.61,7.65s7.65-3.43,7.65-7.65v-10.18Z"/>
    <path class="cls-5" d="m349.59,252.24c0,3.16-2.57,5.73-5.77,5.73h-14.6v-2.54h14.6c1.78,0,3.2-1.42,3.2-3.2s-1.42-3.16-3.2-3.16h-8.87c-3.16,0-5.73-2.57-5.73-5.73s2.57-5.73,5.73-5.73h14.6v2.54h-14.6c-1.78,0-3.2,1.45-3.2,3.2s1.42,3.16,3.2,3.16v.03h8.87c3.2,0,5.77,2.54,5.77,5.7Z"/>
  </g>
  <g>
    <path class="cls-5" d="m150.05,265.59h.94v9.07h-.94v-9.07Z"/>
    <path class="cls-5" d="m153.44,265.59h1.13l6.34,7.75h.03v-7.75h.94v9.07h-1.09l-6.38-7.75h-.03v7.75h-.94v-9.07Z"/>
    <path class="cls-5" d="m166.92,266.45h-3.56v-.86h8.05v.86h-3.56v8.21h-.94v-8.21Z"/>
    <path class="cls-5" d="m173.06,265.59h7.22v.86h-6.28v3.07h6.05v.86h-6.05v3.4h6.38v.86h-7.32v-9.07Z"/>
    <path class="cls-5" d="m182.43,265.59h4.94c1.54,0,2.95.55,2.95,2.45,0,.97-.6,1.93-1.78,2.2v.03c1.28.2,1.55,1.03,1.61,2.52.03.57.1,1.68.32,1.88h-1.02c-.17-.19-.23-.86-.24-1.85-.03-1.6-.64-2.13-2.2-2.13h-3.65v3.99h-.94v-9.07Zm.94,4.22h3.98c1.03,0,1.96-.38,1.96-1.77s-1-1.59-1.87-1.59h-4.07v3.35Z"/>
    <path class="cls-5" d="m192.47,265.59h.94v9.07h-.94v-9.07Z"/>
    <path class="cls-5" d="m200.44,265.36c2.58,0,4.93,1.56,4.93,4.76s-2.35,4.76-4.93,4.76-4.93-1.56-4.93-4.76,2.35-4.76,4.93-4.76Zm0,8.66c1.99,0,3.91-1.17,3.91-3.9s-1.92-3.9-3.91-3.9-3.91,1.17-3.91,3.9,1.92,3.9,3.91,3.9Z"/>
    <path class="cls-5" d="m207.51,265.59h4.94c1.54,0,2.95.55,2.95,2.45,0,.97-.6,1.93-1.78,2.2v.03c1.28.2,1.55,1.03,1.61,2.52.03.57.1,1.68.32,1.88h-1.02c-.17-.19-.23-.86-.24-1.85-.03-1.6-.64-2.13-2.2-2.13h-3.65v3.99h-.94v-9.07Zm.94,4.22h3.98c1.03,0,1.96-.38,1.96-1.77s-1-1.59-1.87-1.59h-4.07v3.35Z"/>
    <path class="cls-5" d="m221.65,265.59h4.41c2.64,0,4.01,1.69,4.01,4.54,0,2.55-1.33,4.54-3.87,4.54h-4.55v-9.07Zm.94,8.21h3.43c1.63,0,3.04-.89,3.04-3.67,0-2.4-.94-3.67-3.04-3.67h-3.43v7.34Z"/>
    <path class="cls-5" d="m232.36,265.59h7.22v.86h-6.28v3.07h6.05v.86h-6.05v3.4h6.38v.86h-7.32v-9.07Z"/>
    <path class="cls-5" d="m247.73,268.18c-.13-1.55-1.38-1.96-2.85-1.96s-2.57.57-2.57,1.6c0,1.18,1.11,1.46,3.32,1.83,1.65.28,3.3.66,3.3,2.4,0,2.22-2.02,2.83-3.79,2.83-2.3,0-3.98-.79-4.12-3.23h.94c.17,1.91,1.44,2.36,3.18,2.36,1.36,0,2.77-.37,2.77-1.8s-1.65-1.55-3.3-1.82c-2.16-.34-3.32-.95-3.32-2.41,0-1.98,1.83-2.63,3.58-2.63,1.85,0,3.72.66,3.79,2.82h-.94Z"/>
    <path class="cls-5" d="m250.85,265.59h.94v9.07h-.94v-9.07Z"/>
    <path class="cls-5" d="m262.53,272.94h-.03c-.93,1.33-1.99,1.94-3.77,1.94-3.07,0-4.75-1.93-4.75-4.76s1.84-4.76,4.85-4.76c2.53,0,4.14,1.42,4.38,3.1h-1.02c-.37-1.54-1.74-2.24-3.37-2.24-2.48,0-3.84,1.51-3.84,3.9s1.24,3.9,3.66,3.9c2.72,0,3.58-1.55,3.86-3.18h-3.33v-.86h4.19v4.68h-.72l-.13-1.72Z"/>
    <path class="cls-5" d="m265.74,265.59h1.13l6.34,7.75h.03v-7.75h.94v9.07h-1.09l-6.38-7.75h-.03v7.75h-.94v-9.07Z"/>
    <path class="cls-5" d="m286.88,268.18c-.13-1.55-1.38-1.96-2.85-1.96s-2.57.57-2.57,1.6c0,1.18,1.11,1.46,3.32,1.83,1.65.28,3.3.66,3.3,2.4,0,2.22-2.02,2.83-3.79,2.83-2.3,0-3.98-.79-4.12-3.23h.94c.17,1.91,1.44,2.36,3.18,2.36,1.36,0,2.77-.37,2.77-1.8s-1.65-1.55-3.3-1.82c-2.16-.34-3.32-.95-3.32-2.41,0-1.98,1.83-2.63,3.58-2.63,1.85,0,3.72.66,3.79,2.82h-.94Z"/>
    <path class="cls-5" d="m290.04,265.59h7.22v.86h-6.28v3.07h6.05v.86h-6.05v3.4h6.38v.86h-7.32v-9.07Z"/>
    <path class="cls-5" d="m299.42,265.59h4.94c1.54,0,2.95.55,2.95,2.45,0,.97-.6,1.93-1.78,2.2v.03c1.28.2,1.55,1.03,1.61,2.52.03.57.1,1.68.32,1.88h-1.02c-.17-.19-.23-.86-.24-1.85-.03-1.6-.64-2.13-2.2-2.13h-3.65v3.99h-.94v-9.07Zm.94,4.22h3.98c1.03,0,1.96-.38,1.96-1.77s-1-1.59-1.87-1.59h-4.07v3.35Z"/>
    <path class="cls-5" d="m316.39,265.59h1.02l-4.01,9.07h-1.02l-4.05-9.07h1.09l3.51,8,3.47-8Z"/>
    <path class="cls-5" d="m318.83,265.59h.94v9.07h-.94v-9.07Z"/>
    <path class="cls-5" d="m331.21,271.2c-.2,2.03-1.88,3.68-4.48,3.68-2.95,0-4.83-1.85-4.83-4.76,0-2.07,1.28-4.76,4.83-4.76,1.98,0,4.13.9,4.41,3.29h-.94c-.28-1.73-1.83-2.43-3.47-2.43-2.25,0-3.81,1.26-3.81,3.9,0,2.02,1.05,3.9,3.81,3.9,2.16,0,3.23-1.09,3.54-2.82h.94Z"/>
    <path class="cls-5" d="m333.4,265.59h7.22v.86h-6.28v3.07h6.05v.86h-6.05v3.4h6.38v.86h-7.32v-9.07Z"/>
    <path class="cls-5" d="m348.77,268.18c-.13-1.55-1.38-1.96-2.85-1.96s-2.57.57-2.57,1.6c0,1.18,1.11,1.46,3.32,1.83,1.65.28,3.3.66,3.3,2.4,0,2.22-2.02,2.83-3.79,2.83-2.3,0-3.98-.79-4.12-3.23h.94c.17,1.91,1.44,2.36,3.18,2.36,1.36,0,2.77-.37,2.77-1.8s-1.65-1.55-3.3-1.82c-2.16-.34-3.32-.95-3.32-2.41,0-1.98,1.83-2.63,3.58-2.63,1.85,0,3.72.66,3.79,2.82h-.94Z"/>
  </g>
  <g>
    <g>
      <path class="cls-2" d="m301.47,139.81h0s.02-.06.02-.08c-.01.03-.02.06-.03.08Z"/>
      <path class="cls-4" d="m266.22,179.29l-8.91-8.91-2.07-2.13-2.27-2.3-3.23-3.26-9.8-9.91-3.74-3.78-21.76-22v12.93l29.01,28.31h-32.5v-38.1l-8.74,9.09v37.74h38.94l-2.3,2.3c-8.33,8.32-8.33,21.82,0,30.15l13.68,13.68,13.68-13.68c8.32-8.33,8.32-21.83,0-30.15Zm-6.21,24.27l-7.48,7.48-7.48-7.48c-5.08-5.08-5.08-13.32,0-18.4l7.48-7.48,7.48,7.48c5.08,5.08,5.08,13.32,0,18.4Z"/>
      <path class="cls-6" d="m300.77,110.94l-6.99,6.99c-.39-1.99-.88-3.85-1.45-5.61-.06-.19-.13-.38-.19-.57-.28-.83-.58-1.63-.9-2.41-.24-.6-.5-1.18-.76-1.75-3.97-8.59-10.05-13.85-15.94-17.07-1.06-.58-2.12-1.1-3.15-1.55-3.92-1.73-7.56-2.61-10.19-3.06h0c-2.52-.44-4.11-.47-4.11-.47l1.61-1.95h0l5.03-6.09c6.08,1.6,11.19,3.82,15.47,6.36,1.11.65,2.16,1.33,3.16,2.02,6.21,4.31,10.41,9.23,13.21,13.59.65,1.01,1.22,1.99,1.73,2.92h0c.59,1.08,1.08,2.09,1.5,3.02.51,1.14.9,2.14,1.19,2.98.59,1.67.8,2.67.8,2.67Z"/>
      <path class="cls-7" d="m266.22,68.95l-10.89,10.89-2.91,3.12c-1.27,1.36-3.03,2.12-4.89,2.12h-36.41v25.66l23.59-22.17h12.23l-35.82,34.54-.05.05h0l-3.27,3.15-13.58,13.58c-8.32,8.32-21.82,8.32-30.15,0l-13.69-13.68,13.69-13.68c8.32-8.32,21.82-8.32,30.15,0l4.53,4.53-6.04,6.04-4.36-4.37c-5.08-5.08-13.32-5.08-18.4,0l-7.48,7.48,7.48,7.48c5.08,5.08,13.32,5.08,18.4,0l7.46-7.46h.01s-.01-.02-.01-.02l3.82-3.86c1.61-1.63,2.58-3.78,2.73-6.05.01-.09.02-.19.03-.29v-39.66h31.94s7.93,0,7.93,0c.24,0,.48,0,.71-.03h.69c1.66,0,3.27-.63,4.49-1.76l4.36-4.02.49-.45.4-.4.49-.49,6.12-6.12c5.08-5.08,5.08-13.32,0-18.4l-7.48-7.48-7.48,7.48c-5.08,5.08-5.08,13.32,0,18.4l4.07,4.07-6.09,5.99-4.19-4.19c-8.32-8.32-8.32-21.82,0-30.15l13.68-13.68,13.68,13.68c8.32,8.32,8.32,21.82,0,30.15Z"/>
    </g>
    <path class="cls-3" d="m349.1,126.21l-13.68,13.68c-4.98,4.98-11.81,6.98-18.28,6-1.09-.16-2.18-.42-3.24-.75-2.69-.85-5.24-2.24-7.48-4.18.13-.62.49-2.31.87-4.31.32-1.67.66-3.54.9-5.17h0c.03-.23.06-.44.09-.65l.25.25,2.25,2.24.36.36c1.62,1.63,3.57,2.73,5.64,3.32,1.03.29,2.09.46,3.14.49,3.47.11,6.97-1.16,9.62-3.8l7.48-7.48-7.48-7.48c-2.64-2.64-6.15-3.91-9.61-3.79-1.05.03-2.11.19-3.13.48-2.07.58-4.03,1.69-5.65,3.32l-.63.63-2.24,2.24-4.4,4.4c-.06.08-.11.16-.17.25-.52.81-.8,1.75-.81,2.73-.02,1.95-.15,4.99-.68,7.86l-.02-.02c-.2.97-.42,1.9-.66,2.82,0,.03-.01.06-.02.09h0s-.02.06-.03.09h0c-.45,1.69-.97,3.31-1.54,4.86-.38,1.02-.78,2.01-1.21,2.97-.46,1.05-.95,2.06-1.47,3.04-.54,1.02-1.1,2.01-1.69,2.95-3.75,6.07-8.35,10.57-12.64,13.81-1.03.78-2.04,1.5-3.02,2.13-5.9,3.88-10.59,5.31-10.59,5.31l-3.62-3.62-3.36-3.37c.24-.08.47-.15.71-.24,3.12-1.06,5.93-2.27,8.46-3.61,1.04-.55,2.03-1.11,2.97-1.69,8.22-5.06,13.06-11.4,15.92-17.11.27-.55.53-1.1.77-1.64.36-.8.68-1.59.96-2.35.08-.2.15-.4.22-.59.99-2.78,1.52-5.23,1.81-7.06,0-.03.01-.06.02-.09.13-1,.24-2.03.31-3.03.01-.11.02-.22.02-.33.01-.15.02-.3.03-.44.01-.18.02-.36.03-.53.05-.79.08-1.54.1-2.23.06-2.2.86-4.3,2.25-5.98.19-.23.39-.45.6-.66l5.3-5.33.71-.7h0s1.75-1.75,1.75-1.75c2.45-2.45,5.34-4.17,8.42-5.18h0c1.06-.35,2.15-.61,3.24-.79h0c6.53-1.05,13.45.94,18.48,5.97l13.68,13.68Z"/>
    <path class="cls-1" d="m301.52,139.64c-.01.06-.03.12-.05.18h0c.02-.06.04-.12.06-.18Z"/>
  </g>
</svg>