<?xml version="1.0" encoding="UTF-8"?>
<svg id="Layer_1" data-name="Layer 1" xmlns="http://www.w3.org/2000/svg" xmlns:xlink="http://www.w3.org/1999/xlink" viewBox="0 0 500 300">
  <defs>
    <style>
      .cls-1 {
        fill: url(#linear-gradient);
      }

      .cls-1, .cls-2, .cls-3, .cls-4, .cls-5, .cls-6, .cls-7, .cls-8, .cls-9 {
        stroke-width: 0px;
      }

      .cls-2 {
        fill: url(#linear-gradient-6);
      }

      .cls-3 {
        fill: url(#linear-gradient-5);
      }

      .cls-4 {
        fill: url(#linear-gradient-2);
      }

      .cls-5 {
        fill: url(#linear-gradient-7);
      }

      .cls-6 {
        fill: url(#linear-gradient-3);
      }

      .cls-7 {
        fill: url(#linear-gradient-9);
      }

      .cls-8 {
        fill: url(#linear-gradient-8);
      }

      .cls-9 {
        fill: url(#linear-gradient-4);
      }
    </style>
    <linearGradient id="linear-gradient" x1="29.29" y1="146.18" x2="436.63" y2="163.71" gradientUnits="userSpaceOnUse">
      <stop offset="0" stop-color="#b78b1e"/>
      <stop offset=".5" stop-color="#fad58c"/>
      <stop offset="1" stop-color="#b78b1e"/>
    </linearGradient>
    <linearGradient id="linear-gradient-2" x1="29.62" y1="138.39" x2="436.97" y2="155.93" xlink:href="#linear-gradient"/>
    <linearGradient id="linear-gradient-3" x1="29.21" y1="147.96" x2="436.55" y2="165.5" xlink:href="#linear-gradient"/>
    <linearGradient id="linear-gradient-4" x1="29.52" y1="140.91" x2="436.86" y2="158.45" xlink:href="#linear-gradient"/>
    <linearGradient id="linear-gradient-5" x1="29.43" y1="142.96" x2="436.77" y2="160.5" xlink:href="#linear-gradient"/>
    <linearGradient id="linear-gradient-6" x1="230.38" y1="114.98" x2="321.53" y2="118.9" xlink:href="#linear-gradient"/>
    <linearGradient id="linear-gradient-7" x1="30.69" y1="113.55" x2="438.04" y2="131.08" xlink:href="#linear-gradient"/>
    <linearGradient id="linear-gradient-8" x1="30.09" y1="127.67" x2="437.43" y2="145.2" xlink:href="#linear-gradient"/>
    <linearGradient id="linear-gradient-9" x1="28.2" y1="171.45" x2="435.54" y2="188.98" xlink:href="#linear-gradient"/>
  </defs>
  <path class="cls-1" d="M482.26,159.07l-.06.03c0-.84.1-1.85.32-2.98,7.35-7.03,8.23-9.59,8.23-10.89s-.78-2.01-2.01-2.01c-1.75,0-3.47,1.2-5.25,3.63-1.59,2.2-2.75,4.83-3.5,7.87-2.56,3.24-4.57,5.67-6.12,7.48l-4.92,5.99h-.75c-2.79,0-5.47,1.68-7.97,4.99-2.24,2.95-3.43,6.09-3.63,9.27-5.47,6.54-8.46,8.16-10.04,8.16-1.26,0-1.72-.45-1.72-1.72,0-.97.52-2.88,3.05-6.64,3.92-5.77,6.41-9.72,7.42-11.76,1.04-2.14,1.56-4.31,1.56-6.48,0-2.53-.71-4.7-2.14-6.45-1.49-1.81-3.3-2.75-5.47-2.75-3.56,0-8.33,3.66-14.45,11.11l.29-2.49c0-2.43-.68-4.47-2.04-6.09-1.39-1.68-3.17-2.53-5.25-2.53-3.21,0-7.48,3.3-12.93,10.04l.32-2.46c0-1.98-.55-3.73-1.65-5.22-1.17-1.59-2.62-2.36-4.37-2.36-2.49,0-5.64,2.46-9.88,7.71-3.01,3.73-13.96,18.56-17.69,22.42-4.73,4.92-6.77,5.64-7.55,5.64s-1.59-.16-1.59-2.14c0-1.33,1-4.63,5.83-12.73l12.41-20.8-1.98.29c-1.81.26-3.3.39-4.41.39-.91,0-2.01-.13-3.27-.39l-.68-.13-1.52,2.88c-.52-2.04-2.17-3.17-4.76-3.17-3.4,0-7.65,1.43-13.02,4.37-6.8,3.69-11.73,7.78-14.68,12.21l-.32.39-2.01,2.82c-9.49,13.25-13.96,16.04-16.07,16.04-1.36,0-1.85-.49-1.85-1.85,0-.78.81-3.3,6.25-11.31,3.98-5.9,5.9-10.3,5.9-13.44,0-2.53-.75-4.7-2.24-6.48-1.52-1.81-3.37-2.72-5.54-2.72-2.98,0-6.51,2.07-10.59,6.28,1.36-2.24,2.07-3.43,2.2-3.63,8.91-14.32,15.65-25.24,20.02-32.43l1.13-1.88-2.14.45c-1.49.32-3.05.49-4.63.49-.81,0-1.85-.13-3.08-.39l-.68-.13-10.24,17.4c-7.45,12.86-11.79,20.25-13.22,22.58-2.69,4.83-4.7,8.52-6.03,11.01l-10.72,19.44,2.17-.62c1.49-.42,2.72-.65,3.63-.65.78,0,1.81.19,3.05.62l.75.26.39-.68c7.48-13.7,13.51-23.16,17.92-28.15,5.28-6.03,8.26-7.29,9.85-7.29,1.43,0,1.72.62,1.72,1.59,0,.55-.75,2.95-7.58,13.09-3.43,5.12-5.12,9.17-5.12,12.41,0,2.56.75,4.67,2.24,6.32,1.52,1.65,3.47,2.53,5.77,2.53,3.76,0,8.91-4.21,15.68-12.86l-.06,1.52c0,3.21.87,5.93,2.56,8.03,1.75,2.17,3.95,3.27,6.54,3.27,2.36,0,4.83-1.17,7.32-3.47,1.65-1.52,3.79-4.02,6.45-7.45l-.16,2.11c0,2.53.75,4.67,2.17,6.32,1.46,1.68,3.34,2.53,5.57,2.53,3.27,0,7.48-3.11,12.89-9.56,6.16-7.35,20.31-26.73,22.9-25.3,2.59,1.39-1.65,5.9-9.46,18.17l-10.27,16.13h10.56l.26-.49c5.28-9.69,10.69-18.08,16.07-24.91,6.84-8.68,9.82-9.98,11.01-9.98.71,0,1.46.16,1.46,1.98,0,1.39-1.56,5.51-8.94,17.27l-10.14,16.13h10.4l.29-.45c17.11-28.86,25.04-34.92,28.7-34.92,1.26,0,1.72.45,1.72,1.72,0,.78-.68,3.11-5.35,9.75-3.3,4.73-5.31,7.84-6.16,9.52-.87,1.78-1.33,3.73-1.33,5.83,0,2.62.75,4.83,2.17,6.48,1.49,1.72,3.43,2.59,5.77,2.59,2.82,0,6.41-2.43,10.98-7.35.45,1.78,1.33,3.3,2.62,4.57,1.94,1.85,4.57,2.82,7.74,2.82,5.35,0,10.08-1.49,14.06-4.47,4.05-3.01,6.12-6.71,6.12-10.92,0-2.01-.58-4.41-1.81-7.32-2.24-5.28-3.4-9.2-3.4-11.66ZM367.39,176.01c-9.36,12.67-13.28,14.58-14.77,14.58-1.36,0-2.79-.39-2.79-3.34,0-4.57,3.21-10.72,9.49-18.37,6.25-7.58,11.27-11.4,14.97-11.4,1.2,0,1.98.39,1.98,2.27h-.03c0,1.94-1.52,6.32-8.84,16.26ZM475.07,184.18c-3.08,3.98-6.35,5.99-9.65,5.99-1.65,0-2.95-.49-4.02-1.49-1.04-.97-1.55-2.2-1.55-3.73,0-1.39.55-2.69,1.65-4.02l-.06.03c1.1-1.33,2.4-2.11,3.89-2.43,4.67-1,7.03-3.08,7.03-6.16,0-.97-.29-1.85-.87-2.59,3.34-4.05,5.99-7.35,8.1-10.04v1.88c0,2.49,0,4.34.1,5.64l.13,3.76c0,4.67-1.59,9.1-4.73,13.15Z"/>
  <path class="cls-4" d="M311.99,127.81v-.03c6.06-3.56,12.12-8.68,16.3-12.63,4.18-3.95,6.48-7.19,6.48-9.27,0-2.59-2.01-3.98-4.08-3.98-3.47,0-8,2.69-12.76,7.58-4.76,4.89-7.84,10.17-10.95,17.04-4.47,2.69-9.65,5.96-15.39,9.78l1.13,2.07c4.67-3.14,8.58-5.67,12.8-8.33-1.07,2.49-2.01,4.86-2.82,7.06-3.3,9.07-5.67,15.26-7.16,18.56-1.46,3.27-3.5,6.87-6.09,10.69-5.51,8.2-12.12,14.61-19.76,19.21-5.65,3.42-16.89,7.42-25.82,5.91,28.13-6.86,58.11-33.72,48.82-53.11v-.03s-2.92,1.98-2.92,1.98c-2.85,9.17-7.81,18.37-15.03,25.37-7.22,7-15.06,11.11-21.64,11.11-1.94,0-5.15-.65-7.55-1.72-4.89,5.09-6.48,6.84-9.95,12.44,2.18,2.18,5,3.41,8.11,3.97l-.2.05c-2.95.68-5.35,1.91-7.42,3.47,19.53,7.45,40.3-5.02,54.36-16.88,13.9-13.57,15.68-25.85,18.08-36.09,1.52-6.48,2.66-11.76,3.47-14.22ZM320.83,110.44h-.03c3.6-4.02,6.84-6.06,9.69-6.06,1.26,0,1.88.52,1.88,1.62,0,1.78-1.88,4.47-5.67,8-3.79,3.53-8.52,7.09-14.22,10.69,1.94-5.47,4.73-10.2,8.36-14.25Z"/>
  <path class="cls-6" d="M287.08,142.03l-4.28,2.95c-16.39,11.31-28.22,20.7-35.51,28.18,1.88.97,3.82,1.46,5.86,1.46,6.06,0,12.41-3.21,19.11-9.62h-.03c6.67-6.41,11.63-14.06,14.84-22.97Z"/>
  <path class="cls-9" d="M218.43,166.46c0-7.39,2.17-14.71,6.54-21.96,4.37-7.26,10.46-13.77,18.3-19.57,10.04-7.39,19.99-11.08,29.77-11.08l3.79.29c1.94-7.16,2.04-16.88-7.68-23.62h.03c-17.2-11.95-54.98,2.69-60.87,45.42-5.9,42.73,16.13,57.66,16.52,77.52,0,0,.81-5.47,1.85-9.14,1.04-3.66,1.78-5.73,2.82-8.65-7.65-4.34-11.08-17.82-11.08-29.22Z"/>
  <path class="cls-3" d="M239.68,164.06c0-2.59,1.2-6.09,2.85-7.94,1.65-1.88,4.31-2.82,6.61-2.59,3.47.29,4.83,2.95,4.83,5.6,0,1.43-.42,2.79-1.62,3.66-4.28,3.21-7.06.52-7.06-1.56,0-.71.23-1.43.68-2.14.23-1.46-1.62-.55-2.4,1-.81,1.56-1.2,3.11-1.2,4.6,0,2.85.49,4.63,3.14,6.97,8.71-9.27,22.71-20.7,41.56-32.98.58-2.56.84-4.73.91-6.61-3.47-3.21-8.42-6.06-15.19-8.39,0,0,1.74-2.71,3.16-6.74l-3.81-.36c-11.63,0-21.45,4.57-32.36,16.75-10.92,12.18-16.39,24.78-16.39,37.81,0,8.55,2.24,13.7,8.49,17.33,2.92-4.89,6.38-9.52,11.82-15.32-2.75-2.4-4.02-5.64-4.02-9.1Z"/>
  <path class="cls-2" d="M275.97,116.92s0,.02-.01.03h.01s0-.03,0-.03Z"/>
  <path class="cls-5" d="M276,116.96c2.98.58,5.51,1.85,7.58,3.86,2.24,2.17,4.6,5.02,4.44,11.31l2.43,2.62c1.2-8.97-1.72-13.67-4.6-16.39l-.03-.03c-2.36-2.24-5.35-3.63-8.94-4.18l-.87,2.82Z"/>
  <path class="cls-8" d="M122.44,147.34l-.03.03c0-9.43-4.63-16.3-13.77-20.44,11.44-2.36,17.23-8.26,17.23-17.59,0-5.96-2.82-11.27-8.36-15.78,7-4.15,13.87-6.22,20.51-6.22,5.05,0,9.17,1.59,12.21,4.73s4.6,7.35,4.6,12.5c0,3.43-.55,6.64-1.68,9.59l-.19.65c0,1.17.65,1.81,1.62,1.81,1.13,0,1.85-1.23,2.66-4.73.65-2.72.97-5.31.97-7.68,0-5.93-1.88-10.79-5.64-14.45-3.73-3.63-8.65-5.47-14.68-5.47-7.45,0-15.23,2.46-23.1,7.32-8.84-5.47-19.66-8.26-32.2-8.26-16.94,0-32.66,5.18-46.62,15.39-14.09,10.17-21.25,21.74-21.25,34.24,0,6.28,1.91,11.37,5.67,15.19,3.79,3.82,8.88,5.73,15.16,5.73,9.46,0,19.15-4.44,28.8-13.19,9.69-8.78,14.61-17.59,14.61-26.21,0-7.45-4.21-11.37-12.18-11.37s-15.94,3.3-23.52,9.85c-7.61,6.54-11.47,13.44-11.47,20.47,0,2.98.81,5.51,2.4,7.52,1.65,2.11,3.66,3.17,6.03,3.17,1.94,0,2.14-1.04,2.14-1.49,0-.58-.32-1.26-2.01-1.49-1.13,0-2.14-.45-2.98-1.43-.87-.97-1.3-2.07-1.3-3.37,0-5.99,3.63-12.57,10.79-19.53,7.16-6.97,13.96-10.5,20.18-10.5s8.81,2.69,8.81,8.49c0,7.48-4.6,15.42-13.7,23.58-9.14,8.2-18.04,12.34-26.47,12.34-5.09,0-9.14-1.36-12.05-4.02-2.95-2.69-4.37-6.25-4.37-10.92,0-9.3,5.51-19.41,16.42-30.03,13.31-12.96,29.19-19.57,47.17-19.57,12.18,0,21.74,2.59,28.35,7.68-3.95,2.95-8.78,7.55-14.35,13.7-6.06,6.67-11.31,13.35-15.58,19.89-8.84,13.44-14.58,21.93-17.01,25.27-2.4,3.27-5.31,6.45-8.62,9.39-7.52,6.84-16.04,10.3-25.27,10.3-5.22,0-9.56-1.13-12.89-3.37-3.05-2.04-4.6-4.5-4.83-7.52l.29.39c.87.91,1.94,1.3,3.3,1.3,1.62,0,2.98-.62,4.05-1.85,1.04-1.2,1.56-2.66,1.56-4.37,0-3.4-1.75-5.28-4.96-5.28-2.07,0-3.89.91-5.41,2.72-1.49,1.75-2.24,3.89-2.24,6.32,0,4.31,2.11,7.9,6.22,10.72,4.02,2.75,9.07,4.15,15.03,4.15,7.22,0,15.55-2.27,24.72-6.77,7.81-3.86,13.96-8.26,18.24-13.02,4.28-4.76,9.07-12.67,14.22-23.45,8.07-16.81,16.75-28.99,25.88-36.25,2.82,3.11,4.21,6.64,4.21,10.46,0,4.31-1.26,8.16-3.76,11.44-2.46,3.24-5.83,5.57-10.01,6.93-3.14-.78-5.73-1.17-7.71-1.17-1.52,0-5.09,0-5.09,2.14,0,2.56,4.28,2.56,5.9,2.56l3.34-.13,3.43-.49c6.48,3.24,9.62,8.13,9.62,14.9,0,7.48-2.72,14.42-8.1,20.67-5.35,6.19-11.24,9.36-17.49,9.36-2.69,0-4.89-.84-6.67-2.59-1.78-1.75-2.66-3.86-2.66-6.48,0-5.15,2.3-10.3,6.84-15.26,4.5-4.92,8.26-7.81,12.86-7.81,2.36,0,3.76.39,5.18,1.75,1.43,1.33,2.11,3.08,2.11,5.31,0,2.46-1.07,5.28-3.24,8.52l-.36.87c0,1.07.52,1.81,1.62,1.81,1.2,0,2.24-1.26,3.5-4.37,1.07-2.66,1.62-4.83,1.62-6.64,0-3.08-1-5.64-3.01-7.58-2.01-1.94-4.15-2.66-7.22-2.66-5.41,0-9.98,3.24-15.26,8.84-5.28,5.6-7.94,11.37-7.94,17.07,0,3.82,1.33,6.93,3.92,9.23,2.59,2.27,6.06,3.43,10.37,3.43,8.75,0,16.49-2.92,23-8.65,6.54-5.77,9.88-12.6,9.88-20.34Z"/>
  <path class="cls-7" d="M173.33,150.1l.03.06c-.55,0-1,.36-1.94,1.55-4.47,5.73-8.55,10.24-12.12,13.38-2.88,2.56-6.32,4.99-10.27,7.26,8.33-15.13,15.06-26.86,20.09-34.86l1.17-1.85-2.14.39c-1.59.29-2.98.45-4.18.45-1.33,0-2.43-.13-3.3-.36l-.71-.19-6.48,10.98c-11.76,20.28-17.75,24.56-20.73,24.56-1.04,0-1.72-.36-1.72-1.98,0-1.1.94-3.92,5.38-11.11l13.87-22.52-1.98.26c-1.91.26-3.47.36-4.57.36-1.26,0-2.33-.13-3.24-.36l-.71-.19-10.4,17.72c-3.24,5.44-4.79,9.39-4.79,12.12,0,2.27.75,4.28,2.24,5.96,1.52,1.72,3.34,2.59,5.38,2.59,2.27,0,4.57-1.04,6.77-3.14.58-.52,1.23-1.23,1.98-2.07l-4.99,8.84-.62.36c-3.3,1.52-5.77,2.69-7.45,3.47-20.64,9.62-30.65,18.79-30.65,28.02,0,1.94.71,3.63,2.11,4.92,1.39,1.26,3.11,1.91,5.12,1.91,5.38,0,11.79-2.95,19.05-8.75,6.93-5.57,13.67-14.12,20.02-25.5l3.08-5.51c8.46-4.73,15.42-10.04,20.64-15.84,7.45-8.16,7.45-9.04,7.45-9.59,0-.81-.55-1.36-1.36-1.36ZM117.58,206.69c-4.34,4.79-8.71,7.22-13.04,7.22-3.13,0-4.52-1.24-4.52-3.98,0-7.42,9.78-16,29.12-25.59,1.85-.94,3.34-1.72,4.5-2.3-6.38,11.6-11.76,19.89-16.07,24.65Z"/>
</svg>