<?xml version="1.0" encoding="UTF-8"?>
<svg id="Layer_1" data-name="Layer 1" xmlns="http://www.w3.org/2000/svg" version="1.1" viewBox="0 0 500 300">
  <defs>
    <style>
      .cls-1 {
        fill: #1d4078;
        stroke-width: 0px;
      }
    </style>
  </defs>
  <path class="cls-1" d="M41.16,230.36h-8.28l-2.05,5.24c-.08.13-.13.27-.16.42-.03.15-.04.26-.04.34,0,.28.14.5.41.68.28.18.83.33,1.68.45.37.05.55.29.55.72,0,.18-.02.39-.08.64-.71-.05-1.46-.1-2.25-.13-.79-.04-1.57-.06-2.33-.06-.53,0-1.08.01-1.66.04-.58.02-1.22.07-1.93.15-.05-.1-.08-.21-.08-.34v-.3c0-.48.17-.73.51-.75.81-.15,1.4-.31,1.75-.49.36-.17.64-.48.85-.9l9.51-21.71c.21-.43.53-.64.95-.64.13,0,.26,0,.4.02.13.01.28.03.43.06l9.51,22.39c.16.38.46.66.91.85.45.19.93.32,1.46.4.39.07.59.33.59.75,0,.2-.03.43-.08.68-.84-.05-1.67-.1-2.49-.13-.81-.04-1.58-.06-2.29-.06-.37,0-.82,0-1.34.02-.53.01-1.07.03-1.62.06-.55.02-1.1.04-1.64.05-.54.01-.99.03-1.36.06-.05-.1-.08-.21-.08-.34v-.3c0-.22.04-.39.14-.51.09-.11.19-.18.3-.21.68-.12,1.19-.27,1.52-.43.33-.16.49-.41.49-.74,0-.15-.04-.34-.12-.57l-2.09-5.39ZM40.42,228.48l-3.35-8.48-3.43,8.48h6.78Z"/>
  <path class="cls-1" d="M62.9,238.85c-.68-.05-1.47-.1-2.35-.13-.88-.04-1.7-.06-2.47-.06-.84,0-1.67.02-2.5.06-.83.04-1.58.08-2.27.13-.03-.1-.05-.21-.06-.32-.01-.11-.02-.24-.02-.4,0-.18.05-.29.14-.36.09-.06.19-.11.29-.13.84-.15,1.42-.31,1.74-.49.31-.17.47-.45.47-.83v-19.76c0-.75-.14-1.33-.43-1.72s-.89-.62-1.81-.7c-.34-.07-.51-.28-.51-.6v-.3c0-.12.03-.23.08-.3.16,0,.39,0,.69-.02.3-.01.62-.02.97-.04.34-.01.68-.03,1.02-.06.34-.02.66-.05.95-.07.66-.08,1.29-.18,1.89-.3.6-.13,1.01-.19,1.22-.19.42,0,.63.19.63.56,0,.28-.04.64-.12,1.08-.08.44-.12,1.06-.12,1.87v20.55c0,.38.16.65.48.83.31.18.89.34,1.73.49.29.05.43.22.43.49,0,.35-.03.59-.08.72"/>
  <path class="cls-1" d="M98.12,214.87c.1-.22.28-.4.51-.53.24-.12.81-.19,1.74-.19.21,0,.52,0,.93-.02.41-.01.85-.02,1.32-.04.47-.01.95-.03,1.42-.06.48-.02.88-.05,1.22-.08.05.13.08.25.08.38v.3c0,.4-.14.64-.43.72-.53.07-.94.15-1.24.23-.3.07-.53.17-.69.28-.16.11-.26.25-.32.4-.05.15-.08.33-.08.53,0,.05.02.53.06,1.43.04.9.1,2.02.18,3.35.08,1.33.16,2.78.24,4.34.08,1.56.16,3.03.23,4.43.08,1.39.15,2.61.2,3.64.05,1.03.09,1.66.12,1.88,0,.25.03.46.1.62.06.16.18.31.36.43.17.13.41.23.73.32.32.09.72.17,1.22.24.29.05.43.29.43.72,0,.18-.03.39-.08.64-.92-.05-1.75-.1-2.5-.13-.75-.04-1.6-.06-2.54-.06-.87,0-1.79.02-2.78.06-.99.03-1.81.08-2.46.13-.05-.25-.08-.47-.08-.64,0-.27.04-.46.14-.57.09-.1.18-.15.26-.15,1.08-.17,1.77-.38,2.09-.62.31-.24.47-.61.47-1.11,0-.08-.02-.48-.06-1.21-.04-.73-.08-1.63-.12-2.71-.04-1.08-.09-2.25-.16-3.5-.07-1.26-.13-2.44-.2-3.54-.07-1.1-.12-2.06-.16-2.87-.04-.8-.07-1.29-.1-1.47l-8.08,17.98c-.13.23-.24.4-.34.51-.09.11-.22.17-.37.17h-.24c-.11,0-.18-.01-.24-.04l-9.15-20.96c-.03.33-.06.99-.1,1.98-.04.99-.09,2.13-.16,3.41-.07,1.28-.13,2.63-.2,4.05s-.13,2.73-.18,3.94c-.05,1.2-.1,2.22-.14,3.03-.04.82-.06,1.26-.06,1.34,0,.23.03.42.08.59.05.16.16.31.32.43.16.12.39.23.71.32.32.09.75.18,1.3.28.29.05.43.29.43.72,0,.08,0,.17-.02.28-.01.11-.03.23-.06.36-.71-.05-1.37-.1-1.97-.13-.61-.04-1.21-.06-1.81-.06-.53,0-1.18.02-1.97.06-.79.03-1.5.08-2.13.13-.05-.1-.08-.21-.08-.34v-.3c0-.27.04-.46.12-.55.08-.09.18-.14.32-.17.81-.17,1.41-.37,1.77-.6.37-.23.58-.57.63-1.02,0-.2.03-.81.08-1.83.05-1.02.12-2.22.2-3.62.08-1.39.16-2.88.24-4.45.08-1.57.15-3.03.22-4.37.06-1.34.12-2.47.16-3.37.04-.91.06-1.38.06-1.43,0-.43-.15-.74-.43-.93-.29-.19-.92-.36-1.89-.51-.29-.03-.43-.26-.43-.72v-.3c0-.12.03-.25.08-.38.34.03.81.05,1.42.08.6.03,1.22.04,1.85.06.63.01,1.22.03,1.77.04.55.01.95.02,1.18.02.47,0,.84.02,1.1.06.26.04.48.08.63.13.16.05.27.13.34.23.07.1.12.2.18.3l7.34,16.93,7.49-16.93Z"/>
  <path class="cls-1" d="M126.44,237.49c.4,0,.59.32.59.94-.34.23-.77.4-1.28.51-.51.11-1.03.17-1.56.17-1.18,0-2.09-.28-2.72-.83-.63-.55-1-1.19-1.1-1.92-.53,1.01-1.23,1.72-2.11,2.13-.88.41-1.91.62-3.1.62-.55,0-1.16-.04-1.83-.13-.67-.09-1.29-.27-1.85-.55-.56-.28-1.05-.67-1.44-1.17-.39-.5-.59-1.17-.59-2,0-.93.25-1.72.75-2.38.5-.65,1.13-1.2,1.87-1.64.75-.44,1.57-.79,2.47-1.06.89-.26,1.73-.48,2.52-.66.34-.08.7-.16,1.07-.24.37-.09.66-.16.87-.21.29-.08.47-.18.55-.32.08-.14.12-.5.12-1.07,0-1.28-.2-2.27-.59-2.96-.4-.69-1.07-1.04-2.01-1.04-.76,0-1.31.23-1.64.68-.33.45-.64,1.17-.93,2.15-.08.28-.31.48-.69.62-.38.14-.86.28-1.44.43-.32.07-.64.14-.97.19-.33.05-.62.07-.89.07-.16,0-.26-.05-.32-.17-.05-.11-.08-.33-.08-.66,0-.63.24-1.24.73-1.85.49-.6,1.1-1.14,1.83-1.6.74-.46,1.54-.83,2.43-1.11.88-.28,1.73-.42,2.54-.42.97,0,1.85.08,2.64.24.79.16,1.47.45,2.03.86.57.41,1.01.97,1.32,1.65.31.69.47,1.57.47,2.65v6.62c0,.88.02,1.52.06,1.92.04.4.11.7.22.9.24.45.61.67,1.1.67.21,0,.39,0,.53-.04.15-.03.28-.04.42-.04M119.65,230.44l-.87.15c-.61.1-1.17.24-1.7.43-.53.19-.98.44-1.36.75-.38.31-.68.7-.91,1.17-.22.47-.33,1.02-.33,1.68,0,.98.16,1.67.49,2.05.33.39.81.59,1.44.59,1,0,1.79-.35,2.37-1.06.58-.7.87-1.68.87-2.94v-2.83Z"/>
  <path class="cls-1" d="M131.13,226.37c0-.75-.15-1.31-.43-1.68-.29-.36-.96-.61-2.01-.74-.37-.07-.55-.29-.55-.64,0-.2.03-.4.08-.6.18,0,.43,0,.73-.02.3-.01.63-.02.99-.04.35-.01.71-.03,1.06-.05.36-.03.68-.05.97-.08.66-.07,1.3-.17,1.93-.3.63-.13,1.05-.19,1.26-.19.45,0,.67.19.67.57,0,.28-.04.64-.12,1.09-.08.45-.12,1.08-.12,1.89v9.31c0,1.68-.09,3.09-.28,4.2-.18,1.12-.55,2.13-1.08,3.03-.54.91-1.31,1.78-2.31,2.62-1,.84-2.31,1.83-3.94,2.96-.16-.13-.3-.26-.41-.4-.12-.14-.18-.29-.18-.47,0-.13.03-.24.1-.34.07-.1.12-.19.18-.27.71-.68,1.29-1.29,1.73-1.85s.8-1.11,1.07-1.66c.26-.55.44-1.15.53-1.79.09-.64.14-1.4.14-2.28v-12.29ZM130.42,216.53c0-.8.27-1.46.81-1.98.54-.51,1.23-.77,2.07-.77s1.49.26,2.03.77c.54.52.81,1.18.81,1.98s-.27,1.46-.81,1.98c-.54.51-1.22.77-2.03.77s-1.53-.26-2.07-.77c-.54-.52-.81-1.17-.81-1.98"/>
  <path class="cls-1" d="M144.93,238.66c-1.03,0-1.91.02-2.64.06-.74.04-1.45.08-2.13.13-.05-.25-.08-.49-.08-.72,0-.17.05-.3.14-.36.09-.06.19-.11.3-.13.84-.15,1.42-.31,1.74-.49.32-.18.47-.45.47-.83v-9.95c0-.75-.13-1.33-.39-1.73-.26-.4-.88-.64-1.85-.71-.34-.05-.51-.25-.51-.61v-.28c0-.11.03-.22.08-.32.16,0,.39,0,.69-.02.3-.01.62-.02.96-.04.34-.01.69-.03,1.03-.05.34-.03.66-.05.95-.08.66-.07,1.29-.17,1.89-.3.6-.13,1.01-.19,1.22-.19.42,0,.63.19.63.57,0,.28-.04.64-.12,1.09-.08.45-.12,1.08-.12,1.89v10.74c0,.38.17.65.51.83.34.17.91.34,1.7.49.29.05.43.21.43.49v.38c0,.12-.03.24-.08.34-.66-.05-1.37-.1-2.13-.13-.76-.04-1.66-.06-2.68-.06M142.05,216.53c0-.8.27-1.46.81-1.98.54-.51,1.21-.77,2.03-.77s1.53.26,2.05.77c.53.52.79,1.18.79,1.98s-.26,1.46-.79,1.98c-.53.51-1.21.77-2.05.77s-1.49-.26-2.03-.77c-.54-.52-.81-1.17-.81-1.98"/>
  <path class="cls-1" d="M169.62,235.15c0,.3.01.56.04.77.03.21.1.39.24.55.13.15.33.27.59.36.26.09.62.16,1.06.21.37.05.55.21.55.49v.38c0,.13-.03.23-.08.3-.34,0-.87.02-1.6.06-.72.04-1.33.1-1.84.17-.58.08-1.15.17-1.71.28-.57.11-.95.17-1.16.17-.24,0-.39-.05-.45-.13-.07-.09-.1-.23-.1-.43v-2.26c-.34.45-.7.87-1.07,1.24-.37.38-.78.7-1.24.96-.46.26-.98.47-1.56.62-.58.15-1.23.23-1.97.23-1.03,0-1.98-.18-2.86-.53-.88-.35-1.65-.87-2.31-1.56-.66-.69-1.17-1.54-1.54-2.54-.37-1.01-.55-2.15-.55-3.43,0-1.38.28-2.63.85-3.75.57-1.12,1.28-2.07,2.15-2.85.87-.78,1.82-1.38,2.84-1.79,1.03-.41,2.01-.62,2.96-.62.76,0,1.46.07,2.11.21.64.14,1.37.33,2.19.58v-6.26c0-.78-.13-1.35-.4-1.71-.26-.37-.88-.6-1.85-.7-.16-.05-.29-.11-.39-.19-.11-.07-.16-.21-.16-.41,0-.15.03-.35.08-.6.18,0,.42,0,.71-.02.29-.01.61-.02.94-.04.34-.01.69-.03,1.03-.06.34-.02.66-.05.95-.07.68-.08,1.32-.18,1.91-.3.59-.13.99-.19,1.2-.19.45,0,.67.19.67.57,0,.48-.04,1.03-.12,1.64s-.12,1.32-.12,2.13v18.55ZM165.17,225.42c-1.21-1.15-2.58-1.73-4.1-1.73-1.37,0-2.38.57-3.04,1.72-.66,1.14-.98,2.71-.98,4.69,0,.96.08,1.85.25,2.7.17.84.43,1.57.77,2.18.34.62.78,1.1,1.32,1.45.54.35,1.19.53,1.95.53.47,0,.94-.14,1.4-.43.46-.29.87-.66,1.22-1.11.35-.45.64-.97.87-1.55.22-.58.34-1.16.34-1.74v-6.71Z"/>
  <path class="cls-1" d="M191.12,228.37v7.24c0,.58.26.99.77,1.23.51.24,1.39.43,2.62.59.37.05.55.3.55.75,0,.2-.03.43-.08.68-.76-.05-1.72-.09-2.86-.13-1.14-.04-2.39-.06-3.73-.06-.95,0-1.86.02-2.74.06-.88.04-1.7.08-2.47.13-.05-.1-.08-.21-.08-.34v-.3c0-.42.14-.66.43-.72.55-.1,1-.2,1.34-.28.34-.09.61-.19.79-.3.18-.11.31-.25.37-.42s.1-.37.1-.62v-18.89c0-.5-.19-.87-.57-1.09-.38-.23-1.11-.4-2.19-.53-.13-.05-.24-.13-.32-.23-.08-.1-.12-.28-.12-.53v-.34c0-.13.03-.23.08-.3.74.05,1.58.09,2.54.13.96.04,1.82.06,2.58.06h5.95c2.82,0,5.01.6,6.59,1.81,1.58,1.2,2.37,2.89,2.37,5.05,0,.98-.2,1.92-.59,2.81-.39.89-.98,1.67-1.75,2.34-.78.67-1.72,1.2-2.82,1.6-1.1.4-2.37.6-3.79.6h-3ZM192.3,226.48c1.6,0,2.9-.39,3.88-1.17.99-.78,1.48-2.1,1.48-3.96,0-1.68-.39-2.99-1.16-3.92-.78-.93-2.18-1.39-4.2-1.39h-1.18v10.44h1.18Z"/>
  <path class="cls-1" d="M218.33,222.07c.76,0,1.33.19,1.72.56.38.38.57.86.57,1.43,0,.18-.03.33-.1.45-.07.13-.21.26-.43.42-.22.15-.53.32-.93.51-.4.19-.91.42-1.54.7-.42-.4-.81-.67-1.16-.81-.35-.14-.7-.21-1.04-.21-.32,0-.62.05-.93.15-.3.1-.57.3-.81.58-.24.29-.43.67-.57,1.15-.14.48-.22,1.09-.22,1.85v7.01c0,.5.21.87.63,1.11.42.24,1.25.46,2.49.66.29.05.43.21.43.49,0,.35-.03.59-.08.72-.34-.03-.76-.05-1.26-.06-.5,0-1.02-.03-1.58-.05-.55-.03-1.1-.04-1.64-.06-.54-.01-1.02-.02-1.44-.02-1,0-1.85.02-2.56.06-.71.04-1.38.08-2.01.13-.05-.13-.08-.36-.08-.72,0-.28.15-.44.44-.49.84-.15,1.42-.31,1.74-.49.31-.17.47-.45.47-.83v-10.14c0-.58-.11-1.04-.34-1.39-.22-.35-.85-.59-1.87-.72-.37-.05-.55-.24-.55-.56v-.3c0-.13.03-.23.08-.3.16,0,.38,0,.67-.02.29-.01.6-.02.95-.04.34-.01.68-.03,1.02-.06s.64-.06.91-.11c.58-.08,1.18-.17,1.8-.28.62-.11,1.03-.17,1.24-.17.37,0,.55.19.55.56v2.04c.92-.95,1.8-1.65,2.64-2.09.84-.44,1.77-.66,2.8-.66"/>
  <path class="cls-1" d="M221.96,230.59c0-1.23.23-2.37.69-3.41.46-1.04,1.1-1.95,1.91-2.71.81-.77,1.79-1.36,2.92-1.79,1.13-.43,2.37-.64,3.71-.64s2.66.21,3.79.64c1.13.43,2.1,1.02,2.92,1.79.81.76,1.44,1.67,1.88,2.71.43,1.04.65,2.18.65,3.41s-.23,2.37-.69,3.41c-.46,1.04-1.1,1.94-1.93,2.7-.83.75-1.81,1.34-2.94,1.77-1.13.43-2.37.64-3.71.64s-2.66-.21-3.79-.64c-1.13-.43-2.1-1.02-2.9-1.77-.8-.75-1.42-1.66-1.85-2.7-.44-1.04-.65-2.18-.65-3.41M226.93,229.84c0,2.31.4,4.16,1.2,5.54.8,1.38,1.95,2.07,3.45,2.07,1.4,0,2.39-.53,2.98-1.6.59-1.07.89-2.57.89-4.51,0-2.29-.41-4.13-1.22-5.54-.82-1.41-1.96-2.11-3.43-2.11-1.39,0-2.39.55-2.98,1.64-.59,1.09-.89,2.6-.89,4.51"/>
  <path class="cls-1" d="M245.39,225.84c0-.6-.1-1.05-.3-1.34-.2-.29-.74-.48-1.64-.58-.37-.08-.55-.25-.55-.53v-.34c0-.13.03-.24.08-.34.16,0,.38,0,.67-.02.29,0,.59-.02.91-.04.32-.01.64-.03.97-.05.33-.03.62-.06.89-.11.6-.07,1.18-.17,1.73-.28.55-.11.93-.17,1.14-.17.24,0,.39.05.45.15.07.1.1.24.1.42v2.56c.76-.95,1.63-1.72,2.6-2.28.97-.56,2.05-.85,3.23-.85,1.03,0,1.98.18,2.86.55.88.37,1.65.89,2.31,1.58.66.69,1.17,1.54,1.54,2.55.37,1.01.55,2.15.55,3.43,0,1.41-.28,2.66-.85,3.77s-1.28,2.05-2.15,2.83c-.87.78-1.81,1.37-2.84,1.77-1.02.4-2.01.6-2.96.6-.76,0-1.46-.06-2.11-.17-.64-.11-1.37-.31-2.19-.58v6.26c0,.3.03.56.1.77.07.21.22.4.45.55.24.15.6.28,1.11.39.5.11,1.18.22,2.05.32.34.05.51.24.51.57s-.03.55-.08.68c-.68-.05-1.55-.09-2.6-.13-1.05-.04-2.08-.06-3.08-.06-.87,0-1.74.02-2.62.06-.88.04-1.68.08-2.39.13-.05-.25-.08-.49-.08-.72,0-.18.05-.3.14-.36.09-.06.19-.11.29-.13.74-.17,1.21-.34,1.42-.49.21-.15.32-.41.32-.79v-19.57ZM249.84,235.64c1.21,1.21,2.57,1.81,4.1,1.81,1.34,0,2.35-.57,3.02-1.71.67-1.14,1-2.7,1-4.66,0-.95-.08-1.85-.24-2.7-.16-.84-.41-1.57-.75-2.19-.34-.62-.78-1.1-1.32-1.47-.54-.36-1.18-.55-1.91-.55-.5,0-.98.15-1.44.43-.46.29-.88.67-1.24,1.13-.37.47-.66.99-.89,1.56-.22.58-.34,1.16-.34,1.73v6.6Z"/>
  <path class="cls-1" d="M280.58,235.19c.23-.17.44-.26.63-.26.13,0,.28.06.45.17.17.11.35.33.53.66-1.03,1.16-2.2,2-3.53,2.54-1.33.54-2.9.81-4.71.81-1.03,0-2.03-.16-3.02-.47-.99-.31-1.87-.8-2.66-1.47-.79-.67-1.43-1.5-1.91-2.51-.49-1-.73-2.21-.73-3.62s.28-2.63.85-3.75c.56-1.12,1.28-2.07,2.15-2.84.87-.78,1.81-1.38,2.84-1.79,1.03-.41,2.01-.62,2.96-.62,2.55,0,4.48.7,5.78,2.11,1.3,1.41,1.95,3.33,1.95,5.77,0,.17-.09.26-.28.26l-11.28.45c0,1.96.46,3.46,1.38,4.51.92,1.04,2.29,1.57,4.13,1.57.81,0,1.61-.13,2.4-.38.79-.25,1.48-.63,2.08-1.13M273.84,223.69c-1.02,0-1.84.42-2.45,1.26-.61.84-.92,2.17-.92,3.98l6.12-.26c.39-.03.59-.19.59-.49,0-.48-.07-.98-.2-1.51-.13-.53-.33-1.01-.61-1.45-.28-.44-.62-.8-1.04-1.09-.42-.29-.92-.43-1.49-.43"/>
  <path class="cls-1" d="M297.13,222.07c.76,0,1.33.19,1.72.56.38.38.57.86.57,1.43,0,.18-.03.33-.1.45-.07.13-.21.26-.43.42-.23.15-.53.32-.93.51-.4.19-.91.42-1.54.7-.42-.4-.81-.67-1.17-.81-.35-.14-.7-.21-1.04-.21-.32,0-.63.05-.93.15-.3.1-.57.3-.81.58-.24.29-.43.67-.57,1.15-.15.48-.22,1.09-.22,1.85v7.01c0,.5.21.87.63,1.11.42.24,1.25.46,2.49.66.29.05.43.21.43.49,0,.35-.03.59-.08.72-.34-.03-.76-.05-1.26-.06-.5,0-1.02-.03-1.58-.05-.55-.03-1.1-.04-1.64-.06-.54-.01-1.02-.02-1.44-.02-1,0-1.85.02-2.56.06-.71.04-1.38.08-2.01.13-.05-.13-.08-.36-.08-.72,0-.28.14-.44.43-.49.84-.15,1.42-.31,1.74-.49.31-.17.47-.45.47-.83v-10.14c0-.58-.11-1.04-.33-1.39-.23-.35-.85-.59-1.87-.72-.37-.05-.55-.24-.55-.56v-.3c0-.13.03-.23.08-.3.16,0,.38,0,.67-.02.29-.01.6-.02.95-.04.34-.01.68-.03,1.02-.06.34-.03.64-.06.91-.11.58-.08,1.18-.17,1.8-.28.62-.11,1.03-.17,1.24-.17.37,0,.55.19.55.56v2.04c.92-.95,1.8-1.65,2.64-2.09.84-.44,1.77-.66,2.8-.66"/>
  <path class="cls-1" d="M311.13,236.21c.26-.15.49-.23.67-.23.26,0,.54.26.83.79-1.1.96-2.07,1.59-2.9,1.89s-1.7.45-2.62.45c-.53,0-1.03-.06-1.52-.19-.49-.12-.93-.35-1.32-.68-.39-.32-.71-.77-.95-1.34-.23-.57-.35-1.29-.35-2.17v-10.37h-2.37v-.94c0-.1.03-.23.08-.38.05-.15.21-.23.47-.23.71,0,1.37-.19,1.97-.58.61-.39,1.09-.97,1.46-1.75.29-.58.61-1.04.97-1.39.35-.35.7-.53,1.04-.53h.83v3.92h4.62c0,.81-.06,1.32-.18,1.55-.12.23-.33.34-.65.34h-3.79v9.31c0,.75.03,1.35.08,1.79.05.44.14.77.26,1,.12.23.27.37.47.43.2.06.43.09.69.09.29,0,.63-.07,1.02-.21.39-.14.79-.33,1.18-.58"/>
  <path class="cls-1" d="M323.99,233.15c.63-1.48,1.16-2.71,1.6-3.69.43-.98.78-1.79,1.05-2.41.26-.63.45-1.12.57-1.49.12-.36.18-.67.18-.92,0-.5-.42-.85-1.26-1.06-.18-.05-.32-.11-.4-.17-.08-.06-.12-.19-.12-.4,0-.08.01-.17.04-.28.03-.11.05-.23.08-.36,1.05.08,2.2.11,3.43.11,1.11,0,2.12-.04,3.04-.11.05.13.09.26.1.42.01.15.02.25.02.3,0,.28-.17.45-.51.53-.37.08-.67.15-.89.21-.22.07-.41.16-.57.3-.16.14-.3.32-.43.53-.13.21-.29.51-.47.89l-8.28,18.51c-.61,1.33-1.45,2.28-2.54,2.83-1.09.55-2.27.83-3.53.83-.24,0-.41-.06-.51-.19-.11-.13-.16-.26-.16-.41,0-.85.16-1.59.47-2.21.32-.62.68-.92,1.1-.92.24,0,.45.03.63.08.18.05.45.07.79.07.68,0,1.2-.13,1.56-.39.35-.27.66-.68.93-1.27l1.77-4.07-6.04-12.85c-.18-.38-.34-.67-.47-.89-.13-.21-.28-.38-.43-.51-.16-.12-.34-.22-.55-.28-.21-.06-.49-.13-.83-.21-.34-.08-.51-.29-.51-.64,0-.15.04-.36.12-.64.63.05,1.3.08,2.01.09.71.01,1.58.02,2.6.02.95,0,1.76,0,2.45-.02.68-.01,1.37-.04,2.05-.09.08.28.12.49.12.64,0,.33-.17.51-.51.57-.63.08-1.03.18-1.2.32-.17.14-.26.31-.26.51,0,.13.07.39.2.79.13.4.42,1.08.87,2.04l2.72,5.92Z"/>
  <path class="cls-1" d="M355.23,239.11c-2.21,0-4.14-.33-5.8-.98-1.66-.65-3.02-1.55-4.1-2.69-1.08-1.14-1.89-2.49-2.43-4.04-.54-1.54-.81-3.21-.81-4.99,0-1.48.26-2.98.79-4.49.53-1.51,1.36-2.87,2.49-4.09,1.13-1.22,2.58-2.21,4.34-2.97,1.76-.77,3.86-1.15,6.31-1.15,1.34,0,2.6.09,3.77.26,1.17.17,2.44.44,3.81.79.05.68.16,1.55.32,2.6.16,1.05.38,2.09.67,3.09-.13.03-.3.06-.51.1-.21.04-.37.05-.47.05-.21,0-.39-.03-.53-.09-.15-.06-.24-.19-.3-.4-.29-.83-.62-1.53-.99-2.09-.37-.56-.81-1.02-1.32-1.36-.51-.34-1.11-.58-1.8-.73-.68-.15-1.48-.23-2.4-.23-1.42,0-2.68.23-3.77.7-1.09.46-2.01,1.13-2.74,2-.74.87-1.29,1.91-1.68,3.13-.38,1.22-.57,2.6-.57,4.13,0,1.64.23,3.16.69,4.56.46,1.41,1.09,2.63,1.89,3.66.8,1.03,1.75,1.84,2.86,2.41,1.1.58,2.3.87,3.59.87,1.05,0,1.95-.09,2.7-.28.75-.19,1.39-.48,1.93-.87.54-.39,1-.89,1.38-1.49.38-.6.73-1.31,1.05-2.11.08-.2.2-.35.38-.43.17-.09.35-.13.53-.13.13,0,.29.02.49.06.2.04.36.08.49.13-.16.43-.32.91-.49,1.45-.17.54-.35,1.09-.53,1.66-.19.56-.35,1.13-.49,1.7-.15.56-.27,1.11-.38,1.64-1.29.23-2.6.39-3.94.49-1.34.1-2.81.15-4.42.15"/>
  <path class="cls-1" d="M368.01,230.59c0-1.23.23-2.37.69-3.41.46-1.04,1.1-1.95,1.91-2.71.81-.77,1.79-1.36,2.92-1.79,1.13-.43,2.37-.64,3.71-.64s2.66.21,3.79.64c1.13.43,2.1,1.02,2.92,1.79.81.76,1.44,1.67,1.87,2.71.43,1.04.65,2.18.65,3.41s-.23,2.37-.69,3.41c-.46,1.04-1.1,1.94-1.93,2.7-.83.75-1.81,1.34-2.94,1.77-1.13.43-2.37.64-3.71.64s-2.66-.21-3.79-.64c-1.13-.43-2.1-1.02-2.9-1.77-.8-.75-1.42-1.66-1.85-2.7-.43-1.04-.65-2.18-.65-3.41M372.98,229.84c0,2.31.4,4.16,1.2,5.54.8,1.38,1.95,2.07,3.45,2.07,1.39,0,2.39-.53,2.98-1.6.59-1.07.89-2.57.89-4.51,0-2.29-.41-4.13-1.22-5.54-.81-1.41-1.96-2.11-3.43-2.11-1.39,0-2.39.55-2.98,1.64-.59,1.09-.89,2.6-.89,4.51"/>
  <path class="cls-1" d="M389.58,236.28c0-.81.28-1.48.85-2.04.56-.55,1.25-.83,2.07-.83s1.47.28,2.03.83c.56.55.85,1.23.85,2.04s-.28,1.45-.85,2c-.57.55-1.24.83-2.03.83s-1.51-.28-2.07-.83c-.57-.55-.85-1.22-.85-2"/>
  <path class="cls-1" d="M414.98,235.45c0,.53.36.88,1.07,1.06.71.17,1.88.26,3.51.26h1.5c.66,0,1.23-.07,1.72-.21.49-.14.91-.37,1.28-.7.37-.33.7-.75,1.01-1.26.3-.52.6-1.13.89-1.86.08-.2.28-.3.59-.3.13,0,.29.03.47.11.18.08.37.15.55.23-.21.81-.4,1.68-.57,2.62-.17.94-.32,1.86-.45,2.77-.03.3-.11.49-.26.57-.14.07-.3.11-.45.11-.21,0-.51-.01-.89-.04-.38-.02-.8-.04-1.24-.06-.45-.01-.9-.03-1.36-.05-.46-.03-.86-.04-1.2-.04h-8.95c-.76,0-1.64.02-2.62.06-.98.03-1.87.08-2.66.13-.05-.1-.08-.23-.08-.4v-.36c0-.38.13-.58.39-.6,1-.17,1.72-.36,2.15-.56.43-.2.65-.55.65-1.06v-18.89c0-.25-.03-.46-.08-.62-.05-.16-.16-.31-.32-.43-.16-.13-.4-.23-.73-.32-.33-.09-.77-.17-1.32-.24-.26-.08-.39-.29-.39-.64v-.34c0-.15.03-.29.08-.42.84.05,1.73.1,2.68.13.95.04,1.79.06,2.52.06.37,0,.79,0,1.26-.02.47-.01.96-.03,1.48-.04.51-.01,1.03-.03,1.54-.06.51-.03.98-.05,1.4-.08.03.13.05.27.06.42.01.15.02.26.02.34,0,.35-.13.56-.39.64-1.13.15-1.89.35-2.27.58-.38.24-.57.61-.57,1.11v18.4Z"/>
  <path class="cls-1" d="M437.46,235.45c0,.53.36.88,1.07,1.06.71.17,1.88.26,3.51.26h1.5c.66,0,1.23-.07,1.72-.21.49-.14.91-.37,1.28-.7.37-.33.7-.75,1.01-1.26.3-.52.6-1.13.89-1.86.08-.2.28-.3.59-.3.13,0,.29.03.47.11.18.08.37.15.55.23-.21.81-.4,1.68-.57,2.62-.17.94-.32,1.86-.45,2.77-.03.3-.11.49-.26.57-.14.07-.3.11-.45.11-.21,0-.51-.01-.89-.04-.38-.02-.8-.04-1.24-.06-.45-.01-.9-.03-1.36-.05-.46-.03-.86-.04-1.2-.04h-8.95c-.76,0-1.64.02-2.62.06-.98.03-1.87.08-2.66.13-.05-.1-.08-.23-.08-.4v-.36c0-.38.13-.58.39-.6,1-.17,1.72-.36,2.15-.56.43-.2.65-.55.65-1.06v-18.89c0-.25-.02-.46-.08-.62-.05-.16-.16-.31-.32-.43-.16-.13-.4-.23-.73-.32-.33-.09-.77-.17-1.32-.24-.26-.08-.39-.29-.39-.64v-.34c0-.15.03-.29.08-.42.84.05,1.73.1,2.68.13.95.04,1.79.06,2.52.06.37,0,.79,0,1.26-.02.47-.01.96-.03,1.48-.04.51-.01,1.02-.03,1.54-.06.51-.03.98-.05,1.4-.08.03.13.05.27.06.42.01.15.02.26.02.34,0,.35-.13.56-.39.64-1.13.15-1.89.35-2.27.58-.38.24-.57.61-.57,1.11v18.4Z"/>
  <path class="cls-1" d="M464.79,239.11c-2.21,0-4.14-.33-5.8-.98-1.66-.65-3.02-1.55-4.1-2.69-1.08-1.14-1.89-2.49-2.43-4.04-.54-1.54-.81-3.21-.81-4.99,0-1.48.26-2.98.79-4.49.53-1.51,1.36-2.87,2.49-4.09,1.13-1.22,2.58-2.21,4.34-2.97,1.76-.77,3.86-1.15,6.31-1.15,1.34,0,2.6.09,3.77.26,1.17.17,2.44.44,3.81.79.05.68.16,1.55.32,2.6.16,1.05.38,2.09.67,3.09-.13.03-.3.06-.51.1-.21.04-.37.05-.47.05-.21,0-.39-.03-.53-.09-.15-.06-.24-.19-.3-.4-.29-.83-.62-1.53-.99-2.09-.37-.56-.81-1.02-1.32-1.36-.51-.34-1.11-.58-1.8-.73-.68-.15-1.48-.23-2.4-.23-1.42,0-2.68.23-3.77.7-1.09.46-2.01,1.13-2.74,2-.74.87-1.29,1.91-1.68,3.13-.38,1.22-.57,2.6-.57,4.13,0,1.64.23,3.16.69,4.56.46,1.41,1.09,2.63,1.89,3.66.8,1.03,1.75,1.84,2.86,2.41,1.1.58,2.3.87,3.59.87,1.05,0,1.95-.09,2.7-.28.75-.19,1.39-.48,1.93-.87.54-.39,1-.89,1.38-1.49.38-.6.73-1.31,1.05-2.11.08-.2.2-.35.38-.43.17-.09.35-.13.53-.13.13,0,.29.02.49.06.2.04.36.08.49.13-.16.43-.32.91-.49,1.45-.17.54-.35,1.09-.53,1.66-.19.56-.35,1.13-.49,1.7-.15.56-.27,1.11-.38,1.64-1.29.23-2.6.39-3.94.49-1.34.1-2.81.15-4.42.15"/>
  <path class="cls-1" d="M31.02,189.54c-.62-.33-1.04-.71-1.18-1.23-.1-.52.09-1.04.52-1.61.33-.28.76-.42,1.23-.42s.85.19,1.14.52c.52.42.62,1.04.23,1.9-.33.71-.94.99-1.94.85"/>
  <path class="cls-1" d="M50.47,187.55c0,.99-.28,1.66-.85,1.99l-10.46.1s-.14.09-.38.28c.1.71.38,2.13.95,4.35.47,1.85.71,3.36.71,4.45,0,1.56-.43,2.93-1.28,4.12-.14,0-.23-.14-.28-.38,0-.24-.05-.42-.1-.47-.14-1.56-.47-3.6-.99-6.2-.61-2.88-.99-4.97-1.14-6.15v-.1c.19-1.04.76-1.85,1.66-2.37.8-.33,1.8-.71,2.98-1.04,1.85-.52,2.84-.76,2.98-.81v.1l.38-.1c-1.28-2.13-2.51-3.17-3.6-3.12-.05,0-.99.57-2.89,1.75h-.24c.19-1.56,1.18-3.31,2.98-5.21.9-.61,1.61-.94,2.13-.94.14,0,.33,0,.47.05l2.37,1.99c1.09,1.18,2.65,2.94,4.59,5.35-.05.14,0,.95,0,2.37"/>
  <path class="cls-1" d="M55.35,189.54c-.62-.33-1.04-.71-1.18-1.23-.1-.52.09-1.04.52-1.61.33-.28.76-.42,1.23-.42s.85.19,1.14.52c.52.42.62,1.04.23,1.9-.33.71-.94.99-1.94.85"/>
  <path class="cls-1" d="M74.8,187.55c0,.99-.28,1.66-.85,1.99l-10.46.1s-.14.09-.38.28c.1.71.38,2.13.95,4.35.47,1.85.71,3.36.71,4.45,0,1.56-.43,2.93-1.28,4.12-.14,0-.23-.14-.28-.38,0-.24-.05-.42-.1-.47-.14-1.56-.47-3.6-.99-6.2-.61-2.88-.99-4.97-1.14-6.15v-.1c.19-1.04.76-1.85,1.66-2.37.8-.33,1.8-.71,2.98-1.04,1.85-.52,2.84-.76,2.98-.81v.1l.38-.1c-1.28-2.13-2.51-3.17-3.6-3.12-.05,0-.99.57-2.89,1.75h-.24c.19-1.56,1.18-3.31,2.98-5.21.9-.61,1.61-.94,2.13-.94.14,0,.33,0,.47.05l2.37,1.99c1.09,1.18,2.65,2.94,4.59,5.35-.05.14,0,.95,0,2.37"/>
  <path class="cls-1" d="M79.67,189.54c-.62-.33-1.04-.71-1.18-1.23-.1-.52.09-1.04.52-1.61.33-.28.76-.42,1.23-.42s.85.19,1.14.52c.52.42.62,1.04.23,1.9-.33.71-.94.99-1.94.85"/>
  <path class="cls-1" d="M95.53,189.16l-1.14.38c-.57.05-1.51.19-2.79.47-1.28.33-2.27.47-2.93.47-1.04,0-1.94-.28-2.7-.85,0-.14-.05-.19-.09-.28-.1,0-.29-.52-.57-1.47-.14-2.32.14-4.12.9-5.3.28.76.52,1.56.85,2.32.38.94,1.09,1.28,1.99,1.13,1.37-.05,2.27-.14,2.6-.19.9-.14,1.66-.42,2.27-.8-.1-.99-.47-2.08-1.09-3.36-1.04-2.13-1.52-3.17-1.56-3.21.28-.62.9-1.85,1.89-3.6.52.14.85.47.99.99,1.66,3.64,2.46,7.57,2.46,11.69,0,.62-.38,1.18-1.09,1.61M91.17,173.12c-1.04-.42-1.66-.66-1.89-.81-.71-.28-1.28-.66-1.7-1.04.61-1.23,1.18-2.18,1.75-2.84.76.24,1.85.76,3.31,1.61-.33,1.09-.85,2.08-1.47,3.08"/>
  <path class="cls-1" d="M129.5,192.05c-4.68.43-7.52.66-8.52.66-2.79,0-5.11-.42-6.86-1.33-1.94-.99-2.84-2.6-2.65-4.87.14-1.7.85-3.45,2.13-5.3.05,0,.1-.05.24-.14.14-.05.24-.05.28,0-.05.28-.14.8-.28,1.61-.14.66-.19,1.18-.19,1.56,0,.8.24,1.42.71,1.94,1.32,1.37,3.5,2.08,6.48,2.08.48,0,1.18,0,2.13-.05.94-.05,1.66-.05,2.08-.05,1.09-.14,2.13-.24,3.22-.38,1.23-.19,2.22-.48,2.98-.9-.09-.57-.42-1.23-1.04-1.94-.85-.99-1.32-1.61-1.42-1.75.43-.9,1.09-2.13,2.08-3.74,1.04.43,1.89,1.71,2.51,3.74.57,1.85.66,3.93.38,6.34-.52,1.14-1.94,1.99-4.26,2.51M125.24,180.26h-.38c-.62-.52-1.28-1.18-1.99-1.99h-.28l-1.7,1.99c-.76-.52-1.65-1.37-2.74-2.65l1.89-2.32c.28,0,.71.28,1.28.76.62.52,1.04.8,1.33.8.33,0,.61-.24.85-.71.05-.05.19-.19.38-.47.19-.28.38-.43.62-.43.05,0,.14,0,.24.05l2.37,2.13v.57c-.33.52-.94,1.28-1.85,2.27"/>
  <path class="cls-1" d="M138.73,189.78c-.19-.1-.28-.38-.28-.85.05-2.03-.05-4.78-.38-8.14-.38-3.83-.61-6.58-.61-8.19,0-.76.33-1.56.99-2.37.57-.71,1.18-1.37,1.75-2.08.24-.14.38-.05.38.28.05,1.47.19,3.93.48,7.34.23,3.12.38,5.54.38,7.29,0,.95-.05,1.89-.09,2.79-.24.81-1.14,2.08-2.6,3.93"/>
  <path class="cls-1" d="M155.63,188.17c0,4.31-1.75,7.86-5.25,10.55-.66.43-1.42.62-2.27.62-1.09,0-1.99-.28-2.79-.85-2.32-1.61-3.64-3.41-3.97-5.35l.09-.09c1.8,1.33,3.55,1.99,5.3,1.99.42,0,.9-.05,1.33-.14,2.04-.43,3.79-2.18,5.35-5.25-.1,0-.05-.05.1-.19-.05-.81-.43-1.61-1.18-2.51-.62-.76-1.28-1.51-1.94-2.27.62-1.66,1.23-3.03,1.89-4.07.66.14,1.23.62,1.7,1.42.33.71.66,1.37.99,2.08.42,1.33.66,2.7.66,4.07"/>
  <path class="cls-1" d="M163.53,189.54c-1.85,0-3.12-.52-3.79-1.61-.57-.9-.85-2.51-.9-4.83l-.14-12.82,2.51-2.27c.28-.05.62.24.99.9v14.43c.19.81.62,1.42,1.28,1.85h3.69v4.35h-3.65Z"/>
  <rect class="cls-1" x="166.61" y="185.18" width="8.66" height="4.35"/>
  <path class="cls-1" d="M174.7,189.54v-4.35h8.66c-1.14-.62-2.27-1.18-3.41-1.85-1.33-.8-1.94-1.89-1.8-3.27,1.56-3.55,3.22-5.63,5.02-6.2,1.09,0,2.18.52,3.12,1.61.52.57,1.14,1.61,1.89,2.98.8,1.37,1.18,3.36,1.18,5.87,0,.62-.05,1.47-.05,2.65-.1,1.18-.1,2.04-.1,2.56h-14.53ZM185.49,173.12h-.38c-.62-.52-1.28-1.18-1.99-1.99h-.29l-1.75,1.99c-.71-.47-1.61-1.33-2.7-2.6l1.85-2.36c.33,0,.76.28,1.32.75.62.52,1.04.81,1.33.81.33,0,.62-.23.85-.71.05-.05.19-.19.38-.48.19-.28.38-.42.57-.42.1,0,.19,0,.29.05l2.37,2.13v.61c-.38.48-1,1.23-1.85,2.23M184.83,179.55c-.29-.8-.62-1.47-1.04-1.99-.29-.38-.76-.57-1.33-.57-.62,0-1.18.19-1.7.57-.33.52-.47.94-.38,1.37.62.62,1.47,1.23,2.6,1.75.85.38,1.75.76,2.65,1.13-.24-.71-.52-1.47-.8-2.27"/>
  <rect class="cls-1" x="188.66" y="185.18" width="8.66" height="4.35"/>
  <path class="cls-1" d="M213.13,189.54c-.76-.1-1.56-.42-2.41-1.09-.76-.57-1.47-1.14-2.18-1.66-2.37,1.85-6.29,2.75-11.78,2.75v-4.35c1.66,0,3.36.04,5.06,0,2.03-.05,3.5-.71,4.49-1.75-.1-.8-.85-1.52-2.32-2.08h-2.04c-.05-.1-.05-.19-.05-.24s.05-.19.14-.38c.14-.19.19-.38.19-.52.52-.95,1.09-1.89,1.65-2.89.71-1.18,1.61-1.7,2.79-1.61,2.65-.24,4.73.8,6.24,3.13.05.24.1.52.1.76,0,.52-.19,1.09-.47,1.7-.33.62-.66,1.23-.99,1.8.33,1.04,1.23,1.75,2.74,2.08h2.6v4.35h-3.79Z"/>
  <rect class="cls-1" x="216.3" y="185.18" width="8.66" height="4.35"/>
  <path class="cls-1" d="M235.18,189.63c1.37-.05.61-.1-2.22-.1h-8.57v-4.35h9.65l.29-.52c-.05-1.66-.19-3.83-.48-6.62-.28-3.27-.47-5.49-.52-6.63l2.74-3.12c.29.43.52,1.09.62,1.99.1.76.19,1.51.24,2.23.14,2.03.14,7.48.14,16.28-.38.52-.99.81-1.89.85"/>
  <path class="cls-1" d="M247.3,189.63c1.37-.05.61-.1-2.22-.1h-8.57v-4.35h9.65l.29-.52c-.05-1.66-.19-3.83-.48-6.62-.28-3.27-.47-5.49-.52-6.63l2.74-3.12c.29.43.52,1.09.62,1.99.1.76.19,1.51.24,2.23.14,2.03.14,7.48.14,16.28-.38.52-.99.81-1.89.85"/>
  <path class="cls-1" d="M274.22,190.53l-1.14.38c-.57.05-1.51.19-2.79.47-1.28.33-2.27.48-2.93.48-1.04,0-1.94-.29-2.7-.85,0-.14-.05-.19-.1-.29-.09,0-.28-.52-.57-1.42-.14-2.37.14-4.16.9-5.35.28.76.52,1.56.85,2.32.38.94,1.09,1.28,1.99,1.14,1.37-.05,2.27-.14,2.6-.19.9-.14,1.66-.42,2.27-.8-.09-.99-.47-2.08-1.09-3.36-1.04-2.13-1.51-3.17-1.56-3.22.28-.61.9-1.85,1.89-3.6.52.14.85.47.99.99,1.66,3.64,2.46,7.57,2.46,11.69,0,.61-.38,1.18-1.09,1.61"/>
  <rect class="cls-1" x="274.74" y="185.18" width="8.66" height="4.35"/>
  <path class="cls-1" d="M282.84,189.54v-4.35h16.75c.19-.05.48-.14.81-.38-.28-.57-1.33-1.56-3.03-3.08-1.18-1.04-2.6-1.56-4.35-1.56-1.18,0-2.22.28-3.22.81-.1-.05-.14-.38-.14-1,1.61-2.08,3.41-3.12,5.44-3.12.42,0,.85.05,1.28.14,1.51.33,3.17,1.23,4.83,2.79,1.42,1.33,2.75,2.79,4.17,4.16.85.85,1.85,1.23,2.93,1.23v4.35h-25.46ZM295.61,197.35h-.62l-3.36-1.7v-.52l1.65-2.46h.57c.38.19.9.52,1.61.95.71.47,1.28.8,1.65.99-.38,1-.9,1.94-1.51,2.75"/>
  <path class="cls-1" d="M316.86,189.54c-1.85,0-3.12-.52-3.79-1.61-.57-.9-.85-2.51-.9-4.83l-.14-12.82,2.51-2.27c.29-.05.62.24,1,.9v14.43c.19.81.62,1.42,1.28,1.85h3.69v4.35h-3.64Z"/>
  <rect class="cls-1" x="319.94" y="185.18" width="8.66" height="4.35"/>
  <path class="cls-1" d="M345.45,189.3c-.52,0-1.33.05-2.46.1-1.18.09-2.04.14-2.6.14-2.7,0-4.59-.85-5.73-2.51-.99,1.75-2.7,2.6-5.16,2.6-.48,0-.95-.05-1.47-.09v-4.35c.33,0,.9.05,1.61.05.76.1,1.33.1,1.66.1,2.37,0,3.83-.85,4.59-2.41.62-1.28,1.33-2.46,1.94-3.69.95-1.42,2.13-2.08,3.55-1.99.47.24,1.09,1.04,1.85,2.37,1.09,2.56,1.94,4.92,2.51,7.1,0,1.37-.09,2.27-.28,2.6M340.76,182.06c-.43-.47-1.18-.57-2.22-.24-.85.85-1.28,1.42-1.28,1.75.95.81,2.46,1.23,4.59,1.23.09-.9-.28-1.85-1.09-2.75"/>
  <rect class="cls-1" x="344.88" y="185.18" width="8.66" height="4.35"/>
  <path class="cls-1" d="M363.76,189.63c1.37-.05.61-.1-2.22-.1h-8.57v-4.35h9.65l.29-.52c-.05-1.66-.19-3.83-.47-6.62-.28-3.27-.47-5.49-.52-6.63l2.75-3.12c.28.43.52,1.09.61,1.99.1.76.19,1.51.24,2.23.14,2.03.14,7.48.14,16.28-.38.52-.99.81-1.89.85"/>
  <path class="cls-1" d="M370.63,189.78c-.19-.1-.28-.38-.28-.85.05-2.03-.05-4.78-.38-8.14-.38-3.83-.62-6.58-.62-8.19,0-.76.33-1.56,1-2.37.57-.71,1.18-1.37,1.75-2.08.24-.14.38-.05.38.28.05,1.47.19,3.93.47,7.34.23,3.12.38,5.54.38,7.29,0,.95-.05,1.89-.1,2.79-.23.81-1.14,2.08-2.6,3.93"/>
  <path class="cls-1" d="M399.63,189.54c-1.61-.33-2.65-1.75-3.12-4.35l-.23-1.23-.76,1.23c-.33,1.04-.8,1.8-1.52,2.22-2.13,0-4.12-.71-5.96-2.08-.24-2.51.43-4.54,2.13-6.01.57-.47,1.28-.95,2.18-1.33.8-.38,1.56-.66,2.32-.99.19-.38.14-.81-.14-1.28l1.99-2.93.38.85c.24,2.32.8,5.68,1.61,10.17.48.71,1.52,1.18,3.13,1.37v4.35h-1.99ZM397.79,170.89h-.33c-.66-.52-1.33-1.18-2.04-1.99h-.24l-1.75,1.99c-.76-.47-1.66-1.33-2.7-2.6l1.85-2.37c.33,0,.75.28,1.33.76.57.52.99.81,1.27.81.33,0,.62-.24.9-.71.05-.05.14-.19.33-.47.23-.29.42-.43.61-.43.1,0,.19,0,.24.05l2.41,2.13v.57c-.38.52-.99,1.28-1.89,2.27M395.14,178.61l-2.51,1.23s-.33.24-1.04.66c-.42.24-.66.52-.81.85.14.05.28.19.52.38.62.24,1.23.52,1.85.81.66.33,1.28.47,1.8.47.38,0,.76-.04,1.09-.19,0-.62-.28-2.04-.9-4.21"/>
  <rect class="cls-1" x="401.05" y="185.18" width="8.66" height="4.35"/>
  <path class="cls-1" d="M409.15,189.54v-4.35h12.02v-.52c-1.47-1.47-3.5-3.03-6.1-4.68-.05-.05-.28.09-.71.47-.95-.8-1.51-1.37-1.75-1.61-.62-.71-.85-1.42-.76-2.13.24-1.85,1.33-3.31,3.22-4.45.62-.38,2.32-1.18,5.25-2.23,1.13-.42,2.93-.71,5.35-1.13l-.14.61c-.24.52-.47,1.09-.71,1.61-.33.66-.76,1.04-1.28,1.14-1.56.47-3.07.9-4.59,1.42-1.75.57-3.17,1.23-4.35,1.94,1.75,1.23,3.5,2.46,5.25,3.69,2.04,1.47,3.69,2.89,5.06,4.26.71.52,1.09,1.42,1.09,2.7,0,.24-.05.8-.1,1.7-.05.66-.05,1.18,0,1.56h-16.75Z"/>
  <path class="cls-1" d="M440.19,188.17c0,4.31-1.75,7.86-5.25,10.55-.66.43-1.42.62-2.27.62-1.09,0-1.99-.28-2.79-.85-2.32-1.61-3.65-3.41-3.97-5.35l.09-.09c1.8,1.33,3.55,1.99,5.3,1.99.42,0,.9-.05,1.33-.14,2.03-.43,3.79-2.18,5.35-5.25-.1,0-.05-.05.09-.19-.05-.81-.42-1.61-1.18-2.51-.61-.76-1.28-1.51-1.94-2.27.61-1.66,1.23-3.03,1.89-4.07.66.14,1.23.62,1.7,1.42.33.71.66,1.37.99,2.08.43,1.33.66,2.7.66,4.07"/>
  <rect class="cls-1" x="439.62" y="185.18" width="8.66" height="4.35"/>
  <path class="cls-1" d="M458.98,189.54h-.71c-1.33,0-2.84-.47-4.5-1.37-1.18.9-3.22,1.37-6.06,1.37v-4.35h1.23c2.37,0,3.83-.1,4.45-.24.33-.24.47-.71.42-1.37-.05-.85-.1-1.37-.05-1.52l2.51-2.84.24.38c.09,1.27-.09,3.03-.62,5.2l.14.14c.57.19,1.56.28,2.93.24v4.35Z"/>
  <path class="cls-1" d="M469.96,189.54c-2.65,0-5.16-.47-7.57-1.37-1,.9-2.32,1.37-3.97,1.37v-4.35c1.75,0,2.98-.1,3.64-.24.24-.24.33-.52.33-.8,0-.19-.05-.48-.19-.9-.14-.42-.19-.71-.19-.9,0-.23.05-.43.14-.61l2.6-2.89.24.38c.1,1.47-.05,3.03-.47,4.73,1.28.81,2.89,1.23,4.83,1.23.43-.14.62-.24.62-.24.24-.14.33-.28.38-.47.1-.43,0-.99-.24-1.7-.29-.71-.43-1.23-.43-1.52,0-.47.19-.85.57-1.18l1.61-1.85c.33.14.52.57.71,1.37.33,1.56.62,4.82.76,9.7-1.09.14-2.18.24-3.36.24M469.25,174.68c-.28.42-.57.9-.85,1.33l-.52-.14-2.56-1.23c-.23.14-.47.38-.66.76-.28.52-.42.8-.47.85h-.47c-.62-.33-1.61-.85-2.89-1.61.19-.42.71-1.23,1.51-2.37.66.38,1.66.9,2.98,1.51l1.23-1.75c.42.1.99.28,1.61.66.76.47,1.23.76,1.47.8,0,.33-.14.76-.38,1.18M464.8,171.74c-1.14-.42-2.13-.95-2.98-1.61l1.09-1.85c.57.14,1.61.66,3.12,1.61l-1.23,1.85Z"/>
  <path class="cls-1" d="M304.76,148.57l-36.4-96.46-8.86,22.2-9.15-21.9-9.14,21.9-8.87-22.2-36.4,96.46s-1.47,4.44-8.59,5.93h37.3s7.06.18,9.78-7.4l6.47-15.73,9.46,23.13,9.46-23.13,6.46,15.73c2.71,7.58,9.78,7.4,9.78,7.4h37.3c-7.11-1.48-8.59-5.93-8.59-5.93M292.38,152.04h-14.79c-7.2,0-8.99-5.8-8.99-5.8l-7.26-19.14h-21.99l-7.26,19.14s-1.79,5.8-9,5.8h-14.79,0,0s2.01-.16,4.26-1.31c.93-.47,1.89-1.1,2.78-1.97,1.01-1,1.91-2.29,2.53-3.97l32.47-86.43,32.47,86.43c.61,1.68,1.52,2.97,2.53,3.97.88.87,1.85,1.5,2.78,1.97,2.25,1.15,4.26,1.31,4.26,1.31h0,0"/>
  <polygon class="cls-1" points="241.67 121.88 250.35 121.88 259.03 121.88 250.35 99.25 241.67 121.88"/>
</svg>