<?xml version="1.0" encoding="UTF-8"?>
<svg id="Layer_1" data-name="Layer 1" xmlns="http://www.w3.org/2000/svg" version="1.1" viewBox="0 0 500 200">
  <defs>
    <style>
      .cls-1 {
        fill: #6f715c;
      }

      .cls-1, .cls-2 {
        stroke-width: 0px;
      }

      .cls-2 {
        fill: #678f42;
      }
    </style>
  </defs>
  <g>
    <path class="cls-2" d="M477.96,106.62l-1.71,2.25v.07s.01-.02.02-.03v37.51h-87.85s0-46.77,0-46.77c.01-.04.03-.07.05-.1-.86,1.38-1.44,2.61-1.82,3.64v4.71s0,40.3,0,40.3h91.33s0-41.58,0-41.58ZM474.27,111.46l-.08.1s-3.2,4.13-10.1,8.11l-1.1.64v12.05h-61.38v-24.83c1.77-2.57,3.74-4.81,5.96-6.64,5.96-4.93,14.05-7.7,25.09-7.41,2.98.08,4.98-.05,5.17-1.53.2-1.48-4.11-3.31-16.4-4.14,9.5-1.09,18.8-.37,26.31,9.45,1.06,1.38,2.52,2.07,3.6,2.04.27,0,.5-.06.7-.15.14-.06.26-.14.35-.24-9.7-22.18-36.79-22.88-54.38-9.55-2.67,2.02-5.11,4.39-7.25,7.03-.13.16-.23.31-.36.46v47.48c1.91,0,81.96,0,83.87,0,0-.82,0-15.59,0-32.86"/>
    <path class="cls-1" d="M386.68,52.07v41.48s.53-1.01,1.76-2.59v-3.15h.02v-34.14h87.84s.01,46.85.01,46.85c.61-.94,1.18-1.91,1.69-2.94v-45.51h-91.32ZM390.45,55.76c0,.83-.07,15.73-.07,32.94,2.17-2.32,5.43-5.22,10.17-8.12l1.1-.64v-12.04c3.83,0,57.55,0,61.38,0v24.86c-1.77,2.57-3.74,4.82-5.96,6.66-5.97,4.92-14.06,7.7-25.09,7.41-2.98-.08-4.98.06-5.18,1.53-.18,1.48,4.12,3.31,16.4,4.14-9.49,1.08-18.8.37-26.31-9.45-1.06-1.39-2.53-2.07-3.6-2.05-.26,0-.5.06-.7.15-.14.07-.25.14-.36.25,9.07,20.72,33.31,22.69,50.8,11.99v.05c.26-.18.55-.38.87-.6.92-.59,1.83-1.22,2.71-1.88,2.86-2.16,5.45-4.72,7.7-7.61v-47.6c-1.9,0-81.96,0-83.87,0"/>
  </g>
  <g>
    <path class="cls-1" d="M52.56,84.94c-.24,0-.77.06-1.12,0-.36-.06-.77-.18-1.01-.36-1.18-.78-3.68-2.32-4.38-3.22-.24-.24-.35-.72-.35-.96,0-1.55,5.38-2.63,5.86-2.63.3,0,1.59.18,2.13.42,1.07.42,2.48,1.49,3.37,1.96l.12-.54c-.53-1.55-1.72-3.99-3.79-5.01-.29-.18-.83-.3-1.13-.3-.23,0-1.66.24-2.13.42-2.37.72-4.92,3.16-6.16,5.19-.41.72-.82,1.43-1.12,2.08-.07.18,0,.48,0,.71,0,.3-.07.54,0,.72.23.53.47,1.55.82,1.55h-5.45c-2.26-3.51-1.66-9.24-3.49-13.35-.59,1.2-1.37,2.56-1.96,3.76l1.89,7.32c-.06.54-.53,2.03-1.47,2.27-1.54.36-3.32.53-4.51.66-.35,0-.77.06-1,.06-.3,0-2.13-.12-3.14-.36-.29-.12-.47-.36-.53-.48-.65-.71.12-2.27-.72-2.62-.58,1.67-1.29,4.88-1.29,5.18s.24.78.35,1.13c.13.12.36.24.47.36.83.24,2.49.35,2.73.35.3,0,3.38-.17,5.03-.35.94-.13,2.61-.42,2.9-.66.95-.77,1.3-2.21,1.96-3.16.59.83.76,2.32,1.89,2.92.23.17.68.37.89.4h0s.06.01.06.01h21.26l1.66-3.46h-2.67l-5.98-.06Z"/>
    <path class="cls-1" d="M85.43,69.15l3.97,2.26c.46-.95.94-2.02,1.54-2.98l-3.86-2.38-1.18,2.27-4.15-2.63c-.65,1.08-1.3,2.2-1.71,3.16,1.41.83,2.89,1.61,4.19,2.32.36-.71.84-1.49,1.19-2.02Z"/>
    <path class="cls-1" d="M98.11,70.69l3.67,2.15c.64-.96,1.23-1.97,1.71-2.86-1.3-.71-2.78-1.56-4.08-2.27-.36.6-.83,1.31-1.19,1.91-1.3-.72-2.9-1.73-3.79-2.14-.65.95-1.12,1.97-1.6,2.92l3.96,2.33c.38-.72.85-1.43,1.32-2.03Z"/>
    <path class="cls-1" d="M124.64,70.56l1.97-3.89c-.97-.5-1.96-1.04-2.98-1.62-.27-.16-.4-.34-.4-.54,0-.13.06-.32.18-.57.12-.26.18-.45.18-.57,0-.16-.1-.26-.3-.33-.16-.14-.41.09-.75.7l-1.78,3.12c-.16.28-.23.55-.23.82,0,.39.22.73.66,1.01l.23.09c1.34,7.96,2.01,13.1,2.01,15.41,0,.55-.05.82-.14.82h-8.9l-1.69-22.61-2.93,3.54,2.44,19.07h-7.4s-.71,0-.71,0c-.42,0-.83-.12-1.08-.48l.96-6.26v-1.61c-1.13,1.07-2.32,2.32-3.14,3.57-.12.24-.18.54-.18.78v3.99h-7.7s-2.97,0-2.97,0c.71-1.07,2.01-3.16,2.01-4.41,0-.24-.7-4.77-2.35-4.77-2.73,0-7.59,4.29-8.95,6.73-.41.72-.23,1.61-.41,2.45h-6.25c-1.29,0-3.17-.15-3.46-1.73-1.42-9.42-1.25-13.35-2.24-23.48-.79.89-1.79,2.02-2.43,3.1-.12.24-.05.48-.05.77l1.95,24.8h5.99s18.01,0,18.01,0h7.17c.47-.71.94-1.43,1.42-2.03.35.48.47,1.01.7,1.32.25.36.83.71,1.07.71h2.67s5.52,0,5.52,0c.48,0,.89-.2,1.22-.59.06-.06.33-.49.8-1.29l.3,1.87h11.17c.33,0,.66-.9,1.01-2.69.31-1.69.47-2.97.47-3.84l-1.15-11.5c.12.03.29.08.49.14ZM86.55,84.88c-.24,0-1.07-.18-1.47-.23-.78-.18-2.2-1.79-2.2-2.38,0-1.32,2.79-2.27,3.02-2.33.24-.06.48-.06.77-.06,1.9,0,2.73,2.03,2.73,3.22s-2.26,1.79-2.85,1.79Z"/>
  </g>
  <g>
    <path class="cls-1" d="M280.78,87.98c-.12.59-.36,1.43-.6,2.08-1.41,3.82-6.28,6.08-9.47,6.56-1.07.17-3.32.24-3.68.24-3.67,0-8.05-.96-8.05-6.14,0-2.92,2.44-8.58,3.49-9.36.25.06.37.36.37.65,0,1.55-1.67,2.74-1.67,6.14,0,4.65,3.14,4.89,6.4,4.89.24,0,1.36,0,1.96-.06,1.12-.11,2.48-.35,3.67-.65,1.25-.36,4.27-1.19,5.74-2.92,0-.12.12-.36.18-.47.18-.54.18-1.67.18-1.97,0-.24.05-.83-.07-1.37-.11-.71-.35-1.37-.59-2.09-.6,1.02-1.53,2.27-2.71,2.74-.43.12-1.66.24-1.97.24-2.9,0-3.31-1.91-3.31-4.05,0-2.5,3.08-7.87,5.4-7.87.22,0,.88.18,1.25.42,1.48,1.01,2.01,2.86,2.54,3.99.29.66.53,1.55.71,2.32.12.42.36,1.38.36,1.91.06.48.06,1.67.06,1.96s.06,1.97-.18,2.8M277.46,70.75l-3.67-2.14c-.42.36-.83,1.19-1.3,1.91l-4.21-2.32c.47-.96,1.12-2.15,1.84-3.22l4.02,2.68c.47-.78.76-1.44,1.18-2.21,1.07.6,2.43,1.49,3.73,2.32l-1.6,2.98ZM275.2,78.39c-.94,0-2.9,1.49-2.9,2.74s2.14,1.55,2.85,1.55c.24,0,.65,0,.89-.06.11-.06.22-.06.35-.12.41-.24,1.36-.89,1.36-1.13,0-.36-1.67-2.98-2.55-2.98"/>
    <path class="cls-1" d="M296.47,85c-.12.95-.18,2.68-.65,4.23-1.13,3.64-4.03,8.88-8.06,8.88-.24,0-.82,0-1.65-.12,0,0-5.99-1.2-7.12-2.09.06-.24.36-.54.6-.54.29,0,4.14.84,4.45.84,1.11,0,2.9-.9,3.9-1.49,3.79-2.57,7.1-5.42,7.1-8.76,0-.23-.12-1.01-.12-1.48-.11,0-.05-.13-.18-.24-1.06,2.21-2.07,3.22-4.03,3.22-2.72,0-3.43-2.98-3.43-4.59,0-1.85,3.37-7.8,5.26-7.8,1.07,0,2.66,2.74,2.91,3.39.18.48.59,1.37.71,2.03.18,1.07.42,2.92.42,3.22s-.06.84-.12,1.31M291.43,79.22c-.82,0-2.6,1.85-2.6,2.63,0,1.37,2.25,1.78,3.02,1.78.83,0,1.25-.05,2.08-.71-.07-.42-.83-3.69-2.5-3.69"/>
    <path class="cls-1" d="M316.84,88.46c-.18,0-.71-.24-.95-.42-1.12-.6-1.3-2.09-1.89-2.92-.65.95-1.01,2.38-1.97,3.16-.29.24-1.95.53-2.9.66-1.65.18-4.73.35-5.02.35-.25,0-1.91-.11-2.74-.35-.12-.13-.36-.24-.48-.36-.11-.35-.35-.83-.35-1.13s.71-3.51,1.3-5.18c.84.35.07,1.91.71,2.62.06.12.24.36.53.48,1.02.24,2.84.36,3.14.36.24,0,.65-.06,1.01-.06,1.18-.12,2.96-.3,4.5-.66.95-.24,1.42-1.73,1.48-2.27l-1.9-7.32c.59-1.2,1.36-2.56,1.96-3.76,1.83,4.11,1.23,9.84,3.49,13.35h1.89v3.46h-1.83Z"/>
    <path class="cls-1" d="M329.99,88.46c-.7,0-1.48-1.49-1.89-2.03-.47.65-.78,1.37-1.07,2.03h-9.65v-3.46c2.37-.12,10.36,0,9.18,0,1.12-1.49.83-4.65,1.24-5.96.17-.77,2.48-2.92,3.67-3.75v1.73l-1.59,6.32c0,1.31,1.12,1.61,2.14,1.67h.82v3.46h-2.85ZM329.69,70.16c-1.6-.77-3.14-1.67-4.62-2.62l1.77-3.35,4.68,2.45c-.54,1.13-1.25,2.45-1.84,3.52"/>
    <path class="cls-1" d="M345.22,85v3.46c.12,0,.23-.05.47-.05-1.66,0-3.5.05-5.27.05-.24-.41-.59-.83-.83-1.19-.47.48-1.24,1.19-1.59,1.19h-6.75v-3.46h7.4c1.84,0,1.13-3.39,1.31-3.58.94-1.01,2.19-2.32,3.2-3.28-.18,1.31-.07,4.71-1.43,6.38.12.23.48.47.89.47,1,0,2.55-.12,3.67.07l-1.05-.07Z"/>
    <path class="cls-1" d="M366.53,84.53c-.53.89-1.06,2.03-1.66,3.09-.24.3-.95.84-1.24.84h-20.2v-3.46h1.95c.83,0,1.67-.65,2.07-.83.65-.3,1.9-1.07,2.49-1.43,2.91-1.85,6.63-5.13,9.19-5.9.47-.18,1.59-.42,1.83-.42,2.07,0,6.28,3.46,6.28,6.02,0,.24-.35,1.36-.72,2.09M360.2,80.3c-.36,0-.89-.18-1.19-.18s-1.54.12-2.13.42c-2.37,1.01-5.52,4-7.17,4.47h13.33c.29,0,1.06-.24,1.36-.47.24-1.38-2.96-4.23-4.2-4.23"/>
  </g>
  <g>
    <path class="cls-1" d="M152.88,103.66l-3.68-2.27c-.65.96-1.3,2.09-1.6,2.81,1.3.71,2.67,1.48,3.85,2.08.42-.71.65-1.37,1.06-1.78,1.19.71,2.49,1.49,3.44,1.9.36-.71,1.36-2.02,1.36-2.33v-.42l-3.38-1.91c-.36.6-.76,1.38-1.06,1.91Z"/>
    <path class="cls-1" d="M170.47,96.38c1.47.9,3.14,1.73,4.68,2.51l1.82-3.39-4.67-2.39c-.65,1.02-1.36,2.27-1.83,3.28Z"/>
    <path class="cls-1" d="M205.24,82.38c0-2.45-4.27-5.96-6.4-5.96-2.85,0-6.82,3.82-8.89,5.25-1.07.66-2.19,1.49-3.08,1.91.36-2.15.77-3.46.77-6.85,0-.3-.36-4.77-.36-7.16.12,0,.24.12.24.12l2.14-4.23c-1.07-.48-2.85-1.31-3.45-2.03-.35-.53.71-1.43-.18-1.97-.46.54-2.77,4.11-2.77,4.83,0,.3.11.6.18.66.23.48.89.83.94,1.2.42,3.04.54,6.49.77,9.18.12.83.24,1.9.24,2.62.12,1.07.35,2.86.35,3.1,0,1.08-1.48,1.97-2.19,1.97h-4.15c-.3,0-.59-.42-.83-.54-.3-.18-.47-.54-.47-.78v-3.51c0-.36-.11-1.43-.18-2.09-.06-.48-.12-1.25-.35-1.73-1.55,1.19-1.96,2.5-2.5,3.51-.11.24-.17.48-.17.77s.41,2.68.53,4.35h-9.12s-3.02,0-3.02,0h-7.52c-.7,1.43-1.3,2.62-1.89,3.58,1.89.96,7.27-.66,7.46,3.4-.6.48-2.19,1.26-3.14,1.61-1.78.66-3.56.89-5.33,1.01-.78.06-2.26.17-2.5.17-2.36,0-6.93-.53-6.93-5.01,0-2.2,2.73-6.79,2.67-7.33v-.54c-.12,0-.29-.12-.29-.12-2.08,1.91-4.33,7.09-4.33,10.55,0,4.59,3.67,6.32,7.4,6.32.3,0,3.32-.3,4.67-.65,2.61-.66,5.28-1.61,7.17-2.74.25-.18.36-.54.48-.72,1.66-2.08,2.36-4.11,3.55-6.08h.17s9.19,0,9.19,0c.47-.66,1.01-1.5,1.48-2.03.24.77.36,1.37.72,2.03h3.55s22.27,0,22.27,0c1.24,0,3.09-5.67,3.09-6.08ZM188.7,84.88c2.36-1.25,5.33-4.77,8.23-4.77,1.61,0,5.69,2.44,5.69,3.88,0,.42-.95.89-1.3.89h-12.62Z"/>
    <path class="cls-1" d="M198.89,69.98l-3.97-2.44c-.59,1.01-1.12,2.03-1.6,2.98,1.3.71,2.73,1.61,3.91,2.21l1.66-2.75Z"/>
    <path class="cls-1" d="M228.62,78.86c0,.3,2.26,4.05,2.26,5.79,0,.3.06.35-.06.35h-9.03c-.58,0-1.22-.25-1.28-.83-.18-1.85-.65-4.59-1.6-6.26-.36-.66-.95-1.37-1.6-1.84-.35-.31-.76-.36-1.06-.36-.37,0-.6.12-.66.18-.66.36-1.65,1.31-2.02,1.9-.6.84-1.25,2.09-1.54,2.81-.35.83-.6,1.79-.77,2.68-.06.42-.06.78-.06,1.07s.06,1.44.29,1.91c1.48,2.74,4.79,1.79,7.23,2.21-1.19,3.16-5.34,6.97-8.24,8.04-.83.3-1.89.42-2.13.42-.35,0-.64,0-.89-.06-1-.18-2.49-.65-3.49-.95-.24-.06-.65-.17-.94-.17s-.42.3-.54.48c.89.95,2.79,1.55,3.85,1.73,2.14.42,5.09,1.25,5.39,1.25s1.19-.12,1.6-.3c.67-.3,1.6-.78,2.07-1.13,2.73-2.32,4.03-5.66,4.74-8.17.12-.36.07-.71.3-1.13h.59s10.9,0,10.9,0c.48-1.9,1.07-5.36,1.07-5.66,0-1.91-1.54-6.32-2.66-7.45-.6,1.2-1.73,3.22-1.73,3.52ZM217.12,84.53c-.23,0-.64.06-.99-.06-.84-.12-1.78-.36-2.43-.78-.42-.18-.95-.66-.95-.95,0-.95,2.13-2.74,2.31-2.74q.18-.06.47-.06c.3,0,.35,0,.47.06.25.06.66.3,1.01.65.83.89,1.42,2.62,1.42,3.58-.36.24-1.02.3-1.32.3Z"/>
    <path class="cls-1" d="M224.12,95.61l3.85,2.44c.65-1.07,1.31-2.09,1.72-2.98-1.3-.71-2.67-1.61-3.97-2.2-.48.83-1.01,1.73-1.6,2.74Z"/>
    <path class="cls-1" d="M238.28,55.44c-.42-.06-.72-.24-1.07-.54v-.18c0-1.01,1.96-1.43,2.61-1.43.3,0,.65.06,1,.3.24.12.54.42.65.42.24-.48.54-1.2.54-1.67-.12-.12-.3-.3-.42-.36-.23-.18-.83-.18-1.13-.18-1.96,0-4.62,1.97-4.62,4.17,0,.29.12.54.18.6.53.65,2.12.65,2.9.95-.95.6-2.68,1.85-2.68,2.08v.42c2.08-1.2,4.92-2.57,6.82-2.51.35-.42.77-1.01,1-1.49-1.95-.12-3.97-.24-5.8-.59Z"/>
    <path class="cls-1" d="M239.11,66.29l2.19,22.17c1.01-2.03,1.72-4.47,1.72-6.14l-1.24-21.81c-.77,1.25-2.66,4.05-2.66,5.78Z"/>
  </g>
  <path class="cls-1" d="M39.84,137.69c-1.18-1.49-2.06-3.93-2.06-3.93-.87-2.62-1.91-5.64-1.91-5.64h-8.35s-1.05,3.09-1.81,5.46c0,0-.93,2.29-.83,4.14h-2.88c.1-1.82,1.02-4.14,1.02-4.14l5.56-16.08s.9-2.83.65-3.81h3.66c1.88.94,3.17,4.65,3.17,4.65l5.17,15.35s1.01,2.55,2.39,4.04l-3.77-.03ZM32.73,118.78s-.8-2.22-1.66-3.05c.14,1.46-.69,3.89-.69,3.89-.68,2.01-1.44,4.29-2.17,6.44h6.98c-1.15-3.46-2.31-6.84-2.46-7.28"/>
  <path class="cls-1" d="M52.2,137.95c-2.28,0-5.42-1.06-6.29-3.34v-2.66c0-13.09-.04-14.76-.04-14.76,0,0,0-2.76-.83-3.53h3.18c.76,1.09.76,3.96.76,3.96v4.51c1.84-2.04,3.83-1.89,3.83-1.89,4.92,0,7.37,3.64,7.37,8.81,0,5.74-3.65,8.91-7.98,8.91M52.78,121.54s-2.53,0-3.79,1.97v10.4c.87,2.61,3.68,2.61,3.68,2.61,2.46,0,4.19-3.01,4.19-8.15,0-3.19-.97-6.84-4.08-6.84"/>
  <path class="cls-1" d="M74.66,137.72s-.54-.65-.65-1.74c-1.88,1.96-4.3,1.96-4.3,1.96-4.19,0-5.93-2.04-5.93-4.81l-.04-12.8h3.11l.04,12.73c0,1.31.43,3.24,3.36,3.24,1.98,0,2.96-.84,3.72-1.46l-.04-14.51h3.18v13.78s0,2.44,1.08,3.6h-3.54Z"/>
  <path class="cls-1" d="M93.87,137.73h-5.45c-.9-.5-.9-3.56-.9-3.56v-16.55s0-2.29-1.05-3.85c0,0,2.42,0,7.51-.04,5.93,0,10.63,4.44,10.63,12,0,6.61-4.8,12-10.74,12M92.97,115.76h-2.71c.51.99.51,2.12.51,2.12v15.71s0,1.12.43,1.93h3.07c3.47-.04,6.83-4.76,6.83-10s-2.78-9.75-8.13-9.75"/>
  <path class="cls-1" d="M120.02,137.72c-.69-.76-.69-3.45-.69-3.45v-9.17c0-2.61-1.48-3.09-3.35-3.09,0,0-2.1,0-3.55,2.14v10.08l.03.04s0,2.29,1.16,3.45h-3.65c-.69-.58-.69-3.42-.69-3.42v-17.06s0-2.72-.9-3.49h3.18c.87,1.09.87,3.93.87,3.93v4.87c.98-1.24,2.35-2.33,4.99-2.33,2.17,0,5.09,1.17,5.09,4.77v9.28s0,2.25,1.04,3.45h-3.53Z"/>
  <path class="cls-1" d="M136.25,137.73c-.62-.87-.62-2.03-.62-2.03-.51,1.01-2.81,2.18-4.87,2.18s-3.8-.76-4.3-3.27c-1.27-6.41,7.73-6.91,8.81-8.77,1.27-2.14-.14-4.73-2.42-4.44,0,0-2.71.32-3.79,2.8v-2.8c1.62-1.28,4.26-1.28,4.26-1.28,2.71,0,5.31,2.08,5.31,4.4v9.75s0,2.29,1.12,3.45h-3.5ZM135.53,127.11c-1.7,1.42-6.14,1.7-6.14,6.48,0,1.09,1,2.58,2.42,2.58,1.85,0,2.64-.58,3.72-1.39v-7.67Z"/>
  <path class="cls-1" d="M149.25,137.95c-2.28,0-5.42-1.06-6.29-3.34v-2.66c0-13.09-.04-14.76-.04-14.76,0,0,0-2.76-.83-3.53h3.18c.76,1.09.76,3.96.76,3.96v4.51c1.85-2.04,3.84-1.89,3.84-1.89,4.9,0,7.37,3.64,7.37,8.81,0,5.74-3.64,8.91-7.98,8.91M149.83,121.54s-2.54,0-3.8,1.97v10.4c.87,2.61,3.69,2.61,3.69,2.61,2.45,0,4.19-3.01,4.19-8.15,0-3.19-.98-6.84-4.09-6.84"/>
  <path class="cls-1" d="M163.17,117.36c-1.09,0-1.95-.88-1.95-1.93s.87-1.93,1.95-1.93,1.95.87,1.95,1.93-.9,1.93-1.95,1.93M162.35,137.72c-.73-.87-.73-3.45-.73-3.45v-13.93h3.15v13.89s0,2.29,1.08,3.49h-3.5Z"/>
  <path class="cls-1" d="M187.42,128.35h-4.16v4.9s0,2.91,1.55,4.48h-3.94c-.87-1.02-.87-4.07-.87-4.07l.07-14.98s0-3.75-1.08-4.95h7.56c4.44,0,8.49,2.03,8.49,7.02s-4.16,7.61-7.62,7.61M185.91,115.76h-3.12c.22.18.48,1.86.48,3.17v7.52h3.15c2.63,0,5.06-1.81,5.06-5.52,0-2.44-1.77-5.17-5.56-5.17"/>
  <path class="cls-1" d="M209.34,136.63c-1.37,1.31-4.84,1.31-4.84,1.31-4.44,0-7.49-3.6-7.49-8.51s2.46-9.27,7.15-9.27c4.56-.04,7.05,3.78,3.73,7.38-2.35,2.55-5.56,3.02-7.38,4.88,1.3,4.69,5.72,5.71,8.82,1.56v2.66ZM204.14,121.5c-2.47,0-3.98,3.46-3.98,7.97,0,.58.03,1.12.1,1.68,1.82-1.68,4.88-2.33,5.86-4.73,1.12-2.73-.29-4.92-1.99-4.92"/>
  <path class="cls-1" d="M224.7,137.72c-.79-.58-.79-3.45-.79-3.45v-8.95c0-1.3-.33-3.16-3.07-3.16-2.31,0-3.62,1.96-3.98,2.91v9.16c0,2.22.98,3.45,1.09,3.49h-3.51c-.68-.69-.68-3.45-.68-3.45v-13.93h3.04v3.27c1.3-3.42,5.09-3.42,5.09-3.42,1.7,0,4.45.87,4.96,3.49.17.91.17,1.38.17,2.11,0,0,0,.69.03,8.44,0,0,0,2.26,1.05,3.49h-3.4Z"/>
  <path class="cls-1" d="M236.06,137.95s-2.64,0-4.33-1.28v-2.8c1.01,2.44,3.68,2.44,3.68,2.44,2.32,0,3.55-1.5,3.55-2.99,0-1.38-1.63-2.64-3.8-4.18-2.39-1.67-3.51-3.05-3.51-5.31s2.45-3.67,5.21-3.67c0,0,2.6,0,4.33,1.23v2.8c-1.48-2.73-3.72-2.73-3.72-2.73-3.26,0-4.09,2.77-.83,4.77,3.72,2.32,5.6,3.89,5.6,6.25,0,3.75-3.07,5.46-6.18,5.46"/>
  <path class="cls-1" d="M247.87,117.36c-1.08,0-1.95-.88-1.95-1.93s.87-1.93,1.95-1.93,1.95.87,1.95,1.93-.9,1.93-1.95,1.93M247.04,137.72c-.73-.87-.73-3.45-.73-3.45v-13.93h3.14v13.89s0,2.29,1.09,3.49h-3.5Z"/>
  <path class="cls-1" d="M261.59,137.95c-4.3,0-7.81-2.95-7.81-8.88,0-4.91,3.5-8.87,7.81-8.87s7.8,3.24,7.8,8.87c0,4.88-3.5,8.88-7.8,8.88M261.48,121.58c-1.84,0-4.26,2.08-4.26,7.27,0,4.9,2.13,7.74,4.26,7.74s4.42-2.91,4.42-7.74c0-5.09-2.53-7.27-4.42-7.27"/>
  <path class="cls-1" d="M284.42,137.72c-.8-.58-.8-3.45-.8-3.45v-8.95c0-1.3-.32-3.16-3.07-3.16-2.31,0-3.61,1.96-3.98,2.91v9.16c0,2.22.98,3.45,1.09,3.49h-3.51c-.68-.69-.68-3.45-.68-3.45v-13.93h3.03v3.27c1.3-3.42,5.09-3.42,5.09-3.42,1.7,0,4.46.87,4.96,3.49.18.91.18,1.38.18,2.11,0,0,0,.69.04,8.44,0,0,0,2.26,1.05,3.49h-3.4Z"/>
  <path class="cls-1" d="M314.85,116.86c-.43-3.09-5.99-3.09-5.99-3.09h-9.4c1.08,1.01,1.08,4.91,1.08,4.91v15.64s0,2.73.87,3.42h3.87c-1.48-1.2-1.48-4.73-1.48-4.73v-8.62h3.14c1.41,0,3.07.03,4.84.55-1.22-2.51-4.84-2.51-4.84-2.51h-3.14v-3.75c0-2.04-.54-2.92-.54-2.92h3.79c2.9,0,5.86-.07,7.81,1.1ZM330.85,120.34h-3.18l.04,14.51c-.76.62-1.74,1.46-3.72,1.46-2.93,0-3.37-1.93-3.37-3.24l-.03-12.73h-3.1l.03,12.8c0,2.77,1.73,4.81,5.92,4.81,0,0,2.42,0,4.3-1.96.11,1.09.65,1.74.65,1.74h3.54c-1.09-1.16-1.09-3.6-1.09-3.6v-13.78ZM348.72,125.8c0-.73,0-1.2-.18-2.11-.5-2.62-3.26-3.49-4.95-3.49,0,0-3.8,0-5.09,3.42v-3.27h-3.04v13.93s0,2.76.68,3.45h3.51c-.11-.04-1.09-1.27-1.09-3.49v-9.16c.36-.95,1.67-2.91,3.98-2.91,2.74,0,3.07,1.86,3.07,3.16v8.95s0,2.87.79,3.45h3.4c-1.04-1.23-1.04-3.49-1.04-3.49-.04-7.74-.04-8.44-.04-8.44ZM366.31,113.69h-3.12c.91,1.05.91,3.24.91,3.24v4.54c-1.26-1.31-3.94-1.31-3.94-1.31-4.01,0-7.23,3.63-7.23,9.5,0,4.29,3.04,8.29,7.38,8.29,0,0,5.02,0,6.9-3.57v-17.02s0-2.7-.9-3.67ZM364.07,135.54c-1.3.91-2.38.91-2.38.91-3.15,0-5.71-3.02-5.46-7.79.21-4.32,1.81-7.23,4.26-7.23,0,0,2.64,0,3.61,2.66-.03,10.14-.03,11.45-.03,11.45Z"/>
</svg>