<?xml version="1.0" encoding="UTF-8"?>
<svg id="Layer_1" data-name="Layer 1" xmlns="http://www.w3.org/2000/svg" viewBox="0 0 500 300">
  <defs>
    <style>
      .cls-1 {
        fill: #b56829;
        stroke-width: 0px;
      }
    </style>
  </defs>
  <g>
    <path class="cls-1" d="M91.37,212.75c5.19.88,9.3,3.36,9.3,8.5,0,3.56-2.03,6.47-5.14,8.17-2.76,1.53-5.6,2.1-9.36,2.1h-13.4v-1.57c4.44-.42,4.74-.87,4.74-5.11v-21.12c0-4.42-.52-4.81-4.73-5.17v-1.57h14.33c4,0,6.51.66,8.28,1.86,1.88,1.28,3.16,3.25,3.16,5.94,0,4.89-4.1,7.24-7.17,7.98ZM85.14,212.1c5.7,0,8-2.31,8-6.59,0-3.88-2.42-6.55-7.13-6.55-1.45,0-2.38.16-2.89.51-.45.33-.58.89-.58,2.49v10.14h2.6ZM82.55,224.72c0,3.83,1.06,4.82,4.67,4.81,3.93,0,7.76-2.3,7.76-7.76s-3.61-7.73-10-7.73h-2.43v10.69Z"/>
    <path class="cls-1" d="M124.6,231.51v-1.57c3.44-.43,3.78-.98,3.04-3.04-.66-1.99-1.69-4.6-2.75-7.72h-11.28c-.8,2.26-1.59,4.32-2.3,6.4-1.16,3.44-.32,3.86,4.01,4.36v1.57h-12.43v-1.57c3.35-.42,4.2-.82,6.05-5.54l11.01-27.83,1.85-.35c3.36,9.12,7.02,19.06,10.38,28.2,1.75,4.68,2.23,5.1,5.94,5.52v1.57h-13.54ZM119.4,203.71c-1.67,4.44-3.42,9.05-4.97,13.19h9.67l-4.7-13.19Z"/>
    <path class="cls-1" d="M172.12,231.92c-.62,0-1.22-.04-1.9-.1-4.4-.28-6.45-1.36-8.65-4.47-2-2.75-3.84-6.08-5.56-8.88-1.02-1.65-1.72-1.97-4.25-1.97h-1.72s0,8.23,0,8.23c0,4.48.58,4.76,4.78,5.2v1.57h-14.57v-1.57c4.34-.47,4.74-.72,4.74-5.2v-21.06c0-4.46-.58-4.7-4.74-5.15v-1.57h13.89c4.03,0,6.66.49,8.71,1.85,2.17,1.39,3.61,3.77,3.61,7.03,0,4.6-2.96,7.4-6.82,9.05.93,1.64,3.17,5.18,4.77,7.58,1.95,2.84,2.99,4.18,4.17,5.48,1.4,1.51,2.5,2.07,3.78,2.43l-.24,1.55ZM152.4,214.63c2.68,0,4.43-.42,5.73-1.51,2.02-1.53,2.85-3.64,2.85-6.48,0-5.68-3.68-7.74-7.57-7.74-1.52,0-2.39.21-2.75.53-.46.36-.61.91-.61,2.24v12.96h2.35Z"/>
    <path class="cls-1" d="M174.22,196.96h14.54v1.57c-4.09.39-4.81.75-4.81,5.43v9.1c1.07-.14,2.31-.99,3.89-2.51,3.09-2.95,6.43-6.43,8.72-9.06,1.54-1.78,1.35-2.49-.97-2.81l-1.4-.15v-1.57h13.1v1.57c-3.93.48-5.42.75-8.94,4.4-1.68,1.66-5.55,5.45-8.76,8.65,3.91,4.77,9.5,11.37,12.5,14.69,2.58,2.86,3.27,3.27,6.46,3.65v1.57h-8.88c-3.76-4.34-8.13-9.72-12.77-15.31-1.2-1.51-2.1-1.65-2.95-1.58v9.98c0,4.61.46,4.94,4.81,5.34v1.57h-14.55v-1.57c4.29-.38,4.74-.73,4.74-5.34v-20.63c0-4.73-.4-5.1-4.74-5.43v-1.57Z"/>
    <path class="cls-1" d="M227.34,196.22c9.22,0,17.34,7,17.34,17.56,0,11.41-7.82,18.53-17.64,18.53s-17.77-7.76-17.77-17.8c0-9.44,6.7-18.29,18.08-18.29ZM226.32,198.25c-5.86,0-11.02,5.05-11.02,14.9s5.09,17.08,12.57,17.08c6.18,0,10.86-4.8,10.86-14.97,0-11.05-5.58-17.01-12.4-17.01Z"/>
    <path class="cls-1" d="M268.58,196.22c9.22,0,17.34,7,17.34,17.56,0,11.41-7.82,18.53-17.64,18.53s-17.77-7.76-17.77-17.8c0-9.44,6.7-18.29,18.08-18.29ZM267.56,198.25c-5.86,0-11.02,5.05-11.02,14.9s5.09,17.08,12.57,17.08c6.18,0,10.86-4.8,10.86-14.97,0-11.05-5.58-17.01-12.4-17.01Z"/>
    <path class="cls-1" d="M338.99,210.48c-3.68.41-4.29,1.31-6.06,3.89-1.41,2-2.86,4.1-4.72,6.86,2.5,2.38,7.42,7.84,9.12,10.65l-.31.59c-3.35-.21-6.39-1.44-7.04-2.12-.65-.73-3.05-3.04-4.79-4.88-3.78,5-7.24,6.79-11.07,6.79-6.96,0-10.71-5.04-10.71-9.67.04-4.86,2.78-6.81,7.91-10.04-2.48-2.16-4.06-4.59-4.06-7.57.04-4.78,4.05-8.49,8.99-8.49,4.59,0,8.1,3.09,8.1,7.4-.04,2.12-1.07,3.72-2.3,4.69-1.07.83-2.61,1.8-4.52,2.93,1.71,1.44,5.84,4.92,9.3,8.3,1.17-1.82,2.23-3.51,3.19-5.77,1.03-2.43.66-3.15-3.22-3.56v-1.63h12.19v1.63ZM315.62,228.37c3.45,0,5.6-1.21,8.15-4.42-2.96-3.24-6.45-6.21-11.01-10.09-3.41,2.33-4.4,4.49-4.4,7.16,0,5.01,3.78,7.35,7.26,7.35ZM315.68,198.41c-2.57,0-4.18,2.06-4.18,5.08,0,2.7,1.34,4.33,4.6,6.92,2.76-1.99,4.02-3.67,4.02-6.47-.04-3.02-1.54-5.52-4.44-5.52Z"/>
    <path class="cls-1" d="M386.76,222.89c-.74,2.57-2.13,6.44-2.93,8.12-1.51.32-5.7,1.29-9.74,1.29-12.99,0-19.37-8.58-19.37-17.73,0-10.87,8.27-18.36,20.33-18.36,4.58,0,8.37.99,10.05,1.23.22,2.41.59,5.73,1.01,8.33l-1.73.37c-1.07-3.67-2.4-5.81-5.13-6.92-1.36-.62-3.49-.96-5.41-.96-8.58,0-13.07,6.47-13.07,15.17,0,10.16,5.26,16.75,13.63,16.75,5.25,0,7.96-2.47,10.7-7.88l1.67.58Z"/>
    <path class="cls-1" d="M409.9,196.22c9.22,0,17.34,7,17.34,17.56,0,11.41-7.82,18.53-17.65,18.53s-17.77-7.76-17.77-17.8c0-9.44,6.7-18.29,18.08-18.29ZM408.89,198.25c-5.86,0-11.02,5.05-11.02,14.9s5.09,17.08,12.57,17.08c6.18,0,10.86-4.8,10.86-14.97,0-11.05-5.58-17.01-12.4-17.01Z"/>
  </g>
  <g>
    <path class="cls-1" d="M148.68,267.02c1.92,0,3.45.35,4.54,1.13,1.09.79,1.81,2.04,1.81,3.81,0,3.87-3.31,5.45-5.89,5.45-.29,0-.57-.03-.73-.05l-1.78-.46v4.05c0,2.23.19,2.29,2.61,2.55v.79h-7.53v-.79c2.23-.24,2.37-.38,2.37-2.59v-10.47c0-2.34-.29-2.43-2.37-2.62v-.79h6.98ZM146.63,275.93c.32.16,1,.33,1.84.33,1.68,0,3.85-.87,3.85-4.25,0-2.93-1.86-4.07-4-4.07-.73,0-1.25.13-1.41.31-.21.18-.28.49-.28,1.15v6.52Z"/>
    <path class="cls-1" d="M171.18,280c-.15.7-.88,3.49-1.14,4.28h-13.06v-.78c2.46-.2,2.64-.42,2.64-2.6v-10.43c0-2.34-.3-2.48-2.26-2.66v-.79h8.22c2.55,0,3.57-.03,3.89-.05.03.63.14,2.66.24,4.11l-.84.13c-.24-.9-.54-1.56-.86-2.1-.43-.81-1-1-2.55-1h-2.38c-.86,0-.92.08-.92.87v5.81h2.89c1.9,0,2.06-.4,2.39-2.22h.86v5.55h-.86c-.36-1.92-.57-2.2-2.42-2.2h-2.86v5.16c0,1.85.49,2.09,1.87,2.11h2.36c1.6,0,1.89-.23,2.47-.92.53-.6,1.09-1.67,1.47-2.48l.83.22Z"/>
    <path class="cls-1" d="M187.03,271.26c-.25-.92-.61-1.82-.9-2.28-.43-.69-.69-.88-2.17-.88h-2.48v12.85c0,2.1.22,2.37,2.72,2.53v.79h-7.92v-.79c2.43-.16,2.65-.41,2.65-2.53v-12.85h-2.28c-1.46,0-1.89.17-2.35.94-.33.53-.57,1.22-.91,2.22h-.83c.16-1.68.33-3.42.4-4.87h.64c.4.63.7.62,1.45.62h10.54c.74,0,.98-.12,1.39-.62h.66c0,1.22.11,3.21.24,4.79l-.84.08Z"/>
    <path class="cls-1" d="M199.5,271.12c-.47-1.74-1.21-3.51-3.7-3.51-1.97,0-2.74,1.44-2.74,2.84,0,1.77,1.14,2.69,3.36,3.83,3.12,1.6,4.58,2.85,4.58,5.4,0,2.85-2.45,5-5.94,5-1.61,0-3.02-.45-4.13-.87-.2-.72-.55-2.7-.73-4.1l.86-.22c.53,1.76,1.76,4.18,4.49,4.18,1.86,0,3-1.27,3-2.99,0-1.95-1.06-2.79-3.38-4.05-2.79-1.51-4.39-2.79-4.39-5.32s2-4.67,5.59-4.67c1.55,0,3,.4,3.56.5.11.96.23,2.08.44,3.8l-.86.17Z"/>
    <path class="cls-1" d="M226.93,277.02c-1.62.22-1.75.37-1.75,1.98v2.2c0,.93.03,1.82.16,2.53-1.59.35-3.88.94-6.1.94-6.07,0-9.72-3.75-9.72-9.08,0-5.67,4.62-8.96,10-8.96,2.61,0,4.66.53,5.5.66.05,1.02.2,2.71.41,4.34l-.84.16c-.64-2.26-1.45-3.25-3.12-3.81-.61-.21-1.68-.34-2.43-.34-3.91,0-6.5,2.79-6.5,7.6,0,4.3,2.08,8.41,7.09,8.41.83,0,1.63-.17,2.16-.44.53-.3.85-.62.85-1.67v-2.21c0-1.92-.24-2.13-2.73-2.33v-.81h7.03v.81Z"/>
    <path class="cls-1" d="M244.9,284.48c-.31,0-.61-.02-.95-.05-2.2-.14-3.22-.68-4.33-2.23-1-1.37-1.92-3.04-2.78-4.43-.51-.83-.86-.99-2.12-.99h-.86s0,4.11,0,4.11c0,2.24.29,2.38,2.39,2.6v.79h-7.28v-.79c2.17-.23,2.37-.36,2.37-2.6v-10.52c0-2.23-.29-2.35-2.37-2.57v-.79h6.94c2.02,0,3.33.24,4.35.92,1.08.7,1.8,1.89,1.8,3.51,0,2.3-1.48,3.7-3.41,4.52.46.82,1.59,2.59,2.38,3.79.97,1.42,1.49,2.09,2.08,2.74.7.76,1.25,1.03,1.89,1.21l-.12.77ZM235.04,275.84c1.34,0,2.21-.21,2.87-.76,1.01-.77,1.42-1.82,1.42-3.24,0-2.84-1.84-3.87-3.78-3.87-.76,0-1.19.11-1.38.27-.23.18-.3.46-.3,1.12v6.48h1.17Z"/>
    <path class="cls-1" d="M254.86,266.64c4.61,0,8.66,3.5,8.66,8.77,0,5.7-3.91,9.26-8.82,9.26s-8.88-3.88-8.88-8.89c0-4.72,3.35-9.14,9.03-9.14ZM254.35,267.66c-2.93,0-5.51,2.53-5.51,7.44s2.54,8.54,6.28,8.54c3.09,0,5.43-2.4,5.43-7.48,0-5.52-2.79-8.5-6.2-8.5Z"/>
    <path class="cls-1" d="M275.48,266.64c4.61,0,8.66,3.5,8.66,8.77,0,5.7-3.91,9.26-8.82,9.26s-8.88-3.88-8.88-8.89c0-4.72,3.35-9.14,9.04-9.14ZM274.97,267.66c-2.93,0-5.51,2.53-5.51,7.44s2.54,8.54,6.28,8.54c3.09,0,5.42-2.4,5.42-7.48,0-5.52-2.79-8.5-6.2-8.5Z"/>
    <path class="cls-1" d="M301.3,284.28v-.79c2.15-.21,2.24-.38,2.22-3.14l.02-10.75c-2.13,4.81-5.38,11.95-6.49,14.67h-.72c-1.05-2.76-3.85-9.64-5.85-14.42-.43,9.12-.45,11.14-.45,11.73.03,1.48.67,1.72,2.51,1.9v.79h-6.35v-.79c1.54-.15,2.18-.47,2.39-1.93.15-1.1.19-2.16.87-11.68.1-1.36-.15-1.86-2.48-2.07v-.79h4.82l5.74,13.15,6.09-13.15h4.82v.79c-2.26.26-2.54.49-2.48,2.4l.13,10.16c.09,2.76.18,2.89,2.48,3.14v.79h-7.25Z"/>
    <path class="cls-1" d="M310.88,284.28v-.79c2.15-.23,2.37-.34,2.37-2.6v-10.47c0-2.27-.22-2.4-2.37-2.62v-.79h7.31v.79c-2.17.23-2.39.35-2.39,2.62v10.47c0,2.27.22,2.36,2.39,2.6v.79h-7.31Z"/>
    <path class="cls-1" d="M339.2,267.8c-1.68.19-2.23.47-2.31,1.69-.03.88-.09,1.96-.09,4.4v10.64h-1.1l-11.31-13.78v6.53c0,2.38.08,3.54.13,4.31.06,1.32.71,1.76,2.63,1.91v.79h-6.48v-.79c1.62-.13,2.26-.53,2.38-1.82.08-.87.14-2.02.14-4.42v-6.69c0-.77-.05-1.22-.54-1.83-.5-.66-1.07-.81-2.34-.94v-.79h4.2l11.06,13.07v-6.2c0-2.44-.05-3.54-.13-4.37-.08-1.19-.66-1.59-2.8-1.72v-.79h6.56v.79Z"/>
    <path class="cls-1" d="M358.63,277.02c-1.62.22-1.74.37-1.74,1.98v2.2c0,.93.03,1.82.16,2.53-1.6.35-3.88.94-6.1.94-6.07,0-9.72-3.75-9.72-9.08,0-5.67,4.62-8.96,10-8.96,2.61,0,4.66.53,5.5.66.05,1.02.2,2.71.41,4.34l-.84.16c-.64-2.26-1.45-3.25-3.11-3.81-.61-.21-1.68-.34-2.43-.34-3.91,0-6.5,2.79-6.5,7.6,0,4.3,2.08,8.41,7.09,8.41.84,0,1.63-.17,2.16-.44.53-.3.85-.62.85-1.67v-2.21c0-1.92-.24-2.13-2.73-2.33v-.81h7.03v.81Z"/>
  </g>
  <g>
    <g>
      <circle class="cls-1" cx="250.06" cy="249.59" r="5.6" transform="translate(-20.24 22.07) rotate(-4.86)"/>
      <path class="cls-1" d="M232.39,249.59c0,2.14,1.74,3.88,3.88,3.88s3.88-1.74,3.88-3.88-1.74-3.88-3.88-3.88-3.88,1.74-3.88,3.88Z"/>
      <path class="cls-1" d="M223.14,249.59c0,1.2.97,2.17,2.17,2.17s2.17-.97,2.17-2.17-.97-2.17-2.17-2.17-2.17.97-2.17,2.17Z"/>
      <path class="cls-1" d="M218.66,249.59c0-.85.28-1.63.75-2.26l-78.11,2.26,78.11,2.26c-.47-.63-.75-1.41-.75-2.26Z"/>
    </g>
    <g>
      <circle class="cls-1" cx="250.06" cy="249.59" r="5.6" transform="translate(-6.3 6.48) rotate(-1.47)"/>
      <path class="cls-1" d="M259.96,249.59c0,2.14,1.74,3.88,3.88,3.88s3.88-1.74,3.88-3.88-1.74-3.88-3.88-3.88-3.88,1.74-3.88,3.88Z"/>
      <path class="cls-1" d="M272.64,249.59c0,1.2.97,2.17,2.17,2.17s2.17-.97,2.17-2.17-.97-2.17-2.17-2.17-2.17.97-2.17,2.17Z"/>
      <path class="cls-1" d="M358.82,249.59l-78.11-2.26c.47.63.75,1.41.75,2.26s-.28,1.63-.75,2.26l78.11-2.26Z"/>
    </g>
  </g>
  <g>
    <path class="cls-1" d="M202.5,35.82c0-5.84-4.58-7.21-6.98-7.21v-1.15h48.09c34.24,0,36.19,46.6,5.84,50.95,19.12,5.27,32.98,19.93,32.98,40.31,0,58.63-96.76,59.77-96.76,6.64,0-13.05,5.73-25.54,16.83-32.29v-57.25ZM240.64,136.59h-.57c13.63-11.68,4.93-39.16-17.86-39.16-1.03,0-2.06,0-3.09.11v30.8c0,5.84,4.58,7.21,6.99,7.21v1.14l-30.58-.11v-1.14c2.4,0,6.98-1.37,6.98-7.21v-25.76c-8.7,4.92-14.66,13.51-14.66,24.85,0,39.39,76.27,54.73,76.27-6.99,0-18.89-9.96-41.57-31.95-41.57h-13.05v9.28c1.03-.11,2.06-.11,3.09-.11,31.84,0,38.59,37.79,18.44,48.66M236.75,76.7c21.3,0,20.61-47.18,0-47.18h-17.63v47.18h17.63Z"/>
    <path class="cls-1" d="M314.44,33.55c-1.59,6.58-6.8,11.66-16.09,9.09,8.39,5.37,6.52,25.05-10.6,25.05-10.94,0-20.34-7.69-20.34-17.12,0-8.46,7.2-13.78,16.49-15.33-18.25-4.74-11.9-19.93,1.92-19.93,7.48,0,9.35,4.35,9.18,5.42l-.17.1c-.12-1.98-3.52-4.45-7.71-4.45-9.52,0-11.79,14.41.05,18.67-7.99,2.66-11.5,9.38-11.5,16.35,0,10.45,6.63,15.38,13.27,15.38,16.37,0,17.23-24.86,3.9-24.86-4.31,0-7.65,3.48-7.99,6.77h-.4c.57-6.77,6.97-11.56,16.15-10.45,8.05.97,11.96.39,13.32-4.84l.51.15Z"/>
  </g>
</svg>