<?xml version="1.0" encoding="UTF-8"?>
<svg xmlns="http://www.w3.org/2000/svg" version="1.1" viewBox="0 0 500 300">
  <defs>
    <style>
      .cls-1 {
        fill: #1c9b8d;
      }

      .cls-2 {
        fill: #c98051;
      }
    </style>
  </defs>
  <!-- Generator: Adobe Illustrator 28.6.0, SVG Export Plug-In . SVG Version: 1.2.0 Build 709)  -->
  <g>
    <g id="Layer_1">
      <path class="cls-1" d="M67,215.9h8.9c3.4,0,7,1.6,7,5.7s-1.6,4.2-4,4.9h0c2.9.4,4.9,2.6,4.9,5.5,0,4.9-4.3,6.4-8.6,6.4h-8.2v-22.5ZM71.1,225.1h3.7c2.7,0,4.1-1.1,4.1-2.8s-1.3-2.9-4.4-2.9h-3.3v5.7ZM71.1,235h3.7c2.1,0,5-.3,5-3.3s-1.5-3.2-4.8-3.2h-3.9v6.5Z"/>
      <path class="cls-1" d="M101.8,215.3c7.1-.1,12.1,4.6,12.1,11.8s-5,11.7-12.1,11.9c-7,0-12-4.7-12-11.7s5-11.9,12-11.9M101.9,235.4c4.7,0,7.8-3.6,7.8-8.4s-3.1-8.1-7.8-8.1-7.8,3.6-7.8,8.1,3.1,8.4,7.8,8.4"/>
      <path class="cls-1" d="M139.3,230.1c0,5.4-4,8.8-9.2,8.8s-9.2-3.4-9.2-8.8v-14.3h4.1v14.1c0,2.2,1.2,5.2,5.1,5.2s5.1-2.9,5.1-5.2v-14.1h4.1v14.3Z"/>
      <polygon class="cls-1" points="152.1 219.5 145.2 219.5 145.2 215.9 163.2 215.9 163.2 219.5 156.2 219.5 156.2 238.4 152.1 238.4 152.1 219.5"/>
      <rect class="cls-1" x="169" y="215.9" width="4.1" height="22.5"/>
      <path class="cls-1" d="M205.7,238.4h-13.2c-7.1,0-12.4-4.4-12.4-11.7s5.5-11.4,12-11.4,12,4.7,12,11.4-2.6,7.2-4.8,8.4h0c0,0,6.5,0,6.5,0v3.2ZM184.3,226.8c0,4.6,3.2,8,7.7,8s7.7-3.4,7.7-8-3.2-7.8-7.8-7.8-7.6,3.3-7.6,7.8"/>
      <path class="cls-1" d="M230.1,230.1c0,5.4-4,8.8-9.2,8.8s-9.2-3.4-9.2-8.8v-14.3h4.1v14.1c0,2.2,1.2,5.2,5.1,5.2s5.1-2.9,5.1-5.2v-14.1h4.1v14.3Z"/>
      <polygon class="cls-1" points="238.3 215.9 253.4 215.9 253.4 219.5 242.4 219.5 242.4 225.1 252.8 225.1 252.8 228.7 242.4 228.7 242.4 234.8 254 234.8 254 238.4 238.3 238.4 238.3 215.9"/>
      <path class="cls-1" d="M289.8,233.1l4.9,5.3h-5l-2.4-2.6c-1.8,2.1-3.8,3.2-6.7,3.2s-7.7-2.3-7.7-6.6,2.2-5.3,4.9-6.3c-1.4-1.6-2.6-3-2.6-5.2,0-3.7,3.1-5.5,6.5-5.5s6.4,1.7,6.4,5.3-2.3,4.7-4.5,5.8l3.7,3.9,2.5-3.8h4.5l-4.6,6.5ZM280.3,228.3c-1.5.9-3.1,1.9-3.1,3.9s1.7,3.4,3.6,3.4,3-1.1,4.2-2.2l-4.7-5ZM279.1,221c0,1.2,1.2,2.4,2.2,3.3,1.3-.7,3.1-1.8,3.1-3.4s-1.1-2.1-2.5-2.1-2.7.9-2.7,2.3"/>
      <path class="cls-1" d="M329.3,221.2c-1.7-1.8-3.2-2.2-4.8-2.2-4.7,0-7.8,3.6-7.8,8s3.1,8.4,7.8,8.4,3.6-.8,5.1-2.7l3.3,2.4c-2.1,2.8-5.1,4-8.5,4-7,0-12-4.7-12-11.7s5-11.9,12-11.9,5.7,1,8,3.6l-3.2,2.3Z"/>
      <path class="cls-1" d="M346.3,215.9h3.5l9.8,22.5h-4.6l-2.1-5.2h-9.9l-2.1,5.2h-4.5l9.9-22.5ZM351.4,229.8l-3.5-9.2-3.6,9.2h7.1Z"/>
      <polygon class="cls-1" points="365.3 215.9 380 215.9 380 219.5 369.4 219.5 369.4 225.4 379.4 225.4 379.4 229.1 369.4 229.1 369.4 238.4 365.3 238.4 365.3 215.9"/>
      <polygon class="cls-1" points="386.7 215.9 401.8 215.9 401.8 219.5 390.8 219.5 390.8 225.1 401.2 225.1 401.2 228.7 390.8 228.7 390.8 234.8 402.4 234.8 402.4 238.4 386.7 238.4 386.7 215.9"/>
      <path class="cls-2" d="M84.7,121.7c8.9-4.8,14.1-13.2,14.1-23,0-15.2-12.5-27.6-27.8-27.6H31.9c-.6,0-2.1.3-2.1,3.2v111.2h-7.2c-.2,0-1.3,0-2,.8-.4.4-.6.9-.5,1.5,0,1.6,1.5,2.2,2.4,2.2h54.9c19.4,0,35.3-15.7,35.3-35s-11.6-29.9-28-33.2M53.6,75.5h17.4c12.9,0,23.5,10.4,23.5,23.3s-10.3,22.3-23.5,22.3h-17.4v-45.5ZM39.5,185.5h-5.5v-60.2h5.5v60.2ZM49.3,185.7h-4.5c-.2,0-.5-.1-.8-.1h-.3v-60.2h5.5v60.4ZM49.3,121.1h-15.3v-45.6h15.3v45.6ZM77.4,185.7h-23.7v-60.4h23.7c17.4,0,31,13,31,29.7s-13.9,30.7-31,30.7"/>
      <path class="cls-2" d="M267.1,70.9h-96c-1.2,0-2.1,1-2.1,2.1s1,2.1,2.1,2.1h36.3v110.7h-4.7c-.2,0-1.3,0-2,.8-.4.4-.5.9-.5,1.4,0,1.6,1.5,2.1,2.4,2.1h0s26,0,26,0c1.2,0,2.1-1,2.1-2.1v-112.8h36.3c1.2,0,2.1-1,2.1-2.1s-1-2.1-2.1-2.1M211.6,75.2h14.9v45.7h-14.9v-45.7ZM216.9,185.9h-5.3v-60.7h5.3v60.7ZM226.5,185.9h-5.3v-60.7h5.3v60.7Z"/>
      <path class="cls-2" d="M359.8,75c1.2,0,2.1-1,2.1-2.1s-1-2.1-2.1-2.1h-76.7c-1.2,0-2.1,1-2.1,2.1v112.8h-9.7c-.2,0-1.3,0-2,.8-.4.4-.5.9-.5,1.4,0,1.6,1.5,2.1,2.4,2.1h0s88.5,0,88.5,0c1.2,0,2.1-1,2.1-2.1s-1-2.1-2.1-2.1h-55.3v-60.5h36.2c1.2,0,2.1-1,2.1-2.1s-1-2.1-2.1-2.1h-36.2v-45.9h55.3ZM290.5,185.7h-5.3v-60.5h5.3v60.5ZM300.1,185.7h-5.3v-60.5h5.3v60.5ZM300.1,120.9h-14.9v-45.9h14.9v45.9Z"/>
      <path class="cls-2" d="M439.6,128.9h0c-.1-.2-.2-.4-.3-.5-4.5-5.4-11.5-9.6-18.4-13.7-7.8-4.6-15.9-9.4-18.9-15.7-2.7-5.7-1.1-13.4,3.9-18.5,4.3-4.4,10.2-5.5,16-2.9.2,0,.4.1.6.2,8.4,4.2,14,13.4,14,22.8s1,2.1,2.1,2.1,2.1-1,2.1-2.1c0-14.3-11.4-29.7-29.7-29.7s-22.6,5.7-27.4,18.1c-6.7,17.3,2,28.7,7.7,33.9,3.7,3.4,8.7,6.5,14,9.9,8.7,5.5,17.7,11.2,22.2,18.6,2.8,4.7,3.4,12.6,1.4,20.2-1.6,6-4.5,10.7-8.1,12.8-3.1,1-6.4,1.5-9.8,1.5-9.2,0-18-4-24.4-10.9-6-6.6-9.1-15.2-8.6-23.9h9.5c1.2,0,2.1-1,2.1-2.1s-1-2.1-2.1-2.1h-21.1c-.2,0-1.3,0-2,.8-.4.4-.5.9-.5,1.4,0,1.6,1.6,2.1,2.5,2.1h7.3c-.5,9.7,3,19.4,9.7,26.8,7.1,7.8,17.2,12.3,27.5,12.3s22.7-5.5,30.5-15.8c4.2-5.5,6.4-12.5,6.8-21.4.5-10.2-4.9-19-8.1-23.3-.2-.3-.4-.5-.6-.7M394.2,119.8c-4.9-4.5-12.4-14.3-6.6-29.2,3.1-8,10.1-12.5,16.6-14.4-.5.4-1,.9-1.5,1.4-6.1,6.3-8.1,16.1-4.7,23.3,3.5,7.5,12.2,12.6,20.6,17.6,1.4.8,2.8,1.6,4.1,2.4h-27.2c-.5-.4-1-.8-1.3-1.1M433.1,172.4c2.2-8.6,1.4-17.6-2-23.2-4.5-7.5-12.8-13.2-20.8-18.3l-3.8-2.4c-1.6-1-3.4-2.2-5.1-3.3h12.4c3.9,3,20,15.7,22,24.9,2.1,9.7.2,17-2.7,22.3M444,152.8h0c-.4,7.8-2.2,13.9-5.7,18.6,2.9-6.7,3.5-14.1,1.7-22.2-2.2-9.8-13.7-19.2-19.9-24h9.1c2.3,1.7,4.1,3.2,5.5,4.7l2,2.4c2.3,3.1,7.7,11.3,7.2,20.5"/>
      <path class="cls-2" d="M155.9,70.8h-19.1c-1.2,0-2.1,1.1-2.1,2.5v112.9h-7c-.2,0-1.3,0-2,.8-.4.4-.5.9-.5,1.4,0,1.6,1.5,2.1,2.4,2.1h0s28.3,0,28.3,0c1.2,0,2.1-1.1,2.1-2.5v-114.7c0-1.4-.9-2.5-2.1-2.5M153.7,185.5h-5.3v-62.7c0-1.4-.9-2.5-2.1-2.5s-2.1,1.1-2.1,2.5v62.7h-5.3v-109.7h14.8v109.7Z"/>
      <path class="cls-2" d="M483.2,172.5l-12.7-12.7c-1-1-2.8-1-3.8,0l-12.8,12.7c-1,1-1,2.7,0,3.8l12.7,12.7c.5.5,1.2.8,1.9.8s1.4-.3,1.9-.8l12.7-12.7c1-1,1-2.7,0-3.8M468.6,185.1l-10.7-10.7,10.7-10.7,10.7,10.7-10.7,10.7Z"/>
    </g>
  </g>
</svg>