<?xml version="1.0" encoding="UTF-8"?>
<svg id="Layer_1" data-name="Layer 1" xmlns="http://www.w3.org/2000/svg" viewBox="0 0 500 300">
  <defs>
    <style>
      .cls-1 {
        fill: #60b9b2;
      }

      .cls-1, .cls-2 {
        stroke-width: 0px;
      }

      .cls-2 {
        fill: #265f68;
      }
    </style>
  </defs>
  <g>
    <path class="cls-2" d="m330.36,135.05c0-16.32-7.67-30.81-19.52-39.94-1.81-21.96-19.85-39.21-41.86-39.21-1.82,0-3.61.12-5.36.34v-1.9c0-7.66-6.11-13.89-13.62-13.89s-13.62,6.23-13.62,13.89v3.03c-1.38-.14-2.77-.23-4.19-.23-20.69,0-37.78,15.72-40.42,36.09-13.33,8.95-22.13,24.33-22.13,41.81,0,23,15.22,42.36,35.95,48.21v-52.07h88.81v52.07c20.73-5.86,35.95-25.22,35.95-48.21"/>
    <path class="cls-2" d="m262.77,166.63l-3.78-3.71c6.7-7.16,17.74-7.48,24.63-.72l-3.62,3.87c-4.8-4.72-12.53-4.46-17.23.56"/>
    <path class="cls-2" d="m220.07,166.63l-3.78-3.71c6.7-7.16,17.74-7.48,24.63-.72l-3.62,3.87c-4.8-4.72-12.53-4.46-17.23.56"/>
    <path class="cls-1" d="m272.56,121.35c-10.64-3.66-12.27-15.02-12.27-15.02h-20.58s-1.62,11.36-12.27,15.02c-10.64,3.66-27.15,3.54-27.15,3.54v6.66c0,1.24.97,2.25,2.18,2.29,8.13.23,36.71,1,47.53,1s39.4-.77,47.52-1c1.22-.03,2.19-1.05,2.19-2.29v-6.66s-16.52.12-27.16-3.54"/>
    <path class="cls-2" d="m41.17,214.27l-5.87,6.6c-3.09-1.87-5.32-2.8-6.67-2.8-1.04,0-1.95.4-2.7,1.21-.76.81-1.14,1.77-1.14,2.89,0,2.21,1.96,4.12,5.87,5.74,2.87,1.26,5.04,2.39,6.51,3.4,1.46,1.01,2.69,2.42,3.68,4.22.99,1.8,1.49,3.75,1.49,5.84,0,3.85-1.52,7.2-4.55,10.05-3.04,2.85-6.62,4.27-10.76,4.27-4.54,0-9.01-2.19-13.44-6.56l6.21-7.41c2.78,2.94,5.38,4.41,7.8,4.41,1.14,0,2.23-.51,3.27-1.55,1.04-1.03,1.57-2.12,1.57-3.26,0-2.34-2.41-4.41-7.24-6.19-2.76-1.03-4.71-2-5.87-2.9-1.16-.9-2.13-2.21-2.92-3.93-.79-1.72-1.18-3.48-1.18-5.28,0-3.98,1.27-7.22,3.8-9.7,2.54-2.48,5.85-3.72,9.94-3.72,4.85,0,8.92,1.56,12.21,4.68"/>
    <path class="cls-2" d="m71.49,246.08l-4.61-5.61,6.2-4.13,4.26,5.11c1.72-1.95,2.58-4.82,2.58-8.59,0-4.34-1.12-7.8-3.34-10.39-2.22-2.58-5.18-3.87-8.87-3.87s-6.5,1.28-8.77,3.84c-2.27,2.56-3.4,5.87-3.4,9.91s1.09,7.5,3.26,10.16c2.17,2.65,4.93,3.98,8.26,3.98,1.24,0,2.72-.14,4.43-.41m12.07,2.96l5.39,6.37-6.38,4.14-4.91-6.07c-3.69,1.38-6.99,2.07-9.9,2.07-6.47,0-11.78-2.2-15.92-6.61-4.15-4.41-6.22-10.06-6.22-16.97,0-5.69,2.02-10.84,6.06-15.43s9.38-6.89,16.02-6.89c6.23,0,11.47,2.19,15.73,6.56,4.26,4.38,6.39,9.76,6.39,16.16s-2.09,12.12-6.26,16.67"/>
    <path class="cls-2" d="m95.58,210.2h9.31v27.44c0,2.55.69,4.6,2.06,6.15,1.38,1.55,3.19,2.32,5.44,2.32,2.58,0,4.58-.78,6-2.34,1.43-1.56,2.14-3.77,2.14-6.61v-26.96h9.27v29.05c0,2.55-.65,5.2-1.94,7.95-1.29,2.75-3.27,4.84-5.95,6.3-2.68,1.46-5.67,2.19-8.99,2.19-6.01,0-10.39-1.72-13.17-5.15-2.78-3.43-4.17-7.03-4.17-10.82v-29.53Z"/>
  </g>
  <polygon class="cls-2" points="136.95 210.2 161.6 210.2 161.6 219.09 146.39 219.09 146.39 228.14 161.6 228.14 161.6 236.89 146.39 236.89 146.39 246.19 161.6 246.19 161.6 255.07 136.95 255.07 136.95 210.2"/>
  <path class="cls-2" d="m186.42,224.9l-5.15,13.22h10.41l-5.26-13.22Zm-3.66-14.7h7.31l17.84,44.87h-9.5l-3.5-8.81h-16.81l-3.43,8.81h-9.45l17.54-44.87Z"/>
  <polygon class="cls-2" points="212.71 210.2 222.15 210.2 222.15 229.15 222.28 229.15 236.78 210.2 248.36 210.2 231.73 231.62 249.06 255.07 237.72 255.07 222.28 234.07 222.15 234.07 222.15 255.07 212.71 255.07 212.71 210.2"/>
  <polygon class="cls-2" points="250.48 210.2 260.94 210.2 269.02 224.11 277.21 210.2 287.71 210.2 273.77 234.09 273.77 255.07 264.43 255.07 264.43 234.09 250.48 210.2"/>
  <path class="cls-1" d="m340.45,212.59v10.93c-4.74-2.92-8.88-4.37-12.44-4.37s-6.41,1.25-8.54,3.76c-2.14,2.51-3.2,5.88-3.2,10.11,0,4.01,1.12,7.22,3.37,9.62,2.24,2.4,5.25,3.61,9.01,3.61,3.29,0,7.23-1.36,11.81-4.07v10.87c-5.14,1.75-9.42,2.63-12.84,2.63-5.89,0-10.9-2.22-15.01-6.65-4.11-4.43-6.17-9.84-6.17-16.22s2.1-11.99,6.29-16.49c4.19-4.5,9.29-6.75,15.29-6.75,3.87,0,8.01,1,12.44,3"/>
  <polygon class="cls-1" points="345.7 210.2 355.07 210.2 355.07 245.4 367.98 245.4 367.98 255.07 345.7 255.07 345.7 210.2"/>
  <polygon class="cls-1" points="372.67 210.2 397.32 210.2 397.32 219.09 382.11 219.09 382.11 228.14 397.32 228.14 397.32 236.89 382.11 236.89 382.11 246.19 397.32 246.19 397.32 255.07 372.67 255.07 372.67 210.2"/>
  <path class="cls-1" d="m422.13,224.9l-5.15,13.22h10.41l-5.26-13.22Zm-3.66-14.7h7.31l17.84,44.87h-9.5l-3.51-8.81h-16.8l-3.43,8.81h-9.45l17.54-44.87Z"/>
  <polygon class="cls-1" points="477.17 210.2 486.41 210.2 486.41 255.07 477.22 255.07 457.19 226.02 457.19 255.07 447.75 255.07 447.75 210.2 457.09 210.2 477.17 239.05 477.17 210.2"/>
  <path class="cls-1" d="m250,43.65c-5.78,0-10.49,4.8-10.49,10.69v48.69h20.97v-48.69c0-5.89-4.7-10.69-10.49-10.69"/>
</svg>