<?xml version="1.0" encoding="UTF-8"?>
<svg id="Layer_1" data-name="Layer 1" xmlns="http://www.w3.org/2000/svg" viewBox="0 0 200 200">
  <defs>
    <style>
      .cls-1 {
        fill: #1d252c;
      }

      .cls-2 {
        fill: #db0032;
      }
    </style>
  </defs>
  <g>
    <path class="cls-1" d="M143.94,130.28l-.51,2.21h-30.4c.61-1.56.94-3.24.94-5.01,0-7.66-6.21-13.87-13.87-13.87s-13.87,6.21-13.87,13.87c0,1.77.33,3.46.94,5.01h-30.57l-.54-2.37c-.2-.87.34-1.73,1.21-1.92l11.74-2.68c.67-.15,1.16-.71,1.24-1.39.26-2.33.78-4.58,1.54-6.72.23-.64.03-1.37-.51-1.79l-9.37-7.47c-.69-.56-.81-1.57-.25-2.26l8.88-11.14c.55-.69,1.56-.81,2.26-.25l9.41,7.51c.54.42,1.28.46,1.86.1,1.93-1.21,4.01-2.22,6.21-2.97.65-.23,1.09-.83,1.09-1.51v-11.98c0-.89.72-1.61,1.61-1.61h14.25c.89,0,1.6.72,1.6,1.61v12.03c0,.68.43,1.29,1.08,1.52,2.19.76,4.27,1.78,6.19,3,.59.37,1.33.34,1.87-.09l9.37-7.47c.69-.56,1.7-.44,2.26.25l8.88,11.14c.55.69.43,1.7-.26,2.26l-9.41,7.5c-.54.43-.74,1.15-.51,1.79.74,2.14,1.26,4.4,1.51,6.72.07.68.57,1.25,1.23,1.4l11.69,2.67c.87.2,1.41,1.06,1.21,1.92Z"/>
    <path class="cls-1" d="M185.56,104.74c0,15.32-12.42,27.75-27.75,27.75h-9.99l.29-1.26c.35-1.53.08-3.1-.76-4.43-.83-1.33-2.14-2.26-3.67-2.61l-9.88-2.25c-.22-1.34-.51-2.66-.89-3.96l7.98-6.36c2.53-2.02,2.94-5.73.93-8.26l-8.88-11.14c-1.12-1.4-2.8-2.22-4.6-2.22-1.33,0-2.64.46-3.67,1.29l-7.92,6.32c-1.18-.67-2.4-1.26-3.65-1.78v-10.2c0-3.24-2.64-5.88-5.87-5.88h-14.25c-3.24,0-5.88,2.64-5.88,5.88v10.13c-1.26.51-2.48,1.09-3.66,1.75l-7.97-6.35c-1.04-.84-2.34-1.29-3.67-1.29-1.81,0-3.48.81-4.6,2.22l-8.88,11.14c-.98,1.23-1.42,2.76-1.25,4.32.18,1.56.95,2.97,2.18,3.94l7.92,6.32c-.38,1.29-.68,2.61-.91,3.94l-9.95,2.27c-3.16.73-5.15,3.88-4.43,7.05l.32,1.42h-5.35c-17.91,0-32.43-14.52-32.43-32.43,0-16.66,12.56-30.39,28.74-32.22,3.08-21.39,19.93-37.75,40.26-37.75,16.16,0,30.13,10.34,36.72,25.34,3.1-1.1,6.43-1.7,9.9-1.7,14.19,0,26.05,9.98,28.95,23.29,14.77.63,26.55,12.8,26.55,27.72Z"/>
  </g>
  <g>
    <path class="cls-2" d="M142.73,128.36l-11.69-2.67c-.67-.15-1.17-.71-1.23-1.4-.25-2.33-.76-4.58-1.51-6.72-.23-.64-.02-1.36.51-1.79l9.41-7.5c.69-.56.81-1.57.26-2.26l-8.88-11.14c-.56-.69-1.57-.81-2.26-.25l-9.37,7.47c-.54.43-1.28.46-1.87.09-1.92-1.23-4-2.24-6.19-3-.65-.23-1.08-.84-1.08-1.52v-12.03c0-.89-.71-1.61-1.6-1.61h-14.25c-.89,0-1.61.72-1.61,1.61v11.98c0,.68-.44,1.29-1.09,1.51-2.2.76-4.28,1.76-6.21,2.97-.58.37-1.32.32-1.86-.1l-9.41-7.51c-.7-.56-1.71-.44-2.26.25l-8.88,11.14c-.56.69-.44,1.7.25,2.26l9.37,7.47c.54.43.74,1.15.51,1.79-.76,2.14-1.29,4.38-1.54,6.72-.08.67-.57,1.23-1.24,1.39l-11.74,2.68c-.87.2-1.4,1.06-1.21,1.92l.54,2.37,2.63,11.52c.2.86,1.06,1.4,1.93,1.21l11.68-2.67c.67-.15,1.36.14,1.72.72,1.22,1.96,2.66,3.77,4.29,5.39.48.48.6,1.22.31,1.83l-5.23,10.86c-.38.8-.05,1.76.75,2.14l12.83,6.18c.8.38,1.76.05,2.14-.76l5.2-10.79c.3-.62.95-.98,1.64-.9,1.15.13,2.33.21,3.52.21s2.26-.06,3.36-.19c.68-.07,1.33.28,1.62.9l5.23,10.85c.38.8,1.35,1.14,2.15.75l12.83-6.18c.8-.38,1.14-1.34.75-2.15l-5.2-10.8c-.3-.62-.16-1.36.32-1.84,1.64-1.61,3.08-3.42,4.31-5.37.37-.58,1.06-.87,1.72-.71l11.73,2.68c.87.2,1.73-.34,1.92-1.21l2.66-11.67.51-2.21c.2-.87-.34-1.73-1.21-1.92ZM100.1,141.34c-5.89,0-10.93-3.68-12.93-8.85-.61-1.56-.94-3.24-.94-5.01,0-7.66,6.21-13.87,13.87-13.87s13.87,6.21,13.87,13.87c0,1.77-.33,3.46-.94,5.01-2,5.18-7.04,8.85-12.92,8.85Z"/>
    <path class="cls-2" d="M142.73,128.36l-11.69-2.67c-.67-.15-1.17-.71-1.23-1.4-.25-2.33-.76-4.58-1.51-6.72-.23-.64-.02-1.36.51-1.79l9.41-7.5c.69-.56.81-1.57.26-2.26l-8.88-11.14c-.56-.69-1.57-.81-2.26-.25l-9.37,7.47c-.54.43-1.28.46-1.87.09-1.92-1.23-4-2.24-6.19-3-.65-.23-1.08-.84-1.08-1.52v-12.03c0-.89-.71-1.61-1.6-1.61h-14.25c-.89,0-1.61.72-1.61,1.61v11.98c0,.68-.44,1.29-1.09,1.51-2.2.76-4.28,1.76-6.21,2.97-.58.37-1.32.32-1.86-.1l-9.41-7.51c-.7-.56-1.71-.44-2.26.25l-8.88,11.14c-.56.69-.44,1.7.25,2.26l9.37,7.47c.54.43.74,1.15.51,1.79-.76,2.14-1.29,4.38-1.54,6.72-.08.67-.57,1.23-1.24,1.39l-11.74,2.68c-.87.2-1.4,1.06-1.21,1.92l.54,2.37,2.63,11.52c.2.86,1.06,1.4,1.93,1.21l11.68-2.67c.67-.15,1.36.14,1.72.72,1.22,1.96,2.66,3.77,4.29,5.39.48.48.6,1.22.31,1.83l-5.23,10.86c-.38.8-.05,1.76.75,2.14l12.83,6.18c.8.38,1.76.05,2.14-.76l5.2-10.79c.3-.62.95-.98,1.64-.9,1.15.13,2.33.21,3.52.21s2.26-.06,3.36-.19c.68-.07,1.33.28,1.62.9l5.23,10.85c.38.8,1.35,1.14,2.15.75l12.83-6.18c.8-.38,1.14-1.34.75-2.15l-5.2-10.8c-.3-.62-.16-1.36.32-1.84,1.64-1.61,3.08-3.42,4.31-5.37.37-.58,1.06-.87,1.72-.71l11.73,2.68c.87.2,1.73-.34,1.92-1.21l2.66-11.67.51-2.21c.2-.87-.34-1.73-1.21-1.92ZM100.1,141.34c-5.89,0-10.93-3.68-12.93-8.85-.61-1.56-.94-3.24-.94-5.01,0-7.66,6.21-13.87,13.87-13.87s13.87,6.21,13.87,13.87c0,1.77-.33,3.46-.94,5.01-2,5.18-7.04,8.85-12.92,8.85Z"/>
  </g>
</svg>