<?xml version="1.0" encoding="UTF-8"?>
<svg id="Layer_1" data-name="Layer 1" xmlns="http://www.w3.org/2000/svg" viewBox="0 0 500 300">
  <defs>
    <style>
      .cls-1 {
        fill: #ff6c0e;
        stroke-width: 0px;
      }
    </style>
  </defs>
  <path class="cls-1" d="m55.22,247.88l-12.2,28.67h6.39l2.6-6.38h12.04l2.6,6.38h6.55l-12.2-28.67h-5.78Zm-.98,16.75l3.78-9.23,3.78,9.23h-7.56Z"/>
  <polygon class="cls-1" points="83.86 248.09 77.6 248.09 77.6 276.55 98.05 276.55 98.05 270.86 83.86 270.86 83.86 248.09"/>
  <path class="cls-1" d="m114.33,259.51c-4.92-1.26-6.14-1.87-6.14-3.74v-.08c0-1.38,1.26-2.48,3.66-2.48s4.88,1.06,7.4,2.81l3.25-4.72c-2.89-2.32-6.43-3.62-10.57-3.62-5.82,0-9.96,3.42-9.96,8.58v.08c0,5.65,3.7,7.24,9.43,8.7,4.76,1.22,5.73,2.03,5.73,3.62v.08c0,1.67-1.55,2.68-4.11,2.68-3.25,0-5.94-1.34-8.5-3.45l-3.7,4.43c3.42,3.05,7.77,4.56,12.08,4.56,6.14,0,10.45-3.17,10.45-8.83v-.08c0-4.96-3.25-7.04-9.03-8.54Z"/>
  <path class="cls-1" d="m137.96,247.88l-12.2,28.67h6.38l2.6-6.38h12.04l2.6,6.38h6.55l-12.2-28.67h-5.78Zm-.98,16.75l3.78-9.23,3.78,9.23h-7.56Z"/>
  <polygon class="cls-1" points="174.58 260.13 167.09 248.09 160.34 248.09 160.34 276.55 166.48 276.55 166.48 258.09 174.41 270.13 174.58 270.13 182.59 257.97 182.59 276.55 188.81 276.55 188.81 248.09 182.06 248.09 174.58 260.13"/>
  <path class="cls-1" d="m205.41,247.88l-12.2,28.67h6.39l2.6-6.38h12.04l2.6,6.38h6.55l-12.2-28.67h-5.78Zm-.98,16.75l3.78-9.23,3.78,9.23h-7.56Z"/>
  <path class="cls-1" d="m238.89,248.09h-11.1v28.46h11.1c8.94,0,15.13-6.22,15.13-14.23v-.08c0-8.01-6.18-14.15-15.13-14.15Zm8.58,14.31c0,5.04-3.46,8.5-8.58,8.5h-4.84v-17.16h4.84c5.12,0,8.58,3.54,8.58,8.58v.08Z"/>
  <rect class="cls-1" x="259.89" y="248.09" width="6.26" height="28.46"/>
  <path class="cls-1" d="m297.03,259.51c-4.92-1.26-6.14-1.87-6.14-3.74v-.08c0-1.38,1.26-2.48,3.66-2.48s4.88,1.06,7.4,2.81l3.25-4.72c-2.89-2.32-6.43-3.62-10.57-3.62-5.82,0-9.96,3.42-9.96,8.58v.08c0,5.65,3.7,7.24,9.43,8.7,4.76,1.22,5.73,2.03,5.73,3.62v.08c0,1.67-1.55,2.68-4.11,2.68-3.25,0-5.94-1.34-8.5-3.45l-3.7,4.43c3.42,3.05,7.77,4.56,12.08,4.56,6.14,0,10.45-3.17,10.45-8.83v-.08c0-4.96-3.25-7.04-9.03-8.54Z"/>
  <polygon class="cls-1" points="339.04 267.36 332.66 248.01 327.29 248.01 320.91 267.36 315.01 248.09 308.3 248.09 318.02 276.76 323.47 276.76 329.9 258.13 336.32 276.76 341.77 276.76 351.49 248.09 344.94 248.09 339.04 267.36"/>
  <polygon class="cls-1" points="362.36 265.01 375.78 265.01 375.78 259.43 362.36 259.43 362.36 253.66 377.61 253.66 377.61 248.09 356.14 248.09 356.14 276.55 377.81 276.55 377.81 270.98 362.36 270.98 362.36 265.01"/>
  <polygon class="cls-1" points="389.62 265.01 403.04 265.01 403.04 259.43 389.62 259.43 389.62 253.66 404.87 253.66 404.87 248.09 383.4 248.09 383.4 276.55 405.07 276.55 405.07 270.98 389.62 270.98 389.62 265.01"/>
  <polygon class="cls-1" points="408.62 253.86 417.28 253.86 417.28 276.55 423.54 276.55 423.54 253.86 432.2 253.86 432.2 248.09 408.62 248.09 408.62 253.86"/>
  <path class="cls-1" d="m447.95,259.51c-4.92-1.26-6.14-1.87-6.14-3.74v-.08c0-1.38,1.26-2.48,3.66-2.48s4.88,1.06,7.4,2.81l3.25-4.72c-2.89-2.32-6.42-3.62-10.57-3.62-5.82,0-9.96,3.42-9.96,8.58v.08c0,5.65,3.7,7.24,9.43,8.7,4.76,1.22,5.73,2.03,5.73,3.62v.08c0,1.67-1.55,2.68-4.11,2.68-3.25,0-5.93-1.34-8.5-3.45l-3.7,4.43c3.42,3.05,7.77,4.56,12.08,4.56,6.14,0,10.45-3.17,10.45-8.83v-.08c0-4.96-3.25-7.04-9.02-8.54Z"/>
  <rect class="cls-1" x="412.02" y="116.43" width="14.71" height="73.03"/>
  <polygon class="cls-1" points="147.31 145.52 117.73 145.52 117.73 130.95 147.32 130.95 147.32 116.24 103.02 116.24 103.02 160.23 132.6 160.23 132.6 174.83 73.69 174.83 73.69 189.54 147.31 189.54 147.31 145.52"/>
  <rect class="cls-1" x="73.69" y="145.73" width="14.65" height="14.65"/>
  <rect class="cls-1" x="73.69" y="116.2" width="14.65" height="14.65"/>
  <path class="cls-1" d="m456.16,86.68H44.35v131.98h411.81V86.68Zm-14.71,117.27H59.06v-102.56h382.39v102.56Z"/>
  <path class="cls-1" d="m176.62,130.99h14.71v43.85h-29.33v14.7h36.49s29.6,0,29.6,0h0s36.78,0,36.78,0v-29.22h14.69v22.15h.03v7h117.58v-.02h.13v-73.12h-14.71v58.43h-88.32v-14.44h73.76l-.25-44.05h-88.22v29.34h-14.69v-29.33h-44.12v58.56h-14.71v-58.56h-44.12v43.95h14.7v-29.24Zm117.66,11.1v-11.1h58.88l.08,14.63h-58.97v-3.53Zm-58.82-11.1h14.71v43.85h-14.71v-43.85Z"/>
  <path class="cls-1" d="m47.25,53.75c.65.63,1.35,1.17,2.09,1.62s1.54.82,2.41,1.1c.87.29,1.82.49,2.84.61,1.02.12,2.16.18,3.41.18h18.11v-24.08h-6.79v17.3h-10.92c-1.2,0-2.3-.1-3.29-.31-1-.2-1.82-.58-2.47-1.12-.55-.46-.93-1.09-1.17-1.88-.23-.79-.35-1.77-.35-2.94v-7.56h-6.79v8.26c0,1.72.21,3.37.63,4.95.42,1.58,1.18,2.88,2.27,3.88Z"/>
  <polygon class="cls-1" points="233.07 57.26 244.84 57.26 244.84 33.18 238.05 33.18 238.05 50.48 233.07 50.48 230.44 50.48 89.64 50.48 89.64 23.04 82.86 23.04 82.86 57.26 230.44 57.26 233.07 57.26"/>
  <path class="cls-1" d="m254.34,54.46c1.31.98,4.5,2.8,10.28,2.8h.04c-.55,4.01-9.57,1.54-11.08.98l.49,6.91s15.86,5.42,17.38-7.89h183.26c.25-.84.49-1.68.74-2.51.24-.83.46-1.74.65-2.74s.35-2.03.49-3.11.21-2.17.21-3.29c0-2.15-.35-4.06-1.06-5.71-.71-1.65-1.63-3.05-2.78-4.19-1.04-1.06-2.28-1.88-3.72-2.45-1.44-.57-3.04-.86-4.78-.86s-3.41.24-4.93.72c-1.51.48-3.1,1.19-4.76,2.15l2.86,5.97c1.34-.87,2.2-1.31,3.29-1.68.9-.3,10.63-2.6,8.96,8.44-.16,1.04-.25,1.87-.39,2.47h-20.44v-27.44h-6.79v27.44h-150.68l.04-17.3h-6.99c-5.78,0-9.14,2.11-10.41,3.19-3.69,3.15-4.15,6.6-4.15,8.83s.45,6.4,4.27,9.26Zm8.61-14.49h1.88v10.51h-1.88c-2.09,0-6.09-1.1-6.09-5.27s3.99-5.23,6.09-5.23Z"/>
  <path class="cls-1" d="m64.87,32.93c2.06,0,3.72-1.55,3.72-3.45s-1.67-3.45-3.72-3.45-3.72,1.55-3.72,3.45,1.67,3.45,3.72,3.45Z"/>
  <path class="cls-1" d="m56,32.93c2.06,0,3.72-1.55,3.72-3.45s-1.67-3.45-3.72-3.45-3.72,1.55-3.72,3.45,1.67,3.45,3.72,3.45Z"/>
  <path class="cls-1" d="m164.56,63.56c0,1.91,1.67,3.45,3.72,3.45s3.72-1.55,3.72-3.45-1.67-3.45-3.72-3.45-3.72,1.55-3.72,3.45Z"/>
  <path class="cls-1" d="m155.69,63.56c0,1.91,1.67,3.45,3.72,3.45s3.72-1.55,3.72-3.45-1.67-3.45-3.72-3.45-3.72,1.55-3.72,3.45Z"/>
</svg>