<?xml version="1.0" standalone="no"?>
<!DOCTYPE svg PUBLIC "-//W3C//DTD SVG 1.1//EN" "http://www.w3.org/Graphics/SVG/1.1/DTD/svg11.dtd" >
<svg xmlns="http://www.w3.org/2000/svg" xmlns:xlink="http://www.w3.org/1999/xlink" version="1.1">
<metadata>
Created by FontForge 20170731 at Tue Oct 17 14:47:36 2023
 By Aleksey,,,
Copyright (c) 2019 by Mostafa El Abasiry. All rights reserved.
</metadata>
<defs>
<font id="Lamhah-Light" horiz-adv-x="0" >
  <font-face 
    font-family="Lamhah Light"
    font-weight="400"
    font-stretch="normal"
    units-per-em="2048"
    panose-1="0 0 5 0 0 0 0 0 0 0"
    ascent="1638"
    descent="-410"
    bbox="-371 -1128 3342 2925"
    underline-thickness="102"
    underline-position="-307"
    unicode-range="U+0020-FEFC"
  />
<missing-glyph horiz-adv-x="1228" 
d="M1008 1843v-2457h-779v2457h779zM819 1679h-405v-82h159v-90h-163v-82h409v82h-164v90h164v82zM655 1362h-245v-256h409v84h-164v172zM573 1278v-88h-81v88h81zM819 1040h-409v-82h163v-90h-163v-82h245v172h164v82zM819 893h-82v-164h-327v-82h409v246zM819 592h-246
v-137h82v57h82v-117h-245v197h-82v-277h409v277zM819 168h-409v-279h409v279zM737 86v-115h-245v115h245zM819 -168h-409v-80h172l-172 -117v-79h409v79h-252l172 117h80v80z" />
    <glyph glyph-name="uniFDF2" unicode="&#x627;&#xfedf;&#xfee0;&#xfeea;" horiz-adv-x="3164" arabic-form="isolated" 
d="M1604 2925v-510l-72 -62v510zM1456 1978q-168 -59 -168 113v53l62 62v-95q0 -58 24 -73.5t82 4.5q51 19 72.5 51t21.5 92v51l64 54v-82q0 -60 24 -75.5t84 7.5q51 19 72 50t21 91v142l61 57v-176q0 -171 -154 -227q-94 -37 -139 2q-40 -67 -127 -101zM2275 377v1425
l82 41v-1466q0 -183 -98 -280t-272 -97h-109h-10q-108 5 -174.5 42.5t-98.5 117.5q-94 -160 -321 -160h-109h-10q-173 9 -221 135q-45 -63 -113.5 -99t-148.5 -36h-283q-101 0 -173.5 72.5t-72.5 173.5v334q0 186 124.5 318t301.5 132h353l71 -74v-677q0 -116 41 -156.5
t152 -40.5h88q140 0 214.5 73.5t74.5 221.5v1425l82 41v-1466q0 -120 25 -183t77.5 -87.5t150.5 -24.5h89q140 0 214 73.5t74 221.5zM2877 1802l82 41v-1843h-82v1802zM672 82q100 0 169.5 70t69.5 170v102v524h-342q-142 0 -243 -108t-101 -260v-334q0 -69 47.5 -116.5
t116.5 -47.5h283z" />
    <glyph glyph-name="uniFEF5" unicode="&#xfedf;&#xfe82;" horiz-adv-x="1497" arabic-form="isolated" 
d="M291 1692l-62 20q28 130 117 176t203 -14q18 -10 56 -32t57.5 -32.5t53 -25.5t54 -18.5t49.5 -3.5t50.5 11.5t46 34.5t45.5 58l53 -41q-25 -41 -52 -70t-55.5 -43t-55 -21t-57.5 -2t-56.5 11.5t-57.5 23t-54.5 28.5t-54.5 31t-51 29q-86 45 -147.5 12.5t-81.5 -132.5z
M143 0l-41 82h699q184 0 296.5 92.5t112.5 243.5v1384l82 41v-1425q0 -186 -137 -302t-354 -116h-658zM553 266v1188l82 41v-1229h-82z" />
    <glyph glyph-name="uniFEF6" unicode="&#xfee0;&#xfe82;" horiz-adv-x="1636" arabic-form="final" 
d="M520 1812q-86 45 -147.5 12.5t-81.5 -132.5l-62 20q28 130 117 176t203 -14q18 -10 56 -32t57.5 -32.5t53 -25.5t54 -18.5t49.5 -3.5t50.5 11.5t46 34.5t45.5 58l53 -41q-25 -41 -52 -70t-55.5 -43t-55 -21t-57.5 -2t-56.5 11.5t-57.5 23t-54.5 28.5t-54.5 31t-51 29z
M1548 82h88v-82h-88q-248 0 -309 217q-59 -102 -173.5 -159.5t-264.5 -57.5h-658l-41 82h699q184 0 296.5 92.5t112.5 243.5v1384l82 41v-1394v-31v-21q0 -168 60 -241.5t196 -73.5zM635 266h-82v1188l82 41v-1229z" />
    <glyph glyph-name="uniFEF7" unicode="&#xfedf;&#xfe84;" horiz-adv-x="1497" arabic-form="isolated" 
d="M377 1706l39 70h57v77q0 120 66.5 191.5t175.5 79.5l24 -68q-91 0 -143.5 -51.5t-52.5 -151.5v-77h336l-39 -70h-463zM1210 1802l82 41v-1425q0 -186 -137 -302t-354 -116h-658l-41 82h699q184 0 296.5 92.5t112.5 243.5v1384zM553 266v1188l82 41v-1229h-82z" />
    <glyph glyph-name="uniFEF8" unicode="&#xfee0;&#xfe84;" horiz-adv-x="1636" arabic-form="final" 
d="M377 1706l39 70h57v77q0 120 66.5 191.5t175.5 79.5l24 -68q-91 0 -143.5 -51.5t-52.5 -151.5v-77h336l-39 -70h-463zM1548 82h88v-82h-88q-248 0 -309 217q-59 -102 -173.5 -159.5t-264.5 -57.5h-658l-41 82h699q184 0 296.5 92.5t112.5 243.5v1384l82 41v-1394v-31v-21
q0 -168 60 -241.5t196 -73.5zM553 266v1188l82 41v-1229h-82z" />
    <glyph glyph-name="uniFEF9" unicode="&#xfedf;&#xfe88;" horiz-adv-x="1497" arabic-form="isolated" 
d="M1210 1802l82 41v-1425q0 -186 -137 -302t-354 -116h-658l-41 82h699q184 0 296.5 92.5t112.5 243.5v1384zM635 1495v-1229h-82v1188zM539 -584h335l-38 -69h-463l39 69h57v78q0 121 66.5 191.5t175.5 78.5l24 -67q-91 0 -143.5 -51.5t-52.5 -151.5v-78z" />
    <glyph glyph-name="uniFEFA" unicode="&#xfee0;&#xfe88;" horiz-adv-x="1636" arabic-form="final" 
d="M1548 82h88v-82h-88q-248 0 -309 217q-59 -102 -173.5 -159.5t-264.5 -57.5h-658l-41 82h699q184 0 296.5 92.5t112.5 243.5v1384l82 41v-1394v-31v-21q0 -168 60 -241.5t196 -73.5zM635 1495v-1229h-82v1188zM518 -584h336l-39 -69h-463l39 69h58v78q0 121 66 191.5
t175 78.5l25 -67q-91 0 -144 -51.5t-53 -151.5v-78z" />
    <glyph glyph-name="uniFEFB" unicode="&#xfedf;&#xfe8e;" horiz-adv-x="1497" arabic-form="isolated" 
d="M143 0l-41 82h699q184 0 296.5 92.5t112.5 243.5v1384l82 41v-1425q0 -186 -137 -302t-354 -116h-658zM553 266v1188l82 41v-1229h-82z" />
    <glyph glyph-name="uniFEFC" unicode="&#xfee0;&#xfe8e;" horiz-adv-x="1636" arabic-form="final" 
d="M1548 82h88v-82h-88q-248 0 -309 217q-59 -102 -173.5 -159.5t-264.5 -57.5h-658l-41 82h699q184 0 296.5 92.5t112.5 243.5v1384l82 41v-1394v-31v-21q0 -168 60 -241.5t196 -73.5zM635 1495v-1229h-82v1188z" />
    <glyph glyph-name="uni06440671" unicode="&#xfedf;&#xfb51;" horiz-adv-x="1497" 
d="M453 1688q-48 0 -86.5 -7.5t-58.5 -18.5t-33 -22t-17 -18l-4 -8l-57 20q1 4 4.5 10.5t18 24t35 32t59.5 28.5t87 18q4 28 11 56t26 68t45.5 69.5t74 51t106.5 21.5h104q55 0 95 -41t40 -98v-49q0 -57 -40 -97t-97 -40h-313zM664 1952q-43 0 -77.5 -15t-55 -37
t-35.5 -51.5t-21 -52.5t-10 -47h301q32 0 54 22t22 54v49q0 32 -21.5 55t-52.5 23h-104zM1210 1802l82 41v-1425q0 -186 -137 -302t-354 -116h-658l-41 82h699q184 0 296.5 92.5t112.5 243.5v1384zM635 266h-82v1188l82 41v-1229z" />
    <glyph glyph-name="uni06440671.fina" unicode="&#xfee0;&#xfb51;" horiz-adv-x="1636" 
d="M473 1688q-48 0 -86.5 -7.5t-58.5 -18.5t-33 -22t-17 -18l-4 -8l-57 20q1 4 4.5 10.5t18.5 24t35.5 32t59.5 28.5t87 18q4 29 11 56.5t26 68t45.5 69.5t73.5 50.5t106 21.5h104q56 0 96 -41t40 -98v-49q0 -57 -40.5 -97t-97.5 -40h-313zM684 1952q-43 0 -77.5 -15
t-55 -37t-35.5 -51.5t-21 -52.5t-10 -47h301q32 0 54 22t22 54v49q0 32 -21.5 55t-52.5 23h-104zM1548 82h88v-82h-88q-248 0 -309 217q-59 -102 -173.5 -159.5t-264.5 -57.5h-658l-41 82h699q184 0 296.5 92.5t112.5 243.5v1384l82 41v-1394v-31v-21q0 -168 60 -241.5
t196 -73.5zM635 266h-82v1188l82 41v-1229z" />
    <glyph glyph-name="uni066E.init" unicode="&#x66e;" horiz-adv-x="788" 
d="M-80 0q-26 0 -44.5 12t-18.5 29t18.5 29t44.5 12h191q184 0 297.5 92.5t113.5 243.5v489l82 41v-530q0 -186 -137 -302t-356 -116h-191z" />
    <glyph glyph-name="uni066E.medi" unicode="&#x66e;" horiz-adv-x="878" 
d="M797 82h82v-82h-82q-256 0 -338 186q-84 -186 -348 -186h-191q-26 0 -44.5 12t-18.5 29t18.5 29t44.5 12h191q90 0 151.5 23.5t95.5 70t48 104.5t14 138v258l82 41v-299q0 -179 69 -257.5t226 -78.5z" />
    <glyph glyph-name="uni066E.fina" unicode="&#x66e;" horiz-adv-x="2533" 
d="M2451 82h82v-82h-82q-275 0 -348 215q-59 -101 -174 -158t-266 -57h-1088q-219 0 -356 116t-137 302v162l82 41v-203q0 -151 113.5 -243.5t297.5 -92.5h1088q185 0 298.5 92.5t113.5 243.5v381l82 41v-422q0 -179 68.5 -257.5t225.5 -78.5z" />
    <glyph glyph-name="uni066F.fina" unicode="&#x66f;" horiz-adv-x="1787" 
d="M1645 82h143v-82h-143q0 -320 -182 -508t-509 -188h-120q-327 0 -509 188t-182 508v113l82 41v-154q0 -286 158.5 -450t450.5 -164h120q292 0 450.5 164t158.5 450h-564q-101 0 -173 72.5t-72 173.5v252q0 188 128 319t318 131q189 0 317 -131t128 -319v-416zM999 82h564
v416q0 154 -104 261t-259 107q-156 0 -260 -107t-104 -261v-252q0 -68 48 -116t115 -48z" />
    <glyph glyph-name="uni06A1.init" unicode="&#x6a1;" horiz-adv-x="1384" 
d="M1200 516q0 -140 -62 -258.5t-169.5 -187.5t-235.5 -70h-813q-26 0 -44.5 12t-18.5 29t18.5 29t44.5 12h557q-100 70 -158.5 185t-58.5 249q0 139 63 257.5t171.5 187.5t236.5 69t236 -69t170.5 -187.5t62.5 -257.5zM731 82q161 0 274 126.5t113 307.5q0 180 -113.5 306
t-273.5 126q-161 0 -275 -126.5t-114 -305.5q0 -180 114 -307t275 -127z" />
    <glyph glyph-name="uni06A1.medi" unicode="&#x6a1;" horiz-adv-x="1323" 
d="M985 82h338v-82h-1403q-26 0 -44.5 12t-18.5 29t18.5 29t44.5 12h557q-100 70 -158.5 185t-58.5 249q0 139 63 257.5t171.5 187.5t236.5 69t236 -69t170.5 -187.5t62.5 -257.5q0 -134 -58 -249t-157 -185zM342 516q0 -180 114 -307t275 -127t274 126.5t113 307.5
q0 180 -113.5 306t-273.5 126q-161 0 -275 -126.5t-114 -305.5z" />
    <glyph glyph-name="uni06A1.fina" unicode="&#x6a1;" horiz-adv-x="2676" 
d="M2339 82h338v-82h-2040q-219 0 -356.5 116t-137.5 302v162l82 41v-203q0 -151 113.5 -243.5t298.5 -92.5h1194q-100 70 -158.5 185t-58.5 249q0 139 63 257.5t171.5 187.5t236.5 69t236 -69t170.5 -187.5t62.5 -257.5q0 -134 -58 -249t-157 -185zM1696 516
q0 -180 114 -307t275 -127t274 126.5t113 307.5q0 180 -113.5 306t-273.5 126q-161 0 -275 -126.5t-114 -305.5z" />
    <glyph glyph-name="uniFB51" unicode="&#x671;" horiz-adv-x="643" arabic-form="final" 
d="M580 1825q0 -57 -40.5 -97t-97.5 -40h-313q-48 0 -86.5 -7.5t-58.5 -18.5t-33 -22t-17 -18l-4 -8l-57 20q1 4 4.5 10.5t18.5 24t35.5 32t59.5 28.5t87 18q4 29 11 56.5t26 68t45.5 69.5t73.5 50.5t106 21.5h104q56 0 96 -41t40 -98v-49zM340 1952q-43 0 -77.5 -15
t-55 -37t-35.5 -51.5t-21 -52.5t-10 -47h301q32 0 54 22t22 54v49q0 32 -21.5 55t-52.5 23h-104zM561 82h82v-82h-82q-151 0 -233 77t-82 238v1201l82 40v-1241q0 -127 58.5 -180t174.5 -53z" />
    <glyph glyph-name="uniFB57" unicode="&#x67e;" horiz-adv-x="2533" arabic-form="final" 
d="M2451 82h82v-82h-82q-275 0 -348 215q-59 -101 -174 -158t-266 -57h-1088q-219 0 -356 116t-137 302v162l82 41v-203q0 -151 113.5 -243.5t297.5 -92.5h1088q185 0 298.5 92.5t113.5 243.5v381l82 41v-422q0 -179 68.5 -257.5t225.5 -78.5zM1120 -311l99 -99l-99 -98
l-100 98zM1368 -410l100 99l99 -99l-99 -98zM1192 -655l100 98l99 -98l-99 -99z" />
    <glyph glyph-name="uniFB58" unicode="&#x67e;" horiz-adv-x="788" arabic-form="initial" 
d="M-80 0q-26 0 -44.5 12t-18.5 29t18.5 29t44.5 12h191q184 0 297.5 92.5t113.5 243.5v489l82 41v-530q0 -186 -137 -302t-356 -116h-191zM137 -508l-100 98l100 99l99 -99zM485 -508l-100 98l100 99l99 -99zM309 -754l-100 99l100 98l99 -98z" />
    <glyph glyph-name="uniFB59" unicode="&#x67e;" horiz-adv-x="878" arabic-form="medial" 
d="M797 82h82v-82h-82q-256 0 -338 186q-84 -186 -348 -186h-191q-26 0 -44.5 12t-18.5 29t18.5 29t44.5 12h191q90 0 151.5 23.5t95.5 70t48 104.5t14 138v258l82 41v-299q0 -179 69 -257.5t226 -78.5zM242 -311l98 -99l-98 -98l-101 98zM489 -410l101 99l98 -99l-98 -98z
M313 -655l101 98l98 -98l-98 -99z" />
    <glyph glyph-name="uniFB6B" unicode="&#x6a4;" horiz-adv-x="2676" arabic-form="final" 
d="M2222 1622l-98 -98l-101 98l101 98zM2050 1376l-98 -98l-101 98l101 99zM2300 1278l-100 98l100 99l98 -99zM2339 82h338v-82h-2040q-219 0 -356.5 116t-137.5 302v162l82 41v-203q0 -151 113.5 -243.5t298.5 -92.5h1194q-100 70 -158.5 185t-58.5 249q0 139 63 257.5
t171.5 187.5t236.5 69t236 -69t170.5 -187.5t62.5 -257.5q0 -134 -58 -249t-157 -185zM1696 516q0 -180 114 -307t275 -127t274 126.5t113 307.5q0 180 -113.5 306t-273.5 126q-161 0 -275 -126.5t-114 -305.5z" />
    <glyph glyph-name="uniFB6C" unicode="&#x6a4;" horiz-adv-x="1384" arabic-form="initial" 
d="M836 1622l-99 -98l-100 98l100 98zM664 1376l-99 -98l-100 98l100 99zM913 1278l-100 98l100 99l99 -99zM1200 516q0 -140 -62 -258.5t-169.5 -187.5t-235.5 -70h-813q-26 0 -44.5 12t-18.5 29t18.5 29t44.5 12h557q-100 70 -158.5 185t-58.5 249q0 139 63 257.5
t171.5 187.5t236.5 69t236 -69t170.5 -187.5t62.5 -257.5zM731 82q161 0 274 126.5t113 307.5q0 180 -113.5 306t-273.5 126q-161 0 -275 -126.5t-114 -305.5q0 -180 114 -307t275 -127z" />
    <glyph glyph-name="uniFB6D" unicode="&#x6a4;" horiz-adv-x="1323" arabic-form="medial" 
d="M836 1622l-99 -98l-100 98l100 98zM664 1376l-99 -98l-100 98l100 99zM913 1278l-100 98l100 99l99 -99zM985 82h338v-82h-1403q-26 0 -44.5 12t-18.5 29t18.5 29t44.5 12h557q-100 70 -158.5 185t-58.5 249q0 139 63 257.5t171.5 187.5t236.5 69t236 -69t170.5 -187.5
t62.5 -257.5q0 -134 -58 -249t-157 -185zM342 516q0 -180 114 -307t275 -127t274 126.5t113 307.5q0 180 -113.5 306t-273.5 126q-161 0 -275 -126.5t-114 -305.5z" />
    <glyph glyph-name="uniFB7B" unicode="&#x686;" horiz-adv-x="1415" arabic-form="final" 
d="M643 -768q-225 0 -368.5 119.5t-143.5 306.5q0 186 144 305t368 119h547v379q0 201 -144 344t-346 143h-528l41 82h487q116 0 222 -45t182.5 -121.5t122 -182t45.5 -220.5v-379h143v-82h-772q-191 0 -310.5 -95.5t-119.5 -246.5q0 -153 119 -248.5t311 -95.5h178l-41 -82
h-137zM1001 -365l-100 99l100 98l99 -98zM1350 -365l-101 99l101 98l98 -98zM1174 -610l-101 98l101 98l98 -98z" />
    <glyph glyph-name="uniFB7C" unicode="&#x686;" horiz-adv-x="1550" arabic-form="initial" 
d="M-80 0q-26 0 -44.5 12t-18.5 29t18.5 29t44.5 12h1364v379q0 201 -143.5 344t-345.5 143h-529l41 82h488q155 0 286.5 -76.5t208 -207.5t76.5 -285v-379l-82 -82h-1364zM571 -508l-100 98l100 99l99 -99zM920 -508l-101 98l101 99l98 -99zM743 -754l-100 99l100 98
l99 -98z" />
    <glyph glyph-name="uniFB7D" unicode="&#x686;" horiz-adv-x="1509" arabic-form="medial" 
d="M-80 0q-26 0 -44.5 12t-18.5 29t18.5 29t44.5 12h1364v379q0 201 -143.5 344t-345.5 143h-529l41 82h488q155 0 286.5 -76.5t208 -207.5t76.5 -285v-379h143v-82h-1589zM612 -508l-100 98l100 99l99 -99zM961 -508l-101 98l101 99l98 -99zM784 -754l-100 99l100 98
l99 -98z" />
    <glyph glyph-name="uniFE82" unicode="&#x622;" horiz-adv-x="643" arabic-form="final" 
d="M-57 1630l-62 21q28 130 117 175.5t203 -14.5q19 -10 56.5 -32t57 -32.5t53 -25.5t54 -18.5t49 -3.5t50 11.5t46 34.5t45.5 58l54 -41q-25 -41 -52 -70t-55.5 -43t-55.5 -21t-57.5 -2t-56 12t-57.5 23t-54.5 28.5t-54.5 31.5t-51 29q-86 45 -147.5 12t-81.5 -133zM561 0
q-151 0 -233 77t-82 238v1201l82 40v-1241q0 -127 58.5 -180t174.5 -53h82v-82h-82z" />
    <glyph glyph-name="uniFE84" unicode="&#x623;" horiz-adv-x="643" arabic-form="final" 
d="M514 1686h-463l39 69h57v78q0 120 66.5 191t175.5 79l25 -67q-91 0 -144 -51.5t-53 -151.5v-78h336zM561 82h82v-82h-82q-151 0 -233 77t-82 238v1201l82 40v-1241q0 -127 58.5 -180t174.5 -53z" />
    <glyph glyph-name="uniFE86" unicode="&#x624;" horiz-adv-x="1177" arabic-form="final" 
d="M373 1288l39 70h57v78q0 120 66.5 191t175.5 79l24 -68q-91 0 -143.5 -51t-52.5 -151v-78h335l-38 -70h-463zM1034 82h144v-82h-144v-45q0 -319 -161 -485t-488 -166h-80l-41 82h121q292 0 429.5 142t137.5 427v45h-522q-101 0 -173.5 72.5t-72.5 173.5v293
q0 186 124.5 318t301.5 132q175 0 299.5 -132t124.5 -318v-457zM430 82h522v457q0 152 -100.5 260t-241.5 108q-142 0 -243 -108t-101 -260v-293q0 -68 48 -116t116 -48z" />
    <glyph glyph-name="uniFE88" unicode="&#x625;" horiz-adv-x="643" arabic-form="final" 
d="M561 82h82v-82h-82q-151 0 -233 77t-82 238v1487l82 41v-1528q0 -127 58.5 -180t174.5 -53zM285 -500h336l-39 -69h-463l39 69h57v78q0 121 66.5 191.5t175.5 78.5l24 -67q-91 0 -143.5 -51.5t-52.5 -151.5v-78z" />
    <glyph glyph-name="uniFE8A" unicode="&#x626;" horiz-adv-x="2224" arabic-form="final" 
d="M334 477l43 78h63v86q0 132 73.5 210t193.5 87l26 -76q-100 0 -158.5 -56t-58.5 -165v-86h371l-43 -78h-510zM2224 82v-82h-356q178 -118 227 -238q56 -139 1 -261t-200 -193.5t-340 -71.5h-880q-166 0 -310 67.5t-234.5 184t-106.5 258.5l77 55q1 -131 78 -242t209 -176
t287 -65h880q167 0 289.5 56t169.5 152.5t2 207.5q-37 90 -150.5 174.5t-258.5 148.5q-155 67 -316 213l58 62q268 -250 559 -250h315z" />
    <glyph glyph-name="uniFE8B" unicode="&#x626;" horiz-adv-x="788" arabic-form="initial" 
d="M657 1208l-39 -69h-462l39 69h57v78q0 120 66.5 191t175.5 79l24 -67q-91 0 -143.5 -51.5t-52.5 -151.5v-78h335zM522 418v489l82 41v-530q0 -186 -137 -302t-356 -116h-191q-26 0 -44.5 12t-18.5 29t18.5 29t44.5 12h191q184 0 297.5 92.5t113.5 243.5z" />
    <glyph glyph-name="uniFE8C" unicode="&#x626;" horiz-adv-x="878" arabic-form="medial" 
d="M176 1137l39 69h57v78q0 120 66.5 191t175.5 79l25 -67q-91 0 -144 -51.5t-53 -151.5v-78h336l-39 -69h-463zM797 82h82v-82h-82q-256 0 -338 186q-84 -186 -348 -186h-191q-26 0 -44.5 12t-18.5 29t18.5 29t44.5 12h191q90 0 151.5 23.5t95.5 70t48 104.5t14 138v258
l82 41v-299q0 -179 69 -257.5t226 -78.5z" />
    <glyph glyph-name="uniFE8E" unicode="&#x627;" horiz-adv-x="643" arabic-form="final" 
d="M561 0q-151 0 -233 77t-82 238v1487l82 41v-1528q0 -127 58.5 -180t174.5 -53h82v-82h-82z" />
    <glyph glyph-name="uniFE90" unicode="&#x628;" horiz-adv-x="2533" arabic-form="final" 
d="M2451 82h82v-82h-82q-275 0 -348 215q-59 -101 -174 -158t-266 -57h-1088q-219 0 -356 116t-137 302v162l82 41v-203q0 -151 113.5 -243.5t297.5 -92.5h1088q185 0 298.5 92.5t113.5 243.5v381l82 41v-422q0 -179 68.5 -257.5t225.5 -78.5zM1133 -410l100 99l98 -99
l-98 -98z" />
    <glyph glyph-name="uniFE91" unicode="&#x628;" horiz-adv-x="788" arabic-form="initial" 
d="M-80 0q-26 0 -44.5 12t-18.5 29t18.5 29t44.5 12h191q184 0 297.5 92.5t113.5 243.5v489l82 41v-530q0 -186 -137 -302t-356 -116h-191zM260 -508l-100 98l100 99l98 -99z" />
    <glyph glyph-name="uniFE92" unicode="&#x628;" horiz-adv-x="878" arabic-form="medial" 
d="M797 82h82v-82h-82q-256 0 -338 186q-84 -186 -348 -186h-191q-26 0 -44.5 12t-18.5 29t18.5 29t44.5 12h191q90 0 151.5 23.5t95.5 70t48 104.5t14 138v258l82 41v-299q0 -179 69 -257.5t226 -78.5zM262 -410l100 99l99 -99l-99 -98z" />
    <glyph glyph-name="uniFE94" unicode="&#x629;" horiz-adv-x="1243" arabic-form="final" 
d="M563 1458l-98 -98l-100 98l100 98zM911 1458l-98 -98l-100 98l100 98zM1186 82h57v-82h-63q-195 0 -246 135q-45 -63 -113.5 -99t-148.5 -36h-283q-101 0 -173.5 72.5t-72.5 173.5v334q0 186 124.5 318t301.5 132h353l71 -74v-677q0 -116 41 -156.5t152 -40.5zM672 82
q100 0 169.5 70t69.5 170v102v524h-342q-142 0 -243 -108t-101 -260v-334q0 -69 47.5 -116.5t116.5 -47.5h283z" />
    <glyph glyph-name="uniFE96" unicode="&#x62a;" horiz-adv-x="2533" arabic-form="final" 
d="M1157 1171l-98 -98l-101 98l101 99zM1505 1171l-98 -98l-100 98l100 99zM2451 82h82v-82h-82q-275 0 -348 215q-59 -101 -174 -158t-266 -57h-1088q-219 0 -356 116t-137 302v162l82 41v-203q0 -151 113.5 -243.5t297.5 -92.5h1088q185 0 298.5 92.5t113.5 243.5v381
l82 41v-422q0 -179 68.5 -257.5t225.5 -78.5z" />
    <glyph glyph-name="uniFE97" unicode="&#x62a;" horiz-adv-x="788" arabic-form="initial" 
d="M301 1141l-100 98l100 98l98 -98zM649 1141l-100 98l100 98l99 -98zM-80 0q-26 0 -44.5 12t-18.5 29t18.5 29t44.5 12h191q184 0 297.5 92.5t113.5 243.5v489l82 41v-530q0 -186 -137 -302t-356 -116h-191z" />
    <glyph glyph-name="uniFE98" unicode="&#x62a;" horiz-adv-x="878" arabic-form="medial" 
d="M379 1141l-98 -99l-101 99l101 98zM727 1141l-98 -99l-101 99l101 98zM797 82h82v-82h-82q-256 0 -338 186q-84 -186 -348 -186h-191q-26 0 -44.5 12t-18.5 29t18.5 29t44.5 12h191q90 0 151.5 23.5t95.5 70t48 104.5t14 138v258l82 41v-299q0 -179 69 -257.5t226 -78.5z
" />
    <glyph glyph-name="uniFE9A" unicode="&#x62b;" horiz-adv-x="2533" arabic-form="final" 
d="M1350 1417l-99 -98l-100 98l100 99zM1178 1171l-99 -98l-100 98l100 99zM1427 1073l-100 98l100 99l99 -99zM2451 82h82v-82h-82q-275 0 -348 215q-59 -101 -174 -158t-266 -57h-1088q-219 0 -356 116t-137 302v162l82 41v-203q0 -151 113.5 -243.5t297.5 -92.5h1088
q185 0 298.5 92.5t113.5 243.5v381l82 41v-422q0 -179 68.5 -257.5t225.5 -78.5z" />
    <glyph glyph-name="uniFE9B" unicode="&#x62b;" horiz-adv-x="788" arabic-form="initial" 
d="M453 1386l-101 99l101 98l98 -98zM281 1141l-101 98l101 98l98 -98zM629 1141l-101 98l101 98l98 -98zM-80 0q-26 0 -44.5 12t-18.5 29t18.5 29t44.5 12h191q184 0 297.5 92.5t113.5 243.5v489l82 41v-530q0 -186 -137 -302t-356 -116h-191z" />
    <glyph glyph-name="uniFE9C" unicode="&#x62b;" horiz-adv-x="878" arabic-form="medial" 
d="M502 1386l-99 -98l-100 98l100 99zM330 1141l-99 -99l-100 99l100 98zM580 1042l-101 99l101 98l98 -98zM797 82h82v-82h-82q-256 0 -338 186q-84 -186 -348 -186h-191q-26 0 -44.5 12t-18.5 29t18.5 29t44.5 12h191q90 0 151.5 23.5t95.5 70t48 104.5t14 138v258l82 41
v-299q0 -179 69 -257.5t226 -78.5z" />
    <glyph glyph-name="uniFE9E" unicode="&#x62c;" horiz-adv-x="1415" arabic-form="final" 
d="M643 -768q-225 0 -368.5 119.5t-143.5 306.5q0 186 144 305t368 119h547v379q0 201 -144 344t-346 143h-528l41 82h487q116 0 222 -45t182.5 -121.5t122 -182t45.5 -220.5v-379h143v-82h-772q-191 0 -310.5 -95.5t-119.5 -246.5q0 -153 119 -248.5t311 -95.5h178l-41 -82
h-137zM1124 -508l-100 98l100 99l99 -99z" />
    <glyph glyph-name="uniFE9F" unicode="&#x62c;" horiz-adv-x="1550" arabic-form="initial" 
d="M-80 0q-26 0 -44.5 12t-18.5 29t18.5 29t44.5 12h1364v379q0 201 -143.5 344t-345.5 143h-529l41 82h488q155 0 286.5 -76.5t208 -207.5t76.5 -285v-379l-82 -82h-1364zM754 -508l-101 98l101 99l98 -99z" />
    <glyph glyph-name="uniFEA0" unicode="&#x62c;" horiz-adv-x="1509" arabic-form="medial" 
d="M-80 0q-26 0 -44.5 12t-18.5 29t18.5 29t44.5 12h1364v379q0 201 -143.5 344t-345.5 143h-529l41 82h488q155 0 286.5 -76.5t208 -207.5t76.5 -285v-379h143v-82h-1589zM754 -508l-101 98l101 99l98 -99z" />
    <glyph glyph-name="uniFEA2" unicode="&#x62d;" horiz-adv-x="1415" arabic-form="final" 
d="M643 -768q-225 0 -368.5 119.5t-143.5 306.5q0 186 144 305t368 119h547v379q0 201 -144 344t-346 143h-528l41 82h487q116 0 222 -45t182.5 -121.5t122 -182t45.5 -220.5v-379h143v-82h-772q-191 0 -310.5 -95.5t-119.5 -246.5q0 -153 119 -248.5t311 -95.5h178l-41 -82
h-137z" />
    <glyph glyph-name="uniFEA3" unicode="&#x62d;" horiz-adv-x="1550" arabic-form="initial" 
d="M-80 0q-26 0 -44.5 12t-18.5 29t18.5 29t44.5 12h1364v379q0 201 -143.5 344t-345.5 143h-529l41 82h488q155 0 286.5 -76.5t208 -207.5t76.5 -285v-379l-82 -82h-1364z" />
    <glyph glyph-name="uniFEA4" unicode="&#x62d;" horiz-adv-x="1509" arabic-form="medial" 
d="M-80 0q-26 0 -44.5 12t-18.5 29t18.5 29t44.5 12h1364v379q0 201 -143.5 344t-345.5 143h-529l41 82h488q155 0 286.5 -76.5t208 -207.5t76.5 -285v-379h143v-82h-1589z" />
    <glyph glyph-name="uniFEA6" unicode="&#x62e;" horiz-adv-x="1415" arabic-form="final" 
d="M715 1360l-101 98l101 98l98 -98zM643 -768q-225 0 -368.5 119.5t-143.5 306.5q0 186 144 305t368 119h547v379q0 201 -144 344t-346 143h-528l41 82h487q116 0 222 -45t182.5 -121.5t122 -182t45.5 -220.5v-379h143v-82h-772q-191 0 -310.5 -95.5t-119.5 -246.5
q0 -153 119 -248.5t311 -95.5h178l-41 -82h-137z" />
    <glyph glyph-name="uniFEA7" unicode="&#x62e;" horiz-adv-x="1550" arabic-form="initial" 
d="M715 1360l-101 98l101 98l98 -98zM-80 0q-26 0 -44.5 12t-18.5 29t18.5 29t44.5 12h1364v379q0 201 -143.5 344t-345.5 143h-529l41 82h488q155 0 286.5 -76.5t208 -207.5t76.5 -285v-379l-82 -82h-1364z" />
    <glyph glyph-name="uniFEA8" unicode="&#x62e;" horiz-adv-x="1509" arabic-form="medial" 
d="M715 1360l-101 98l101 98l98 -98zM-80 0q-26 0 -44.5 12t-18.5 29t18.5 29t44.5 12h1364v379q0 201 -143.5 344t-345.5 143h-529l41 82h488q155 0 286.5 -76.5t208 -207.5t76.5 -285v-379h143v-82h-1589z" />
    <glyph glyph-name="uniFEAA" unicode="&#x62f;" horiz-adv-x="1021" arabic-form="final" 
d="M82 0l41 82h674v428q0 445 -373 469l4 82q221 -13 336 -154.5t115 -396.5v-428h143v-82h-940z" />
    <glyph glyph-name="uniFEAC" unicode="&#x630;" horiz-adv-x="1021" arabic-form="final" 
d="M469 1360l-100 98l100 98l98 -98zM82 0l41 82h674v428q0 445 -373 469l4 82q221 -13 336 -154.5t115 -396.5v-428h143v-82h-940z" />
    <glyph glyph-name="uniFEAE" unicode="&#x631;" horiz-adv-x="714" arabic-form="final" 
d="M637 82h78v-82h-78q-183 0 -254 102v-270q0 -62 -15 -126.5t-51 -134t-88.5 -128t-135.5 -105t-185 -67.5l-41 76q118 17 206 69.5t135.5 123.5t70 144.5t22.5 147.5v823l82 41v-278q0 -94 10.5 -153.5t38.5 -103t77.5 -61.5t127.5 -18z" />
    <glyph glyph-name="uniFEB0" unicode="&#x632;" horiz-adv-x="714" arabic-form="final" 
d="M440 1065l-98 -98l-100 98l100 98zM637 82h78v-82h-78q-183 0 -254 102v-270q0 -62 -15 -126.5t-51 -134t-88.5 -128t-135.5 -105t-185 -67.5l-41 76q118 17 206 69.5t135.5 123.5t70 144.5t22.5 147.5v823l82 41v-278q0 -94 10.5 -153.5t38.5 -103t77.5 -61.5t127.5 -18
z" />
    <glyph glyph-name="uniFEB2" unicode="&#x633;" horiz-adv-x="3342" arabic-form="final" 
d="M3256 82h86v-82h-86q-255 0 -336 184q-81 -184 -335 -184q-283 0 -373 188q-78 -188 -338 -188q-234 0 -334 127v-254q0 -154 -87.5 -285t-238.5 -207.5t-329 -76.5h-86q-178 0 -329 76.5t-239 207.5t-88 285v352l82 41v-393q0 -132 77 -244t209 -177.5t288 -65.5h86
q156 0 288 65.5t208.5 177.5t76.5 244v719l82 41v-215q0 -177 79.5 -256.5t254.5 -79.5q157 0 226 78.5t69 257.5v174l82 41v-215q0 -177 79.5 -256.5t254.5 -79.5q157 0 225.5 78.5t68.5 257.5v51v438l82 41v-479v-51q0 -179 69 -257.5t226 -78.5z" />
    <glyph glyph-name="uniFEB3" unicode="&#x633;" horiz-adv-x="2250" arabic-form="initial" 
d="M1985 907l81 41v-551q0 -212 -92 -314.5t-284 -102.5q-291 0 -375 200q-85 -180 -336 -180q-284 0 -371 188q-78 -188 -338 -188h-350q-26 0 -44.5 12t-18.5 29t18.5 29t44.5 12h350q157 0 226 78.5t69 257.5v174l82 41v-215q0 -177 78.5 -256.5t253.5 -79.5
q157 0 227 79t70 257v174l82 41v-236q0 -177 78.5 -256.5t253.5 -79.5q157 0 226 78.5t69 257.5v510z" />
    <glyph glyph-name="uniFEB4" unicode="&#x633;" horiz-adv-x="2447" arabic-form="medial" 
d="M2363 82h84v-82h-84q-248 0 -333 174q-78 -194 -340 -194q-291 0 -375 200q-85 -180 -336 -180q-284 0 -371 188q-78 -188 -338 -188h-350q-26 0 -44.5 12t-18.5 29t18.5 29t44.5 12h350q157 0 226 78.5t69 257.5v174l82 41v-215q0 -177 78.5 -256.5t253.5 -79.5
q157 0 227 79t70 257v174l82 41v-236q0 -177 78.5 -256.5t253.5 -79.5q157 0 226 78.5t69 257.5v510l81 41v-530q0 -178 70 -257t227 -79z" />
    <glyph glyph-name="uniFEB6" unicode="&#x634;" horiz-adv-x="3342" arabic-form="final" 
d="M2316 1432l-98 -99l-100 99l100 98zM2083 1145l-98 -98l-101 98l101 98zM2554 1145l-98 -98l-101 98l101 98zM3256 82h86v-82h-86q-255 0 -336 184q-81 -184 -335 -184q-283 0 -373 188q-78 -188 -338 -188q-234 0 -334 127v-254q0 -154 -87.5 -285t-238.5 -207.5
t-329 -76.5h-86q-178 0 -329 76.5t-239 207.5t-88 285v352l82 41v-393q0 -132 77 -244t209 -177.5t288 -65.5h86q156 0 288 65.5t208.5 177.5t76.5 244v719l82 41v-215q0 -177 79.5 -256.5t254.5 -79.5q157 0 226 78.5t69 257.5v174l82 41v-215q0 -177 79.5 -256.5
t254.5 -79.5q157 0 225.5 78.5t68.5 257.5v51v438l82 41v-479v-51q0 -179 69 -257.5t226 -78.5z" />
    <glyph glyph-name="uniFEB7" unicode="&#x634;" horiz-adv-x="2250" arabic-form="initial" 
d="M1421 1432l-98 -99l-100 99l100 98zM1188 1145l-98 -98l-101 98l101 98zM1659 1145l-98 -98l-101 98l101 98zM1985 907l81 41v-551q0 -212 -92 -314.5t-284 -102.5q-291 0 -375 200q-85 -180 -336 -180q-284 0 -371 188q-78 -188 -338 -188h-350q-26 0 -44.5 12t-18.5 29
t18.5 29t44.5 12h350q157 0 226 78.5t69 257.5v174l82 41v-215q0 -177 78.5 -256.5t253.5 -79.5q157 0 227 79t70 257v174l82 41v-236q0 -177 78.5 -256.5t253.5 -79.5q157 0 226 78.5t69 257.5v510z" />
    <glyph glyph-name="uniFEB8" unicode="&#x634;" horiz-adv-x="2447" arabic-form="medial" 
d="M1421 1432l-98 -99l-100 99l100 98zM1188 1145l-98 -98l-101 98l101 98zM1659 1145l-98 -98l-101 98l101 98zM2363 82h84v-82h-84q-248 0 -333 174q-78 -194 -340 -194q-291 0 -375 200q-85 -180 -336 -180q-284 0 -371 188q-78 -188 -338 -188h-350q-26 0 -44.5 12
t-18.5 29t18.5 29t44.5 12h350q157 0 226 78.5t69 257.5v174l82 41v-215q0 -177 78.5 -256.5t253.5 -79.5q157 0 227 79t70 257v174l82 41v-236q0 -177 78.5 -256.5t253.5 -79.5q157 0 226 78.5t69 257.5v510l81 41v-530q0 -178 70 -257t227 -79z" />
    <glyph glyph-name="uniFEBA" unicode="&#x635;" horiz-adv-x="3303" arabic-form="final" 
d="M2982 82h321v-82h-1742v-127q0 -155 -88.5 -286t-239.5 -207t-328 -76h-106q-177 0 -328 76t-239.5 207t-88.5 286v352l82 41v-393q0 -132 77 -244t209 -177.5t288 -65.5h106q156 0 288 65.5t209 177.5t77 244v954l82 41v-454q29 86 68.5 161.5t107 154t152 134t208 90.5
t270.5 35h355q181 0 309.5 -132t128.5 -318v-88q0 -113 -47 -210t-131 -159zM2730 82q150 0 249 107.5t99 261.5v88q0 152 -104 260t-252 108h-355q-114 0 -213 -22.5t-172.5 -60t-135 -91t-103 -109.5t-74 -122.5t-51 -123.5t-31.5 -118t-17.5 -101t-6.5 -77h1167z" />
    <glyph glyph-name="uniFEBB" unicode="&#x635;" horiz-adv-x="2578" arabic-form="initial" 
d="M1958 989q181 0 308.5 -132t127.5 -318v-88q0 -188 -123 -319.5t-307 -131.5h-1208q-266 0 -342 199q-102 -199 -385 -199h-109q-26 0 -44.5 12t-18.5 29t18.5 29t44.5 12h109q178 0 264 89t86 247v94l82 41v-135q0 -166 60.5 -245.5t195.5 -88.5q3 52 11.5 108.5
t34 149.5t63.5 175.5t107 172t157 153t220.5 105t291.5 41.5h356zM2312 451v88q0 154 -103 261t-251 107h-356q-114 0 -213 -22.5t-172 -60t-134 -91t-102.5 -109.5t-74.5 -122.5t-51.5 -123.5t-31 -118t-17.5 -101t-7 -77h1165q152 0 250 106.5t98 262.5z" />
    <glyph glyph-name="uniFEBC" unicode="&#x635;" horiz-adv-x="2557" arabic-form="medial" 
d="M2216 82h342v-82h-1802q-266 0 -342 199q-102 -199 -385 -199h-109q-26 0 -44.5 12t-18.5 29t18.5 29t44.5 12h109q178 0 264 89t86 247v94l82 41v-135q0 -166 60.5 -245.5t195.5 -88.5q3 52 11.5 108.5t34 149.5t63.5 175.5t107 172t157 153t220.5 105t291.5 41.5h356
q181 0 308.5 -132t127.5 -318v-88q0 -113 -47 -210t-131 -159zM1964 82q152 0 250 106.5t98 262.5v88q0 154 -103 261t-251 107h-356q-114 0 -213 -22.5t-172 -60t-134 -91t-102.5 -109.5t-74.5 -122.5t-51.5 -123.5t-31 -118t-17.5 -101t-7 -77h1165z" />
    <glyph glyph-name="uniFEBE" unicode="&#x636;" horiz-adv-x="3303" arabic-form="final" 
d="M2513 1458l-98 -98l-101 98l101 98zM2982 82h321v-82h-1742v-127q0 -155 -88.5 -286t-239.5 -207t-328 -76h-106q-177 0 -328 76t-239.5 207t-88.5 286v352l82 41v-393q0 -132 77 -244t209 -177.5t288 -65.5h106q156 0 288 65.5t209 177.5t77 244v954l82 41v-454
q29 86 68.5 161.5t107 154t152 134t208 90.5t270.5 35h355q181 0 309.5 -132t128.5 -318v-88q0 -113 -47 -210t-131 -159zM2730 82q150 0 249 107.5t99 261.5v88q0 152 -104 260t-252 108h-355q-114 0 -213 -22.5t-172.5 -60t-135 -91t-103 -109.5t-74 -122.5t-51 -123.5
t-31.5 -118t-17.5 -101t-6.5 -77h1167z" />
    <glyph glyph-name="uniFEBF" unicode="&#x636;" horiz-adv-x="2578" arabic-form="initial" 
d="M1796 1458l-98 -98l-101 98l101 98zM1958 989q181 0 308.5 -132t127.5 -318v-88q0 -188 -123 -319.5t-307 -131.5h-1208q-266 0 -342 199q-102 -199 -385 -199h-109q-26 0 -44.5 12t-18.5 29t18.5 29t44.5 12h109q178 0 264 89t86 247v94l82 41v-135q0 -166 60.5 -245.5
t195.5 -88.5q3 52 11.5 108.5t34 149.5t63.5 175.5t107 172t157 153t220.5 105t291.5 41.5h356zM2312 451v88q0 154 -103 261t-251 107h-356q-114 0 -213 -22.5t-172 -60t-134 -91t-102.5 -109.5t-74.5 -122.5t-51.5 -123.5t-31 -118t-17.5 -101t-7 -77h1165
q152 0 250 106.5t98 262.5z" />
    <glyph glyph-name="uniFEC0" unicode="&#x636;" horiz-adv-x="2557" arabic-form="medial" 
d="M1796 1458l-98 -98l-101 98l101 98zM2216 82h342v-82h-1802q-266 0 -342 199q-102 -199 -385 -199h-109q-26 0 -44.5 12t-18.5 29t18.5 29t44.5 12h109q178 0 264 89t86 247v94l82 41v-135q0 -166 60.5 -245.5t195.5 -88.5q3 52 11.5 108.5t34 149.5t63.5 175.5t107 172
t157 153t220.5 105t291.5 41.5h356q181 0 308.5 -132t127.5 -318v-88q0 -113 -47 -210t-131 -159zM1964 82q152 0 250 106.5t98 262.5v88q0 154 -103 261t-251 107h-356q-114 0 -213 -22.5t-172 -60t-134 -91t-102.5 -109.5t-74.5 -122.5t-51.5 -123.5t-31 -118t-17.5 -101
t-7 -77h1165z" />
    <glyph glyph-name="uniFEC2" unicode="&#x637;" horiz-adv-x="2146" arabic-form="final" 
d="M1825 82h321v-82h-2105l-41 82h322v1720l81 41v-1429q29 86 68.5 161.5t107.5 154t152.5 134t208 90.5t270.5 35h355q181 0 309.5 -132t128.5 -318v-88q0 -113 -47 -210t-131 -159zM406 82h1167q150 0 249 107.5t99 261.5v88q0 152 -104 260t-252 108h-355
q-114 0 -213 -22.5t-172 -60t-134.5 -91t-103 -110t-74 -123t-51.5 -123.5t-31.5 -118t-17.5 -100.5t-7 -76.5z" />
    <glyph glyph-name="uniFEC3" unicode="&#x637;" horiz-adv-x="2187" arabic-form="initial" 
d="M1565 989q181 0 309.5 -132t128.5 -318v-88q0 -188 -123 -319.5t-307 -131.5h-1653q-26 0 -44.5 12t-18.5 29t18.5 29t44.5 12h402v1720l81 41v-1429q29 86 68.5 161.5t107.5 154t152.5 134t208 90.5t270.5 35h355zM1921 451v88q0 152 -104 260t-252 108h-355
q-114 0 -213 -22.5t-172 -60t-134.5 -91t-103 -110t-74 -123t-51.5 -123.5t-31.5 -118t-17.5 -100.5t-7 -76.5h1167q150 0 249 107.5t99 261.5z" />
    <glyph glyph-name="uniFEC4" unicode="&#x637;" horiz-adv-x="2146" arabic-form="medial" 
d="M1825 82h321v-82h-2226q-26 0 -44.5 12t-18.5 29t18.5 29t44.5 12h402v1720l81 41v-1429q29 86 68.5 161.5t107.5 154t152.5 134t208 90.5t270.5 35h355q181 0 309.5 -132t128.5 -318v-88q0 -113 -47 -210t-131 -159zM406 82h1167q150 0 249 107.5t99 261.5v88
q0 152 -104 260t-252 108h-355q-114 0 -213 -22.5t-172 -60t-134.5 -91t-103 -110t-74 -123t-51.5 -123.5t-31.5 -118t-17.5 -100.5t-7 -76.5z" />
    <glyph glyph-name="uniFEC6" unicode="&#x638;" horiz-adv-x="2146" arabic-form="final" 
d="M1825 82h321v-82h-2105l-41 82h322v1720l81 41v-1429q29 86 68.5 161.5t107.5 154t152.5 134t208 90.5t270.5 35h355q181 0 309.5 -132t128.5 -318v-88q0 -113 -47 -210t-131 -159zM1243 1458l-98 -98l-101 98l101 98zM406 82h1167q150 0 249 107.5t99 261.5v88
q0 152 -104 260t-252 108h-355q-114 0 -213 -22.5t-172 -60t-134.5 -91t-103 -110t-74 -123t-51.5 -123.5t-31.5 -118t-17.5 -100.5t-7 -76.5z" />
    <glyph glyph-name="uniFEC7" unicode="&#x638;" horiz-adv-x="2187" arabic-form="initial" 
d="M1565 989q181 0 309.5 -132t128.5 -318v-88q0 -188 -123 -319.5t-307 -131.5h-1653q-26 0 -44.5 12t-18.5 29t18.5 29t44.5 12h402v1720l81 41v-1429q29 86 68.5 161.5t107.5 154t152.5 134t208 90.5t270.5 35h355zM1243 1458l-98 -98l-101 98l101 98zM1921 451v88
q0 152 -104 260t-252 108h-355q-114 0 -213 -22.5t-172 -60t-134.5 -91t-103 -110t-74 -123t-51.5 -123.5t-31.5 -118t-17.5 -100.5t-7 -76.5h1167q150 0 249 107.5t99 261.5z" />
    <glyph glyph-name="uniFEC8" unicode="&#x638;" horiz-adv-x="2146" arabic-form="medial" 
d="M1825 82h321v-82h-2226q-26 0 -44.5 12t-18.5 29t18.5 29t44.5 12h402v1720l81 41v-1429q29 86 68.5 161.5t107.5 154t152.5 134t208 90.5t270.5 35h355q181 0 309.5 -132t128.5 -318v-88q0 -113 -47 -210t-131 -159zM1243 1458l-98 -98l-101 98l101 98zM406 82h1167
q150 0 249 107.5t99 261.5v88q0 152 -104 260t-252 108h-355q-114 0 -213 -22.5t-172 -60t-134.5 -91t-103 -110t-74 -123t-51.5 -123.5t-31.5 -118t-17.5 -100.5t-7 -76.5z" />
    <glyph glyph-name="uniFECA" unicode="&#x639;" horiz-adv-x="1519" arabic-form="final" 
d="M850 209q-37 -17 -101 -45.5t-102 -46t-94 -44.5t-90 -48t-76.5 -49.5t-68 -56.5t-49 -61t-34 -70.5t-10.5 -78.5q0 -153 119 -248.5t311 -95.5h588l-41 -82h-547q-225 0 -368.5 119.5t-143.5 306.5q0 44 11 85t27 75t46.5 68t57.5 59.5t72.5 55.5t78.5 49.5t89 48t90 44
t96 44t94 43.5l-420 680l68 69h612q94 0 165.5 -34t107 -92.5t39.5 -136.5t-38 -165q-51 -113 -156.5 -197.5t-260.5 -160.5l8 -13q53 -87 98 -118t121 -31h371v-82h-371q-48 0 -88 11t-67.5 27t-54 43.5t-42.5 50.5t-37 58zM487 948l392 -633q147 72 245 148t142 172
q62 135 5 224t-206 89h-578z" />
    <glyph glyph-name="uniFECB" unicode="&#x639;" horiz-adv-x="1472" arabic-form="initial" 
d="M922 82h428l-41 -82h-1389q-26 0 -44.5 12t-18.5 29t18.5 29t44.5 12h733q-65 30 -118.5 69t-102.5 96t-76.5 137.5t-27.5 176.5q0 215 153 342t418 127h139l41 -82h-180q-231 0 -360 -103.5t-129 -283.5q0 -80 24 -148.5t60.5 -115.5t88 -85t98 -60t99.5 -38t83.5 -22
t58.5 -10z" />
    <glyph glyph-name="uniFECC" unicode="&#x639;" horiz-adv-x="1447" arabic-form="medial" 
d="M1016 82h432v-82h-432q-138 0 -223 102q-49 -49 -97.5 -75.5t-111.5 -26.5h-664q-26 0 -44.5 12t-18.5 29t18.5 29t44.5 12h664q43 0 76 19.5t83 68.5q-1 2 -6.5 12t-9.5 15l-471 755l84 78h592q110 0 186 -35.5t109 -95t28 -138t-49 -163.5q-38 -74 -142.5 -201
t-199.5 -221l-16 -16q31 -39 69.5 -58.5t98.5 -19.5zM354 948l443 -710l6 -9q95 94 195.5 216t134.5 190q33 66 39 122.5t-16 99t-79 67t-145 24.5h-578z" />
    <glyph glyph-name="uniFECE" unicode="&#x63a;" horiz-adv-x="1519" arabic-form="final" 
d="M977 1458l-98 -98l-101 98l101 98zM850 209q-37 -17 -101 -45.5t-102 -46t-94 -44.5t-90 -48t-76.5 -49.5t-68 -56.5t-49 -61t-34 -70.5t-10.5 -78.5q0 -153 119 -248.5t311 -95.5h588l-41 -82h-547q-225 0 -368.5 119.5t-143.5 306.5q0 44 11 85t27 75t46.5 68
t57.5 59.5t72.5 55.5t78.5 49.5t89 48t90 44t96 44t94 43.5l-420 680l68 69h612q94 0 165.5 -34t107 -92.5t39.5 -136.5t-38 -165q-51 -113 -156.5 -197.5t-260.5 -160.5l8 -13q53 -87 98 -118t121 -31h371v-82h-371q-48 0 -88 11t-67.5 27t-54 43.5t-42.5 50.5t-37 58z
M487 948l392 -633q147 72 245 148t142 172q62 135 5 224t-206 89h-578z" />
    <glyph glyph-name="uniFECF" unicode="&#x63a;" horiz-adv-x="1472" arabic-form="initial" 
d="M793 1458l-99 -98l-100 98l100 98zM922 82h428l-41 -82h-1389q-26 0 -44.5 12t-18.5 29t18.5 29t44.5 12h733q-65 30 -118.5 69t-102.5 96t-76.5 137.5t-27.5 176.5q0 215 153 342t418 127h139l41 -82h-180q-231 0 -360 -103.5t-129 -283.5q0 -80 24 -148.5t60.5 -115.5
t88 -85t98 -60t99.5 -38t83.5 -22t58.5 -10z" />
    <glyph glyph-name="uniFED0" unicode="&#x63a;" horiz-adv-x="1447" arabic-form="medial" 
d="M836 1458l-99 -98l-100 98l100 98zM1016 82h432v-82h-432q-138 0 -223 102q-49 -49 -97.5 -75.5t-111.5 -26.5h-664q-26 0 -44.5 12t-18.5 29t18.5 29t44.5 12h664q43 0 76 19.5t83 68.5q-1 2 -6.5 12t-9.5 15l-471 755l84 78h592q110 0 186 -35.5t109 -95t28 -138
t-49 -163.5q-38 -74 -142.5 -201t-199.5 -221l-16 -16q31 -39 69.5 -58.5t98.5 -19.5zM354 948l443 -710l6 -9q95 94 195.5 216t134.5 190q33 66 39 122.5t-16 99t-79 67t-145 24.5h-578z" />
    <glyph glyph-name="uniFED2" unicode="&#x641;" horiz-adv-x="2676" arabic-form="final" 
d="M2181 1458l-98 -98l-101 98l101 98zM2339 82h338v-82h-2040q-219 0 -356.5 116t-137.5 302v162l82 41v-203q0 -151 113.5 -243.5t298.5 -92.5h1194q-100 70 -158.5 185t-58.5 249q0 139 63 257.5t171.5 187.5t236.5 69t236 -69t170.5 -187.5t62.5 -257.5q0 -134 -58 -249
t-157 -185zM1696 516q0 -180 114 -307t275 -127t274 126.5t113 307.5q0 180 -113.5 306t-273.5 126q-161 0 -275 -126.5t-114 -305.5z" />
    <glyph glyph-name="uniFED3" unicode="&#x641;" horiz-adv-x="1384" arabic-form="initial" 
d="M829 1458l-98 -98l-100 98l100 98zM1200 516q0 -140 -62 -258.5t-169.5 -187.5t-235.5 -70h-813q-26 0 -44.5 12t-18.5 29t18.5 29t44.5 12h557q-100 70 -158.5 185t-58.5 249q0 139 63 257.5t171.5 187.5t236.5 69t236 -69t170.5 -187.5t62.5 -257.5zM731 82
q161 0 274 126.5t113 307.5q0 180 -113.5 306t-273.5 126q-161 0 -275 -126.5t-114 -305.5q0 -180 114 -307t275 -127z" />
    <glyph glyph-name="uniFED4" unicode="&#x641;" horiz-adv-x="1323" arabic-form="medial" 
d="M825 1458l-98 -98l-100 98l100 98zM985 82h338v-82h-1403q-26 0 -44.5 12t-18.5 29t18.5 29t44.5 12h557q-100 70 -158.5 185t-58.5 249q0 139 63 257.5t171.5 187.5t236.5 69t236 -69t170.5 -187.5t62.5 -257.5q0 -134 -58 -249t-157 -185zM342 516q0 -180 114 -307
t275 -127t274 126.5t113 307.5q0 180 -113.5 306t-273.5 126q-161 0 -275 -126.5t-114 -305.5z" />
    <glyph glyph-name="uniFED6" unicode="&#x642;" horiz-adv-x="1787" arabic-form="final" 
d="M1108 1341l-98 -98l-101 98l101 99zM1456 1341l-98 -98l-101 98l101 99zM1645 82h143v-82h-143q0 -320 -182 -508t-509 -188h-120q-327 0 -509 188t-182 508v113l82 41v-154q0 -286 158.5 -450t450.5 -164h120q292 0 450.5 164t158.5 450h-564q-101 0 -173 72.5
t-72 173.5v252q0 188 128 319t318 131q189 0 317 -131t128 -319v-416zM999 82h564v416q0 154 -104 261t-259 107q-156 0 -260 -107t-104 -261v-252q0 -68 48 -116t115 -48z" />
    <glyph glyph-name="uniFED7" unicode="&#x642;" horiz-adv-x="1384" arabic-form="initial" 
d="M649 1458l-98 -98l-100 98l100 98zM997 1458l-98 -98l-100 98l100 98zM1200 516q0 -140 -62 -258.5t-169.5 -187.5t-235.5 -70h-813q-26 0 -44.5 12t-18.5 29t18.5 29t44.5 12h557q-100 70 -158.5 185t-58.5 249q0 139 63 257.5t171.5 187.5t236.5 69t236 -69
t170.5 -187.5t62.5 -257.5zM731 82q161 0 274 126.5t113 307.5q0 180 -113.5 306t-273.5 126q-161 0 -275 -126.5t-114 -305.5q0 -180 114 -307t275 -127z" />
    <glyph glyph-name="uniFED8" unicode="&#x642;" horiz-adv-x="1323" arabic-form="medial" 
d="M649 1458l-98 -98l-100 98l100 98zM997 1458l-98 -98l-100 98l100 98zM985 82h338v-82h-1403q-26 0 -44.5 12t-18.5 29t18.5 29t44.5 12h557q-100 70 -158.5 185t-58.5 249q0 139 63 257.5t171.5 187.5t236.5 69t236 -69t170.5 -187.5t62.5 -257.5q0 -134 -58 -249
t-157 -185zM342 516q0 -180 114 -307t275 -127t274 126.5t113 307.5q0 180 -113.5 306t-273.5 126q-161 0 -275 -126.5t-114 -305.5z" />
    <glyph glyph-name="uniFEDA" unicode="&#x643;" horiz-adv-x="2506" arabic-form="final" 
d="M2429 82h78v-82h-78q-141 0 -221.5 49t-112.5 156q-61 -96 -174.5 -150.5t-259.5 -54.5h-1024q-219 0 -356.5 116t-137.5 302v162l82 41v-203q0 -151 113.5 -243.5t298.5 -92.5h1024q185 0 298.5 92.5t113.5 243.5v1384l81 41v-1425v-21q0 -179 59 -247t216 -68z
M1329 774q69 0 107 35.5t37 101.5q-3 131 -144 131h-145q-74 0 -91 48t40 102l243 229l41 -45l-241 -229q-27 -26 -24.5 -34.5t32.5 -8.5h145q94 0 149.5 -51.5t55.5 -141.5q0 -92 -55.5 -145t-149.5 -53h-307l-41 61h348z" />
    <glyph glyph-name="uniFEDB" unicode="&#x643;" horiz-adv-x="1630" arabic-form="initial" 
d="M1075 1882l-790 -878h637q127 0 229.5 -43.5t166 -115.5t96.5 -161.5t32 -185.5t-34.5 -183.5t-97 -158.5t-165 -113.5t-227.5 -42.5h-1002q-26 0 -44.5 12t-18.5 29t18.5 29t44.5 12h1002q106 0 192 35.5t139.5 94.5t82.5 132.5t30 153.5q1 81 -27 155.5t-81.5 135
t-140.5 97t-195 36.5h-689l-51 88l860 962z" />
    <glyph glyph-name="uniFEDC" unicode="&#x643;" horiz-adv-x="1568" arabic-form="medial" 
d="M1075 1880l-790 -932h637q127 0 229.5 -43.5t165.5 -115.5t96 -161t33 -186v-360h123v-82h-1649q-26 0 -44.5 12t-18.5 29t18.5 29t44.5 12h1446v360q0 81 -28 155.5t-81 135t-140 97t-195 36.5h-689l-51 88l862 1018z" />
    <glyph glyph-name="uniFEDE" unicode="&#x644;" horiz-adv-x="1818" arabic-form="final" 
d="M1753 82h66v-82h-66q-195 0 -274 129v-215q0 -144 -51.5 -261t-141 -192.5t-208 -116t-255.5 -40.5h-24q-137 0 -255.5 40.5t-208 116t-141 192.5t-51.5 261v311l82 41v-352q0 -128 45 -229.5t123.5 -166t182 -98.5t223.5 -34h24q120 0 223.5 34t182 98.5t123.5 166
t45 229.5v1888l82 41v-1425q0 -177 66 -256.5t208 -79.5z" />
    <glyph glyph-name="uniFEDF" unicode="&#x644;" horiz-adv-x="645" arabic-form="initial" 
d="M-80 0q-26 0 -44.5 12t-18.5 29t18.5 29t44.5 12h109q140 0 214 73.5t74 221.5v1425l82 41v-1466q0 -183 -98 -280t-272 -97h-109z" />
    <glyph glyph-name="uniFEE0" unicode="&#x644;" horiz-adv-x="714" arabic-form="medial" 
d="M653 82h62v-82h-62q-123 0 -196.5 37t-106.5 123q-94 -160 -321 -160h-109q-26 0 -44.5 12t-18.5 29t18.5 29t44.5 12h109q140 0 214 73.5t74 221.5v1425l82 41v-1466q0 -175 54.5 -235t199.5 -60z" />
    <glyph glyph-name="uniFEE2" unicode="&#x645;" horiz-adv-x="1949" arabic-form="final" 
d="M1890 82h60v-82h-60q-115 0 -187 55.5t-106 169.5q-63 -128 -180 -206t-256 -78q-188 0 -330 137t-157 334q-202 -19 -325.5 -153.5t-123.5 -334.5v-661l-82 -41v702q0 233 147.5 391.5t383.5 178.5q12 210 154 352.5t333 142.5q98 0 187.5 -41t155.5 -111.5
t105.5 -170.5t39.5 -211q3 -196 59.5 -284.5t181.5 -88.5zM1161 23q165 0 285.5 126.5t120.5 305.5q0 95 -33 180t-88.5 144t-129.5 93.5t-155 34.5q-167 0 -287 -130.5t-120 -321.5q0 -179 121 -305.5t286 -126.5z" />
    <glyph glyph-name="uniFEE3" unicode="&#x645;" horiz-adv-x="1556" arabic-form="initial" 
d="M915 989q98 0 187.5 -41t155.5 -111.5t105.5 -170.5t39.5 -211q0 -140 -66.5 -258.5t-179 -187t-242.5 -68.5q-141 0 -260 80t-180 212q-76 -233 -315 -233h-240q-26 0 -44.5 12t-18.5 29t18.5 29t44.5 12h240q260 0 266 373q0 148 67 271.5t179 193t243 69.5zM915 23
q165 0 285.5 126.5t120.5 305.5q0 95 -33 180t-88.5 144t-129.5 93.5t-155 34.5q-167 0 -287 -130.5t-120 -321.5q0 -179 121 -305.5t286 -126.5z" />
    <glyph glyph-name="uniFEE4" unicode="&#x645;" horiz-adv-x="1744" arabic-form="medial" 
d="M1686 82h59v-82h-66q-235 0 -305 229q-61 -130 -179.5 -209t-258.5 -79q-141 0 -260 80t-180 212q-76 -233 -316 -233h-260q-26 0 -44.5 12t-18.5 29t18.5 29t44.5 12h260q260 0 266 373q0 111 39.5 211t106 170.5t156.5 111.5t188 41q131 0 242.5 -69.5t178 -193
t66.5 -271.5q3 -192 69 -282.5t194 -90.5zM936 23q165 0 285 126.5t120 305.5q0 192 -119.5 322t-285.5 130q-167 0 -287.5 -130.5t-120.5 -321.5q0 -117 56 -217t150 -157.5t202 -57.5z" />
    <glyph glyph-name="uniFEE6" unicode="&#x646;" horiz-adv-x="1900" arabic-form="final" 
d="M948 776l-98 -98l-100 98l100 98zM1815 82h86v-82h-86q-195 0 -275 129v-276q0 -115 -52 -220.5t-139.5 -182t-209 -122t-254.5 -45.5h-86q-178 0 -329 76.5t-239 208t-88 285.5v372l82 41v-413q0 -132 77 -244.5t209 -178t288 -65.5h86q156 0 288 65.5t208.5 178
t76.5 244.5v639l82 40v-114q0 -177 66.5 -256.5t208.5 -79.5z" />
    <glyph glyph-name="uniFEE7" unicode="&#x646;" horiz-adv-x="788" arabic-form="initial" 
d="M449 1141l-101 98l101 98l98 -98zM-80 0q-26 0 -44.5 12t-18.5 29t18.5 29t44.5 12h191q184 0 297.5 92.5t113.5 243.5v489l82 41v-530q0 -186 -137 -302t-356 -116h-191z" />
    <glyph glyph-name="uniFEE8" unicode="&#x646;" horiz-adv-x="878" arabic-form="medial" 
d="M485 1141l-98 -99l-100 99l100 98zM797 82h82v-82h-82q-256 0 -338 186q-84 -186 -348 -186h-191q-26 0 -44.5 12t-18.5 29t18.5 29t44.5 12h191q90 0 151.5 23.5t95.5 70t48 104.5t14 138v258l82 41v-299q0 -179 69 -257.5t226 -78.5z" />
    <glyph glyph-name="uniFEEA" unicode="&#x647;" horiz-adv-x="1243" arabic-form="final" 
d="M1186 82h57v-82h-63q-195 0 -246 135q-45 -63 -113.5 -99t-148.5 -36h-283q-101 0 -173.5 72.5t-72.5 173.5v334q0 186 124.5 318t301.5 132h353l71 -74v-677q0 -116 41 -156.5t152 -40.5zM672 82q100 0 169.5 70t69.5 170v102v524h-342q-142 0 -243 -108t-101 -260v-334
q0 -69 47.5 -116.5t116.5 -47.5h283z" />
    <glyph glyph-name="uniFEEB" unicode="&#x647;" horiz-adv-x="1775" arabic-form="initial" 
d="M864 1278q147 0 271 -37.5t210.5 -101.5t147.5 -149t90 -180t29 -194q0 -93 -22.5 -180.5t-71.5 -167t-120 -139t-174 -94.5t-227 -35h-1077q-26 0 -44.5 12t-18.5 29t18.5 29t44.5 12h535q-81 59 -127.5 149t-46.5 193q0 175 124.5 298.5t299.5 123.5t299 -123.5
t124 -298.5q0 -103 -46.5 -193t-127.5 -149h43q108 0 198.5 30.5t151.5 82t103.5 120.5t62 145t19.5 156q-1 87 -26.5 170t-80 157.5t-131.5 130.5t-188 89t-242 33q-113 0 -216 -22.5t-147.5 -42t-74.5 -37.5v92q194 92 438 92zM362 424q0 -142 100 -242t243 -100
t242.5 100t99.5 242q0 141 -100.5 240.5t-241.5 99.5t-242 -99.5t-101 -240.5z" />
    <glyph glyph-name="uniFEEC" unicode="&#x647;" horiz-adv-x="1431" arabic-form="medial" 
d="M1432 82v-82h-357q89 -60 140 -150t51 -196q0 -181 -137.5 -308.5t-331.5 -127.5q-195 0 -333 127.5t-138 308.5v346h-406q-26 0 -44.5 12t-18.5 29t18.5 29t44.5 12h406v434q0 140 63 258.5t171.5 187t236.5 68.5t236 -69t170.5 -187.5t62.5 -257.5q0 -133 -58.5 -248.5
t-156.5 -185.5h381zM797 948q-161 0 -275 -126t-114 -306v-434h389q160 0 273.5 127t113.5 307t-113.5 306t-273.5 126zM1184 -346q0 147 -112.5 246.5t-274.5 99.5h-389v-346q0 -148 113.5 -251t275.5 -103q161 0 274 103t113 251z" />
    <glyph glyph-name="uniFEEE" unicode="&#x648;" horiz-adv-x="1177" arabic-form="final" 
d="M1034 82h144v-82h-144v-45q0 -319 -161 -485t-488 -166h-80l-41 82h121q292 0 429.5 142t137.5 427v45h-522q-101 0 -173.5 72.5t-72.5 173.5v293q0 186 124.5 318t301.5 132q175 0 299.5 -132t124.5 -318v-457zM430 82h522v457q0 152 -100.5 260t-241.5 108
q-142 0 -243 -108t-101 -260v-293q0 -68 48 -116t116 -48z" />
    <glyph glyph-name="uniFEF0" unicode="&#x649;" horiz-adv-x="2224" arabic-form="final" 
d="M676 -764q-166 0 -310 67.5t-234.5 184t-106.5 258.5l77 55q1 -131 78 -242t209 -176t287 -65h880q167 0 289.5 56t169.5 152.5t2 207.5q-37 90 -150.5 174.5t-258.5 148.5q-155 67 -316 213l58 62q268 -250 559 -250h315v-82h-356q178 -118 227 -238q56 -139 1 -261
t-200 -193.5t-340 -71.5h-880z" />
    <glyph glyph-name="uniFEF2" unicode="&#x64a;" horiz-adv-x="2224" arabic-form="final" 
d="M676 -764q-166 0 -310 67.5t-234.5 184t-106.5 258.5l77 55q1 -131 78 -242t209 -176t287 -65h880q167 0 289.5 56t169.5 152.5t2 207.5q-37 90 -150.5 174.5t-258.5 148.5q-155 67 -316 213l58 62q268 -250 559 -250h315v-82h-356q178 -118 227 -238q56 -139 1 -261
t-200 -193.5t-340 -71.5h-880zM1042 -1128l-100 98l100 98l99 -98zM1391 -1128l-101 98l101 98l98 -98z" />
    <glyph glyph-name="uniFEF3" unicode="&#x64a;" horiz-adv-x="788" arabic-form="initial" 
d="M-80 0q-26 0 -44.5 12t-18.5 29t18.5 29t44.5 12h191q184 0 297.5 92.5t113.5 243.5v489l82 41v-530q0 -186 -137 -302t-356 -116h-191zM137 -508l-100 98l100 99l99 -99zM485 -508l-100 98l100 99l99 -99z" />
    <glyph glyph-name="uniFEF4" unicode="&#x64a;" horiz-adv-x="878" arabic-form="medial" 
d="M797 82h82v-82h-82q-256 0 -338 186q-84 -186 -348 -186h-191q-26 0 -44.5 12t-18.5 29t18.5 29t44.5 12h191q90 0 151.5 23.5t95.5 70t48 104.5t14 138v258l82 41v-299q0 -179 69 -257.5t226 -78.5zM117 -410l100 99l98 -99l-98 -98zM465 -410l100 99l99 -99l-99 -98z
" />
    <glyph glyph-name=".notdef" horiz-adv-x="1228" 
d="M1008 1843v-2457h-779v2457h779zM819 1679h-405v-82h159v-90h-163v-82h409v82h-164v90h164v82zM655 1362h-245v-256h409v84h-164v172zM573 1278v-88h-81v88h81zM819 1040h-409v-82h163v-90h-163v-82h245v172h164v82zM819 893h-82v-164h-327v-82h409v246zM819 592h-246
v-137h82v57h82v-117h-245v197h-82v-277h409v277zM819 168h-409v-279h409v279zM737 86v-115h-245v115h245zM819 -168h-409v-80h172l-172 -117v-79h409v79h-252l172 117h80v80z" />
    <glyph glyph-name=".null" 
 />
    <glyph glyph-name="nonmarkingreturn" horiz-adv-x="682" 
 />
    <glyph glyph-name="space" unicode=" " horiz-adv-x="512" 
 />
    <glyph glyph-name="exclam" unicode="!" horiz-adv-x="634" 
d="M299 401l-25 1297h93l-29 -1297h-39zM317 -51l-112 110l112 113l113 -113z" />
    <glyph glyph-name="quotedbl" unicode="&#x22;" horiz-adv-x="823" 
d="M201 1030l-19 668h103l-23 -668h-61zM549 1030l-19 668h103l-23 -668h-61z" />
    <glyph glyph-name="numbersign" unicode="#" horiz-adv-x="1413" 
d="M1264 1030h-240l-131 -409h233l-26 -82h-232l-172 -539h-82l172 539h-327l-172 -539h-82l172 539h-254l27 82h251l131 409h-245l26 82h246l186 586h82l-186 -586h328l186 586h82l-186 -586h239zM811 621l131 409h-328l-131 -409h328z" />
    <glyph glyph-name="dollar" unicode="$" horiz-adv-x="1372" 
d="M1208 469q0 -185 -139 -319t-342 -148v-278h-82v278q-203 14 -342 148t-139 319h82q0 -155 114 -266t285 -125v786q-96 17 -179.5 52.5t-152.5 90t-109 134.5t-40 176q0 184 139 317.5t342 147.5v266h82v-266q133 -9 241 -73t169 -167.5t61 -224.5h-82q0 154 -111 263.5
t-278 123.5v-774q77 -15 143.5 -38.5t130 -62t108.5 -87.5t72 -119.5t27 -153.5zM246 1317q0 -78 32 -142.5t88.5 -109.5t126.5 -75t152 -46v760q-172 -12 -285.5 -121t-113.5 -266zM727 78q170 12 284.5 122.5t114.5 268.5q0 81 -32.5 147.5t-90 112t-126.5 75.5t-150 46
v-772z" />
    <glyph glyph-name="percent" unicode="%" horiz-adv-x="1861" 
d="M489 913q-149 0 -237 101.5t-88 273.5v193q0 170 88 271t237 101q151 0 239.5 -101t88.5 -271v-193q0 -172 -88.5 -273.5t-239.5 -101.5zM334 0l1089 1802h82l-1089 -1802h-82zM489 979q123 0 193 81.5t70 227.5v193q0 144 -70 225.5t-193 81.5q-122 0 -191 -81.5
t-69 -225.5v-193q0 -145 69 -227t191 -82zM1370 0q-149 0 -237.5 101.5t-88.5 273.5v192q0 170 88.5 271.5t237.5 101.5q151 0 239.5 -101t88.5 -272v-192q0 -172 -88.5 -273.5t-239.5 -101.5zM1370 66q123 0 192.5 81.5t69.5 227.5v192q0 145 -69.5 226t-192.5 81
q-122 0 -191 -81.5t-69 -225.5v-192q0 -145 69 -227t191 -82z" />
    <glyph glyph-name="ampersand" unicode="&#x26;" horiz-adv-x="1751" 
d="M895 -379l-82 41v338h-272q-163 0 -270 107t-107 270v276q0 163 107 270t270 107h272v395q0 119 77 196t195 77h72q119 0 196 -77t77 -196v-395l-82 -82h-453v-866h713l-41 -82h-672v-379zM895 1030h453v397q0 82 -53.5 135.5t-135.5 53.5h-76q-82 0 -135 -53.5
t-53 -135.5v-397zM539 82h274v866h-274q-126 0 -209.5 -83.5t-83.5 -209.5v-280q0 -126 83.5 -209.5t209.5 -83.5z" />
    <glyph glyph-name="quotesingle" unicode="'" horiz-adv-x="512" 
d="M223 1030l-18 668h102l-22 -668h-62z" />
    <glyph glyph-name="parenleft" unicode="(" horiz-adv-x="786" 
d="M500 -557l-242 754q-54 167 -54.5 321.5t52.5 321.5l244 776h82l-244 -776q-53 -167 -52.5 -321.5t54.5 -321.5l242 -754h-82z" />
    <glyph glyph-name="parenright" unicode=")" horiz-adv-x="786" 
d="M287 -557h-82l241 754q54 167 54.5 321.5t-51.5 321.5l-244 776h82l243 -776q53 -167 52.5 -321.5t-54.5 -321.5z" />
    <glyph glyph-name="asterisk" unicode="*" horiz-adv-x="1155" 
d="M950 1212l-291 -165l291 -168l-41 -72l-291 168v-336h-81v336l-291 -168l-41 72l291 168l-291 165l41 72l291 -168v336h81v-336l291 168z" />
    <glyph glyph-name="plus" unicode="+" horiz-adv-x="1239" 
d="M1075 498v-82h-413v-416h-82v414h-416v82h414v415h81v-413h416z" />
    <glyph glyph-name="comma" unicode="," horiz-adv-x="585" 
d="M254 -215l-49 25l100 190q-37 11 -59 44t-15 71q7 40 41.5 63t75.5 17q35 -8 58.5 -36t23.5 -63q0 -26 -20 -61z" />
    <glyph glyph-name="hyphen" unicode="-" horiz-adv-x="1138" 
d="M143 551v82h852v-82h-852z" />
    <glyph glyph-name="period" unicode="." horiz-adv-x="614" 
d="M307 0l-102 100l102 103l103 -103z" />
    <glyph glyph-name="slash" unicode="/" horiz-adv-x="970" 
d="M102 -180l684 2023h82l-684 -2023h-82z" />
    <glyph glyph-name="zero" unicode="0" horiz-adv-x="1550" 
d="M774 -41q-261 0 -415 177t-154 478v531q0 301 154 478t415 177q263 0 417.5 -176.5t154.5 -478.5v-531q0 -301 -154.5 -478t-417.5 -177zM774 41q228 0 359 153t131 420v531q0 268 -131 420.5t-359 152.5q-226 0 -356.5 -152.5t-130.5 -420.5v-531q0 -267 130.5 -420
t356.5 -153z" />
    <glyph glyph-name="one" unicode="1" horiz-adv-x="1138" 
d="M668 0v1591l-402 -432l-61 58l493 528h52v-1745h-82z" />
    <glyph glyph-name="two" unicode="2" horiz-adv-x="1380" 
d="M225 0l-32 66l466 524q18 19 60.5 63.5t64 67t61.5 66t62 69.5t55.5 67.5t52 71t41 68.5t34.5 70.5t20 67t8 67.5q0 180 -124.5 307t-301.5 127t-301.5 -127t-124.5 -307h-82q0 140 68 259t185 188t255 69t255 -69t185 -188t68 -259q0 -85 -35.5 -174t-116 -192.5
t-129.5 -158.5t-156 -165q-30 -31 -44 -46l-408 -450h926v-82h-1012z" />
    <glyph glyph-name="three" unicode="3" horiz-adv-x="1343" 
d="M672 -41q-138 0 -255 69t-185 188t-68 259h82q0 -180 124.5 -307t301.5 -127q208 0 334.5 107t126.5 280q0 191 -150 297t-414 115v67q254 12 386 112.5t132 276.5q0 175 -116.5 290.5t-298.5 115.5q-177 0 -301.5 -127t-124.5 -307h-82q0 140 68 259t185 188t255 69
q215 0 356 -140t141 -348q0 -146 -77 -256t-226 -166q160 -48 254 -161t94 -285q0 -208 -150 -338.5t-392 -130.5z" />
    <glyph glyph-name="four" unicode="4" horiz-adv-x="1456" 
d="M1313 463v-82h-293v-381h-82v381h-795v94l813 1315l70 -45l-795 -1282h707v483h82v-483h293z" />
    <glyph glyph-name="five" unicode="5" horiz-adv-x="1466" 
d="M725 -45q-204 0 -358.5 126t-202.5 322l78 33q37 -174 170.5 -286.5t312.5 -112.5q213 0 354.5 141t141.5 354q0 117 -35.5 208t-94 145t-135 88t-158 44t-164.5 6t-152.5 -19.5t-123.5 -38.5l-67 51v729h839v-82h-757v-604q49 16 107 27.5t125.5 15.5t135.5 0.5t137 -20
t131 -43.5t116 -73t93.5 -105.5t62 -143.5t22.5 -185q0 -163 -75.5 -295t-208 -207t-294.5 -75z" />
    <glyph glyph-name="six" unicode="6" horiz-adv-x="1384" 
d="M692 1112q112 0 213.5 -45.5t175 -123t117 -184.5t43.5 -224q0 -157 -73.5 -290t-200 -210.5t-275.5 -77.5t-275.5 77.5t-200 210.5t-73.5 290q0 175 90 317q14 23 46 63l636 879l66 -49l-502 -678q102 45 213 45zM692 39q127 0 234.5 66.5t170 180.5t62.5 249t-62.5 249
t-170 180t-234.5 66t-234.5 -66t-170 -180t-62.5 -249t62.5 -249t170 -180.5t234.5 -66.5z" />
    <glyph glyph-name="seven" unicode="7" horiz-adv-x="1284" 
d="M328 -8l-74 41l817 1630h-846v-336h-82v418h998v-127z" />
    <glyph glyph-name="eight" unicode="8" horiz-adv-x="1495" 
d="M969 903q163 -56 262.5 -178.5t99.5 -275.5q0 -133 -78 -246.5t-212.5 -179.5t-292.5 -66q-119 0 -227 39t-186 105.5t-124.5 157.5t-46.5 190q0 153 99.5 275.5t262.5 178.5q-128 57 -206 166t-78 242q0 123 67.5 227t184 164.5t254.5 60.5q209 0 357 -132.5t148 -319.5
q0 -132 -78 -242t-206 -166zM324 1311q0 -153 124 -262t300 -109q174 0 298.5 109.5t124.5 261.5q0 154 -124 262t-299 108q-177 0 -300.5 -108t-123.5 -262zM748 39q208 0 354.5 121t146.5 289q0 169 -146 289t-355 120q-137 0 -252.5 -55t-182.5 -149t-67 -205t67 -205.5
t182.5 -149.5t252.5 -55z" />
    <glyph glyph-name="nine" unicode="9" horiz-adv-x="1384" 
d="M1151 864q-17 -28 -45 -63l-637 -879l-66 49l502 678q-102 -45 -213 -45q-149 0 -275.5 77.5t-200 210.5t-73.5 290q0 117 43.5 224t117 184.5t175 123t213.5 45.5t213.5 -45.5t175 -123t117 -184.5t43.5 -224q0 -176 -90 -318zM225 1182q0 -135 62.5 -249t170 -180.5
t234.5 -66.5t234.5 66.5t170 180.5t62.5 249t-62.5 249t-170 180t-234.5 66t-234.5 -66t-170 -180t-62.5 -249z" />
    <glyph glyph-name="colon" unicode=":" horiz-adv-x="610" 
d="M307 768l-102 100l102 103l103 -103zM307 0l-102 100l102 103l103 -103z" />
    <glyph glyph-name="semicolon" unicode=";" horiz-adv-x="653" 
d="M332 594l-103 100l103 103l102 -103zM268 -215l-49 25l100 190q-37 11 -58.5 44t-14.5 71q7 40 41 63t75 17q35 -8 58.5 -36t23.5 -63q0 -26 -20 -61z" />
    <glyph glyph-name="less" unicode="&#x3c;" horiz-adv-x="1239" 
d="M1075 901v-82l-819 -366l819 -371v-82l-911 412v82z" />
    <glyph glyph-name="equal" unicode="=" horiz-adv-x="1239" 
d="M164 700v82l911 2v-82zM164 182v82l911 2v-82z" />
    <glyph glyph-name="greater" unicode="&#x3e;" horiz-adv-x="1239" 
d="M164 901l911 -407v-82l-911 -412v82l821 371l-821 366v82z" />
    <glyph glyph-name="question" unicode="?" horiz-adv-x="1302" 
d="M565 422v110q0 30 4.5 58.5t10 50.5t19 46t22 40t29 37.5t30.5 32t36 31.5t35 27.5t39 28.5t37 27q48 35 78 62.5t62 68t47.5 91t15.5 112.5q0 168 -108.5 280.5t-270.5 112.5q-161 0 -270 -114t-109 -279h-82q0 195 134.5 332t326.5 137t326.5 -137t134.5 -332
q0 -73 -19 -132.5t-58.5 -107t-72.5 -76t-90 -69.5q-104 -75 -140 -110q-91 -92 -91 -218v-110h-76zM604 -43l-112 111l112 112l113 -112z" />
    <glyph glyph-name="bracketleft" unicode="[" horiz-adv-x="673" 
d="M143 -475v2173h387v-82h-305v-2009h305v-82h-387z" />
    <glyph glyph-name="backslash" unicode="\" horiz-adv-x="970" 
d="M786 -180l-684 2023h82l684 -2023h-82z" />
    <glyph glyph-name="bracketright" unicode="]" horiz-adv-x="673" 
d="M530 -475h-387v82h306v2009h-306v82h387v-2173z" />
    <glyph glyph-name="asciicircum" unicode="^" horiz-adv-x="1269" 
d="M1085 1030h-81l-371 600l-367 -600h-82l408 668h82z" />
    <glyph glyph-name="underscore" unicode="_" horiz-adv-x="1241" 
d="M143 -82v82h955v-82h-955z" />
    <glyph glyph-name="braceleft" unicode="{" horiz-adv-x="1040" 
d="M561 946q0 -250 -176 -336q176 -86 176 -336v-372q0 -148 74.5 -221.5t214.5 -73.5h47v-82h-47q-175 0 -273 97t-98 280v372q0 148 -74.5 221.5t-214.5 73.5h-47v82h47q140 0 214.5 73.5t74.5 221.5v375q0 183 98 280t273 97h47v-82h-47q-140 0 -214.5 -73.5
t-74.5 -221.5v-375z" />
    <glyph glyph-name="bar" unicode="|" horiz-adv-x="696" 
d="M307 -614v2457h82v-2457h-82z" />
    <glyph glyph-name="braceright" unicode="}" horiz-adv-x="1054" 
d="M864 651h47v-82h-47q-140 0 -214.5 -73.5t-74.5 -221.5v-372q0 -183 -98 -280t-272 -97h-47v82h47q140 0 214.5 73.5t74.5 221.5v372q0 250 176 336q-176 86 -176 336v375q0 148 -74.5 221.5t-214.5 73.5h-47v82h47q174 0 272 -97t98 -280v-375q0 -148 74.5 -221.5
t214.5 -73.5z" />
    <glyph glyph-name="exclamdown" unicode="&#xa1;" horiz-adv-x="610" 
d="M313 1640l113 -110l-113 -113l-112 113zM295 1188h39l28 -1297h-92z" />
    <glyph glyph-name="guillemotleft" unicode="&#xab;" horiz-adv-x="1026" 
d="M483 0l-340 512l340 518h80l-315 -518l315 -512h-80zM831 0l-339 512l339 518h80l-315 -518l315 -512h-80z" />
    <glyph glyph-name="degree" unicode="&#xb0;" horiz-adv-x="925" 
d="M463 1030q-131 0 -215 84t-84 215t84 215t215 84t215 -84t84 -215t-84 -215t-215 -84zM463 1102q92 0 159.5 67.5t67.5 159.5t-67.5 159.5t-159.5 67.5t-159.5 -67.5t-67.5 -159.5t67.5 -159.5t159.5 -67.5z" />
    <glyph glyph-name="plusminus" unicode="&#xb1;" horiz-adv-x="1243" 
d="M582 217v414h-416v82h414v415h82v-413h415v-82h-413v-416h-82zM164 82h915v-82h-915v82z" />
    <glyph glyph-name="periodcentered" unicode="&#xb7;" horiz-adv-x="651" 
d="M326 322l-103 100l103 102l102 -102z" />
    <glyph glyph-name="guillemotright" unicode="&#xbb;" horiz-adv-x="1026" 
d="M195 0h-80l315 512l-315 518h80l340 -518zM543 0h-80l315 512l-315 518h80l340 -518z" />
    <glyph glyph-name="questiondown" unicode="&#xbf;" horiz-adv-x="1302" 
d="M698 1698l113 -111l-113 -112l-112 112zM737 1233v-111q0 -30 -4.5 -58.5t-10 -50.5t-19 -46t-22 -40t-29 -37.5t-30.5 -32t-36 -31.5t-35 -27.5t-39 -28.5t-37 -27q-48 -35 -78 -62t-62 -67.5t-47.5 -91t-15.5 -112.5q0 -168 108.5 -281t270.5 -113q160 0 269.5 114.5
t109.5 279.5h82q0 -195 -134.5 -332t-326.5 -137t-326.5 137t-134.5 332q0 73 19 132.5t58.5 107t72.5 76t90 69.5q103 74 137 107q95 94 95 220v111h75z" />
    <glyph glyph-name="multiply" unicode="&#xd7;" horiz-adv-x="1030" 
d="M866 750l-293 -293l293 -293l-57 -60l-293 293l-293 -293l-59 58l293 293l-293 293l57 59l293 -293l293 293z" />
    <glyph glyph-name="divide" unicode="&#xf7;" horiz-adv-x="1239" 
d="M621 739l-101 99l101 98l98 -98zM164 414v82l911 2v-82zM621 0l-101 98l101 99l98 -99z" />
    <glyph glyph-name="uni060C" unicode="&#x60c;" horiz-adv-x="585" 
d="M356 412l50 -25l-101 -190q37 -11 59 -44t15 -71q-7 -40 -41.5 -63t-75.5 -17q-35 8 -58.5 35.5t-23.5 62.5q0 25 21 62z" />
    <glyph glyph-name="uni061B" unicode="&#x61b;" horiz-adv-x="628" 
d="M385 999l49 -24l-100 -191q37 -11 59 -43.5t15 -70.5q-7 -40 -41.5 -63t-75.5 -17q-35 8 -58.5 35.5t-23.5 62.5q0 27 20 62zM322 190l102 -100l-102 -102l-103 102z" />
    <glyph glyph-name="uni061F" unicode="&#x61f;" horiz-adv-x="1302" 
d="M737 422h-75v110q0 58 -15 104t-54.5 88t-62.5 61.5t-84 62.5q-11 8 -16 12q-57 41 -90 69.5t-72.5 76t-58.5 107t-19 132.5q0 195 134.5 332t326.5 137t326.5 -137t134.5 -332h-82q0 165 -109 279t-270 114q-162 0 -270.5 -112.5t-108.5 -280.5q0 -62 15.5 -112.5
t47.5 -91t62 -68t78 -62.5q7 -5 37 -27t39 -28.5t35 -27.5t36 -31.5t30.5 -32t29 -37.5t22 -40t19 -46t10 -50.5t4.5 -58.5v-110zM698 -43l-112 111l112 112l113 -112z" />
    <glyph glyph-name="uni0621" unicode="&#x621;" horiz-adv-x="1222" 
d="M1104 82l-41 -82h-920l41 82h144v295q0 256 114.5 397t335.5 154l33 2l-29 -84q-372 -24 -372 -469v-295h694z" />
    <glyph glyph-name="uni0622" unicode="&#x622;" horiz-adv-x="573" 
d="M-53 1630l-62 21q28 130 117 175.5t203 -14.5q19 -10 56.5 -32t57 -32.5t53 -25.5t54 -18.5t49 -3.5t50 11.5t46 34.5t45.5 58l54 -41q-25 -41 -52 -70t-55.5 -43t-55.5 -21t-57.5 -2t-56 12t-57.5 23t-54.5 28.5t-54.5 31.5t-51 29q-86 45 -147.5 12t-81.5 -133zM246 0
v1495l82 41v-1536h-82z" />
    <glyph glyph-name="uni0623" unicode="&#x623;" horiz-adv-x="573" 
d="M553 1755l-39 -69h-463l39 69h57v78q0 120 66.5 191t175.5 79l25 -67q-91 0 -144 -51.5t-53 -151.5v-78h336zM246 0v1495l82 41v-1536h-82z" />
    <glyph glyph-name="uni0624" unicode="&#x624;" horiz-adv-x="1218" 
d="M373 1290l39 70h57v78q0 120 66.5 191t175.5 79l24 -68q-91 0 -143.5 -51t-52.5 -151v-78h335l-38 -70h-463zM610 989q175 0 299.5 -132t124.5 -318v-584q0 -319 -161 -485t-488 -166h-80l-41 82h121q292 0 429.5 142t137.5 427v45h-522q-101 0 -173.5 72.5t-72.5 173.5
v293q0 186 124.5 318t301.5 132zM952 82v457q0 152 -100.5 260t-241.5 108q-142 0 -243 -108t-101 -260v-293q0 -68 48 -116t116 -48h522z" />
    <glyph glyph-name="uni0625" unicode="&#x625;" horiz-adv-x="573" 
d="M328 1843v-1843h-82v1802zM555 -500l-39 -69h-463l39 69h58v78q0 121 66 191.5t175 78.5l25 -67q-91 0 -144 -51.5t-53 -151.5v-78h336z" />
    <glyph glyph-name="uni0626" unicode="&#x626;" horiz-adv-x="2285" 
d="M254 797l43 77h63v87q0 132 73.5 209.5t193.5 86.5l26 -75q-100 0 -158.5 -56t-58.5 -165v-87h371l-43 -77h-510zM1667 356q107 -50 183.5 -95.5t141.5 -100.5t98 -118.5t32 -135.5q-1 -111 -73 -198t-200.5 -135t-292.5 -48h-778q-133 0 -248 45t-195 121.5t-125.5 181
t-45.5 221.5v373l82 41v-414q0 -100 39 -189.5t107.5 -155t169 -104t216.5 -38.5h778q213 0 347 83.5t137 217.5q1 56 -26.5 106.5t-86.5 97.5t-121.5 84.5t-160.5 86.5q-28 14 -79.5 38t-82 38.5t-75 41t-72 48.5t-59 57t-48.5 72t-29 87.5t-12 108.5q0 178 126.5 292
t323.5 114q77 0 147.5 -25t122.5 -66t85 -76.5t59 -72.5l-53 -70q-14 22 -30.5 44.5t-51.5 58t-73 61t-93 45t-113 19.5q-164 0 -266 -89.5t-102 -234.5q0 -46 8.5 -85t23 -70.5t42 -61t55 -52.5t74 -50t88 -48t106.5 -51z" />
    <glyph glyph-name="uni0627" unicode="&#x627;" horiz-adv-x="573" 
d="M246 0v1802l82 41v-1843h-82z" />
    <glyph glyph-name="uni0628" unicode="&#x628;" horiz-adv-x="2338" 
d="M575 0q-219 0 -356 116t-137 302v162l82 41v-203q0 -151 113.5 -243.5t297.5 -92.5h1086q185 0 298.5 92.5t113.5 243.5v489l81 41v-530q0 -186 -137 -302t-356 -116h-1086zM1212 -508l-100 98l100 99l99 -99z" />
    <glyph glyph-name="uni0629" unicode="&#x629;" horiz-adv-x="1193" 
d="M403 1360l-100 98l100 98l99 -98zM752 1360l-101 98l101 98l98 -98zM389 0q-101 0 -173.5 72.5t-72.5 173.5v334q0 186 124.5 318t301.5 132h15q177 0 301.5 -132t124.5 -318v-334q0 -101 -72.5 -173.5t-173.5 -72.5h-375zM389 82h375q69 0 116.5 47.5t47.5 116.5v334
q0 152 -101 260t-243 108h-15q-142 0 -243 -108t-101 -260v-334q0 -69 47.5 -116.5t116.5 -47.5z" />
    <glyph glyph-name="uni062A" unicode="&#x62a;" horiz-adv-x="2338" 
d="M1059 1073l-101 98l101 99l98 -99zM1407 1073l-100 98l100 99l98 -99zM575 0q-219 0 -356 116t-137 302v162l82 41v-203q0 -151 113.5 -243.5t297.5 -92.5h1086q185 0 298.5 92.5t113.5 243.5v489l81 41v-530q0 -186 -137 -302t-356 -116h-1086z" />
    <glyph glyph-name="uni062B" unicode="&#x62b;" horiz-adv-x="2338" 
d="M1231 1319l-101 98l101 99l98 -99zM1059 1073l-101 98l101 99l98 -99zM1407 1073l-100 98l100 99l98 -99zM575 0q-219 0 -356 116t-137 302v162l82 41v-203q0 -151 113.5 -243.5t297.5 -92.5h1086q185 0 298.5 92.5t113.5 243.5v489l81 41v-530q0 -186 -137 -302
t-356 -116h-1086z" />
    <glyph glyph-name="uni062C" unicode="&#x62c;" horiz-adv-x="1468" 
d="M655 -696q-225 0 -368.5 119.5t-143.5 306.5q0 96 30.5 180.5t80 148t121 117.5t145 91t161 67.5t159.5 48.5t150 31.5t123.5 18.5t88.5 9v86q0 201 -143.5 344.5t-345.5 143.5h-529l41 82h488q116 0 222 -45.5t182 -122t121.5 -182t45.5 -220.5v-98l-72 -70
q-37 -3 -80 -7.5t-114.5 -16t-139.5 -27t-149 -42.5t-150.5 -60t-136 -81t-113.5 -104t-75.5 -131.5t-28.5 -160.5q0 -153 119 -248.5t311 -95.5h588l-41 -82h-547zM1001 -305l-100 98l100 98l99 -98z" />
    <glyph glyph-name="uni062D" unicode="&#x62d;" horiz-adv-x="1468" 
d="M655 -696q-225 0 -368.5 119.5t-143.5 306.5q0 96 30.5 180.5t80 148t121 117.5t145 91t161 67.5t159.5 48.5t150 31.5t123.5 18.5t88.5 9v86q0 201 -143.5 344.5t-345.5 143.5h-529l41 82h488q116 0 222 -45.5t182 -122t121.5 -182t45.5 -220.5v-98l-72 -70
q-37 -3 -80 -7.5t-114.5 -16t-139.5 -27t-149 -42.5t-150.5 -60t-136 -81t-113.5 -104t-75.5 -131.5t-28.5 -160.5q0 -153 119 -248.5t311 -95.5h588l-41 -82h-547z" />
    <glyph glyph-name="uni062E" unicode="&#x62e;" horiz-adv-x="1468" 
d="M715 1360l-101 98l101 98l98 -98zM655 -696q-225 0 -368.5 119.5t-143.5 306.5q0 96 30.5 180.5t80 148t121 117.5t145 91t161 67.5t159.5 48.5t150 31.5t123.5 18.5t88.5 9v86q0 201 -143.5 344.5t-345.5 143.5h-529l41 82h488q116 0 222 -45.5t182 -122t121.5 -182
t45.5 -220.5v-98l-72 -70q-37 -3 -80 -7.5t-114.5 -16t-139.5 -27t-149 -42.5t-150.5 -60t-136 -81t-113.5 -104t-75.5 -131.5t-28.5 -160.5q0 -153 119 -248.5t311 -95.5h588l-41 -82h-547z" />
    <glyph glyph-name="uni062F" unicode="&#x62f;" horiz-adv-x="1062" 
d="M82 0l41 82h674v428q0 445 -373 469l4 82q221 -13 336 -154.5t115 -396.5v-510h-797z" />
    <glyph glyph-name="uni0630" unicode="&#x630;" horiz-adv-x="1062" 
d="M469 1360l-100 98l100 98l98 -98zM82 0l41 82h674v428q0 445 -373 469l4 82q221 -13 336 -154.5t115 -396.5v-510h-797z" />
    <glyph glyph-name="uni0631" unicode="&#x631;" horiz-adv-x="567" 
d="M-92 -729l-41 76q118 17 206 69.5t135.5 123.5t70 144.5t22.5 147.5v823l82 41v-864q0 -62 -15 -126.5t-51 -134t-88.5 -128t-135.5 -105t-185 -67.5z" />
    <glyph glyph-name="uni0632" unicode="&#x632;" horiz-adv-x="567" 
d="M342 967l-100 98l100 98l98 -98zM-92 -729l-41 76q118 17 206 69.5t135.5 123.5t70 144.5t22.5 147.5v823l82 41v-864q0 -62 -15 -126.5t-51 -134t-88.5 -128t-135.5 -105t-185 -67.5z" />
    <glyph glyph-name="uni0633" unicode="&#x633;" horiz-adv-x="3145" 
d="M2879 907l82 41v-530q0 -213 -92 -315.5t-284 -102.5q-283 0 -373 188q-78 -188 -338 -188q-234 0 -334 127v-254q0 -154 -87.5 -285t-238.5 -207.5t-329 -76.5h-86q-178 0 -329 76.5t-239 207.5t-88 285v352l82 41v-393q0 -132 77 -244t209 -177.5t288 -65.5h86
q156 0 288 65.5t208.5 177.5t76.5 244v719l82 41v-215q0 -177 79.5 -256.5t254.5 -79.5q157 0 226 78.5t69 257.5v174l82 41v-215q0 -177 79.5 -256.5t254.5 -79.5q157 0 225.5 78.5t68.5 257.5v489z" />
    <glyph glyph-name="uni0634" unicode="&#x634;" horiz-adv-x="3145" 
d="M2316 1432l-98 -99l-100 99l100 98zM2083 1145l-98 -98l-101 98l101 98zM2554 1145l-98 -98l-101 98l101 98zM2879 907l82 41v-530q0 -213 -92 -315.5t-284 -102.5q-283 0 -373 188q-78 -188 -338 -188q-234 0 -334 127v-254q0 -154 -87.5 -285t-238.5 -207.5t-329 -76.5
h-86q-178 0 -329 76.5t-239 207.5t-88 285v352l82 41v-393q0 -132 77 -244t209 -177.5t288 -65.5h86q156 0 288 65.5t208.5 177.5t76.5 244v719l82 41v-215q0 -177 79.5 -256.5t254.5 -79.5q157 0 226 78.5t69 257.5v174l82 41v-215q0 -177 79.5 -256.5t254.5 -79.5
q157 0 225.5 78.5t68.5 257.5v489z" />
    <glyph glyph-name="uni0635" unicode="&#x635;" horiz-adv-x="3344" 
d="M2722 989q181 0 309.5 -132t128.5 -318v-88q0 -188 -123 -319.5t-307 -131.5h-1169v-127q0 -155 -88.5 -286t-239.5 -207t-328 -76h-106q-177 0 -328 76t-239.5 207t-88.5 286v352l82 41v-393q0 -132 77 -244t209 -177.5t288 -65.5h106q156 0 288 65.5t209 177.5t77 244
v954l82 41v-454q29 86 68.5 161.5t107 154t152 134t208 90.5t270.5 35h355zM3078 451v88q0 152 -104 260t-252 108h-355q-114 0 -213 -22.5t-172.5 -60t-135 -91t-103 -109.5t-74 -122.5t-51 -123.5t-31.5 -118t-17.5 -101t-6.5 -77h1167q150 0 249 107.5t99 261.5z" />
    <glyph glyph-name="uni0636" unicode="&#x636;" horiz-adv-x="3344" 
d="M2513 1458l-98 -98l-101 98l101 98zM2722 989q181 0 309.5 -132t128.5 -318v-88q0 -188 -123 -319.5t-307 -131.5h-1169v-127q0 -155 -88.5 -286t-239.5 -207t-328 -76h-106q-177 0 -328 76t-239.5 207t-88.5 286v352l82 41v-393q0 -132 77 -244t209 -177.5t288 -65.5
h106q156 0 288 65.5t209 177.5t77 244v954l82 41v-454q29 86 68.5 161.5t107 154t152 134t208 90.5t270.5 35h355zM3078 451v88q0 152 -104 260t-252 108h-355q-114 0 -213 -22.5t-172.5 -60t-135 -91t-103 -109.5t-74 -122.5t-51 -123.5t-31.5 -118t-17.5 -101t-6.5 -77
h1167q150 0 249 107.5t99 261.5z" />
    <glyph glyph-name="uni0637" unicode="&#x637;" horiz-adv-x="2187" 
d="M1565 989q181 0 309.5 -132t128.5 -318v-88q0 -188 -123 -319.5t-307 -131.5h-1532l-41 82h322v1720l81 41v-1429q29 86 68.5 161.5t107.5 154t152.5 134t208 90.5t270.5 35h355zM1921 451v88q0 152 -104 260t-252 108h-355q-114 0 -213 -22.5t-172 -60t-134.5 -91
t-103 -110t-74 -123t-51.5 -123.5t-31.5 -118t-17.5 -100.5t-7 -76.5h1167q150 0 249 107.5t99 261.5z" />
    <glyph glyph-name="uni0638" unicode="&#x638;" horiz-adv-x="2187" 
d="M1565 989q181 0 309.5 -132t128.5 -318v-88q0 -188 -123 -319.5t-307 -131.5h-1532l-41 82h322v1720l81 41v-1429q29 86 68.5 161.5t107.5 154t152.5 134t208 90.5t270.5 35h355zM1243 1458l-98 -98l-101 98l101 98zM1921 451v88q0 152 -104 260t-252 108h-355
q-114 0 -213 -22.5t-172 -60t-134.5 -91t-103 -110t-74 -123t-51.5 -123.5t-31.5 -118t-17.5 -100.5t-7 -76.5h1167q150 0 249 107.5t99 261.5z" />
    <glyph glyph-name="uni0639" unicode="&#x639;" horiz-adv-x="1429" 
d="M225 -188q0 -153 119 -248.5t311 -95.5h588l-41 -82h-547q-225 0 -368.5 119.5t-143.5 306.5q0 348 379 538q-34 20 -65.5 43t-69 61.5t-64 82t-45 104t-18.5 127.5q0 215 150.5 335t418.5 120h142l41 -82h-183q-234 0 -360.5 -96.5t-126.5 -276.5q0 -68 22.5 -128.5
t53.5 -99t73 -72t69.5 -48.5t55.5 -27q132 54 288 87t246 40l91 6l4 -82q-13 0 -35.5 -1.5t-92.5 -9.5t-137.5 -20t-159.5 -36.5t-170.5 -55.5t-159 -80.5t-137.5 -108.5t-92.5 -141.5t-35.5 -178.5z" />
    <glyph glyph-name="uni063A" unicode="&#x63a;" horiz-adv-x="1429" 
d="M772 1599l-98 -98l-101 98l101 99zM225 -188q0 -153 119 -248.5t311 -95.5h588l-41 -82h-547q-225 0 -368.5 119.5t-143.5 306.5q0 348 379 538q-34 20 -65.5 43t-69 61.5t-64 82t-45 104t-18.5 127.5q0 215 150.5 335t418.5 120h142l41 -82h-183q-234 0 -360.5 -96.5
t-126.5 -276.5q0 -68 22.5 -128.5t53.5 -99t73 -72t69.5 -48.5t55.5 -27q132 54 288 87t246 40l91 6l4 -82q-13 0 -35.5 -1.5t-92.5 -9.5t-137.5 -20t-159.5 -36.5t-170.5 -55.5t-159 -80.5t-137.5 -108.5t-92.5 -141.5t-35.5 -178.5z" />
    <glyph glyph-name="uni0640" unicode="&#x640;" horiz-adv-x="428" 
d="M-80 0q-26 0 -44.5 12t-18.5 29t18.5 29t44.5 12h508v-82h-508z" />
    <glyph glyph-name="uni0641" unicode="&#x641;" horiz-adv-x="2738" 
d="M2181 1458l-98 -98l-101 98l101 98zM2085 1030q128 0 236 -69t170.5 -187.5t62.5 -257.5q0 -140 -62.5 -259t-170.5 -188t-236 -69h-1448q-219 0 -356.5 116t-137.5 302v162l82 41v-203q0 -151 113.5 -243.5t298.5 -92.5h1194q-100 70 -158.5 185t-58.5 249
q0 139 63 257.5t171.5 187.5t236.5 69zM2085 82q161 0 274 126.5t113 307.5q0 180 -113.5 306t-273.5 126q-161 0 -275 -126.5t-114 -305.5q0 -180 114 -307t275 -127z" />
    <glyph glyph-name="uni0642" unicode="&#x642;" horiz-adv-x="1828" 
d="M1128 1423l-98 -98l-100 98l100 99zM1477 1423l-99 -98l-100 98l100 99zM1200 1120q189 0 317 -131t128 -319v-531q0 -320 -182 -508t-509 -188h-120q-327 0 -509 188t-182 508v113l82 41v-154q0 -286 158.5 -450t450.5 -164h120q292 0 450.5 164t158.5 450v72h-564
q-101 0 -173 72.5t-72 173.5v213q0 188 128 319t318 131zM1563 293v377q0 154 -104 261t-259 107q-156 0 -260 -107t-104 -261v-213q0 -68 48 -116t115 -48h564z" />
    <glyph glyph-name="uni0643" unicode="&#x643;" horiz-adv-x="2379" 
d="M637 0q-219 0 -356.5 116t-137.5 302v162l82 41v-203q0 -151 113.5 -243.5t298.5 -92.5h1024q185 0 298.5 92.5t113.5 243.5v1384l81 41v-1425q0 -186 -137 -302t-356 -116h-1024zM1022 713l-41 61h348q69 0 107 35.5t37 101.5q-3 131 -144 131h-145q-74 0 -91 48t40 102
l243 229l41 -45l-241 -229q-27 -26 -24.5 -34.5t32.5 -8.5h145q94 0 149.5 -51.5t55.5 -141.5q0 -92 -55.5 -145t-149.5 -53h-307z" />
    <glyph glyph-name="uni0644" unicode="&#x644;" horiz-adv-x="1703" 
d="M799 -614q-137 0 -255.5 40.5t-208 116t-141 192.5t-51.5 261v332l82 41v-373q0 -128 45 -229.5t123.5 -166t182 -98.5t223.5 -34h24q120 0 223.5 34t182 98.5t123.5 166t45 229.5v1806l82 41v-1847q0 -144 -51.5 -261t-141 -192.5t-208 -116t-255.5 -40.5h-24z" />
    <glyph glyph-name="uni0645" unicode="&#x645;" horiz-adv-x="1822" 
d="M1171 989q98 0 187.5 -41t155.5 -111.5t105.5 -170.5t39.5 -211q0 -140 -66.5 -258.5t-179 -187t-242.5 -68.5q-188 0 -330 137t-157 334q-204 -19 -331.5 -154t-127.5 -334v-661l-82 -41v702q0 233 151.5 391.5t389.5 178.5q12 210 154 352.5t333 142.5zM1171 23
q165 0 285.5 126.5t120.5 305.5q0 95 -33 180t-88.5 144t-129.5 93.5t-155 34.5q-167 0 -287 -130.5t-120 -321.5q0 -179 121 -305.5t286 -126.5z" />
    <glyph glyph-name="uni0646" unicode="&#x646;" horiz-adv-x="1724" 
d="M864 838l-100 98l100 98l99 -98zM799 -557q-178 0 -329 76.5t-239 207.5t-88 285v373l82 41v-414q0 -132 77 -244t209 -177.5t288 -65.5h86q156 0 288 65.5t208.5 177.5t76.5 244v639l82 41v-680q0 -154 -87.5 -285t-238.5 -207.5t-329 -76.5h-86z" />
    <glyph glyph-name="uni0647" unicode="&#x647;" horiz-adv-x="1193" 
d="M389 0q-101 0 -173.5 72.5t-72.5 173.5v334q0 186 124.5 318t301.5 132h15q177 0 301.5 -132t124.5 -318v-334q0 -101 -72.5 -173.5t-173.5 -72.5h-375zM389 82h375q69 0 116.5 47.5t47.5 116.5v334q0 152 -101 260t-243 108h-15q-142 0 -243 -108t-101 -260v-334
q0 -69 47.5 -116.5t116.5 -47.5z" />
    <glyph glyph-name="uni0648" unicode="&#x648;" horiz-adv-x="1218" 
d="M610 989q175 0 299.5 -132t124.5 -318v-584q0 -319 -161 -485t-488 -166h-80l-41 82h121q292 0 429.5 142t137.5 427v45h-522q-101 0 -173.5 72.5t-72.5 173.5v293q0 186 124.5 318t301.5 132zM952 82v457q0 152 -100.5 260t-241.5 108q-142 0 -243 -108t-101 -260v-293
q0 -68 48 -116t116 -48h522z" />
    <glyph glyph-name="uni0649" unicode="&#x649;" horiz-adv-x="2285" 
d="M778 -475q-133 0 -248 45t-195 121.5t-125.5 181t-45.5 221.5v373l82 41v-414q0 -100 39 -189.5t107.5 -155t169 -104t216.5 -38.5h778q213 0 347 83.5t137 217.5q1 56 -26.5 106.5t-86.5 97.5t-121.5 84.5t-160.5 86.5q-28 14 -79.5 38t-82 38.5t-75 41t-72 48.5t-59 57
t-48.5 72t-29 87.5t-12 108.5q0 178 126.5 292t323.5 114q77 0 147.5 -25t122.5 -66t85 -76.5t59 -72.5l-53 -70q-14 22 -30.5 44.5t-51.5 58t-73 61t-93 45t-113 19.5q-164 0 -266 -89.5t-102 -234.5q0 -46 8.5 -85t23 -70.5t42 -61t55 -52.5t74 -50t88 -48t106.5 -51
q107 -50 183.5 -95.5t141.5 -100.5t98 -118.5t32 -135.5q-1 -111 -73 -198t-200.5 -135t-292.5 -48h-778z" />
    <glyph glyph-name="uni064A" unicode="&#x64a;" horiz-adv-x="2285" 
d="M778 -475q-133 0 -248 45t-195 121.5t-125.5 181t-45.5 221.5v373l82 41v-414q0 -100 39 -189.5t107.5 -155t169 -104t216.5 -38.5h778q213 0 347 83.5t137 217.5q1 56 -26.5 106.5t-86.5 97.5t-121.5 84.5t-160.5 86.5q-28 14 -79.5 38t-82 38.5t-75 41t-72 48.5t-59 57
t-48.5 72t-29 87.5t-12 108.5q0 178 126.5 292t323.5 114q77 0 147.5 -25t122.5 -66t85 -76.5t59 -72.5l-53 -70q-14 22 -30.5 44.5t-51.5 58t-73 61t-93 45t-113 19.5q-164 0 -266 -89.5t-102 -234.5q0 -46 8.5 -85t23 -70.5t42 -61t55 -52.5t74 -50t88 -48t106.5 -51
q107 -50 183.5 -95.5t141.5 -100.5t98 -118.5t32 -135.5q-1 -111 -73 -198t-200.5 -135t-292.5 -48h-778zM1022 -938l-100 98l100 99l98 -99zM1370 -938l-100 98l100 99l98 -99z" />
    <glyph glyph-name="uni064B" unicode="&#x64b;" 
d="M-311 1366v72l622 260v-72zM-311 1141v71l622 261v-72z" />
    <glyph glyph-name="uni064C" unicode="&#x64c;" 
d="M201 1714q75 26 128.5 -9.5t53.5 -113.5q0 -89 -51.5 -156t-130.5 -100l-508 -209v66l71 31q41 22 68 65.5t27 87.5q0 51 -34 75t-83 7q-44 -15 -74 -53l-37 39q51 57 111 78q75 26 128.5 -9.5t53.5 -113.5q0 -72 -37 -125l176 74q-47 41 -47 110q0 78 55 154t130 102z
M201 1405q50 17 83 64.5t33 99.5q0 51 -33.5 75t-82.5 7t-84 -65.5t-35 -98.5q0 -54 32.5 -77.5t86.5 -4.5z" />
    <glyph glyph-name="uni064D" unicode="&#x64d;" 
d="M-311 -27v72l622 260v-72zM-311 -252v72l622 260v-72z" />
    <glyph glyph-name="uni064E" unicode="&#x64e;" 
d="M-311 1141v71l622 261v-72z" />
    <glyph glyph-name="uni064F" unicode="&#x64f;" 
d="M-307 1167v66l370 156q-47 41 -47 110q0 78 55 154t130 102t128.5 -9.5t53.5 -113.5q0 -89 -51.5 -156t-130.5 -100zM201 1446q50 17 83 64.5t33 99.5q0 51 -33.5 75t-82.5 7t-84 -65.5t-35 -98.5q0 -54 32.5 -77.5t86.5 -4.5z" />
    <glyph glyph-name="uni0650" unicode="&#x650;" 
d="M-311 -47v72l622 260v-72z" />
    <glyph glyph-name="uni0651" unicode="&#x651;" 
d="M233 1571l62 57v-176q0 -171 -154 -227q-94 -37 -139 2q-40 -67 -127 -101q-168 -59 -168 113v53l62 62v-94q0 -59 23.5 -74.5t82.5 4.5q51 19 72.5 51t21.5 92v51l64 54v-82q0 -60 24 -75.5t84 7.5q51 19 71.5 50.5t20.5 91.5v141z" />
    <glyph glyph-name="uni0652" unicode="&#x652;" 
d="M0 1303q-101 0 -164 57.5t-63 155.5q0 102 64.5 175.5t162.5 73.5q97 0 162 -74t65 -175q0 -99 -62.5 -156t-164.5 -57zM0 1368q71 0 118.5 41t47.5 107q0 69 -50 126.5t-116 57.5q-67 0 -116.5 -57t-49.5 -127q0 -67 48 -107.5t118 -40.5z" />
    <glyph glyph-name="uni0653" unicode="&#x653;" 
d="M61 1630l-61 21q28 130 116.5 175.5t202.5 -14.5q18 -10 56 -32t57.5 -32.5t53 -25.5t54 -18.5t49.5 -3.5t50.5 11.5t46 34.5t45.5 58l53 -41q-25 -41 -52 -70t-55.5 -43t-55 -21t-57.5 -2t-56 12t-57 23t-54.5 28.5t-54.5 31.5t-51 29q-86 45 -148 12t-82 -133z" />
    <glyph glyph-name="uni0654" unicode="&#x654;" 
d="M502 1755l-39 -69h-463l39 69h57v78q0 120 66.5 191t175.5 79l24 -67q-91 0 -143.5 -51.5t-52.5 -151.5v-78h336z" />
    <glyph glyph-name="uni0655" unicode="&#x655;" 
d="M502 -500l-39 -69h-463l39 69h57v78q0 121 66.5 191.5t175.5 78.5l24 -67q-91 0 -143.5 -51.5t-52.5 -151.5v-78h336z" />
    <glyph glyph-name="uni0656" unicode="&#x656;" 
d="M0 270v428l72 62v-428z" />
    <glyph glyph-name="uni0660" unicode="&#x660;" horiz-adv-x="722" 
d="M362 451l-116 116l116 117l115 -117z" />
    <glyph glyph-name="uni0661" unicode="&#x661;" horiz-adv-x="573" 
d="M246 0v1657l82 41v-1698h-82z" />
    <glyph glyph-name="uni0662" unicode="&#x662;" horiz-adv-x="1173" 
d="M205 0v1247q0 186 127 318.5t305 132.5h393l-41 -82h-352q-145 0 -247.5 -108.5t-102.5 -260.5v-1247h-82z" />
    <glyph glyph-name="uni0663" unicode="&#x663;" horiz-adv-x="1648" 
d="M1444 1657l82 41v-357q0 -188 -82 -279t-252 -91q-246 0 -324 157q-73 -157 -297 -157q-195 0 -284 102v-1073h-82v1657l82 41v-357q0 -152 66.5 -220t217.5 -68q135 0 194.5 67t59.5 221v291l82 41v-332q0 -152 67 -220t218 -68q135 0 193.5 67t58.5 221v316z" />
    <glyph glyph-name="uni0664" unicode="&#x664;" horiz-adv-x="1366" 
d="M594 82h649l-41 -82h-608q-186 0 -318.5 131.5t-132.5 317.5q0 133 73 243.5t192 163.5q-119 55 -192 167t-73 245q0 175 133 302.5t318 127.5h358l-41 -82h-317q-152 0 -260.5 -103t-108.5 -245q0 -152 108.5 -261.5t260.5 -109.5h358l-41 -82h-317q-153 0 -261 -107
t-108 -259t108.5 -259.5t260.5 -107.5z" />
    <glyph glyph-name="uni0665" unicode="&#x665;" horiz-adv-x="1335" 
d="M668 0q-255 0 -390 140t-135 405v551q0 276 142.5 439t382.5 163q241 0 382.5 -162.5t141.5 -439.5v-551q0 -266 -134 -405.5t-390 -139.5zM668 82q442 0 442 463v551q0 243 -118 381.5t-324 138.5t-324.5 -138t-118.5 -382v-551q0 -463 443 -463z" />
    <glyph glyph-name="uni0666" unicode="&#x666;" horiz-adv-x="1173" 
d="M969 0h-82v1247q0 152 -102.5 260.5t-247.5 108.5h-394l41 82h353q178 0 305 -132.5t127 -318.5v-1247z" />
    <glyph glyph-name="uni0667" unicode="&#x667;" horiz-adv-x="1484" 
d="M686 0l-563 1671l78 27l540 -1610l543 1610l78 -27l-563 -1671h-113z" />
    <glyph glyph-name="uni0668" unicode="&#x668;" horiz-adv-x="1484" 
d="M686 1698h113l563 -1671l-78 -27l-543 1610l-540 -1610l-78 27z" />
    <glyph glyph-name="uni0669" unicode="&#x669;" horiz-adv-x="1198" 
d="M590 1702q115 0 212.5 -60.5t154.5 -164.5t57 -226v-1251h-82v768h-522q-101 0 -173.5 72.5t-72.5 173.5v237q0 186 124.5 318.5t301.5 132.5zM932 850v401q0 152 -100.5 260.5t-241.5 108.5q-142 0 -243 -108.5t-101 -260.5v-237q0 -68 48 -116t116 -48h522z" />
    <glyph glyph-name="uni066A" unicode="&#x66a;" horiz-adv-x="1499" 
d="M164 0l1089 1802h82l-1089 -1802h-82zM266 1227l-102 100l102 103l103 -103zM1233 268l-103 101l103 102l102 -102z" />
    <glyph glyph-name="uni066B" unicode="&#x66b;" horiz-adv-x="634" 
d="M254 -215l-49 25l100 190q-37 11 -59 44t-15 71q7 40 41.5 63t75.5 17q35 -8 58.5 -36t23.5 -63q0 -26 -20 -61z" />
    <glyph glyph-name="uni066C" unicode="&#x66c;" horiz-adv-x="634" 
d="M260 -197l-45 23l92 174q-34 9 -54 39t-13 63q6 37 37 58.5t69 15.5q32 -8 53 -33t21 -57q0 -26 -19 -55z" />
    <glyph glyph-name="uni066D" unicode="&#x66d;" horiz-adv-x="1241" 
d="M621 82l-91 194l-204 -73l73 205l-194 90l194 90l-73 205l204 -74l91 194l90 -194l204 74l-73 -205l194 -90l-194 -90l73 -205l-204 73zM483 360h275v275h-275v-275z" />
    <glyph glyph-name="uni066E" unicode="&#x66e;" horiz-adv-x="2338" 
d="M575 0q-219 0 -356 116t-137 302v162l82 41v-203q0 -151 113.5 -243.5t297.5 -92.5h1086q185 0 298.5 92.5t113.5 243.5v489l81 41v-530q0 -186 -137 -302t-356 -116h-1086z" />
    <glyph glyph-name="uni066F" unicode="&#x66f;" horiz-adv-x="1828" 
d="M1200 1120q189 0 317 -131t128 -319v-531q0 -320 -182 -508t-509 -188h-120q-327 0 -509 188t-182 508v113l82 41v-154q0 -286 158.5 -450t450.5 -164h120q292 0 450.5 164t158.5 450v72h-564q-101 0 -173 72.5t-72 173.5v213q0 188 128 319t318 131zM1563 293v377
q0 154 -104 261t-259 107q-156 0 -260 -107t-104 -261v-213q0 -68 48 -116t115 -48h564z" />
    <glyph glyph-name="uni0670" unicode="&#x670;" 
d="M0 1130v510l72 62v-510z" />
    <glyph glyph-name="uni0671" unicode="&#x671;" horiz-adv-x="573" 
d="M465 2013q55 0 95 -41t40 -98v-49q0 -57 -40 -97t-97 -40h-313q-48 0 -86.5 -7.5t-58.5 -18.5t-33 -22t-17 -18l-4 -8l-57 20q1 4 4.5 10.5t18 24t35 32t59.5 28.5t87 18q4 29 11 56.5t26 68t45.5 69.5t73.5 50.5t106 21.5h105zM539 1825v49q0 32 -21.5 55t-52.5 23h-105
q-53 0 -92 -21.5t-60 -56.5t-31 -64.5t-15 -60.5h301q32 0 54 22t22 54zM246 0v1495l82 41v-1536h-82z" />
    <glyph glyph-name="uni067E" unicode="&#x67e;" horiz-adv-x="2338" 
d="M575 0q-219 0 -356 116t-137 302v162l82 41v-203q0 -151 113.5 -243.5t297.5 -92.5h1086q185 0 298.5 92.5t113.5 243.5v489l81 41v-530q0 -186 -137 -302t-356 -116h-1086zM1120 -508l-100 98l100 99l99 -99zM1468 -508l-100 98l100 99l99 -99zM1292 -754l-100 99
l100 98l99 -98z" />
    <glyph glyph-name="uni0686" unicode="&#x686;" horiz-adv-x="1468" 
d="M655 -696q-225 0 -368.5 119.5t-143.5 306.5q0 96 30.5 180.5t80 148t121 117.5t145 91t161 67.5t159.5 48.5t150 31.5t123.5 18.5t88.5 9v86q0 201 -143.5 344.5t-345.5 143.5h-529l41 82h488q116 0 222 -45.5t182 -122t121.5 -182t45.5 -220.5v-98l-72 -70
q-37 -3 -80 -7.5t-114.5 -16t-139.5 -27t-149 -42.5t-150.5 -60t-136 -81t-113.5 -104t-75.5 -131.5t-28.5 -160.5q0 -153 119 -248.5t311 -95.5h588l-41 -82h-547zM899 -119l-100 99l100 98l98 -98zM1247 -119l-100 99l100 98l99 -98zM1071 -365l-100 99l100 98l98 -98z
" />
    <glyph glyph-name="uni06A1" unicode="&#x6a1;" horiz-adv-x="2738" 
d="M2085 1030q128 0 236 -69t170.5 -187.5t62.5 -257.5q0 -140 -62.5 -259t-170.5 -188t-236 -69h-1448q-219 0 -356.5 116t-137.5 302v162l82 41v-203q0 -151 113.5 -243.5t298.5 -92.5h1194q-100 70 -158.5 185t-58.5 249q0 139 63 257.5t171.5 187.5t236.5 69zM2085 82
q161 0 274 126.5t113 307.5q0 180 -113.5 306t-273.5 126q-161 0 -275 -126.5t-114 -305.5q0 -180 114 -307t275 -127z" />
    <glyph glyph-name="uni06A4" unicode="&#x6a4;" horiz-adv-x="2717" 
d="M2181 1622l-98 -98l-101 98l101 98zM2009 1376l-98 -98l-101 98l101 99zM2259 1278l-100 98l100 99l98 -99zM2085 1030q128 0 236 -69t170.5 -187.5t62.5 -257.5q0 -140 -62.5 -259t-170.5 -188t-236 -69h-1448q-219 0 -356.5 116t-137.5 302v162l82 41v-203
q0 -151 113.5 -243.5t298.5 -92.5h1194q-100 70 -158.5 185t-58.5 249q0 139 63 257.5t171.5 187.5t236.5 69zM2085 82q161 0 274 126.5t113 307.5q0 180 -113.5 306t-273.5 126q-161 0 -275 -126.5t-114 -305.5q0 -180 114 -307t275 -127z" />
    <glyph glyph-name="endash" unicode="&#x2013;" horiz-adv-x="1753" 
d="M143 551v82h1467v-82h-1467z" />
    <glyph glyph-name="emdash" unicode="&#x2014;" horiz-adv-x="1957" 
d="M143 551v82h1672v-82h-1672z" />
    <glyph glyph-name="quoteleft" unicode="&#x2018;" horiz-adv-x="585" 
d="M356 1724l50 -24l-101 -191q37 -11 59 -43.5t15 -70.5q-7 -40 -41.5 -63t-75.5 -17q-35 8 -58.5 35.5t-23.5 62.5q0 25 21 62z" />
    <glyph glyph-name="quoteright" unicode="&#x2019;" horiz-adv-x="585" 
d="M229 1313l-49 24l101 191q-37 11 -59 43.5t-15 70.5q7 40 41.5 63t75.5 17q35 -8 58.5 -35.5t23.5 -62.5q0 -24 -21 -61z" />
    <glyph glyph-name="quotesinglbase" unicode="&#x201a;" horiz-adv-x="585" 
d="M229 -215l-49 25l101 190q-37 11 -59 44t-15 71q7 40 41.5 63t75.5 17q35 -8 58.5 -36t23.5 -63q0 -24 -21 -61z" />
    <glyph glyph-name="quotedblleft" unicode="&#x201c;" horiz-adv-x="892" 
d="M356 1724l50 -24l-101 -191q37 -11 59 -43.5t15 -70.5q-7 -40 -41.5 -63t-75.5 -17q-35 8 -58.5 35.5t-23.5 62.5q0 25 21 62zM664 1724l49 -24l-101 -191q37 -11 59 -43.5t15 -70.5q-7 -40 -41.5 -63t-75.5 -17q-35 8 -58.5 35.5t-23.5 62.5q0 25 21 62z" />
    <glyph glyph-name="quotedblright" unicode="&#x201d;" horiz-adv-x="892" 
d="M229 1313l-49 24l101 191q-37 11 -59 43.5t-15 70.5q7 40 41.5 63t75.5 17q35 -8 58.5 -35.5t23.5 -62.5q0 -24 -21 -61zM537 1313l-50 24l101 191q-37 11 -59 43.5t-15 70.5q7 40 41.5 63t75.5 17q35 -8 58.5 -35.5t23.5 -62.5q0 -24 -21 -61z" />
    <glyph glyph-name="quotedblbase" unicode="&#x201e;" horiz-adv-x="913" 
d="M229 -215l-49 25l101 190q-37 11 -59 44t-15 71q7 40 41.5 63t75.5 17q35 -8 58.5 -36t23.5 -63q0 -24 -21 -61zM557 -215l-49 25l100 190q-37 11 -58.5 44t-14.5 71q7 40 41 63t75 17q35 -8 58.5 -36t23.5 -63q0 -26 -20 -61z" />
    <glyph glyph-name="bullet" unicode="&#x2022;" horiz-adv-x="978" 
d="M690 479v-117h-117l-84 -83l-83 83h-117v117l-84 84l84 84v117h117l83 84l84 -84h117v-117l84 -84z" />
    <glyph glyph-name="ellipsis" unicode="&#x2026;" horiz-adv-x="1511" 
d="M307 0l-102 100l102 103l103 -103zM758 0l-103 100l103 103l102 -103zM1208 0l-102 100l102 103l103 -103z" />
    <glyph glyph-name="perthousand" unicode="&#x2030;" horiz-adv-x="2639" 
d="M489 913q-149 0 -237 101.5t-88 273.5v193q0 170 88 271t237 101q151 0 239.5 -101t88.5 -271v-193q0 -172 -88.5 -273.5t-239.5 -101.5zM334 0l1089 1802h82l-1089 -1802h-82zM489 979q123 0 193 81.5t70 227.5v193q0 144 -70 225.5t-193 81.5q-122 0 -191 -81.5
t-69 -225.5v-193q0 -145 69 -227t191 -82zM1370 0q-149 0 -237.5 101.5t-88.5 273.5v192q0 170 88.5 271.5t237.5 101.5q151 0 239.5 -101t88.5 -272v-192q0 -172 -88.5 -273.5t-239.5 -101.5zM2148 0q-149 0 -237 101.5t-88 273.5v192q0 171 88 272t237 101
q151 0 239.5 -101t88.5 -272v-192q0 -172 -88.5 -273.5t-239.5 -101.5zM1370 66q123 0 192.5 81.5t69.5 227.5v192q0 145 -69.5 226t-192.5 81q-122 0 -191 -81.5t-69 -225.5v-192q0 -145 69 -227t191 -82zM2148 66q123 0 192.5 81.5t69.5 227.5v192q0 145 -69.5 226
t-192.5 81q-122 0 -191 -81.5t-69 -225.5v-192q0 -145 69 -227t191 -82z" />
    <glyph glyph-name="guilsinglleft" unicode="&#x2039;" horiz-adv-x="677" 
d="M483 0l-340 512l340 518h80l-315 -518l315 -512h-80z" />
    <glyph glyph-name="guilsinglright" unicode="&#x203a;" horiz-adv-x="677" 
d="M195 0h-80l315 512l-315 518h80l340 -518z" />
    <glyph glyph-name="fraction" unicode="&#x2044;" horiz-adv-x="1171" 
d="M0 0l1090 1843h81l-1089 -1843h-82z" />
    <glyph glyph-name="Euro" unicode="&#x20ac;" horiz-adv-x="1587" 
d="M516 655q0 -267 131 -420t357 -153h440l-41 -82h-399q-261 0 -415.5 177t-154.5 478h-291v82h291v291h-291v82h291v14q0 301 154.5 478.5t415.5 177.5h440l-41 -82h-399q-226 0 -357 -153t-131 -421v-14l723 2v-82l-723 -2v-291l723 2v-82z" />
    <glyph glyph-name="minus" unicode="&#x2212;" horiz-adv-x="1239" 
d="M164 414v82l911 2v-82z" />
    <glyph glyph-name="notequal" unicode="&#x2260;" horiz-adv-x="1239" 
d="M1075 702h-350l-160 -438l510 2v-82l-540 -2l-213 -575h-82l213 575h-289v82h319l160 438l-479 -2v82l510 2l246 666h81l-245 -666h319v-82z" />
    <glyph glyph-name="lessequal" unicode="&#x2264;" horiz-adv-x="1243" 
d="M1079 1106v-82l-821 -367l821 -370v-82l-911 411v82zM164 0v82h915v-82h-915z" />
    <glyph glyph-name="greaterequal" unicode="&#x2265;" horiz-adv-x="1243" 
d="M164 1106l911 -408v-82l-911 -411v82l821 370l-821 367v82zM164 0v82h915v-82h-915z" />
    <glyph glyph-name="uniFBB2" unicode="&#xfbb2;" 
d="M100 1073l-100 98l100 99l99 -99z" />
    <glyph glyph-name="uniFBB3" unicode="&#xfbb3;" 
d="M100 -508l-100 98l100 99l99 -99z" />
    <glyph glyph-name="uniFBB4" unicode="&#xfbb4;" 
d="M100 1073l-100 98l100 99l99 -99zM449 1073l-101 98l101 99l98 -99z" />
    <glyph glyph-name="uniFBB5" unicode="&#xfbb5;" 
d="M100 -508l-100 98l100 99l99 -99zM449 -508l-101 98l101 99l98 -99z" />
    <glyph glyph-name="uniFBB6" unicode="&#xfbb6;" 
d="M272 1319l-100 98l100 99l99 -99zM100 1073l-100 98l100 99l99 -99zM449 1073l-101 98l101 99l98 -99z" />
    <glyph glyph-name="uniFBB9" unicode="&#xfbb9;" 
d="M100 -508l-100 98l100 99l99 -99zM449 -508l-101 98l101 99l98 -99zM272 -754l-100 99l100 98l99 -98z" />
    <glyph glyph-name="uniFD3E" unicode="&#xfd3e;" horiz-adv-x="1474" 
d="M1051 922q-53 -167 -52.5 -321.5t54.5 -321.5l241 -754h-82l-241 754q-40 118 -49 233l-19 -20l-217 -218q-51 -51 -118.5 -51t-118.5 51l-218 218q-51 51 -51.5 117.5t51.5 119.5l218 217q51 51 117.5 51.5t119.5 -51.5l217 -217q16 -16 19 -22q12 101 47 215l243 776
h82zM850 553q25 25 25 59.5t-25 59.5l-223 223q-25 25 -59.5 25t-59.5 -25l-223 -223q-25 -25 -25 -59.5t25 -59.5l223 -223q25 -25 59.5 -25t59.5 25z" />
    <glyph glyph-name="uniFD3F" unicode="&#xfd3f;" horiz-adv-x="1474" 
d="M1243 729q52 -53 51.5 -119.5t-51.5 -117.5l-217 -218q-51 -51 -119 -51t-119 51l-217 218l-18 20q-9 -115 -49 -233l-242 -754h-82l242 754q54 167 54.5 321.5t-52.5 321.5l-244 776h82l244 -776q35 -114 47 -215q4 8 18 22l217 217q53 52 120 51.5t118 -51.5zM1190 553
q25 25 25 59.5t-25 59.5l-223 223q-25 25 -59.5 25t-59.5 -25l-223 -223q-25 -25 -25 -59.5t25 -59.5l223 -223q25 -25 59.5 -25t59.5 25z" />
    <glyph glyph-name="uni0627.short" horiz-adv-x="573" 
d="M246 0v1495l82 41v-1536h-82z" />
    <glyph glyph-name="uniFE8E.short" horiz-adv-x="643" 
d="M561 0q-151 0 -233 77t-82 238v1201l82 40v-1241q0 -127 58.5 -180t174.5 -53h82v-82h-82z" />
    <glyph glyph-name="dotcenterar" 
d="M147 295q-61 0 -104 42.5t-43 104.5t43 105t104 43t104.5 -43t43.5 -105q0 -61 -43 -104t-105 -43z" />
    <glyph glyph-name="uniFBB6.001" 
d="M231 1360l-100 98l100 98l99 -98zM-2 1073l-100 98l100 99l98 -99zM469 1073l-100 98l100 99l98 -99z" />
    <glyph glyph-name="waslaar" 
d="M571 2013q56 0 96 -41t40 -98v-49q0 -57 -40.5 -97t-97.5 -40h-313q-48 0 -86.5 -7.5t-58.5 -18.5t-33 -22t-17 -18l-4 -8l-57 20q1 4 4.5 10.5t18.5 24t35.5 32t59.5 28.5t87 18q4 29 11 56.5t26 68t45.5 69.5t73.5 50.5t106 21.5h104zM645 1825v49q0 32 -21.5 55
t-52.5 23h-104q-43 0 -77.5 -15t-55 -37t-35.5 -51.5t-21 -52.5t-10 -47h301q32 0 54 22t22 54z" />
    <glyph glyph-name="shaddaAlefabovear" 
d="M37 2073v-510l-72 -62v510zM248 1571l61 57v-176q0 -172 -153 -227q-94 -37 -140 2q-40 -67 -127 -101q-168 -59 -168 113v53l62 62v-94q0 -59 23.5 -74.5t82.5 4.5q51 19 73 51.5t22 91.5v51l63 54v-82q0 -60 24.5 -75.5t84.5 7.5q51 19 71.5 50.5t20.5 91.5v141z" />
    <glyph glyph-name="shaddaDammaar" 
d="M330 1921q0 -89 -49 -156t-125 -100l-484 -209v66l355 155q-45 39 -45 111q0 78 51.5 154t122.5 102q72 26 123 -9.5t51 -113.5zM43 1817q0 -54 31 -77.5t82 -4.5q49 17 80.5 64t31.5 99q0 51 -32.5 75t-79.5 7q-46 -17 -79.5 -65.5t-33.5 -97.5zM233 1430v141l62 57
v-176q0 -171 -154 -227q-94 -37 -139 2q-40 -67 -127 -101q-168 -59 -168 113v53l62 62v-94q0 -59 23.5 -74.5t82.5 4.5q51 19 72.5 51t21.5 92v51l64 54v-82q0 -60 24 -75.5t84 7.5q51 19 71.5 50.5t20.5 91.5z" />
    <glyph glyph-name="shaddaDammatanar" 
d="M-246 1538q41 22 67.5 66t26.5 90q0 51 -32.5 75t-79.5 7q-40 -14 -72 -54l-35 39q47 56 107 78q72 26 124 -9.5t52 -113.5q0 -72 -37 -125l172 74q-45 39 -45 111q0 78 52.5 154t125.5 102q72 26 124 -9.5t52 -113.5q0 -89 -50 -156t-126 -100l-491 -209v65l47 21z
M180 1968q-47 -17 -80.5 -65.5t-33.5 -98.5q0 -55 31 -78t83 -4q49 17 81 64.5t32 99.5q0 51 -33 75t-80 7zM246 1430v141l61 57v-176q0 -172 -153 -227q-94 -37 -140 2q-40 -67 -127 -101q-168 -59 -168 113v53l62 62v-94q0 -59 23.5 -74.5t82.5 4.5q51 19 73 51.5t22 91.5
v51l63 54v-82q0 -60 24.5 -75.5t84.5 7.5q51 19 71.5 50.5t20.5 91.5z" />
    <glyph glyph-name="shaddaFathaar" 
d="M-324 1563l623 260v-72l-623 -260v72zM233 1430v141l62 57v-176q0 -171 -154 -227q-94 -37 -139 2q-40 -67 -127 -101q-168 -59 -168 113v53l62 62v-94q0 -59 23.5 -74.5t82.5 4.5q51 19 72.5 51t21.5 92v51l64 54v-82q0 -60 24 -75.5t84 7.5q51 19 71.5 50.5t20.5 91.5z
" />
    <glyph glyph-name="shaddaFathatanar" 
d="M291 2089v-72l-623 -260v72zM291 1864v-72l-623 -260v72zM233 1612l62 57v-176q0 -171 -154 -227q-94 -37 -139 2q-40 -67 -127 -101q-168 -59 -168 113v53l62 62v-95q0 -58 23.5 -73.5t82.5 4.5q51 19 72.5 51t21.5 92v51l64 54v-82q0 -60 24 -75.5t84 7.5
q51 19 71.5 50t20.5 91v142z" />
    <glyph glyph-name="shaddaKasraar" 
d="M-145 1397q-168 -59 -168 112v54l61 61v-94q0 -59 24 -74.5t83 4.5q51 19 72.5 51.5t21.5 92.5v51l63 53v-82q0 -60 24.5 -75t84.5 8q51 19 71.5 50t20.5 91v141l61 57v-176q0 -172 -153 -227q-94 -37 -139 2q-40 -66 -127 -100zM-311 1192l622 260v-72l-622 -260v72z
" />
    <glyph glyph-name="shaddaKasratanar" 
d="M-156 1667q-168 -59 -168 113v53l62 61v-94q0 -58 24 -73.5t82 4.5q51 19 73 51.5t22 91.5v51l63 53v-82q0 -60 24.5 -75t84.5 8q51 19 71.5 50t20.5 91v141l61 58v-176q0 -173 -153 -228q-94 -37 -140 2q-40 -66 -127 -100zM-311 1438l622 260v-72l-622 -260v72z
M-311 1141v71l622 261v-72z" />
  </font>
</defs>
</svg>
