<?xml version="1.0" standalone="no"?>
<!DOCTYPE svg PUBLIC "-//W3C//DTD SVG 1.1//EN" "http://www.w3.org/Graphics/SVG/1.1/DTD/svg11.dtd" >
<svg xmlns="http://www.w3.org/2000/svg" xmlns:xlink="http://www.w3.org/1999/xlink" version="1.1">
<metadata>
Created by FontForge 20170731 at Tue Oct 17 14:47:37 2023
 By Aleksey,,,
Copyright (c) 2019 by Mostafa El Abasiry. All rights reserved.
</metadata>
<defs>
<font id="Lamhah-Regular" horiz-adv-x="0" >
  <font-face 
    font-family="Lamhah"
    font-weight="400"
    font-stretch="normal"
    units-per-em="2048"
    panose-1="0 0 5 0 0 0 0 0 0 0"
    ascent="1638"
    descent="-410"
    bbox="-377 -1161 3348 2935"
    underline-thickness="102"
    underline-position="-307"
    unicode-range="U+0020-FEFC"
  />
<missing-glyph horiz-adv-x="1228" 
d="M1008 1843v-2457h-779v2457h779zM819 1679h-405v-82h159v-90h-163v-82h409v82h-164v90h164v82zM655 1362h-245v-256h409v84h-164v172zM573 1278v-88h-81v88h81zM819 1040h-409v-82h163v-90h-163v-82h245v172h164v82zM819 893h-82v-164h-327v-82h409v246zM819 592h-246
v-137h82v57h82v-117h-245v197h-82v-277h409v277zM819 168h-409v-279h409v279zM737 86v-115h-245v115h245zM819 -168h-409v-80h172l-172 -117v-79h409v79h-252l172 117h80v80z" />
    <glyph glyph-name="uniFDF2" unicode="&#x627;&#xfedf;&#xfee0;&#xfeea;" horiz-adv-x="3205" arabic-form="isolated" 
d="M1612 2935v-516l-88 -76v516zM1458 1956q-83 -31 -127.5 1t-44.5 124v53l78 78v-111q0 -51 19.5 -63t70.5 6q50 17 69 45.5t19 85.5v51l80 68v-96q0 -53 20.5 -65.5t77.5 9.5q44 18 62 45.5t18 83.5v142l78 73v-192q0 -185 -154 -240q-88 -30 -129 19q-41 -81 -137 -117z
M2202 428v1327l176 88v-1415q0 -200 -109.5 -313.5t-302.5 -114.5h-47q-228 0 -311 145q-111 -145 -334 -145h-82q-184 0 -252 117q-110 -117 -268 -117h-256q-132 0 -212.5 83t-80.5 214v252q0 207 138.5 354.5t334.5 147.5h344l100 -103v-618q0 -88 33.5 -117t112.5 -29
h88q123 0 182.5 60t59.5 184v1327l176 88v-1415q0 -78 8 -123.5t32.5 -73.5t62 -37.5t103.5 -9.5h62q123 0 182.5 60t59.5 184zM2830 1755l176 88v-1843h-176v1755zM864 373v493h-268q-123 0 -210 -92.5t-87 -224.5v-252q0 -113 117 -113h256q79 0 135.5 55.5t56.5 133.5z
" />
    <glyph glyph-name="uniFEF5" unicode="&#xfedf;&#xfe82;" horiz-adv-x="1497" arabic-form="isolated" 
d="M291 1702l-62 51q28 130 117 176t203 -14q18 -10 56 -32t57.5 -32.5t53 -25.5t54 -18.5t49.5 -3.5t50.5 11.5t46 34.5t45.5 58l53 -72q-25 -41 -52 -70t-55.5 -43t-55.5 -21t-57.5 -2t-56 12t-57.5 23t-54.5 28.5t-54.5 31.5t-51 29q-86 45 -147.5 12t-81.5 -133zM154 0
l-93 184h713q165 0 264 78.5t99 206.5v1286l176 88v-1374q0 -207 -151 -338t-388 -131h-620zM506 307v1100l176 88v-1188h-176z" />
    <glyph glyph-name="uniFEF6" unicode="&#xfee0;&#xfe82;" horiz-adv-x="1636" arabic-form="final" 
d="M520 1823q-86 45 -147.5 12t-81.5 -133l-62 51q28 130 117 176t203 -14q18 -10 56 -32t57.5 -32.5t53 -25.5t54 -18.5t49.5 -3.5t50.5 11.5t46 34.5t45.5 58l53 -72q-25 -41 -52 -70t-55.5 -43t-55.5 -21t-57.5 -2t-56 12t-57.5 23t-54.5 28.5t-54.5 31.5t-51 29z
M1548 184h94v-184h-73q-245 0 -324 190q-71 -90 -186 -140t-258 -50h-647l-93 184h740q165 0 263.5 78.5t98.5 206.5v1286l176 88v-1374v-20q0 -147 46.5 -206t162.5 -59zM506 307v1100l176 88v-1188h-176z" />
    <glyph glyph-name="uniFEF7" unicode="&#xfedf;&#xfe84;" horiz-adv-x="1497" arabic-form="isolated" 
d="M377 1706l51 90h45v57q0 120 66.5 191.5t175.5 79.5l35 -88q-92 0 -139.5 -42t-47.5 -141v-57h316l-52 -90h-450zM1137 1755l176 88v-1374q0 -207 -151 -338t-388 -131h-620l-93 184h713q165 0 264 78.5t99 206.5v1286zM506 307v1100l176 88v-1188h-176z" />
    <glyph glyph-name="uniFEF8" unicode="&#xfee0;&#xfe84;" horiz-adv-x="1636" arabic-form="final" 
d="M377 1706l51 90h45v57q0 120 66.5 191.5t175.5 79.5l35 -88q-92 0 -139.5 -42t-47.5 -141v-57h316l-52 -90h-450zM1548 184h94v-184h-73q-245 0 -324 190q-71 -90 -186 -140t-258 -50h-647l-93 184h740q165 0 263.5 78.5t98.5 206.5v1286l176 88v-1374v-20
q0 -147 46.5 -206t162.5 -59zM506 307v1100l176 88v-1188h-176z" />
    <glyph glyph-name="uniFEF9" unicode="&#xfedf;&#xfe88;" horiz-adv-x="1497" arabic-form="isolated" 
d="M1137 1755l176 88v-1374q0 -207 -151 -338t-388 -131h-620l-93 184h713q165 0 264 78.5t99 206.5v1286zM682 1495v-1188h-176v1100zM559 -561h315l-51 -90h-450l51 90h45v57q0 120 66.5 191.5t175.5 79.5l34 -89q-92 0 -139 -41.5t-47 -140.5v-57z" />
    <glyph glyph-name="uniFEFA" unicode="&#xfee0;&#xfe88;" horiz-adv-x="1636" arabic-form="final" 
d="M1548 184h94v-184h-73q-245 0 -324 190q-71 -90 -186 -140t-258 -50h-647l-93 184h740q165 0 263.5 78.5t98.5 206.5v1286l176 88v-1374v-20q0 -147 46.5 -206t162.5 -59zM682 1495v-1188h-176v1100zM539 -561h315l-51 -90h-451l51 90h46v57q0 120 66.5 191.5t174.5 79.5
l35 -89q-92 0 -139 -41.5t-47 -140.5v-57z" />
    <glyph glyph-name="uniFEFB" unicode="&#xfedf;&#xfe8e;" horiz-adv-x="1497" arabic-form="isolated" 
d="M154 0l-93 184h713q165 0 264 78.5t99 206.5v1286l176 88v-1374q0 -207 -151 -338t-388 -131h-620zM506 307v1100l176 88v-1188h-176z" />
    <glyph glyph-name="uniFEFC" unicode="&#xfee0;&#xfe8e;" horiz-adv-x="1636" arabic-form="final" 
d="M1548 184h94v-184h-73q-245 0 -324 190q-71 -90 -186 -140t-258 -50h-647l-93 184h740q165 0 263.5 78.5t98.5 206.5v1286l176 88v-1374v-20q0 -147 46.5 -206t162.5 -59zM682 1495v-1188h-176v1100z" />
    <glyph glyph-name="uni06440671" unicode="&#xfedf;&#xfb51;" horiz-adv-x="1497" 
d="M465 1688q-48 0 -86.5 -7.5t-58.5 -18.5t-33 -22t-17 -18l-4 -8l-57 41q1 4 4 10t17 22.5t32.5 30.5t54.5 27.5t80 19.5q4 29 12.5 57.5t28 64.5t46.5 62.5t71.5 45t99.5 18.5h84q69 0 112.5 -42t43.5 -103v-43q0 -57 -40 -97t-97 -40h-293zM655 1933q-46 0 -82.5 -16
t-58 -43t-34 -52t-19.5 -53h4h280q32 0 54 22t22 54v10q0 32 -21 55t-52 23h-93zM1137 1755l176 88v-1374q0 -207 -151 -338t-388 -131h-620l-93 184h713q165 0 264 78.5t99 206.5v1286zM682 307h-176v1100l176 88v-1188z" />
    <glyph glyph-name="uni06440671.fina" unicode="&#xfee0;&#xfb51;" horiz-adv-x="1636" 
d="M485 1688q-48 0 -86 -7.5t-58 -18.5t-33.5 -22t-17.5 -18l-3 -8l-58 41q1 4 4 10t17 22.5t33 30.5t55 27.5t80 19.5q4 29 12.5 57.5t28 64.5t46.5 62.5t71.5 45t99.5 18.5h84q69 0 112 -42t43 -103v-43q0 -57 -40 -97t-97 -40h-293zM676 1933q-46 0 -82.5 -16t-58.5 -43
t-34.5 -52t-19.5 -53h4h281q32 0 54 22t22 54v10q0 32 -21.5 55t-52.5 23h-92zM1548 184h94v-184h-73q-245 0 -324 190q-71 -90 -186 -140t-258 -50h-647l-93 184h740q165 0 263.5 78.5t98.5 206.5v1286l176 88v-1374v-20q0 -147 46.5 -206t162.5 -59zM682 307h-176v1100
l176 88v-1188z" />
    <glyph glyph-name="uni066E.init" unicode="&#x66e;" horiz-adv-x="788" 
d="M-39 0q-46 0 -78.5 26.5t-32.5 65.5t32.5 65.5t78.5 26.5h113q165 0 264.5 78.5t99.5 206.5v426l176 88v-514q0 -207 -151 -338t-389 -131h-113z" />
    <glyph glyph-name="uni066E.medi" unicode="&#x66e;" horiz-adv-x="878" 
d="M797 184h88v-184h-88q-234 0 -338 143q-110 -143 -348 -143h-150q-46 0 -78.5 26.5t-32.5 65.5t32.5 65.5t78.5 26.5h150q143 0 202.5 65t59.5 220v229l176 88v-317q0 -157 56 -221t192 -64z" />
    <glyph glyph-name="uni066E.fina" unicode="&#x66e;" horiz-adv-x="2533" 
d="M2451 184h89v-184h-89q-259 0 -348 182q-73 -87 -186.5 -134.5t-253.5 -47.5h-1088q-238 0 -389 131t-151 338v174l176 88v-262q0 -128 99.5 -206.5t264.5 -78.5h1088q165 0 265 78.5t100 206.5v352l176 88v-440q0 -157 55.5 -221t191.5 -64z" />
    <glyph glyph-name="uni066F.fina" unicode="&#x66f;" horiz-adv-x="1787" 
d="M1692 184h102v-184h-104q-14 -323 -211 -509.5t-525 -186.5h-120q-341 0 -539.5 200.5t-198.5 546.5v84l176 88v-172q0 -268 147.5 -415.5t414.5 -147.5h120q255 0 400 133.5t159 378.5h-514q-121 0 -206.5 87t-85.5 210v184q0 138 65 253.5t178.5 182t249.5 66.5
q135 0 248 -66.5t178.5 -182t65.5 -253.5v-297zM883 297q0 -46 34.5 -79.5t81.5 -33.5h517v297q0 135 -91 226.5t-225 91.5q-135 0 -226 -91.5t-91 -226.5v-184z" />
    <glyph glyph-name="uni06A1.init" unicode="&#x6a1;" horiz-adv-x="1384" 
d="M729 1092q139 0 254 -75.5t178.5 -200t63.5 -269.5q0 -146 -63.5 -271t-178 -200.5t-254.5 -75.5h-768q-46 0 -78.5 26.5t-32.5 65.5t32.5 65.5t78.5 26.5h393q-123 155 -123 363q0 145 64 269.5t179 200t255 75.5zM729 184q138 0 229 107.5t91 255.5q0 146 -91 253
t-229 107t-229.5 -107t-91.5 -253q0 -148 91.5 -255.5t229.5 -107.5z" />
    <glyph glyph-name="uni06A1.medi" unicode="&#x6a1;" horiz-adv-x="1323" 
d="M1102 184h227v-184h-1368q-46 0 -78.5 26.5t-32.5 65.5t32.5 65.5t78.5 26.5h393q-123 155 -123 363q0 145 64 269.5t179 200t255 75.5q139 0 254 -75.5t178.5 -200t63.5 -269.5q0 -208 -123 -363zM408 547q0 -148 91.5 -255.5t229.5 -107.5t229 107.5t91 255.5
q0 146 -91 253t-229 107t-229.5 -107t-91.5 -253z" />
    <glyph glyph-name="uni06A1.fina" unicode="&#x6a1;" horiz-adv-x="2676" 
d="M2431 184h252v-184h-2093q-238 0 -389.5 131t-151.5 338v133l176 88v-221q0 -128 100 -206.5t265 -78.5h1093q-122 153 -122 363q0 145 63.5 269.5t178.5 200t255 75.5q139 0 254 -75.5t178.5 -200t63.5 -269.5q0 -208 -123 -363zM1737 547q0 -148 91.5 -255.5
t229.5 -107.5t229 107.5t91 255.5q0 146 -91 253t-229 107t-229.5 -107t-91.5 -253z" />
    <glyph glyph-name="uniFB51" unicode="&#x671;" horiz-adv-x="643" arabic-form="final" 
d="M571 1825q0 -57 -40 -97t-97 -40h-293q-48 0 -86 -7.5t-58 -18.5t-33.5 -22t-17.5 -18l-3 -8l-58 41q1 4 4 10t17 22.5t33 30.5t55 27.5t80 19.5q4 29 12.5 57.5t28 64.5t46.5 62.5t71.5 45t99.5 18.5h84q69 0 112 -42t43 -103v-43zM141 1769h281q32 0 54 22t22 54v10
q0 32 -21.5 55t-52.5 23h-92q-46 0 -82.5 -16t-58.5 -43t-34.5 -52t-19.5 -53h4zM561 184h88v-184h-88q-175 0 -268.5 94.5t-93.5 272.5v1126l176 88v-1214q0 -100 42 -141.5t144 -41.5z" />
    <glyph glyph-name="uniFB57" unicode="&#x67e;" horiz-adv-x="2533" arabic-form="final" 
d="M2451 184h89v-184h-89q-259 0 -348 182q-73 -87 -186.5 -134.5t-253.5 -47.5h-1088q-238 0 -389 131t-151 338v174l176 88v-262q0 -128 99.5 -206.5t264.5 -78.5h1088q165 0 265 78.5t100 206.5v352l176 88v-440q0 -157 55.5 -221t191.5 -64zM1141 -279l131 -131
l-131 -131l-133 131zM1315 -410l133 131l131 -131l-131 -131zM1159 -655l133 131l131 -131l-131 -131z" />
    <glyph glyph-name="uniFB58" unicode="&#x67e;" horiz-adv-x="788" arabic-form="initial" 
d="M-39 0q-46 0 -78.5 26.5t-32.5 65.5t32.5 65.5t78.5 26.5h113q165 0 264.5 78.5t99.5 206.5v426l176 88v-514q0 -207 -151 -338t-389 -131h-113zM158 -541l-133 131l133 131l131 -131zM465 -541l-133 131l133 131l131 -131zM309 -786l-133 131l133 131l131 -131z" />
    <glyph glyph-name="uniFB59" unicode="&#x67e;" horiz-adv-x="878" arabic-form="medial" 
d="M797 184h88v-184h-88q-234 0 -338 143q-110 -143 -348 -143h-150q-46 0 -78.5 26.5t-32.5 65.5t32.5 65.5t78.5 26.5h150q143 0 202.5 65t59.5 220v229l176 88v-317q0 -157 56 -221t192 -64zM262 -279l131 -131l-131 -131l-133 131zM436 -410l133 131l131 -131l-131 -131
zM281 -655l133 131l131 -131l-131 -131z" />
    <glyph glyph-name="uniFB6B" unicode="&#x6a4;" horiz-adv-x="2676" arabic-form="final" 
d="M2255 1622l-131 -131l-133 131l133 131zM2103 1376l-131 -131l-133 131l133 131zM2279 1245l-133 131l133 131l131 -131zM2431 184h252v-184h-2093q-238 0 -389.5 131t-151.5 338v133l176 88v-221q0 -128 100 -206.5t265 -78.5h1093q-122 153 -122 363q0 145 63.5 269.5
t178.5 200t255 75.5q139 0 254 -75.5t178.5 -200t63.5 -269.5q0 -208 -123 -363zM1737 547q0 -148 91.5 -255.5t229.5 -107.5t229 107.5t91 255.5q0 146 -91 253t-229 107t-229.5 -107t-91.5 -253z" />
    <glyph glyph-name="uniFB6C" unicode="&#x6a4;" horiz-adv-x="1384" arabic-form="initial" 
d="M868 1622l-131 -131l-133 131l133 131zM717 1376l-131 -131l-133 131l133 131zM893 1245l-133 131l133 131l131 -131zM729 1092q139 0 254 -75.5t178.5 -200t63.5 -269.5q0 -146 -63.5 -271t-178 -200.5t-254.5 -75.5h-768q-46 0 -78.5 26.5t-32.5 65.5t32.5 65.5
t78.5 26.5h393q-123 155 -123 363q0 145 64 269.5t179 200t255 75.5zM729 184q138 0 229 107.5t91 255.5q0 146 -91 253t-229 107t-229.5 -107t-91.5 -253q0 -148 91.5 -255.5t229.5 -107.5z" />
    <glyph glyph-name="uniFB6D" unicode="&#x6a4;" horiz-adv-x="1323" arabic-form="medial" 
d="M868 1622l-131 -131l-133 131l133 131zM717 1376l-131 -131l-133 131l133 131zM893 1245l-133 131l133 131l131 -131zM1102 184h227v-184h-1368q-46 0 -78.5 26.5t-32.5 65.5t32.5 65.5t78.5 26.5h393q-123 155 -123 363q0 145 64 269.5t179 200t255 75.5
q139 0 254 -75.5t178.5 -200t63.5 -269.5q0 -208 -123 -363zM408 547q0 -148 91.5 -255.5t229.5 -107.5t229 107.5t91 255.5q0 146 -91 253t-229 107t-229.5 -107t-91.5 -253z" />
    <glyph glyph-name="uniFB7B" unicode="&#x686;" horiz-adv-x="1415" arabic-form="final" 
d="M643 -768q-245 0 -402 134t-157 343q0 207 157.5 341t401.5 134h500v246q0 180 -130 308t-313 128h-608l92 185h516q168 0 310.5 -83.5t225.5 -226.5t83 -311v-246h102v-184h-778q-171 0 -277 -81t-106 -210q0 -131 106 -212t277 -81h258l-92 -184h-166zM1022 -397
l-133 131l133 131l131 -131zM1329 -397l-133 131l133 131l131 -131zM1174 -643l-134 131l134 131l131 -131z" />
    <glyph glyph-name="uniFB7C" unicode="&#x686;" horiz-adv-x="1550" arabic-form="initial" 
d="M-39 0q-46 0 -78.5 26.5t-32.5 65.5t32.5 65.5t78.5 26.5h1276v246q0 180 -129.5 308t-312.5 128h-609l93 185h516q168 0 310.5 -83.5t225 -226.5t82.5 -311v-299l-131 -131h-1321zM592 -541l-133 131l133 131l131 -131zM899 -541l-133 131l133 131l131 -131zM743 -786
l-133 131l133 131l131 -131z" />
    <glyph glyph-name="uniFB7D" unicode="&#x686;" horiz-adv-x="1509" arabic-form="medial" 
d="M-39 0q-46 0 -78.5 26.5t-32.5 65.5t32.5 65.5t78.5 26.5h1276v246q0 180 -129.5 308t-312.5 128h-609l93 185h516q168 0 310.5 -83.5t225 -226.5t82.5 -311v-246h103v-184h-1555zM633 -541l-133 131l133 131l131 -131zM940 -541l-133 131l133 131l131 -131zM784 -786
l-133 131l133 131l131 -131z" />
    <glyph glyph-name="uniFE82" unicode="&#x622;" horiz-adv-x="643" arabic-form="final" 
d="M-57 1640l-62 52q28 130 117 175.5t203 -14.5q19 -10 56.5 -32t57 -32.5t53 -25.5t54 -18.5t49 -3.5t50 11.5t46 34.5t45.5 58l54 -71q-25 -41 -52 -70t-55.5 -43t-55 -21t-57.5 -2t-56.5 11.5t-57.5 23t-54.5 28.5t-54.5 31t-51 29q-86 45 -147.5 12t-81.5 -133zM561 0
q-175 0 -268.5 94.5t-93.5 272.5v1126l176 88v-1214q0 -100 42 -141.5t144 -41.5h88v-184h-88z" />
    <glyph glyph-name="uniFE84" unicode="&#x623;" horiz-adv-x="643" arabic-form="final" 
d="M502 1686h-451l51 90h45v57q0 120 66.5 191t175.5 79l35 -88q-92 0 -139 -41.5t-47 -140.5v-57h315zM561 184h88v-184h-88q-175 0 -268.5 94.5t-93.5 272.5v1126l176 88v-1214q0 -100 42 -141.5t144 -41.5z" />
    <glyph glyph-name="uniFE86" unicode="&#x624;" horiz-adv-x="1177" arabic-form="final" 
d="M373 1288l51 90h45v58q0 120 66.5 191t175.5 79l34 -88q-92 0 -139 -41.5t-47 -140.5v-58h315l-51 -90h-450zM1055 184h129v-184h-129q-1 -341 -174 -518.5t-496 -177.5h-82l-92 184h174q249 0 371 124.5t123 387.5h-299q-185 0 -300.5 108.5t-115.5 290.5v191
q0 203 129 332t317 129q187 0 316 -129t129 -332v-406zM340 399q0 -102 70 -158.5t170 -56.5h299v406q0 126 -78 201t-191 75q-115 0 -192.5 -74t-77.5 -202v-191z" />
    <glyph glyph-name="uniFE88" unicode="&#x625;" horiz-adv-x="643" arabic-form="final" 
d="M561 184h88v-184h-88q-175 0 -268.5 94.5t-93.5 272.5v1388l176 88v-1476q0 -100 42 -141.5t144 -41.5zM305 -477h316l-52 -90h-450l51 90h45v57q0 120 66.5 191t175.5 79l35 -88q-93 0 -140 -41.5t-47 -140.5v-57z" />
    <glyph glyph-name="uniFE8A" unicode="&#x626;" horiz-adv-x="2224" arabic-form="final" 
d="M334 477l57 101h49v63q0 132 73.5 210t193.5 87l36 -98q-101 0 -152.5 -45.5t-51.5 -153.5v-63h348l-58 -101h-495zM2230 184v-184h-254q93 -81 140 -172t45 -178q-3 -148 -133 -247t-351 -99h-960q-172 0 -322 68.5t-248.5 189.5t-123.5 270l167 88q1 -117 72 -216.5
t192 -157.5t263 -58h921q332 0 338 180q0 31 -6 59t-19.5 53t-27.5 45.5t-40 42.5t-45 37.5t-53.5 37t-56.5 34.5t-63 36t-63 36q-18 11 -96.5 56.5t-107.5 63.5t-76 50t-75 57l121 138q251 -230 520 -230h342z" />
    <glyph glyph-name="uniFE8B" unicode="&#x626;" horiz-adv-x="788" arabic-form="initial" 
d="M156 1139l51 90h45v57q0 120 66.5 191t175.5 79l34 -88q-92 0 -139 -41.5t-47 -140.5v-57h315l-51 -90h-450zM438 469v426l176 88v-514q0 -207 -151 -338t-389 -131h-113q-46 0 -78.5 26.5t-32.5 65.5t32.5 65.5t78.5 26.5h113q165 0 264.5 78.5t99.5 206.5z" />
    <glyph glyph-name="uniFE8C" unicode="&#x626;" horiz-adv-x="878" arabic-form="medial" 
d="M176 1137l51 90h45v57q0 120 66.5 191t175.5 79l35 -88q-93 0 -140 -41.5t-47 -140.5v-57h316l-51 -90h-451zM797 184h88v-184h-88q-234 0 -338 143q-110 -143 -348 -143h-150q-46 0 -78.5 26.5t-32.5 65.5t32.5 65.5t78.5 26.5h150q143 0 202.5 65t59.5 220v229l176 88
v-317q0 -157 56 -221t192 -64z" />
    <glyph glyph-name="uniFE8E" unicode="&#x627;" horiz-adv-x="643" arabic-form="final" 
d="M561 0q-175 0 -268.5 94.5t-93.5 272.5v1388l176 88v-1476q0 -100 42 -141.5t144 -41.5h88v-184h-88z" />
    <glyph glyph-name="uniFE90" unicode="&#x628;" horiz-adv-x="2533" arabic-form="final" 
d="M2451 184h89v-184h-89q-259 0 -348 182q-73 -87 -186.5 -134.5t-253.5 -47.5h-1088q-238 0 -389 131t-151 338v174l176 88v-262q0 -128 99.5 -206.5t264.5 -78.5h1088q165 0 265 78.5t100 206.5v352l176 88v-440q0 -157 55.5 -221t191.5 -64zM1100 -410l133 131l131 -131
l-131 -131z" />
    <glyph glyph-name="uniFE91" unicode="&#x628;" horiz-adv-x="788" arabic-form="initial" 
d="M-39 0q-46 0 -78.5 26.5t-32.5 65.5t32.5 65.5t78.5 26.5h113q165 0 264.5 78.5t99.5 206.5v426l176 88v-514q0 -207 -151 -338t-389 -131h-113zM260 -541l-133 131l133 131l131 -131z" />
    <glyph glyph-name="uniFE92" unicode="&#x628;" horiz-adv-x="878" arabic-form="medial" 
d="M797 184h88v-184h-88q-234 0 -338 143q-110 -143 -348 -143h-150q-46 0 -78.5 26.5t-32.5 65.5t32.5 65.5t78.5 26.5h150q143 0 202.5 65t59.5 220v229l176 88v-317q0 -157 56 -221t192 -64zM229 -410l133 131l132 -131l-132 -131z" />
    <glyph glyph-name="uniFE94" unicode="&#x629;" horiz-adv-x="1243" arabic-form="final" 
d="M616 1458l-131 -131l-133 131l133 131zM924 1458l-131 -131l-134 131l134 131zM1186 184h63v-184h-57q-184 0 -252 117q-110 -117 -268 -117h-256q-132 0 -212.5 83t-80.5 214v252q0 207 138.5 354.5t334.5 147.5h344l100 -103v-618q0 -88 33.5 -117t112.5 -29zM864 373
v493h-268q-123 0 -210 -92.5t-87 -224.5v-252q0 -113 117 -113h256q79 0 135.5 55.5t56.5 133.5z" />
    <glyph glyph-name="uniFE96" unicode="&#x62a;" horiz-adv-x="2533" arabic-form="final" 
d="M1210 1171l-131 -131l-133 131l133 132zM1518 1171l-132 -131l-133 131l133 132zM2451 184h89v-184h-89q-259 0 -348 182q-73 -87 -186.5 -134.5t-253.5 -47.5h-1088q-238 0 -389 131t-151 338v174l176 88v-262q0 -128 99.5 -206.5t264.5 -78.5h1088q165 0 265 78.5
t100 206.5v352l176 88v-440q0 -157 55.5 -221t191.5 -64z" />
    <glyph glyph-name="uniFE97" unicode="&#x62a;" horiz-adv-x="788" arabic-form="initial" 
d="M322 1108l-134 131l134 131l131 -131zM629 1108l-133 131l133 131l131 -131zM-39 0q-46 0 -78.5 26.5t-32.5 65.5t32.5 65.5t78.5 26.5h113q165 0 264.5 78.5t99.5 206.5v426l176 88v-514q0 -207 -151 -338t-389 -131h-113z" />
    <glyph glyph-name="uniFE98" unicode="&#x62a;" horiz-adv-x="878" arabic-form="medial" 
d="M432 1141l-131 -131l-133 131l133 131zM739 1141l-131 -131l-133 131l133 131zM797 184h88v-184h-88q-234 0 -338 143q-110 -143 -348 -143h-150q-46 0 -78.5 26.5t-32.5 65.5t32.5 65.5t78.5 26.5h150q143 0 202.5 65t59.5 220v229l176 88v-317q0 -157 56 -221t192 -64z
" />
    <glyph glyph-name="uniFE9A" unicode="&#x62b;" horiz-adv-x="2533" arabic-form="final" 
d="M1382 1417l-131 -131l-133 131l133 131zM1231 1171l-131 -131l-133 131l133 132zM1407 1040l-133 131l133 132l131 -132zM2451 184h89v-184h-89q-259 0 -348 182q-73 -87 -186.5 -134.5t-253.5 -47.5h-1088q-238 0 -389 131t-151 338v174l176 88v-262q0 -128 99.5 -206.5
t264.5 -78.5h1088q165 0 265 78.5t100 206.5v352l176 88v-440q0 -157 55.5 -221t191.5 -64z" />
    <glyph glyph-name="uniFE9B" unicode="&#x62b;" horiz-adv-x="788" arabic-form="initial" 
d="M453 1354l-134 131l134 131l131 -131zM301 1108l-133 131l133 131l131 -131zM608 1108l-133 131l133 131l131 -131zM-39 0q-46 0 -78.5 26.5t-32.5 65.5t32.5 65.5t78.5 26.5h113q165 0 264.5 78.5t99.5 206.5v426l176 88v-514q0 -207 -151 -338t-389 -131h-113z" />
    <glyph glyph-name="uniFE9C" unicode="&#x62b;" horiz-adv-x="878" arabic-form="medial" 
d="M535 1386l-132 -131l-133 131l133 132zM383 1141l-131 -131l-133 131l133 131zM559 1010l-133 131l133 131l131 -131zM797 184h88v-184h-88q-234 0 -338 143q-110 -143 -348 -143h-150q-46 0 -78.5 26.5t-32.5 65.5t32.5 65.5t78.5 26.5h150q143 0 202.5 65t59.5 220v229
l176 88v-317q0 -157 56 -221t192 -64z" />
    <glyph glyph-name="uniFE9E" unicode="&#x62c;" horiz-adv-x="1415" arabic-form="final" 
d="M643 -768q-245 0 -402 134t-157 343q0 207 157.5 341t401.5 134h500v246q0 180 -130 308t-313 128h-608l92 185h516q168 0 310.5 -83.5t225.5 -226.5t83 -311v-246h102v-184h-778q-171 0 -277 -81t-106 -210q0 -131 106 -212t277 -81h258l-92 -184h-166zM1124 -541
l-133 131l133 131l131 -131z" />
    <glyph glyph-name="uniFE9F" unicode="&#x62c;" horiz-adv-x="1550" arabic-form="initial" 
d="M-39 0q-46 0 -78.5 26.5t-32.5 65.5t32.5 65.5t78.5 26.5h1276v246q0 180 -129.5 308t-312.5 128h-609l93 185h516q168 0 310.5 -83.5t225 -226.5t82.5 -311v-299l-131 -131h-1321zM754 -541l-133 131l133 131l131 -131z" />
    <glyph glyph-name="uniFEA0" unicode="&#x62c;" horiz-adv-x="1509" arabic-form="medial" 
d="M-39 0q-46 0 -78.5 26.5t-32.5 65.5t32.5 65.5t78.5 26.5h1276v246q0 180 -129.5 308t-312.5 128h-609l93 185h516q168 0 310.5 -83.5t225 -226.5t82.5 -311v-246h103v-184h-1555zM754 -541l-133 131l133 131l131 -131z" />
    <glyph glyph-name="uniFEA2" unicode="&#x62d;" horiz-adv-x="1415" arabic-form="final" 
d="M643 -768q-245 0 -402 134t-157 343q0 207 157.5 341t401.5 134h500v246q0 180 -130 308t-313 128h-608l92 185h516q168 0 310.5 -83.5t225.5 -226.5t83 -311v-246h102v-184h-778q-171 0 -277 -81t-106 -210q0 -131 106 -212t277 -81h258l-92 -184h-166z" />
    <glyph glyph-name="uniFEA3" unicode="&#x62d;" horiz-adv-x="1550" arabic-form="initial" 
d="M-39 0q-46 0 -78.5 26.5t-32.5 65.5t32.5 65.5t78.5 26.5h1276v246q0 180 -129.5 308t-312.5 128h-609l93 185h516q168 0 310.5 -83.5t225 -226.5t82.5 -311v-299l-131 -131h-1321z" />
    <glyph glyph-name="uniFEA4" unicode="&#x62d;" horiz-adv-x="1509" arabic-form="medial" 
d="M-39 0q-46 0 -78.5 26.5t-32.5 65.5t32.5 65.5t78.5 26.5h1276v246q0 180 -129.5 308t-312.5 128h-609l93 185h516q168 0 310.5 -83.5t225 -226.5t82.5 -311v-246h103v-184h-1555z" />
    <glyph glyph-name="uniFEA6" unicode="&#x62e;" horiz-adv-x="1415" arabic-form="final" 
d="M715 1327l-133 131l133 131l131 -131zM643 -768q-245 0 -402 134t-157 343q0 207 157.5 341t401.5 134h500v246q0 180 -130 308t-313 128h-608l92 185h516q168 0 310.5 -83.5t225.5 -226.5t83 -311v-246h102v-184h-778q-171 0 -277 -81t-106 -210q0 -131 106 -212
t277 -81h258l-92 -184h-166z" />
    <glyph glyph-name="uniFEA7" unicode="&#x62e;" horiz-adv-x="1550" arabic-form="initial" 
d="M715 1327l-133 131l133 131l131 -131zM-39 0q-46 0 -78.5 26.5t-32.5 65.5t32.5 65.5t78.5 26.5h1276v246q0 180 -129.5 308t-312.5 128h-609l93 185h516q168 0 310.5 -83.5t225 -226.5t82.5 -311v-299l-131 -131h-1321z" />
    <glyph glyph-name="uniFEA8" unicode="&#x62e;" horiz-adv-x="1509" arabic-form="medial" 
d="M715 1327l-133 131l133 131l131 -131zM-39 0q-46 0 -78.5 26.5t-32.5 65.5t32.5 65.5t78.5 26.5h1276v246q0 180 -129.5 308t-312.5 128h-609l93 185h516q168 0 310.5 -83.5t225 -226.5t82.5 -311v-246h103v-184h-1555z" />
    <glyph glyph-name="uniFEAA" unicode="&#x62f;" horiz-adv-x="1021" arabic-form="final" 
d="M459 1079q226 -23 346.5 -178t120.5 -422v-295h102v-184h-987l92 184h617v295q0 215 -90 316.5t-279 103.5z" />
    <glyph glyph-name="uniFEAC" unicode="&#x630;" horiz-adv-x="1021" arabic-form="final" 
d="M469 1327l-133 131l133 131l131 -131zM459 1079q226 -23 346.5 -178t120.5 -422v-295h102v-184h-987l92 184h617v295q0 215 -90 316.5t-279 103.5z" />
    <glyph glyph-name="uniFEAE" unicode="&#x631;" horiz-adv-x="714" arabic-form="final" 
d="M637 184h125v-184h-105q-147 0 -227 57v-184q0 -225 -144 -395.5t-372 -214.5l-92 172q197 17 314.5 137t117.5 301v774l176 88v-266q0 -173 41 -229t166 -56z" />
    <glyph glyph-name="uniFEB0" unicode="&#x632;" horiz-adv-x="714" arabic-form="final" 
d="M473 1065l-131 -131l-133 131l133 131zM637 184h125v-184h-105q-147 0 -227 57v-184q0 -225 -144 -395.5t-372 -214.5l-92 172q197 17 314.5 137t117.5 301v774l176 88v-266q0 -173 41 -229t166 -56z" />
    <glyph glyph-name="uniFEB2" unicode="&#x633;" horiz-adv-x="3342" arabic-form="final" 
d="M3256 184h92v-184h-71q-245 0 -340 164q-102 -164 -352 -164q-253 0 -355 170q-102 -170 -356 -170q-183 0 -287 88v-164q0 -127 -55.5 -242t-150 -197.5t-224 -131.5t-272.5 -49h-86q-191 0 -352.5 82.5t-256 225.5t-94.5 312v303l176 88v-391q0 -118 70.5 -218.5
t192 -159t264.5 -58.5h86q143 0 264 58.5t191.5 159t70.5 218.5v711l176 88v-254q0 -155 65.5 -220t221.5 -65q136 0 192 64t56 221v166l176 88v-254q0 -155 65.5 -220t221.5 -65q136 0 191.5 64t55.5 221v426l177 88v-514q0 -157 55.5 -221t191.5 -64z" />
    <glyph glyph-name="uniFEB3" unicode="&#x633;" horiz-adv-x="2250" arabic-form="initial" 
d="M1890 895l176 88v-534q0 -469 -424 -469q-253 0 -358 182q-104 -162 -352 -162q-253 0 -352 170q-102 -170 -357 -170h-262q-46 0 -78.5 26.5t-32.5 65.5t32.5 65.5t78.5 26.5h262q136 0 192 64t56 221v166l176 88v-254q0 -155 65 -220t220 -65q137 0 193.5 64.5
t56.5 220.5v166l176 88v-274q0 -155 64.5 -220t219.5 -65q136 0 192 64t56 221v446z" />
    <glyph glyph-name="uniFEB4" unicode="&#x633;" horiz-adv-x="2447" arabic-form="medial" 
d="M2363 184h91v-184h-70q-236 0 -336 154q-100 -174 -358 -174q-254 0 -359 182q-104 -162 -352 -162q-253 0 -352 170q-102 -170 -357 -170h-309q-46 0 -78.5 26.5t-32.5 65.5t32.5 65.5t78.5 26.5h309q136 0 192 64t56 221v166l176 88v-254q0 -155 65 -220t220 -65
q137 0 193.5 64.5t56.5 220.5v166l176 88v-274q0 -155 65 -220t220 -65q136 0 191.5 64t55.5 221v446l177 88v-514q0 -157 56 -221t193 -64z" />
    <glyph glyph-name="uniFEB6" unicode="&#x634;" horiz-adv-x="3342" arabic-form="final" 
d="M2349 1432l-131 -132l-133 132l133 131zM2136 1145l-131 -131l-133 131l133 131zM2435 1014l-133 131l133 131l131 -131zM3256 184h92v-184h-71q-245 0 -340 164q-102 -164 -352 -164q-253 0 -355 170q-102 -170 -356 -170q-183 0 -287 88v-164q0 -127 -55.5 -242
t-150 -197.5t-224 -131.5t-272.5 -49h-86q-191 0 -352.5 82.5t-256 225.5t-94.5 312v303l176 88v-391q0 -118 70.5 -218.5t192 -159t264.5 -58.5h86q143 0 264 58.5t191.5 159t70.5 218.5v711l176 88v-254q0 -155 65.5 -220t221.5 -65q136 0 192 64t56 221v166l176 88v-254
q0 -155 65.5 -220t221.5 -65q136 0 191.5 64t55.5 221v426l177 88v-514q0 -157 55.5 -221t191.5 -64z" />
    <glyph glyph-name="uniFEB7" unicode="&#x634;" horiz-adv-x="2250" arabic-form="initial" 
d="M1454 1432l-131 -132l-133 132l133 131zM1241 1145l-131 -131l-133 131l133 131zM1540 1014l-133 131l133 131l131 -131zM1890 895l176 88v-534q0 -469 -424 -469q-253 0 -358 182q-104 -162 -352 -162q-253 0 -352 170q-102 -170 -357 -170h-262q-46 0 -78.5 26.5
t-32.5 65.5t32.5 65.5t78.5 26.5h262q136 0 192 64t56 221v166l176 88v-254q0 -155 65 -220t220 -65q137 0 193.5 64.5t56.5 220.5v166l176 88v-274q0 -155 64.5 -220t219.5 -65q136 0 192 64t56 221v446z" />
    <glyph glyph-name="uniFEB8" unicode="&#x634;" horiz-adv-x="2447" arabic-form="medial" 
d="M1454 1432l-131 -132l-133 132l133 131zM1241 1145l-131 -131l-133 131l133 131zM1540 1014l-133 131l133 131l131 -131zM2363 184h91v-184h-70q-236 0 -336 154q-100 -174 -358 -174q-254 0 -359 182q-104 -162 -352 -162q-253 0 -352 170q-102 -170 -357 -170h-309
q-46 0 -78.5 26.5t-32.5 65.5t32.5 65.5t78.5 26.5h309q136 0 192 64t56 221v166l176 88v-254q0 -155 65 -220t220 -65q137 0 193.5 64.5t56.5 220.5v166l176 88v-274q0 -155 65 -220t220 -65q136 0 191.5 64t55.5 221v446l177 88v-514q0 -157 56 -221t193 -64z" />
    <glyph glyph-name="uniFEBA" unicode="&#x635;" horiz-adv-x="3303" arabic-form="final" 
d="M3056 184h254v-184h-1702v-76q0 -169 -94.5 -312t-256 -225.5t-352.5 -82.5h-65q-191 0 -352.5 82.5t-256 225.5t-94.5 312v385l176 88v-473q0 -118 70.5 -218.5t192 -159t264.5 -58.5h65q143 0 264.5 58.5t192 159t70.5 218.5v905l176 89v-300q216 433 759 433h308
q132 0 243.5 -67.5t176.5 -183t65 -251.5v-47q0 -182 -104 -318zM2683 184q129 0 215 91.5t86 226.5v47q0 131 -91 224t-218 93h-308q-126 0 -232 -26.5t-179.5 -69t-132.5 -103.5t-94.5 -120.5t-61 -130t-36.5 -124t-17 -108.5h1069z" />
    <glyph glyph-name="uniFEBB" unicode="&#x635;" horiz-adv-x="2578" arabic-form="initial" 
d="M1911 1051q199 0 341 -147.5t142 -354.5v-47q0 -212 -138 -357t-339 -145h-1186q-217 9 -301 182q-60 -88 -162.5 -135t-238.5 -47h-109q-46 0 -78 26.5t-32 65.5t32 65.5t78 26.5h109q303 0 303 285v66l176 88v-154q0 -139 40 -204t138 -77q6 63 18 125t42 151t71.5 166
t112.5 157t160 136t219.5 92t285.5 36h316zM2218 502v47q0 132 -89.5 224.5t-217.5 92.5h-316q-126 0 -231.5 -26.5t-179 -69t-132 -103.5t-94 -120.5t-61 -130t-36.5 -124t-17 -108.5h1073q129 0 215 91t86 227z" />
    <glyph glyph-name="uniFEBC" unicode="&#x635;" horiz-adv-x="2557" arabic-form="medial" 
d="M2296 184h268v-184h-1827q-219 9 -307 184q-124 -184 -401 -184h-109q-46 0 -78 26.5t-32 65.5t32 65.5t78 26.5h109q303 0 303 285v66l176 88v-154q0 -138 42.5 -203.5t141.5 -77.5q6 62 18 124.5t42 151.5t71.5 166t113 157t160.5 136t219.5 92t285.5 36h315
q199 0 341 -147.5t142 -354.5v-47q0 -182 -104 -318zM1923 184q129 0 215 91t86 227v47q0 132 -89.5 224.5t-217.5 92.5h-315q-126 0 -231.5 -26.5t-179 -69t-132.5 -103t-94.5 -120.5t-61 -130.5t-36.5 -124t-17 -108.5h1073z" />
    <glyph glyph-name="uniFEBE" unicode="&#x636;" horiz-adv-x="3303" arabic-form="final" 
d="M2546 1458l-131 -131l-134 131l134 131zM3056 184h254v-184h-1702v-76q0 -169 -94.5 -312t-256 -225.5t-352.5 -82.5h-65q-191 0 -352.5 82.5t-256 225.5t-94.5 312v385l176 88v-473q0 -118 70.5 -218.5t192 -159t264.5 -58.5h65q143 0 264.5 58.5t192 159t70.5 218.5
v905l176 89v-300q216 433 759 433h308q132 0 243.5 -67.5t176.5 -183t65 -251.5v-47q0 -182 -104 -318zM2683 184q129 0 215 91.5t86 226.5v47q0 131 -91 224t-218 93h-308q-126 0 -232 -26.5t-179.5 -69t-132.5 -103.5t-94.5 -120.5t-61 -130t-36.5 -124t-17 -108.5h1069z
" />
    <glyph glyph-name="uniFEBF" unicode="&#x636;" horiz-adv-x="2578" arabic-form="initial" 
d="M1829 1458l-131 -131l-133 131l133 131zM1911 1051q199 0 341 -147.5t142 -354.5v-47q0 -212 -138 -357t-339 -145h-1186q-217 9 -301 182q-60 -88 -162.5 -135t-238.5 -47h-109q-46 0 -78 26.5t-32 65.5t32 65.5t78 26.5h109q303 0 303 285v66l176 88v-154
q0 -139 40 -204t138 -77q6 63 18 125t42 151t71.5 166t112.5 157t160 136t219.5 92t285.5 36h316zM2218 502v47q0 132 -89.5 224.5t-217.5 92.5h-316q-126 0 -231.5 -26.5t-179 -69t-132 -103.5t-94 -120.5t-61 -130t-36.5 -124t-17 -108.5h1073q129 0 215 91t86 227z" />
    <glyph glyph-name="uniFEC0" unicode="&#x636;" horiz-adv-x="2557" arabic-form="medial" 
d="M1829 1458l-131 -131l-133 131l133 131zM2296 184h268v-184h-1827q-219 9 -307 184q-124 -184 -401 -184h-109q-46 0 -78 26.5t-32 65.5t32 65.5t78 26.5h109q303 0 303 285v66l176 88v-154q0 -138 42.5 -203.5t141.5 -77.5q6 62 18 124.5t42 151.5t71.5 166t113 157
t160.5 136t219.5 92t285.5 36h315q199 0 341 -147.5t142 -354.5v-47q0 -182 -104 -318zM1923 184q129 0 215 91t86 227v47q0 132 -89.5 224.5t-217.5 92.5h-315q-126 0 -231.5 -26.5t-179 -69t-132.5 -103t-94.5 -120.5t-61 -130.5t-36.5 -124t-17 -108.5h1073z" />
    <glyph glyph-name="uniFEC2" unicode="&#x637;" horiz-adv-x="2146" arabic-form="final" 
d="M1898 184h295v-184h-2101l-92 184h274v1571l177 88v-1179q236 387 759 387h308q132 0 243.5 -67.5t176.5 -183t65 -251.5v-47q0 -181 -105 -318zM457 184h1069q129 0 215 91.5t86 226.5v47q0 131 -91 224t-218 93h-308q-126 0 -232 -26.5t-179.5 -69t-132 -103
t-94 -120.5t-61 -130.5t-37 -124t-17.5 -108.5z" />
    <glyph glyph-name="uniFEC3" unicode="&#x637;" horiz-adv-x="2187" arabic-form="initial" 
d="M1518 1051q132 0 243.5 -67.5t176.5 -183t65 -251.5v-47q0 -212 -138 -357t-339 -145h-1565q-46 0 -78.5 26.5t-32.5 65.5t32.5 65.5t78.5 26.5h313v1571l177 88v-1179q236 387 759 387h308zM1827 502v47q0 131 -91 224t-218 93h-308q-126 0 -232 -26.5t-179.5 -69
t-132 -103t-94 -120.5t-61 -130.5t-37 -124t-17.5 -108.5h1069q129 0 215 91.5t86 226.5z" />
    <glyph glyph-name="uniFEC4" unicode="&#x637;" horiz-adv-x="2146" arabic-form="medial" 
d="M1898 184h254v-184h-2191q-46 0 -78.5 26.5t-32.5 65.5t32.5 65.5t78.5 26.5h313v1571l177 88v-1179q236 387 759 387h308q132 0 243.5 -67.5t176.5 -183t65 -251.5v-47q0 -181 -105 -318zM457 184h1069q129 0 215 91.5t86 226.5v47q0 131 -91 224t-218 93h-308
q-126 0 -232 -26.5t-179.5 -69t-132 -103t-94 -120.5t-61 -130.5t-37 -124t-17.5 -108.5z" />
    <glyph glyph-name="uniFEC6" unicode="&#x638;" horiz-adv-x="2146" arabic-form="final" 
d="M1898 184h295v-184h-2101l-92 184h274v1571l177 88v-1179q236 387 759 387h308q132 0 243.5 -67.5t176.5 -183t65 -251.5v-47q0 -181 -105 -318zM1276 1458l-131 -131l-133 131l133 131zM457 184h1069q129 0 215 91.5t86 226.5v47q0 131 -91 224t-218 93h-308
q-126 0 -232 -26.5t-179.5 -69t-132 -103t-94 -120.5t-61 -130.5t-37 -124t-17.5 -108.5z" />
    <glyph glyph-name="uniFEC7" unicode="&#x638;" horiz-adv-x="2187" arabic-form="initial" 
d="M1518 1051q132 0 243.5 -67.5t176.5 -183t65 -251.5v-47q0 -212 -138 -357t-339 -145h-1565q-46 0 -78.5 26.5t-32.5 65.5t32.5 65.5t78.5 26.5h313v1571l177 88v-1179q236 387 759 387h308zM1276 1458l-131 -131l-133 131l133 131zM1827 502v47q0 131 -91 224t-218 93
h-308q-126 0 -232 -26.5t-179.5 -69t-132 -103t-94 -120.5t-61 -130.5t-37 -124t-17.5 -108.5h1069q129 0 215 91.5t86 226.5z" />
    <glyph glyph-name="uniFEC8" unicode="&#x638;" horiz-adv-x="2146" arabic-form="medial" 
d="M1898 184h254v-184h-2191q-46 0 -78.5 26.5t-32.5 65.5t32.5 65.5t78.5 26.5h313v1571l177 88v-1179q236 387 759 387h308q132 0 243.5 -67.5t176.5 -183t65 -251.5v-47q0 -181 -105 -318zM1276 1458l-131 -131l-133 131l133 131zM457 184h1069q129 0 215 91.5t86 226.5
v47q0 131 -91 224t-218 93h-308q-126 0 -232 -26.5t-179.5 -69t-132 -103t-94 -120.5t-61 -130.5t-37 -124t-17.5 -108.5z" />
    <glyph glyph-name="uniFECA" unicode="&#x639;" horiz-adv-x="1519" arabic-form="final" 
d="M811 164q-25 -8 -74 -24q-97 -31 -145.5 -48t-121.5 -51t-108 -66t-62.5 -82.5t-27.5 -111.5q0 -131 106 -212t277 -81h588l-82 -184h-506q-245 0 -402 134t-157 343q0 95 39 174t85 127.5t144.5 99.5t155.5 72.5t180 63.5q7 3 11 4l-365 581l143 148h555q86 0 156.5 -26
t116.5 -73.5t69 -109.5t17.5 -137.5t-41.5 -153.5q-52 -112 -147 -189t-228 -133q25 -27 51.5 -36t69.5 -9h418v-184h-418q-107 0 -175 43.5t-122 120.5zM575 866l308 -483q122 48 202.5 105t116.5 137q51 113 8 177t-166 64h-469z" />
    <glyph glyph-name="uniFECB" unicode="&#x639;" horiz-adv-x="1472" arabic-form="initial" 
d="M926 184h444l-92 -184h-1317q-46 0 -78.5 26.5t-32.5 65.5t32.5 65.5t78.5 26.5h545q-199 125 -199 367q0 236 166.5 368t452.5 132h41l90 -185h-131q-215 0 -329 -79.5t-114 -235.5q0 -62 18.5 -115t47.5 -89t70.5 -64.5t81 -45.5t85 -29t77.5 -16.5t63 -7.5z" />
    <glyph glyph-name="uniFECC" unicode="&#x639;" horiz-adv-x="1447" arabic-form="medial" 
d="M1098 184h356v-184h-336q-100 0 -171.5 22.5t-137.5 77.5q-119 -100 -266 -100h-582q-46 0 -78.5 26.5t-32.5 65.5t32.5 65.5t78.5 26.5h582h15.5h16t14.5 0.5t15 1t13.5 2t14.5 3.5t14 5t16 7t15.5 9.5t16.5 12.5q-23 29 -76 109l-378 581l145 136h520q90 0 163.5 -24
t121 -64.5t72 -96.5t23 -117.5t-31 -129t-86.5 -130.5l-237 -262q68 -43 168 -43zM463 866l276 -422q23 -36 72 -102l252 285q81 92 31 165.5t-189 73.5h-442z" />
    <glyph glyph-name="uniFECE" unicode="&#x63a;" horiz-adv-x="1519" arabic-form="final" 
d="M1010 1458l-131 -131l-134 131l134 131zM811 164q-25 -8 -74 -24q-97 -31 -145.5 -48t-121.5 -51t-108 -66t-62.5 -82.5t-27.5 -111.5q0 -131 106 -212t277 -81h588l-82 -184h-506q-245 0 -402 134t-157 343q0 95 39 174t85 127.5t144.5 99.5t155.5 72.5t180 63.5
q7 3 11 4l-365 581l143 148h555q86 0 156.5 -26t116.5 -73.5t69 -109.5t17.5 -137.5t-41.5 -153.5q-52 -112 -147 -189t-228 -133q25 -27 51.5 -36t69.5 -9h418v-184h-418q-107 0 -175 43.5t-122 120.5zM575 866l308 -483q122 48 202.5 105t116.5 137q51 113 8 177t-166 64
h-469z" />
    <glyph glyph-name="uniFECF" unicode="&#x63a;" horiz-adv-x="1472" arabic-form="initial" 
d="M825 1458l-131 -131l-133 131l133 131zM926 184h444l-92 -184h-1317q-46 0 -78.5 26.5t-32.5 65.5t32.5 65.5t78.5 26.5h545q-199 125 -199 367q0 236 166.5 368t452.5 132h41l90 -185h-131q-215 0 -329 -79.5t-114 -235.5q0 -62 18.5 -115t47.5 -89t70.5 -64.5t81 -45.5
t85 -29t77.5 -16.5t63 -7.5z" />
    <glyph glyph-name="uniFED0" unicode="&#x63a;" horiz-adv-x="1447" arabic-form="medial" 
d="M868 1458l-131 -131l-133 131l133 131zM1098 184h356v-184h-336q-100 0 -171.5 22.5t-137.5 77.5q-119 -100 -266 -100h-582q-46 0 -78.5 26.5t-32.5 65.5t32.5 65.5t78.5 26.5h582h15.5h16t14.5 0.5t15 1t13.5 2t14.5 3.5t14 5t16 7t15.5 9.5t16.5 12.5q-23 29 -76 109
l-378 581l145 136h520q90 0 163.5 -24t121 -64.5t72 -96.5t23 -117.5t-31 -129t-86.5 -130.5l-237 -262q68 -43 168 -43zM463 866l276 -422q23 -36 72 -102l252 285q81 92 31 165.5t-189 73.5h-442z" />
    <glyph glyph-name="uniFED2" unicode="&#x641;" horiz-adv-x="2676" arabic-form="final" 
d="M2214 1458l-131 -131l-133 131l133 131zM2431 184h252v-184h-2093q-238 0 -389.5 131t-151.5 338v133l176 88v-221q0 -128 100 -206.5t265 -78.5h1093q-122 153 -122 363q0 145 63.5 269.5t178.5 200t255 75.5q139 0 254 -75.5t178.5 -200t63.5 -269.5q0 -208 -123 -363z
M1737 547q0 -148 91.5 -255.5t229.5 -107.5t229 107.5t91 255.5q0 146 -91 253t-229 107t-229.5 -107t-91.5 -253z" />
    <glyph glyph-name="uniFED3" unicode="&#x641;" horiz-adv-x="1384" arabic-form="initial" 
d="M862 1458l-131 -131l-133 131l133 131zM729 1092q139 0 254 -75.5t178.5 -200t63.5 -269.5q0 -146 -63.5 -271t-178 -200.5t-254.5 -75.5h-768q-46 0 -78.5 26.5t-32.5 65.5t32.5 65.5t78.5 26.5h393q-123 155 -123 363q0 145 64 269.5t179 200t255 75.5zM729 184
q138 0 229 107.5t91 255.5q0 146 -91 253t-229 107t-229.5 -107t-91.5 -253q0 -148 91.5 -255.5t229.5 -107.5z" />
    <glyph glyph-name="uniFED4" unicode="&#x641;" horiz-adv-x="1323" arabic-form="medial" 
d="M858 1458l-131 -131l-133 131l133 131zM1102 184h227v-184h-1368q-46 0 -78.5 26.5t-32.5 65.5t32.5 65.5t78.5 26.5h393q-123 155 -123 363q0 145 64 269.5t179 200t255 75.5q139 0 254 -75.5t178.5 -200t63.5 -269.5q0 -208 -123 -363zM408 547q0 -148 91.5 -255.5
t229.5 -107.5t229 107.5t91 255.5q0 146 -91 253t-229 107t-229.5 -107t-91.5 -253z" />
    <glyph glyph-name="uniFED6" unicode="&#x642;" horiz-adv-x="1787" arabic-form="final" 
d="M1161 1341l-131 -131l-133 131l133 132zM1468 1341l-131 -131l-133 131l133 132zM1692 184h102v-184h-104q-14 -323 -211 -509.5t-525 -186.5h-120q-341 0 -539.5 200.5t-198.5 546.5v84l176 88v-172q0 -268 147.5 -415.5t414.5 -147.5h120q255 0 400 133.5t159 378.5
h-514q-121 0 -206.5 87t-85.5 210v184q0 138 65 253.5t178.5 182t249.5 66.5q135 0 248 -66.5t178.5 -182t65.5 -253.5v-297zM883 297q0 -46 34.5 -79.5t81.5 -33.5h517v297q0 135 -91 226.5t-225 91.5q-135 0 -226 -91.5t-91 -226.5v-184z" />
    <glyph glyph-name="uniFED7" unicode="&#x642;" horiz-adv-x="1384" arabic-form="initial" 
d="M702 1458l-131 -131l-133 131l133 131zM1010 1458l-131 -131l-134 131l134 131zM729 1092q139 0 254 -75.5t178.5 -200t63.5 -269.5q0 -146 -63.5 -271t-178 -200.5t-254.5 -75.5h-768q-46 0 -78.5 26.5t-32.5 65.5t32.5 65.5t78.5 26.5h393q-123 155 -123 363
q0 145 64 269.5t179 200t255 75.5zM729 184q138 0 229 107.5t91 255.5q0 146 -91 253t-229 107t-229.5 -107t-91.5 -253q0 -148 91.5 -255.5t229.5 -107.5z" />
    <glyph glyph-name="uniFED8" unicode="&#x642;" horiz-adv-x="1323" arabic-form="medial" 
d="M702 1458l-131 -131l-133 131l133 131zM1010 1458l-131 -131l-134 131l134 131zM1102 184h227v-184h-1368q-46 0 -78.5 26.5t-32.5 65.5t32.5 65.5t78.5 26.5h393q-123 155 -123 363q0 145 64 269.5t179 200t255 75.5q139 0 254 -75.5t178.5 -200t63.5 -269.5
q0 -208 -123 -363zM408 547q0 -148 91.5 -255.5t229.5 -107.5t229 107.5t91 255.5q0 146 -91 253t-229 107t-229.5 -107t-91.5 -253z" />
    <glyph glyph-name="uniFEDA" unicode="&#x643;" horiz-adv-x="2465" arabic-form="final" 
d="M2382 184h88v-184h-88q-128 0 -207 45.5t-117 142.5q-71 -90 -185.5 -139t-258.5 -49h-977q-238 0 -389.5 131t-151.5 338v133l176 88v-221q0 -128 100 -206.5t265 -78.5h977q165 0 264.5 78.5t99.5 206.5v1286l176 88v-1394q0 -158 46.5 -211.5t181.5 -53.5zM1325 819
q58 0 86.5 26t28.5 62q0 38 -27.5 64t-87.5 26h-141q-57 0 -88 30.5t-25 76t49 86.5l256 242l72 -78l-260 -246h137q106 0 158.5 -57.5t52.5 -139.5q0 -83 -53 -142.5t-158 -59.5h-291l-73 110h364z" />
    <glyph glyph-name="uniFEDB" unicode="&#x643;" horiz-adv-x="1630" arabic-form="initial" 
d="M152 999l907 994l71 -195l-753 -815h534q135 0 241.5 -43t169 -115t94.5 -159.5t30 -184.5q-2 -94 -34.5 -178t-96 -153t-167.5 -109.5t-237 -40.5h-950q-46 0 -78.5 26.5t-32.5 65.5t32.5 65.5t78.5 26.5h950q91 0 162 25.5t113 68.5t64 95.5t24 111.5q2 60 -19 115
t-63.5 100t-115 72t-165.5 27h-647z" />
    <glyph glyph-name="uniFEDC" unicode="&#x643;" horiz-adv-x="1568" arabic-form="medial" 
d="M141 989l922 1063l65 -201l-757 -868h551q251 0 411 -156.5t160 -400.5v-242h82v-184h-1614q-46 0 -78.5 26.5t-32.5 65.5t32.5 65.5t78.5 26.5h1358v242q0 165 -109.5 269t-287.5 104h-672z" />
    <glyph glyph-name="uniFEDE" unicode="&#x644;" horiz-adv-x="1818" arabic-form="final" 
d="M1753 184h72v-184h-51q-157 0 -248 76v-111q0 -296 -194 -478.5t-509 -182.5h-24q-315 0 -509 182.5t-194 478.5v303l176 88v-391q0 -220 142 -348.5t385 -128.5h24q243 0 385 128.5t142 348.5v1790l176 88v-1374q0 -156 52 -220.5t175 -64.5z" />
    <glyph glyph-name="uniFEDF" unicode="&#x644;" horiz-adv-x="645" arabic-form="initial" 
d="M-39 0q-46 0 -78.5 26.5t-32.5 65.5t32.5 65.5t78.5 26.5h41q123 0 182.5 60t59.5 184v1327l176 88v-1415q0 -201 -111 -314.5t-307 -113.5h-41z" />
    <glyph glyph-name="uniFEE0" unicode="&#x644;" horiz-adv-x="714" arabic-form="medial" 
d="M653 184h68v-184h-47q-229 0 -312 145q-111 -145 -333 -145h-68q-46 0 -78.5 26.5t-32.5 65.5t32.5 65.5t78.5 26.5h68q123 0 182 59.5t59 184.5v1327l176 88v-1415q0 -150 40 -197t167 -47z" />
    <glyph glyph-name="uniFEE2" unicode="&#x645;" horiz-adv-x="1929" arabic-form="final" 
d="M1894 184h41v-184h-41q-234 0 -329 152q-69 -104 -177 -165t-231 -61q-181 0 -321 123.5t-174 308.5q-176 -23 -283 -140.5t-107 -291.5v-622l-176 -88v710q0 248 157.5 420.5t405.5 198.5q30 198 170.5 330.5t327.5 132.5q137 0 252.5 -73.5t182.5 -200.5t67 -277v-11
q0 -81 19.5 -136t55.5 -81t73 -35.5t87 -9.5zM1157 111q138 0 232 100t94 246q0 158 -93 262t-233 104t-234 -104t-94 -262q0 -146 95 -246t233 -100z" />
    <glyph glyph-name="uniFEE3" unicode="&#x645;" horiz-adv-x="1556" arabic-form="initial" 
d="M901 1008q137 0 252.5 -73.5t182.5 -200.5t67 -277q0 -142 -68 -264.5t-183.5 -194.5t-250.5 -72q-126 0 -236.5 64t-181.5 172q-104 -162 -354 -162h-168q-46 0 -78.5 26.5t-32.5 65.5t32.5 65.5t78.5 26.5h168q268 0 268 273q0 150 67.5 277t183.5 200.5t253 73.5z
M901 111q138 0 232 100t94 246q0 158 -93 262t-233 104t-234 -104t-94 -262q0 -146 95 -246t233 -100z" />
    <glyph glyph-name="uniFEE4" unicode="&#x645;" horiz-adv-x="1703" arabic-form="medial" 
d="M1669 184h41v-184h-41q-235 0 -330 152q-69 -104 -176.5 -165t-230.5 -61q-127 0 -237 64t-179 172q-107 -162 -356 -162h-199q-46 0 -78.5 26.5t-32.5 65.5t32.5 65.5t78.5 26.5h199q268 0 268 273q0 150 67.5 277t183.5 200.5t253 73.5t252.5 -73.5t182.5 -200.5
t67 -277v-11q0 -81 19.5 -136t55.5 -81t73 -35.5t87 -9.5zM932 111q138 0 231.5 100t93.5 246q0 158 -92.5 262t-232.5 104t-234 -104t-94 -262q0 -146 95 -246t233 -100z" />
    <glyph glyph-name="uniFEE6" unicode="&#x646;" horiz-adv-x="1900" arabic-form="final" 
d="M981 776l-131 -131l-133 131l133 131zM1815 184h92v-184h-92q-149 0 -228 70v-146q0 -127 -55.5 -242t-150 -197.5t-224 -131.5t-272.5 -49h-86q-191 0 -352.5 82.5t-256 225.5t-94.5 312v344l176 88v-432q0 -118 70.5 -218.5t192 -159t264.5 -58.5h86q143 0 264 58.5
t191.5 159t70.5 218.5v611l176 88v-154q0 -156 52 -220.5t176 -64.5z" />
    <glyph glyph-name="uniFEE7" unicode="&#x646;" horiz-adv-x="788" arabic-form="initial" 
d="M449 1108l-134 131l134 131l131 -131zM-39 0q-46 0 -78.5 26.5t-32.5 65.5t32.5 65.5t78.5 26.5h113q165 0 264.5 78.5t99.5 206.5v426l176 88v-514q0 -207 -151 -338t-389 -131h-113z" />
    <glyph glyph-name="uniFEE8" unicode="&#x646;" horiz-adv-x="878" arabic-form="medial" 
d="M518 1141l-131 -131l-133 131l133 131zM797 184h88v-184h-88q-234 0 -338 143q-110 -143 -348 -143h-150q-46 0 -78.5 26.5t-32.5 65.5t32.5 65.5t78.5 26.5h150q143 0 202.5 65t59.5 220v229l176 88v-317q0 -157 56 -221t192 -64z" />
    <glyph glyph-name="uniFEEA" unicode="&#x647;" horiz-adv-x="1243" arabic-form="final" 
d="M1186 184h63v-184h-57q-184 0 -252 117q-110 -117 -268 -117h-256q-132 0 -212.5 83t-80.5 214v252q0 207 138.5 354.5t334.5 147.5h344l100 -103v-618q0 -88 33.5 -117t112.5 -29zM864 373v493h-268q-123 0 -210 -92.5t-87 -224.5v-252q0 -113 117 -113h256
q79 0 135.5 55.5t56.5 133.5z" />
    <glyph glyph-name="uniFEEB" unicode="&#x647;" horiz-adv-x="1755" arabic-form="initial" 
d="M854 1380q217 0 394.5 -90.5t280.5 -254t103 -367.5q0 -194 -82 -347t-226.5 -237t-326.5 -84h-1036q-46 0 -78.5 26.5t-32.5 65.5t32.5 65.5t78.5 26.5h418q-111 111 -111 269q0 181 126.5 308.5t305.5 127.5q182 0 309.5 -127.5t127.5 -308.5q0 -154 -109 -269
q190 11 309.5 144t118.5 340q-1 152 -80.5 273t-216.5 188t-305 67q-108 0 -204 -20t-139 -38.5t-69 -35.5v201q183 77 412 77zM444 453q0 -111 76.5 -190t179.5 -79q105 0 183 79t78 190q0 100 -78.5 176t-182.5 76q-101 0 -178.5 -76t-77.5 -176z" />
    <glyph glyph-name="uniFEEC" unicode="&#x647;" horiz-adv-x="1431" arabic-form="medial" 
d="M1438 184v-184h-279q133 -110 133 -293q0 -141 -69 -254t-181.5 -173t-244.5 -60q-133 0 -246.5 60t-182.5 173t-69 254v293h-338q-46 0 -78.5 26.5t-32.5 65.5t32.5 65.5t78.5 26.5h338v363q0 142 69 258.5t183 181t246 64.5q130 0 244 -70t182.5 -191.5t68.5 -263.5
q0 -221 -147 -342h293zM475 547v-363h322q130 0 224.5 94.5t94.5 247.5q0 141 -95.5 240.5t-223.5 99.5q-130 0 -226 -90t-96 -229zM1116 -293q0 123 -94 208t-225 85h-322v-293q0 -136 94.5 -219.5t227.5 -83.5q131 0 225 83.5t94 219.5z" />
    <glyph glyph-name="uniFEEE" unicode="&#x648;" horiz-adv-x="1177" arabic-form="final" 
d="M1055 184h129v-184h-129q-1 -341 -174 -518.5t-496 -177.5h-82l-92 184h174q249 0 371 124.5t123 387.5h-299q-185 0 -300.5 108.5t-115.5 290.5v191q0 203 129 332t317 129q187 0 316 -129t129 -332v-406zM340 399q0 -102 70 -158.5t170 -56.5h299v406q0 126 -78 201
t-191 75q-115 0 -192.5 -74t-77.5 -202v-191z" />
    <glyph glyph-name="uniFEF0" unicode="&#x649;" horiz-adv-x="2224" arabic-form="final" 
d="M1368 414q251 -230 520 -230h342v-184h-254q93 -81 140 -172t45 -178q-3 -148 -133 -247t-351 -99h-960q-172 0 -322 68.5t-248.5 189.5t-123.5 270l167 88q1 -117 72 -216.5t192 -157.5t263 -58h921q332 0 338 180q0 31 -6 59t-19.5 53t-27.5 45.5t-40 42.5t-45 37.5
t-53.5 37t-56.5 34.5t-63 36t-63 36q-18 11 -96.5 56.5t-107.5 63.5t-76 50t-75 57z" />
    <glyph glyph-name="uniFEF2" unicode="&#x64a;" horiz-adv-x="2224" arabic-form="final" 
d="M1368 414q251 -230 520 -230h342v-184h-254q93 -81 140 -172t45 -178q-3 -148 -133 -247t-351 -99h-960q-172 0 -322 68.5t-248.5 189.5t-123.5 270l167 88q1 -117 72 -216.5t192 -157.5t263 -58h921q332 0 338 180q0 31 -6 59t-19.5 53t-27.5 45.5t-40 42.5t-45 37.5
t-53.5 37t-56.5 34.5t-63 36t-63 36q-18 11 -96.5 56.5t-107.5 63.5t-76 50t-75 57zM1063 -1161l-133 131l133 131l131 -131zM1370 -1161l-133 131l133 131l131 -131z" />
    <glyph glyph-name="uniFEF3" unicode="&#x64a;" horiz-adv-x="788" arabic-form="initial" 
d="M-39 0q-46 0 -78.5 26.5t-32.5 65.5t32.5 65.5t78.5 26.5h113q165 0 264.5 78.5t99.5 206.5v426l176 88v-514q0 -207 -151 -338t-389 -131h-113zM158 -541l-133 131l133 131l131 -131zM465 -541l-133 131l133 131l131 -131z" />
    <glyph glyph-name="uniFEF4" unicode="&#x64a;" horiz-adv-x="878" arabic-form="medial" 
d="M797 184h88v-184h-88q-234 0 -338 143q-110 -143 -348 -143h-150q-46 0 -78.5 26.5t-32.5 65.5t32.5 65.5t78.5 26.5h150q143 0 202.5 65t59.5 220v229l176 88v-317q0 -157 56 -221t192 -64zM104 -410l134 131l131 -131l-131 -131zM412 -410l133 131l131 -131l-131 -131z
" />
    <glyph glyph-name=".notdef" horiz-adv-x="1228" 
d="M1008 1843v-2457h-779v2457h779zM819 1679h-405v-82h159v-90h-163v-82h409v82h-164v90h164v82zM655 1362h-245v-256h409v84h-164v172zM573 1278v-88h-81v88h81zM819 1040h-409v-82h163v-90h-163v-82h245v172h164v82zM819 893h-82v-164h-327v-82h409v246zM819 592h-246
v-137h82v57h82v-117h-245v197h-82v-277h409v277zM819 168h-409v-279h409v279zM737 86v-115h-245v115h245zM819 -168h-409v-80h172l-172 -117v-79h409v79h-252l172 117h80v80z" />
    <glyph glyph-name=".null" 
 />
    <glyph glyph-name="nonmarkingreturn" horiz-adv-x="682" 
 />
    <glyph glyph-name="space" unicode=" " horiz-adv-x="532" 
 />
    <glyph glyph-name="exclam" unicode="!" horiz-adv-x="634" 
d="M252 397l-25 1311h189l-33 -1311h-131zM317 -96l-157 155l157 158l158 -158z" />
    <glyph glyph-name="quotedbl" unicode="&#x22;" horiz-adv-x="823" 
d="M164 1032l-31 676h201l-35 -676h-135zM512 1032l-31 676h201l-35 -676h-135z" />
    <glyph glyph-name="numbersign" unicode="#" horiz-adv-x="1413" 
d="M1276 983h-203l-100 -313h201l-62 -185h-199l-153 -485h-180l153 485h-270l-154 -485h-180l154 485h-207l61 185h205l100 313h-202l61 184h199l172 541h180l-172 -541h270l172 541h181l-173 -541h207zM793 670l100 313h-270l-101 -313h271z" />
    <glyph glyph-name="dollar" unicode="$" horiz-adv-x="1372" 
d="M1260 477q0 -194 -138 -330t-348 -163v-312h-176v312q-199 28 -335 164.5t-146 322.5h176q12 -134 124 -224.5t269 -90.5q171 0 279 88.5t108 232.5q0 45 -11 83.5t-29.5 67t-48.5 54t-60 43t-74 34t-81 28t-89 24.5q-196 52 -275 86q-187 81 -246 231q-32 79 -32 183
q0 193 132.5 328.5t338.5 162.5v297h176v-297q192 -28 323 -157.5t146 -311.5h-178q-17 127 -124 211t-255 84q-169 0 -270 -86t-101 -231q0 -46 12 -85t30 -68t51 -54.5t62.5 -42t77 -34t82.5 -27.5t91 -25q198 -53 285 -95q184 -89 234 -254q20 -67 20 -149z" />
    <glyph glyph-name="percent" unicode="%" horiz-adv-x="1943" 
d="M530 903q-168 0 -270 117t-102 309v98q0 192 101.5 308t270.5 116q170 0 272.5 -116t102.5 -308v-98q0 -193 -102.5 -309.5t-272.5 -116.5zM307 0l1112 1800h195l-1112 -1800h-195zM530 1071q103 0 159 67t56 191v98q0 123 -56 189.5t-159 66.5q-102 0 -157.5 -66.5
t-55.5 -189.5v-98q0 -124 55.5 -191t157.5 -67zM1411 0q-169 0 -271 117t-102 309v100q0 192 102 308t271 116q170 0 272.5 -116t102.5 -308v-100q0 -193 -102.5 -309.5t-272.5 -116.5zM1411 168q103 0 159 67t56 191v100q0 123 -56 189.5t-159 66.5q-102 0 -157.5 -66.5
t-55.5 -189.5v-100q0 -124 55.5 -191t157.5 -67z" />
    <glyph glyph-name="ampersand" unicode="&#x26;" horiz-adv-x="1751" 
d="M1298 799h-356v-615h684l-92 -184h-592v-408l-176 89v319h-225q-183 0 -303.5 121.5t-120.5 306.5v127q0 185 120.5 306.5t303.5 121.5h225v381q0 140 90.5 232t228.5 92h72q138 0 229 -92t91 -232v-393zM942 983h358v383q0 60 -39.5 98.5t-101.5 38.5h-76
q-62 0 -101.5 -38.5t-39.5 -98.5v-383zM539 184h227v615h-227q-106 0 -176 -69t-70 -173v-131q0 -104 70 -173t176 -69z" />
    <glyph glyph-name="quotesingle" unicode="'" horiz-adv-x="512" 
d="M186 1032l-30 676h200l-34 -676h-136z" />
    <glyph glyph-name="parenleft" unicode="(" horiz-adv-x="786" 
d="M467 -547l-254 748q-59 174 -59.5 336.5t57.5 336.5l256 773h139l-223 -801q-45 -167 -44.5 -308t46.5 -305l221 -780h-139z" />
    <glyph glyph-name="parenright" unicode=")" horiz-adv-x="786" 
d="M319 -547h-139l221 780q46 164 46.5 305t-44.5 308l-223 801h139l256 -773q58 -174 57.5 -336.5t-59.5 -336.5z" />
    <glyph glyph-name="asterisk" unicode="*" horiz-adv-x="1155" 
d="M981 1182l-236 -135l236 -138l-84 -145l-240 139v-278h-159v278l-240 -139l-84 145l236 138l-236 135l84 145l240 -139v278h159v-278l240 139z" />
    <glyph glyph-name="plus" unicode="+" horiz-adv-x="1239" 
d="M1081 549v-184h-372v-375h-177v372h-374v185h372v375h177v-373h374z" />
    <glyph glyph-name="comma" unicode="," horiz-adv-x="585" 
d="M197 -190l100 192q-45 12 -71 52t-17 85q9 48 49.5 76t89.5 21q43 -9 70.5 -42.5t27.5 -76.5q0 -31 -24 -74l-184 -262z" />
    <glyph glyph-name="hyphen" unicode="-" horiz-adv-x="1138" 
d="M137 500v184h864v-184h-864z" />
    <glyph glyph-name="period" unicode="." horiz-adv-x="614" 
d="M307 -41l-143 141l143 144l144 -144z" />
    <glyph glyph-name="slash" unicode="/" horiz-adv-x="970" 
d="M238 -190h-185l680 2033h185z" />
    <glyph glyph-name="zero" unicode="0" horiz-adv-x="1550" 
d="M774 -51q-281 0 -448.5 192.5t-167.5 513.5v449q0 321 167.5 513.5t448.5 192.5q283 0 451 -192t168 -514v-449q0 -322 -168 -514t-451 -192zM774 133q207 0 325 138.5t118 383.5v449q0 247 -117 384.5t-326 137.5q-207 0 -323.5 -137.5t-116.5 -384.5v-449
q0 -245 117 -383.5t323 -138.5z" />
    <glyph glyph-name="one" unicode="1" horiz-adv-x="1138" 
d="M170 1231l489 524h138v-1755h-176v1448l-316 -340z" />
    <glyph glyph-name="two" unicode="2" horiz-adv-x="1380" 
d="M156 145l469 480q31 32 95 94.5t103 101.5t91.5 99t82.5 105.5t52 99.5t22 102q0 158 -111 270.5t-268 112.5q-102 0 -189 -50.5t-138 -137.5t-52 -191h-176q1 153 75.5 280t202 200t277.5 73q115 0 218.5 -40.5t181 -112t123 -177t45.5 -227.5q0 -67 -27 -140.5
t-63 -131.5t-98 -131t-106 -117.5t-114.5 -112.5t-97.5 -96l-310 -314h820v-184h-1037z" />
    <glyph glyph-name="three" unicode="3" horiz-adv-x="1343" 
d="M117 1264q-4 127 42.5 229.5t126.5 165.5t179.5 96.5t208.5 34.5q105 1 202 -29.5t177 -89t128 -156.5t48 -221q0 -283 -258 -415q142 -55 222.5 -162t80.5 -268q0 -96 -34 -176.5t-91 -136t-133 -94t-158.5 -56.5t-167.5 -17q-88 1 -172 20.5t-159.5 60.5t-133 99
t-92.5 141t-37 181h176q2 -64 27.5 -118.5t67.5 -92.5t96 -65t114.5 -40t122.5 -12q97 1 182.5 34t144 104t58.5 168q0 169 -144.5 254t-418.5 85v168q257 4 387.5 90t130.5 248q0 104 -52.5 179t-131 109.5t-172.5 35.5q-76 0 -146.5 -23t-127 -66t-89 -112t-28.5 -153
h-176z" />
    <glyph glyph-name="four" unicode="4" horiz-adv-x="1456" 
d="M1319 514v-184h-252v-330h-176v330h-746v188l809 1301l152 -99l-754 -1206h539v469h176v-469h252z" />
    <glyph glyph-name="five" unicode="5" horiz-adv-x="1466" 
d="M285 465q42 -151 158 -240.5t282 -89.5q196 0 322.5 117t126.5 307q0 94 -31 167.5t-82.5 118.5t-119.5 74t-142 38t-149.5 6.5t-141.5 -16t-119 -34.5l-145 107v735h934v-184h-758v-477q70 22 152 32t173 5.5t178 -24t166 -64t138.5 -107.5t95 -160t35.5 -217
q0 -174 -84.5 -311.5t-228.5 -212t-320 -74.5q-225 0 -394 123.5t-229 331.5z" />
    <glyph glyph-name="six" unicode="6" horiz-adv-x="1384" 
d="M700 1122q104 0 205.5 -42.5t180.5 -117t127.5 -184t48.5 -233.5q0 -130 -48 -239t-127 -180t-179.5 -110t-207.5 -39q-114 0 -218 39t-184 110t-127.5 180t-47.5 239q0 181 123 340l635 913l143 -106l-414 -578q41 8 90 8zM700 145q70 0 136.5 27t120 76t86 126.5
t32.5 170.5q0 94 -33 173.5t-87 131t-120.5 80t-134.5 28.5q-102 0 -190 -48t-144.5 -144t-56.5 -221q0 -185 114.5 -292.5t276.5 -107.5z" />
    <glyph glyph-name="seven" unicode="7" horiz-adv-x="1284" 
d="M393 -35l-155 86l727 1520h-666v-275h-176v459h1038v-190z" />
    <glyph glyph-name="eight" unicode="8" horiz-adv-x="1495" 
d="M1059 942q139 -63 219 -177.5t80 -262.5t-79.5 -269t-219.5 -190.5t-311 -69.5t-311.5 69.5t-220 191t-79.5 268.5q0 146 82 259t221 179q-106 54 -165.5 148.5t-59.5 220.5q0 128 69 236.5t192 172.5t272 64q112 0 211.5 -38t169.5 -101.5t110.5 -150.5t40.5 -183
q0 -125 -58.5 -219t-162.5 -148zM748 1608q-153 0 -255 -89.5t-102 -209.5q0 -132 100 -215.5t257 -83.5q155 0 255.5 84.5t100.5 214.5q0 120 -101.5 209.5t-254.5 89.5zM748 150q179 0 301 102.5t122 249.5q0 150 -122 256t-301 106q-180 0 -302 -106.5t-122 -255.5
q0 -148 121.5 -250t302.5 -102z" />
    <glyph glyph-name="nine" unicode="9" horiz-adv-x="1384" 
d="M1262 1210q0 -181 -123 -340l-635 -913l-144 106l414 578q-41 -8 -90 -8q-104 0 -205 42.5t-180 117t-127.5 184t-48.5 233.5q0 130 47.5 239t127 180t179.5 110t207 39q114 0 218 -39t184.5 -110t128 -180t47.5 -239zM309 1210q0 -94 33 -173.5t87 -131t120.5 -80
t134.5 -28.5q102 0 190 48t144.5 144t56.5 221q0 185 -114.5 292.5t-276.5 107.5q-70 0 -136.5 -27t-120 -76t-86 -126.5t-32.5 -170.5z" />
    <glyph glyph-name="colon" unicode=":" horiz-adv-x="610" 
d="M307 707l-143 141l143 143l144 -143zM307 -41l-143 141l143 144l144 -144z" />
    <glyph glyph-name="semicolon" unicode=";" horiz-adv-x="653" 
d="M332 553l-144 141l144 144l143 -144zM211 -190l100 192q-45 12 -71 52t-17 85q9 48 49.5 76t89.5 21q43 -9 71 -42.5t28 -76.5q0 -29 -25 -74l-184 -262z" />
    <glyph glyph-name="less" unicode="&#x3c;" horiz-adv-x="1239" 
d="M1061 956v-192l-676 -311l676 -316v-192l-883 411v193z" />
    <glyph glyph-name="equal" unicode="=" horiz-adv-x="1239" 
d="M158 610v185h923v-185h-923zM158 184v185h923v-185h-923z" />
    <glyph glyph-name="greater" unicode="&#x3e;" horiz-adv-x="1239" 
d="M178 956l883 -407v-193l-883 -411v192l676 316l-676 311v192z" />
    <glyph glyph-name="question" unicode="?" horiz-adv-x="1302" 
d="M143 1221q1 141 69 260t184.5 187.5t254.5 68.5q139 0 256 -69t184.5 -189t67.5 -262q0 -56 -10 -105t-31.5 -89.5t-43 -72t-56 -63t-58.5 -50.5t-61 -46q-104 -75 -136 -108q-75 -76 -75 -179v-80h-170v80q0 35 5.5 67.5t11.5 58t21.5 53t25 45t32.5 42.5t33 36
t38.5 33.5t37 29t40 29.5t36.5 26q47 34 75 59t56 60.5t40.5 78t12.5 95.5q0 148 -94.5 245t-237.5 97q-138 0 -234.5 -98t-97.5 -240h-176zM604 -88l-158 156l158 157l158 -157z" />
    <glyph glyph-name="bracketleft" unicode="[" horiz-adv-x="673" 
d="M127 -485v2193h420v-154h-244v-1886h244v-153h-420z" />
    <glyph glyph-name="backslash" unicode="\" horiz-adv-x="970" 
d="M733 -190l-680 2033h185l680 -2033h-185z" />
    <glyph glyph-name="bracketright" unicode="]" horiz-adv-x="673" 
d="M547 -485h-420v153h244v1886h-244v154h420v-2193z" />
    <glyph glyph-name="asciicircum" unicode="^" horiz-adv-x="1269" 
d="M1133 983h-195l-305 547l-301 -547h-195l398 725h196z" />
    <glyph glyph-name="underscore" unicode="_" horiz-adv-x="1241" 
d="M137 -184v184h967v-184h-967z" />
    <glyph glyph-name="braceleft" unicode="{" horiz-adv-x="1040" 
d="M608 946q0 -222 -133 -336q133 -114 133 -336v-372q0 -124 59.5 -184t182.5 -60h53v-143h-53q-196 0 -307 113.5t-111 314.5v331q0 124 -59.5 184t-182.5 60h-53v184h53q123 0 182.5 60t59.5 184v334q0 201 111 314.5t307 113.5h53v-143h-53q-123 0 -182.5 -60
t-59.5 -184v-375z" />
    <glyph glyph-name="bar" unicode="|" horiz-adv-x="696" 
d="M260 -614v2457h176v-2457h-176z" />
    <glyph glyph-name="braceright" unicode="}" horiz-adv-x="1054" 
d="M864 702h54v-184h-54q-123 0 -182 -59.5t-59 -184.5v-331q0 -201 -111 -314.5t-307 -113.5h-53v143h53q123 0 182 59.5t59 184.5v372q0 221 134 336q-134 115 -134 336v375q0 125 -59 184.5t-182 59.5h-53v143h53q196 0 307 -113.5t111 -314.5v-334q0 -125 59 -184.5
t182 -59.5z" />
    <glyph glyph-name="exclamdown" unicode="&#xa1;" horiz-adv-x="610" 
d="M313 1747l158 -156l-158 -157l-157 157zM248 1253h131l33 -1310h-189z" />
    <glyph glyph-name="guillemotleft" unicode="&#xab;" horiz-adv-x="1026" 
d="M451 0l-336 518l336 524h147l-264 -524l264 -518h-147zM799 0l-336 518l336 524h147l-264 -524l264 -518h-147z" />
    <glyph glyph-name="degree" unicode="&#xb0;" horiz-adv-x="925" 
d="M463 983q-145 0 -238.5 95t-93.5 241t93.5 241t238.5 95t238.5 -95t93.5 -241t-93.5 -241t-238.5 -95zM463 1149q69 0 120.5 51t51.5 119t-51.5 119t-120.5 51t-120.5 -51t-51.5 -119t51.5 -119t120.5 -51z" />
    <glyph glyph-name="plusminus" unicode="&#xb1;" horiz-adv-x="1243" 
d="M535 299v373h-375v184h372v375h177v-373h374v-184h-372v-375h-176zM158 184h927v-184h-927v184z" />
    <glyph glyph-name="periodcentered" unicode="&#xb7;" horiz-adv-x="651" 
d="M326 281l-144 141l144 143l143 -143z" />
    <glyph glyph-name="guillemotright" unicode="&#xbb;" horiz-adv-x="1026" 
d="M227 0h-147l264 518l-264 524h147l336 -524zM575 0h-147l264 518l-264 524h147l336 -524z" />
    <glyph glyph-name="questiondown" unicode="&#xbf;" horiz-adv-x="1302" 
d="M698 1743l158 -156l-158 -157l-157 157zM1159 434q-1 -141 -69 -260t-184.5 -187.5t-254.5 -68.5q-139 0 -256 69t-184.5 189t-67.5 262q0 56 10 105t31.5 89.5t43 72t56 63t58.5 50.5t61 46q104 75 136 108q75 76 75 179v80h170v-80q0 -35 -5.5 -67.5t-11.5 -58
t-21.5 -53.5t-24.5 -45t-32.5 -42t-32.5 -35.5t-39 -34t-37 -29t-40 -29.5t-36 -26q-63 -47 -97.5 -79.5t-61 -88t-26.5 -125.5q0 -148 94.5 -245t237.5 -97q138 0 234.5 98t97.5 240h176z" />
    <glyph glyph-name="multiply" unicode="&#xd7;" horiz-adv-x="1030" 
d="M907 195l-131 -129l-264 262l-264 -265l-123 125l264 265l-266 264l131 129l264 -262l264 264l123 -125l-264 -264z" />
    <glyph glyph-name="divide" unicode="&#xf7;" horiz-adv-x="1239" 
d="M621 707l-134 131l134 131l131 -131zM158 365v184h923v-184h-923zM621 -33l-134 131l134 131l131 -131z" />
    <glyph glyph-name="uni060C" unicode="&#x60c;" horiz-adv-x="585" 
d="M414 387l-101 -192q45 -12 71 -52.5t17 -85.5q-9 -47 -49.5 -75t-89.5 -21q-43 9 -70.5 42.5t-27.5 76.5q0 31 24 74l185 262z" />
    <glyph glyph-name="uni061B" unicode="&#x61b;" horiz-adv-x="628" 
d="M442 975l-100 -193q45 -12 71 -52t17 -85q-9 -47 -49.5 -75t-89.5 -21q-43 9 -70.5 42.5t-27.5 76.5q0 30 24 73l184 263zM322 231l143 -141l-143 -143l-144 143z" />
    <glyph glyph-name="uni061F" unicode="&#x61f;" horiz-adv-x="1302" 
d="M1159 1221h-176q-1 142 -97.5 240t-234.5 98q-143 0 -237.5 -97t-94.5 -245q0 -70 26.5 -125.5t61 -88t97.5 -79.5q3 -2 36 -26t40 -29.5t37 -29t39 -34t32.5 -35.5t32.5 -42t24.5 -45t21.5 -53.5t11.5 -58t5.5 -67.5v-80h-170v80q0 28 -6 54t-12 44.5t-25 42t-27.5 34.5
t-39 35.5t-39.5 31t-47 34.5q-10 7 -15 11q-37 27 -61 46t-58.5 50.5t-56 63t-43 72t-31.5 89.5t-10 105q0 142 67.5 262t184.5 189t256 69q138 0 254.5 -68.5t184.5 -187.5t69 -260zM698 -88l-157 156l157 157l158 -157z" />
    <glyph glyph-name="uni0621" unicode="&#x621;" horiz-adv-x="1222" 
d="M1122 184l-92 -184h-946l92 184h105v162q0 287 139 441t403 163l62 2l-54 -186q-192 0 -283 -102t-91 -318v-162h665z" />
    <glyph glyph-name="uni0622" unicode="&#x622;" horiz-adv-x="573" 
d="M-53 1640l-62 52q28 130 117 175.5t203 -14.5q19 -10 56.5 -32t57 -32.5t53 -25.5t54 -18.5t49 -3.5t50 11.5t46 34.5t45.5 58l54 -71q-25 -41 -52 -70t-55.5 -43t-55 -21t-57.5 -2t-56.5 11.5t-57.5 23t-54.5 28.5t-54.5 31t-51 29q-86 45 -147.5 12t-81.5 -133zM199 0
v1473l176 88v-1561h-176z" />
    <glyph glyph-name="uni0623" unicode="&#x623;" horiz-adv-x="573" 
d="M553 1776l-51 -90h-451l51 90h45v57q0 120 66.5 191t175.5 79l35 -88q-92 0 -139 -41.5t-47 -140.5v-57h315zM199 0v1473l176 88v-1561h-176z" />
    <glyph glyph-name="uni0624" unicode="&#x624;" horiz-adv-x="1218" 
d="M373 1290l51 90h45v58q0 120 66.5 191t175.5 79l34 -88q-92 0 -139 -41.5t-47 -140.5v-58h315l-51 -90h-450zM610 1051q187 0 316 -129t129 -332v-590q-1 -341 -174 -518.5t-496 -177.5h-82l-92 184h174q249 0 371 124.5t123 387.5h-422q-121 0 -207 87t-86 210v293
q0 203 129 332t317 129zM879 184v406q0 126 -78 201t-191 75q-115 0 -192.5 -74t-77.5 -202v-293q0 -46 35 -79.5t82 -33.5h422z" />
    <glyph glyph-name="uni0625" unicode="&#x625;" horiz-adv-x="573" 
d="M375 1843v-1843h-176v1755zM555 -477l-51 -90h-451l51 90h46v57q0 120 66 191t175 79l35 -88q-92 0 -139 -41.5t-47 -140.5v-57h315z" />
    <glyph glyph-name="uni0626" unicode="&#x626;" horiz-adv-x="2275" 
d="M254 797l57 100h49v64q0 132 73.5 209.5t193.5 86.5l37 -98q-101 0 -153 -45t-52 -153v-64h348l-57 -100h-496zM1636 383q183 -82 230 -108q174 -94 227 -210q30 -63 29 -139q-1 -127 -79 -225.5t-217.5 -152.5t-316.5 -54h-690q-143 0 -264 49t-203 132.5t-128 197.5
t-46 242v303l176 88v-391q0 -91 32 -170.5t90.5 -139t147 -93.5t195.5 -34h690q191 0 312.5 70.5t124.5 181.5q1 25 -5.5 47.5t-15.5 41t-29 38t-34.5 33t-46 31.5t-49 27.5t-57.5 27t-58.5 25t-63.5 26.5q-177 73 -234 103q-171 92 -227 224q-32 75 -32 169q0 199 140 328
t357 129q123 0 236 -62t198 -176l-114 -149q-59 94 -143.5 148t-176.5 54q-146 0 -233.5 -74.5t-87.5 -197.5q0 -52 17.5 -94.5t43.5 -72t71.5 -58.5t84.5 -47.5t99 -45.5q11 -5 17 -7.5t15.5 -6.5t17.5 -8z" />
    <glyph glyph-name="uni0627" unicode="&#x627;" horiz-adv-x="573" 
d="M199 0v1755l176 88v-1843h-176z" />
    <glyph glyph-name="uni0628" unicode="&#x628;" horiz-adv-x="2338" 
d="M575 0q-238 0 -389 131t-151 338v125l176 88v-213q0 -128 99.5 -206.5t264.5 -78.5h1039q165 0 264.5 78.5t99.5 206.5v426l176 88v-514q0 -207 -151 -338t-389 -131h-1039zM1212 -541l-133 131l133 131l131 -131z" />
    <glyph glyph-name="uni0629" unicode="&#x629;" horiz-adv-x="1193" 
d="M395 1327l-133 131l133 131l131 -131zM702 1327l-133 131l133 131l132 -131zM377 0q-121 0 -207 87t-86 210v272q0 135 63 251t169.5 183.5t230.5 67.5t230.5 -67.5t169.5 -183.5t63 -251v-272q0 -123 -86 -210t-207 -87h-340zM377 184h340q49 0 83 33t34 80v272
q0 131 -85.5 224.5t-201.5 93.5t-201.5 -93.5t-85.5 -224.5v-272q0 -47 34 -80t83 -33z" />
    <glyph glyph-name="uni062A" unicode="&#x62a;" horiz-adv-x="2338" 
d="M1079 1040l-133 131l133 132l131 -132zM1386 1040l-133 131l133 132l132 -132zM575 0q-238 0 -389 131t-151 338v125l176 88v-213q0 -128 99.5 -206.5t264.5 -78.5h1039q165 0 264.5 78.5t99.5 206.5v426l176 88v-514q0 -207 -151 -338t-389 -131h-1039z" />
    <glyph glyph-name="uni062B" unicode="&#x62b;" horiz-adv-x="2338" 
d="M1231 1286l-133 131l133 131l131 -131zM1079 1040l-133 131l133 132l131 -132zM1386 1040l-133 131l133 132l132 -132zM575 0q-238 0 -389 131t-151 338v125l176 88v-213q0 -128 99.5 -206.5t264.5 -78.5h1039q165 0 264.5 78.5t99.5 206.5v426l176 88v-514
q0 -207 -151 -338t-389 -131h-1039z" />
    <glyph glyph-name="uni062C" unicode="&#x62c;" horiz-adv-x="1468" 
d="M1184 309q-47 -3 -89 -6t-113 -12.5t-131.5 -21.5t-135.5 -33.5t-135 -48.5t-119.5 -67t-99 -87.5t-64.5 -112.5t-25 -139q0 -131 106 -212t277 -81h668l-92 -184h-576q-245 0 -402 134t-157 343q0 411 489 592q214 79 557 115h1h1h1h1h1h2h1l1 1h1h1h1h1v9
q0 180 -129.5 308t-312.5 128h-609l93 184h516q126 0 240.5 -49t197 -132t131.5 -198t49 -241v-52zM1001 -338l-133 131l133 131l132 -131z" />
    <glyph glyph-name="uni062D" unicode="&#x62d;" horiz-adv-x="1468" 
d="M1184 309q-47 -3 -89 -6t-113 -12.5t-131.5 -21.5t-135.5 -33.5t-135 -48.5t-119.5 -67t-99 -87.5t-64.5 -112.5t-25 -139q0 -131 106 -212t277 -81h668l-92 -184h-576q-245 0 -402 134t-157 343q0 411 489 592q214 79 557 115h1h1h1h1h1h2h1l1 1h1h1h1h1v9
q0 180 -129.5 308t-312.5 128h-609l93 184h516q126 0 240.5 -49t197 -132t131.5 -198t49 -241v-52z" />
    <glyph glyph-name="uni062E" unicode="&#x62e;" horiz-adv-x="1468" 
d="M715 1327l-133 131l133 131l131 -131zM1184 309q-47 -3 -89 -6t-113 -12.5t-131.5 -21.5t-135.5 -33.5t-135 -48.5t-119.5 -67t-99 -87.5t-64.5 -112.5t-25 -139q0 -131 106 -212t277 -81h668l-92 -184h-576q-245 0 -402 134t-157 343q0 411 489 592q214 79 557 115h1h1
h1h1h1h2h1l1 1h1h1h1h1v9q0 180 -129.5 308t-312.5 128h-609l93 184h516q126 0 240.5 -49t197 -132t131.5 -198t49 -241v-52z" />
    <glyph glyph-name="uni062F" unicode="&#x62f;" horiz-adv-x="1062" 
d="M422 1079q224 -25 343.5 -179.5t119.5 -420.5v-479h-844l92 184h576v295q0 214 -89.5 316t-277.5 104z" />
    <glyph glyph-name="uni0630" unicode="&#x630;" horiz-adv-x="1062" 
d="M469 1327l-133 131l133 131l131 -131zM422 1079q224 -25 343.5 -179.5t119.5 -420.5v-479h-844l92 184h576v295q0 214 -89.5 316t-277.5 104z" />
    <glyph glyph-name="uni0631" unicode="&#x631;" horiz-adv-x="567" 
d="M-178 -565q197 17 314.5 137t117.5 301v774l176 88v-862q0 -225 -144 -395.5t-372 -214.5z" />
    <glyph glyph-name="uni0632" unicode="&#x632;" horiz-adv-x="567" 
d="M342 934l-133 131l133 131l131 -131zM-178 -565q197 17 314.5 137t117.5 301v774l176 88v-862q0 -225 -144 -395.5t-372 -214.5z" />
    <glyph glyph-name="uni0633" unicode="&#x633;" horiz-adv-x="3145" 
d="M2832 895l177 88v-514q0 -469 -424 -469q-253 0 -355 170q-102 -170 -356 -170q-183 0 -287 88v-164q0 -127 -55.5 -242t-150 -197.5t-224 -131.5t-272.5 -49h-86q-191 0 -352.5 82.5t-256 225.5t-94.5 312v303l176 88v-391q0 -118 70.5 -218.5t192 -159t264.5 -58.5h86
q143 0 264 58.5t191.5 159t70.5 218.5v711l176 88v-254q0 -155 65.5 -220t221.5 -65q136 0 192 64t56 221v166l176 88v-254q0 -155 65.5 -220t221.5 -65q136 0 191.5 64t55.5 221v426z" />
    <glyph glyph-name="uni0634" unicode="&#x634;" horiz-adv-x="3145" 
d="M2349 1432l-131 -132l-133 132l133 131zM2136 1145l-131 -131l-133 131l133 131zM2435 1014l-133 131l133 131l131 -131zM2832 895l177 88v-514q0 -469 -424 -469q-253 0 -355 170q-102 -170 -356 -170q-183 0 -287 88v-164q0 -127 -55.5 -242t-150 -197.5t-224 -131.5
t-272.5 -49h-86q-191 0 -352.5 82.5t-256 225.5t-94.5 312v303l176 88v-391q0 -118 70.5 -218.5t192 -159t264.5 -58.5h86q143 0 264 58.5t191.5 159t70.5 218.5v711l176 88v-254q0 -155 65.5 -220t221.5 -65q136 0 192 64t56 221v166l176 88v-254q0 -155 65.5 -220
t221.5 -65q136 0 191.5 64t55.5 221v426z" />
    <glyph glyph-name="uni0635" unicode="&#x635;" horiz-adv-x="3344" 
d="M2675 1051q132 0 243.5 -67.5t176.5 -183t65 -251.5v-47q0 -212 -138 -357t-339 -145h-1075v-76q0 -169 -94.5 -312t-256 -225.5t-352.5 -82.5h-65q-191 0 -352.5 82.5t-256 225.5t-94.5 312v385l176 88v-473q0 -118 70.5 -218.5t192 -159t264.5 -58.5h65
q143 0 264.5 58.5t192 159t70.5 218.5v905l176 89v-300q216 433 759 433h308zM2984 502v47q0 131 -91 224t-218 93h-308q-126 0 -232 -26.5t-179.5 -69t-132.5 -103.5t-94.5 -120.5t-61 -130t-36.5 -124t-17 -108.5h1069q129 0 215 91.5t86 226.5z" />
    <glyph glyph-name="uni0636" unicode="&#x636;" horiz-adv-x="3344" 
d="M2546 1458l-131 -131l-134 131l134 131zM2675 1051q132 0 243.5 -67.5t176.5 -183t65 -251.5v-47q0 -212 -138 -357t-339 -145h-1075v-76q0 -169 -94.5 -312t-256 -225.5t-352.5 -82.5h-65q-191 0 -352.5 82.5t-256 225.5t-94.5 312v385l176 88v-473q0 -118 70.5 -218.5
t192 -159t264.5 -58.5h65q143 0 264.5 58.5t192 159t70.5 218.5v905l176 89v-300q216 433 759 433h308zM2984 502v47q0 131 -91 224t-218 93h-308q-126 0 -232 -26.5t-179.5 -69t-132.5 -103.5t-94.5 -120.5t-61 -130t-36.5 -124t-17 -108.5h1069q129 0 215 91.5t86 226.5z
" />
    <glyph glyph-name="uni0637" unicode="&#x637;" horiz-adv-x="2187" 
d="M1518 1051q132 0 243.5 -67.5t176.5 -183t65 -251.5v-47q0 -212 -138 -357t-339 -145h-1434l-92 184h274v1571l177 88v-1179q236 387 759 387h308zM1827 502v47q0 131 -91 224t-218 93h-308q-126 0 -232 -26.5t-179.5 -69t-132 -103t-94 -120.5t-61 -130.5t-37 -124
t-17.5 -108.5h1069q129 0 215 91.5t86 226.5z" />
    <glyph glyph-name="uni0638" unicode="&#x638;" horiz-adv-x="2187" 
d="M1518 1051q132 0 243.5 -67.5t176.5 -183t65 -251.5v-47q0 -212 -138 -357t-339 -145h-1434l-92 184h274v1571l177 88v-1179q236 387 759 387h308zM1276 1458l-131 -131l-133 131l133 131zM1827 502v47q0 131 -91 224t-218 93h-308q-126 0 -232 -26.5t-179.5 -69
t-132 -103t-94 -120.5t-61 -130.5t-37 -124t-17.5 -108.5h1069q129 0 215 91.5t86 226.5z" />
    <glyph glyph-name="uni0639" unicode="&#x639;" horiz-adv-x="1429" 
d="M618 -430h648l-92 -184h-556q-245 0 -402 134t-157 343q0 331 310 518q-193 121 -193 348q0 236 165 371t452 135h129l92 -184h-221q-216 0 -328.5 -83t-112.5 -239q0 -55 17 -101.5t46 -78.5t58 -52.5t62 -35.5q136 53 298 82t255 32l94 3l-41 -185q-55 -2 -112.5 -6.5
t-151.5 -19t-175.5 -36.5t-170 -63t-151 -94t-103.5 -133.5t-41 -177.5q0 -131 105.5 -212t276.5 -81z" />
    <glyph glyph-name="uni063A" unicode="&#x63a;" horiz-adv-x="1429" 
d="M805 1599l-131 -131l-133 131l133 132zM618 -430h648l-92 -184h-556q-245 0 -402 134t-157 343q0 331 310 518q-193 121 -193 348q0 236 165 371t452 135h129l92 -184h-221q-216 0 -328.5 -83t-112.5 -239q0 -55 17 -101.5t46 -78.5t58 -52.5t62 -35.5q136 53 298 82
t255 32l94 3l-41 -185q-55 -2 -112.5 -6.5t-151.5 -19t-175.5 -36.5t-170 -63t-151 -94t-103.5 -133.5t-41 -177.5q0 -131 105.5 -212t276.5 -81z" />
    <glyph glyph-name="uni0640" unicode="&#x640;" horiz-adv-x="428" 
d="M-39 0q-46 0 -78.5 26.5t-32.5 65.5t32.5 65.5t78.5 26.5h473v-184h-473z" />
    <glyph glyph-name="uni0641" unicode="&#x641;" horiz-adv-x="2738" 
d="M2214 1458l-131 -131l-133 131l133 131zM2554 547q0 -146 -63.5 -270.5t-177.5 -200t-253 -76.5h-1470q-238 0 -389.5 131t-151.5 338v133l176 88v-221q0 -128 100 -206.5t265 -78.5h1093q-122 153 -122 363q0 145 63.5 269.5t178.5 200t255 75.5q139 0 254 -75.5
t178.5 -200t63.5 -269.5zM2058 184q138 0 229 107.5t91 255.5q0 146 -91 253t-229 107t-229.5 -107t-91.5 -253q0 -148 91.5 -255.5t229.5 -107.5z" />
    <glyph glyph-name="uni0642" unicode="&#x642;" horiz-adv-x="1828" 
d="M1182 1423l-131 -131l-133 131l133 131zM1489 1423l-131 -131l-133 131l133 131zM1153 1124q206 0 349 -145.5t143 -355.5v-490q0 -346 -198.5 -546.5t-539.5 -200.5h-73q-341 0 -539.5 200.5t-198.5 546.5v105l176 88v-193q0 -268 147.5 -415.5t414.5 -147.5h73
q267 0 414 147.5t147 415.5v21h-516q-121 0 -207 87t-86 210v172q0 138 65.5 253.5t179 181.5t249.5 66zM1468 338v285q0 135 -90.5 226t-224.5 91q-135 0 -226 -91t-91 -226v-172q0 -46 34.5 -79.5t81.5 -33.5h516z" />
    <glyph glyph-name="uni0643" unicode="&#x643;" horiz-adv-x="2379" 
d="M1999 1755l176 88v-1374q0 -207 -151.5 -338t-389.5 -131h-977q-238 0 -389 131t-151 338v133l176 88v-221q0 -128 99.5 -206.5t264.5 -78.5h977q165 0 265 78.5t100 206.5v1286zM1346 819q58 0 86 25.5t28 62.5q0 38 -27 64t-87 26h-142q-87 0 -108 65t45 128l256 242
l71 -78l-260 -246h138q106 0 158 -57.5t52 -139.5q0 -84 -52.5 -143t-157.5 -59h-291l-74 110h365z" />
    <glyph glyph-name="uni0644" unicode="&#x644;" horiz-adv-x="1703" 
d="M793 -614q-315 0 -509 182.5t-194 478.5v272l176 89v-361q0 -220 142 -348.5t385 -128.5h4q243 0 384.5 128.5t141.5 348.5v1708l176 88v-1796q0 -296 -193.5 -478.5t-508.5 -182.5h-4z" />
    <glyph glyph-name="uni0645" unicode="&#x645;" horiz-adv-x="1822" 
d="M1157 1008q137 0 252.5 -73.5t182.5 -200.5t67 -277q0 -142 -68 -264.5t-183.5 -194.5t-250.5 -72q-181 0 -321 123.5t-174 308.5q-176 -23 -283 -140.5t-107 -291.5v-622l-176 -88v710q0 248 157.5 420.5t405.5 198.5q30 198 170.5 330.5t327.5 132.5zM1157 111
q138 0 232 100t94 246q0 158 -93 262t-233 104t-234 -104t-94 -262q0 -146 95 -246t233 -100z" />
    <glyph glyph-name="uni0646" unicode="&#x646;" horiz-adv-x="1724" 
d="M864 805l-133 131l133 131l131 -131zM799 -614q-191 0 -352.5 82.5t-256 225.5t-94.5 312v371l176 88v-459q0 -118 70.5 -218.5t192 -159t264.5 -58.5h86q143 0 264 58.5t191.5 159t70.5 218.5v637l176 88v-725q0 -127 -55.5 -242t-150 -197.5t-224 -131.5t-272.5 -49
h-86z" />
    <glyph glyph-name="uni0647" unicode="&#x647;" horiz-adv-x="1193" 
d="M377 0q-121 0 -207 87t-86 210v272q0 135 63 251t169.5 183.5t230.5 67.5t230.5 -67.5t169.5 -183.5t63 -251v-272q0 -123 -86 -210t-207 -87h-340zM377 184h340q49 0 83 33t34 80v272q0 131 -85.5 224.5t-201.5 93.5t-201.5 -93.5t-85.5 -224.5v-272q0 -47 34 -80
t83 -33z" />
    <glyph glyph-name="uni0648" unicode="&#x648;" horiz-adv-x="1218" 
d="M610 1051q187 0 316 -129t129 -332v-590q-1 -341 -174 -518.5t-496 -177.5h-82l-92 184h174q249 0 371 124.5t123 387.5h-422q-121 0 -207 87t-86 210v293q0 203 129 332t317 129zM879 184v406q0 126 -78 201t-191 75q-115 0 -192.5 -74t-77.5 -202v-293q0 -46 35 -79.5
t82 -33.5h422z" />
    <glyph glyph-name="uni0649" unicode="&#x649;" horiz-adv-x="2275" 
d="M1911 793q-59 94 -143.5 148t-176.5 54q-146 0 -233.5 -74.5t-87.5 -197.5q0 -52 17.5 -94.5t43.5 -72t71.5 -58.5t84.5 -47.5t99 -45.5q11 -5 17 -7.5t15.5 -6.5t17.5 -8q183 -82 230 -108q174 -94 227 -210q30 -63 29 -139q-1 -127 -79 -225.5t-217.5 -152.5
t-316.5 -54h-690q-143 0 -264 49t-203 132.5t-128 197.5t-46 242v303l176 88v-391q0 -91 32 -170.5t90.5 -139t147 -93.5t195.5 -34h690q191 0 312.5 70.5t124.5 181.5q1 25 -5.5 47.5t-15.5 41t-29 38t-34.5 33t-46 31.5t-49 27.5t-57.5 27t-58.5 25t-63.5 26.5
q-177 73 -234 103q-171 92 -227 224q-32 75 -32 169q0 199 140 328t357 129q123 0 236 -62t198 -176z" />
    <glyph glyph-name="uni064A" unicode="&#x64a;" horiz-adv-x="2275" 
d="M1911 793q-59 94 -143.5 148t-176.5 54q-146 0 -233.5 -74.5t-87.5 -197.5q0 -52 17.5 -94.5t43.5 -72t71.5 -58.5t84.5 -47.5t99 -45.5q11 -5 17 -7.5t15.5 -6.5t17.5 -8q183 -82 230 -108q174 -94 227 -210q30 -63 29 -139q-1 -127 -79 -225.5t-217.5 -152.5
t-316.5 -54h-690q-143 0 -264 49t-203 132.5t-128 197.5t-46 242v303l176 88v-391q0 -91 32 -170.5t90.5 -139t147 -93.5t195.5 -34h690q191 0 312.5 70.5t124.5 181.5q1 25 -5.5 47.5t-15.5 41t-29 38t-34.5 33t-46 31.5t-49 27.5t-57.5 27t-58.5 25t-63.5 26.5
q-177 73 -234 103q-171 92 -227 224q-32 75 -32 169q0 199 140 328t357 129q123 0 236 -62t198 -176zM1042 -971l-133 131l133 131l132 -131zM1350 -971l-133 131l133 131l131 -131z" />
    <glyph glyph-name="uni064B" unicode="&#x64b;" 
d="M-313 1370v98l626 267v-99zM-313 1145v98l626 266v-98z" />
    <glyph glyph-name="uni064C" unicode="&#x64c;" 
d="M199 1726q80 28 136 -11.5t56 -123.5q0 -88 -50 -159.5t-136 -108.5l-508 -209v92l33 15q59 27 89.5 67.5t30.5 87.5q0 44 -31 64.5t-75 5.5q-35 -10 -68 -47l-51 53q54 60 115 82q80 28 136 -11.5t56 -123.5q0 -59 -32 -109l166 70q-52 41 -52 117q2 75 54.5 148.5
t130.5 100.5zM199 1417q47 15 78.5 59.5t31.5 92.5q0 44 -31 64t-75 5q-46 -15 -79.5 -60t-33.5 -91q0 -48 30 -67.5t79 -2.5z" />
    <glyph glyph-name="uni064D" unicode="&#x64d;" 
d="M-313 -63v98l626 266v-98zM-313 -289v99l626 266v-99z" />
    <glyph glyph-name="uni064E" unicode="&#x64e;" 
d="M-313 1145v98l626 266v-98z" />
    <glyph glyph-name="uni064F" unicode="&#x64f;" 
d="M-303 1260l369 153q-52 41 -52 117q0 75 53.5 149t131.5 101q80 28 136 -11.5t56 -123.5q0 -88 -50 -161t-136 -108l-508 -209v93zM199 1470q47 15 78.5 59.5t31.5 92.5q0 44 -31 64.5t-75 5.5q-46 -15 -79.5 -60.5t-33.5 -91.5q0 -47 29.5 -66t79.5 -4z" />
    <glyph glyph-name="uni0650" unicode="&#x650;" 
d="M-313 -84v98l626 267v-99z" />
    <glyph glyph-name="uni0651" unicode="&#x651;" 
d="M219 1602l78 73v-192q0 -185 -154 -240q-88 -30 -129 19q-41 -81 -137 -117q-83 -31 -127.5 1t-44.5 124v53l78 78v-111q0 -51 19.5 -63t70.5 6q50 17 69 45.5t19 85.5v51l80 68v-97q0 -53 20.5 -65.5t77.5 10.5q44 18 62 45.5t18 83.5v142z" />
    <glyph glyph-name="uni0652" unicode="&#x652;" 
d="M0 1303q-102 0 -165.5 62t-63.5 163q0 106 67.5 182t161.5 76t161.5 -76t67.5 -182q0 -102 -63 -163.5t-166 -61.5zM0 1393q65 0 108.5 38t43.5 97q0 63 -47.5 115.5t-104.5 52.5t-104.5 -52t-47.5 -116q0 -59 43.5 -97t108.5 -38z" />
    <glyph glyph-name="uni0653" unicode="&#x653;" 
d="M61 1640l-61 52q28 130 116.5 175.5t202.5 -14.5q18 -10 56 -32t57.5 -32.5t53 -25.5t54 -18.5t49.5 -3.5t50.5 11.5t46 34.5t45.5 58l53 -71q-25 -41 -52 -70t-55.5 -43t-55 -21t-57.5 -2t-56 11.5t-57 23t-54.5 28.5t-54.5 31t-51 29q-86 45 -148 12t-82 -133z" />
    <glyph glyph-name="uni0654" unicode="&#x654;" 
d="M502 1776l-51 -90h-451l51 90h45v57q0 120 66.5 191t175.5 79l35 -88q-93 0 -140 -41.5t-47 -140.5v-57h316z" />
    <glyph glyph-name="uni0655" unicode="&#x655;" 
d="M502 -477l-51 -90h-451l51 90h45v57q0 120 66.5 191t175.5 79l35 -88q-93 0 -140 -41.5t-47 -140.5v-57h316z" />
    <glyph glyph-name="uni0656" unicode="&#x656;" 
d="M-8 270v435l88 75v-434z" />
    <glyph glyph-name="uni0660" unicode="&#x660;" horiz-adv-x="722" 
d="M362 381l-186 186l186 187l185 -187z" />
    <glyph glyph-name="uni0661" unicode="&#x661;" horiz-adv-x="573" 
d="M199 0v1628l176 88v-1716h-176z" />
    <glyph glyph-name="uni0662" unicode="&#x662;" horiz-adv-x="1173" 
d="M158 0v1206q0 136 64 251.5t174.5 183t240.5 67.5h473l-92 -184h-381q-124 0 -213.5 -93.5t-89.5 -224.5v-1206h-176z" />
    <glyph glyph-name="uni0663" unicode="&#x663;" horiz-adv-x="1648" 
d="M1397 1624l176 88v-371q0 -209 -96 -315t-285 -106q-217 0 -322 120q-95 -120 -299 -120q-142 0 -237 53v-973h-176v1624l176 88v-371q0 -131 53 -184t184 -53q115 0 161 52.5t46 184.5v258l176 89v-347q0 -130 53.5 -183.5t184.5 -53.5q114 0 159.5 52t45.5 185v283z
" />
    <glyph glyph-name="uni0664" unicode="&#x664;" horiz-adv-x="1366" 
d="M698 184h562l-93 -184h-469q-106 0 -194.5 27t-149.5 72.5t-103.5 107.5t-63 131t-21.5 143q-2 135 58 243t177 165q-116 53 -176.5 151t-58.5 222q1 68 20.5 132t60 121t97.5 100t137.5 68t175.5 25h316l-92 -184h-224q-151 0 -234 -78t-83 -186q0 -112 84 -194.5
t233 -82.5h316l-92 -184h-224q-148 0 -231.5 -90t-85.5 -213q-1 -61 19.5 -115t62 -99t113 -71.5t163.5 -26.5z" />
    <glyph glyph-name="uni0665" unicode="&#x665;" horiz-adv-x="1335" 
d="M668 0q-132 0 -229.5 27.5t-170 88.5t-109 166t-36.5 253v520q0 294 152 473.5t393 179.5q243 0 393.5 -178.5t150.5 -474.5v-520q0 -149 -36.5 -253.5t-109 -165.5t-169.5 -88.5t-229 -27.5zM668 184q100 0 162 12.5t112 49t72 107t22 182.5v520q0 219 -100 344
t-268 125q-169 0 -269 -124.5t-100 -344.5v-520q0 -89 16 -152t43.5 -101.5t75.5 -60.5t102 -29.5t132 -7.5z" />
    <glyph glyph-name="uni0666" unicode="&#x666;" horiz-adv-x="1173" 
d="M1016 0h-176v1206q0 131 -89.5 224.5t-213.5 93.5h-474l82 184h392q130 0 240.5 -67.5t174.5 -183t64 -251.5v-1206z" />
    <glyph glyph-name="uni0667" unicode="&#x667;" horiz-adv-x="1484" 
d="M653 0l-551 1651l168 57l471 -1440l473 1440l168 -57l-551 -1651h-178z" />
    <glyph glyph-name="uni0668" unicode="&#x668;" horiz-adv-x="1484" 
d="M653 1708h178l551 -1651l-168 -57l-473 1440l-471 -1440l-168 57z" />
    <glyph glyph-name="uni0669" unicode="&#x669;" horiz-adv-x="1198" 
d="M590 1726q189 0 319.5 -132.5t130.5 -336.5v-1257h-176v696h-434q-121 0 -207 87t-86 210v264q0 204 130.5 336.5t322.5 132.5zM864 881v376q0 127 -79 206t-195 79q-119 0 -198 -78t-79 -207v-264q0 -46 35 -79t82 -33h434z" />
    <glyph glyph-name="uni066A" unicode="&#x66a;" horiz-adv-x="1499" 
d="M96 0l1112 1800h195l-1112 -1800h-195zM266 1186l-143 141l143 143l144 -143zM1233 227l-143 142l143 143l143 -143z" />
    <glyph glyph-name="uni066B" unicode="&#x66b;" horiz-adv-x="634" 
d="M213 -176l90 178q-45 12 -71 52t-17 85q9 48 49.5 76t89.5 21q43 -9 71 -42.5t28 -76.5q0 -29 -25 -74l-156 -250z" />
    <glyph glyph-name="uni066C" unicode="&#x66c;" horiz-adv-x="634" 
d="M233 -143l74 147q-37 11 -57.5 44t-13.5 71q7 40 40.5 63t73.5 17q36 -7 59 -35t23 -64q0 -26 -20 -61l-129 -209z" />
    <glyph glyph-name="uni066D" unicode="&#x66d;" horiz-adv-x="1241" 
d="M621 -4l-109 231l-244 -86l86 244l-239 111l239 110l-86 244l244 -86l109 231l108 -231l244 86l-86 -244l239 -110l-239 -111l86 -244l-244 86zM537 414h168v164h-168v-164z" />
    <glyph glyph-name="uni066E" unicode="&#x66e;" horiz-adv-x="2338" 
d="M575 0q-238 0 -389 131t-151 338v125l176 88v-213q0 -128 99.5 -206.5t264.5 -78.5h1039q165 0 264.5 78.5t99.5 206.5v426l176 88v-514q0 -207 -151 -338t-389 -131h-1039z" />
    <glyph glyph-name="uni066F" unicode="&#x66f;" horiz-adv-x="1828" 
d="M1153 1124q206 0 349 -145.5t143 -355.5v-490q0 -346 -198.5 -546.5t-539.5 -200.5h-73q-341 0 -539.5 200.5t-198.5 546.5v105l176 88v-193q0 -268 147.5 -415.5t414.5 -147.5h73q267 0 414 147.5t147 415.5v21h-516q-121 0 -207 87t-86 210v172q0 138 65.5 253.5
t179 181.5t249.5 66zM1468 338v285q0 135 -90.5 226t-224.5 91q-135 0 -226 -91t-91 -226v-172q0 -46 34.5 -79.5t81.5 -33.5h516z" />
    <glyph glyph-name="uni0670" unicode="&#x670;" 
d="M-8 1110v516l88 76v-516z" />
    <glyph glyph-name="uni0671" unicode="&#x671;" horiz-adv-x="573" 
d="M436 2013q69 0 112.5 -42t43.5 -103v-43q0 -57 -40 -97t-97 -40h-293q-48 0 -86.5 -7.5t-58.5 -18.5t-33 -22t-17 -18l-4 -8l-57 41q1 4 4 10t17 22.5t32.5 30.5t54.5 27.5t80 19.5q4 29 12.5 57.5t28 64.5t46.5 62.5t71.5 45t99.5 18.5h84zM518 1845v10q0 32 -21.5 55
t-52.5 23h-92q-46 0 -82.5 -16t-58 -43t-34 -52t-19.5 -53h4h280q32 0 54 22t22 54zM199 0v1473l176 88v-1561h-176z" />
    <glyph glyph-name="uni067E" unicode="&#x67e;" horiz-adv-x="2338" 
d="M575 0q-238 0 -389 131t-151 338v125l176 88v-213q0 -128 99.5 -206.5t264.5 -78.5h1039q165 0 264.5 78.5t99.5 206.5v426l176 88v-514q0 -207 -151 -338t-389 -131h-1039zM1141 -541l-133 131l133 131l131 -131zM1448 -541l-133 131l133 131l131 -131zM1292 -786
l-133 131l133 131l131 -131z" />
    <glyph glyph-name="uni0686" unicode="&#x686;" horiz-adv-x="1468" 
d="M1184 309q-47 -3 -89 -6t-113 -12.5t-131.5 -21.5t-135.5 -33.5t-135 -48.5t-119.5 -67t-99 -87.5t-64.5 -112.5t-25 -139q0 -131 106 -212t277 -81h668l-92 -184h-576q-245 0 -402 134t-157 343q0 411 489 592q214 79 557 115h1h1h1h1h1h2h1l1 1h1h1h1h1v9
q0 180 -129.5 308t-312.5 128h-609l93 184h516q126 0 240.5 -49t197 -132t131.5 -198t49 -241v-52zM920 -152l-134 132l134 131l131 -131zM1227 -152l-133 132l133 131l131 -131zM1071 -397l-133 131l133 131l131 -131z" />
    <glyph glyph-name="uni06A1" unicode="&#x6a1;" horiz-adv-x="2738" 
d="M2554 547q0 -146 -63.5 -270.5t-177.5 -200t-253 -76.5h-1470q-238 0 -389.5 131t-151.5 338v133l176 88v-221q0 -128 100 -206.5t265 -78.5h1093q-122 153 -122 363q0 145 63.5 269.5t178.5 200t255 75.5q139 0 254 -75.5t178.5 -200t63.5 -269.5zM2058 184
q138 0 229 107.5t91 255.5q0 146 -91 253t-229 107t-229.5 -107t-91.5 -253q0 -148 91.5 -255.5t229.5 -107.5z" />
    <glyph glyph-name="uni06A4" unicode="&#x6a4;" horiz-adv-x="2717" 
d="M2214 1622l-131 -131l-133 131l133 131zM2062 1376l-131 -131l-133 131l133 131zM2238 1245l-133 131l133 131l132 -131zM2554 547q0 -146 -63.5 -270.5t-177.5 -200t-253 -76.5h-1470q-238 0 -389.5 131t-151.5 338v133l176 88v-221q0 -128 100 -206.5t265 -78.5h1093
q-122 153 -122 363q0 145 63.5 269.5t178.5 200t255 75.5q139 0 254 -75.5t178.5 -200t63.5 -269.5zM2058 184q138 0 229 107.5t91 255.5q0 146 -91 253t-229 107t-229.5 -107t-91.5 -253q0 -148 91.5 -255.5t229.5 -107.5z" />
    <glyph glyph-name="endash" unicode="&#x2013;" horiz-adv-x="1753" 
d="M137 500v184h1479v-184h-1479z" />
    <glyph glyph-name="emdash" unicode="&#x2014;" horiz-adv-x="1957" 
d="M137 500v184h1684v-184h-1684z" />
    <glyph glyph-name="quoteleft" unicode="&#x2018;" horiz-adv-x="585" 
d="M414 1700l-101 -193q45 -12 71 -52t17 -85q-9 -47 -49.5 -75t-89.5 -21q-43 9 -70.5 42.5t-27.5 76.5q0 30 24 73l185 263z" />
    <glyph glyph-name="quoteright" unicode="&#x2019;" horiz-adv-x="585" 
d="M172 1337l100 193q-45 12 -71 52t-17 85q9 47 50 75t90 21q43 -9 70.5 -42t27.5 -76q0 -29 -25 -74l-184 -262z" />
    <glyph glyph-name="quotesinglbase" unicode="&#x201a;" horiz-adv-x="585" 
d="M172 -190l100 192q-45 12 -71 52t-17 85q9 47 50 75.5t90 21.5q43 -9 70.5 -42.5t27.5 -76.5q0 -29 -25 -74l-184 -262z" />
    <glyph glyph-name="quotedblleft" unicode="&#x201c;" horiz-adv-x="892" 
d="M414 1700l-101 -193q45 -12 71 -52t17 -85q-9 -47 -49.5 -75t-89.5 -21q-43 9 -70.5 42.5t-27.5 76.5q0 30 24 73l185 263zM721 1700l-100 -193q45 -12 71 -52t17 -85q-9 -47 -50 -75t-90 -21q-43 9 -70.5 42.5t-27.5 76.5q0 28 25 73l184 263z" />
    <glyph glyph-name="quotedblright" unicode="&#x201d;" horiz-adv-x="892" 
d="M172 1337l100 193q-45 12 -71 52t-17 85q9 47 50 75t90 21q43 -9 70.5 -42t27.5 -76q0 -29 -25 -74l-184 -262zM479 1337l101 193q-45 12 -71 52t-17 85q9 47 49.5 75t89.5 21q43 -9 70.5 -42t27.5 -76q0 -31 -24 -74l-185 -262z" />
    <glyph glyph-name="quotedblbase" unicode="&#x201e;" horiz-adv-x="913" 
d="M172 -190l100 192q-45 12 -71 52t-17 85q9 47 50 75.5t90 21.5q43 -9 70.5 -42.5t27.5 -76.5q0 -29 -25 -74l-184 -262zM500 -190l100 192q-45 12 -71 52t-17 85q9 48 49.5 76t89.5 21q43 -9 71 -42.5t28 -76.5q0 -29 -25 -74l-184 -262z" />
    <glyph glyph-name="bullet" unicode="&#x2022;" horiz-adv-x="978" 
d="M737 457v-146h-145l-103 -102l-102 102h-145v146l-107 106l107 107v145h145l102 103l103 -103h145v-145l107 -107z" />
    <glyph glyph-name="ellipsis" unicode="&#x2026;" horiz-adv-x="1511" 
d="M307 -41l-143 141l143 144l144 -144zM758 -41l-144 141l144 144l143 -144zM1208 -41l-143 141l143 144l144 -144z" />
    <glyph glyph-name="perthousand" unicode="&#x2030;" horiz-adv-x="2783" 
d="M530 903q-168 0 -270 117t-102 309v98q0 192 101.5 308t270.5 116q170 0 272.5 -116t102.5 -308v-98q0 -193 -102.5 -309.5t-272.5 -116.5zM307 0l1112 1800h195l-1112 -1800h-195zM530 1071q103 0 159 67t56 191v98q0 123 -56 189.5t-159 66.5q-102 0 -157.5 -66.5
t-55.5 -189.5v-98q0 -124 55.5 -191t157.5 -67zM1411 0q-169 0 -271 117t-102 309v100q0 192 102 308t271 116q170 0 272.5 -116t102.5 -308v-100q0 -193 -102.5 -309.5t-272.5 -116.5zM2251 0q-169 0 -271 117t-102 309v100q0 192 102 308t271 116q170 0 272.5 -116
t102.5 -308v-100q0 -193 -102.5 -309.5t-272.5 -116.5zM1411 168q103 0 159 67t56 191v100q0 123 -56 189.5t-159 66.5q-102 0 -157.5 -66.5t-55.5 -189.5v-100q0 -124 55.5 -191t157.5 -67zM2251 168q103 0 159 67t56 191v100q0 123 -56 189.5t-159 66.5
q-102 0 -157.5 -66.5t-55.5 -189.5v-100q0 -124 55.5 -191t157.5 -67z" />
    <glyph glyph-name="guilsinglleft" unicode="&#x2039;" horiz-adv-x="677" 
d="M451 0l-336 518l336 524h147l-264 -524l264 -518h-147z" />
    <glyph glyph-name="guilsinglright" unicode="&#x203a;" horiz-adv-x="677" 
d="M227 0h-147l264 518l-264 524h147l336 -524z" />
    <glyph glyph-name="fraction" unicode="&#x2044;" horiz-adv-x="1171" 
d="M0 0l977 1843h194l-976 -1843h-195z" />
    <glyph glyph-name="Euro" unicode="&#x20ac;" horiz-adv-x="1587" 
d="M567 604q23 -191 155 -305.5t322 -114.5h426l-61 -184h-365q-174 0 -317.5 76t-232 213.5t-103.5 314.5h-274v187h270v192h-270v184h272q13 180 101.5 320t233 216.5t320.5 76.5h426l-61 -185h-365q-195 0 -327 -116t-152 -312h701v-184h-703v-192h703v-187h-699z" />
    <glyph glyph-name="minus" unicode="&#x2212;" horiz-adv-x="1239" 
d="M158 362v185l923 2v-184z" />
    <glyph glyph-name="notequal" unicode="&#x2260;" horiz-adv-x="1239" 
d="M1081 610h-338l-88 -241h426v-185h-493l-213 -587h-185l213 587h-245v185h313l88 241h-401v185h467l241 665h185l-242 -665h272v-185z" />
    <glyph glyph-name="lessequal" unicode="&#x2264;" horiz-adv-x="1243" 
d="M1065 1274v-193l-676 -311l676 -315v-193l-883 412v192zM1065 0h-887v184h887v-184z" />
    <glyph glyph-name="greaterequal" unicode="&#x2265;" horiz-adv-x="1243" 
d="M178 1274l883 -408v-192l-883 -412v193l676 315l-676 311v193zM178 0v184h887v-184h-887z" />
    <glyph glyph-name="uniFBB2" unicode="&#xfbb2;" 
d="M100 1040l-133 131l133 132l131 -132z" />
    <glyph glyph-name="uniFBB3" unicode="&#xfbb3;" 
d="M100 -541l-133 131l133 131l131 -131z" />
    <glyph glyph-name="uniFBB4" unicode="&#xfbb4;" 
d="M121 1040l-133 131l133 132l131 -132zM428 1040l-133 131l133 132l131 -132z" />
    <glyph glyph-name="uniFBB5" unicode="&#xfbb5;" 
d="M121 -541l-133 131l133 131l131 -131zM428 -541l-133 131l133 131l131 -131z" />
    <glyph glyph-name="uniFBB6" unicode="&#xfbb6;" 
d="M272 1286l-133 131l133 131l131 -131zM121 1040l-133 131l133 132l131 -132zM428 1040l-133 131l133 132l131 -132z" />
    <glyph glyph-name="uniFBB9" unicode="&#xfbb9;" 
d="M121 -541l-133 131l133 131l131 -131zM428 -541l-133 131l133 131l131 -131zM272 -786l-133 131l133 131l131 -131z" />
    <glyph glyph-name="uniFD3E" unicode="&#xfd3e;" horiz-adv-x="1474" 
d="M1075 907q-54 -164 -53 -307.5t55 -304.5l262 -780h-139l-295 747q-34 80 -49 162l-166 -166q-63 -63 -144 -62.5t-143 62.5l-204 205q-63 63 -63 147.5t63 147.5l204 205q63 63 143.5 63t143.5 -63l170 -170q15 69 43 143l297 772h139zM782 592q19 22 0 41l-211 211
q-9 9 -24.5 9t-24.5 -9l-211 -211q-19 -19 0 -41l211 -213q8 -7 25 -7t24 7z" />
    <glyph glyph-name="uniFD3F" unicode="&#xfd3f;" horiz-adv-x="1474" 
d="M1276 758q63 -63 63 -147.5t-63 -147.5l-205 -205q-62 -62 -143 -62.5t-144 62.5l-166 166q-15 -82 -49 -162l-295 -747h-139l262 780q54 161 55 304.5t-53 307.5l-264 801h139l297 -772q28 -74 43 -143l170 170q63 63 143.5 63t143.5 -63zM1163 592q19 22 0 41l-211 211
q-9 9 -24.5 9t-24.5 -9l-211 -211q-19 -19 0 -41l211 -213q7 -7 24 -7t25 7z" />
    <glyph glyph-name="uni0627.short" horiz-adv-x="573" 
d="M199 0v1473l176 88v-1561h-176z" />
    <glyph glyph-name="uniFE8E.short" horiz-adv-x="643" 
d="M561 0q-175 0 -268.5 94.5t-93.5 272.5v1126l176 88v-1214q0 -100 42 -141.5t144 -41.5h88v-184h-88z" />
    <glyph glyph-name="dotcenterar" 
d="M147 295q-61 0 -104 42.5t-43 104.5t43 105t104 43t104.5 -43t43.5 -105q0 -61 -43 -104t-105 -43z" />
    <glyph glyph-name="uniFBB6.001" 
d="M231 1327l-133 131l133 131l131 -131zM18 1040l-133 131l133 132l132 -132zM449 1040l-134 131l134 132l131 -132z" />
    <glyph glyph-name="waslaar" 
d="M543 2013q69 0 112 -42t43 -103v-43q0 -57 -40 -97t-97 -40h-293q-48 0 -86 -7.5t-58 -18.5t-33.5 -22t-16.5 -18l-4 -8l-58 41q1 4 4 10t17 22.5t33 30.5t55 27.5t80 19.5q4 29 12.5 57.5t28 64.5t46.5 62.5t71.5 45t99.5 18.5h84zM625 1845v10q0 32 -21.5 55t-52.5 23
h-92q-46 0 -82.5 -16t-58.5 -43t-34.5 -52t-19.5 -53h4h281q32 0 54 22t22 54z" />
    <glyph glyph-name="shaddaAlefabovear" 
d="M45 2124v-516l-88 -76v516zM233 1602l78 73v-192q0 -185 -153 -240q-88 -30 -129 19q-41 -80 -138 -117q-83 -31 -127.5 1t-44.5 124v53l78 78v-111q0 -51 19.5 -63t70.5 6q50 17 69 45.5t19 85.5v51l80 68v-97q0 -53 21 -65.5t78 10.5q44 18 61.5 45.5t17.5 83.5v142z
" />
    <glyph glyph-name="shaddaDammaar" 
d="M338 1954q0 -88 -47.5 -160.5t-130.5 -107.5l-484 -209v92l353 153q-49 38 -49 117q0 75 50 149t124 101q77 28 130.5 -11t53.5 -124zM51 1849q0 -47 28.5 -65.5t74.5 -3.5q45 15 75.5 59t30.5 92q0 44 -29.5 64.5t-72.5 5.5t-75 -60.5t-32 -91.5zM219 1460v142l78 73
v-192q0 -185 -154 -240q-88 -30 -129 19q-41 -81 -137 -117q-83 -31 -127.5 1t-44.5 124v53l78 78v-111q0 -51 19.5 -63t70.5 6q50 17 69 45.5t19 85.5v51l80 68v-97q0 -53 20.5 -65.5t77.5 10.5q44 18 62 45.5t18 83.5z" />
    <glyph glyph-name="shaddaDammatanar" 
d="M-307 1458v92l18 9q64 27 96.5 69t32.5 92q0 44 -29.5 64.5t-72.5 5.5q-32 -10 -66 -47l-49 53q50 59 111 82q77 28 131.5 -11.5t54.5 -123.5q0 -58 -33 -109l162 70q-49 41 -49 117q2 76 52.5 149.5t125.5 100.5q77 28 132 -12t55 -124q0 -87 -48.5 -159t-132.5 -109z
M182 1982q-44 -15 -76 -60t-32 -91q0 -48 28.5 -67.5t75.5 -2.5q45 15 76 59.5t31 92.5q0 44 -30 64t-73 5zM231 1460v142l78 73v-192q0 -185 -153 -240q-88 -30 -129 19q-41 -80 -138 -117q-83 -31 -127.5 1t-44.5 124v53l78 78v-111q0 -51 19.5 -63t70.5 6q50 17 69 45.5
t19 85.5v51l80 68v-97q0 -53 21 -65.5t78 10.5q44 18 61.5 45.5t17.5 83.5z" />
    <glyph glyph-name="shaddaFathaar" 
d="M-326 1614l627 266v-98l-627 -266v98zM219 1460v142l78 73v-192q0 -185 -154 -240q-88 -30 -129 19q-41 -81 -137 -117q-83 -31 -127.5 1t-44.5 124v53l78 78v-111q0 -51 19.5 -63t70.5 6q50 17 69 45.5t19 85.5v51l80 68v-97q0 -53 20.5 -65.5t77.5 10.5q44 18 62 45.5
t18 83.5z" />
    <glyph glyph-name="shaddaFathatanar" 
d="M293 2126v-98l-627 -267v99zM293 1901v-99l-627 -266v98zM219 1642l78 74v-192q0 -185 -154 -240q-88 -30 -129 19q-41 -81 -137 -117q-83 -31 -127.5 1t-44.5 124v53l78 78v-111q0 -51 19.5 -63t70.5 6q50 17 69 45.5t19 85.5v51l80 68v-97q0 -53 20.5 -65.5t77.5 10.5
q44 18 62 45.5t18 83.5v141z" />
    <glyph glyph-name="shaddaKasraar" 
d="M-143 1436q-83 -31 -127.5 1t-44.5 124v53l77 78v-111q0 -51 20 -63t71 6q50 17 69 45.5t19 85.5v51l79 68v-97q0 -53 21 -65.5t78 10.5q44 18 62 45.5t18 83.5v141l77 74v-192q0 -185 -153 -240q-89 -30 -129 18q-40 -79 -137 -116zM-313 1243l626 266v-98l-626 -266v98
z" />
    <glyph glyph-name="shaddaKasratanar" 
d="M-154 1675q-83 -31 -127.5 1t-44.5 124v53l78 78v-110q0 -51 19.5 -63t70.5 5q50 17 69 45.5t19 85.5v52l80 67v-96q0 -53 21 -65.5t78 10.5q44 18 61.5 45.5t17.5 83.5v141l78 74v-193q0 -97 -38.5 -154.5t-114.5 -84.5q-89 -30 -129 18q-41 -80 -138 -117zM-313 1468
l626 267v-99l-626 -266v98zM-313 1145v98l626 266v-98z" />
  </font>
</defs>
</svg>
