<?xml version="1.0" encoding="UTF-8"?>
<svg id="Layer_1" data-name="Layer 1" xmlns="http://www.w3.org/2000/svg" xmlns:xlink="http://www.w3.org/1999/xlink" viewBox="0 0 500 300">
  <defs>
    <style>
      .cls-1 {
        fill: url(#linear-gradient);
      }

      .cls-1, .cls-2, .cls-3, .cls-4 {
        stroke-width: 0px;
      }

      .cls-2 {
        fill: #3e2b66;
      }

      .cls-3 {
        fill: url(#linear-gradient-2);
      }

      .cls-4 {
        fill: #a75280;
      }
    </style>
    <linearGradient id="linear-gradient" x1="301.47" y1="11.89" x2="138.26" y2="178.47" gradientUnits="userSpaceOnUse">
      <stop offset=".02" stop-color="#d9976d"/>
      <stop offset=".05" stop-color="#d6926e"/>
      <stop offset=".36" stop-color="#bc6f77"/>
      <stop offset=".62" stop-color="#ac597d"/>
      <stop offset=".78" stop-color="#a75280"/>
    </linearGradient>
    <linearGradient id="linear-gradient-2" x1="304.93" y1="15.28" x2="141.72" y2="181.86" xlink:href="#linear-gradient"/>
  </defs>
  <g>
    <path class="cls-2" d="m42.87,257.8c0-2,.37-3.9,1.1-5.7.73-1.81,1.73-3.41,2.99-4.8,1.26-1.39,2.74-2.52,4.43-3.39,1.69-.87,3.49-1.36,5.39-1.48h5.37c1.5,0,3.13,0,4.91-.02,1.78-.01,3.47-.02,5.09-.02h6.56v5.15h-20.35c-1.32.06-2.56.37-3.72.95-1.16.57-2.18,1.32-3.06,2.25-.88.93-1.57,1.99-2.07,3.2-.5,1.21-.75,2.49-.75,3.84s.26,2.75.79,4.02c.53,1.27,1.25,2.36,2.16,3.29.91.93,1.98,1.66,3.21,2.21,1.23.54,2.54.82,3.92.82h19.86v5.15h-21.31c-1.97-.03-3.83-.47-5.59-1.32-1.76-.85-3.3-1.98-4.62-3.39-1.32-1.41-2.37-3.04-3.15-4.89-.78-1.85-1.17-3.8-1.17-5.86Z"/>
    <path class="cls-2" d="m112.33,265.24l7.93,8.01h-8.24l-8.1-8.19h-11.54v8.19h-5.9v-30.87h24.75c1.53.03,2.96.35,4.32.97,1.35.62,2.52,1.44,3.52,2.47,1,1.03,1.79,2.22,2.38,3.59.59,1.36.88,2.81.88,4.34,0,1.2-.18,2.37-.55,3.5-.37,1.13-.89,2.16-1.56,3.1-.68.94-1.49,1.77-2.44,2.49-.95.72-2,1.27-3.15,1.65l-2.29.75Zm-1.76-5.33c.85,0,1.66-.16,2.42-.48.76-.32,1.42-.76,1.98-1.32.56-.56,1-1.22,1.32-1.98.32-.76.48-1.57.48-2.42s-.16-1.65-.48-2.4c-.32-.75-.77-1.4-1.34-1.96-.57-.56-1.23-1-1.98-1.32-.75-.32-1.55-.48-2.4-.48h-18.19v12.37h18.19Z"/>
    <path class="cls-2" d="m150.74,242.43h7.57l-13.7,17.26v13.56h-5.9v-13.56l-13.7-17.26h7.57l9.07,11.41,9.07-11.41Z"/>
    <path class="cls-2" d="m200.66,253.75c0,1.53-.29,2.97-.86,4.32-.57,1.35-1.36,2.54-2.36,3.57-1,1.03-2.17,1.85-3.5,2.47-1.34.62-2.75.94-4.25.97h-18.98v8.19h-5.9v-30.87h24.75c1.53.03,2.96.35,4.32.97,1.35.62,2.52,1.44,3.52,2.47,1,1.03,1.79,2.22,2.38,3.59.59,1.36.88,2.81.88,4.34Zm-11.76,6.17c.85,0,1.66-.16,2.42-.48.76-.32,1.42-.76,1.98-1.32.56-.56,1-1.22,1.32-1.98.32-.76.48-1.57.48-2.42s-.16-1.65-.48-2.4c-.32-.75-.76-1.4-1.32-1.96-.56-.56-1.22-1-1.98-1.32-.76-.32-1.57-.48-2.42-.48h-18.19v12.37h18.19Z"/>
    <path class="cls-2" d="m240.47,242.38v5.15h-14.97v25.72h-5.9v-25.72h-14.97v-5.15h35.85Z"/>
    <path class="cls-2" d="m244.43,257.84c0-2,.37-3.9,1.1-5.72.73-1.82,1.73-3.43,2.99-4.82,1.26-1.39,2.74-2.52,4.43-3.39,1.69-.87,3.49-1.36,5.39-1.48h14.18c1.94.12,3.75.61,5.44,1.48,1.69.87,3.16,2,4.43,3.39,1.26,1.39,2.26,3,2.99,4.82.73,1.82,1.1,3.73,1.1,5.72s-.39,3.96-1.17,5.81c-.78,1.85-1.83,3.48-3.15,4.89-1.32,1.41-2.86,2.54-4.62,3.39-1.76.85-3.63,1.29-5.59,1.32h-12.99c-1.97-.03-3.83-.47-5.59-1.32-1.76-.85-3.3-1.98-4.62-3.39-1.32-1.41-2.37-3.04-3.15-4.89-.78-1.85-1.17-3.79-1.17-5.81Zm15.1-9.91c-1.38.06-2.65.35-3.81.88-1.16.53-2.17,1.24-3.02,2.14-.85.9-1.52,1.93-2,3.11-.48,1.18-.73,2.44-.73,3.8s.26,2.68.77,3.88c.51,1.21,1.23,2.25,2.14,3.13.91.88,1.97,1.58,3.19,2.1,1.22.52,2.53.77,3.94.77h10.83c1.41,0,2.73-.26,3.96-.77,1.23-.52,2.3-1.21,3.21-2.1.91-.88,1.62-1.93,2.14-3.13.51-1.21.77-2.5.77-3.88s-.24-2.62-.73-3.8c-.48-1.18-1.15-2.21-2-3.11-.85-.9-1.86-1.61-3.04-2.14-1.17-.53-2.44-.82-3.79-.88h-11.85Z"/>
    <path class="cls-4" d="m339.33,257.8c0,2.06-.39,4.01-1.17,5.86-.78,1.85-1.83,3.48-3.15,4.89-1.32,1.41-2.86,2.54-4.62,3.39-1.76.85-3.63,1.29-5.59,1.32h-21.31v-30.83h22.02c1.88,0,3.66.41,5.33,1.23,1.67.82,3.14,1.93,4.4,3.32,1.26,1.39,2.26,3.02,2.99,4.89.73,1.87,1.1,3.84,1.1,5.92Zm-15.98,10.31c1.38,0,2.69-.27,3.92-.81,1.23-.54,2.3-1.27,3.21-2.2.91-.92,1.63-2.01,2.16-3.27.53-1.26.79-2.59.79-4s-.25-2.63-.75-3.84c-.5-1.22-1.18-2.28-2.05-3.21-.87-.92-1.88-1.67-3.04-2.24-1.16-.57-2.4-.89-3.72-.94h-14.58v20.48h4.98c1.41,0,2.92,0,4.54.02,1.61.01,3.13.02,4.54.02Z"/>
    <path class="cls-4" d="m379.14,247.54h-29.95v7.75h21.36v5.15h-21.36v7.66h29.95v5.15h-35.85v-30.87h35.85v5.15Z"/>
    <path class="cls-4" d="m418.99,263.96c0,1.29-.29,2.49-.86,3.59-.57,1.1-1.31,2.06-2.22,2.88-.91.82-1.94,1.48-3.08,1.96s-2.29.77-3.43.86h-26.25v-5.15h26.2c.56,0,1.08-.1,1.56-.31s.9-.48,1.26-.84c.35-.35.63-.76.84-1.23.2-.47.31-.97.31-1.5,0-1.06-.37-1.94-1.1-2.66-.73-.72-1.66-1.11-2.77-1.17h-17.66c-1.26-.09-2.42-.37-3.48-.84-1.06-.47-1.98-1.09-2.75-1.87-.78-.78-1.38-1.67-1.81-2.69-.43-1.01-.64-2.11-.64-3.28,0-1.23.23-2.4.68-3.5.46-1.1,1.07-2.07,1.85-2.91.78-.84,1.7-1.51,2.75-2.03,1.06-.51,2.2-.81,3.43-.9h23.91v5.15h-23.08c-1.09.06-1.99.45-2.71,1.17-.72.72-1.08,1.62-1.08,2.68s.37,2.01,1.12,2.75c.75.74,1.68,1.11,2.8,1.11h17.04c1.29.03,2.5.27,3.61.73,1.12.46,2.08,1.07,2.91,1.85.82.78,1.47,1.69,1.94,2.73.47,1.04.7,2.18.7,3.41Z"/>
    <path class="cls-4" d="m449.55,273.25l-12.59-15.1-8.1,7.27v7.84h-5.9v-30.87h5.9v15.02l16.73-15.02h8.94l-13.12,11.76,15.72,19.11h-7.57Z"/>
  </g>
  <path class="cls-1" d="m223.32,56.27h44.14l18.76-12.75-11.08-16.78h-51.82c-39.15,0-71.01,32.25-71.01,71.89s31.85,71.9,71.01,71.9h15.85l7.38-29.53h-23.23c-22.87,0-41.48-19.01-41.48-42.37s18.61-42.37,41.48-42.37Z"/>
  <path class="cls-2" d="m283.33,200.72h-52.33l-11.8-17.69,18.56-13.6h45.57c22.39,0,40.6-18.61,40.6-41.49s-18.21-41.49-40.6-41.49h-23.22l7.14-31.29h16.08c39.64,0,71.89,32.65,71.89,72.78s-32.25,72.78-71.89,72.78Zm-51.38-1.77h51.38c38.67,0,70.12-31.85,70.12-71.01s-31.46-71.01-70.12-71.01h-14.67l-6.33,27.76h21c23.36,0,42.37,19.4,42.37,43.25s-19.01,43.25-42.37,43.25h-44.99l-16.73,12.26,10.33,15.5Z"/>
  <path class="cls-3" d="m262.26,55.16c-.56.35-1.12.72-1.68,1.12h6.88l4.47-3.04c-3.34-.35-6.51-.05-9.67,1.92Z"/>
</svg>