<?xml version="1.0" encoding="UTF-8"?>
<svg id="Layer_1" data-name="Layer 1" xmlns="http://www.w3.org/2000/svg" version="1.1" viewBox="0 0 500 200">
  <defs>
    <style>
      .cls-1 {
        stroke: #0d519d;
        stroke-miterlimit: 10;
        stroke-width: 2px;
      }

      .cls-1, .cls-2 {
        fill: #0d519d;
      }

      .cls-2, .cls-3 {
        stroke-width: 0px;
      }

      .cls-3 {
        fill: #c6c5c5;
      }
    </style>
  </defs>
  <g id="Layer_2" data-name="Layer 2">
    <g id="Layer_1-2" data-name="Layer 1-2">
      <path class="cls-2" d="M415.97,158.5c-7.57,3.41-15.78,5.17-24.09,5.16-33.19,0-60.1-27.58-60.1-61.57s26.91-61.57,60.1-61.57,60.1,27.57,60.1,61.59c.02,11.86-3.34,23.48-9.69,33.5l-.25.77c7.25-10.75,11.11-23.42,11.08-36.38,0-35.61-28.45-64.47-63.56-64.47s-63.56,28.86-63.56,64.47,28.46,64.47,63.56,64.47c9.01.01,17.91-1.92,26.1-5.67l.3-.3Z"/>
      <rect class="cls-2" x="426.24" y="144.21" width="10.57" height="10.57" transform="translate(20.68 348.92) rotate(-45)"/>
      <path class="cls-2" d="M344.07,109.8s17.45,33.43,48.92,28.03,36.88-30.99,36.88-30.99h-45.97l5.68-48.92,4.88,40.23h45.72s-1.03,40.11-43.74,45.81-52.37-34.16-52.37-34.16Z"/>
      <path class="cls-3" d="M368.16,88.88l-2.95-7.87h59.73s5.41,39.82-29.87,48.43c0,0-24.21,7.47-41.42-21.88,0,0,11.43,16.96,33.06,15.73s27.04-23.19,27.04-23.19c0,0,2.21-8.03,1.35-11.37l-46.95.14Z"/>
      <path class="cls-2" d="M315.8,67.99c0-1.23,1.84-3.85,1.84-3.85h-8.97c1.64,2.29,1.88,3.85,1.88,3.85l-.04,22.33c0,1.23-1.84,3.85-1.84,3.85h8.97c-1.64-2.3-1.88-3.85-1.88-3.85l.04-22.33Z"/>
      <path class="cls-2" d="M186.74,67.99c0-1.23,1.84-3.85,1.84-3.85h-8.97c1.64,2.29,1.89,3.85,1.89,3.85l-.04,22.33c0,1.23-1.85,3.85-1.85,3.85h8.97c-1.64-2.3-1.88-3.85-1.88-3.85l.04-22.33Z"/>
      <path class="cls-2" d="M303.14,67.99c0-1.23,1.84-3.85,1.84-3.85h-8.97c1.64,2.29,1.88,3.85,1.88,3.85l-.04,22.33c-.02.31-.09.62-.21.9h-10.43v-12.95c0-1.23,1.85-3.85,1.85-3.85h-8.97c1.64,2.3,1.88,3.85,1.88,3.85v12.95h-4.45v-12.95h.02c0-1.23,1.85-3.85,1.85-3.85h-8.97c1.64,2.3,1.88,3.85,1.88,3.85h0v12.95h-20.73c-.11-.29-.2-.59-.27-.9l.04-22.33c0-1.23,1.84-3.85,1.84-3.85h-8.97c1.64,2.29,1.89,3.85,1.89,3.85l-.04,22.35c0,1.23-1.84,3.85-1.84,3.85h60.78c-1.64-2.3-1.88-3.85-1.88-3.85l.02-22.35Z"/>
      <ellipse class="cls-2" cx="277.06" cy="98.08" rx="2.46" ry="1.9"/>
      <ellipse class="cls-2" cx="284.25" cy="69.46" rx="2.46" ry="1.9"/>
      <ellipse class="cls-2" cx="271.49" cy="98.08" rx="2.46" ry="1.9"/>
      <path class="cls-2" d="M239.21,78.27c0-1.23,1.84-3.85,1.84-3.85h-8.97c1.64,2.3,1.89,3.85,1.89,3.85l-.04,12.06c-.03.41-.14.82-.31,1.19l-.03-.28h-7.91v-8.67s-.9-8.44-11.56-8.16c-10.65.29-11.72,4.74-11.72,4.74,0,0-5,7.02,2.62,12.68,0,0,3.85,2.34,6.48,2.34h29.56c-1.64-2.3-1.89-3.85-1.89-3.85l.05-12.04ZM220.71,91.6h-9.34c-3.94-1.11-5.12-5.33-5.12-5.33-1.56-6.48,2.95-8.56,2.95-8.56,10.49-3.4,11.52,6.11,11.52,6.11v7.79Z"/>
      <ellipse class="cls-2" cx="215.52" cy="69.48" rx="2.46" ry="1.9"/>
      <ellipse class="cls-2" cx="209.95" cy="69.48" rx="2.46" ry="1.9"/>
      <ellipse class="cls-2" cx="236.4" cy="98.08" rx="2.46" ry="1.9"/>
      <path class="cls-2" d="M173.5,67.99c0-1.23,1.84-3.85,1.84-3.85h-8.97c1.64,2.29,1.88,3.85,1.88,3.85l-.04,22.33c-.02.31-.09.61-.2.9h-15.1l8.97-7.05c-1.48-9.99-14.63-9.96-14.63-9.96,0,0-11.41-.25-12.88,9.76l7.21,7.25h-23.54c-.12-.29-.21-.59-.27-.9l.04-22.33c0-1.23,1.84-3.85,1.84-3.85h-8.97c1.64,2.29,1.88,3.85,1.88,3.85l-.04,22.33c0,1.23-1.84,3.85-1.84,3.85h64.64c-1.64-2.3-1.89-3.85-1.89-3.85l.04-22.34ZM140.16,83.66c.12-7.15,7.09-6.88,7.09-6.88,0,0,8.41,0,8.53,7.15l-8.53,7.31-7.09-7.57Z"/>
      <path class="cls-2" d="M95.42,74.25c-14.01-.25-14.87,8.13-14.87,8.13v8.67h-7.25v-9.2s-.96-8.96-12.27-8.66-12.45,5.03-12.45,5.03c0,0-5.31,7.46,2.78,13.47,0,0,4.09,2.48,6.88,2.48h36.57c9.71-.25,12.41-7.99,12.41-7.99,0,0,2.22-11.68-11.79-11.92ZM68.03,91.44h-9.93c-4.18-1.19-5.44-5.66-5.44-5.66-1.65-6.88,3.13-9.1,3.13-9.1,11.15-3.61,12.24,6.49,12.24,6.49v8.26ZM95.91,91.44h-10.21v-8.83s1.85-7.99,12.78-4.67c.02,0,7.62,7.58-2.58,13.5Z"/>
      <ellipse class="cls-2" cx="62.36" cy="69.48" rx="2.46" ry="1.9"/>
      <ellipse class="cls-2" cx="56.78" cy="69.48" rx="2.46" ry="1.9"/>
      <path class="cls-1" d="M52.65,125.98v6.33c-.02.89.02,1.78.11,2.67.05.5.18.99.4,1.44.14.29.34.54.6.73.27.17.58.28.9.29v.4h-6.13v-.4c.32-.02.63-.12.9-.29.26-.19.48-.45.62-.74.22-.45.36-.93.4-1.43.09-.89.12-1.78.11-2.68v-12.97c0-1.01-.02-1.79-.07-2.34-.03-.45-.11-.9-.25-1.33-.12-.4-.34-.76-.63-1.05-.28-.25-.63-.41-1.01-.45h-.07v-.4h5.79c.76-.03,1.51.06,2.24.28.54.24,1,.63,1.31,1.13.91,1.27,1.36,2.96,1.36,5.08s-.46,3.69-1.38,4.73c-.46.51-1.07.84-1.75.93-.53.05-1.06.07-1.59.06h-1.87ZM52.65,125.42h.94c.5.02,1-.06,1.47-.26.39-.22.71-.55.91-.94.63-1.06.94-2.45.94-4.18,0-.89-.08-1.78-.27-2.66-.14-.7-.41-1.36-.79-1.97-.3-.53-.8-.91-1.39-1.06-.34-.03-.67-.04-1.01-.04h-.79v11.1Z"/>
      <path class="cls-1" d="M68.85,113.77v.4c-.32.02-.62.12-.89.29-.26.19-.47.44-.6.74-.23.46-.37.97-.42,1.48-.07.59-.1,1.59-.1,3.03v9.98c0,1.62.03,2.79.1,3.52.06.67.19,1.34.4,1.99.21.76.6,1.45,1.14,2.02.46.42,1.08.65,1.7.62.67,0,1.33-.2,1.9-.56.62-.38,1.14-.91,1.51-1.54.25-.41.44-.85.56-1.31.14-.6.21-1.21.23-1.83.03-.48.04-1.63.04-3.42v-9.84c.02-.89-.02-1.79-.11-2.68-.05-.5-.18-.98-.4-1.43-.14-.29-.35-.55-.61-.74-.27-.17-.57-.27-.89-.29v-.4h4.42v.4c-.32.02-.62.12-.89.29-.26.19-.47.45-.61.74-.22.45-.35.94-.4,1.44-.09.89-.13,1.78-.11,2.67v11.12c.03,1.22-.04,2.44-.21,3.64-.13.76-.41,1.49-.82,2.14-.82,1.42-2.36,2.27-4,2.22-1.81,0-3.15-.7-4-2.1-.61-1.08-.96-2.29-1.01-3.52-.04-.53-.06-1.46-.06-2.8v-10.7c.01-.89-.02-1.79-.11-2.68-.04-.5-.18-.98-.4-1.43-.13-.29-.34-.55-.6-.74-.27-.17-.58-.27-.9-.29v-.4l6.12-.03Z"/>
      <path class="cls-1" d="M80.6,137.85v-.4c.32-.02.63-.12.9-.29.26-.2.47-.45.6-.75.22-.45.36-.93.4-1.43.09-.89.12-1.78.11-2.68v-12.97c.01-.89-.02-1.79-.11-2.68-.04-.5-.18-.98-.4-1.43-.13-.3-.34-.55-.6-.74-.27-.17-.58-.27-.89-.29v-.4h6.31c.64,0,1.06,0,1.26.04.7.09,1.34.43,1.82.95.45.54.78,1.17.96,1.85.24.84.35,1.7.34,2.57.04,1.31-.23,2.61-.79,3.79-.16.33-.38.64-.64.91-.32.3-.66.56-1.03.79.5.14.99.35,1.43.62.36.25.68.57.92.93.45.7.77,1.47.95,2.28.23.97.35,1.96.34,2.96.02.98-.09,1.97-.32,2.92-.18.77-.51,1.5-.98,2.15-.34.46-.81.8-1.35,1.01-.71.21-1.46.31-2.2.28h-7.03ZM84.72,114.32v10.48h.79c.38,0,.76-.05,1.13-.14.29-.07.57-.19.82-.34.22-.14.41-.32.57-.53.36-.52.61-1.1.75-1.72.19-.76.27-1.54.27-2.32,0-.86-.09-1.71-.27-2.55-.13-.67-.37-1.3-.73-1.88-.21-.35-.53-.62-.9-.79-.49-.16-1.01-.24-1.53-.21h-.91ZM84.72,125.35v7.27c0,.71.03,1.42.1,2.13.05.47.16.94.33,1.38.23.73.92,1.21,1.68,1.19,1.03,0,1.84-.52,2.44-1.55s.9-2.45.89-4.24c0-.96-.09-1.91-.28-2.85-.12-.71-.38-1.4-.75-2.02-.57-.87-1.48-1.3-2.71-1.3h-1.72Z"/>
      <path class="cls-1" d="M96.78,137.85v-.43c.66,0,1.25-.4,1.5-1.01.22-.45.35-.94.4-1.44.09-.89.12-1.78.11-2.67v-12.99c.02-.92-.02-1.84-.12-2.76-.05-.51-.2-1.01-.44-1.46-.14-.27-.35-.5-.6-.67-.26-.15-.55-.24-.85-.25v-.4h6.13v.4c-.3.02-.6.11-.86.27-.25.17-.45.4-.6.67-.24.45-.39.95-.44,1.46-.09.91-.12,1.82-.11,2.73v10.18c0,1.57.02,2.73.07,3.49.02.63.11,1.26.26,1.87.14.7.49,1.35,1,1.86.49.41,1.12.62,1.76.59.68.02,1.36-.17,1.92-.56.58-.44,1.02-1.04,1.28-1.72.24-.58.42-1.18.55-1.8.14-.67.28-1.55.4-2.65l.23.04-.12,7.23-11.46-.02Z"/>
      <path class="cls-1" d="M117.85,113.77v.4c-.31.02-.62.12-.89.29-.26.19-.47.45-.61.74-.28.62-.44,1.28-.46,1.96-.04.62-.06,1.34-.06,2.15v13c0,.97.02,1.74.08,2.31.03.46.12.92.25,1.36.12.4.34.76.64,1.05.3.24.66.39,1.04.42v.4h-6.13v-.4c.32-.02.63-.12.9-.29.25-.19.46-.44.59-.73.22-.45.36-.93.4-1.43.09-.89.12-1.78.11-2.68v-12.97c.01-.89-.02-1.79-.11-2.68-.04-.5-.18-.98-.4-1.43-.13-.3-.34-.55-.6-.74-.27-.17-.58-.27-.89-.29v-.4l6.14-.03Z"/>
      <path class="cls-1" d="M133.55,113.65l.12,7.89h-.2c-.07-.34-.13-.6-.16-.77-.23-1.13-.4-1.99-.55-2.52-.24-.95-.6-1.87-1.08-2.72-.28-.52-.65-.99-1.11-1.36-.38-.28-.83-.43-1.3-.42-.72,0-1.41.31-1.88.86-.56.65-1,1.38-1.31,2.18-.43,1.04-.77,2.13-.99,3.24-.39,1.92-.57,3.87-.55,5.82-.01,1.67.11,3.34.37,4.99.19,1.28.56,2.54,1.1,3.72.88,1.85,2.05,2.78,3.52,2.78.72,0,1.41-.24,1.97-.7.62-.53,1.09-1.21,1.35-1.99.43-1.28.7-2.61.79-3.95l.22.07c-.05,1.52-.33,3.02-.83,4.45-.34.93-.92,1.76-1.7,2.38-.72.55-1.6.84-2.5.83-.9,0-1.77-.25-2.53-.72-1.29-.78-2.29-2.18-3.02-4.21-.77-2.34-1.14-4.79-1.08-7.26-.02-2,.2-4,.64-5.96.32-1.55.91-3.03,1.77-4.37.55-.81,1.26-1.5,2.09-2.02.72-.47,1.57-.74,2.44-.75.88.03,1.73.3,2.46.79l.79.48c.11.09.25.15.4.16.16,0,.29-.12.4-.37.07-.19.12-.39.16-.58l.22.03Z"/>
      <path class="cls-1" d="M149.84,125.98v6.33c-.02.89.02,1.78.11,2.67.05.5.18.99.4,1.44.14.29.34.54.6.73.27.17.58.28.9.29v.4h-6.13v-.4c.32-.02.63-.12.9-.29.26-.19.46-.44.6-.73.22-.45.36-.93.4-1.43.09-.89.12-1.78.11-2.68v-12.99c0-1.01-.02-1.79-.07-2.34-.03-.45-.11-.9-.25-1.33-.12-.4-.34-.76-.63-1.05-.27-.25-.62-.41-.99-.45h-.07v-.4h5.79c.76-.03,1.51.06,2.24.28.54.24,1,.63,1.31,1.13.91,1.27,1.36,2.96,1.36,5.08s-.46,3.69-1.38,4.73c-.46.51-1.07.84-1.75.93-.53.05-1.06.07-1.59.06h-1.86ZM149.84,125.42h.94c.5.02,1-.06,1.47-.26.39-.22.71-.55.91-.94.63-1.06.94-2.45.94-4.18,0-.89-.08-1.78-.27-2.66-.14-.7-.41-1.36-.79-1.97-.3-.53-.8-.91-1.39-1.06-.34-.03-.67-.04-1.01-.04h-.79v11.1Z"/>
      <path class="cls-1" d="M164.15,126.08v6.24c-.02.89.02,1.78.11,2.67.05.5.18.99.4,1.44.14.29.34.54.6.73.27.17.58.28.9.29v.4h-6.13v-.4c.32-.02.63-.12.9-.29.26-.19.46-.44.6-.73.22-.45.36-.93.4-1.43.09-.89.12-1.78.11-2.68v-13c.01-.89-.02-1.79-.11-2.68-.04-.5-.18-.98-.4-1.43-.13-.3-.34-.55-.6-.74-.27-.17-.58-.27-.89-.29v-.4h6.15c.83.03,1.64.29,2.34.74.68.55,1.2,1.28,1.47,2.11.37,1.04.54,2.15.52,3.25,0,1.84-.38,3.31-1.13,4.41-.21.3-.47.57-.76.79-.34.25-.72.45-1.12.6.34.25.63.56.85.92.17.29.3.6.4.93.12.37.31,1.03.55,1.97.57,2.15,1,3.73,1.29,4.72.2.73.45,1.46.73,2.16.11.28.26.54.46.76.18.15.39.25.62.28v.4h-3.18c-.16-.65-.26-1.06-.31-1.24l-.67-2.8c-.4-1.68-.81-3.17-1.22-4.46-.25-.92-.63-1.81-1.12-2.63-.14-.21-.33-.38-.56-.5-.23-.11-.48-.16-.73-.15l-.48.03ZM164.15,125.69h.37c.58.04,1.16-.05,1.7-.25.41-.24.75-.59.97-1.02.71-1.34,1.06-2.85,1.01-4.37,0-.88-.09-1.76-.29-2.62-.15-.71-.42-1.4-.79-2.02-.23-.37-.57-.66-.96-.84-.51-.18-1.05-.26-1.59-.24h-.4v11.35Z"/>
      <path class="cls-1" d="M176.17,125.98c-.02-1.86.22-3.7.69-5.5.41-1.58,1.09-3.08,2.02-4.42.57-.84,1.29-1.57,2.13-2.15.68-.47,1.48-.73,2.3-.75,1.07.03,2.08.46,2.86,1.19,1.03.94,1.85,2.09,2.42,3.36,1.16,2.52,1.74,5.26,1.68,8.03,0,1.47-.14,2.93-.44,4.37-.27,1.32-.7,2.61-1.29,3.83-.57,1.28-1.41,2.41-2.45,3.34-1.64,1.56-4.22,1.58-5.88.04-1.02-.9-1.83-2.01-2.38-3.25-.56-1.19-.98-2.44-1.22-3.73-.29-1.44-.44-2.9-.44-4.36ZM178.49,126.24c0,3.41.51,6.29,1.52,8.63.33.85.82,1.63,1.44,2.28.99.95,2.55.95,3.54,0,.63-.66,1.13-1.44,1.45-2.29,1.01-2.36,1.52-5.26,1.52-8.7,0-1.8-.13-3.59-.42-5.37-.22-1.48-.62-2.92-1.19-4.3-.3-.8-.76-1.52-1.37-2.11-1.02-.88-2.52-.88-3.54,0-.6.6-1.07,1.32-1.37,2.12-.57,1.37-.96,2.81-1.17,4.29-.28,1.8-.41,3.63-.4,5.45Z"/>
      <path class="cls-1" d="M195.08,137.78l.03-7.29h.22c.19,1.48.51,2.94.96,4.37.7,1.97,1.58,2.96,2.63,2.96.74,0,1.35-.45,1.82-1.36.52-1.07.77-2.25.72-3.44,0-.62-.06-1.23-.16-1.84-.09-.54-.23-1.08-.43-1.59-.2-.48-.47-.92-.79-1.32-.48-.56-.99-1.1-1.54-1.59-.49-.45-.96-.92-1.39-1.43-.31-.36-.58-.76-.79-1.19-.59-1.26-.87-2.64-.83-4.04,0-.95.1-1.9.32-2.82.18-.82.48-1.6.9-2.33.68-1.15,1.48-1.73,2.41-1.73.29,0,.57.05.83.17.37.18.71.4,1.02.66.32.23.54.4.66.45.09.06.2.09.31.1.22,0,.37-.3.45-.9h.22l.07,7h-.22c-.17-1.12-.32-1.99-.45-2.57-.11-.56-.26-1.11-.44-1.65-.22-.74-.57-1.42-1.03-2.03-.31-.41-.79-.65-1.3-.66-.72,0-1.28.45-1.7,1.34-.18.41-.32.84-.4,1.29-.1.49-.15.99-.15,1.49-.07,1.81.69,3.56,2.06,4.75l1.35,1.19c.97.81,1.74,1.84,2.25,3,.55,1.35.82,2.81.79,4.27,0,1.04-.12,2.08-.36,3.1-.23,1.17-.75,2.26-1.5,3.18-.58.71-1.44,1.12-2.35,1.12-.87-.02-1.72-.34-2.38-.9-.4-.32-.64-.5-.71-.54-.08-.05-.17-.07-.26-.07-.31,0-.52.28-.64.85h-.21Z"/>
      <path class="cls-1" d="M218.05,113.77l.16,5.82h-.22c-.05-.83-.18-1.65-.4-2.45-.18-.62-.46-1.19-.84-1.71-.27-.38-.63-.68-1.06-.87-.52-.19-1.08-.27-1.63-.25h-2.2v10.58h.58c.45.02.9-.05,1.31-.21.32-.17.57-.43.72-.76.19-.38.33-.78.4-1.19.11-.68.18-1.37.22-2.06l.22.02-.04,9.45h-.22c-.04-.73-.12-1.47-.25-2.19-.09-.49-.25-.96-.46-1.41-.16-.35-.42-.63-.75-.83-.36-.19-.76-.28-1.17-.26h-.55v4.04c0,1.61.02,2.78.07,3.52.03.62.11,1.24.26,1.84.14.7.49,1.35.99,1.86.49.41,1.12.62,1.76.59.68.02,1.36-.16,1.93-.54.57-.43,1.01-1,1.27-1.67.25-.56.44-1.13.56-1.73.14-.65.27-1.5.4-2.56l.22.02-.13,7.02h-11.47v-.4c.32-.02.62-.12.89-.28.26-.19.47-.45.61-.74.22-.45.35-.94.4-1.44.09-.89.12-1.78.11-2.67v-12.99c.01-.89-.02-1.78-.11-2.67-.05-.5-.18-.99-.4-1.44-.13-.29-.34-.55-.6-.74-.27-.17-.58-.27-.9-.29v-.4l10.32-.03Z"/>
      <path class="cls-1" d="M234.74,113.65l.12,7.89h-.22c-.07-.34-.12-.6-.16-.77-.22-1.13-.4-1.99-.55-2.52-.23-.95-.6-1.87-1.08-2.72-.27-.52-.65-.99-1.11-1.36-.37-.28-.83-.43-1.3-.42-.72,0-1.41.31-1.88.86-.55.65-1,1.38-1.31,2.18-.43,1.05-.76,2.13-.99,3.24-.38,1.92-.56,3.87-.54,5.82-.01,1.67.11,3.34.37,4.99.19,1.28.56,2.53,1.09,3.72.89,1.85,2.06,2.78,3.52,2.78.72,0,1.41-.24,1.97-.7.63-.52,1.09-1.21,1.35-1.99.43-1.28.7-2.61.79-3.95l.22.07c-.05,1.52-.32,3.01-.81,4.45-.33.94-.92,1.76-1.7,2.38-.72.55-1.6.84-2.5.83-.9,0-1.77-.25-2.53-.72-1.29-.78-2.29-2.18-3.02-4.21-.77-2.34-1.14-4.79-1.08-7.26-.02-2,.2-4,.63-5.96.32-1.55.92-3.03,1.77-4.37.55-.81,1.26-1.5,2.09-2.02.72-.47,1.57-.73,2.43-.75.88.03,1.73.3,2.46.79l.79.48c.11.09.25.15.4.16.16,0,.29-.12.4-.37.06-.19.12-.39.16-.58l.23.03Z"/>
      <path class="cls-1" d="M245.04,113.77v.4c-.32.02-.62.12-.89.29-.26.19-.47.44-.6.74-.23.46-.37.97-.42,1.48-.07.59-.1,1.59-.1,3.03v9.98c0,1.62.03,2.79.1,3.52.06.67.19,1.34.4,1.99.21.76.6,1.45,1.14,2.02.46.42,1.07.65,1.7.62.68,0,1.34-.19,1.91-.56.62-.39,1.14-.91,1.51-1.54.25-.42.44-.87.55-1.34.13-.6.21-1.21.23-1.83.02-.48.04-1.62.04-3.42v-9.81c.01-.89-.02-1.79-.11-2.68-.05-.5-.18-.98-.4-1.43-.14-.29-.35-.55-.61-.74-.27-.17-.57-.27-.89-.29v-.4h4.44v.4c-.31.02-.62.12-.89.29-.26.19-.47.45-.61.74-.22.45-.35.94-.4,1.44-.09.89-.13,1.78-.11,2.67v11.12c.03,1.22-.04,2.44-.21,3.64-.13.76-.41,1.49-.82,2.14-.82,1.42-2.36,2.28-4,2.22-1.81,0-3.14-.7-4-2.1-.61-1.08-.96-2.29-1-3.53-.03-.53-.05-1.46-.06-2.8v-10.7c.01-.89-.02-1.79-.11-2.68-.04-.5-.18-.98-.4-1.43-.13-.29-.34-.55-.6-.74-.27-.17-.58-.27-.9-.29v-.4l6.1-.03Z"/>
      <path class="cls-1" d="M261.98,114.32c-.43,0-.86.03-1.3.07-.78.03-1.55.26-2.2.69-.57.5-.98,1.16-1.19,1.89-.35,1.09-.57,2.21-.67,3.35l-.22-.04.18-6.52h12.99l.17,6.51-.22.04c-.08-1.27-.35-2.52-.79-3.71-.3-.77-.86-1.41-1.59-1.81-.59-.32-1.6-.48-3.02-.48v17.99c-.02.89.02,1.78.11,2.67.05.5.18.99.4,1.44.14.29.35.55.61.74.27.17.57.26.89.28v.4h-6.16v-.4c.32-.02.63-.12.9-.28.26-.19.47-.45.61-.75.22-.45.35-.93.4-1.43.09-.89.13-1.78.11-2.68v-17.98Z"/>
      <path class="cls-1" d="M279.37,113.77v.4c-.32.02-.62.12-.89.29-.26.19-.47.45-.61.74-.29.61-.44,1.28-.46,1.96-.04.62-.06,1.34-.06,2.15v13c0,.97.03,1.74.08,2.31.03.46.12.92.25,1.36.12.4.34.76.64,1.05.3.24.66.39,1.05.42v.4h-6.13v-.4c.32-.02.63-.12.9-.29.25-.19.46-.44.6-.73.22-.45.36-.93.4-1.43.09-.89.12-1.78.11-2.68v-12.97c.01-.89-.02-1.79-.11-2.68-.04-.5-.18-.98-.4-1.43-.14-.29-.34-.55-.61-.74-.27-.17-.57-.27-.89-.29v-.4l6.13-.03Z"/>
      <path class="cls-1" d="M283.72,125.98c-.01-1.86.22-3.7.7-5.5.4-1.58,1.07-3.07,1.99-4.42.57-.84,1.29-1.57,2.13-2.15.68-.47,1.48-.73,2.3-.75,1.07.03,2.08.46,2.86,1.19,1.03.94,1.85,2.09,2.42,3.36,1.16,2.52,1.74,5.26,1.69,8.03,0,1.47-.14,2.93-.44,4.37-.27,1.32-.7,2.61-1.28,3.83-.57,1.27-1.41,2.41-2.45,3.34-.81.74-1.86,1.16-2.96,1.19-1.08-.02-2.11-.43-2.92-1.15-1.02-.9-1.83-2.01-2.38-3.25-.56-1.19-.97-2.44-1.22-3.73-.29-1.44-.43-2.9-.43-4.37ZM286.04,126.24c0,3.41.51,6.29,1.52,8.63.33.85.82,1.63,1.44,2.28.99.95,2.55.95,3.54,0,.63-.66,1.13-1.44,1.45-2.29,1.01-2.36,1.51-5.26,1.52-8.7.01-1.8-.12-3.59-.4-5.37-.22-1.48-.62-2.92-1.19-4.3-.3-.79-.76-1.51-1.37-2.11-1.02-.88-2.52-.88-3.54,0-.61.6-1.07,1.32-1.38,2.12-.56,1.38-.96,2.82-1.17,4.29-.29,1.8-.43,3.63-.42,5.45h0Z"/>
      <path class="cls-1" d="M304.57,116.97v15.35c-.01.89.02,1.79.11,2.68.05.5.18.98.4,1.43.14.29.35.55.61.74.27.17.57.26.89.28v.4h-4.41v-.4c.32-.02.62-.12.89-.28.26-.19.47-.45.61-.74.22-.45.35-.94.4-1.44.09-.89.12-1.78.11-2.67v-13.02c.01-.89-.02-1.77-.11-2.65-.05-.5-.18-.99-.4-1.44-.25-.61-.84-1.01-1.5-1.02v-.4h3.71l7.8,18.27v-12.73c.02-.89-.02-1.79-.11-2.68-.05-.5-.18-.98-.4-1.43-.14-.29-.35-.55-.61-.74-.27-.17-.57-.27-.89-.29v-.4h4.43v.4c-.66.01-1.25.41-1.5,1.02-.22.45-.35.94-.4,1.44-.09.88-.13,1.77-.11,2.65v18.56h-.43l-9.08-20.9Z"/>
    </g>
  </g>
</svg>