<?xml version="1.0" encoding="UTF-8"?>
<svg id="Layer_1" data-name="Layer 1" xmlns="http://www.w3.org/2000/svg" viewBox="0 0 200 200">
  <defs>
    <style>
      .cls-1 {
        fill: #1d252c;
      }

      .cls-2 {
        fill: #e3e3e4;
      }

      .cls-3 {
        fill: #db0032;
      }
    </style>
  </defs>
  <circle class="cls-1" cx="100" cy="100" r="89"/>
  <g>
    <path class="cls-2" d="M151.72,45.56h-27.03c-2.39,0-4.32,1.93-4.32,4.32,0,1.19.48,2.27,1.27,3.05.78.78,1.86,1.27,3.06,1.27h14.99l-24.83,24.83-14.85-8.58-14.85,8.57-24.83-24.83h14.99c2.39,0,4.32-1.94,4.32-4.32,0-1.19-.48-2.28-1.27-3.06-.78-.78-1.86-1.27-3.06-1.27h-27.03c-1.5,0-2.72,1.22-2.72,2.72v27.03c0,2.39,1.94,4.32,4.32,4.32,1.2,0,2.28-.48,3.06-1.27.78-.78,1.27-1.86,1.27-3.05v-14.99l23.19,23.19-2.22,1.28,8.29,4.78,16.54,9.55,16.53-9.55,8.29-4.78-2.22-1.28,23.19-23.19v14.99c0,2.39,1.94,4.32,4.32,4.32,1.19,0,2.27-.48,3.05-1.27.78-.78,1.27-1.86,1.27-3.05v-27.03c0-1.5-1.21-2.72-2.72-2.72Z"/>
    <path class="cls-3" d="M150.12,120.37c-1.19,0-2.28.48-3.06,1.27-.78.78-1.27,1.86-1.27,3.06v14.99l-22.68-22.68,3.11-1.8v-28.66l-15.75,9.09-9.07,5.24v28.66l13.96-8.06,24.32,24.32h-14.99c-2.39,0-4.32,1.94-4.32,4.32,0,1.19.48,2.28,1.27,3.06.78.78,1.86,1.27,3.06,1.27h27.03c1.5,0,2.72-1.22,2.72-2.72v-27.03c0-2.39-1.94-4.32-4.32-4.32Z"/>
    <path class="cls-3" d="M73.78,86.55v28.66l3.11,1.8-22.68,22.68v-14.99c0-2.39-1.94-4.32-4.32-4.32-1.19,0-2.27.48-3.05,1.27-.78.78-1.27,1.86-1.27,3.06v27.03c0,1.5,1.21,2.72,2.72,2.72h27.03c2.39,0,4.32-1.94,4.32-4.32,0-1.19-.48-2.27-1.27-3.05-.78-.78-1.86-1.27-3.06-1.27h-14.99l24.32-24.32,13.96,8.06v-28.66l-9.07-5.24-15.75-9.09Z"/>
  </g>
</svg>