<?xml version="1.0" encoding="UTF-8"?>
<svg id="Layer_1" data-name="Layer 1" xmlns="http://www.w3.org/2000/svg" viewBox="0 0 200 200">
  <defs>
    <style>
      .cls-1 {
        fill: #1d252c;
      }

      .cls-2 {
        fill: #e3e3e4;
      }

      .cls-3 {
        fill: none;
        stroke: #e3e3e4;
        stroke-linecap: round;
        stroke-miterlimit: 10;
        stroke-width: 7.63px;
      }

      .cls-4 {
        fill: #db0032;
      }
    </style>
  </defs>
  <g>
    <g>
      <path class="cls-1" d="M174.35,77.07V25.29c0-2.76-2.42-5-5.41-5H36.5c-2.99,0-5.41,2.24-5.41,5v154.75c0,2.76,2.42,5,5.41,5h132.44c2.99,0,5.41-2.24,5.41-5v-102.97Z"/>
      <path class="cls-2" d="M51.68,162.57c0,2.16,1.17,3.91,2.61,3.91h14.35c1.44,0,2.61-1.75,2.61-3.91v-20.81c0-2.16-1.17-3.92-2.61-3.92h-14.35c-1.44,0-2.61,1.76-2.61,3.92v20.81Z"/>
      <path class="cls-4" d="M94.36,128.06h-14.56c-1.46,0-2.65,1.75-2.65,3.91v30.6c0,2.16,1.19,3.91,2.65,3.91h14.56c1.46,0,2.65-1.75,2.65-3.91v-30.6c0-2.16-1.19-3.91-2.65-3.91Z"/>
      <path class="cls-2" d="M121.68,108.47h-16.01c-1.61,0-2.91,1.75-2.91,3.91v50.19c0,2.16,1.3,3.91,2.91,3.91h16.01c1.61,0,2.91-1.75,2.91-3.91v-50.19c0-2.16-1.3-3.91-2.91-3.91Z"/>
      <path class="cls-4" d="M148.85,82.32h-16.01c-1.61,0-2.91,2.54-2.91,5.68v72.81c0,3.14,1.3,5.68,2.91,5.68h16.01c1.61,0,2.91-2.54,2.91-5.68v-72.81c0-3.14-1.3-5.68-2.91-5.68Z"/>
    </g>
    <polyline class="cls-3" points="52.63 113.28 76.75 80.31 103.69 85.13 151.76 39.85"/>
  </g>
  <path class="cls-4" d="M43.56,59.27c-14.55,0-26.4-11.84-26.4-26.4S29,6.48,43.56,6.48s26.4,11.84,26.4,26.4-11.84,26.4-26.4,26.4ZM43.56,23.44c-5.2,0-9.43,4.23-9.43,9.43s4.23,9.43,9.43,9.43,9.43-4.23,9.43-9.43-4.23-9.43-9.43-9.43Z"/>
</svg>