<?xml version="1.0" encoding="UTF-8"?>
<svg id="Layer_1" data-name="Layer 1" xmlns="http://www.w3.org/2000/svg" viewBox="0 0 200 200">
  <defs>
    <style>
      .cls-1 {
        fill: #db0032;
      }

      .cls-1, .cls-2, .cls-3, .cls-4, .cls-5 {
        stroke-width: 0px;
      }

      .cls-2 {
        fill: #e3e3e3;
      }

      .cls-3 {
        fill: #e3e3e4;
      }

      .cls-4 {
        fill: #a7a8a9;
      }

      .cls-5 {
        fill: #1d252c;
      }
    </style>
  </defs>
  <path class="cls-5" d="M170.21,77.56v44.91c0,11.47-9.33,20.8-20.82,20.8h-23.75c-4.56,0-8.86-2.44-10.91-6.52-2.46-4.9-7.53-8.26-13.38-8.26s-10.94,3.37-13.4,8.27c-2.05,4.07-6.35,6.51-10.91,6.51h-26.44c-11.49,0-20.8-9.33-20.8-20.8v-44.91c0-11.5,9.32-20.82,20.82-20.82h98.76c11.5,0,20.82,9.32,20.82,20.82Z"/>
  <rect class="cls-1" x="15.73" y="79.79" width="14.07" height="40.11"/>
  <rect class="cls-1" x="170.2" y="79.79" width="14.07" height="40.11"/>
  <rect class="cls-2" x="170.2" y="89.17" width="14.07" height="3.29"/>
  <rect class="cls-2" x="15.73" y="89.17" width="14.07" height="3.29"/>
  <rect class="cls-3" x="153.88" y="78.45" width="4.64" height="16.17"/>
  <rect class="cls-4" x="153.88" y="102.25" width="4.64" height="9.73"/>
</svg>