<?xml version="1.0" encoding="UTF-8"?>
<svg xmlns="http://www.w3.org/2000/svg" version="1.1" viewBox="0 0 512 512">
  <!-- Generator: Adobe Illustrator 29.6.1, SVG Export Plug-In . SVG Version: 2.1.1 Build 9)  -->
  <defs>
    <style>
      .st0 {
        fill: #00802a;
      }

      .st1 {
        fill: #4d4d4d;
      }

      .st2 {
        fill: #fff;
      }

      .st3 {
        fill: red;
      }

      .st4 {
        fill: #00732f;
      }
    </style>
  </defs>
  <g id="Layer_1" image-rendering="optimizeQuality" shape-rendering="geometricPrecision" text-rendering="geometricPrecision">
    <g>
      <path class="st1" d="M256,0C326.68,0,390.69,28.66,437.01,74.99c46.32,46.32,74.99,110.33,74.99,181.01s-28.66,134.69-74.99,181.01c-46.32,46.32-110.33,74.99-181.01,74.99s-134.69-28.66-181.01-74.99C28.66,390.69,0,326.68,0,256S28.66,121.31,74.99,74.99C121.31,28.66,185.32,0,256,0Z"/>
      <path class="st2" d="M256,19.6c65.28,0,124.38,26.47,167.16,69.24,42.78,42.78,69.24,101.88,69.24,167.16s-26.47,124.38-69.25,167.16c-42.78,42.78-101.88,69.25-167.16,69.25s-124.38-26.47-167.16-69.24c-42.78-42.78-69.24-101.89-69.24-167.16s26.47-124.38,69.24-167.16c42.78-42.78,101.88-69.24,167.16-69.24h0Z"/>
      <path class="st4" d="M458.66,179.96H53.35c30.78-82.01,109.9-140.37,202.66-140.37s171.87,58.36,202.66,140.37h0Z"/>
      <path d="M51.47,326.83h409.07c-29.34,84.73-109.83,145.57-204.53,145.57s-175.19-60.85-204.53-145.57h0Z"/>
      <path class="st3" d="M162.9,60.6v390.81c-72.92-34.81-123.31-109.22-123.31-195.4S89.98,95.4,162.9,60.6Z"/>
    </g>
    <g id="circle">
      <path class="st0" d="M255.81,39.59c-119.43,0-216.22,96.9-216.22,216.41,0,.58,0,1.13.03,1.7.9,118.73,97.33,214.7,216.19,214.7s215.26-95.97,216.15-214.7c.03-.58.03-1.13.03-1.7,0-119.5-96.79-216.41-216.19-216.41Z"/>
      <g>
        <path class="st2" d="M373.89,213.99c-.53,1.04-1.15,2.01-2.06,2.73-3.33,2.65-6.96,4.77-10.59,6.97-.09.05-.17.1-.26.16-.93.58-4.37,3.42-5.58,2.9-1.43-.61-1.19-2.63-.9-3.84.45-1.87,1.57-3.37,3-4.64.03-.03.06-.05.09-.08,1.13-.99,2.4-1.81,3.67-2.62,1.39-.9,2.78-1.79,4.17-2.69,1.28-.83,2.62-1.56,3.87-2.45.54-.38,3.26-2.94,3.94-2.81.98.19,1.18,1.76,1.26,2.54.12,1.14-.05,2.72-.61,3.82Z"/>
        <path class="st2" d="M286.75,263.81c-.57.26-1.3.37-1.81.55-1.94.71-3.88,1.41-5.82,2.12-1.67.61-3.43,1.46-5.26,1.05-1.2-.27-2.05-1.44-1.99-2.65.06-1.28.79-2.5-.55-3.4-.92-.62-2.25.78-2.83.32-2.41-1.9-.44-3.41,1.64-5.18,1.24-1.05,3.63-3.22,5.38-1.77,1.93,1.6-1.6,5.02.32,6.95,1.64,1.64,4.63-.67,6.31-1.19,1.47-.45,4.01-1.21,5.05.3.36.52.58,1.5.38,2.1-.12.38-.43.62-.81.8Z"/>
        <path class="st2" d="M375.26,233.28c-.22,1.73-.67,3.43-1.35,5.03-.38.9-1.03,1.99-1.81,2.61-.27.21-.65.32-.96.17-.37-.18-.52-.64-.54-1.05-.05-1.02-.15-1.99-.08-3.01.09-1.19.27-2.41.05-3.6-.45-2.47-2.45-5.65-3.03-8.1-.42-1.79.41-6.24,3.58-4.97,1.37.55,2.5,3,3.06,4.26.75,1.7,1.17,3.55,1.23,5.42.03,1.08-.02,2.17-.16,3.25Z"/>
        <path class="st2" d="M397.95,269.09c-.19.18-.4.34-.6.49-2.38,1.78-5.15,2.86-8.05,3.41-.58.11-1.17.2-1.76.12-.58-.08-1.17-.34-1.51-.82-1.58-2.2,3.38-3.96,3.86-5.76.92-3.47-3.05-2.45-2.94-5.46.11-3.15,5.06-2.76,6.88-1.59.42.27.77.65.99,1.1.27.54.35,1.18.23,1.77-.13.66-.6.94-.89,1.51-.19.36-.25.82-.07,1.18.22.45.74.65,1.21.79.8.24,1.5-.09,2.33.02,1,.13,1.34,1.55.98,2.34-.16.34-.4.64-.68.89Z"/>
        <path class="st2" d="M426.1,249.97c-.15,6.41-2.26,13.04-6.79,17.77-4.38,4.58-11.29,6.84-17.5,7.46-1.88.19-5.56.36-5.71-2.33-.17-3.08,5.82-5.57,7.99-6.62,3.97-1.91,7.54-4.37,10.31-7.82,5.22-6.52,4.53-14.07,4.37-21.86-.3-14.53-2.64-28.92-4.06-43.36-.5-5.13-1.41-10.24-2.13-15.37-.74-5.31-2.21-10.96-1.22-16.33.26-1.4,1.02-7.78,3.65-5.47,3.02,2.65,4.8,6.27,7.02,9.59.93,1.45,4.04,4.67,3.12,6.55-.69,1.41-2.57.27-3.29.99-1.17,1.19-.61,2.52-.41,4.15,1.09,9.03,2.74,17.97,3.58,27.04.87,9.35,1.27,18.75,1.23,28.14-.03,5.82-.02,11.64-.16,17.47Z"/>
        <path class="st2" d="M409.32,179.2c-.32,2.32-3.59,13.3-3.89,5.56-.12-3.11.48-5.53-1.14-8.32-1.26-2.15-2.89-4.14-2.94-6.76-.02-1.06.37-2.18,1.24-2.77,4.95-3.39,7.1,9.65,6.73,12.29Z"/>
        <path class="st2" d="M416.26,252.7c-3.74-6.72-7.68-13.33-11.76-19.85.01,5.22.91,10.77-1.78,15.44-.37.64-5.32,7.8-6.24,6.85-.82-.85-.35-2.75-.32-3.8.07-2.39.39-4.83.37-7.21-.05-4.45-.22-8.91-.47-13.35-.24-4.2.16-8.58-1.21-12.63-1.49-4.38-5.16-7.7-7.78-11.4.54.77.12,3.75.16,4.74.06,1.68.13,3.36.2,5.04.13,3.28.18,6.56.28,9.83.22,6.84.45,13.71-.65,20.5-.49,3.03-1.26,6.08-2.93,8.65-2.54,3.92-7.31,6.12-11.86,4.73-2.84-.87-5.45-2.48-7.47-4.66-.77-.83-1.45-1.73-2.33-2.44-.88-.71-2-1.2-3.11-1.03-2.01.31-3.05,2.52-3.7,4.45-.96,2.87-1.81,5.78-2.53,8.72-.53,2.16-.94,4.3-2.25,6.15-2.64,3.72-6.85,1.93-9.96-.23-4.25-2.97-7.02-7.79-8.03-12.84-.63-3.13-.75-6.46-.18-9.6.6-3.3,3.07-5.55,3.8-8.46-1.1,5.75-.61,12.28,1.92,17.58,1.37,2.88,4.17,6.58,7.66,4.29,2.53-1.66,3.8-7.54,4.96-10.2,1.8-4.15,7.15-17.82,13.47-11.76,2.77,2.65,4.13,9.3,8.71,9.44,5.78.18,6.08-11.68,6.11-15.49.08-10.41-1.23-21.13-1.84-31.54-.32-5.45-.67-9.84-.67-9.84-3.24-4.26-9.39-12.25-12.73-16.43-1.51-1.88-3.2-3.57-4.31-5.74-1.53-3-1.78-6.12-1.77-9.43,0-1.38.04-2.78.27-4.14.11-.65.25-1.93.97-2.23,1.2-.5,3.74,1.84,4.54,2.47,2.01,1.58,3.93,3.49,5.65,5.39.76.85,1.52,1.79,2.16,2.75.32.47.96,1.32.77,1.94-.34,1.13-2.11.39-2.32,1.01-.65,1.89,2.32,4.01,3.46,5.44-.76-3.97-2.15-10.46-1.36-14.45.98-4.91,3.37-5.92,5.96-2.02,2.5,3.78,4.9,8.29,6.72,12.43.38.86,2.3,3.59.77,4.68-.89.63-3.2-1.08-3.24-.62-.25,3.12.54,11.66,1.34,14.28.71,2.33,6.22,9.07,9.53,13.99-1.35-10.1-3-20.16-4.86-30.17-.49-2.63-5.54-17.41,3.8-17.41,2.58,0,6.58,12.15,7.63,15.55.38,1.23,1.7,4.11,1.08,5.44-1.05,2.22-2.47-.3-3.23,2.29-.65,2.24,1.01,7.41,1.45,9.68.8,4.1,1.47,8.22,2.14,12.34,1.11,6.82.52,15.07,4.49,20.73,3.81,5.44,9.45,11.62,11.31,18.06.71,2.45,2.15,12.52-.79,14.08Z"/>
        <path class="st2" d="M368.66,193.88c-.02,1.04-2.32-.08-2.78.05-3.01.8-1.8,13.81-2.12,13.81-4.06-.07-8.6-5.06-10.94-7.95-1.11-1.36-1.81-3.77-1.9-5.5-.07-1.41.41-2.93,1.57-3.74,1.29-.9,3.4-.61,4.31.72.74,1.09.71,2.61,2.49,1.97,1.91-.69-.63-4.71.96-6.05,6.8-5.71,8.12,3.22,8.41,6.7Z"/>
        <path class="st2" d="M347.21,244.62c-.05.42-.11.84-.17,1.26-.52,3.24-2.44,10.72-6.68,10.69.39,0-.22-16.84-.31-18.38-.37-6.21-1.09-12.43-1.9-18.6-1.62-12.32-4.01-24.53-6.37-36.73-.01-.06-.02-.12-.03-.17-.81-4.2-1.77-8.28-1.81-12.6-.02-2.36.16-4.72.53-7.05.35-2.16.62-4.87,1.99-6.64.3-.39.74-.76,1.23-.71.52.06.86.56,1.13,1.01,3.23,5.46,6.34,10.98,9.35,16.56.24.45.5.95.43,1.46-.11.85-1.35.79-1.99.8-.67.01-1.35-.03-2.01.14-.5.13-.58.27-.61.75-.05.98.05,2.01.17,2.98,1.14,9.13,3.08,18.01,4.34,26.99,1.35,9.61,2.27,19.27,2.77,28.96.16,3.09.27,6.21-.08,9.28Z"/>
        <path class="st2" d="M329.02,245.06c-.34,4.6-1.84,9.06-4.08,13.11-3.9,7.05-11,14.55-19.3,15.89-2.99.48-6.23-.02-8.12-2.77-2.17-3.16-.22-3.12,2.72-4.57,7.17-3.55,13.78-8.94,19.24-14.76,1.54-1.64,2.77-4.12,3.1-6.35.21-1.43-.16-3.14-.25-4.58-.1-1.57-.21-3.14-.33-4.71-.82-11.04-1.93-22.07-2.91-33.1-.42-4.66-.87-9.32-1.38-13.97-.24-2.18-.52-4.37-.62-6.55-.11-2.27-.78-4.61-1.07-6.88-.19-1.48-.34-2.96-.42-4.44-.17-2.87-.24-5.8.31-8.64.27-1.42.71-2.82,1.41-4.09.46-.83,1.54-2.99,2.75-2.53.57.22.93.78,1.24,1.31,1.59,2.72,2.88,5.58,4.01,8.51.54,1.4,1.05,2.82,1.47,4.26.23.77.57,1.68.52,2.5-.19,2.84-1.9,1.56-3.2,3.31-1.76,2.39.7,9.13,1.17,11.81,2.15,12.25,3.28,24.67,3.69,37.1.21,6.22.23,12.44.11,18.66-.01.5-.03.99-.07,1.49Z"/>
        <path class="st2" d="M313.73,187.05c.16,1.77-.59,3.42-1.97,4.52-1.38,1.1-3.19,1.62-4.94,1.61-.89,0-1.78-.15-2.61-.47-.41-.16-.91-.33-1.26-.59-.51-.39-.95-.86-1.32-1.38-.29-.41-.53-.85-.71-1.31-.47-1.18-.58-2.51-.3-3.75.15-.69.51-1.9,1.22-2.19.58-.24,1.51-.29,1.76.44.09.25.05.53.07.8.04.62.51,1.56,1.22,1.59,1.52.06.48-2.85,2.27-2.88,1.67-.03.53,3.47,2.77,3.19.66-.08.1-2.37.7-2.81,2.39-1.73,2.84.43,3.09,3.23Z"/>
        <path class="st2" d="M249.76,206.31c.16,1.77-.59,3.42-1.97,4.52-1.38,1.1-3.19,1.62-4.94,1.61-.89,0-1.78-.15-2.61-.47-.41-.15-.91-.33-1.26-.59-.51-.39-.95-.86-1.32-1.38-.29-.41-.53-.85-.71-1.31-.47-1.18-.58-2.51-.3-3.75.15-.69.51-1.9,1.22-2.19.58-.24,1.51-.29,1.76.44.09.25.05.53.07.8.04.62.51,1.56,1.22,1.59,1.52.06.48-2.85,2.27-2.88,1.67-.03.53,3.47,2.77,3.19.66-.08.09-2.37.7-2.81,2.39-1.73,2.84.43,3.09,3.23Z"/>
        <path class="st2" d="M139.46,159.53c.16,1.77-.59,3.42-1.97,4.52-1.38,1.1-3.19,1.62-4.94,1.61-.89,0-1.78-.15-2.61-.47-.41-.16-.91-.33-1.26-.59-.51-.39-.95-.86-1.32-1.38-.29-.41-.53-.85-.71-1.31-.47-1.18-.58-2.51-.3-3.75.15-.69.51-1.9,1.22-2.19.58-.24,1.51-.29,1.76.44.09.26.05.53.07.8.04.62.51,1.56,1.22,1.59,1.52.06.48-2.85,2.27-2.88,1.67-.03.53,3.47,2.77,3.19.66-.08.1-2.37.7-2.81,2.39-1.73,2.84.43,3.09,3.23Z"/>
        <path class="st2" d="M309.85,168.47c-.34,2.06-3.16,11.46-4.05,5.92-.35-2.17.61-4-.28-6.28-.78-1.98-2.54-3.35-3.52-5.19-.46-.86-.8-1.92-.91-2.89-.1-.9.07-1.87.65-2.56.8-.96,2.05-.85,3.14-.57,3.69.93,5.72,8.33,4.97,11.56Z"/>
        <path class="st2" d="M102.48,164.69c-.29,1.79-2.74,9.94-3.51,5.14-.3-1.88.53-3.47-.24-5.45-.67-1.71-2.21-2.91-3.06-4.5-.4-.74-.69-1.67-.79-2.5-.09-.78.06-1.62.56-2.22.7-.83,1.78-.74,2.73-.5,3.2.81,4.96,7.23,4.31,10.03Z"/>
        <path class="st2" d="M180.64,238.52c-.27,1.67-2.56,9.27-3.28,4.79-.28-1.75.5-3.24-.23-5.08-.63-1.6-2.06-2.71-2.85-4.2-.37-.69-.65-1.56-.73-2.34-.08-.73.05-1.51.53-2.07.65-.78,1.66-.69,2.55-.46,2.99.76,4.63,6.74,4.02,9.36Z"/>
        <path class="st2" d="M319.26,230.94c-1.24-1.68-1.99-4.15-2.9-6.03-1-2.06-2.18-4.06-3.32-6.07-1.44-3.6-4.01-7.07-5.92-10.44-1.89-3.33-4.06-6.52-6.17-9.73-2.47-3.75-3.35-5.96-3.8-10.45-.17-1.68-.37-3.35-.58-5.02-.19-1.54-.15-3.4-.66-4.86-.18-.5-.37-1.04-.27-1.56.1-.53.61-1.02,1.13-.87.44.12.69.64,1.13.75.45.11.66-.73.54-1.18-2.11-8.13-4.9-11.76-8.34-16.59-1.6-2.25-2.24-4.84-4.69-3.65-2.82,1.38-2.6,7.53-2.18,10.05-.09-.52-1.01-1.33-1.33-1.73-.6-.72-1.18-1.49-1.85-2.14-2.28-2.24-12.24-12.64-14.12-4.87-.95,3.91.66,7.61,2.89,10.76,4.62,6.53,9.48,12.88,14.05,19.45,1.77,2.55,4.15,5.22,5.47,8.03,1.34,2.85,1.39,6.35,1.74,9.53.49,4.49,3.11,56.94,1.34,56.87,14,.54,7.96-41.47,7.51-49.81,7.14,11.67,13.77,23.64,19.89,35.87,3.08-1.46,2.16-14,.46-16.31ZM282.55,172.4c-3.65-3.8,1.59-2.88,1.59-2.88,0,0,.96,4.64,1.43,6.88-.96-1.33-1.92-2.78-3.02-4Z"/>
        <path class="st2" d="M233.74,155.43c-.19,3.16-.37,8.21-2.31,10.79-.83,1.11-2.5,2.79-3.56.92-.29-.5-.38-1.09-.43-1.67-.34-3.48.4-7.04,2.06-10.11.51-.95,1.27-2.48,2.57-2.5,1.2-.02,1.53,1.69,1.68,2.57Z"/>
        <path class="st2" d="M277.37,184.28c-.89,2.46-2.03,5.17-3.74,7.17-.79.93-1.97,2.47-3.31,2.56-3.8.24-2.51-1.42-2.02-3.45.22-.9.91-2.73-2.16-1.58-1.29.49-1.84,2.07-2.51,3.13-2.42,3.81-3.5,6.04-8.39,6.44-4.11.34-5.55-1.11-8.02-4.04-.86-1.03-1.95-2.48-3.37-2.7-1.45-.23-2.72.87-3.77,1.73-2.48,2.02-4.53,4.7-7.56,5.95-2.11.87-4.56.9-6.69.09-7.55-2.88-7.02-12.63-7.49-19.22-.04-.62-.29-1.43-.91-1.4-.36.02-.62.35-.81.66-1.22,2-1.68,4.36-2.11,6.67-.42,2.31-.85,4.67-2.03,6.69-1.18,2.03-3.27,3.69-5.61,3.67-1.38-.01-2.7-.6-3.78-1.46-2.19-1.74-3.42-3.84-4.35-6.47-2.3-6.48-3.06-13.56-1.97-20.37.17-1.09.18-2.83,1.1-3.56.86-.67,1.98.28,2.35,1.06.26.55.36,1.16.45,1.77.59,3.85,1.18,7.7,1.77,11.55.32,2.08.34,8.1,4.11,7.09,2.08-.55,2.17-3.72,2.67-5.39,1.26-4.2,6.24-21.98,13.3-19.43,3.15,1.14,3.21,5.72,3.19,8.46-.03,3.87-.84,7.75-.72,11.6.06,2.05,1.04,4.09,2.66,5.36,2.03,1.59,4.96,1.92,7.29.82,1.91-.9,3.33-2.66,4.12-4.61,3.63-8.93-4.96-18.04-.77-26.78,5.28-11.01,7.57,6.45,7.77,11.07.22,5.09-.99,17.55,4.74,20.33,2.2,1.07,5.58-.35,6.66-2.53,1.97-3.95-1.47-10.4-3.32-13.79-1.72-3.15-3.13-6.35-2.85-10.04.16-2.13,1.07-4.3,2.81-5.54,2.97-2.1,6.44-.1,8.41,2.38,2.04,2.57,5.45,7.13,1.77,9.34-1.32.79-2.15-.96-2.98.9-.34.75.12,1.81.42,2.5.42.93.61,1.73.8,2.75.42,2.21.98,4.4,1.67,6.54.51,1.59,1.23,3.3,2.73,4.03,1.14.55,2.51.4,3.7-.03,1.19-.42,2.29-1.09,3.46-1.58.6-.25,1.25-.46,1.9-.38,1.23.14,1.47.99,1.41,2.05Z"/>
        <path class="st2" d="M211.11,153.98c-1.09,1.44-3.92,3.79-3.25,6.25.53,1.97,2.7.32,2.98.75,1.13,1.76-2.78,5.62-5.39,4.46-2.22-.98-2.04-3.62-1.62-5.63.52-2.48,1.87-4.54,3.68-6.27.7-.67,2.72-2.98,3.33-1.21.14.42.29,1.21.28,1.65Z"/>
        <path class="st2" d="M191.92,190.8c-.93,2.94-2.27,5.63-5.46,6.16-1.57.26-3.48,0-4.5-1.3-1.13-1.45-1.72-3.34-1.56-5.17.2-2.28,1.54-4.43,3.5-5.61.52-.31,1.12-.57,1.72-.44,1.41.31.83,2.15.55,3.08-.33,1.12-.96,2.61-.26,3.72,2.11,3.35,4.02-2.08,6.02-.43Z"/>
        <path class="st2" d="M191.57,165.38c6.81-3.96-1.92-13.86-7.67-7.95-2.03,2.09-2.31,5.63-.57,7.95,2.18,2.93,3.65,1.9,1.17,5.25-1.73,2.34-19.36,14.34-18.78,16,.52,1.47,10.14.94,12.13-.89,2.16-2,4.7-4.06,6.76-6.16,3.3-3.36,6.03-6.86,9.13-10.39-1-.85-3.82-2.22-2.17-3.8ZM189.01,165.39c-2.02.49-4.21-3.99-1.91-4.45,1.87-.37,4.11,3.89,1.91,4.45Z"/>
        <path class="st2" d="M289.8,230.38c-1.67-1.48-4.01-.98-6.06-.99-4.8-.02-9.6-.04-14.4-.07-2.56-.01-5.12.33-7.68.38-1.22.03-6.57.58-7.15-1.05-.36-1,1.89-1.16,2.53-1.34,1.46-.41,3.72-.44,5.18-.85,3.66-1.22,6.88-1.91,9.99-4.32,4.33-3.36,6.58-8.72,5.61-14.18-1.13-6.29-7.97-11.65-14.41-8.92-3.2,1.36-5.09,3.86-5.76,7.23-.32,1.6-.5,3.27-.63,4.88-.15,1.9-.22,3.95-1.72,5.35-1.19,1.1-2.92,1.36-4.54,1.51-4.84.44-9.9,2.87-13.99,5.45-1.98,1.25-4.35,2.85-5.66,4.86-.23.35-1.15,2.82-1.33,2.88-2.06.78-3.53-13.9-3.98-15.66-.97-3.74-4.37-17.93-9.19-18.05-3.27-.08-4.4,6.47-4.05,8.63.79,5.02,4.03,9.89,5.65,14.65,3.24,9.48,3.93,18.72-2.21,26.95-4.27,5.73-13.61,16.22-21.72,14.36-2.03-.46-5.12-2.34-4.45-5,.41-1.65,3.2-2.67,4.57-3.62,5.99-4.16,11.16-9.08,14.5-15.68,3.52-6.94,3.96-17.8-1.83-23.81,3.81.57,5.47,2,3.54-2.98-.88-2.27-2.07-4.51-3.69-6.33-1.5-1.67-3.57-3.08-5.92-2.49-1.84.46-3.32,1.94-4.05,3.69-1.03,2.46-.84,5.84.33,8.22,1.8,3.66,5.86,5.4,7.02,9.67,1.68,6.22-2.72,9.96-6.89,13.69-1.62,1.45-6.72,5.63-8.75,7.17,0-3.06.58-6.19.58-9.23-2.66,0-4.72,7.24-5.28,9.11-.36,1.17-.49,3.37-1.18,4.4-1.28,1.93-3.71,3.04-5.67,4.11-2.39,1.31-4.77,2.72-7.12,4.11-5.08,3.02-10.01,6.3-14.75,9.83-.57.42-1.14.85-1.7,1.28-.77.59-1.61,1.33-1.58,2.3.12,3.81,11.96-1.71,13.82-2.39,3.18-1.16,6.33-2.4,9.46-3.68.92-.38,5.07-2.87,6.01-2.54.52.18,1.43,3.55,1.59,3.85,1.08,2.01,2.81,3.73,4.73,4.93,5.05,3.16,10.88,2.81,16.06.29,4.7-2.28,8.85-5.61,12.38-9.43,1.77-1.92,3.38-3.97,4.84-6.14.97-1.44,3.49-4.21,5.49-3.23.88.43,2.32,3.98,3.1,4.93,1.32,1.6,2.96,2.91,4.54,4.26,8.33,7.12,24.42,8.2,24.42,8.2,0,0,2.53-1.6,2.63-4.89.1-3.24-3.61-3.87-6.03-5.12-6.24-3.24-5.78-7.98-1.83-9.96,5.53-2.78,10.6-1.44,20.26-3.76,1.97-.47,10.05-1.22,11.35-2.93,1.18-1.55,1.19-5.86,2.11-7.89.41-.89,3.17-3.95,2.94-4.65ZM262.84,210.31c.7-2.57,6.62.66,5.71,2.61-1.15,2.47-5.71-.46-5.71-2.61ZM249.8,243.01c-3.07,1.05-5.85,2.02-6.72,5.48-.37,1.48,1.13,5.48-.32,6.31-2.03,1.16-6.13-2.78-7.5-4.15-2.97-2.97-8.79-14.42-1.21-13.67,2.45.24,8.1,1.02,11.61,1.39,1.63.17,10.01,2.57,4.14,4.65Z"/>
        <path class="st2" d="M93.2,271.8c-6.89,2.01-8.01-6.69-7.85-11.18.1-2.85.53-11.75,5.94-17.44.3,2.24-3.15,19.1.49,19.69,1.75.28,3.73-6.68,5.5-1.37.96,2.89-1.29,9.09-4.08,10.3Z"/>
        <path class="st2" d="M117.57,217.17c-9.48,4.64-19.02,9.14-28.54,13.71.11-.06.59-2.74.73-3.09.46-1.13,1.11-2.18,1.83-3.16,1.34-1.82,3.06-3.46,4.77-4.93,3.62-3.1,7.92-5.41,12.52-6.69,1.68-.47,3.69-.79,5.35-.06,1.87.83,2.28,2.64,3.33,4.21Z"/>
        <path class="st2" d="M187.49,206.37c-1.48,1.43-.35,5.87-2.43,5.69-1.62.24-2.41-4.44-4.2-4.99-1.79-.55-3.13.95-4.39,2.34-1.63,1.79-2.44,5.03-4.87,4.97-1.51-.04-1.97-.11-2.57-1.5-.6-1.39-.11-4.1-1.35-4.97-1.24-.87-4.3.57-4.97,1.02-1.52-10.66-3.04-21.33-4.57-31.99,2.2.39,4.82.92,5.25-1.27.23-1.18-2.49-7.45-3.29-9.54-1.07-2.79-2.3-6.72-4.55-8.68-1.69-1.47-4.27-.49-6.34,1.53-1.6,1.56-1.32,4.64-.91,6.84,2.51,13.76,4.26,27.19,6.77,40.95.44,2.42,1.14,6.48-1.15,7.39-1.53.61-3.14-.82-4.29-1.99-1.15-1.17-1.99-2.65-3.28-3.67-2.47-1.94-6.17-1.72-8.85-.08-2.68,1.64-4.45,4.45-5.61,7.37-1.41,3.56-2.23,8.37-.49,11.79,1.74,3.41,6.11,3.42,9.86,2.69,2.55-.5,4.09-3.98,5.98-3.09,1.1.52.39,2.17.08,3.35-.31,1.18-.63,2.54-1.43,3.46-3.02,3.48-6.11,7.01-10,9.48-3.89,2.47-7.92,4.29-12.32,2.89-4.39-1.4-8.32-6.18-7.45-10.71.31-1.59.27-3.17.29-4.78.01-1.62-.96-5.23-2.58-5.27-1.06-.02-1.82.59-2.38,3.69-1,5.51-3.24,12.82-.13,18.53,3.11,5.71,9.44,9.52,15.94,9.58,7.21.07,13.96-4.22,18.33-9.97,2.41-3.18,4.2-6.79,5.57-10.53.69-1.9,1.28-3.85,1.8-5.81.25-.96.49-1.92.71-2.89.17-.75.17-1.83.82-2.36.54-.44,1.37-.18,1.78.33.9,1.11.35,3.47.16,4.73-.23,1.54-.58,3.06-.88,4.58-1.75,8.91-6.36,17.22-14.06,22.26-10.72,7.02-29.66,8.01-31.99-7.72-.39-2.66.32-13.25-4.21-10.4-3.66,2.31-2.72,14.68-2.1,18.35,1.32,7.73,6.7,13.09,14.35,14.62,6.57,1.31,13.46.36,19.7-1.98,6.43-2.41,12.35-6.32,16.97-11.41,2.26-2.48,4.45-5.36,5.75-8.45,1.62-3.85,2.64-7.95,3.03-12.11.27-2.8.25-5.62-.05-8.41-.15-1.35-.6-2.77-.64-4.12-.02-.82-.06-2.22.73-2.72,2.24,2.52,4.39,2.63,7.14,2.24,3.43-.49,4.94-4.03,7.71-4.12,1.96-.06,2.57,1.86,6.11,1.86,3.93,0,6.62-1.36,7.39-6.62.68-4.64,1.8-8.67,1.31-12.57-1.73.3-3.96.95-5.22,2.17ZM142.62,221.23c-1.42,1.24-8.59.71-3.96-3.63,2.59-2.43,6.4.98,3.96,3.63Z"/>
        <path class="st2" d="M150.02,193.54c.45,5.62-6.66,9.81-11.38,10.43-1.47.19-3.06-.02-4.35-.78-1.58-.92-2.66-2.56-4.51-3.05-.62-.16-1.31-.16-1.9.1-.68.3-1.19.92-1.5,1.6-1.33,2.89-.98,6.71-.78,9.79.2,3.05.6,6.07.93,9.1.09.8.2,1.62.18,2.43-.06,2.49-.23,15.98-6.57,16.25-1.49.06-1.23-22.61-1.65-26.48-.68-6.28-3.88-3.73-8.17-6.04-3.33-1.79-3.91-4.69-4.07-8.17-.2-4.35.65-12.31,0-15.64-.67-3.46-2.83-.04-3.44,2.09-.87,3.04-.81,6.56-.58,9.68.4,5.67-3.3,13.74-9.94,8.52-5.94-4.67-5.12-16.2-4.9-22.83.04-1.31-.47-8.42,1.72-7.43,2.05.92,2.41,8.06,2.76,9.91.38,2.02,1.01,9.85,3.21,10.64,3.7,1.32,3.64-5.65,4.11-8.02.68-3.46,5.01-21.77,11.53-15.11,4.24,4.34-1.41,19.59,2.79,23.49,3.13,2.91,3.13-1.39,3.09-4.18-.09-6.03-1.9-12.18-3.06-18.05-.56-2.83-2.81-17.03,3.23-14.93,3.56,1.24,3.95,8.24,4.33,11.15.57,4.37.5,8.76,1,13.14.15,1.33,2.55,13.63,4.96,8.11.49-1.12-1.94-4.62-2.37-5.81-.89-2.45-1.47-4.95-1.7-7.56-.32-3.65.15-14.09,5.72-8.78,2.37,2.26,3.64,6.6,4.16,9.82.73,4.54-1.89,8.33,1.67,11.7,2.42,2.29,8.31,7.28,8.85,1.45.56-6.02-5.87-11.46-6.84-17.42-.24-1.48-.26-3.11.14-4.56.28-1.02.81-1.99,1.62-2.65.82-.68,1.92-1.01,2.98-.91,1.74.16,3.47,1.69,4.61,2.93,1.33,1.45,2.44,3.25,2.86,5.19.47,2.13-.72,5.22-2.85,1.88-.51,1.52,1.75,6.02,2.15,7.32,1.19,3.78,1.64,7.73,1.96,11.67Z"/>
        <path class="st2" d="M384.41,347.43c-.39-4.6-2.49-10.05-7.29-11.57-4.12-1.3-8.5.62-12.67.74-2.66.07-5.32-.13-7.97-.39-2.55-.25-5.11-.39-7.67-.61-.51-.04-1.02-.09-1.52-.15-.24-.03.24-2.84.24-3.1,0-.98-.21-2.47-.99-3.14-.85-.74-2.15-.69-3.19-.56l-1.03-3.54c-7.08,1.14-4.23,10.05-4.23,10.05l-206.63-2.67c.31.55.62,1.07.95,1.56.9,1.4,1.85,2.63,2.86,3.72.04.04.06.07.1.11,2.89,3.01,6.21,5.03,9.94,6.38.02,0,.05.02.06.03,4.81,1.65,9.87,1.97,14.49,2.46,1.11.05,2.26.08,3.42.1,25.38,0,143.01-.31,176.49-.31-.08.15-.16.3-.24.47-.96,2.15-.74,4.9-.2,7.17.47,1.98,2.18,5.98,4.88,4.73.92-.42,1.51-1.34,2.03-2.17,0,0,25.7-.05,25.71-.06,2.21,3.28,6.18,4.93,9.78,2.47,3.85-2.62,3-7.72,2.66-11.72ZM371.01,352.19l-7.52-.24h-.44c0-.15-.02-.29-.06-.41-.32-.96-1.66-1.4-3.05-1.42-.64,0-1.16.06-1.58.16-.15.04-.29.08-.43.13-.08.02-.36.13-.42.16-.08.03-.16.07-.22.11-.63.38-.83.83-.9,1.11-.03.14-6.99.11-10.65-.03h0c-.17-.17-2.33-2.28.6-5.64l24.27.38s2.74,2.98.38,5.68Z"/>
      </g>
    </g>
  </g>
</svg>