<?xml version="1.0" encoding="utf-8"?>
<!-- Generator: Adobe Illustrator 26.2.1, SVG Export Plug-In . SVG Version: 6.00 Build 0)  -->
<svg version="1.1" id="livetype" xmlns="http://www.w3.org/2000/svg" xmlns:xlink="http://www.w3.org/1999/xlink" x="0px" y="0px"
	 viewBox="0 0 119.7 40" style="enable-background:new 0 0 119.7 40;" xml:space="preserve">
<style type="text/css">
	.st0{fill:#A6A6A6;}
	.st1{fill:#FFFFFF;stroke:#FFFFFF;stroke-width:0.2;stroke-miterlimit:10;}
	.st2{fill:#FFFFFF;}
	.st3{fill:url(#SVGID_1_);}
	.st4{fill:url(#SVGID_00000098181954068357614000000018383812370678948774_);}
	.st5{fill:url(#SVGID_00000028322114152585605810000018321485163074500539_);}
	.st6{fill:url(#SVGID_00000137844921356562933190000001578075890530296724_);}
	.st7{opacity:0.2;enable-background:new    ;}
	.st8{opacity:0.12;enable-background:new    ;}
	.st9{opacity:0.25;fill:#FFFFFF;enable-background:new    ;}
</style>
<g>
	<g>
		<g>
			<path class="st0" d="M110.1,0H9.5C9.2,0,8.8,0,8.4,0C8.1,0,7.8,0,7.5,0c-0.7,0-1.3,0.1-2,0.2C4.9,0.3,4.2,0.5,3.6,0.8
				C3,1.1,2.5,1.5,2,2C1.5,2.5,1.1,3,0.8,3.6C0.5,4.2,0.3,4.9,0.2,5.5C0.1,6.2,0,6.9,0,7.5c0,0.3,0,0.6,0,0.9v23.1
				c0,0.3,0,0.6,0,0.9c0,0.7,0.1,1.3,0.2,2c0.1,0.7,0.3,1.3,0.6,1.9C1.1,37,1.5,37.5,2,38c0.5,0.5,1,0.9,1.6,1.2
				c0.6,0.3,1.2,0.5,1.9,0.6c0.7,0.1,1.3,0.2,2,0.2c0.3,0,0.6,0,0.9,0c0.4,0,0.7,0,1.1,0h100.6c0.4,0,0.7,0,1.1,0c0.3,0,0.6,0,0.9,0
				c0.7,0,1.3-0.1,2-0.2c0.7-0.1,1.3-0.3,1.9-0.6c0.6-0.3,1.1-0.7,1.6-1.2c0.5-0.5,0.9-1,1.2-1.6c0.3-0.6,0.5-1.2,0.6-1.9
				c0.1-0.7,0.2-1.3,0.2-2c0-0.3,0-0.6,0-0.9c0-0.4,0-0.7,0-1.1V9.5c0-0.4,0-0.7,0-1.1c0-0.3,0-0.6,0-0.9c0-0.7-0.1-1.3-0.2-2
				c-0.1-0.7-0.3-1.3-0.6-1.9c-0.6-1.2-1.6-2.2-2.8-2.8c-0.6-0.3-1.2-0.5-1.9-0.6c-0.7-0.1-1.3-0.2-2-0.2c-0.3,0-0.6,0-0.9,0
				C110.9,0,110.5,0,110.1,0L110.1,0z"/>
			<path d="M8.4,39.1c-0.3,0-0.6,0-0.9,0c-0.6,0-1.3-0.1-1.9-0.2c-0.6-0.1-1.1-0.3-1.7-0.5c-0.5-0.3-1-0.6-1.4-1
				c-0.4-0.4-0.8-0.9-1-1.4c-0.3-0.5-0.4-1.1-0.5-1.7c-0.1-0.6-0.2-1.2-0.2-1.9c0-0.2,0-0.9,0-0.9V8.4c0,0,0-0.7,0-0.9
				c0-0.6,0.1-1.3,0.2-1.9C1.1,5.1,1.3,4.5,1.6,4c0.3-0.5,0.6-1,1-1.4C3,2.2,3.5,1.9,4,1.6c0.5-0.3,1.1-0.4,1.7-0.5
				c0.6-0.1,1.2-0.2,1.9-0.2l0.9,0h102.8l0.9,0c0.6,0,1.2,0.1,1.9,0.2c0.6,0.1,1.1,0.3,1.7,0.5c1,0.5,1.9,1.4,2.4,2.4
				c0.3,0.5,0.4,1.1,0.5,1.6c0.1,0.6,0.2,1.3,0.2,1.9c0,0.3,0,0.6,0,0.9c0,0.4,0,0.7,0,1.1v20.9c0,0.4,0,0.7,0,1.1
				c0,0.3,0,0.6,0,0.9c0,0.6-0.1,1.2-0.2,1.9c-0.1,0.6-0.3,1.1-0.5,1.7c-0.3,0.5-0.6,1-1,1.4c-0.4,0.4-0.9,0.8-1.4,1
				c-0.5,0.3-1.1,0.5-1.7,0.5c-0.6,0.1-1.2,0.2-1.9,0.2c-0.3,0-0.6,0-0.9,0l-1.1,0L8.4,39.1z"/>
		</g>
	</g>
	<g>
		<g>
			<path class="st1" d="M43.8,11.2c0,0.7-0.2,1.3-0.6,1.7c-0.5,0.5-1.1,0.8-1.9,0.8c-0.7,0-1.4-0.3-1.9-0.8
				c-0.5-0.5-0.8-1.2-0.8-1.9c0-0.8,0.3-1.4,0.8-1.9c0.5-0.5,1.2-0.8,1.9-0.8c0.4,0,0.7,0.1,1.1,0.2c0.3,0.1,0.6,0.3,0.8,0.6
				l-0.5,0.5c-0.3-0.4-0.8-0.6-1.4-0.6c-0.5,0-1,0.2-1.4,0.6c-0.4,0.4-0.6,0.9-0.6,1.5s0.2,1.1,0.6,1.5c0.4,0.4,0.9,0.6,1.4,0.6
				c0.6,0,1.1-0.2,1.4-0.6c0.2-0.3,0.4-0.6,0.4-1h-1.9v-0.6h2.5C43.8,11,43.8,11.1,43.8,11.2z"/>
			<path class="st1" d="M47.8,9.1h-2.3v1.6h2.1v0.6h-2.1v1.6h2.3v0.6h-3V8.4h3V9.1z"/>
			<path class="st1" d="M50.6,13.6h-0.7V9.1h-1.4V8.4H52v0.6h-1.4V13.6z"/>
			<path class="st1" d="M54.6,13.6V8.4h0.7v5.2H54.6z"/>
			<path class="st1" d="M58.2,13.6h-0.7V9.1h-1.4V8.4h3.5v0.6h-1.4V13.6z"/>
			<path class="st1" d="M66.3,12.9c-0.5,0.5-1.1,0.8-1.9,0.8c-0.8,0-1.4-0.3-1.9-0.8c-0.5-0.5-0.8-1.2-0.8-1.9
				c0-0.8,0.3-1.4,0.8-1.9c0.5-0.5,1.1-0.8,1.9-0.8c0.7,0,1.4,0.3,1.9,0.8c0.5,0.5,0.8,1.2,0.8,1.9C67.1,11.8,66.8,12.4,66.3,12.9z
				 M63,12.5c0.4,0.4,0.8,0.6,1.4,0.6c0.6,0,1-0.2,1.4-0.6c0.4-0.4,0.6-0.9,0.6-1.5c0-0.6-0.2-1.1-0.6-1.5c-0.4-0.4-0.8-0.6-1.4-0.6
				c-0.6,0-1,0.2-1.4,0.6c-0.4,0.4-0.6,0.9-0.6,1.5C62.5,11.6,62.7,12.1,63,12.5z"/>
			<path class="st1" d="M68,13.6V8.4h0.8l2.5,4h0l0-1v-3H72v5.2h-0.7l-2.6-4.2h0l0,1v3.2H68z"/>
		</g>
		<path class="st2" d="M61.6,21.1c-2,0-3.7,1.5-3.7,3.7c0,2.1,1.6,3.7,3.7,3.7c2,0,3.7-1.6,3.7-3.7C65.3,22.6,63.6,21.1,61.6,21.1z
			 M61.6,27c-1.1,0-2.1-0.9-2.1-2.2c0-1.3,1-2.2,2.1-2.2s2.1,0.9,2.1,2.2C63.7,26.1,62.7,27,61.6,27z M53.6,21.1
			c-2,0-3.7,1.5-3.7,3.7c0,2.1,1.6,3.7,3.7,3.7c2,0,3.7-1.6,3.7-3.7C57.3,22.6,55.6,21.1,53.6,21.1z M53.6,27
			c-1.1,0-2.1-0.9-2.1-2.2c0-1.3,1-2.2,2.1-2.2c1.1,0,2.1,0.9,2.1,2.2C55.7,26.1,54.7,27,53.6,27z M44.1,22.2v1.6h3.7
			c-0.1,0.9-0.4,1.5-0.8,2c-0.5,0.5-1.4,1.1-2.9,1.1c-2.3,0-4.1-1.8-4.1-4.1s1.8-4.1,4.1-4.1c1.2,0,2.1,0.5,2.8,1.1l1.1-1.1
			c-0.9-0.9-2.2-1.6-3.9-1.6c-3.1,0-5.8,2.5-5.8,5.7c0,3.1,2.6,5.7,5.8,5.7c1.7,0,3-0.6,4-1.6c1-1,1.3-2.5,1.3-3.6
			c0-0.4,0-0.7-0.1-1H44.1z M83,23.4c-0.3-0.8-1.2-2.3-3.1-2.3c-1.9,0-3.4,1.5-3.4,3.7c0,2,1.6,3.7,3.6,3.7c1.7,0,2.6-1,3-1.6
			L81.9,26c-0.4,0.6-1,1-1.8,1c-0.8,0-1.4-0.4-1.8-1.1l4.9-2L83,23.4z M78,24.6c0-1.4,1.1-2.1,1.9-2.1c0.6,0,1.2,0.3,1.4,0.8
			L78,24.6z M74.1,28.2h1.6V17.4h-1.6V28.2z M71.4,21.9L71.4,21.9c-0.4-0.4-1.1-0.8-2-0.8c-1.8,0-3.5,1.6-3.5,3.7
			c0,2,1.7,3.6,3.5,3.6c0.9,0,1.6-0.4,1.9-0.8h0.1v0.5c0,1.4-0.7,2.1-2,2.1c-1,0-1.6-0.7-1.8-1.3l-1.4,0.6c0.4,1,1.5,2.2,3.2,2.2
			c1.9,0,3.5-1.1,3.5-3.8v-6.6h-1.5V21.9z M69.6,27c-1.1,0-2-0.9-2-2.2c0-1.3,0.9-2.2,2-2.2c1.1,0,2,0.9,2,2.2
			C71.6,26,70.7,27,69.6,27z M90.5,17.4h-3.8v10.7h1.6v-4.1h2.2c1.8,0,3.5-1.3,3.5-3.3S92.3,17.4,90.5,17.4z M90.6,22.6h-2.3v-3.7
			h2.3c1.2,0,1.9,1,1.9,1.8C92.5,21.6,91.8,22.6,90.6,22.6z M100.5,21.1c-1.2,0-2.4,0.5-2.9,1.6l1.4,0.6c0.3-0.6,0.9-0.8,1.5-0.8
			c0.8,0,1.7,0.5,1.7,1.4V24c-0.3-0.2-0.9-0.4-1.7-0.4c-1.5,0-3.1,0.8-3.1,2.4c0,1.4,1.3,2.4,2.7,2.4c1.1,0,1.7-0.5,2-1.1h0.1v0.8
			h1.5v-4.1C103.8,22.1,102.3,21.1,100.5,21.1z M100.3,27c-0.5,0-1.3-0.3-1.3-0.9c0-0.8,0.9-1.1,1.7-1.1c0.7,0,1,0.2,1.5,0.4
			C102.1,26.3,101.2,27,100.3,27z M109.4,21.3l-1.8,4.7h-0.1l-1.9-4.7h-1.7l2.9,6.5l-1.6,3.6h1.7l4.4-10.1H109.4z M95,28.2h1.6V17.4
			H95V28.2z"/>
		<g>
			
				<linearGradient id="SVGID_1_" gradientUnits="userSpaceOnUse" x1="21.8089" y1="32.1051" x2="7.3895" y2="17.6858" gradientTransform="matrix(1 0 0 -1 0 42)">
				<stop  offset="0" style="stop-color:#00A0FF"/>
				<stop  offset="6.574450e-03" style="stop-color:#00A1FF"/>
				<stop  offset="0.2601" style="stop-color:#00BEFF"/>
				<stop  offset="0.5122" style="stop-color:#00D2FF"/>
				<stop  offset="0.7604" style="stop-color:#00DFFF"/>
				<stop  offset="1" style="stop-color:#00E3FF"/>
			</linearGradient>
			<path class="st3" d="M12,8.9c-0.2,0.3-0.4,0.7-0.4,1.2v19c0,0.5,0.1,0.9,0.4,1.2l0.1,0.1l10.6-10.6v-0.1v-0.1L12,8.9L12,8.9z"/>
			
				<linearGradient id="SVGID_00000178923506269963826430000010673114999275586238_" gradientUnits="userSpaceOnUse" x1="32.1489" y1="22.4033" x2="11.3591" y2="22.4033" gradientTransform="matrix(1 0 0 -1 0 42)">
				<stop  offset="0" style="stop-color:#FFE000"/>
				<stop  offset="0.4087" style="stop-color:#FFBD00"/>
				<stop  offset="0.7754" style="stop-color:#FFA500"/>
				<stop  offset="1" style="stop-color:#FF9C00"/>
			</linearGradient>
			<path style="fill:url(#SVGID_00000178923506269963826430000010673114999275586238_);" d="M26.3,23.3l-3.5-3.5v-0.1v-0.1l3.5-3.5
				l0.1,0l4.2,2.4c1.2,0.7,1.2,1.8,0,2.5L26.3,23.3L26.3,23.3z"/>
			
				<linearGradient id="SVGID_00000148632245756217116020000004279771076893156228_" gradientUnits="userSpaceOnUse" x1="24.4098" y1="20.4318" x2="4.856" y2="0.878" gradientTransform="matrix(1 0 0 -1 0 42)">
				<stop  offset="0" style="stop-color:#FF3A44"/>
				<stop  offset="1" style="stop-color:#C31162"/>
			</linearGradient>
			<path style="fill:url(#SVGID_00000148632245756217116020000004279771076893156228_);" d="M26.4,23.2l-3.6-3.6L12,30.3
				c0.4,0.4,1,0.5,1.8,0.1L26.4,23.2"/>
			
				<linearGradient id="SVGID_00000022521425660532711970000004574407198601572488_" gradientUnits="userSpaceOnUse" x1="9.3485" y1="39.4371" x2="18.0801" y2="30.7055" gradientTransform="matrix(1 0 0 -1 0 42)">
				<stop  offset="0" style="stop-color:#32A071"/>
				<stop  offset="6.850000e-02" style="stop-color:#2DA771"/>
				<stop  offset="0.4762" style="stop-color:#15CF74"/>
				<stop  offset="0.8009" style="stop-color:#06E775"/>
				<stop  offset="1" style="stop-color:#00F076"/>
			</linearGradient>
			<path style="fill:url(#SVGID_00000022521425660532711970000004574407198601572488_);" d="M26.4,16L13.8,8.8
				c-0.7-0.4-1.4-0.4-1.8,0.1l10.7,10.7L26.4,16z"/>
			<g>
				<path class="st7" d="M26.3,23.1l-12.5,7.1c-0.7,0.4-1.3,0.4-1.7,0l0,0L12,30.3l0,0l0.1,0.1l0,0c0.4,0.4,1,0.4,1.7,0L26.3,23.1
					L26.3,23.1z"/>
				<path class="st8" d="M12,30.2c-0.2-0.3-0.4-0.7-0.4-1.2v0.1c0,0.5,0.1,0.9,0.4,1.2V30.2L12,30.2z"/>
			</g>
			<path class="st8" d="M30.6,20.7l-4.3,2.4l0.1,0.1l4.2-2.4c0.6-0.3,0.9-0.8,0.9-1.2l0,0C31.4,20,31.1,20.4,30.6,20.7z"/>
			<path class="st9" d="M13.8,9l16.8,9.5c0.5,0.3,0.9,0.7,0.9,1.1l0,0c0-0.4-0.3-0.9-0.9-1.2L13.8,8.8c-1.2-0.7-2.2-0.1-2.2,1.3v0.1
				C11.6,8.8,12.6,8.3,13.8,9z"/>
		</g>
	</g>
</g>
</svg>
