<?xml version="1.0" encoding="UTF-8"?>
<svg id="Layer_1" data-name="Layer 1" xmlns="http://www.w3.org/2000/svg" version="1.1" viewBox="0 0 500 300">
  <defs>
    <style>
      .cls-1 {
        letter-spacing: .04em;
      }

      .cls-2 {
        font-family: Swiss721BT-Light, 'Swiss 721 Light BT';
        font-size: 19.84px;
        font-weight: 300;
      }

      .cls-2, .cls-3 {
        fill: #353535;
      }

      .cls-4 {
        letter-spacing: .04em;
      }

      .cls-3, .cls-5, .cls-6 {
        stroke-width: 0px;
      }

      .cls-5 {
        fill: #86704d;
      }

      .cls-7 {
        letter-spacing: 0em;
      }

      .cls-6 {
        fill: #404041;
      }
    </style>
  </defs>
  <path class="cls-5" d="M268.56,30.19c-3.04-3.29-6.8-5.87-11.02-7.48.07.02.13.05.2.07l.04-.02c-5.07-1.95-9.31-5.67-11.99-10.43,0,0,0,0,0,0,0,0,0,0,0,0-2.67,4.76-6.91,8.48-11.99,10.43l.04.02c.07-.03.13-.05.2-.07-7.56,2.87-13.59,8.87-16.69,16.34h6.53c2.68-4.89,6.99-8.71,12.17-10.69-.13.03-.27.09-.4.13,3.81-1.43,7.25-3.65,10.13-6.48,2.88,2.82,6.32,5.05,10.13,6.48-.13-.05-.26-.1-.4-.13,5.18,1.98,9.49,5.8,12.17,10.69h6.53c-1.37-3.3-3.29-6.3-5.66-8.86"/>
  <path class="cls-5" d="M203.76,38.38c-4.42-.12-8.85.78-12.95,2.71.06-.03.13-.06.19-.09l.02-.05c-4.93,2.3-10.49,2.74-15.66,1.33h0s0,0,0,0c0,0,0,0,0,0,1.39,5.31.95,11.01-1.29,16.08l.04-.02c.03-.07.06-.13.09-.19-3.34,7.47-3.53,16.07-.54,23.67l4.62-4.74c-1.47-5.4-1.06-11.23,1.25-16.39-.07.12-.13.26-.19.38,1.71-3.78,2.61-7.85,2.7-11.93,3.98-.09,7.94-1.02,11.62-2.77-.12.06-.26.12-.37.19,5.03-2.36,10.71-2.79,15.97-1.28l4.62-4.74c-3.24-1.34-6.67-2.06-10.11-2.16"/>
  <path class="cls-5" d="M163.58,91.21c-3.21,3.12-5.72,6.98-7.28,11.31.02-.07.04-.14.07-.2l-.02-.04c-1.9,5.21-5.53,9.55-10.16,12.3h0s0,0,0,0c0,0,0,0,0,0,4.64,2.75,8.26,7.1,10.16,12.3l.02-.04c-.02-.07-.05-.14-.07-.2,2.77,7.66,8.51,13.89,15.92,17.13v-6.7c-4.76-2.75-8.49-7.18-10.41-12.5.03.14.09.27.13.41-1.4-3.91-3.56-7.44-6.31-10.39,2.75-2.95,4.92-6.48,6.31-10.39-.04.13-.1.27-.13.41,1.93-5.32,5.65-9.74,10.41-12.5v-6.7c-3.21,1.41-6.14,3.38-8.63,5.81"/>
  <path class="cls-5" d="M171.56,157.73c-.12,4.53.76,9.09,2.64,13.29-.03-.07-.06-.13-.09-.2l-.04-.02c2.24,5.06,2.68,10.77,1.29,16.08,0,0,0,0,0,0,0,0,0,0,0,0h0c5.17-1.42,10.73-.98,15.66,1.32l-.02-.05c-.06-.03-.13-.06-.19-.09,7.28,3.43,15.65,3.62,23.06.56l-4.62-4.74c-5.26,1.51-10.94,1.09-15.97-1.28.12.07.25.13.37.19-3.68-1.75-7.64-2.68-11.62-2.77-.09-4.08-.99-8.15-2.7-11.93.06.13.12.26.19.38-2.3-5.16-2.72-10.99-1.25-16.39l-4.62-4.74c-1.3,3.33-2.01,6.84-2.1,10.38"/>
  <path class="cls-5" d="M223.02,198.97c3.04,3.29,6.8,5.87,11.02,7.48-.07-.02-.13-.05-.2-.07l-.04.02c5.07,1.95,9.31,5.67,11.99,10.43,0,0,0,0,0,0,0,0,0,0,0,0,2.67-4.76,6.91-8.48,11.99-10.43l-.04-.02c-.07.03-.13.05-.2.07,7.56-2.87,13.59-8.87,16.69-16.34h-6.53c-2.68,4.89-6.99,8.71-12.17,10.69.13-.03.27-.09.4-.13-3.81,1.43-7.25,3.65-10.13,6.48-2.88-2.82-6.32-5.05-10.13-6.48.13.05.26.1.4.13-5.18-1.98-9.49-5.8-12.17-10.69h-6.53c1.37,3.3,3.29,6.3,5.66,8.86"/>
  <path class="cls-5" d="M287.82,190.78c4.42.12,8.85-.78,12.95-2.71-.06.03-.13.06-.19.09l-.02.05c4.93-2.3,10.49-2.74,15.66-1.33h0s0,0,0,0c0,0,0,0,0,0-1.39-5.31-.95-11.01,1.29-16.08l-.04.02c-.03.07-.06.13-.09.19,3.34-7.47,3.53-16.07.54-23.67l-4.62,4.74c1.47,5.4,1.06,11.23-1.25,16.39.07-.12.13-.26.19-.38-1.71,3.78-2.61,7.85-2.7,11.93-3.98.09-7.94,1.02-11.62,2.77.12-.06.26-.12.37-.19-5.03,2.36-10.71,2.79-15.97,1.28l-4.62,4.74c3.24,1.34,6.67,2.06,10.11,2.16"/>
  <path class="cls-5" d="M328,137.95c3.21-3.12,5.72-6.98,7.28-11.31-.02.07-.04.14-.07.2l.02.04c1.9-5.21,5.53-9.55,10.16-12.3h0s0,0,0,0c0,0,0,0,0,0h0c-4.63-2.75-8.26-7.09-10.16-12.3l-.02.04c.02.07.05.14.07.2-2.77-7.66-8.51-13.89-15.92-17.13v6.7c4.76,2.75,8.49,7.18,10.41,12.5-.03-.14-.09-.27-.13-.41,1.4,3.91,3.56,7.44,6.31,10.39-2.75,2.95-4.92,6.48-6.31,10.39.04-.13.1-.27.13-.41-1.93,5.32-5.65,9.74-10.41,12.5v6.7c3.21-1.41,6.14-3.38,8.63-5.81"/>
  <path class="cls-5" d="M320.02,71.44c.12-4.53-.76-9.09-2.64-13.29.03.07.06.13.09.19l.04.02c-2.24-5.06-2.68-10.77-1.29-16.08,0,0,0,0,0,0,0,0,0,0,0,0h0c-5.17,1.42-10.73.98-15.66-1.32l.02.05c.06.03.13.06.19.09-7.28-3.43-15.65-3.62-23.06-.56l4.62,4.74c5.26-1.51,10.94-1.09,15.97,1.28-.12-.07-.25-.13-.37-.19,3.68,1.75,7.64,2.68,11.62,2.77.09,4.08.99,8.15,2.7,11.93-.06-.13-.12-.26-.19-.38,2.3,5.16,2.72,10.99,1.25,16.39l4.62,4.74c1.3-3.33,2.01-6.84,2.1-10.38"/>
  <path class="cls-5" d="M193.7,72.67c-3.2,1.25-6.13,3.25-8.51,5.87.04-.04.07-.08.11-.12v-.04c-2.88,3.15-6.74,5.15-10.85,5.7h0s0,0,0,0h0c2.52,3.39,3.86,7.61,3.7,11.93l.03-.03c0-.06,0-.11,0-.17-.25,6.35,2.07,12.57,6.43,17.14l1.95-4.8c-2.61-3.43-3.99-7.74-3.83-12.14-.02.11-.02.22-.02.33.14-3.23-.39-6.42-1.5-9.38,2.83-1.27,5.41-3.14,7.54-5.51-.07.08-.15.16-.21.25,2.93-3.22,6.88-5.25,11.09-5.76l1.95-4.8c-2.71.02-5.38.54-7.87,1.52"/>
  <path class="cls-5" d="M180.08,122.76c-1.4,3.21-2.09,6.74-1.97,10.33,0-.06,0-.11,0-.17l-.03-.03c.14,4.31-1.21,8.53-3.75,11.91h0s0,0,0,0c4.12.56,7.97,2.58,10.83,5.74v-.04s-.07-.08-.11-.13c4.2,4.67,10.12,7.38,16.35,7.46l-1.93-4.81c-4.21-.53-8.15-2.57-11.07-5.81.06.09.14.17.21.25-2.13-2.38-4.7-4.26-7.52-5.54,1.12-2.95,1.66-6.14,1.54-9.37,0,.11,0,.22.02.33-.15-4.4,1.25-8.7,3.87-12.12l-1.93-4.81c-1.9,1.98-3.43,4.29-4.52,6.79"/>
  <path class="cls-5" d="M204.96,168.06c1.22,3.29,3.16,6.29,5.72,8.73-.04-.04-.08-.07-.12-.11h-.04c3.07,2.95,5.02,6.91,5.56,11.14h0s0,0,0,0h0c3.3-2.59,7.42-3.96,11.62-3.8l-.03-.03c-.05,0-.11,0-.16,0,6.24.26,12.3-2.18,16.7-6.6l-4.68-2c-3.34,2.68-7.54,4.1-11.83,3.93.11.02.22.02.32.02-3.15-.14-6.26.4-9.14,1.54-1.24-2.9-3.06-5.55-5.37-7.74.08.07.16.15.25.22-3.14-3-5.11-7.06-5.61-11.38l-4.68-2c.02,2.78.53,5.52,1.48,8.08"/>
  <path class="cls-5" d="M253.75,182.03c3.13,1.44,6.57,2.15,10.06,2.02-.05,0-.11,0-.16,0l-.03.03c4.2-.14,8.31,1.24,11.6,3.85h0s0,0,0,0c.55-4.23,2.52-8.18,5.6-11.12h-.04s-.08.07-.12.11c4.59-4.35,7.2-10.47,7.27-16.79l-4.68,1.98c-.52,4.32-2.51,8.37-5.66,11.36.09-.06.17-.14.25-.22-2.32,2.18-4.15,4.82-5.4,7.72-2.88-1.15-5.98-1.7-9.13-1.58.11,0,.22,0,.32-.02-4.29.15-8.48-1.28-11.81-3.97l-4.68,1.98c1.93,1.95,4.18,3.52,6.62,4.64"/>
  <path class="cls-5" d="M297.89,156.5c3.2-1.25,6.13-3.25,8.51-5.87-.04.04-.07.08-.11.12v.04c2.88-3.15,6.74-5.15,10.85-5.7h0s0,0,0,0h0c-2.52-3.39-3.86-7.61-3.7-11.93l-.03.03c0,.06,0,.11,0,.17.25-6.35-2.07-12.57-6.43-17.14l-1.95,4.8c2.61,3.43,3.99,7.74,3.83,12.14.02-.11.02-.22.02-.33-.14,3.23.39,6.42,1.5,9.38-2.83,1.27-5.41,3.14-7.54,5.51.07-.08.15-.16.21-.25-2.93,3.22-6.88,5.25-11.09,5.76l-1.95,4.8c2.71-.02,5.38-.54,7.87-1.52"/>
  <path class="cls-5" d="M311.5,106.41c1.4-3.21,2.09-6.74,1.97-10.33,0,.06,0,.11,0,.17l.03.03c-.14-4.31,1.21-8.53,3.75-11.91h0s0,0,0,0c-4.12-.56-7.97-2.58-10.83-5.74v.04s.07.08.11.13c-4.2-4.67-10.12-7.38-16.35-7.46l1.93,4.81c4.21.53,8.15,2.57,11.07,5.81-.06-.09-.14-.17-.21-.25,2.13,2.38,4.7,4.26,7.52,5.54-1.12,2.95-1.66,6.14-1.54,9.37,0-.11,0-.22-.02-.33.15,4.4-1.25,8.7-3.87,12.12l1.93,4.81c1.9-1.98,3.43-4.29,4.52-6.79"/>
  <path class="cls-5" d="M286.62,61.1c-1.22-3.29-3.16-6.29-5.72-8.73.04.04.08.07.12.11h.04c-3.07-2.95-5.02-6.91-5.56-11.14h0s0,0,0,0h0c-3.3,2.59-7.42,3.96-11.62,3.8l.03.03c.05,0,.11,0,.16,0-6.24-.26-12.3,2.18-16.7,6.6l4.68,2c3.34-2.68,7.54-4.1,11.83-3.93-.11-.02-.22-.02-.32-.02,3.15.14,6.26-.4,9.14-1.54,1.24,2.9,3.06,5.55,5.37,7.74-.08-.07-.16-.15-.25-.22,3.14,3,5.11,7.06,5.61,11.38l4.68,2c-.02-2.78-.53-5.52-1.48-8.08"/>
  <path class="cls-5" d="M237.83,47.13c-3.13-1.44-6.57-2.15-10.06-2.02.05,0,.11,0,.16,0l.03-.03c-4.2.14-8.31-1.24-11.6-3.85h0s0,0,0,0c-.55,4.23-2.52,8.18-5.6,11.12h.04s.08-.07.12-.11c-4.59,4.35-7.2,10.47-7.27,16.79l4.68-1.98c.52-4.32,2.51-8.37,5.66-11.36-.09.06-.17.14-.25.22,2.32-2.18,4.15-4.82,5.4-7.72,2.88,1.15,5.98,1.7,9.13,1.58-.11,0-.22,0-.32.02,4.29-.15,8.48,1.28,11.81,3.97l4.68-1.98c-1.93-1.95-4.18-3.52-6.62-4.64"/>
  <path class="cls-5" d="M290.63,110.69c.62-1.38-1.22-2.85-1.53-.77-.11,1.46.08,3.1-.07,3.12.01.37-1.61-4.71-2.46-2.65-.12.65-.15.73.41,1.36.54.79.44.35.65.07.67.95,1.1,2.32,1.1,2.32-.47.42-.66,1.15-.57,1.32.33.08.76-.9,1.34.19-2.8.56-2.17,2.65-.99,5.79.94,2.43.84,4.29.58,6.08-.05.32-.04.5.32-.46.35-.96.39-3.97-.39-6.09-1.04-3.39-2.23-4.48,1.38-4.3.52-1.37-.2-2.04-1.06-2.6.72-1.56-.76-5.48,1.31-3.4"/>
  <path class="cls-5" d="M194.86,130.53c.66.8.95-1.1,0-1.5-1.35-.6-1.67,3.7-1.96,3.89-.49-2.44-1.67-4.75-2.74-2.42-.11.22.02.37.29.67.51.74.85-.13,1.17.33.12.27,1.12,2.88,1.04,3.79-.75,1.47-6.01,4.04-8.67,5.89.34.46,9.87-4.33,8.99-6.07.51-.92.39-5.83,1.89-4.59"/>
  <path class="cls-5" d="M223.47,118.98c.5.54.86-.82.08-1.37-1.46-.98-1.7,3.36-2.02,3.58-.12-1.81-1.7-4.59-2.6-2.28-.08.17.08.43.29.62.6.71.83-.25,1.21.45.2.37.87,2.05.87,2.49.57,1.67.84-5.51,2.17-3.49"/>
  <path class="cls-5" d="M278.32,138.6c-.07-.31,14.34-9.53,21.66-13.36.07-1.54.07-1.25.07-1.25,0,0-15.14,8.98-21.58,13.32-.02,1.12-.15,1.29-.15,1.29"/>
  <path class="cls-5" d="M250.24,167.42c-.07-.28,12.96-8.62,19.58-12.08.06-1.39.06-1.13.06-1.13,0,0-13.69,8.11-19.51,12.05-.02,1.01-.13,1.16-.13,1.16"/>
  <path class="cls-5" d="M225.3,156.07c-.24,3.25-2.74.71-.5-2.76.26-.25-.59,1.83-.52,2.64-.02.87.63,1,1.02.12"/>
  <path class="cls-5" d="M226.77,159.69c.42.46.73-.7.06-1.17-1.25-.84-1.45,2.86-1.72,3.05-.1-1.54-1.45-3.91-2.22-1.94-.07.15.07.37.25.53.48.6.7-.21,1.03.39.17.31.74,1.74.74,2.12.48,1.43.72-4.7,1.85-2.98"/>
  <path class="cls-5" d="M238.89,162.85c-.24,3.25-2.74.71-.5-2.76.26-.25-.59,1.83-.52,2.64-.02.87.63,1,1.02.12"/>
  <path class="cls-5" d="M240.36,166.47c.42.46.73-.7.06-1.17-1.25-.84-1.45,2.86-1.72,3.05-.1-1.54-1.45-3.91-2.22-1.94-.07.15.07.37.25.53.48.6.7-.21,1.03.39.17.31.74,1.74.74,2.12.48,1.43.72-4.7,1.85-2.98"/>
  <path class="cls-5" d="M222.68,128.6c-.06-1.06-1.69-2.16-1.69-2.16,1.88-5.79-2.35,2.51-1.77,4.4.72,3.18,4.2-.24,3.45-2.24M220.16,130.51c-.56-.26-.38-1.36.22-2.49,1.27.67,1.79,1.22,1.83,1.55-.2.22-1.49,1.2-2.04.94"/>
  <path class="cls-5" d="M274.87,131.56c.09-.25.21-.12.21.09-.02,1.14,1.53,1.67,1.4,3.09-.14,1.42-1.38,1.93-2.07.9-.24-.45-.12-.08-.3.37-.68,1.71-2.31,1.04-2.38-.27-.08-1.31-.08-2.88-.83-2.49-.76.39-1.63,2.81-1.63,2.81l-.14-.45c1.73-4.41,2.8-4.58,2.99-1,.06,1.4,1.34,1.78,1.78.73.27-.69-.46-2.12-.67-2.29-.19-.28.01-1.61.53-.86.35.4.83,3.93,2.11,2.6-.19-.94-1.81-1.23-1-3.24"/>
  <path class="cls-5" d="M240.45,69.02c-1.36-2.86-1.83-6.03-1.37-9.18-5.37,14.93-1.38,31.7-2.53,47.38-.69,18.9,1.53,38.16-1.04,56.88,4.59-12.5.32-1.45-.82,2.24,7.13-14.93,3.69-31.79,4.42-47.77,0-19.58-.01-39.16-.03-58.74-2.25,5.22-4.09,11.04-1.18,16.43-.03-.06.41-1.07.4-1.05.71-2.07,1.52-4.12,2.15-6.2"/>
  <path class="cls-5" d="M234.36,80.86c-1.36-2.86-1.83-6.03-1.37-9.18-5.51,16.19-1.29,34.31-2.53,51.27-.61,15.1,1.4,30.54-1.04,45.46,4.59-12.5.32-1.45-.82,2.24,4.33-8.88,4.86-18.54,4.43-28.25-.01-23.57-.02-47.14-.03-70.71-2.25,5.22-4.09,11.04-1.18,16.43-.03-.06.41-1.07.4-1.05.71-2.07,1.52-4.12,2.15-6.2"/>
  <path class="cls-5" d="M258.79,115.41c.98,1.03,2.6,1.7,2.89,3.2,2.58-3.17,1.85-3.62-1.1-5.95.07.06-1.9,2.66-1.79,2.76"/>
  <path class="cls-5" d="M255.61,110.74c.83.87,2.74,1.89,2.89,3.2,2.58-3.17,1.85-3.62-1.1-5.95.07.06-1.9,2.66-1.79,2.76"/>
  <path class="cls-5" d="M254.18,115.41c.98,1.03,2.6,1.7,2.89,3.2,2.58-3.17,1.85-3.62-1.1-5.95.07.06-1.9,2.66-1.79,2.76"/>
  <path class="cls-5" d="M258.61,148.83c.98,1.03,2.6,1.7,2.89,3.2,2.58-3.17,1.85-3.62-1.1-5.95.07.06-1.9,2.66-1.79,2.76"/>
  <path class="cls-5" d="M254,148.83c.98,1.03,2.6,1.7,2.89,3.2,2.58-3.17,1.85-3.62-1.1-5.95.07.06-1.9,2.66-1.79,2.76"/>
  <path class="cls-5" d="M201.43,102.03c.94,1.02,2.51,1.73,2.78,3.2,2.52-3.08,1.81-3.57-1.02-5.9.09.08-1.87,2.59-1.75,2.7"/>
  <path class="cls-5" d="M197,102.03c.94,1.03,2.51,1.73,2.78,3.2,2.52-3.08,1.81-3.57-1.02-5.9.09.08-1.87,2.59-1.75,2.7"/>
  <path class="cls-5" d="M268.91,123.46c-1.34,10.44,6.5,7.96,4.96-.54-.13,12.5,7.57,5.97,4.62-4.32.1.71.18,2.01.3,2.92-.3-2.28-.07-.39-.07.18-.04,1.68-.22,3.91-1.95,4.69-3.52,1.22-2.74-4.34-2.6.32.14-1.27-.28-2.55-.3-3.79.1,2.55-4,7.06-4.96,2.75.45,5.57.24-.95,0-2.21"/>
  <path class="cls-5" d="M274.07,142.23c-1.78-.75-3.11-2.2-3.73-4.07-1.26,3.99,1.99,7.4,5.75,8.22,2.81,1.11,7.13-1.18,8.83,2.04,2.38-8.81-12.24,0-14.58-10.27-.89,2.88.68,5.64,3.42,6.73-.2-.08.54-2.56.31-2.66"/>
  <path class="cls-5" d="M284.84,148.95c.01.08.03.17.04.25,0-.13,0-.26,0-.39,0,.08,0,.17,0,.25.01-.76.02-1.52.04-2.28-1.12,3.64-6.24,2.13-9.16,2.76-2.53.18-8.49,1.33-8.74-2.79-1.47,6.88,5.96,5.87,10.46,5.35,4.24-.04,8.66-.26,7.4-5.81.13.87-.16,1.8-.03,2.68"/>
  <path class="cls-5" d="M277.75,116.18c.57,3.49,6.12,2.58,6.09,6.47-.02-3.7.46-2.2-.78-.96-3.02,1.41-4.68-2.83-4.42-5.25-.09,2.77-.69,6.77,2.29,8.36,1.81.96,3.19-.98,2.94-2.68.08-1.99.4-3.91-1.38-5.22-1.6-1.18-4.33-1.31-4.64-3.76.13.99-.24,2.05-.11,3.04"/>
  <path class="cls-5" d="M270.55,120.19c-15.62,37.46-78.14,35.71-75.7-8.7-3.12,34.06,31.04,48.31,57.9,32.08,7.83-5.05,18.21-13.2,17.8-23.38"/>
  <path class="cls-5" d="M212.72,116.11c2.75-9.73-5.51-2.99-6.33-8.14-.13,1.05-.25,2.11-.38,3.16,1.87-4.57,8.21-1.63,7.4,2.9-.02-2.88.5-2.83.09-1.73-2.13,6.19-13.09,1.01-14.13,4.74-2.41,18.07,20.79,27.42,35.79,25.68,20.58-2.75,36.3-23.49,35.42-33.36-2.26,14.74-25.65,34.1-44.85,29.88-11.48-1.84-25.75-9.32-26.31-22.42,0,.07-.01.15-.02.22,0-.08.02-.16.02-.24l-.36,3c2.83-2.54,9.2.73,12.59-2.37,2.6-2.42,2.59-7.12,1.32-10.25-2.21-3.09-7.52-1.2-6.83,2.76-1.36,5.68,6.12,1.37,6.76,5.69.13-1.07.25-2.15.38-3.22-.55,1.1-.22,2.54-.55,3.69"/>
  <path class="cls-6" d="M227.05,70.22c.74.9,1.08-1.24-.01-1.69-1.53-.68-1.89,4.17-2.21,4.39-.47-2.75-2-5.3-3.09-2.73-.13.25.02.42.33.76.57.84.96-.15,1.32.38.14.3,1.26,3.25,1.18,4.27-.85,1.66-6.78,4.56-9.79,6.65.54.43,10.97-4.75,10.14-6.85.58-1.03.44-6.57,2.13-5.17"/>
  <path class="cls-6" d="M262.73,69.25c.74.9,1.08-1.24-.01-1.69-1.53-.68-1.89,4.17-2.21,4.39-.47-2.75-2-5.3-3.09-2.73-.13.25.02.42.33.76.57.84.96-.15,1.32.38.14.3,1.26,3.25,1.18,4.27-.85,1.66-6.78,4.56-9.79,6.65.54.43,10.97-4.75,10.14-6.85.58-1.03.44-6.57,2.13-5.17"/>
  <path class="cls-6" d="M255.77,84c-.09-.28,12.05-9.92,18.29-14.06-.08-1.39-.05-1.13-.05-1.13,0,0-12.81,9.5-18.22,14.02.08,1.01-.02,1.17-.02,1.17"/>
  <path class="cls-6" d="M211.05,81.16c-.06-1.06-1.69-2.16-1.69-2.16,1.88-5.79-2.35,2.51-1.77,4.4.72,3.18,4.2-.24,3.45-2.24M208.53,83.07c-.56-.26-.38-1.36.22-2.49,1.27.67,1.79,1.22,1.83,1.55-.2.22-1.49,1.2-2.04.94"/>
  <path class="cls-6" d="M246.09,60.73c-.06-1.06-1.69-2.16-1.69-2.16,1.88-5.79-2.35,2.51-1.77,4.4.72,3.18,4.2-.24,3.45-2.24M243.58,62.64c-.56-.26-.38-1.36.22-2.49,1.27.67,1.79,1.22,1.83,1.55-.2.22-1.49,1.2-2.04.94"/>
  <path class="cls-6" d="M218.56,90.41c.98,1.03,2.6,1.7,2.89,3.2,2.58-3.17,1.85-3.62-1.1-5.95.07.06-1.9,2.66-1.79,2.76"/>
  <path class="cls-6" d="M213.95,90.41c.98,1.03,2.6,1.7,2.89,3.2,2.58-3.17,1.85-3.62-1.1-5.95.07.06-1.9,2.66-1.79,2.76"/>
  <path class="cls-6" d="M273.83,103.72c.98,1.03,2.6,1.7,2.89,3.2,2.58-3.17,1.85-3.62-1.1-5.95.07.06-1.9,2.66-1.79,2.76"/>
  <path class="cls-6" d="M281.64,103.72c.83.87,2.74,1.89,2.89,3.2,2.58-3.17,1.85-3.62-1.1-5.95.07.06-1.9,2.66-1.79,2.76"/>
  <path class="cls-6" d="M269.22,103.72c.98,1.03,2.6,1.7,2.89,3.2,2.58-3.17,1.85-3.62-1.1-5.95.07.06-1.9,2.66-1.79,2.76"/>
  <path class="cls-6" d="M286.13,83.33c-1.58-.59-2.52-1.69-3.18-3.25-.26.98-.51,1.96-.77,2.94,1.88,3.13,3.71,6.8,3.1,10.57-.21,1.12.96-3.22.49-1.93-.34.95-.43,1.99-.77,2.94,2.24-4.85.85-10.29-2.05-14.51.02.83-.84,2.1-.77,2.94.66,1.56,1.6,2.66,3.18,3.25-.06-.02.87-2.9.77-2.94"/>
  <path class="cls-6" d="M285.55,88.22c.62,5.25-6.74,9.13-9.24,3.72-.36-.99.05-2.19-.15,1.36.43-1.34.03-2.78.15-4.11-2.51,12.97,11.72,9.35,9.23-.96"/>
  <path class="cls-6" d="M277.12,83.33c-1.58-.59-2.52-1.69-3.18-3.25-.26.98-.51,1.96-.77,2.94,1.88,3.13,3.71,6.8,3.1,10.57-.21,1.12.96-3.22.49-1.93-.34.95-.43,1.99-.77,2.94,2.24-4.85.85-10.29-2.05-14.51.02.83-.84,2.1-.77,2.94.66,1.56,1.6,2.66,3.18,3.25-.06-.02.87-2.9.77-2.94"/>
  <path class="cls-6" d="M276.54,88.22c.62,5.25-6.74,9.13-9.24,3.72-.36-.99.05-2.19-.15,1.36.43-1.34.03-2.78.15-4.11-2.51,12.97,11.72,9.35,9.23-.96"/>
  <path class="cls-6" d="M251.89,69.02c-1.36-2.86-1.83-6.03-1.37-9.18-5.37,14.93-1.38,31.7-2.53,47.38-.69,18.9,1.53,38.16-1.04,56.88,4.59-12.5.32-1.45-.82,2.24,7.13-14.93,3.69-31.79,4.42-47.77,0-19.58-.01-39.16-.03-58.74-2.25,5.22-4.09,11.04-1.18,16.43-.03-.06.41-1.07.4-1.05.71-2.07,1.52-4.12,2.15-6.2"/>
  <path class="cls-6" d="M245.81,80.86c-1.36-2.86-1.83-6.03-1.37-9.18-5.51,16.19-1.29,34.31-2.53,51.27-.61,15.1,1.4,30.54-1.04,45.46,4.59-12.5.32-1.45-.82,2.24,4.33-8.88,4.86-18.54,4.43-28.25-.01-23.57-.02-47.14-.03-70.71-2.25,5.22-4.09,11.04-1.18,16.43-.03-.06.41-1.07.4-1.05.71-2.07,1.52-4.12,2.15-6.2"/>
  <path class="cls-6" d="M199.02,86.87c.02,9.03,7.81,15.08,15.12,18.44,26.42,13.34,57.41-13.61,56.42-29.85-2.42,16.05-27.69,34.58-47.68,29.38-10.42-2.29-23.13-9.12-23.49-21.19,0,1.07-.38,2.15-.38,3.22"/>
  <text class="cls-2" transform="translate(203.07 282.73) scale(1 1.05)"><tspan class="cls-1" x="0" y="0">P</tspan><tspan class="cls-4" x="12.75" y="0">ERFUM</tspan><tspan class="cls-7" x="82.82" y="0">E</tspan></text>
  <rect class="cls-3" x="308.84" y="256.98" width="4.95" height=".43"/>
  <rect class="cls-3" x="321.79" y="256.98" width="6.42" height=".43"/>
  <polygon class="cls-3" points="324.32 257.09 317.93 240.73 317.66 240.73 311.6 257.06 310.76 257.06 318.23 237.33 318.91 237.33 326.83 257.09 324.32 257.09"/>
  <rect class="cls-3" x="313.63" y="250.36" width="9" height=".8"/>
  <rect class="cls-3" x="218.99" y="256.98" width="4.95" height=".43"/>
  <rect class="cls-3" x="231.94" y="256.98" width="6.99" height=".43"/>
  <polygon class="cls-3" points="234.48 257.09 228.09 240.73 227.82 240.73 221.76 257.06 220.91 257.06 228.39 237.33 229.07 237.33 236.98 257.09 234.48 257.09"/>
  <rect class="cls-3" x="223.79" y="250.36" width="9" height=".8"/>
  <g>
    <path class="cls-3" d="M238.35,256.98c-1.71.31-1.77-2.35-2.74-1.31l.05,1.26.3.31,2.28-.03.11-.23Z"/>
    <path class="cls-3" d="M253.37,256.98h-12.7v.43h13.75l.58-5.73h-.53l-.85,5.3h-.25Z"/>
    <rect class="cls-3" x="242.68" y="237.43" width="2.44" height="19.61"/>
    <rect class="cls-3" x="258.77" y="237.65" width="2.44" height="19.39"/>
    <rect class="cls-3" x="240.62" y="237.43" width="6.52" height=".78"/>
    <path class="cls-3" d="M263.7,238.21h-6.99v-.78h6.99c15.54-1.33,14.2,22.59-.7,19.95v-.53c5.21.32,8.83-.57,8.98-9.32.07-8.55-4.07-9.73-8.28-9.33"/>
    <rect class="cls-3" x="276.67" y="256.98" width="6.76" height=".43"/>
    <rect class="cls-3" x="285.19" y="256.98" width="4.47" height=".43"/>
    <rect class="cls-3" x="276.67" y="237.43" width="6.76" height=".73"/>
    <rect class="cls-3" x="285.05" y="237.43" width="4.53" height=".73"/>
    <rect class="cls-3" x="302.61" y="237.43" width="4.53" height=".73"/>
    <rect class="cls-3" x="278.99" y="237.43" width="2.44" height="19.61"/>
    <rect class="cls-3" x="345.46" y="256.98" width="6.76" height=".43"/>
    <rect class="cls-3" x="345.46" y="237.43" width="6.76" height=".73"/>
    <rect class="cls-3" x="347.78" y="237.43" width="2.44" height="19.61"/>
    <rect class="cls-3" x="358.56" y="256.98" width="6.76" height=".43"/>
    <rect class="cls-3" x="358.56" y="237.43" width="6.76" height=".73"/>
    <rect class="cls-3" x="349.17" y="247.01" width="11.99" height=".73"/>
    <rect class="cls-3" x="360.87" y="237.43" width="2.44" height="19.61"/>
    <rect class="cls-3" x="387.46" y="256.98" width="6.76" height=".43"/>
    <rect class="cls-3" x="387.46" y="237.43" width="6.76" height=".73"/>
    <rect class="cls-3" x="389.78" y="237.43" width="2.44" height="19.61"/>
    <rect class="cls-3" x="287.25" y="237.43" width=".89" height="19.61"/>
    <rect class="cls-3" x="300.94" y="256.98" width="5.84" height=".43"/>
    <rect class="cls-3" x="302.56" y="237.43" width="4.53" height=".73"/>
    <rect class="cls-3" x="302.57" y="237.43" width="3.08" height="19.61"/>
    <rect class="cls-3" x="256.75" y="256.85" width="6.63" height=".54"/>
    <path class="cls-3" d="M302.57,237.43l-6.23,17.14-6.76-17.14h-1.89c-.62,1.51,6.86,18.5,7.46,20.27h.96l6.85-18.83-.39-1.43Z"/>
    <path class="cls-3" d="M341.69,244.14c5.58-8.51-13.13-9.96-11.63-.51.31,2.4,3.41,4.24,7.68,5.39,12.25,6.11-7.24,13.54-7.28,2.67h-.49c.07,14.58,26.94.01,5.88-5.9-5.76-1.17-5.21-7.89.72-8.16,3.1-.05,7.41,2.35,4.94,5.99l.18.51Z"/>
    <path class="cls-3" d="M376.46,237.1c-12.37-.32-12.48,20.73-.12,20.57,12.37.32,12.48-20.73.12-20.57M383,250.4c.11,8.79-13.32,8.8-13.22,0-.38-5-.19-12.9,6.61-12.8,6.8-.1,6.99,7.8,6.61,12.8Z"/>
    <polygon class="cls-3" points="375.86 257.55 371.4 261.79 371.4 262.46 371.82 262.46 376.91 257.42 375.86 257.55"/>
    <path class="cls-3" d="M373.54,260.21c4.98-2.5,11.03,6.02,11.14-1.82,1.83,3.7-1.77,6.78-5.14,4.66-2.91-1.83-3.92-3.56-6-2.84"/>
  </g>
  <rect class="cls-3" x="105.78" y="256.98" width="4.93" height=".43"/>
  <rect class="cls-3" x="118.67" y="256.98" width="6.96" height=".43"/>
  <path class="cls-3" d="M138.69,257.41h-12.65v-.43h12.9l.85-5.28h.53l-.58,5.71h-1.04Z"/>
  <polygon class="cls-3" points="121.2 257.1 114.83 240.8 114.56 240.8 108.53 257.06 107.69 257.06 115.14 237.42 115.81 237.42 123.7 257.1 121.2 257.1"/>
  <rect class="cls-3" x="110.55" y="250.39" width="8.96" height=".8"/>
  <g>
    <path class="cls-3" d="M125.06,256.99c-1.7.31-1.76-2.34-2.73-1.3l.05,1.26.3.31,2.27-.03.11-.23Z"/>
    <rect class="cls-3" x="160.93" y="256.98" width="4.93" height=".43"/>
    <rect class="cls-3" x="173.83" y="256.98" width="6.96" height=".43"/>
    <rect class="cls-3" x="203.89" y="256.98" width="6.73" height=".43"/>
    <polygon class="cls-3" points="178.85 257.1 170.97 237.41 170.29 237.41 162.85 257.06 163.69 257.06 169.72 240.8 169.99 240.8 176.36 257.1 178.85 257.1"/>
    <rect class="cls-3" x="165.71" y="250.39" width="8.96" height=".8"/>
    <path class="cls-3" d="M180.21,256.99c-1.7.31-1.76-2.34-2.73-1.3l.05,1.26.3.31,2.27-.03.11-.23Z"/>
    <rect class="cls-3" x="128.04" y="237.51" width="2.43" height="19.54"/>
    <rect class="cls-3" x="126" y="237.51" width="6.5" height=".78"/>
    <rect class="cls-3" x="206.19" y="237.51" width="2.43" height="19.54"/>
    <rect class="cls-3" x="199.39" y="237.51" width="15.64" height=".78"/>
    <rect class="cls-3" x="145.55" y="237.51" width="2.43" height="19.54"/>
    <rect class="cls-3" x="143.51" y="237.51" width="6.5" height=".78"/>
    <path class="cls-3" d="M150,256.92h-6.5v.46c2.53,0,8.13,0,10.6,0,6.81-1.32,6.87-8.99-.03-10.06,0-.29,0-.06,0-.06,6.95-1.11,5.92-11.45-5.67-9.7l1.58.73h2.18c6.22,0,3.87,8.77.56,8.77h-4.88v.75h5.31c6.67,1.13,3.93,10.67-3.17,9.11"/>
    <polygon class="cls-3" points="199.39 237.51 198.84 243.01 199.14 243.01 200.33 238.05 199.39 237.51"/>
    <polygon class="cls-3" points="214.99 237.51 215.54 243.01 215.24 243.01 214.05 238.05 214.99 237.51"/>
    <rect class="cls-3" x="186.12" y="256.98" width="6.73" height=".43"/>
    <rect class="cls-3" x="186.12" y="237.51" width="6.73" height=".73"/>
    <rect class="cls-3" x="188.43" y="237.51" width="2.43" height="19.54"/>
  </g>
</svg>