<?xml version="1.0" encoding="utf-8"?>
<!-- Generator: Adobe Illustrator 28.0.0, SVG Export Plug-In . SVG Version: 6.00 Build 0)  -->
<svg version="1.1" id="Layer_1" xmlns="http://www.w3.org/2000/svg" xmlns:xlink="http://www.w3.org/1999/xlink" x="0px" y="0px"
	 viewBox="0 0 500 300" style="enable-background:new 0 0 500 300;" xml:space="preserve">
<style type="text/css">
	.st0{enable-background:new    ;}
	.st1{clip-path:url(#SVGID_00000028306653886642106310000017793524246225557412_);fill:#90A2B1;}
	.st2{clip-path:url(#SVGID_00000150087108570702636390000003910958885960401296_);fill:#90A2B1;}
	.st3{fill:#E6BBB1;}
	.st4{fill:#FFFFFF;}
	.st5{clip-path:url(#SVGID_00000161607703890708707370000001075712953778366896_);fill:#90A2B1;}
	.st6{fill:#223C58;}
	.st7{fill:#E57424;}
</style>
<g>
	<g class="st0">
		<g>
			<defs>
				<rect id="SVGID_1_" x="60.9" y="80.3" width="44.7" height="47.9"/>
			</defs>
			<clipPath id="SVGID_00000182504665542241963480000000224440771737072301_">
				<use xlink:href="#SVGID_1_"  style="overflow:visible;"/>
			</clipPath>
			<path style="clip-path:url(#SVGID_00000182504665542241963480000000224440771737072301_);fill:#90A2B1;" d="M79.2,125.6
				c-1,0.2-1.9,0.5-2.8,0.9c-0.7,0.3-1.3,0.5-2,0.7c0.8-0.8,1.5-1.6,2.3-2.4c1.3-1.3,2.7-2.5,4.1-3.6c1.4-1.1,2.8-2.2,4.3-3.3
				c1.5-1,3-2,4.5-2.8c3-1.3,6-3.1,8.3-5.6c2.3-2.5,3.9-5.7,4.5-9c0.7-3.3,0.5-6.7-0.1-9.9c-0.6-3.2-1.3-6.4-2.3-9.5
				c0.6,3.2,1.1,6.4,1.3,9.6c0.3,3.2,0.3,6.4-0.5,9.4c-0.8,3-2.2,5.8-4.4,8c-2.1,2.2-4.8,3.8-7.7,5l0,0l-0.1,0
				c-1.7,0.9-3.2,1.9-4.8,3.1c-1.5,1.1-2.9,2.3-4.3,3.6c-2.4,2.3-4.5,4.8-6.2,7.6c-0.6,0.2-1.3,0.4-1.9,0.5c-0.3,0.1-0.6,0.1-1,0.1
				l-5.1-6.1c-0.3-0.4-0.6-0.7-0.9-1.1c0.5-1.3,1.2-2.4,2.3-2.8c1.3-0.5,3,0,4.6,0.5c0.9,0.2,1.5,0.5,1.7,1.2
				c0.2,0.7-0.1,1.6-0.4,2.3c-0.7,1.5-1.7,2.9-2.8,4.3c1.2-1.2,2.4-2.5,3.2-4.1c0.4-0.8,0.8-1.6,0.7-2.6c-0.1-0.5-0.4-1-0.8-1.3
				c-0.4-0.3-0.9-0.4-1.2-0.6c-0.8-0.3-1.6-0.7-2.5-0.9c-0.9-0.2-1.9-0.4-2.9-0.1c-1,0.3-1.9,0.9-2.5,1.7c-0.3,0.3-0.5,0.6-0.7,1
				c-0.6-0.7-1.2-1.4-1.9-2.1l0.3-0.5c0,0,0.5-3.4,0.2-6.1c-0.4-3.4-1.6-6.5-0.3-10.5c2.6-8.4,10.2-14.9,13.7-17.9
				c0.9-0.8,1.7-1.1,2.5-0.6c0.8,0.6,1.2,1.2,1.5,2.4c0.2,1-0.6,2.1-0.9,3.2c-0.7,2.4-1.4,5.2-2.2,7.7c-1,3.2-0.5,6.8-0.5,6.8
				c-0.5-0.6-1-1.1-1.4-1.6c-0.4-0.5-0.8-1.1-1.2-1.6c-0.3-0.6-0.6-1.1-0.7-1.7c-0.1-0.3-0.1-0.5-0.1-0.8c0-0.2,0-0.6,0-0.6
				c0.9-2.1,1.8-4.2,2.6-6.4c0.8-2.2,1.6-4.4,2.1-6.7c-1.3,1.9-2.5,4-3.6,6c-1.1,2.1-2.1,4.2-3.1,6.3l0,0l0,0
				c-0.2,0.6-0.2,1-0.1,1.5c0,0.4,0.1,0.9,0.3,1.3c0.3,0.8,0.8,1.5,1.3,2.1c0.5,0.6,1.2,1,1.8,1.4c0.7,0.4,1.3,0.7,2.1,0.8
				c0,0,8.2,3.6,13.7-0.8c5.5-4.4,9.7-20.8,9.7-20.8s2.3,1.2,3,3.1c2.3,5.7,5,18,2.8,24.1c-3,8.2-12.1,11.8-12.1,11.8
				s-5.7,0.4-11.4,6.1c-0.1,0-0.3,0-0.4,0C80.2,125.4,79.7,125.5,79.2,125.6"/>
		</g>
	</g>
	<g class="st0">
		<g>
			<defs>
				<rect id="SVGID_00000096780014040138290150000006731770775021246849_" x="32.3" y="173.7" width="6.4" height="4.5"/>
			</defs>
			<clipPath id="SVGID_00000034774967628711457930000015386349829623048327_">
				<use xlink:href="#SVGID_00000096780014040138290150000006731770775021246849_"  style="overflow:visible;"/>
			</clipPath>
			<path style="clip-path:url(#SVGID_00000034774967628711457930000015386349829623048327_);fill:#90A2B1;" d="M36.2,174.8
				c0.7,0.4,1.3,0.8,2,1.1c0.2,0.1,0.3,0.1,0.5,0.2c-0.7,1.3-1.1,1.9-1.4,2.2c-1.1-0.5-3.8-1.9-5-2.6c0.1-0.4,0.5-1.2,1-1.9
				c0.5,0,1,0.1,1.5,0.1C35.2,174.2,35.7,174.5,36.2,174.8"/>
		</g>
	</g>
	<path class="st3" d="M58.1,163.1c-0.3,0.5-0.8,1-1.3,1.5c0.7-1.3,1.5-2.6,2.3-4C59,161.5,58.6,162.3,58.1,163.1"/>
	<path class="st4" d="M89.7,115.1C89.7,115.1,89.7,115.1,89.7,115.1C89.7,115.1,89.6,115.1,89.7,115.1L89.7,115.1z"/>
	<path class="st4" d="M43.7,179.5C43.7,179.5,43.7,179.5,43.7,179.5C43.7,179.5,43.7,179.4,43.7,179.5
		C43.7,179.4,43.7,179.5,43.7,179.5"/>
	<path class="st4" d="M72.1,95.5C72.1,95.5,72.1,95.5,72.1,95.5C72.1,95.5,72.1,95.5,72.1,95.5L72.1,95.5z"/>
	<g class="st0">
		<g>
			<defs>
				<rect id="SVGID_00000057863312102188989650000005437109230170881453_" x="9.4" y="172.4" width="38.9" height="47.3"/>
			</defs>
			<clipPath id="SVGID_00000083090713475928966230000003076722667530842761_">
				<use xlink:href="#SVGID_00000057863312102188989650000005437109230170881453_"  style="overflow:visible;"/>
			</clipPath>
			<path style="clip-path:url(#SVGID_00000083090713475928966230000003076722667530842761_);fill:#90A2B1;" d="M9.5,195.4
				c0.1-3,0.7-5.9,1.7-8.6c1-2.7,2.8-5,5.1-6.5c0.1,0,0.1-0.1,0.2-0.1c2.3-1.5,4.9-2.2,7.6-2.5l0,0c0.5-0.1,0.8-0.3,1.1-0.7l0,0
				l2.9-4.5c0.9,0.4,1.9,0.7,2.9,0.9c-0.5,0.9-1,1.9-0.8,2.7c0.1,0.5,0.4,1,0.9,1.3c1.4,0.8,5.2,2.7,5.7,2.9
				c0.2,0.1,0.4,0.2,0.6,0.2c0.1,0,0.2,0,0.4,0c0.6-0.2,1.5-0.8,3-3.7c0.3,0.1,0.5,0.1,0.8,0.2c0.2,1,0.4,2,0.9,3.1
				c0.1,0.3,0.3,0.5,0.5,0.8c-0.6,1.2-1.2,2.4-1.4,3.8c-0.4,1.9-0.5,3.8-0.5,5.7l0,2.8c0,0.7-0.1,1.5-0.1,2.2c0,0.2,0,0.3,0,0.5
				c-0.2,1.8-0.5,3.6-1,5.3c-0.5,1.7-1.2,3.4-2.1,4.9c-0.9,1.5-2,3-3.2,4.5c-2.3,2.9-4.9,5.5-7.7,8.1c3.2-2,6.2-4.4,8.8-7.1
				c1.3-1.4,2.6-2.9,3.6-4.5c1.1-1.6,1.9-3.5,2.5-5.3c0.6-1.9,0.9-3.8,1-5.7c0-0.1,0-0.1,0-0.1c0.1-1.9-0.1-3.8-0.3-5.6
				c-0.1-1.8-0.3-3.7-0.1-5.5c0.1-1.2,0.3-2.4,0.7-3.6c0.2,0.3,0.5,0.6,0.8,0.9c0.5,0.4,1.1,0.7,1.7,0.9c0.3,0.1,0.6,0.1,0.9,0.2
				c0.3,0,0.5,0,0.8,0c-0.5,2.5-0.7,5.8,0.4,9.1c0.2,0.6,0.4,1.2,0.4,1.9c0.1,0.6,0.1,1.3,0.1,2c0,0.4,0,0.8-0.1,1.2
				c-0.5,5.9-4.2,13.8-13,19.2c-1.9,1.2-4,2.2-6.3,3.1c0,0-3.4,0.5-2.8-1c0.3-0.7,1.4-3.9,2.5-7.2c0.7-1.9,1.5-3.7,2.3-5.6
				c0.7-1.9,1.1-4,0.8-6.2c-0.3-2.1-1.3-4.1-2.6-5.8c-1.3-1.7-2.9-3-4.6-4.2c-0.9-0.6-2-1.1-3.2-1.2c-1.2-0.2-2.5,0.1-3.5,0.8
				c-1,0.6-1.8,1.5-2.4,2.4c-0.6,0.9-1.1,1.9-1.5,2.8c-0.8,2-1.2,4-1.5,6c-0.3,2-0.4,4-0.3,6.1c1-3.9,2-7.8,3.6-11.3
				c0.8-1.7,1.8-3.4,3.2-4.3c1.3-0.9,3-0.6,4.6,0.4c0,0,0.1,0,0.1,0.1c-1.7,1.4-5.8,5.4-9.3,14.9c0,0-3.6,1.6-4.2-1.7
				c0-0.1,0-0.2-0.1-0.3c0,0,0,0,0,0C9.5,201.4,9.3,198.4,9.5,195.4"/>
		</g>
	</g>
	<path class="st3" d="M61,130.6c-0.6,0.2-1.2,0.5-1.8,0.9c-1.4-1.5-2.7-2.9-4.2-4.3c-0.5-0.5-1.1-1.1-1.6-1.6
		c-0.7-0.7-1.5-1.3-2.4-1.9c-0.6-0.4-1.3-0.8-2.1-1c-0.5-0.2-0.9-0.3-1.4-0.3c-0.1,0-0.2,0-0.4,0c-0.2,0-0.4,0-0.5,0
		c-0.3,0-0.5,0.1-0.7,0.1c-0.9,0.2-1.7,0.4-2.5,0.6c-0.8,0.3-1.6,0.5-2.4,0.8c0.8-1.3,2-3.1,3.3-4.9l0,0c2-2.2,4.2-4.4,6.8-5.5
		c1.1-0.5,2.5-0.2,3.7,0.5c1.2,0.7,2.2,1.7,3.2,2.7c0.4,0.5,0.9,1,1.3,1.5c0.3,0.3,0.5,0.7,0.8,1c1.1,1.5,2.2,3,3.3,4.5l3.7,5.1
		c-0.3,0.1-0.6,0.1-0.9,0.2C64.6,129.3,62.8,129.8,61,130.6"/>
	<path class="st3" d="M49.1,182.6c0.1-0.1,0.2-0.1,0.3-0.2c0.6-0.4,1.1-0.8,1.6-1.3c1-1.1,1.8-2.3,2.4-3.6c1.2-2.4,1.7-5.3,1.1-8
		c1.2-0.5,2.2-1.1,3.2-1.8c1.1-0.9,2.1-1.9,2.8-3.2c0.7-1.3,1.2-2.7,1.3-4.1c0-0.7,0.1-1.4,0-2.1l-0.1-0.6c1.9-1,2.9-2.4,3.3-3.8
		c0.2,0.2,0.5,0.5,0.7,0.7c0.9,0.9,1.9,1.6,3,2.2c0.2,0.1,0.3,0.2,0.5,0.2c0.9,0.5,1.9,0.8,2.8,1.1c1.1,0.3,2.3,0.4,3.4,0.5
		c-1.1-0.3-2.2-0.7-3.2-1.2c-0.9-0.4-1.7-1-2.4-1.6c-0.1-0.1-0.2-0.2-0.3-0.2c-0.8-0.7-1.5-1.6-2.1-2.4c-0.2-0.3-0.3-0.6-0.5-0.9
		c0.1,0,0.2,0,0.3,0c0.9,0.6,1.8,1,2.7,1.3c0.3,0.1,0.6,0.2,1,0.3c0.7,0.2,1.3,0.4,2,0.4c1,0.1,2,0.2,2.9,0.2c1,0,1.9-0.2,2.8-0.4
		c-0.9-0.1-1.9-0.2-2.8-0.4c-0.9-0.2-1.8-0.5-2.6-0.9c-0.5-0.2-0.9-0.5-1.4-0.7c-0.2-0.1-0.4-0.3-0.7-0.4c0.4-0.1,0.7-0.2,1.1-0.3
		c0.7-0.2,1.5-0.5,2.2-0.8c3.4-1.5,6.5-3.9,7.8-7.4c-2.7,2.2-5.4,4-8.4,5.3c-0.1,0-0.2,0.1-0.3,0.1c-2.6,1-5.5,1.5-8.2,1.1
		c-0.5-0.1-1-0.2-1.5-0.3c-1.5-0.4-3.1-1.1-4.4-1.9c-1.2-0.9-2.2-2-2.7-3.4c-0.3-0.7-0.5-1.5-0.6-2.2c-0.1-0.8-0.3-1.8-0.2-2.1
		c0.2-1.1,1-2.5,2.1-3.5c1.1-1.1,2.4-1.8,4-2.4c1.5-0.6,3.2-1,4.8-1.5c0.8-0.2,1.7-0.4,2.5-0.5c0.9-0.2,1.6-0.2,2.7-0.4
		c2-0.4,3.6-1.2,5.2-1.8c0.3-0.1,0.5-0.2,0.8-0.3c0.5-0.2,1-0.4,1.5-0.5c0,0,0.1,0,0.1,0c0.7-0.1,1.2-0.1,1.4,0
		c0.1,0.1,0.5,0.3,0.7,0.6c0.3,0.2,0.5,0.5,0.8,0.8c0.5,0.6,1,1.2,1.5,1.9c1.8,2.7,3.2,5.8,3,9.4c-0.5,1.9-1.6,6.1-3.3,11.2
		c-1.5,4.8-2.9,10.4-5.4,15.8c-5.2,11.3-13,21.7-22.2,21.6c0.1-0.3,0.1-0.6,0.2-0.8c0.2-1.3-0.2-2.6-0.6-3.8
		c0.2,1.2,0.3,2.5-0.1,3.6c-0.4,1.1-1.1,2-2,2.7c-0.9,0.7-2,1.2-3,1.6c-0.5,0.2-0.9,0.3-1.4,0.4c-0.1-1-0.3-1.9-0.5-2.7
		c-0.2-0.9-0.3-1.8-0.4-2.5c-0.3-2.9,0.1-5.1,0.3-5.9C49,182.7,49.1,182.6,49.1,182.6"/>
	<path class="st3" d="M15.7,153.4c0,0,0.8-6.6,5.8-9.2c0,0-0.8-5.9,5.5-11.6c2.6-1.8,5.4-3.1,8.3-4.2c2.9-1.1,5.9-2,8.8-2.7
		c0.7-0.2,1.5-0.3,2.2-0.4c0.2,0,0.3,0,0.4,0c0.1,0,0.1,0,0.1,0c0,0,0.1,0,0.2,0c0.3,0.1,0.6,0.1,0.8,0.3c0.4,0.2,0.7,0.4,1.1,0.6
		c0.7,0.5,1.4,1.1,2.1,1.8c0.7,0.7,1.4,1.4,2.1,2.1c1.1,1.1,2.2,2.1,3.4,3.1c-0.1,0.1-0.3,0.2-0.4,0.4c-1.4,1.4-2.7,3.1-3,5.5
		c-0.1,0.6,0,1.3,0.1,1.7c0.1,0.5,0.2,0.9,0.3,1.4c0.2,0.9,0.5,1.9,0.9,2.8c0.8,1.8,2.2,3.5,3.9,4.6c1.3,0.8,2.6,1.3,3.9,1.7
		c0.1,0.8,0,2.2-1.6,3.2c-0.5-0.7-1-1.4-1.5-2c-0.9-1-1.7-1.9-2.6-2.8c-1.7-1.7-3.2-3.8-5.2-5.5c-1.5-1.4-3.3-2.4-5.3-3.1
		c-0.5-0.2-1.1-0.4-1.6-0.5c-2.3-0.5-4.6-0.7-6.9-0.6c-0.2,0-0.5,0-0.7,0c-5.1,0.3-10,1.7-14.6,3.6c4.7-1.6,9.7-2.7,14.6-2.8
		c0,0,0,0,0.1,0c2.5,0,4.9,0.2,7.2,0.9c0.4,0.1,0.8,0.3,1.2,0.4c1.8,0.7,3.5,1.8,4.9,3.2c1.7,1.7,3.1,3.8,4.8,5.7
		c0.8,1,1.6,1.9,2.4,2.8c0.7,0.9,1.4,1.9,1.7,2.9c0.1,0.2,0.1,0.4,0.2,0.7l0,0.8c0.1,0.6-0.1,1.1-0.1,1.6c0,0.1-0.1,0.3-0.1,0.4
		c-0.8,1.4-1.6,2.7-2.3,4c-0.3,0.3-0.6,0.6-1,0.8c-0.8,0.6-1.9,1.1-2.8,1.4c-0.1-0.1-0.2-0.3-0.3-0.4l-0.6-0.8c-0.8-1-1.7-2-2.6-3
		c-1.8-1.9-3.8-3.8-6.3-5c-2.1-0.9-4.2-1.5-6.4-1.9c-0.4-0.1-0.9-0.2-1.3-0.2l-9.2-1.5l-6.2-1l0,0.1l6,1.3l9.3,2
		c0.3,0.1,0.6,0.2,0.9,0.2c2.2,0.5,4.4,1.2,6.3,2.2c2.2,1.1,4,3,5.6,5c0.8,1,1.6,2,2.4,3l0.6,0.8c0.2,0.3,0.4,0.5,0.5,0.7
		c0.3,0.4,0.5,1,0.6,1.5c0.2,0.8,0.2,1.6,0.1,2.4c0,0.4-0.1,0.7-0.1,1.1c-0.2,1.2-0.6,2.3-1.2,3.3c-0.6,1.1-1.3,2-2.1,2.8
		c-0.3,0.3-0.7,0.6-1,0.7c-0.1,0-0.2,0.1-0.3,0.2c-0.4,0.2-0.7,0.2-1.2,0.2c-0.4,0-0.7-0.2-0.9-0.5c-0.3-0.3-0.5-0.7-0.7-1.1
		c-0.4-0.9-0.6-2.2-0.6-3.2c0-0.7-0.6-1.3-1.3-1.5l-0.1,0h0c-1.2-0.2-2.4-0.5-3.6-1.1c-0.6-0.3-1.1-0.6-1.7-0.9
		c-0.5-0.3-1.1-0.7-1.5-1.1l0,0c-0.3-0.3-0.8-0.4-1.2-0.4h0c-2.4,0.5-4.9,0.6-7.3-0.1c-0.1,0-0.2-0.1-0.3-0.1
		c-1-0.3-1.9-0.8-2.8-1.4c-0.1-0.1-0.2-0.1-0.3-0.2c-1-0.8-2-1.7-2.7-2.8c0.5,1.2,1.3,2.4,2.2,3.4c0.5,0.5,1,1,1.5,1.4
		c0,0,0.1,0,0.1,0.1c0,0.1-0.1,0.2-0.2,0.4c-0.1,0.3-0.3,0.5-0.6,0.7c-0.1,0.1-0.2,0.1-0.2,0.2c-0.4,0.3-0.9,0.6-1.5,0.7
		c-0.7,0.2-1.5,0.2-2.3,0.1c-0.4-0.1-0.8-0.1-1.2-0.2l-1.2-0.3l1.1,0.7c0.4,0.2,0.8,0.4,1.2,0.6c0.8,0.3,1.7,0.6,2.6,0.7h0l-0.2,0.3
		c-2.8,0.6-5.6,1.7-7.9,3.5C10.1,171.2,8.8,162.5,15.7,153.4"/>
	<path class="st6" d="M128.8,146.7l10.3-5l3.8-12.3h-9.1l-4.3,14.1l-3.5,2.2l1.1,5.6l-4.7,15.5h-11.6l12.2-40l-4.3-6.5h35.1
		c0.3,0,0.6,0.1,0.9,0.3c0.3,0.2,0.6,0.4,0.8,0.7c0.2,0.3,0.4,0.6,0.6,0.9c0.2,0.3,0.2,0.6,0.2,0.8c0,0.2,0,0.4-0.1,0.4l-7.3,23.9
		l-18.4,8.9L128.8,146.7z"/>
	<path class="st6" d="M165.8,146l8.2-4l3-9.9h-7.2l-3.4,11.3l-2.8,1.8l0.8,4.5l-3.8,12.4h-9.2l9.8-32l-3.5-5.2h28.1
		c0.5,0,0.9,0.2,1.3,0.7c0.4,0.5,0.6,0.9,0.6,1.4c0,0.2,0,0.3,0,0.4l-5.9,19.1l-5.1,2.6l1.8,12.8l-9.4,4.3L165.8,146z"/>
	<path class="st6" d="M183.8,159.6l10.7-34.7h22.3c0.5,0,0.9,0.2,1.3,0.7c0.4,0.5,0.6,0.9,0.6,1.4c0,0.2,0,0.3,0,0.4l-10.6,34.7
		h-22.3c-0.5,0-0.9-0.2-1.3-0.7c-0.4-0.5-0.6-0.9-0.7-1.4C183.7,159.8,183.8,159.6,183.8,159.6 M201.5,132.1l-7,22.8h6.5l7-22.8
		H201.5z"/>
	<path class="st6" d="M230.3,166.8l12.2-40l-4.3-6.5h17.9l2.2,19.4l15-19.4h11.9l-14.2,46.5h-11.5l6-19.6l-5.7,7.8
		c0,0-0.1,0.1-0.2,0.2c-0.1,0.1-0.2,0.1-0.2,0.2c-0.2,0.2-0.4,0.4-0.5,0.4c-0.1,0.1-0.3,0.3-0.6,0.5l-8.8,6.3l-1.2-14.8l-0.4-0.8
		l-6.1,19.8H230.3z"/>
	<polygon class="st6" points="313,124.9 309.7,135.6 300.4,135.6 301.5,132.1 297.7,132.1 295.3,139.7 307.2,139.7 296.9,146.8 
		293.1,146.8 290.7,154.9 294.5,154.9 295.6,151.4 304.8,151.4 301.6,162.1 279.3,162.1 289.1,130.1 285.6,124.9 	"/>
	<path class="st6" d="M318.9,124.9h22.3c0.5,0,0.9,0.2,1.3,0.7c0.4,0.5,0.6,0.9,0.6,1.4c0,0.2,0,0.3,0,0.4l-4.3,13.9l-7.7-5.1
		l1.3-4.2h-6.5l-7,22.8h6.5l2.3-7.7l7.7,5.2l-3,9.7h-22.3c-0.5,0-0.9-0.2-1.3-0.7c-0.4-0.5-0.6-0.9-0.7-1.4c0-0.2,0-0.3,0.1-0.4
		L318.9,124.9z"/>
	<path class="st6" d="M338.6,162.1l9.8-32l-3.5-5.2h14.3l-4.2,13.6h-7l5.1,6.2l-5.3,17.5H338.6z M351.7,139.9h10.5l3-9.8l-3.5-5.2
		H376l-11.4,37.2h-9.2l4.6-15h-2.4L351.7,139.9z"/>
	<polygon class="st6" points="369.1,162.1 388.2,124.9 403.6,124.9 399.8,162.1 389.8,162.1 390,158.6 382.9,149.5 391.3,149.5 
		393,135.5 392.9,134.4 386.1,148.1 379.4,148.1 383.5,153.7 379.2,162.1 	"/>
	<polygon class="st6" points="403.8,162.1 413.6,130.1 410.1,124.9 423.9,124.9 427.3,139.9 431.9,124.9 441.1,124.9 429.8,161.7 
		424.3,165.6 418.5,143.9 413,162.1 	"/>
	<polygon class="st6" points="442.2,124.9 456.5,124.9 445.1,162.1 435.9,162.1 445.7,130.1 	"/>
	<path class="st6" d="M470.7,120.8l1.4,12.6l-7.7,9.4l1.6,10.5l-6.2,8.7h-10.1l13-18l-1.5-18.9L470.7,120.8z M480.6,124.9h10l-13,18
		l1.5,18.9l-9.5,4.3l-3.1-22.4L480.6,124.9z"/>
	<path class="st7" d="M174.8,190c0-0.7-0.1-2-2.1-2c-1.1,0-3,0.8-3.7,4c-0.4,2,0,3.9,2,3.9c1.3,0,2.4-0.7,3-2.1h2.4
		c-1,2.5-3,4.2-5.8,4.2c-3,0-4.8-2-3.9-6c0.8-4,3.6-6,6.5-6c3.4,0,4.3,2.3,4,4H174.8z"/>
	<path class="st7" d="M179,197.7h-2.5l6.5-11.3h2.7l1.6,11.3h-2.6l-0.2-2.3h-4.2L179,197.7z M181.3,193.4h2.9l-0.5-4.5h0
		L181.3,193.4z"/>
	<path class="st7" d="M191.2,186.3h5.7c3,0,3.1,2.2,2.9,3.2c-0.3,1.2-1.1,2.3-2.3,2.7c0.8,0.4,1.3,0.8,0.8,2.9
		c-0.4,1.7-0.4,2.1,0,2.3l-0.1,0.3h-2.6c0-0.5,0-1.1,0.2-2.3c0.3-1.5,0.4-2.2-1.4-2.2H192l-0.9,4.4h-2.3L191.2,186.3z M195.2,191.3
		c1.2,0,1.9-0.4,2.2-1.5c0.1-0.6,0-1.5-1.3-1.5h-3l-0.6,3H195.2z"/>
	<path class="st7" d="M207,194.2c-0.1,0.6-0.1,1.8,2,1.8c1.1,0,2.4-0.3,2.7-1.5c0.2-0.9-0.6-1.1-1.8-1.4l-1.2-0.3
		c-1.7-0.4-3.4-0.8-2.9-3.3c0.3-1.3,1.4-3.5,5.1-3.5c3.5,0,3.9,2.3,3.6,3.7h-2.3c0-0.5,0.1-1.7-2-1.7c-0.9,0-2,0.3-2.3,1.4
		c-0.2,0.9,0.5,1.1,0.9,1.2l2.6,0.7c1.5,0.4,2.8,1,2.3,3.1c-0.7,3.4-4.3,3.7-5.3,3.7c-4.1,0-4.3-2.4-4-3.8H207z"/>
	<polygon class="st7" points="225.4,188.3 219.4,188.3 218.9,190.7 224.4,190.7 224,192.7 218.5,192.7 217.9,195.7 224.1,195.7 
		223.7,197.7 215.1,197.7 217.5,186.3 225.9,186.3 	"/>
	<path class="st7" d="M228.1,186.3h5.7c3,0,3.1,2.2,2.9,3.2c-0.3,1.2-1.1,2.3-2.3,2.7c0.8,0.4,1.3,0.8,0.8,2.9
		c-0.4,1.7-0.4,2.1,0,2.3l-0.1,0.3h-2.6c0-0.5,0-1.1,0.2-2.3c0.3-1.5,0.4-2.2-1.4-2.2h-2.5l-0.9,4.4h-2.3L228.1,186.3z M232.1,191.3
		c1.2,0,1.9-0.4,2.2-1.5c0.1-0.6,0-1.5-1.3-1.5h-3l-0.6,3H232.1z"/>
	<polygon class="st7" points="245.2,186.3 247.7,186.3 241.4,197.7 239.2,197.7 237.8,186.3 240.3,186.3 240.9,194.9 241,194.9 	"/>
	<polygon class="st7" points="249,197.7 246.6,197.7 249,186.3 251.4,186.3 	"/>
	<path class="st7" d="M260.1,190c0-0.7-0.1-2-2.1-2c-1.1,0-3,0.8-3.7,4c-0.4,2,0,3.9,2,3.9c1.3,0,2.4-0.7,3-2.1h2.4
		c-1,2.5-3,4.2-5.8,4.2c-3,0-4.8-2-3.9-6c0.8-4,3.6-6,6.5-6c3.4,0,4.3,2.3,4,4H260.1z"/>
	<polygon class="st7" points="272.9,188.3 266.9,188.3 266.4,190.7 271.9,190.7 271.5,192.7 266,192.7 265.4,195.7 271.6,195.7 
		271.2,197.7 262.6,197.7 265,186.3 273.4,186.3 	"/>
	<path class="st7" d="M279.1,197.7h-2.5l6.5-11.3h2.7l1.6,11.3h-2.6l-0.2-2.3h-4.2L279.1,197.7z M281.5,193.4h2.9l-0.5-4.5h0
		L281.5,193.4z"/>
	<polygon class="st7" points="292.3,197.7 290,197.7 292,188.3 288.5,188.3 289,186.3 298.2,186.3 297.8,188.3 294.3,188.3 	"/>
	<polygon class="st7" points="305,197.7 302.6,197.7 303.5,193.4 301.1,186.3 303.9,186.3 305.2,191.2 308.5,186.3 311.2,186.3 
		305.9,193.4 	"/>
	<path class="st7" d="M316.5,186c1.5,0,5.3,0.6,4.2,6c-1.1,5.3-5.2,6-6.7,6c-1.5,0-5.3-0.6-4.2-6C310.9,186.7,315,186,316.5,186
		 M314.4,196c1.3,0,3.3-0.8,3.9-4c0.7-3.2-1-4-2.2-4c-1.3,0-3.3,0.8-3.9,4C311.5,195.2,313.1,196,314.4,196"/>
	<path class="st7" d="M331.3,193.7c-0.6,3-2.7,4.3-5.6,4.3c-1,0-2.5-0.3-3.3-1.4c-0.5-0.7-0.5-1.6-0.3-2.8l1.6-7.5h2.4l-1.6,7.4
		c-0.3,1.6,0.4,2.3,1.5,2.3c1.6,0,2.5-0.8,2.8-2.2l1.6-7.5h2.4L331.3,193.7z"/>
	<path class="st7" d="M335.2,186.3h5.7c3,0,3.1,2.2,2.9,3.2c-0.3,1.2-1.1,2.3-2.3,2.7c0.8,0.4,1.3,0.8,0.8,2.9
		c-0.4,1.7-0.4,2.1,0,2.3l-0.1,0.3h-2.6c0-0.5,0-1.1,0.2-2.3c0.3-1.5,0.4-2.2-1.4-2.2h-2.4l-0.9,4.4h-2.3L335.2,186.3z M339.3,191.3
		c1.2,0,1.9-0.4,2.2-1.5c0.1-0.6,0-1.5-1.3-1.5h-3l-0.6,3H339.3z"/>
	<polygon class="st7" points="351.4,195.6 357.1,195.6 356.6,197.7 348.6,197.7 351,186.3 353.4,186.3 	"/>
	<path class="st7" d="M365.7,186c1.5,0,5.3,0.6,4.2,6c-1.1,5.3-5.2,6-6.7,6c-1.5,0-5.3-0.6-4.2-6C360.1,186.7,364.2,186,365.7,186
		 M363.6,196c1.3,0,3.3-0.8,3.9-4c0.7-3.2-1-4-2.2-4c-1.3,0-3.3,0.8-3.9,4C360.7,195.2,362.3,196,363.6,196"/>
	<path class="st7" d="M379.4,190c0-0.7-0.1-2-2.1-2c-1.1,0-3,0.8-3.7,4c-0.4,2,0,3.9,2,3.9c1.3,0,2.4-0.7,3-2.1h2.4
		c-1,2.5-3,4.2-5.8,4.2c-3,0-4.8-2-3.9-6c0.8-4,3.6-6,6.5-6c3.4,0,4.3,2.3,4,4H379.4z"/>
	<path class="st7" d="M383.6,197.7h-2.5l6.5-11.3h2.7l1.6,11.3h-2.6l-0.2-2.3h-4.2L383.6,197.7z M385.9,193.4h2.9l-0.5-4.5h0
		L385.9,193.4z"/>
	<polygon class="st7" points="396.8,197.7 394.4,197.7 396.4,188.3 393,188.3 393.4,186.3 402.6,186.3 402.2,188.3 398.8,188.3 	"/>
	<polygon class="st7" points="403.8,197.7 401.4,197.7 403.8,186.3 406.2,186.3 	"/>
	<path class="st7" d="M413.4,186c1.5,0,5.3,0.6,4.2,6c-1.1,5.3-5.2,6-6.7,6s-5.3-0.6-4.2-6C407.8,186.7,411.9,186,413.4,186
		 M411.3,196c1.3,0,3.3-0.8,3.9-4c0.7-3.2-1-4-2.2-4c-1.3,0-3.3,0.8-3.9,4C408.4,195.2,410,196,411.3,196"/>
	<polygon class="st7" points="427.6,186.3 429.8,186.3 427.4,197.7 425.1,197.7 422.1,189.6 422.1,189.6 420.4,197.7 418.2,197.7 
		420.6,186.3 423.1,186.3 425.9,194.2 425.9,194.2 	"/>
	<path class="st7" d="M434.5,197.7h-2.3l0.5-2.2h2.3L434.5,197.7z M434.6,194.5h-1.2l0.5-5.3l0.6-2.9h2.4l-0.6,2.9L434.6,194.5z"/>
</g>
</svg>
