<?xml version="1.0" encoding="UTF-8"?>
<svg id="Layer_1" data-name="Layer 1" xmlns="http://www.w3.org/2000/svg" version="1.1" viewBox="0 0 500 300">
  <defs>
    <style>
      .cls-1 {
        fill: #58595b;
      }

      .cls-1, .cls-2, .cls-3, .cls-4 {
        stroke-width: 0px;
      }

      .cls-2 {
        fill: #7b7b7b;
      }

      .cls-3 {
        fill: #6abc45;
      }

      .cls-4 {
        fill: none;
      }
    </style>
  </defs>
  <rect class="cls-4" x="-44.6" y="-23.75" width="595.58" height="333.73"/>
  <g>
    <g>
      <g>
        <path class="cls-2" d="M198.98,235.96c0-3.31,1.41-5.33,5.57-5.33,2.1,0,8.43.44,10.53.65v2.3h-10.53c-2.58,0-2.58,1.01-2.58,2.38v1.86c0,2.22,1.09,2.3,2.58,2.3h6.37c3.51,0,5.25,2.18,5.25,5.2v1.98c0,4.4-2.66,5.16-5.25,5.16-1.98,0-9.52-.61-11.05-.77v-2.22h11.05s2.26.24,2.26-2.18v-1.98c0-1.41-.48-2.22-2.26-2.22h-6.37c-3.79,0-5.57-1.13-5.57-5.29v-1.86Z"/>
        <path class="cls-2" d="M218.99,231.52l3.99-.73.73-5.97h2.26v5.97h6.25v2.99h-6.25v10.81c0,3.51.93,4.32,2.3,4.64,0,0,3.31.85,3.59.85v2.14h-3.55c-3.11,0-5.33-1.94-5.33-7.62v-10.81h-3.99v-2.26Z"/>
        <path class="cls-2" d="M235.85,230.84h2.98v14.93c0,2.66,1.57,3.87,3.63,3.87,3.23,0,4.8-.81,7.91-2.3v-16.5h2.99v21.42h-2.1l-.89-2.5c-2.46,1.41-4.64,2.86-7.91,2.86-4.28,0-6.62-3.31-6.62-6.86v-14.93Z"/>
        <path class="cls-2" d="M265.25,230.52c1.81,0,5.32.56,7.91,1.61v-11.54h2.95v31.67h-2.14l-.81-2.38c-1.05.77-5.16,2.62-7.91,2.62-5.85,0-7.06-5.93-7.06-10.85,0-5.49.97-11.14,7.06-11.14ZM265.25,249.52c3.19,0,5.73-.97,7.91-1.86v-13.11c-2.78-.73-4.8-1.05-7.91-1.05-2.58,0-4.08,1.57-4.08,8.15,0,5.24,1.45,7.87,4.08,7.87Z"/>
        <path class="cls-2" d="M280.94,225.19c0-.61.32-1.01.97-1.01h2.02c.61,0,.93.44.93,1.01v2.18c0,.61-.36.93-.93.93h-2.02c-.57,0-.97-.36-.97-.93v-2.18ZM281.34,230.84h2.99v21.42h-2.99v-21.42Z"/>
        <path class="cls-2" d="M298.73,230.64c7.22,0,9.44,2.7,9.44,11.22,0,7.95-2.22,10.61-9.44,10.61s-9.44-2.95-9.44-10.61c0-8.75,2.42-11.22,9.44-11.22ZM298.73,249.48c4.36,0,6.45-.56,6.45-7.63,0-7.67-1.73-8.23-6.45-8.23s-6.46.52-6.46,8.23c0,7.14,2.3,7.63,6.46,7.63Z"/>
      </g>
      <g>
        <path class="cls-1" d="M57.62,178.04c-.02.07-.03.14-.05.21-1.72,6.92-8.64,12.5-15.56,12.5h-13.14l4.96-9.39h10.1c1.98,0,3.89-1.55,4.33-3.53l1.7-7.49c.45-1.98-.75-3.53-2.73-3.53h-16.6l-8.71,38.28h-9.32l10.85-47.68h26.13c6.92,0,11.3,5.58,9.87,12.5-.02.07-.03.14-.05.21l-1.8,7.91ZM57.57,178.25l.05-.21c-.02.07-.03.14-.05.21ZM59.41,170.13l.05-.21c-.02.07-.03.14-.05.21Z"/>
        <path class="cls-1" d="M99.56,192.38c-1.59,6.99-8.61,12.71-15.61,12.71h-26.13l4.95-9.32h23.1c1.98,0,3.9-1.62,4.34-3.53l.63-2.75c.45-1.98-.75-3.53-2.73-3.53h-13.21c-6.99,0-11.41-5.72-9.82-12.71l.71-3.11c1.59-6.99,8.61-12.71,15.61-12.71h22.6l-4.96,9.39h-19.63c-1.91,0-3.89,1.55-4.33,3.53l-.61,2.68c-.45,1.98.82,3.53,2.73,3.53h13.28c6.99,0,11.41,5.72,9.82,12.71l-.71,3.11Z"/>
        <path class="cls-1" d="M129.46,182.7l-5.1,22.39h-9.39l5.75-25.29,2.93-3.25h-6.29l-8.43-19.14h11.23l6.81,15.4,13.88-15.4h11.23l-22.63,25.29Z"/>
        <path class="cls-1" d="M179.46,195.77l-2.12,9.32h-19.85c-6.99,0-11.41-5.72-9.82-12.71l5.06-22.25c1.59-6.99,8.61-12.71,15.61-12.71h19.85l-4.96,9.39h-16.88c-1.91,0-3.88,1.55-4.33,3.53l-4.98,21.9c-.43,1.91.82,3.53,2.73,3.53h19.71Z"/>
        <path class="cls-1" d="M195.71,205.09c-6.99,0-11.41-5.72-9.82-12.71l7.96-34.96h9.32l-7.92,34.82c-.43,1.91.82,3.53,2.73,3.53h14.41l.7,9.32h-17.37Z"/>
        <path class="cls-1" d="M256.31,176.55l-2.14,9.39h-23.87l-1.43,6.29c-.43,1.91.82,3.53,2.73,3.53h20.34l-2.12,9.32h-20.48c-6.99,0-11.41-5.72-9.82-12.71l5.06-22.25c1.59-6.99,8.61-12.71,15.61-12.71h20.48l-4.96,9.39h-17.52c-1.91,0-3.88,1.55-4.33,3.53l-2.49,10.95,5.81-4.73h19.14Z"/>
        <path class="cls-1" d="M313.04,205.09h-9.39l4.36-19.14h-16.6l-4.36,19.14h-9.32l10.85-47.68h9.32l-5.43,23.87,5.81-4.73h11.87l4.36-19.14h9.39l-10.85,47.68Z"/>
        <path class="cls-1" d="M365.14,170.13l-5.06,22.25c-1.59,6.99-8.61,12.71-15.61,12.71h-12.01c-6.99,0-11.41-5.72-9.82-12.71l5.06-22.25c1.59-6.99,8.61-12.71,15.61-12.71h12.01c6.99,0,11.41,5.72,9.82,12.71ZM355.7,170.34c.45-1.98-.75-3.53-2.73-3.53h-11.65c-1.91,0-3.88,1.55-4.33,3.53l-4.98,21.9c-.43,1.91.82,3.53,2.73,3.53h11.65c1.98,0,3.9-1.62,4.34-3.53l4.98-21.9Z"/>
        <path class="cls-1" d="M402.11,192.38c-1.59,6.99-8.61,12.71-15.61,12.71h-9.89c-6.99,0-11.41-5.72-9.82-12.71l7.96-34.96h9.32l-7.92,34.82c-.43,1.91.82,3.53,2.73,3.53h9.53c1.98,0,3.9-1.62,4.34-3.53l7.92-34.82h9.39l-7.96,34.96Z"/>
        <path class="cls-1" d="M447.67,192.38c-1.59,6.99-8.61,12.71-15.61,12.71h-26.13l4.95-9.32h23.1c1.98,0,3.9-1.62,4.34-3.53l.63-2.75c.45-1.98-.75-3.53-2.73-3.53h-13.21c-6.99,0-11.41-5.72-9.82-12.71l.71-3.11c1.59-6.99,8.61-12.71,15.61-12.71h22.6l-4.96,9.39h-19.63c-1.91,0-3.88,1.55-4.33,3.53l-.61,2.68c-.45,1.98.82,3.53,2.73,3.53h13.28c6.99,0,11.41,5.72,9.82,12.71l-.71,3.11Z"/>
        <path class="cls-1" d="M489.42,176.55l-2.14,9.39h-23.87l-1.43,6.29c-.43,1.91.82,3.53,2.73,3.53h20.34l-2.12,9.32h-20.48c-6.99,0-11.41-5.72-9.82-12.71l5.06-22.25c1.59-6.99,8.61-12.71,15.61-12.71h20.48l-4.96,9.39h-17.52c-1.91,0-3.89,1.55-4.33,3.53l-2.49,10.95,5.81-4.73h19.14Z"/>
      </g>
    </g>
    <g>
      <g>
        <path class="cls-3" d="M245.33,62.54h.02s-.02,0-.02,0Z"/>
        <path class="cls-3" d="M274.89,40.53c-6.15-6.64-15.2-6.83-23.14-6.85h-41.51s-7.14,13.65-7.14,13.65h44.56c4.38.07,6.44.48,8.13,2.26,1.26,1.28,1.55,2.82,1.61,3.33.63,4.88-2.96,8.25-7.57,9.23-1.27.3-2.48.34-3.8.36h0s-29.66,0-29.66,0l-7.45,32.03,23.08.02,4.22-18.03s12.08.01,13.34,0c7.8-.06,15.37-.41,21.45-5.03,5.99-4.5,9.65-12.94,8.67-20.56-.68-5.31-3.22-8.81-4.8-10.42Z"/>
      </g>
      <g>
        <polygon class="cls-3" points="299.95 62.52 292.64 94.57 276.43 94.57 269.1 108.8 289.35 108.79 284.56 128.81 308.71 128.81 324.08 62.52 299.95 62.52"/>
        <path class="cls-3" d="M250.44,83.4h-1.87s-10.54,45.41-10.54,45.41h24l11.65-50.29c-7.12,4.32-15.35,4.81-23.24,4.87Z"/>
      </g>
    </g>
  </g>
</svg>