<?xml version="1.0" encoding="UTF-8"?>
<svg id="Layer_1" data-name="Layer 1" xmlns="http://www.w3.org/2000/svg" viewBox="0 0 200 200">
  <defs>
    <style>
      .cls-1 {
        fill: #1d252c;
      }

      .cls-2 {
        fill: #e3e3e4;
      }

      .cls-3 {
        fill: #db0032;
      }
    </style>
  </defs>
  <g>
    <rect class="cls-1" x="10.02" y="27.82" width="179.95" height="144.36" rx="22.38" ry="22.38"/>
    <path class="cls-3" d="M28.48,27.82h143.02c10.19,0,18.47,8.27,18.47,18.47v3.38H10.02v-3.38c0-10.19,8.27-18.47,18.47-18.47h-.01Z"/>
    <circle class="cls-1" cx="37.7" cy="40.51" r="4.19"/>
    <circle class="cls-2" cx="51.63" cy="40.51" r="4.19"/>
    <circle class="cls-2" cx="65.56" cy="40.51" r="4.19"/>
  </g>
  <path class="cls-3" d="M103.15,96.93h-6.66c-2.16,0-3.91,1.75-3.91,3.92v28.78c0,2.16,1.75,3.91,3.91,3.91h6.66c2.16,0,3.91-1.75,3.91-3.91v-28.78c0-2.17-1.75-3.92-3.91-3.92ZM73.84,96.93h-6.66c-2.14,0-3.91,1.75-3.91,3.92v28.78c0,2.16,1.77,3.91,3.91,3.91h6.66c2.16,0,3.91-1.76,3.91-3.91v-28.78c0-2.16-1.75-3.92-3.91-3.92ZM132.45,96.93h-6.66c-2.16,0-3.9,1.75-3.9,3.92v28.78c0,2.16,1.75,3.91,3.9,3.91h6.66c2.16,0,3.9-1.75,3.9-3.91v-28.78c0-2.17-1.75-3.92-3.9-3.92ZM149.69,85.7l-48.98-19.12c-.57-.17-1.19-.17-1.76,0l-49.01,19.12c-1.38.39-2.23,1.64-2.01,2.94.22,1.3,1.46,2.26,2.89,2.26h97.98c1.45,0,2.69-.96,2.9-2.26.22-1.3-.63-2.55-2.02-2.94ZM152.1,147.91v-5.58c0-2.14-1.76-3.91-3.91-3.91H52.17c-2.16,0-3.91,1.77-3.91,3.91v5.58c0,2.16,1.75,3.91,3.91,3.91h96.02c2.16,0,3.91-1.75,3.91-3.91Z"/>
</svg>