<?xml version="1.0" encoding="UTF-8"?>
<svg id="Layer_1" data-name="Layer 1" xmlns="http://www.w3.org/2000/svg" viewBox="0 0 200 200">
  <defs>
    <style>
      .cls-1 {
        fill: #1d252c;
      }

      .cls-2 {
        fill: #e3e3e4;
      }

      .cls-3, .cls-4 {
        fill: #db0032;
      }

      .cls-4 {
        font-family: Aeonik-Black, Aeonik;
        font-size: 48.17px;
        font-weight: 800;
      }
    </style>
  </defs>
  <path class="cls-1" d="M8.2,55.3h159.87v90.96c0,4.99-4.05,9.04-9.04,9.04H17.23c-4.99,0-9.04-4.05-9.04-9.04V55.3h0Z"/>
  <path class="cls-3" d="M14.52,44.7h147.21c3.5,0,6.33,2.84,6.33,6.33v4.89H8.2v-4.89c0-3.5,2.84-6.33,6.33-6.33Z"/>
  <circle class="cls-1" cx="158.97" cy="50.3" r="2.75"/>
  <circle class="cls-2" cx="151.16" cy="50.3" r="2.75"/>
  <circle class="cls-2" cx="142.36" cy="50.3" r="2.75"/>
  <g>
    <path class="cls-3" d="M144.14,105.8l3.17,1.63c.17,1.63.53,3.23,1.08,4.76l-2.18,2.89c-.63.84-.61,1.99.04,2.79l4.34,5.42c.44.55,1.08.85,1.78.85.33,0,.65-.07.94-.21l3.35-1.52c1.26.79,2.62,1.43,4.03,1.92l.89,3.5c.26,1.01,1.16,1.72,2.21,1.72h3.46v-4.56h-1.69l-.78-3.02c-.2-.8-.83-1.42-1.61-1.64-1.79-.49-3.46-1.28-4.97-2.38-.65-.46-1.55-.56-2.28-.23l-2.89,1.31-2.13-2.65,1.88-2.5c.5-.66.6-1.54.27-2.29-.8-1.8-1.23-3.73-1.3-5.71-.03-.83-.5-1.57-1.23-1.95l-2.73-1.41.77-3.32,3.12-.07c.82-.02,1.56-.48,1.95-1.19.88-1.62,2.04-3.07,3.44-4.29.62-.54.89-1.36.74-2.16l-.62-3.1,3.07-1.47,1.99,2.39c.53.63,1.36.93,2.17.79.92-.17,1.89-.26,2.84-.26v-4.56c-.79,0-1.57.05-2.34.14l-2.31-2.76c-.44-.52-1.07-.82-1.75-.82-.34,0-.68.08-.98.22l-6.27,2.99c-.94.45-1.46,1.48-1.25,2.51l.72,3.6c-1.05,1.04-1.99,2.22-2.78,3.47l-3.63.09c-1.04.03-1.94.76-2.17,1.77l-1.56,6.77c-.24,1.01.25,2.06,1.18,2.53h.02Z"/>
    <path class="cls-3" d="M155.88,105.33c0,6.28,5.11,11.39,11.39,11.39h0v-4.26h0c-3.93,0-7.13-3.19-7.13-7.13s3.19-7.12,7.13-7.12h0v-4.26h0c-6.28,0-11.39,5.11-11.39,11.39h0Z"/>
  </g>
  <g>
    <path class="cls-1" d="M190.53,106.06l-3.2,1.65c-.17,1.65-.53,3.27-1.1,4.81l2.2,2.92c.63.84.61,2.01-.04,2.82l-4.39,5.48c-.44.55-1.1.86-1.8.86-.33,0-.65-.07-.95-.21l-3.39-1.54c-1.28.79-2.65,1.45-4.07,1.94l-.9,3.54c-.26,1.02-1.18,1.74-2.23,1.74h-3.5v-4.61h1.71l.78-3.05c.2-.8.83-1.44,1.63-1.66,1.81-.49,3.5-1.3,5.02-2.4.65-.46,1.57-.56,2.3-.23l2.92,1.33,2.15-2.68-1.9-2.52c-.5-.66-.6-1.56-.27-2.31.8-1.82,1.25-3.77,1.32-5.77.03-.83.5-1.59,1.25-1.97l2.76-1.43-.77-3.36-3.15-.07c-.82-.02-1.58-.48-1.97-1.21-.89-1.64-2.06-3.1-3.48-4.34-.62-.54-.9-1.38-.74-2.18l.62-3.14-3.1-1.49-2.01,2.41c-.53.63-1.38.94-2.19.79-.93-.17-1.91-.26-2.87-.26v-4.61c.79,0,1.59.05,2.36.14l2.33-2.79c.44-.52,1.09-.82,1.77-.82.34,0,.68.08.99.22l6.34,3.02c.95.45,1.48,1.5,1.27,2.53l-.72,3.64c1.06,1.05,2.01,2.24,2.81,3.51l3.67.09c1.05.03,1.96.76,2.19,1.79l1.58,6.84c.24,1.02-.25,2.08-1.2,2.56l-.02.02Z"/>
    <path class="cls-1" d="M178.67,105.59c0,6.35-5.16,11.51-11.51,11.51h0v-4.31h0c3.97,0,7.2-3.23,7.2-7.2s-3.23-7.2-7.2-7.2h0v-4.31h0c6.35,0,11.51,5.16,11.51,11.51Z"/>
  </g>
  <g>
    <text class="cls-4" transform="translate(25.49 106.35)"><tspan x="0" y="0">API</tspan></text>
    <rect class="cls-2" x="25.49" y="117.2" width="76.87" height="6.86"/>
    <rect class="cls-2" x="25.49" y="129.86" width="76.87" height="6.86"/>
  </g>
</svg>