<?xml version="1.0" encoding="UTF-8"?>
<svg id="Layer_1" data-name="Layer 1" xmlns="http://www.w3.org/2000/svg" viewBox="0 0 200 200">
  <defs>
    <style>
      .cls-1 {
        fill: #1d252c;
      }

      .cls-2 {
        fill: #db0032;
      }
    </style>
  </defs>
  <path class="cls-1" d="M121,100c0,.23,0,.46-.01.69-.35,11-9.3,19.95-20.3,20.3-11.91.38-21.68-9.16-21.68-20.99H23v10.24c0,3.62,2.94,6.56,6.56,6.56h8.67c1.44,5.31,3.54,10.34,6.21,15l-6.13,6.13c-2.56,2.56-2.56,6.71,0,9.28l14.49,14.49c2.56,2.56,6.71,2.56,9.28,0l6.13-6.13c4.66,2.68,9.69,4.77,15,6.21v8.67c0,3.62,2.94,6.56,6.56,6.56h20.48c3.63,0,6.56-2.94,6.56-6.56v-8.67c5.31-1.44,10.34-3.54,15-6.21l6.13,6.13c2.56,2.56,6.72,2.56,9.28,0l14.49-14.49c2.56-2.56,2.56-6.71,0-9.28l-6.13-6.13c2.68-4.66,4.78-9.7,6.21-15h8.67c3.62,0,6.56-2.94,6.56-6.56v-10.24h-56.01Z"/>
  <g>
    <rect class="cls-2" x="91.24" y="68.24" width="17.52" height="14.93" rx="1.76" ry="1.76"/>
    <rect class="cls-2" x="91.24" y="23" width="17.52" height="14.93" rx="1.76" ry="1.76"/>
    <path class="cls-2" d="M81.45,54.09h-13.76v-14.39c0-1.3-1.05-2.35-2.35-2.35h-18.74c-1.3,0-2.35,1.05-2.35,2.35v15.28c0,1.3,1.05,2.35,2.35,2.35h17.4v10.06h-17.4c-1.3,0-2.35,1.05-2.35,2.35v15.28c0,1.3,1.05,2.35,2.35,2.35h18.74c1.3,0,2.35-1.05,2.35-2.35v-14.39h13.76c1.08,0,1.95-.87,1.95-1.95v-12.64c0-1.08-.87-1.95-1.95-1.95Z"/>
    <path class="cls-2" d="M152.97,57.32c1.3,0,2.35-1.05,2.35-2.35v-15.28c0-1.3-1.05-2.35-2.35-2.35h-18.74c-1.3,0-2.35,1.05-2.35,2.35v14.39h-13.76c-1.08,0-1.95.87-1.95,1.95v12.64c0,1.08.87,1.95,1.95,1.95h13.76v14.39c0,1.3,1.05,2.35,2.35,2.35h18.74c1.3,0,2.35-1.05,2.35-2.35v-15.28c0-1.3-1.05-2.35-2.35-2.35h-17.4v-10.06h17.4Z"/>
  </g>
</svg>