<?xml version="1.0" encoding="UTF-8"?>
<svg id="Layer_1" data-name="Layer 1" xmlns="http://www.w3.org/2000/svg" viewBox="0 0 200 200">
  <defs>
    <style>
      .cls-1 {
        fill: #1d252c;
      }

      .cls-2 {
        fill: #e3e3e4;
      }

      .cls-3 {
        fill-rule: evenodd;
      }

      .cls-3, .cls-4 {
        fill: #db0032;
      }
    </style>
  </defs>
  <path class="cls-1" d="M166.81,74.41V22.62c0-2.76-2.42-5-5.41-5H28.96c-2.99,0-5.41,2.24-5.41,5v154.75c0,2.76,2.42,5,5.41,5h132.44c2.99,0,5.41-2.24,5.41-5v-102.97Z"/>
  <g>
    <g>
      <polygon class="cls-3" points="71.42 42.24 26.24 68.55 46.14 80.13 91.34 53.83 71.42 42.24"/>
      <polygon class="cls-3" points="96.71 56.96 51.52 83.26 71.42 94.85 116.61 68.55 96.71 56.96"/>
      <path class="cls-3" d="M68.71,99.54l-19.86-11.57v16.25c0,1.49-1.22,2.7-2.71,2.7s-2.71-1.21-2.71-2.7v-19.4l-19.88-11.57v51.65l45.16,26.29v-51.65Z"/>
      <path class="cls-3" d="M74.12,99.54v51.65l16.66-9.69-.99-1.71c-1.31-2.28-.53-5.2,1.75-6.51l4.31-2.49c-.2-1.27-.31-2.56-.31-3.86s.11-2.59.31-3.86l-4.31-2.49c-1.1-.64-1.9-1.66-2.23-2.9-.33-1.23-.17-2.51.48-3.61l3.44-5.95c1.31-2.28,4.23-3.06,6.5-1.75l4.33,2.49c2.01-1.65,4.25-2.95,6.68-3.86v-4.98c0-2.63,2.14-4.77,4.77-4.77h3.77v-22.01l-45.16,26.29Z"/>
    </g>
    <g>
      <path class="cls-2" d="M92.12,126.16l-.23-5.21c-.03-.77-.44-1.48-1.1-1.89-1.42-.88-2.86-1.77-4.36-2.69-1.03-.64-1.51-1.89-1.16-3.05l.94-3.1.77-2.55c.36-1.16,1.44-1.93,2.65-1.89l5.6.21c.68.03,1.34-.25,1.8-.74l3.79-4.07c.56-.59.76-1.45.55-2.23l-1.83-6.71c-.3-1.08.21-2.21,1.2-2.72l5.25-2.69c.98-.5,2.17-.27,2.88.57l4.48,5.28c.42.5,1.05.81,1.7.83l5.47.21c.85.03,1.65-.39,2.1-1.12l3.91-6.38c.54-.9,1.7-1.33,2.74-.98l5.1,1.72c.99.34,1.63,1.28,1.6,2.31l-.29,7.65c-.03.72.27,1.4.81,1.86l4.19,3.62c.6.51,1.4.69,2.15.49l6.77-1.83c1.09-.3,2.23.22,2.74,1.23l2.68,5.37c.49.97.24,2.14-.59,2.84l-5.35,4.51c-.5.43-.82,1.05-.84,1.72l-.2,5.32c-.03.83.38,1.62,1.08,2.07l6.4,4.09c.92.59,1.32,1.73.95,2.76l-1.9,5.4c-.34.97-1.28,1.61-2.31,1.57l-7.72-.29c-.7-.03-1.37.26-1.84.78l-3.36,3.74c-.52.58-.73,1.39-.52,2.15l1.74,6.84c.27,1.05-.23,2.16-1.2,2.67l-5.26,2.72c-.98.51-2.18.27-2.9-.57l-4.39-5.17c-.42-.5-1.05-.81-1.7-.83l-5.54-.21c-.83-.03-1.62.38-2.06,1.08l-4.04,6.3c-.57.87-1.71,1.28-2.73.93l-5.39-1.87c-.97-.34-1.61-1.28-1.57-2.31l.29-7.73c.03-.68-.25-1.34-.74-1.8l-3.72-3.47c-.57-.53-1.41-.74-2.19-.53l-6.84,1.83c-1.07.28-2.19-.21-2.69-1.19l-2.71-5.23c-.48-.92-.26-2.11.55-2.82l5.57-4.9c.54-.48.85-1.18.8-1.9h.01ZM139.29,122.23c.33-10.4-8-19.35-18.44-19.78-10.43-.43-19.39,7.77-19.95,18.25-.58,10.73,8.02,19.96,18.81,20.2,10.37.23,19.24-8.24,19.59-18.67Z"/>
      <path class="cls-4" d="M137.36,154l-.38-3.13c-.05-.47-.34-.87-.75-1.08-.9-.46-1.81-.93-2.76-1.42-.65-.34-1-1.07-.84-1.78l.42-1.91.35-1.57c.15-.71.78-1.24,1.51-1.27l3.38-.14c.42-.02.8-.21,1.05-.54l2.08-2.63c.3-.38.39-.9.23-1.37l-1.42-3.95c-.23-.64.02-1.35.6-1.7l3.04-1.87c.57-.35,1.3-.26,1.77.21l2.95,2.97c.28.28.67.43,1.06.42l3.3-.13c.51-.02.98-.31,1.21-.78l2.05-4.02c.29-.57.96-.88,1.61-.72l3.16.8c.61.15,1.04.69,1.06,1.32l.19,4.62c.02.43.24.83.57,1.09l2.7,1.98c.38.28.87.36,1.32.19l3.99-1.42c.65-.23,1.36.03,1.71.61l1.87,3.11c.34.56.24,1.27-.22,1.74l-3.01,2.97c-.29.28-.44.67-.42,1.08l.13,3.21c.02.5.3.96.76,1.2l4.05,2.16c.58.31.87.98.71,1.62l-.89,3.34c-.16.6-.69,1.03-1.32,1.05l-4.66.18c-.42.02-.81.22-1.07.55l-1.84,2.41c-.29.37-.37.87-.21,1.32l1.37,4.04c.21.62-.04,1.31-.6,1.66l-3.04,1.88c-.57.35-1.31.26-1.78-.21l-2.9-2.91c-.28-.28-.67-.43-1.06-.42l-3.35.14c-.5.02-.95.3-1.19.74l-2.15,3.98c-.3.56-.97.86-1.6.68l-3.33-.87c-.61-.16-1.03-.69-1.06-1.32l-.2-4.67c-.02-.41-.21-.8-.54-1.05l-2.41-1.91c-.37-.29-.88-.38-1.35-.21l-4.04,1.43c-.64.22-1.33-.03-1.68-.59l-1.87-3.03c-.33-.53-.25-1.26.19-1.72l3.13-3.21c.3-.31.45-.75.39-1.18h.02ZM165.61,149.41c-.29-6.29-5.74-11.28-12.05-11.04-6.3.24-11.32,5.6-11.16,11.94.16,6.48,5.78,11.65,12.29,11.28,6.26-.36,11.21-5.88,10.92-12.18h.01Z"/>
    </g>
  </g>
</svg>