<?xml version="1.0" encoding="UTF-8"?>
<svg id="Layer_1" data-name="Layer 1" xmlns="http://www.w3.org/2000/svg" viewBox="0 0 200 200">
  <defs>
    <style>
      .cls-1 {
        fill: #1d252c;
      }

      .cls-2 {
        fill: #e3e3e4;
      }

      .cls-3 {
        fill: #db0032;
      }
    </style>
  </defs>
  <g>
    <rect class="cls-1" x="17.42" y="33.75" width="165.16" height="132.5" rx="20.54" ry="20.54"/>
    <path class="cls-3" d="M34.37,33.75h131.27c9.35,0,16.95,7.59,16.95,16.95v3.1H17.42v-3.1c0-9.35,7.59-16.95,16.95-16.95Z"/>
    <circle class="cls-1" cx="42.83" cy="45.4" r="3.85"/>
    <circle class="cls-2" cx="55.62" cy="45.4" r="3.85"/>
    <circle class="cls-2" cx="68.4" cy="45.4" r="3.85"/>
  </g>
  <path class="cls-2" d="M95.73,144.2l-4.8.4c-.71.05-1.35.46-1.7,1.08-.76,1.34-1.53,2.7-2.34,4.11-.56.98-1.69,1.46-2.78,1.18l-2.89-.76-2.38-.62c-1.08-.29-1.83-1.26-1.83-2.38v-5.18c0-.63-.28-1.23-.75-1.64l-3.89-3.35c-.57-.49-1.36-.65-2.08-.43l-6.13,1.92c-.99.31-2.05-.12-2.55-1.02l-2.67-4.76c-.49-.89-.32-1.99.43-2.68l4.71-4.32c.45-.41.71-1,.71-1.6v-5.06c0-.78-.42-1.51-1.1-1.9l-6.02-3.39c-.85-.47-1.29-1.52-1-2.5l1.41-4.77c.28-.92,1.13-1.55,2.08-1.55h7.07c.66,0,1.29-.3,1.69-.81l3.19-4c.45-.57.59-1.32.38-2l-1.93-6.18c-.31-1,.13-2.07,1.04-2.57l4.86-2.66c.88-.48,1.97-.3,2.65.45l4.35,4.78c.42.45,1,.72,1.62.72h4.92c.77,0,1.48-.41,1.88-1.07l3.56-6.05c.51-.87,1.55-1.28,2.52-.98l5.05,1.56c.91.28,1.53,1.13,1.53,2.08v7.14c0,.64.29,1.25.78,1.67l3.57,2.97c.56.46,1.31.62,2,.41l6.26-1.84c.96-.29,2,.14,2.51,1.02l2.69,4.76c.5.89.32,2-.43,2.7l-4.62,4.23c-.45.41-.71,1-.71,1.6v5.12c0,.77.41,1.48,1.07,1.86l5.96,3.51c.83.49,1.24,1.53.95,2.49l-1.54,5.04c-.28.91-1.13,1.53-2.08,1.53h-7.15c-.63,0-1.23.28-1.64.75l-3.08,3.56c-.47.55-.63,1.33-.42,2.04l1.93,6.25c.3.98-.12,2.03-1.01,2.53l-4.74,2.68c-.84.47-1.94.31-2.63-.41l-4.71-4.97c-.46-.48-1.11-.74-1.78-.68h-.01ZM90.46,100.79c-9.61.05-17.58,8.06-17.62,17.71-.03,9.64,7.84,17.63,17.54,17.79,9.92.16,18.15-8.1,17.99-18.07-.15-9.58-8.27-17.48-17.92-17.43Z"/>
  <path class="cls-3" d="M119.86,101.47l-2.87.46c-.43.06-.79.34-.98.73-.4.85-.79,1.7-1.21,2.59-.29.61-.95.96-1.62.84l-1.78-.32-1.46-.27c-.66-.12-1.17-.68-1.22-1.35l-.25-3.12c-.03-.39-.23-.73-.54-.95l-2.5-1.83c-.36-.27-.85-.33-1.28-.16l-3.6,1.45c-.58.24-1.24.03-1.59-.49l-1.83-2.74c-.34-.51-.29-1.19.13-1.64l2.64-2.83c.25-.27.38-.63.35-1l-.24-3.04c-.03-.47-.32-.89-.76-1.09l-3.78-1.76c-.54-.25-.85-.86-.72-1.46l.63-2.95c.12-.57.6-.99,1.18-1.03l4.25-.33c.4-.03.76-.25.99-.57l1.74-2.56c.25-.36.3-.81.13-1.22l-1.45-3.63c-.24-.59-.02-1.25.5-1.6l2.81-1.83c.5-.33,1.17-.27,1.62.14l2.85,2.68c.27.26.63.39,1.01.35l2.96-.24c.46-.03.88-.31,1.08-.74l1.85-3.81c.27-.55.88-.84,1.47-.71l3.12.71c.56.13.98.6,1.02,1.18l.33,4.3c.03.39.24.74.55.96l2.29,1.62c.35.26.81.31,1.22.15l3.69-1.4c.57-.21,1.21-.01,1.55.49l1.84,2.74c.34.51.29,1.2-.13,1.65l-2.58,2.78c-.25.27-.38.63-.35,1l.25,3.09c.03.46.31.87.73,1.07l3.75,1.84c.53.26.83.87.69,1.46l-.69,3.11c-.13.57-.6.98-1.18,1.03l-4.31.34c-.38.03-.73.23-.95.54l-1.68,2.29c-.26.35-.32.83-.15,1.25l1.46,3.68c.23.58.02,1.23-.48,1.58l-2.73,1.83c-.48.32-1.16.28-1.6-.12l-3.08-2.78c-.3-.27-.71-.39-1.1-.32v-.02ZM114.64,75.55c-5.8.48-10.21,5.69-9.77,11.51.44,5.81,5.56,10.25,11.41,9.89,5.98-.38,10.55-5.74,9.99-11.73-.55-5.76-5.82-10.15-11.63-9.65h0Z"/>
</svg>