<?xml version="1.0" encoding="UTF-8"?>
<svg id="Layer_1" data-name="Layer 1" xmlns="http://www.w3.org/2000/svg" xmlns:xlink="http://www.w3.org/1999/xlink" version="1.1" viewBox="0 0 500 200">
  <defs>
    <style>
      .cls-1 {
        clip-path: url(#clippath);
      }

      .cls-2 {
        fill: none;
      }

      .cls-2, .cls-3, .cls-4, .cls-5 {
        stroke-width: 0px;
      }

      .cls-3 {
        fill: #7296c6;
      }

      .cls-4 {
        fill: #373a3c;
      }

      .cls-5 {
        fill: #004a98;
      }
    </style>
    <clipPath id="clippath">
      <rect class="cls-2" x="111.56" y="27.23" width="276.89" height="146.28"/>
    </clipPath>
  </defs>
  <g class="cls-1">
    <g>
      <path class="cls-3" d="M249.94,153.61c-12.96,4.74-27.13,4.96-40.23.6-13.1-4.36-24.36-13.03-31.99-24.62l-8.23-3.62c7.85,15.51,21.34,27.34,37.65,33.03,16.31,5.68,34.17,4.77,49.82-2.54l-7.03-2.85Z"/>
      <path class="cls-3" d="M228.96,32.58c10.07,0,19.98,2.49,28.87,7.26,8.89,4.77,16.48,11.67,22.11,20.09l6.57.52c-5.3-9.09-12.63-16.8-21.42-22.51-8.79-5.71-18.78-9.25-29.17-10.35-10.39-1.1-20.9.28-30.66,4.03-9.77,3.75-18.53,9.76-25.57,17.54l8.27-.72c11.26-10.22,25.87-15.87,41.01-15.86Z"/>
      <path class="cls-5" d="M298.12,63.38c1.28.12,2.56.27,3.84.42l2.98.38c2.3.29,4.6.6,6.9.93l2.31.33c-.55-.09-1.11-.28-1.65-.42l-1.68-.43-3.37-.83c-2.23-.55-4.46-1.07-6.7-1.55h-.07c-2.05-.46-4.1-.87-6.13-1.28-2.02-.4-4.02-.78-6.04-1.15s-4.05-.71-6.08-1.03c-2.03-.32-4.06-.66-6.1-.96s-4.06-.6-6.09-.87c-2.04-.27-4.03-.52-6.05-.78-2.02-.26-3.99-.48-6-.7-2-.22-3.94-.43-5.92-.63-1.97-.2-3.88-.38-5.81-.55-1.94-.17-3.79-.33-5.69-.48s-3.69-.28-5.53-.41c-1.85-.13-3.59-.24-5.36-.35l-5.15-.29-4.94-.23c-1.56-.07-3.12-.13-4.69-.19-1.47-.06-2.94-.1-4.41-.14-1.37-.04-2.73-.07-4.1-.1-1.27-.03-2.53-.04-3.8-.06h-6.54c-.9,0-1.8,0-2.7.04-.76,0-1.54.04-2.29.06-.62,0-1.24.05-1.85.08h-.17c-18.77,1.12-34.73,3.89-36.63,4.45-1.5.4-.39,1.33-.39,1.33l17.77,9.4c-1.73-.4-3.5-.79-5.29-1.18-12.73-3.19-26.08-5.75-34.61-6.37-.2-.01-.4-.01-.59,0-7.85.24-10.67,4.49-11.02,5.77-9.61,3.06-6.62,9.39-5.99,10.47.11-.49.28-.96.51-1.4,10.65,1.27,23.18,6.73,26.51,8.75,1.16,24.27,18.91,34.15,36.25,41.61,72.08,31.12,114.69,44.98,126.63,48.48l-19.51-8.01c-9.62-4.07-24.31-10.13-41.75-17.32-2.65-1.07-5.15-2.13-7.54-3.2l18.24-2.94c-39.44-11.38-62.03-25.65-61.19-42.5.99-20.12,35.49-34.15,79.6-36.74l1.03-.03,2.78-.06c1.39,0,2.78-.04,4.17-.04h5.17c1.93,0,3.86.06,5.79.13,2.01.07,4.02.16,6.03.28.94.11,1.93.2,2.9.29ZM128.28,64.62c-2.33.25-4.62.77-6.83,1.55-.08,0-.09-.06,0-.12,1.35-1,.16-1.17,2.3-1.8.78-.2,2.48-.32,5.54.16-.34.02-.68.09-1,.21Z"/>
      <path class="cls-4" d="M233.89,125.63c-.73,0-1.45-.12-2.15-.35-.66-.21-1.28-.56-1.79-1.03-.51-.46-.91-1.04-1.17-1.69-.18-.5-.27-1.02-.26-1.55,0-.27.02-.53.06-.8l.71-5.08c.1-.85.38-1.66.84-2.37.42-.66.97-1.23,1.6-1.69.62-.46,1.31-.81,2.05-1.03.73-.22,1.49-.33,2.26-.33.73,0,1.46.11,2.15.34.65.21,1.24.55,1.75,1.01.5.45.88,1.03,1.1,1.67.16.48.24.97.23,1.47,0,.29-.02.57-.06.86-.08.68-.32,1.33-.69,1.9-.35.54-.81.99-1.35,1.35-.57.37-1.2.63-1.86.78-.73.17-1.47.25-2.22.25-1.08,0-2.15-.2-3.16-.6l-.18,1.47c-.02.13-.03.26-.03.39,0,.21.04.42.12.62.1.29.28.55.51.75.24.21.52.38.83.48.33.11.68.17,1.03.17h.12c.58-.01,1.16-.13,1.7-.35.61-.25,1.14-.66,1.54-1.18l2.05,1.55c-.72.93-1.63,1.69-2.68,2.22-.94.5-1.98.77-3.04.79ZM235.28,116.83c.71.05,1.41-.16,1.99-.58.24-.19.43-.43.56-.7.13-.27.2-.58.2-.88,0-.24-.05-.48-.15-.69-.1-.22-.23-.42-.41-.58-.52-.44-1.19-.65-1.87-.6-.37,0-.73.05-1.08.16-.35.11-.67.27-.96.48-.29.21-.54.48-.74.79-.2.31-.33.67-.38,1.03l-.18,1.06c.33.1.76.21,1.29.33.57.13,1.15.2,1.73.2v-.03Z"/>
      <path class="cls-4" d="M258.47,109.79c.67,0,1.33.13,1.95.38.6.24,1.14.6,1.59,1.07.46.47.8,1.05.99,1.68.14.47.2.96.2,1.45,0,.29-.02.58-.06.86l-1.42,10.42h-3.19l1.42-10.3c.04-.16.06-.32.06-.48,0-.23-.04-.46-.13-.67-.09-.21-.22-.4-.38-.56-.2-.21-.44-.37-.7-.48-.26-.11-.55-.16-.83-.16-.33,0-.66.07-.96.18-.33.11-.64.27-.92.48-.28.2-.53.43-.73.7-.2.25-.32.54-.36.86l-1.4,10.41h-3.16l1.46-10.57c.04-.3,0-.61-.1-.9-.1-.25-.27-.48-.48-.65-.23-.19-.5-.33-.79-.41-.31-.1-.63-.14-.95-.14h-.17c-.77.02-1.53.24-2.19.63l-1.64,12.01h-3.16l1.93-14.2c.8-.51,1.66-.9,2.56-1.18.93-.3,1.9-.46,2.87-.46.85.01,1.7.2,2.47.56.72.32,1.3.91,1.62,1.63.56-.69,1.26-1.25,2.06-1.63s1.67-.57,2.56-.56h.02Z"/>
      <path class="cls-4" d="M268.2,125.66h-3.22l2.17-15.92h3.21l-2.16,15.92ZM269.51,104.45c.26,0,.51.04.75.14.24.1.45.25.62.45.25.3.38.68.38,1.08,0,.12,0,.24-.03.36-.08.56-.36,1.07-.78,1.44-.41.38-.94.59-1.5.58-.25.01-.5-.04-.74-.14-.23-.1-.44-.25-.61-.44-.25-.3-.39-.69-.38-1.08,0-.12.01-.24.03-.36.08-.56.35-1.06.77-1.44.4-.37.93-.57,1.48-.56v-.02Z"/>
      <path class="cls-4" d="M279.49,109.82c.26,0,.51,0,.79.03.31.03.61.08.91.15l-.42,2.9c-.37-.11-.75-.16-1.14-.15h-.21c-.5.01-.99.12-1.45.31-.45.19-.86.47-1.2.82-.35.35-.57.8-.65,1.29l-1.46,10.4h-3.21l1.45-10.47c.13-1.06.54-2.06,1.19-2.9.59-.78,1.37-1.39,2.27-1.76.6-.26,1.23-.43,1.88-.52.41-.06.83-.1,1.24-.12Z"/>
      <path class="cls-4" d="M286.25,125.88c-.66,0-1.31-.11-1.92-.35-.59-.23-1.13-.58-1.58-1.03-.46-.47-.79-1.05-.99-1.68-.14-.44-.21-.91-.21-1.38,0-.28.02-.56.06-.84l.77-5.38c.1-.91.4-1.78.88-2.55.43-.67.99-1.24,1.65-1.68.66-.43,1.39-.74,2.15-.91.79-.18,1.6-.26,2.41-.26.96,0,1.92.13,2.85.39.9.24,1.76.57,2.59.99l-1.99,14.41h-2.6l-.23-1.35c-.52.55-1.15.97-1.85,1.25-.64.24-1.31.36-1.99.35ZM289.38,112.62c-.43,0-.85.04-1.27.13-.41.08-.8.23-1.16.45-.35.21-.66.48-.91.81-.26.34-.42.75-.47,1.17l-.77,5.41c-.02.13-.03.26-.03.39,0,.21.03.41.12.6.09.27.25.51.47.69.23.19.49.33.77.41.32.09.65.14.98.13h.17c.52,0,1.04-.08,1.54-.24.52-.15,1-.39,1.44-.71l1.25-8.74c-.3-.17-.63-.29-.96-.37-.38-.1-.77-.15-1.16-.14v.02Z"/>
      <path class="cls-4" d="M301.71,125.55h-.55c-.67,0-1.34-.11-1.98-.33-.57-.2-1.07-.54-1.48-.99-.41-.49-.7-1.07-.84-1.7-.1-.42-.15-.84-.14-1.27,0-.38.03-.77.09-1.15l2.01-13.97h2.95l-.3,3.81h2.86l-.39,2.98h-2.9l-1.07,7.14c-.04.23-.05.45-.06.68,0,.26.03.52.11.77.14.31.36.58.66.76.32.18.67.28,1.03.32.4.04.82.06,1.27.06l-.38,2.8c-.29.06-.59.1-.89.1Z"/>
      <path class="cls-4" d="M310.57,125.57c-.73,0-1.46-.12-2.15-.35-.66-.21-1.27-.57-1.79-1.03-.51-.46-.91-1.04-1.17-1.68-.18-.5-.27-1.02-.26-1.55,0-.27.02-.53.06-.8l.71-5.08c.1-.84.39-1.65.84-2.37.43-.65.98-1.22,1.62-1.67.62-.46,1.31-.81,2.05-1.03.73-.22,1.49-.33,2.25-.34.73,0,1.46.11,2.15.34.65.22,1.24.57,1.75,1.03.5.45.88,1.03,1.09,1.67.16.48.24.98.23,1.48,0,.29-.02.57-.06.85-.08.68-.32,1.33-.69,1.9-.36.53-.81.99-1.35,1.35-.57.37-1.2.63-1.86.78-.73.17-1.48.25-2.23.25-1.08,0-2.15-.2-3.15-.6l-.18,1.47c-.02.13-.02.26-.03.39,0,.21.03.42.11.62.1.29.28.55.51.75.24.21.53.38.84.48.33.11.68.17,1.03.17h.12c.58,0,1.16-.13,1.7-.35.61-.25,1.14-.65,1.54-1.17l2.05,1.55c-.72.93-1.64,1.69-2.68,2.22-.94.48-1.99.74-3.05.73ZM311.96,116.81c.71.04,1.42-.16,1.99-.58.24-.19.43-.43.56-.71.13-.28.2-.58.2-.89,0-.24-.05-.47-.14-.69-.09-.22-.23-.42-.4-.58-.53-.43-1.2-.65-1.88-.6-.37,0-.73.06-1.08.16-.35.11-.67.27-.96.49-.29.21-.54.48-.73.78-.2.31-.33.67-.38,1.03l-.17,1.07c.33.1.76.21,1.29.33.57.13,1.14.19,1.72.19Z"/>
      <path class="cls-4" d="M324.53,122.59c.54.01,1.08-.14,1.54-.43.22-.14.41-.33.55-.55.14-.22.23-.47.27-.74.05-.24,0-.49-.13-.69-.13-.19-.31-.35-.51-.47-.23-.13-.47-.24-.72-.31-.27-.08-.51-.15-.77-.21-.57-.11-1.13-.26-1.68-.46-.59-.2-1.14-.5-1.64-.87-.49-.38-.9-.86-1.18-1.42-.2-.45-.3-.95-.29-1.45,0-.25.02-.49.06-.73.09-.76.34-1.49.74-2.14.35-.56.81-1.04,1.36-1.4.54-.36,1.13-.62,1.75-.77.63-.15,1.27-.23,1.92-.23.43,0,.85.04,1.27.12.45.09.89.21,1.32.37.44.17.86.38,1.26.64.4.27.77.58,1.1.95l-2.23,2.12c-.38-.38-.84-.67-1.34-.84-.59-.23-1.21-.35-1.85-.37h-.11c-.42,0-.83.09-1.2.29-.19.12-.36.28-.49.46-.13.19-.22.4-.27.62-.08.29-.05.6.09.87.14.25.34.47.58.62.27.17.56.31.86.4.31.1.63.18.95.24.59.1,1.17.25,1.74.44.55.18,1.05.47,1.49.84.42.37.75.85.95,1.38.18.42.27.87.26,1.32,0,.24-.02.47-.06.71-.1.74-.35,1.44-.75,2.07-.37.57-.85,1.07-1.41,1.46-.56.4-1.18.69-1.84.87-.67.18-1.36.28-2.05.27-.59,0-1.17-.07-1.74-.22-.57-.15-1.11-.38-1.6-.68-.49-.3-.93-.69-1.3-1.14-.38-.47-.67-1.01-.85-1.59l2.64-1.55c.28.7.78,1.27,1.43,1.64.58.35,1.23.54,1.91.56Z"/>
      <path class="cls-4" d="M345.79,109.76c.77,0,1.55.09,2.3.28.67.17,1.3.47,1.84.91.53.43.92,1,1.12,1.65.18.47.27.97.26,1.48,0,.34-.03.67-.09,1l-.77,5.43c-.1.81-.39,1.59-.84,2.27-.43.64-.98,1.18-1.62,1.61-.64.42-1.34.74-2.08.94-.73.2-1.48.31-2.24.31-.9.02-1.8-.16-2.63-.52l-.71,5.22h-3.2l2.73-19.36c.93-.39,1.89-.68,2.88-.88,1-.22,2.02-.33,3.05-.34ZM343.48,122.78h.26c.76,0,1.52-.17,2.2-.52.33-.18.62-.42.84-.73.22-.3.37-.65.44-1.03l.8-5.49c.02-.14.03-.28.03-.41,0-.25-.03-.5-.11-.73-.13-.31-.34-.58-.62-.77-.29-.21-.63-.35-.98-.41-.39-.08-.79-.13-1.18-.12-.83,0-1.64.18-2.4.52l-1.33,9.35c.36.13.73.22,1.11.27.31.06.62.08.94.08Z"/>
      <path class="cls-4" d="M360.56,109.78c.71,0,1.42.12,2.1.34.65.22,1.26.57,1.77,1.03.5.45.89,1.01,1.12,1.65.18.48.27.99.26,1.51,0,.27-.02.53-.06.79l-.74,5.31c-.1.83-.38,1.62-.84,2.32-.43.64-.97,1.2-1.6,1.65-.62.44-1.32.77-2.05.98-.71.21-1.45.32-2.19.32-.73,0-1.46-.11-2.15-.33-.66-.2-1.27-.54-1.78-1-.5-.45-.88-1.01-1.12-1.63-.18-.5-.27-1.02-.26-1.55,0-.27.02-.53.06-.8l.74-5.31c.1-.82.38-1.61.84-2.3.43-.64.97-1.2,1.6-1.64.63-.44,1.32-.78,2.05-1,.73-.23,1.49-.34,2.26-.35ZM360.11,112.94c-.35,0-.69.04-1.03.13-.34.09-.66.22-.95.4-.29.17-.53.39-.73.66-.2.27-.33.59-.38.93l-.71,5.17c-.02.11-.03.22-.03.33,0,.21.04.43.14.62.1.29.28.54.51.74.25.2.54.35.85.45.32.1.65.15.98.15.33,0,.65-.05.96-.14.35-.1.69-.25.99-.46.29-.19.54-.43.73-.72.2-.29.33-.61.38-.96l.71-5.17c.02-.1.02-.2.03-.3,0-.22-.04-.43-.14-.62-.13-.27-.32-.5-.55-.68-.25-.18-.52-.32-.82-.4-.31-.08-.63-.12-.94-.11Z"/>
      <path class="cls-4" d="M372.86,122.68c.54.01,1.08-.14,1.54-.42.22-.14.41-.33.55-.55.14-.22.23-.47.27-.74.05-.24,0-.49-.13-.69-.13-.2-.31-.36-.51-.48-.22-.13-.46-.24-.72-.31-.26-.08-.51-.15-.77-.21-.57-.11-1.13-.27-1.68-.46-.59-.2-1.14-.5-1.64-.87-.5-.38-.9-.86-1.18-1.42-.2-.45-.3-.95-.29-1.44,0-.25.02-.5.06-.74.09-.76.34-1.49.73-2.14.35-.56.81-1.04,1.36-1.4.54-.35,1.13-.61,1.76-.77,1.04-.26,2.13-.3,3.18-.11.45.09.89.21,1.32.37.44.17.86.38,1.25.64.41.26.78.58,1.1.95l-2.23,2.13c-.38-.38-.84-.67-1.35-.85-.59-.22-1.21-.35-1.84-.37h-.11c-.42,0-.83.09-1.2.29-.19.12-.36.28-.49.47-.13.19-.22.4-.27.62-.08.29-.05.6.09.87.14.25.34.47.58.62.27.17.56.31.86.4.32.1.64.18.95.24.59.1,1.18.25,1.74.44.55.18,1.05.47,1.49.84.43.37.75.84.95,1.38.18.42.27.87.26,1.33,0,.24-.02.47-.06.71-.1.74-.35,1.44-.75,2.07-.37.57-.85,1.07-1.4,1.45-.56.4-1.19.69-1.85.87-.67.19-1.36.28-2.05.27-.59,0-1.17-.07-1.74-.22-.57-.15-1.11-.38-1.61-.68-.49-.31-.93-.69-1.3-1.14-.38-.47-.67-1.01-.85-1.59l2.64-1.55c.28.69.78,1.27,1.43,1.64.57.35,1.23.54,1.9.56Z"/>
      <path class="cls-4" d="M385.81,125.73h-.56c-.67,0-1.34-.1-1.97-.33-.57-.2-1.07-.54-1.48-.99-.41-.49-.7-1.07-.85-1.7-.1-.42-.14-.84-.14-1.27,0-.39.03-.78.09-1.16l2.01-13.97h2.92l-.3,3.81h2.9l-.39,2.98h-2.9l-1.07,7.14c-.04.22-.06.45-.06.68,0,.26.03.52.12.77.14.31.37.58.66.76.32.18.67.28,1.03.31.42.04.85.06,1.28.06l-.39,2.8c-.3.07-.6.1-.9.1Z"/>
      <path class="cls-4" d="M232.65,86.9l-.92,5.52c-.06.26-.06.52,0,.78.05.22.16.43.3.61.08.1.17.19.29.25.11.06.24.1.37.1h9.53c.28-.03.55-.15.75-.35.2-.17.37-.38.51-.61.14-.24.23-.5.28-.78l1.44-8.56h3.16l-1.44,8.56c-.09.52-.28,1.01-.55,1.45-.28.45-.62.86-1.03,1.2-.98.86-2.23,1.32-3.52,1.32h-9.49c-.62.01-1.23-.11-1.8-.35-.5-.21-.94-.55-1.29-.97-.29-.35-.5-.76-.62-1.2-.12-.47-.14-.97-.06-1.45l.92-5.49,3.16-.02Z"/>
      <path class="cls-4" d="M257.09,78.01l-3.08,18.2h-3.16l3.08-18.2h3.16Z"/>
      <path class="cls-4" d="M263.77,83.8l-2.1,12.51c-.17.75-.4,1.48-.71,2.18-.26.59-.59,1.15-.98,1.66-.36.46-.78.87-1.24,1.23-.46.34-.95.63-1.47.85-.51.23-1.05.42-1.6.55-.55.13-1.1.22-1.66.28-.57.06-1.14.1-1.71.1h-1.75l.37-2.22h1.38c.45,0,.88-.03,1.3-.07.42-.04.81-.1,1.17-.17.35-.07.7-.18,1.03-.32.66-.29,1.22-.76,1.61-1.36.25-.37.46-.76.62-1.17.2-.51.36-1.04.47-1.58l2.1-12.48h3.16Z"/>
      <path class="cls-4" d="M295.32,86.69c-.06-.55-.19-1.09-.41-1.6-.19-.45-.46-.86-.79-1.22-.31-.34-.68-.62-1.08-.84-.38-.2-.79-.35-1.21-.44-.39-.09-.8-.14-1.2-.13h-.14c-.46,0-.93.05-1.38.16-.46.11-.91.26-1.34.47-.48.22-.93.5-1.35.82-.44.34-.83.73-1.16,1.17-.36.47-.66.98-.9,1.52-.25.59-.43,1.21-.53,1.84l-.95,5.69h-13.47c-.12-.01-.25-.05-.35-.11-.11-.06-.21-.14-.28-.24-.14-.18-.24-.38-.3-.61-.06-.26-.06-.52,0-.78l2.41-14.38h-3.16l-2.43,14.41c-.09.48-.07.98.06,1.45.12.44.33.85.62,1.2.35.43.79.76,1.29.97.56.24,1.17.36,1.78.35h14.79l4.36,1.22h.04c.4.1.81.14,1.22.14.32,0,.64-.03.96-.09.75-.14,1.46-.46,2.08-.92.27-.18.53-.4.75-.64.22-.23.42-.47.6-.73.32-.48.53-1.03.62-1.6l.84-5.08c.1-.67.11-1.35.03-2.02ZM292.1,88.7l-.84,5.07c-.04.28-.13.55-.25.8-.11.23-.28.44-.48.6-.21.15-.46.25-.72.27h-.18c-.28,0-.56-.06-.82-.17l-2.83-.79,1.03-6.05c.11-.82.41-1.61.87-2.29.37-.54.86-.98,1.44-1.27.27-.11.54-.18.83-.21.27,0,.53.07.77.19.23.13.44.31.6.52.19.24.34.51.44.81.12.36.19.73.22,1.11.02.47,0,.95-.09,1.41Z"/>
      <path class="cls-4" d="M301.37,100.74l-3.49.29.03-.95.99-.06c-.1-.18-.19-.32-.26-.43-.07-.1-.11-.21-.12-.32-.01-.06-.01-.12,0-.19,0-.05.02-.1.04-.14.06-.16.14-.31.24-.45.13-.23.33-.41.57-.52.25-.11.52-.19.79-.22.14-.02.28-.03.42-.03h.28c.23.03.44.06.63.09l-.38.9c-.15-.03-.31-.05-.47-.07-.08,0-.15,0-.23,0-.07,0-.15,0-.22,0-.27.03-.43.08-.48.17-.02.03-.03.06-.04.1,0,.07,0,.14.05.2.06.14.14.27.24.38.1.12.18.26.25.4l1.2-.11-.03.95ZM304.49,78.01l-2.71,16.12h3.65c.28-.03.55-.15.75-.35.2-.17.37-.38.51-.61.15-.24.24-.5.29-.78l2.41-14.38h3.16l-2.42,14.4c-.09.52-.28,1.01-.55,1.45-.28.45-.62.86-1.03,1.2-.48.42-1.03.74-1.63.97-.61.23-1.26.35-1.91.35h-9.02l.37-2.24h2.23l2.71-16.12,3.16-.02Z"/>
      <path class="cls-4" d="M318.21,78.01l-3.08,18.2h-3.12l3.08-18.2h3.12Z"/>
      <path class="cls-4" d="M341.67,83.8l-1.46,8.61c-.05.27-.14.54-.28.78-.14.23-.31.43-.51.61-.21.2-.48.33-.77.35h-5.2c.18-.71.32-1.38.43-2,.1-.58.17-1.16.21-1.75.08-.95.05-1.91-.08-2.85-.1-.72-.31-1.42-.64-2.07-.26-.52-.61-1-1.03-1.41-.36-.36-.78-.66-1.25-.88-.42-.2-.86-.36-1.32-.48-.4-.1-.81-.18-1.22-.21l-.96-.06h-.03v.03h-.03l-1.23,2.14c.47.04.94.09,1.42.16.46.07.92.2,1.34.4.43.21.8.51,1.09.89.35.48.58,1.04.68,1.64.14.85.18,1.72.11,2.59-.04.62-.12,1.24-.23,1.86-.1.62-.24,1.28-.41,2h-7.21l-.38,2.24h15.58c.65,0,1.3-.11,1.91-.34.59-.23,1.14-.56,1.61-.97.4-.34.75-.75,1.03-1.2.27-.44.46-.94.55-1.45l1.43-8.61h-3.16Z"/>
      <path class="cls-4" d="M359.8,83.8l-1.45,8.61c-.04.27-.14.54-.28.78-.14.23-.31.43-.51.61-.21.2-.48.33-.77.35h-5.31l1.73-10.35h-3.17l-2.1,12.48c-.11.54-.27,1.07-.48,1.58-.16.41-.37.8-.62,1.17-.21.31-.46.59-.75.83-.26.21-.55.39-.86.52-.33.14-.67.25-1.03.32-.37.07-.76.13-1.17.17-.42.04-.85.06-1.3.07h-1.38l-.37,2.22h1.76c.58,0,1.14-.04,1.71-.1.56-.06,1.11-.15,1.66-.28.55-.13,1.09-.31,1.6-.55.52-.23,1.01-.51,1.46-.85.47-.35.89-.75,1.26-1.21.4-.51.73-1.06.99-1.65.3-.69.54-1.41.7-2.15h5.32c.65,0,1.3-.11,1.91-.35.59-.23,1.14-.56,1.62-.97.4-.34.75-.75,1.03-1.2.28-.44.46-.94.55-1.45l1.45-8.59h-3.2Z"/>
      <path class="cls-4" d="M235.3,79.68c.04-.22.12-.44.24-.63.11-.2.26-.37.43-.52.16-.15.35-.26.55-.35.19-.08.4-.12.61-.12.2,0,.4.04.58.12.17.08.32.2.44.35.12.15.2.33.24.52.04.21.04.42,0,.63-.08.44-.31.84-.66,1.12-.17.14-.35.26-.55.34-.2.08-.41.13-.62.13-.29,0-.57-.09-.79-.26-.23-.17-.39-.42-.47-.7-.05-.2-.05-.42,0-.62Z"/>
      <path class="cls-4" d="M239.41,79.68c.04-.22.12-.44.24-.63.12-.19.26-.37.44-.52.16-.15.35-.27.56-.35.2-.08.41-.12.63-.12.2,0,.39.04.57.12.17.08.31.2.42.35.12.15.2.33.24.52.04.21.04.42,0,.63-.04.22-.12.43-.23.62-.11.2-.25.37-.42.52-.16.14-.34.26-.54.34-.19.08-.4.13-.61.13-.21,0-.41-.04-.59-.13-.17-.08-.32-.19-.44-.34-.12-.14-.21-.31-.25-.5-.06-.21-.06-.43-.01-.64Z"/>
      <path class="cls-4" d="M328.96,102.19c.04-.22.12-.44.24-.63.11-.2.26-.37.43-.52.17-.14.35-.26.55-.35.19-.08.4-.12.61-.12.2,0,.4.04.58.12.17.08.32.2.44.35.12.15.21.33.25.52.04.21.04.42,0,.63-.03.22-.11.43-.23.62-.11.19-.26.37-.43.52-.17.14-.36.25-.56.34-.2.08-.41.12-.62.12-.29,0-.57-.09-.79-.26-.23-.17-.39-.42-.46-.7-.05-.21-.06-.43-.01-.64Z"/>
      <path class="cls-4" d="M333.08,102.19c.04-.22.12-.44.24-.63.12-.19.26-.37.43-.52.17-.14.36-.26.56-.35.2-.08.42-.12.64-.12.2,0,.39.04.57.12.17.08.31.2.43.35.12.15.2.33.24.52.04.21.04.42,0,.63-.04.22-.12.43-.23.62-.22.38-.56.67-.96.84-.2.08-.4.12-.62.12-.2,0-.4-.04-.59-.12-.17-.08-.32-.19-.44-.34-.12-.15-.21-.33-.26-.52-.05-.2-.05-.41,0-.61Z"/>
      <path class="cls-4" d="M353.06,102.19c.04-.22.12-.44.24-.63.11-.2.26-.37.43-.52.17-.14.36-.26.56-.35.2-.08.42-.12.64-.12.2,0,.39.04.57.12.17.08.31.2.43.35.12.15.2.33.24.52.04.21.04.42,0,.63-.04.22-.12.43-.23.62-.11.19-.25.37-.42.52-.16.14-.35.25-.54.34-.19.08-.4.12-.62.12-.2,0-.4-.04-.59-.12-.17-.08-.32-.19-.44-.34-.12-.15-.21-.33-.26-.52-.05-.2-.05-.42,0-.62Z"/>
    </g>
  </g>
</svg>