<?xml version="1.0" encoding="utf-8"?>
<!-- Generator: Adobe Illustrator 28.1.0, SVG Export Plug-In . SVG Version: 6.00 Build 0)  -->
<svg version="1.1" id="Layer_1" xmlns="http://www.w3.org/2000/svg" xmlns:xlink="http://www.w3.org/1999/xlink" x="0px" y="0px"
	 viewBox="0 0 500 300" style="enable-background:new 0 0 500 300;" xml:space="preserve">
<style type="text/css">
	.st0{fill:#73955E;}
</style>
<g>
	<g>
		<g>
			<path class="st0" d="M268.13,100.84l-66.85-38.3c0,0-81.37,59.34-119.79,78.28c56.59,10.93,121.69-75.32,121.69-75.32
				l58.53,38.86L268.13,100.84z"/>
			<path class="st0" d="M418.02,144L307.94,81.89c0,0-95.28,54.42-116.9,62.89c63.58,1.05,117.61-59.92,117.61-59.92L407.37,144
				H418.02z"/>
			<path class="st0" d="M103.27,199.53c-2.51,0-3.97-0.35-5.29-0.84l0.28-1.25c0,0,0.21,0.14,1.53,0.14c6.4,0,8.56-5.36,8.56-11.13
				c0-10.02-6.05-10.78-9.6-10.78c-1.95,0-2.78,0.14-2.78,0.14v32.56v2.36c0,2.43,0.14,3.97,1.25,5.01
				c1.18,1.11,3.06,1.67,5.15,1.95v1.25c-4.52-0.21-10.09-0.21-11.55-0.21h-2.85c-2.02,0-4.24,0-6.33,0.21v-1.11
				c0.91-0.21,2.78-0.77,3.69-1.67c1.18-1.25,1.39-2.78,1.39-9.39v-24.14c0-3.34,0-5.49-0.9-6.68c-0.7-0.9-1.53-1.53-4.04-1.95
				v-1.11c2.71,0.14,6.05,0.21,8.49,0.21c3.89,0,6.26-0.21,10.5-0.21c1.39,0,5.08,0.14,7.86,0.77c5.08,1.18,9.67,4.73,9.67,12.03
				C118.3,193.96,112.25,199.53,103.27,199.53"/>
			<path class="st0" d="M150.19,218.94c-4.24-0.07-8.56-0.14-12.8-0.14h-7.17c-5.77,0-9.6,0-11.61,0.14v-1.11
				c0.9-0.21,2.78-0.77,3.69-1.67c1.18-1.25,1.39-2.78,1.39-9.39v-24.14c0-3.34,0-5.49-0.9-6.68c-0.7-0.9-1.53-1.53-4.04-1.95v-1.11
				c3.83,0.21,6.4,0.21,10.3,0.21h2.99c2.3,0,5.01,0,7.72-0.21V174c-0.98,0.14-4.59,0.97-5.43,1.95c-1.18,1.25-1.39,2.71-1.39,9.25
				v26.99c0,2.64,0.28,3.55,3.82,3.55h1.95c6.75,0,7.79-0.14,10.78-6.82h1.39C150.68,210.52,150.19,214.97,150.19,218.94"/>
			<path class="st0" d="M172.59,185.41c-0.49-1.53-1.25-3.55-1.46-5.5c-0.21,1.18-0.76,3.06-1.6,5.5l-4.31,12.31h11.41
				L172.59,185.41z M187.27,218.73c-2.09,0-7.03,0.07-9.04,0.21v-1.11c2.23-0.42,3.83-0.9,3.83-2.71c0-0.98-0.49-2.51-0.77-3.27
				l-3.69-11.06h-13.43l-3.27,9.53c-0.76,2.16-1.32,4.04-1.32,4.73c0,1.81,1.32,2.3,3.9,2.78v1.11c-2.44-0.14-4.45-0.21-6.96-0.21
				c-2.23,0-4.24,0-6.47,0.21v-1.11c3.27-0.63,3.83-2.16,5.98-7.65L170.23,174c1.53-0.14,5.28-1.04,6.96-1.81l12.73,37.77
				c1.81,5.28,2.5,7.02,6.05,7.86v1.11C193.95,218.8,189.29,218.73,187.27,218.73"/>
			<path class="st0" d="M229.08,182.42c-0.49-1.46-1.53-4.11-2.99-5.22c-1.39-1.04-5.35-1.11-7.58-1.11h-0.7h-0.83v32.21v1.18
				c0,3.48,0.07,5.15,1.25,6.19c1.18,1.11,3.06,1.81,5.15,2.09v1.18c-4.52-0.21-9.67-0.21-11.13-0.21c-2.43,0-8.35,0.07-11.06,0.21
				v-1.18c2.09-0.28,3.96-0.83,5.15-1.95c1.32-1.18,1.39-3.2,1.39-7.72v-2.71v-29.29h-0.83h-0.7c-2.23,0-6.19,0.07-7.58,1.11
				c-1.46,1.11-2.5,3.76-2.99,5.22h-1.25c0,0,0.21-1.6,0.21-5.22c0-2.78-0.21-4.38-0.21-4.38l0.97-0.42
				c2.85,0.62,6.4,0.69,9.46,0.69h1.6h11.9h1.6c3.06,0,6.61-0.07,9.46-0.69l0.97,0.42c0,0-0.21,1.81-0.21,4.38
				c0,3.62,0.21,5.22,0.21,5.22H229.08z"/>
			<path class="st0" d="M249.67,175.67c-1.18,1.25-1.39,2.78-1.39,9.32v24.21v1.18c0,2.64,0.07,4.38,0.9,5.49
				c0.7,0.84,1.53,1.53,4.04,1.95v1.11c-2.71-0.14-7.24-0.21-9.67-0.21c-2.43,0-6.88,0.07-9.6,0.21v-1.11
				c0.9-0.21,2.78-0.77,3.69-1.67c1.18-1.25,1.39-2.78,1.39-9.39v-24.14c0-3.34,0-5.5-0.9-6.68c-0.7-0.91-1.53-1.53-4.03-1.95v-1.11
				c2.71,0.14,7.3,0.21,9.74,0.21c2.44,0,6.82-0.07,9.53-0.21V174C252.45,174.14,250.57,174.76,249.67,175.67"/>
			<path class="st0" d="M303.72,175.67c-1.18,1.25-1.39,2.78-1.39,9.32v34.23h-3.69L272,183.74c-0.97-1.32-1.67-2.5-1.67-2.5v27.96
				v1.18c0,2.64,0.07,4.38,0.9,5.49c0.7,0.84,1.53,1.53,4.04,1.95v1.11c-2.71-0.14-4.87-0.21-7.3-0.21c-2.44,0-4.45,0.07-7.17,0.21
				v-1.11c0.9-0.21,2.78-0.77,3.69-1.67c1.18-1.25,1.39-2.78,1.39-9.39v-24.14c0-3.34,0-5.5-0.91-6.68
				c-0.69-0.91-1.53-1.53-4.03-1.95v-1.11c2.71,0.14,6.05,0.21,8.49,0.21c1.04,0,4.03-0.07,5.91-0.21l20.31,27.13
				c1.39,1.81,1.95,2.85,2.22,3.34v-20.73c0-3.34,0-5.5-0.9-6.68c-0.7-0.91-1.53-1.53-4.04-1.95v-1.11c2.71,0.14,4.8,0.21,7.24,0.21
				s4.52-0.07,7.24-0.21V174C306.5,174.14,304.63,174.76,303.72,175.67"/>
			<path class="st0" d="M354.92,175.67c-1.18,1.25-1.39,2.78-1.39,9.32v12.8v2.71c0,3.48-0.14,7.51-1.32,10.43
				c-2.23,5.64-7.31,8.56-17.67,8.56c-8.07,0-14.47-1.74-17.11-8.63c-1.18-3.13-1.25-6.82-1.25-10.15v-1.05v-17.04
				c0-3.34,0-5.5-0.9-6.68c-0.7-0.91-1.53-1.53-4.04-1.95v-1.11c2.71,0.14,7.3,0.21,9.74,0.21s6.82-0.07,9.53-0.21V174
				c-0.9,0.14-2.78,0.76-3.69,1.67c-1.18,1.25-1.39,2.78-1.39,9.32v15.86c0,9.25,0.55,15.51,10.64,15.51
				c10.37,0,10.71-6.82,10.71-16v-17.74c0-3.34,0-5.5-0.91-6.68c-0.69-0.91-1.53-1.53-4.03-1.95v-1.11
				c2.71,0.14,5.98,0.21,8.42,0.21s5.63-0.07,8.35-0.21V174C357.7,174.14,355.83,174.76,354.92,175.67"/>
			<path class="st0" d="M414.19,175.67c-1.18,1.25-1.39,2.78-1.39,9.32v24.21v1.18c0,2.64,0.07,4.38,0.9,5.49
				c0.7,0.84,1.53,1.53,4.04,1.95v1.11c-2.71-0.14-7.24-0.21-9.67-0.21c-2.44,0-6.75,0.07-9.46,0.21v-1.11
				c0.9-0.21,2.78-0.77,3.68-1.67c1.18-1.25,1.39-2.78,1.39-9.39v-27.27c-0.35,1.32-0.84,2.85-1.32,4.03l-13.7,35.62h-2.71
				l-12.52-35.62c-0.83-2.43-1.18-3.76-1.25-4.31v29.98v1.18c0,2.64,0.07,4.38,0.91,5.49c0.69,0.84,1.53,1.53,4.03,1.95v1.11
				c-2.71-0.14-4.66-0.21-7.1-0.21c-2.43,0-4.38,0.07-7.09,0.21v-1.11c0.9-0.21,2.78-0.77,3.69-1.67c1.18-1.25,1.39-2.78,1.39-9.39
				v-24.14c0-3.34,0-5.5-0.91-6.68c-0.69-0.91-1.53-1.53-4.03-1.95v-1.11c2.71,0.14,7.02,0.21,9.46,0.21c1.18,0,5.28-0.07,6.33-0.21
				l10.3,29.08c0.42,1.11,0.9,2.5,1.04,3.48c0.14-0.91,0.7-2.37,1.11-3.41l11.27-29.15c1.05,0.14,5.5,0.21,6.68,0.21
				c2.43,0,5.91-0.07,8.63-0.21V174C416.98,174.14,415.1,174.76,414.19,175.67"/>
			<path class="st0" d="M127.06,242.78c-1.18,1.25-1.39,2.78-1.39,9.32v24.21v1.18c0,2.64,0.07,4.38,0.9,5.5
				c0.7,0.84,1.53,1.53,4.04,1.95v1.11c-2.71-0.14-7.24-0.21-9.67-0.21c-2.44,0-6.89,0.07-9.6,0.21v-1.11
				c0.9-0.21,2.78-0.77,3.69-1.67c1.18-1.25,1.39-2.78,1.39-9.39v-9.67H96.03v12.1v1.18c0,2.64,0.07,4.38,0.9,5.5
				c0.7,0.84,1.53,1.53,4.04,1.95v1.11c-2.71-0.14-7.23-0.21-9.67-0.21c-2.43,0-6.89,0.07-9.6,0.21v-1.11
				c0.9-0.21,2.78-0.77,3.69-1.67c1.18-1.25,1.39-2.78,1.39-9.39v-24.14c0-3.34,0-5.49-0.91-6.68c-0.69-0.91-1.53-1.53-4.03-1.95
				v-1.11c2.71,0.14,7.3,0.21,9.74,0.21c2.43,0,6.82-0.07,9.53-0.21v1.11c-0.91,0.14-2.78,0.76-3.69,1.67
				c-1.18,1.25-1.39,2.78-1.39,9.32v8.35h20.38v-10.71c0-3.34,0-5.49-0.91-6.68c-0.69-0.91-1.53-1.53-4.03-1.95v-1.11
				c2.71,0.14,7.3,0.21,9.74,0.21c2.44,0,6.82-0.07,9.53-0.21v1.11C129.84,241.25,127.96,241.87,127.06,242.78"/>
			<path class="st0" d="M171.64,286.04c-4.24-0.07-8.56-0.14-12.8-0.14h-8.42c-5.78,0-9.6,0-11.62,0.14v-1.11
				c0.9-0.21,2.78-0.77,3.69-1.67c1.18-1.25,1.39-2.78,1.39-9.39v-24.14c0-3.34,0-5.49-0.91-6.68c-0.69-0.9-1.53-1.53-4.03-1.95
				v-1.11c3.82,0.21,6.89,0.21,10.78,0.21h9.18h1.6c3.06,0,6.61-0.07,9.46-0.69l0.97,0.42c0,0-0.21,1.39-0.21,4.38
				c0,3.68,0.21,5.22,0.21,5.22h-1.25c-0.49-1.46-1.53-4.1-2.99-5.22c-1.46-1.11-5.22-1.11-10.09-1.11h-3.48v17.53h5.91
				c4.73,0,4.94-0.83,6.68-5.08h1.32c-0.07,1.11-0.21,2.3-0.21,6.68c0,4.31,0.21,4.94,0.21,6.54h-1.32
				c-1.74-4.24-1.88-5.08-6.68-5.08h-5.91v15.51c0,3.13,0.56,3.55,4.31,3.55h1.88h0.83c6.82,0,7.79-0.14,10.78-6.82h1.39
				C172.12,277.63,171.64,281.87,171.64,286.04"/>
			<path class="st0" d="M198.84,242.71H198c-1.88,0-2.99,0.21-2.99,0.21v18.16c0,0,1.6,0.28,3.27,0.28c0.91,0,1.81,0,2.71-0.21
				c3.06-0.69,5.57-3.34,5.57-9.46C206.56,243.33,201.06,242.71,198.84,242.71 M218.52,286.25c-5.15,0-7.1-0.77-9.53-4.31
				c-2.85-4.24-7.58-12.1-9.6-15.51c-1.39-2.43-1.88-2.5-3.41-2.5h-0.98v12.38v1.18c0,2.64,0.07,4.38,0.91,5.5
				c0.62,0.83,1.53,1.53,4.03,1.95v1.11c-2.71-0.14-7.37-0.21-9.81-0.21c-2.43,0-6.75,0.07-9.46,0.21v-1.11
				c0.9-0.21,2.78-0.77,3.69-1.67c1.18-1.25,1.39-2.78,1.39-9.39v-24.14c0-3.34,0-5.5-0.91-6.68c-0.69-0.9-1.53-1.53-4.03-1.95
				v-1.11c2.71,0.14,5.71,0.21,8.14,0.21c5.01,0,6.19-0.21,10.64-0.21c1.6,0,5.08,0,7.86,0.7c7.86,1.88,9.04,7.3,9.04,9.74
				c0,10.16-9.18,11.62-10.36,11.83c2.85,4.17,10.29,14.54,13.28,18.36c2.78,3.55,3.76,4.04,5.78,4.24v1.11
				C224.16,286.11,222.42,286.25,218.52,286.25"/>
			<path class="st0" d="M243.92,242.78c-1.18,1.25-1.39,2.78-1.39,9.32v24.21v1.18c0,2.64,0.07,4.38,0.9,5.5
				c0.7,0.84,1.53,1.53,4.04,1.95v1.11c-2.71-0.14-7.24-0.21-9.67-0.21c-2.43,0-6.88,0.07-9.6,0.21v-1.11
				c0.9-0.21,2.78-0.77,3.69-1.67c1.18-1.25,1.39-2.78,1.39-9.39v-24.14c0-3.34,0-5.49-0.91-6.68c-0.69-0.91-1.53-1.53-4.03-1.95
				v-1.11c2.71,0.14,7.3,0.21,9.74,0.21c2.44,0,6.82-0.07,9.53-0.21v1.11C246.7,241.25,244.82,241.87,243.92,242.78"/>
			<path class="st0" d="M289.2,249.52c-0.49-1.46-1.53-4.11-2.99-5.22c-1.39-1.04-5.35-1.11-7.58-1.11h-0.7h-0.83v32.21v1.18
				c0,3.48,0.07,5.15,1.25,6.19c1.18,1.11,3.06,1.81,5.15,2.09v1.18c-4.52-0.21-9.67-0.21-11.13-0.21c-2.43,0-8.35,0.07-11.06,0.21
				v-1.18c2.09-0.28,3.97-0.83,5.15-1.95c1.32-1.18,1.39-3.2,1.39-7.72v-2.71v-29.29h-0.83h-0.7c-2.23,0-6.19,0.07-7.58,1.11
				c-1.46,1.11-2.5,3.76-2.99,5.22h-1.25c0,0,0.21-1.6,0.21-5.22c0-2.78-0.21-4.38-0.21-4.38l0.97-0.42
				c2.85,0.62,6.4,0.69,9.46,0.69h1.6h11.89h1.6c3.06,0,6.61-0.07,9.46-0.69l0.97,0.42c0,0-0.21,1.81-0.21,4.38
				c0,3.62,0.21,5.22,0.21,5.22H289.2z"/>
			<path class="st0" d="M311.38,252.52c-0.49-1.53-1.25-3.55-1.46-5.5c-0.21,1.18-0.76,3.06-1.6,5.5L304,264.83h11.41L311.38,252.52
				z M326.06,285.84c-2.09,0-7.03,0.07-9.04,0.21v-1.11c2.23-0.42,3.83-0.91,3.83-2.71c0-0.97-0.49-2.5-0.77-3.27l-3.69-11.06
				h-13.43l-3.27,9.53c-0.77,2.16-1.32,4.04-1.32,4.73c0,1.81,1.32,2.3,3.9,2.78v1.11c-2.43-0.14-4.45-0.21-6.96-0.21
				c-2.22,0-4.24,0-6.47,0.21v-1.11c3.27-0.63,3.83-2.16,5.98-7.65l14.19-36.17c1.53-0.14,5.29-1.04,6.96-1.81l12.73,37.77
				c1.81,5.29,2.51,7.03,6.05,7.86v1.11C332.73,285.9,328.07,285.84,326.06,285.84"/>
			<path class="st0" d="M376.59,269c-1.18,1.25-1.39,2.78-1.39,9.32v6.82c-0.7,0.21-6.68,1.25-13.15,1.25
				c-15.02,0-24.97-6.75-24.97-22.26c0-10.78,5.7-19.97,14.89-23.03c4.03-1.32,7.72-1.39,10.92-1.39c5.08,0,7.24,0.49,9.32,0.49
				c0.77,0,1.53-0.14,2.23-0.7l0.97,0.35c0,0-0.21,2.78-0.21,4.52c0,4.04,0.21,5.15,0.21,5.15h-1.32c-2.02-4.1-3.76-6.82-9.88-6.82
				h-0.07c-3.06,0-16.97,0.07-16.97,20.59c0,12.31,5.08,20.1,16.62,20.1c2.02,0,2.44-0.14,2.44-0.14v-7.3c0-3.34,0-5.5-0.9-6.68
				c-0.7-0.9-1.53-1.53-4.04-1.95v-1.11c2.71,0.14,7.1,0.21,9.53,0.21c2.44,0,6.75-0.07,9.46-0.21v1.11
				C379.37,267.47,377.5,268.1,376.59,269"/>
			<path class="st0" d="M417.8,286.04c-4.24-0.07-8.56-0.14-12.8-0.14h-8.42c-5.78,0-9.6,0-11.61,0.14v-1.11
				c0.9-0.21,2.78-0.77,3.68-1.67c1.18-1.25,1.39-2.78,1.39-9.39v-24.14c0-3.34,0-5.49-0.91-6.68c-0.69-0.9-1.53-1.53-4.03-1.95
				v-1.11c3.82,0.21,6.88,0.21,10.78,0.21h9.18h1.6c3.06,0,6.61-0.07,9.46-0.69l0.98,0.42c0,0-0.21,1.39-0.21,4.38
				c0,3.68,0.21,5.22,0.21,5.22h-1.25c-0.49-1.46-1.53-4.1-2.99-5.22c-1.46-1.11-5.22-1.11-10.08-1.11h-3.48v17.53h5.91
				c4.73,0,4.94-0.83,6.68-5.08h1.32c-0.07,1.11-0.21,2.3-0.21,6.68c0,4.31,0.21,4.94,0.21,6.54h-1.32
				c-1.74-4.24-1.88-5.08-6.68-5.08h-5.91v15.51c0,3.13,0.55,3.55,4.31,3.55h1.88h0.83c6.82,0,7.79-0.14,10.78-6.82h1.39
				C418.29,277.63,417.8,281.87,417.8,286.04"/>
			<path class="st0" d="M284.93,13.61c0.07,0.23,0.12,0.52,0.11,0.73c-0.02,0.71-0.39,1.28-0.35,1.86c0.63-0.57,0.8-1.49,1.31-2.14
				c0.55,1.31-0.46,2.27-0.61,3.32c0.46,0.04,0.57-0.72,0.94-1.01c0-0.1,0.07-0.13,0.05-0.22c0.25-0.06,0.26-0.34,0.43-0.47
				c-0.01-0.07-0.02-0.12-0.04-0.21c0.22,0.17,0.23-0.14,0.42-0.09c0.14,1.67-0.89,2.51-1.36,3.73c0.56-0.07,0.66-0.79,1.14-1
				c0.07-0.04-0.06-0.26,0.02-0.28c0.38,0.01,0.61-0.58,1.09-0.7c0.2,0.58-0.18,1.04-0.42,1.43c0.03,0.56-0.44,0.72-0.57,1.16
				c-0.23,0.14-0.36,0.37-0.45,0.58c0,0.14,0.16,0.06,0.2,0.15c0.08-0.02,0.06-0.12,0.03-0.26c0.12-0.03,0.13,0.12,0.23,0.11
				c0.05-0.04,0.11-0.12,0.06-0.23c0.2,0.14,0.28-0.12,0.42-0.21c0.17-0.11,0.42-0.03,0.42-0.28c0.26-0.04,0.7-0.15,0.75-0.45
				c0.71,0.65-0.53,1.67-0.75,2.26c0.24,0.16,0.68-0.23,0.98-0.11c0.32,0.75-0.28,1.19-0.59,1.63c0.59,0.49,0.27,1.44,0.02,1.82
				c0.29,0.29,0.67,0.63,0.39,1.26c-0.07,0.21-0.24,0.31-0.41,0.48c0.04,0.26,0.14,0.34,0.32,0.36c-0.01,0.66-1.1,1.21-0.44,2.07
				c0.05,0.35-0.28,0.38-0.14,0.78c-0.15,0.06-0.16-0.12-0.27-0.06c0.23,0.42,0.45,1.09,0.16,1.4c0.18,0.33,0.56,0.95,0.24,1.27
				c-0.22-0.02-0.34-0.2-0.52-0.23c-0.02,0.55,0.16,1.33-0.32,1.44c0.2,0.53,0.07,0.87-0.18,1.05c0.2,0.57-0.14,0.79-0.36,1.03
				c0.12,0.53-0.22,0.75-0.45,0.97c0.1,0.7-0.15,1.15,0.09,1.93c-0.06,0.13-0.35,0.08-0.31,0.27c-0.15-0.07-0.27,0.04-0.22-0.2
				c-0.22,0.09-0.21,0.32-0.32,0.5c-0.47,0.03-0.43,0.47-0.49,0.79c-0.44,0.04-0.2,0.53-0.43,0.75c-0.25,0.25-0.72-0.06-0.8,0.48
				c-0.01,0.13,0.08,0.34,0.07,0.49c-0.03,0.45-0.3,0.64,0.1,0.9c0.7,0.06,1.24,0.42,1.84,0.64c0.11,0,0.03-0.13,0.08-0.16
				c0.14-0.03,0.11,0.22,0.19,0.26c0.14,0.01,0.12-0.08,0.21-0.1c0.03,0.15,0.1,0.14,0.14,0.22c0.11-0.02,0.09-0.11,0.19-0.13
				c0.02,0.1,0.04,0.19,0.11,0.17c0.17,0.05,0.05-0.12,0.19-0.1c0.18,0.18,0.47,0.38,0.68,0.18c0.12,0.41,0.5,0.3,0.52,0.86
				c0.03,0.18-0.26,0.2-0.07,0.4c-0.11,0.12-0.22,0-0.26,0.13c0.34,0.42,0.15,0.9,0,1.28c0.4,0.47,0.22,1.09-0.05,1.42
				c0.5,0.76-0.17,0.95-0.24,1.52c0.01,0.05,0.06,0.16,0.04,0.2c-0.07,0.21-0.27,0.4-0.36,0.52c0.02,0.09,0.03,0.13,0.05,0.21
				c-0.15,0.09-0.12-0.18-0.25-0.07c-0.14,0.31-0.19,0.67-0.7,0.68c-0.11,0.14-0.15,0.34-0.29,0.48c-0.39-0.16-0.67,0.22-0.61,0.49
				c-0.03,0.01-0.08,0.01-0.13,0.03c-0.14-0.25-0.29-0.14-0.5-0.32c-0.31,0.07-0.13,0.5-0.29,0.66c-0.14-0.07-0.18-0.3-0.38-0.29
				c-0.85-1.45-1.5-3.33-2.44-4.64c-0.07,0.02-0.14,0.03-0.2,0.04c-0.18,0.27-0.1,0.67-0.43,0.82c-0.02,0.23-0.01,0.28,0.03,0.49
				c-0.36,0.3-0.33,0.99-0.37,1.37c-0.02,0.1-0.04-0.01-0.11-0.06c-0.28,0.28,0.04,0.95-0.43,1.06c-0.12,0.03-0.06,0.17-0.03,0.29
				c-0.43,0.06-0.15,0.61-0.52,0.69c-0.18,0.31-0.07,0.81-0.47,0.95c-0.05,0.26-0.2,0.42-0.24,0.65c-0.5,0.28-0.62,0.81-0.72,1.37
				c-0.1,0.02-0.1-0.17-0.22-0.07c-0.25,0.26-0.29,0.68-0.52,0.96c-0.46,0.08-0.43,0.53-0.51,0.91c-0.11-0.03-0.38-0.11-0.29,0.16
				c-0.1,0.02-0.13-0.05-0.22,0.01c-0.08,0.14,0.02,0.2,0.06,0.46c-0.16-0.03-0.3-0.11-0.44-0.17c-0.08,0.02-0.06,0.12-0.14,0.16
				c0.08,0.23,0.3,0.24,0.38,0.47c0.05,0.16-0.26,0.25-0.09,0.36c-0.41,0.13-0.87-0.22-1.2-0.43c-0.21,0.43,0.01,0.92-0.4,1.1
				c-0.1,0.05-0.3-0.01-0.43,0.06c-0.39,0.26-0.13,0.99-0.59,1.17c-0.01,0.06,0,0.14,0.02,0.24c-0.17-0.05-0.23-0.05-0.44,0.02
				c-0.16,0.55-0.3,1.26-0.87,1.39c-0.16-0.02-0.16-0.28-0.37-0.13c-0.11,0.27-0.49,0.56-0.39,0.91c-0.34,0.07-0.53-0.05-0.89-0.12
				c-0.19,0.71-0.25,1.46-0.97,1.76c-0.3-0.17,0-1.07-0.45-1.03c-0.46,0.6-0.43,1.5-0.96,2.08c0.01,0.04,0.02,0.08,0.03,0.15
				c-0.19-0.04-0.28,0.31-0.69,0.29c-0.01-0.06-0.03-0.16-0.04-0.21c0.16-0.16,0.16-0.45,0.05-0.83c0.06-0.39,0.16-0.96-0.01-1.41
				c-0.21,0.03-0.25,0.18-0.2,0.4c-0.49,0.53-0.59,1.51-1.04,2.1c-0.1,0.1-0.25,0.28-0.43,0.22c0.02-1.19,0.4-2.12,0.41-3.34
				c-0.43,0.45-0.6,1.06-0.77,1.71c-0.3,0.33-0.43,0.74-0.7,1.1c-0.17-0.02-0.19,0.1-0.2,0.21c-0.05-0.03-0.14-0.01-0.24,0.01
				c-0.06-1.23,0.61-1.97,0.71-3.08c-0.27-0.16-0.33,0.24-0.4,0.39c-0.31,0.47-0.7,1.04-0.94,1.54c-0.02-0.01-0.08-0.02-0.14,0.02
				c-0.06,0.11-0.02,0.08,0,0.23c-0.14,0.08-0.14-0.08-0.3-0.02c-0.18,0.04,0.03,0.35-0.23,0.33c-0.16-1.33,0.93-2.08,1.07-3.36
				c-0.48,0.18-0.55,0.91-0.99,1.19c0.07,0.12-0.06,0.13,0.02,0.24c-0.18,0-0.38,0.18-0.38,0.38c-0.39-0.12-0.27,0.36-0.59,0.4
				c-0.17-0.95,0.67-1.5,0.81-2.34c0.34-0.37,0.54-0.85,0.71-1.32c-0.02-0.06-0.09-0.11-0.12-0.18c-0.17,0.07-0.22,0.25-0.39,0.33
				c-0.02,0.11,0.08,0.09,0.08,0.22c-0.26-0.12-0.59,0.23-0.55,0.4c-0.08,0.02-0.16,0.03-0.24,0.05c-0.05-0.98,0.78-1.34,0.97-2.16
				c0.24-0.02,0.17-0.21,0.31-0.29c-0.14-0.28-0.57-0.11-0.83-0.13c0.21-0.86,0.99-1.34,1.32-2.14c0.25,0.04,0.18-0.16,0.37-0.19
				c-0.02-0.09,0.02-0.16-0.03-0.33c0.31,0.11,0.76-0.64,0.86-0.92c0.29-0.14,0.45-0.32,0.48-0.58c0.23-0.01,0.22-0.22,0.38-0.29
				c0-0.05-0.1-0.2-0.01-0.22c0.12,0.05,0.14-0.09,0.37-0.16c0.01-0.13,0.01-0.13-0.05-0.25c0.1-0.06,0.1,0.05,0.16,0.06
				c1.52-1.32,1.94-3.41,3.36-4.8c0.01-0.03,0.02-0.12-0.01-0.23c0.16,0.04,0.31,0.03,0.21-0.27c0.12-0.08,0.1,0.15,0.23,0.05
				c0.11-0.02,0.06-0.17,0.03-0.27c0.1-0.02,0.09,0.12,0.21,0.09c0.23-0.35,0.78-0.47,0.85-0.96c0.2,0.05,0.36-0.17,0.38-0.36
				c0.21-0.04,0.42-0.37,0.51-0.63c0.42-0.3,0.53-0.85,0.89-1.19c-0.01-0.05-0.03-0.12-0.04-0.19c0.09,0.01,0.09-0.06,0.15-0.08
				c0.32-0.73,0.8-1.37,0.94-2.26c0.24-0.45,0.47-1.06,0.44-1.7c-0.1-0.87-0.71-1.47-0.99-2.15c-0.66-1.4-1.87-1.93-2.91-2.65
				c-0.03-0.15-0.01-0.05-0.11-0.23c0.53-0.16,1.16-0.3,1.73-0.37c0.01,0.03,0.05,0.16,0,0c0.14-0.03,0.36-0.19,0.47-0.21
				c0.02,0.1-0.01-0.07,0,0c0.4-0.05,0.71,0.35,1,0.1c-0.01,0.03-0.05,0.07-0.03,0.12c0.04,0.06,0.23,0.18,0.38,0.25
				c0.12,0.07,0.37,0.02,0.53,0.07c0.26,0.08,0.32,0.33,0.54,0.14c0.12,0.26,0.37,0.33,0.6,0.4c0.15-0.01,0.04-0.22,0.1-0.28
				c0.36,0.18,0.95-0.16,1.04-0.5c0.07-0.07,0.08,0.04,0.17-0.01c0.2-0.32,0.57-0.55,0.57-1.04c0.25-0.15,0.29-0.44,0.33-0.75
				c0.57-1.21,0.93-2.61,1.07-4.16c0.12-0.06,0.04-0.18,0.11-0.24c-0.05-0.17-0.02-0.31,0.02-0.41c-0.12-0.47,0.06-0.74-0.06-1.22
				c0.11-0.91,0.48-1.62,0.63-2.48c0.33-0.47,0.34-1.17,0.57-1.69c0.06-1.57,0.57-2.77,0.75-4.2c0.29-0.86,0.56-1.69,0.77-2.55
				c0.33-0.32,0.26-0.96,0.7-1.21c0.19,0.67-0.15,1.34,0.06,1.81c0.35-0.48,0.56-0.99,0.71-1.59c0.2-0.31,0.41-0.64,0.44-1.11
				C284.63,14.18,284.63,13.71,284.93,13.61"/>
		</g>
	</g>
</g>
</svg>
