<?xml version="1.0" encoding="UTF-8"?>
<svg id="Layer_1" data-name="Layer 1" xmlns="http://www.w3.org/2000/svg" viewBox="0 0 200 200">
  <defs>
    <style>
      .cls-1 {
        fill: #db0032;
      }

      .cls-1, .cls-2 {
        stroke-width: 0px;
      }

      .cls-3 {
        font-family: Aeonik-Bold, Aeonik;
        font-size: 30.73px;
        font-weight: 700;
      }

      .cls-3, .cls-2 {
        fill: #1d252c;
      }
    </style>
  </defs>
  <g>
    <rect class="cls-2" x="15.5" y="52.91" width="169" height="59.47" rx="29.73" ry="29.73"/>
    <path class="cls-1" d="M154.77,117.84H45.23c-19.41,0-35.2-15.79-35.2-35.2s15.79-35.2,35.2-35.2h109.53c19.41,0,35.2,15.79,35.2,35.2s-15.79,35.2-35.2,35.2ZM45.23,58.37c-13.38,0-24.27,10.89-24.27,24.27s10.89,24.27,24.27,24.27h109.53c13.38,0,24.27-10.89,24.27-24.27s-10.89-24.27-24.27-24.27H45.23Z"/>
    <path class="cls-1" d="M100,117.84c-18.77,0-34.04-15.27-34.04-34.04s15.27-34.04,34.04-34.04,34.04,15.27,34.04,34.04-15.27,34.04-34.04,34.04ZM100,60.69c-12.74,0-23.11,10.37-23.11,23.11s10.37,23.11,23.11,23.11,23.11-10.37,23.11-23.11-10.37-23.11-23.11-23.11Z"/>
  </g>
  <text class="cls-3" transform="translate(56.32 146.23)"><tspan x="0" y="0">WWW</tspan></text>
</svg>