<?xml version="1.0" encoding="UTF-8"?>
<svg id="Layer_1" data-name="Layer 1" xmlns="http://www.w3.org/2000/svg" viewBox="0 0 200 200">
  <defs>
    <style>
      .cls-1 {
        fill: #1d252c;
      }

      .cls-2 {
        fill: #db0032;
      }
    </style>
  </defs>
  <g>
    <path class="cls-2" d="M132.62,85.08H61.63c-.85,0-1.54.69-1.54,1.54v17.38c0,.85.69,1.54,1.54,1.54h70.99c.85,0,1.54-.69,1.54-1.54v-17.38c0-.85-.69-1.54-1.54-1.54ZM100.66,96.61c0,.41-.33.75-.75.75h-29.4c-.41,0-.75-.33-.75-.75v-2.62c0-.41.33-.75.75-.75h29.4c.41,0,.75.33.75.75v2.62ZM114.42,97.76c-1.36,0-2.46-1.1-2.46-2.46s1.1-2.46,2.46-2.46,2.46,1.1,2.46,2.46-1.1,2.46-2.46,2.46ZM125.84,97.76c-1.36,0-2.46-1.1-2.46-2.46s1.1-2.46,2.46-2.46,2.46,1.1,2.46,2.46-1.1,2.46-2.46,2.46Z"/>
    <path class="cls-2" d="M132.62,110.5H61.63c-.85,0-1.54.69-1.54,1.54v17.38c0,.85.69,1.54,1.54,1.54h70.99c.85,0,1.54-.69,1.54-1.54v-17.38c0-.85-.69-1.54-1.54-1.54ZM100.66,122.03c0,.41-.33.75-.75.75h-29.4c-.41,0-.75-.33-.75-.75v-2.62c0-.41.33-.75.75-.75h29.4c.41,0,.75.33.75.75v2.62ZM114.42,123.18c-1.36,0-2.46-1.1-2.46-2.46s1.1-2.46,2.46-2.46,2.46,1.1,2.46,2.46-1.1,2.46-2.46,2.46ZM125.84,123.18c-1.36,0-2.46-1.1-2.46-2.46s1.1-2.46,2.46-2.46,2.46,1.1,2.46,2.46-1.1,2.46-2.46,2.46Z"/>
    <path class="cls-2" d="M132.62,135.92H61.63c-.85,0-1.54.69-1.54,1.54v17.38c0,.85.69,1.54,1.54,1.54h70.99c.85,0,1.54-.69,1.54-1.54v-17.38c0-.85-.69-1.54-1.54-1.54ZM100.66,147.45c0,.41-.33.75-.75.75h-29.4c-.41,0-.75-.33-.75-.75v-2.62c0-.41.33-.75.75-.75h29.4c.41,0,.75.33.75.75v2.62ZM114.42,148.6c-1.36,0-2.46-1.1-2.46-2.46s1.1-2.46,2.46-2.46,2.46,1.1,2.46,2.46-1.1,2.46-2.46,2.46ZM125.84,148.6c-1.36,0-2.46-1.1-2.46-2.46s1.1-2.46,2.46-2.46,2.46,1.1,2.46,2.46-1.1,2.46-2.46,2.46Z"/>
  </g>
  <path class="cls-1" d="M157.08,69.12c-2.81-12.88-14.28-22.52-28-22.52-3.36,0-6.58.58-9.57,1.64-6.38-14.5-19.89-24.51-35.52-24.51-19.66,0-35.96,15.82-38.94,36.52-15.65,1.77-27.81,15.05-27.81,31.16,0,17.32,14.04,31.36,31.37,31.36h7.3v-10.88c0-1.67.8-3.15,2.04-4.08-1.24-.93-2.04-2.42-2.04-4.08v-17.64c0-2.82,2.29-5.11,5.11-5.11h72.07c2.81,0,5.1,2.29,5.1,5.11v17.64c0,1.67-.8,3.15-2.04,4.08,1.23.93,2.04,2.42,2.04,4.08v10.88h17.73c14.82,0,26.84-12.01,26.84-26.83s-11.4-26.2-25.68-26.81Z"/>
</svg>