<?xml version="1.0" encoding="utf-8"?>
<!-- Generator: Adobe Illustrator 27.9.0, SVG Export Plug-In . SVG Version: 6.00 Build 0)  -->
<svg version="1.1" id="Layer_2_00000075138655848460204660000016029470610536501142_"
	 xmlns="http://www.w3.org/2000/svg" xmlns:xlink="http://www.w3.org/1999/xlink" x="0px" y="0px" viewBox="0 0 12.7 12.7"
	 style="enable-background:new 0 0 12.7 12.7;" xml:space="preserve">
<style type="text/css">
	.st0{fill:#DB0032;stroke:#DB0032;stroke-width:5.000000e-02;stroke-miterlimit:10;}
	.st1{fill:#24272A;stroke:#24272A;stroke-width:5.000000e-02;stroke-miterlimit:10;}
</style>
<g id="Layer_1-2">
	<path class="st0" d="M6.5,2.3C6,2.3,5.6,2.7,5.6,3.2S6,4.1,6.5,4.1c0.2,0,0.4-0.1,0.5-0.2v0.1h0.4V3.2C7.5,2.7,7.1,2.3,6.5,2.3
		L6.5,2.3z M6.5,3.7C6.2,3.7,6,3.5,6,3.2s0.2-0.5,0.5-0.5s0.5,0.2,0.5,0.5S6.8,3.7,6.5,3.7z"/>
	<path class="st1" d="M6,2.3V1.7c0.2,0.1,0.3,0.2,0.5,0.2c0.5,0,0.9-0.4,0.9-0.9S7,0,6.5,0S5.6,0.4,5.6,0.9v1.7
		C5.7,2.5,5.9,2.3,6,2.3z M6.5,0.4c0.3,0,0.5,0.2,0.5,0.5S6.8,1.4,6.5,1.4S6,1.2,6,0.9S6.3,0.4,6.5,0.4z"/>
	<path class="st0" d="M9.4,3.6C9,3.2,8.5,3.2,8.1,3.6s-0.4,0.9,0,1.3C8.2,5,8.4,5.1,8.6,5.1L8.5,5.2l0.3,0.3l0.6-0.6l0,0
		C9.7,4.5,9.7,3.9,9.4,3.6L9.4,3.6z M8.4,4.6c-0.2-0.2-0.2-0.5,0-0.7c0.2-0.2,0.5-0.2,0.7,0s0.2,0.5,0,0.7S8.6,4.8,8.4,4.6z"/>
	<path class="st1" d="M9,3.2l0.4-0.4c0,0.2,0.1,0.3,0.2,0.5c0.4,0.4,0.9,0.3,1.3,0s0.4-0.9,0-1.3S10,1.6,9.7,2l0,0L8.5,3.2
		C8.6,3.2,8.8,3.2,9,3.2z M10.7,2.3c0.2,0.2,0.2,0.5,0,0.7S10.2,3.2,10,3s-0.2-0.5,0-0.7S10.5,2.1,10.7,2.3L10.7,2.3z"/>
	<path class="st0" d="M10.5,6.5c0-0.5-0.4-0.9-0.9-0.9S8.6,6,8.6,6.5c0,0.2,0.1,0.4,0.2,0.5H8.6v0.4h0.9C10,7.5,10.5,7,10.5,6.5
		L10.5,6.5z M9,6.5C9,6.2,9.3,6,9.5,6s0.5,0.2,0.5,0.5C10.1,6.8,9.8,7,9.5,7S9,6.8,9,6.5z"/>
	<path class="st1" d="M10.5,6H11c-0.1,0.2-0.2,0.3-0.2,0.5c0,0.5,0.4,0.9,0.9,0.9s0.9-0.4,0.9-0.9s-0.4-0.9-0.9-0.9h-1.7
		C10.2,5.7,10.4,5.8,10.5,6L10.5,6z M12.3,6.5c0,0.3-0.2,0.5-0.5,0.5s-0.5-0.2-0.5-0.5S11.5,6,11.8,6S12.3,6.2,12.3,6.5z"/>
	<path class="st0" d="M9.1,9.4c0.4-0.4,0.4-0.9,0-1.3c-0.4-0.4-0.9-0.4-1.3,0C7.7,8.2,7.6,8.4,7.6,8.6L7.5,8.5L7.2,8.7l0.6,0.6l0,0
		C8.2,9.7,8.8,9.7,9.1,9.4L9.1,9.4z M8.1,8.4c0.2-0.2,0.5-0.2,0.7,0s0.2,0.5,0,0.7s-0.5,0.2-0.7,0S7.9,8.6,8.1,8.4z"/>
	<path class="st1" d="M9.5,9l0.4,0.4c-0.2,0-0.4,0.1-0.5,0.2c-0.4,0.4-0.4,0.9,0,1.3s0.9,0.4,1.3,0s0.4-0.9,0-1.3l0,0L9.5,8.5
		C9.6,8.6,9.6,8.8,9.5,9z M10.4,10.7c-0.2,0.2-0.5,0.2-0.7,0s-0.2-0.5,0-0.7s0.5-0.2,0.7,0S10.6,10.5,10.4,10.7L10.4,10.7z"/>
	<path class="st0" d="M6.2,10.5c0.5,0,0.9-0.4,0.9-0.9S6.7,8.6,6.2,8.6C6,8.6,5.8,8.7,5.7,8.8V8.6H5.3v0.9C5.3,10,5.7,10.5,6.2,10.5
		L6.2,10.5z M6.2,9c0.3,0,0.5,0.2,0.5,0.5c0,0.3-0.2,0.5-0.5,0.5S5.7,9.8,5.7,9.5C5.7,9.2,5.9,9,6.2,9z"/>
	<path class="st1" d="M6.7,10.5V11c-0.2-0.1-0.3-0.2-0.5-0.2c-0.5,0-0.9,0.4-0.9,0.9c0,0.5,0.4,0.9,0.9,0.9s0.9-0.4,0.9-0.9v-1.7
		C7,10.2,6.9,10.4,6.7,10.5L6.7,10.5z M6.2,12.3c-0.3,0-0.5-0.2-0.5-0.5c0-0.3,0.2-0.5,0.5-0.5s0.5,0.2,0.5,0.5
		C6.7,12.1,6.5,12.3,6.2,12.3z"/>
	<path class="st0" d="M3.3,9.1c0.4,0.4,0.9,0.4,1.3,0s0.4-0.9,0-1.3C4.5,7.7,4.3,7.6,4.2,7.6l0.1-0.1L4,7.2L3.4,7.8l0,0
		C3,8.2,3,8.8,3.3,9.1L3.3,9.1z M4.3,8.1c0.2,0.2,0.2,0.5,0,0.7S3.8,9,3.6,8.8s-0.2-0.5,0-0.7C3.8,7.9,4.1,7.9,4.3,8.1z"/>
	<path class="st1" d="M3.7,9.5L3.3,9.9c0-0.2-0.1-0.4-0.2-0.5c-0.4-0.4-0.9-0.4-1.3,0s-0.4,0.9,0,1.3s0.9,0.4,1.3,0l0,0l1.2-1.2
		C4.1,9.5,3.9,9.5,3.7,9.5z M2,10.4c-0.2-0.2-0.2-0.5,0-0.7s0.5-0.2,0.7,0s0.2,0.5,0,0.7S2.2,10.6,2,10.4L2,10.4z"/>
	<path class="st0" d="M2.3,6.2c0,0.5,0.4,0.9,0.9,0.9s0.9-0.4,0.9-0.9C4.1,6,4,5.8,3.9,5.7h0.1V5.3H3.2C2.7,5.3,2.3,5.7,2.3,6.2
		L2.3,6.2z M3.7,6.2c0,0.3-0.2,0.5-0.5,0.5S2.7,6.5,2.7,6.2s0.2-0.5,0.5-0.5S3.7,5.9,3.7,6.2z"/>
	<path class="st1" d="M2.3,6.7H1.7c0.1-0.2,0.2-0.3,0.2-0.5c0-0.5-0.4-0.9-0.9-0.9S0,5.7,0,6.2s0.4,0.9,0.9,0.9h1.7
		C2.5,7,2.4,6.9,2.3,6.7z M0.4,6.2c0-0.3,0.2-0.5,0.5-0.5s0.5,0.2,0.5,0.5S1.2,6.7,0.9,6.7S0.4,6.5,0.4,6.2z"/>
	<path class="st0" d="M3.6,3.3c-0.4,0.4-0.3,0.9,0,1.3s0.9,0.4,1.3,0C5,4.5,5.1,4.3,5.1,4.2l0.1,0.1L5.5,4L4.9,3.4l0,0
		C4.5,3,4,3,3.6,3.3L3.6,3.3z M4.6,4.3c-0.2,0.2-0.5,0.2-0.7,0s-0.2-0.5,0-0.7c0.2-0.2,0.5-0.2,0.7,0S4.8,4.1,4.6,4.3z"/>
	<path class="st1" d="M3.2,3.7L2.8,3.3C3,3.3,3.2,3.2,3.3,3c0.4-0.4,0.3-0.9,0-1.3S2.4,1.4,2,1.7S1.6,2.7,2,3l0,0l1.2,1.2
		C3.2,4.1,3.2,3.9,3.2,3.7z M2.3,2C2.5,1.8,2.8,1.8,3,2s0.2,0.5,0,0.7S2.5,3,2.3,2.8S2.1,2.2,2.3,2L2.3,2z"/>
</g>
</svg>
