<?xml version="1.0" encoding="UTF-8"?>
<svg id="Layer_1" data-name="Layer 1" xmlns="http://www.w3.org/2000/svg" viewBox="0 0 200 200">
  <defs>
    <style>
      .cls-1 {
        fill: #db0032;
      }

      .cls-1, .cls-2, .cls-3 {
        stroke-width: 0px;
      }

      .cls-2 {
        fill: #e3e3e4;
      }

      .cls-3 {
        fill: #1d252c;
      }
    </style>
  </defs>
  <g>
    <rect class="cls-3" x="50.14" y="15.15" width="99.72" height="169.7" rx="27.64" ry="27.64"/>
    <circle class="cls-1" cx="100" cy="171.1" r="4.08"/>
    <path class="cls-1" d="M122.22,185.51h-44.45c-15.6,0-28.3-12.69-28.3-28.3V42.79c0-15.6,12.69-28.3,28.3-28.3h44.45c15.6,0,28.29,12.69,28.29,28.3v114.43c0,15.6-12.69,28.3-28.29,28.3ZM77.78,15.81c-14.88,0-26.98,12.1-26.98,26.98v114.43c0,14.88,12.1,26.98,26.98,26.98h44.45c14.88,0,26.98-12.1,26.98-26.98V42.79c0-14.88-12.1-26.98-26.98-26.98h-44.45Z"/>
  </g>
  <g>
    <path class="cls-2" d="M117.82,97.73c0,4.37.01,8.73,0,13.1,0,2.72-1.28,3.95-4.03,3.99-.24,0-.49.03-.73,0-1.28-.17-1.71.4-1.66,1.66.08,2.23.05,4.46.01,6.69-.04,2.64-1.75,4.43-4.19,4.44-2.42.01-4.05-1.78-4.07-4.49-.02-2.23-.05-4.46.01-6.69.03-1.17-.32-1.72-1.56-1.62-1.06.08-2.14.08-3.2,0-1.25-.09-1.59.47-1.56,1.63.06,2.28.03,4.56.01,6.84-.03,2.53-1.64,4.29-3.93,4.34-2.46.06-4.27-1.7-4.32-4.3-.05-2.38-.04-4.75,0-7.13.02-1-.36-1.44-1.36-1.37-.58.04-1.17.03-1.75-.02-1.99-.18-3.28-1.45-3.29-3.39-.03-9.22,0-18.44-.03-27.66,0-.99.39-1.38,1.38-1.38,10.97.02,21.93.02,32.9,0,1.13,0,1.39.54,1.38,1.53-.02,4.61-.01,9.22-.01,13.83Z"/>
    <path class="cls-2" d="M100.01,81.04c-5.29,0-10.58,0-15.86,0-1.96,0-2.18-.27-1.82-2.24.8-4.35,3.38-7.42,7.03-9.71,1.68-1.06,1.69-1.04.59-2.7-.56-.85-1.19-1.67-1.66-2.56-.18-.34-.03-.86-.03-1.3.46.13,1.09.13,1.33.43.84,1.06,1.58,2.21,2.3,3.36.48.77,1.05,1.03,1.95.75,4.1-1.25,8.22-1.25,12.32,0,.89.27,1.47.04,1.95-.74.69-1.11,1.39-2.23,2.21-3.24.28-.34.94-.38,1.42-.56-.02.48.11,1.04-.09,1.42-.47.9-1.1,1.71-1.66,2.56q-1.03,1.55.53,2.5c3.08,1.87,5.41,4.38,6.66,7.81,1.35,3.72,1.01,4.22-2.91,4.22-4.75,0-9.51,0-14.26,0ZM94.11,73.81c-.11-1.07-.66-1.74-1.73-1.76-1.08-.02-1.74.66-1.78,1.68-.04,1.04.57,1.71,1.7,1.7,1.07-.01,1.69-.55,1.82-1.62ZM107.47,75.43c1.29.02,1.91-.59,1.93-1.58.03-1.05-.62-1.77-1.7-1.8-1.08-.03-1.76.6-1.78,1.7-.02,1.13.71,1.62,1.55,1.68Z"/>
    <path class="cls-2" d="M80.81,94.58c0,2.52.02,5.05,0,7.57-.03,2.73-1.77,4.54-4.27,4.51-2.41-.03-3.96-1.72-3.97-4.42-.02-5.14-.02-10.29,0-15.43.01-2.77,1.58-4.43,4.1-4.42,2.4,0,4.11,1.82,4.14,4.48.03,2.57,0,5.14,0,7.71Z"/>
    <path class="cls-2" d="M127.44,94.42c0,2.67.03,5.34,0,8.01-.03,2.56-1.64,4.22-4.01,4.22-2.31,0-4.18-1.73-4.2-4.12-.06-5.34-.06-10.67,0-16.01.03-2.41,1.88-4.16,4.17-4.14,2.42.02,4.01,1.64,4.05,4.18.04,2.62,0,5.24,0,7.86Z"/>
  </g>
</svg>