<?xml version="1.0" encoding="UTF-8"?>
<svg id="Layer_1" data-name="Layer 1" xmlns="http://www.w3.org/2000/svg" viewBox="0 0 200 200">
  <defs>
    <style>
      .cls-1 {
        fill: #1d252c;
      }

      .cls-2 {
        fill: #a7a8a9;
      }

      .cls-3 {
        fill: #db0032;
      }
    </style>
  </defs>
  <g>
    <path class="cls-2" d="M99.98,72.89c-1.93,0-3.5,1.57-3.5,3.5s1.57,3.5,3.5,3.5c6.72,0,12.2,5.47,12.2,12.2,0,1.94,1.57,3.5,3.5,3.5s3.5-1.57,3.5-3.5c0-10.59-8.61-19.2-19.2-19.2Z"/>
    <path class="cls-3" d="M162.45,88.37h-9.07c-1.84-26.54-23.09-47.8-49.67-49.64v-9.1c0-2.06-1.67-3.73-3.73-3.73s-3.73,1.67-3.73,3.73v9.1c-26.54,1.84-47.8,23.09-49.64,49.64h-9.1c-2.06,0-3.73,1.67-3.73,3.73s1.67,3.73,3.73,3.73h9.1c1.84,26.57,23.1,47.82,49.64,49.67v9.07c0,2.06,1.67,3.73,3.73,3.73s3.73-1.67,3.73-3.73v-9.02c8.03-.55,15.55-2.86,22.21-6.57l-5.07-5.78c-6.26,3.24-13.38,5.03-20.87,5.03-25.41,0-46.1-20.72-46.1-46.13s20.68-46.1,46.1-46.1,46.13,20.68,46.13,46.1c0,7.49-1.83,14.61-5.03,20.87l5.78,5.07c3.71-6.68,6.02-14.21,6.57-22.2h9.02c2.06,0,3.73-1.67,3.73-3.73s-1.67-3.73-3.73-3.73h0Z"/>
    <path class="cls-1" d="M128.65,112.25c4.03-5.71,6.41-12.65,6.41-20.15,0-19.34-15.74-35.08-35.08-35.08s-35.08,15.74-35.08,35.08,15.74,35.08,35.08,35.08c7.5,0,14.44-2.39,20.15-6.41l19.47,22.05c.3.35.65.72,1.02,1.02,3.34,2.78,8.31,2.32,11.09-1.02,2.78-3.34,2.32-8.31-1.02-11.09l-22.05-19.47h.01ZM99.98,118.72c-14.68,0-26.63-11.95-26.63-26.63s11.94-26.63,26.63-26.63,26.63,11.95,26.63,26.63-11.94,26.63-26.63,26.63Z"/>
  </g>
  <path class="cls-1" d="M64.5,167.29l7.13,1.21c1.14.19,2.25-.51,2.56-1.63l1.65-5.98c.31-1.12-.28-2.29-1.36-2.71l-6.74-2.62c-.24-.09-.4-.32-.42-.58-.05-.86-.16-1.71-.32-2.54-.05-.26.05-.52.26-.67l5.9-4.19c.94-.67,1.23-1.95.66-2.96l-3.06-5.4c-.57-1.01-1.81-1.42-2.87-.95l-6.62,2.91c-.24.11-.51.06-.71-.11-.63-.57-1.3-1.1-2.01-1.58-.22-.15-.33-.4-.29-.66l1.21-7.13c.19-1.14-.51-2.25-1.63-2.55l-5.98-1.65c-1.12-.31-2.29.28-2.71,1.36l-2.62,6.74c-.09.24-.32.4-.58.42-.86.05-1.71.16-2.54.33-.26.05-.52-.05-.67-.27l-4.19-5.9c-.67-.94-1.95-1.23-2.96-.66l-5.4,3.06c-1.01.57-1.42,1.82-.95,2.88l2.91,6.62c.11.24.06.51-.12.71-.57.63-1.1,1.31-1.58,2.01-.15.22-.4.33-.66.29l-7.13-1.21c-1.14-.19-2.25.51-2.55,1.63l-1.65,5.98c-.31,1.12.28,2.29,1.36,2.71l6.74,2.62c.24.09.4.32.42.58.05.86.16,1.71.32,2.54.05.26-.05.52-.26.67l-5.9,4.19c-.94.67-1.23,1.95-.66,2.96l3.06,5.4c.57,1.01,1.81,1.42,2.87.95l6.62-2.92c.24-.11.51-.06.71.12.64.57,1.31,1.1,2.02,1.58.22.15.33.4.28.66l-1.21,7.13c-.19,1.14.51,2.25,1.63,2.55l5.98,1.65c1.12.31,2.29-.28,2.71-1.36l2.62-6.74c.09-.24.32-.4.58-.42.86-.05,1.71-.16,2.54-.32.26-.05.52.05.67.26l4.19,5.9c.67.95,1.95,1.23,2.96.66l5.4-3.06c1.01-.57,1.42-1.81.95-2.88l-2.91-6.62c-.11-.24-.06-.51.12-.71.57-.64,1.1-1.31,1.58-2.02.15-.22.4-.33.66-.28h-.01ZM44.48,165.86c-5.34-1.47-8.47-7-7-12.34s7-8.47,12.34-7,8.47,7,7,12.34-7,8.47-12.34,7Z"/>
  <path class="cls-1" d="M174.41,42.42l5.63-.57c.9-.09,1.59-.85,1.59-1.76v-4.86c0-.91-.69-1.67-1.59-1.76l-5.63-.57c-.2-.02-.37-.16-.44-.35-.22-.64-.48-1.25-.77-1.85-.09-.18-.07-.4.06-.56l3.58-4.39c.57-.7.52-1.73-.12-2.37l-3.44-3.43c-.64-.64-1.66-.69-2.37-.12l-4.39,3.58c-.16.13-.38.15-.56.06-.6-.3-1.21-.56-1.85-.77-.19-.07-.33-.23-.35-.44l-.57-5.63c-.09-.9-.85-1.59-1.76-1.59h-4.86c-.91,0-1.67.69-1.76,1.59l-.57,5.63c-.02.2-.16.37-.35.44-.64.22-1.25.48-1.85.77-.18.09-.4.07-.56-.06l-4.39-3.58c-.7-.57-1.73-.52-2.37.12l-3.43,3.43c-.64.64-.69,1.66-.12,2.37l3.58,4.39c.13.16.15.38.06.56-.29.6-.55,1.21-.77,1.85-.07.19-.23.33-.44.35l-5.63.57c-.9.09-1.59.85-1.59,1.76v4.86c0,.91.69,1.67,1.59,1.76l5.63.57c.2.02.37.16.44.35.22.64.48,1.25.77,1.85.09.18.07.4-.06.56l-3.58,4.39c-.57.7-.52,1.72.12,2.37l3.43,3.43c.64.64,1.66.69,2.37.12l4.39-3.58c.16-.13.37-.15.56-.06.6.29,1.21.56,1.85.77.19.07.33.23.35.44l.57,5.63c.09.9.85,1.59,1.76,1.59h4.86c.91,0,1.67-.69,1.76-1.59l.57-5.63c.02-.2.16-.37.35-.44.64-.22,1.25-.48,1.85-.77.18-.09.4-.07.56.06l4.39,3.58c.7.57,1.73.52,2.37-.12l3.44-3.43c.64-.64.69-1.66.12-2.37l-3.58-4.39c-.13-.16-.15-.37-.06-.56.29-.6.55-1.21.77-1.85.07-.19.23-.33.44-.35ZM159,45.51c-4.34,0-7.85-3.51-7.85-7.85s3.51-7.85,7.85-7.85,7.85,3.51,7.85,7.85-3.51,7.85-7.85,7.85Z"/>
</svg>