<?xml version="1.0" encoding="UTF-8"?>
<svg id="Layer_1" data-name="Layer 1" xmlns="http://www.w3.org/2000/svg" xmlns:xlink="http://www.w3.org/1999/xlink" version="1.1" viewBox="0 0 500 200">
  <defs>
    <style>
      .cls-1 {
        fill: url(#radial-gradient);
      }

      .cls-1, .cls-2, .cls-3, .cls-4, .cls-5, .cls-6, .cls-7, .cls-8, .cls-9, .cls-10, .cls-11, .cls-12, .cls-13, .cls-14, .cls-15, .cls-16, .cls-17, .cls-18, .cls-19, .cls-20, .cls-21, .cls-22, .cls-23, .cls-24, .cls-25, .cls-26, .cls-27, .cls-28, .cls-29, .cls-30, .cls-31, .cls-32, .cls-33, .cls-34, .cls-35, .cls-36, .cls-37, .cls-38 {
        stroke-width: 0px;
      }

      .cls-2 {
        fill: url(#radial-gradient-34);
      }

      .cls-3 {
        fill: url(#radial-gradient-35);
      }

      .cls-4 {
        fill: url(#radial-gradient-24);
      }

      .cls-5 {
        fill: url(#radial-gradient-28);
      }

      .cls-6 {
        fill: url(#radial-gradient-23);
      }

      .cls-7 {
        fill: url(#radial-gradient-29);
      }

      .cls-8 {
        fill: url(#radial-gradient-36);
      }

      .cls-9 {
        fill: url(#radial-gradient-26);
      }

      .cls-10 {
        fill: url(#radial-gradient-27);
      }

      .cls-11 {
        fill: url(#radial-gradient-22);
      }

      .cls-12 {
        fill: url(#radial-gradient-37);
      }

      .cls-13 {
        fill: url(#radial-gradient-32);
      }

      .cls-14 {
        fill: url(#radial-gradient-33);
      }

      .cls-15 {
        fill: url(#radial-gradient-31);
      }

      .cls-16 {
        fill: url(#radial-gradient-30);
      }

      .cls-17 {
        fill: url(#radial-gradient-25);
      }

      .cls-18 {
        fill: url(#radial-gradient-20);
      }

      .cls-19 {
        fill: url(#radial-gradient-21);
      }

      .cls-20 {
        fill: url(#radial-gradient-14);
      }

      .cls-21 {
        fill: url(#radial-gradient-13);
      }

      .cls-22 {
        fill: url(#radial-gradient-12);
      }

      .cls-23 {
        fill: url(#radial-gradient-15);
      }

      .cls-24 {
        fill: url(#radial-gradient-16);
      }

      .cls-25 {
        fill: url(#radial-gradient-11);
      }

      .cls-26 {
        fill: url(#radial-gradient-19);
      }

      .cls-27 {
        fill: url(#radial-gradient-18);
      }

      .cls-28 {
        fill: url(#radial-gradient-17);
      }

      .cls-29 {
        fill: url(#radial-gradient-10);
      }

      .cls-30 {
        fill: url(#radial-gradient-2);
      }

      .cls-31 {
        fill: url(#radial-gradient-3);
      }

      .cls-32 {
        fill: url(#radial-gradient-4);
      }

      .cls-33 {
        fill: url(#radial-gradient-6);
      }

      .cls-34 {
        fill: url(#radial-gradient-9);
      }

      .cls-35 {
        fill: url(#radial-gradient-8);
      }

      .cls-36 {
        fill: url(#radial-gradient-5);
      }

      .cls-37 {
        fill: url(#radial-gradient-7);
      }

      .cls-38 {
        fill: #231f20;
      }
    </style>
    <radialGradient id="radial-gradient" cx="482.36" cy="32.97" fx="434.19" fy="-75.39" r="122.01" gradientTransform="translate(12.48 182.51) scale(.85 -.91)" gradientUnits="userSpaceOnUse">
      <stop offset="0" stop-color="#fff"/>
      <stop offset=".02" stop-color="#fde7dd"/>
      <stop offset=".08" stop-color="#f8b098"/>
      <stop offset=".14" stop-color="#f3866a"/>
      <stop offset=".2" stop-color="#f06349"/>
      <stop offset=".24" stop-color="#ed4534"/>
      <stop offset=".28" stop-color="#ec2d2a"/>
      <stop offset=".31" stop-color="#eb2227"/>
      <stop offset=".48" stop-color="#ab2223"/>
      <stop offset=".62" stop-color="#ea2227"/>
      <stop offset=".62" stop-color="#eb2227"/>
    </radialGradient>
    <radialGradient id="radial-gradient-2" cx="457.13" cy="55.38" fx="457.13" fy="55.38" r="112.53" gradientTransform="translate(0 196.91) scale(1 -.98)" gradientUnits="userSpaceOnUse">
      <stop offset=".09" stop-color="#eb2227"/>
      <stop offset=".1" stop-color="#e02227"/>
      <stop offset=".21" stop-color="#9a1a1d"/>
      <stop offset=".27" stop-color="#821518"/>
      <stop offset=".32" stop-color="#861619"/>
      <stop offset=".39" stop-color="#95191c"/>
      <stop offset=".46" stop-color="#ad1d20"/>
      <stop offset=".53" stop-color="#d12025"/>
      <stop offset=".57" stop-color="#eb2227"/>
      <stop offset=".65" stop-color="#ac1f24"/>
      <stop offset=".7" stop-color="#ba2025"/>
      <stop offset=".79" stop-color="#e12127"/>
      <stop offset=".8" stop-color="#e82127"/>
      <stop offset=".84" stop-color="#dd2227"/>
      <stop offset=".92" stop-color="#c52327"/>
      <stop offset=".93" stop-color="#c22326"/>
    </radialGradient>
    <radialGradient id="radial-gradient-3" cx="405.59" cy="91.66" fx="379.76" fy="55.47" r="54.22" gradientTransform="translate(0 186.62) scale(1 -.95)" gradientUnits="userSpaceOnUse">
      <stop offset=".54" stop-color="#fff"/>
      <stop offset=".66" stop-color="#fcfcfc"/>
      <stop offset=".75" stop-color="#f2f2f2"/>
      <stop offset=".83" stop-color="#e2e2e2"/>
      <stop offset=".9" stop-color="#cbcbcb"/>
      <stop offset=".93" stop-color="#bfbfbf"/>
      <stop offset=".95" stop-color="#c4c4c4"/>
      <stop offset=".97" stop-color="#d1d1d1"/>
      <stop offset=".98" stop-color="#e7e7e7"/>
      <stop offset="1" stop-color="#fff"/>
    </radialGradient>
    <radialGradient id="radial-gradient-4" cx="406.81" cy="115.91" fx="406.81" fy="115.91" r="8.74" gradientTransform="translate(0 202) scale(1 -1)" gradientUnits="userSpaceOnUse">
      <stop offset="0" stop-color="#fff"/>
      <stop offset=".03" stop-color="#e9f3e4"/>
      <stop offset=".14" stop-color="#acd69d"/>
      <stop offset=".22" stop-color="#7fc46d"/>
      <stop offset=".29" stop-color="#60ba4f"/>
      <stop offset=".32" stop-color="#51b748"/>
      <stop offset=".4" stop-color="#43a646"/>
      <stop offset=".6" stop-color="#1d8842"/>
      <stop offset=".71" stop-color="#027e40"/>
      <stop offset=".75" stop-color="#1a8242"/>
      <stop offset=".81" stop-color="#398e4a"/>
      <stop offset=".87" stop-color="#5da55a"/>
      <stop offset=".93" stop-color="#83c573"/>
    </radialGradient>
    <radialGradient id="radial-gradient-5" cx="406.75" cy="124.29" fx="406.75" fy="124.29" r="6.97" xlink:href="#radial-gradient-4"/>
    <radialGradient id="radial-gradient-6" cx="416.14" cy="119.09" fx="416.14" fy="119.09" r="7.23" xlink:href="#radial-gradient-4"/>
    <radialGradient id="radial-gradient-7" cx="413.78" cy="127.23" fx="413.78" fy="127.23" r="6.48" xlink:href="#radial-gradient-4"/>
    <radialGradient id="radial-gradient-8" cx="406.61" cy="137.13" fx="406.61" fy="137.13" r="4.74" xlink:href="#radial-gradient-4"/>
    <radialGradient id="radial-gradient-9" cx="435.99" cy="116.13" fx="435.99" fy="116.13" r="4.29" xlink:href="#radial-gradient-4"/>
    <radialGradient id="radial-gradient-10" cx="425.55" cy="132" fx="425.55" fy="132" r="4.37" xlink:href="#radial-gradient-4"/>
    <radialGradient id="radial-gradient-11" cx="430.56" cy="133.22" fx="430.56" fy="133.22" r="3.87" xlink:href="#radial-gradient-4"/>
    <radialGradient id="radial-gradient-12" cx="430.89" cy="118.5" fx="430.89" fy="118.5" r="4.28" xlink:href="#radial-gradient-4"/>
    <radialGradient id="radial-gradient-13" cx="406.56" cy="141.9" fx="406.56" fy="141.9" r="3.65" xlink:href="#radial-gradient-4"/>
    <radialGradient id="radial-gradient-14" cx="435.54" cy="132.97" fx="435.54" fy="132.97" r="3.38" xlink:href="#radial-gradient-4"/>
    <radialGradient id="radial-gradient-15" cx="440.84" cy="112.33" fx="440.84" fy="112.33" r="3.31" xlink:href="#radial-gradient-4"/>
    <radialGradient id="radial-gradient-16" cx="440.3" cy="131.7" fx="440.3" fy="131.7" r="2.38" xlink:href="#radial-gradient-4"/>
    <radialGradient id="radial-gradient-17" cx="443.58" cy="108.04" fx="443.58" fy="108.04" r="2.35" xlink:href="#radial-gradient-4"/>
    <radialGradient id="radial-gradient-18" cx="406.6" cy="131.29" fx="406.6" fy="131.29" r="5.81" xlink:href="#radial-gradient-4"/>
    <radialGradient id="radial-gradient-19" cx="415.54" cy="110.71" fx="415.54" fy="110.71" r="6.83" xlink:href="#radial-gradient-4"/>
    <radialGradient id="radial-gradient-20" cx="426.94" cy="100.19" fx="426.94" fy="100.19" r="4.61" xlink:href="#radial-gradient-4"/>
    <radialGradient id="radial-gradient-21" cx="429.3" cy="94.49" fx="429.3" fy="94.49" r="3.55" xlink:href="#radial-gradient-4"/>
    <radialGradient id="radial-gradient-22" cx="430.65" cy="89.51" fx="430.65" fy="89.51" r="2.5" xlink:href="#radial-gradient-4"/>
    <radialGradient id="radial-gradient-23" cx="418.87" cy="58.34" fx="418.87" fy="58.34" r="2.52" xlink:href="#radial-gradient-4"/>
    <radialGradient id="radial-gradient-24" cx="422.83" cy="106.22" fx="422.83" fy="106.22" r="5.65" xlink:href="#radial-gradient-4"/>
    <radialGradient id="radial-gradient-25" cx="424.33" cy="119.85" fx="424.33" fy="119.85" r="5.27" xlink:href="#radial-gradient-4"/>
    <radialGradient id="radial-gradient-26" cx="420.03" cy="129.97" fx="420.03" fy="129.97" r="5.37" xlink:href="#radial-gradient-4"/>
    <radialGradient id="radial-gradient-27" cx="405.06" cy="116.13" fx="405.06" fy="116.13" r="59.35" gradientTransform="translate(0 202) scale(1 -1)" gradientUnits="userSpaceOnUse">
      <stop offset=".02" stop-color="#fff"/>
      <stop offset=".12" stop-color="#bbddad"/>
      <stop offset=".21" stop-color="#86c775"/>
      <stop offset=".28" stop-color="#62bb51"/>
      <stop offset=".31" stop-color="#51b748"/>
      <stop offset=".33" stop-color="#4cac46"/>
      <stop offset=".59" stop-color="#1e7037"/>
      <stop offset=".71" stop-color="#065c2f"/>
    </radialGradient>
    <radialGradient id="radial-gradient-28" cx="413.1" cy="58.85" fx="413.1" fy="58.85" r="3.19" xlink:href="#radial-gradient-4"/>
    <radialGradient id="radial-gradient-29" cx="406.55" cy="145.85" fx="406.55" fy="145.85" r="2.91" xlink:href="#radial-gradient-4"/>
    <radialGradient id="radial-gradient-30" cx="406.52" cy="149.19" fx="406.52" fy="149.19" r="2.26" xlink:href="#radial-gradient-4"/>
    <radialGradient id="radial-gradient-31" cx="406.72" cy="87.51" fx="406.72" fy="87.51" r="6.72" xlink:href="#radial-gradient-4"/>
    <radialGradient id="radial-gradient-32" cx="406.86" cy="105.86" fx="406.86" fy="105.86" r="8.08" xlink:href="#radial-gradient-4"/>
    <radialGradient id="radial-gradient-33" cx="406.82" cy="95.99" fx="406.82" fy="95.99" r="7.39" xlink:href="#radial-gradient-4"/>
    <radialGradient id="radial-gradient-34" cx="406.68" cy="59.5" fx="406.68" fy="59.5" r="4.04" xlink:href="#radial-gradient-4"/>
    <radialGradient id="radial-gradient-35" cx="406.65" cy="72.28" fx="406.65" fy="72.28" r="5.18" xlink:href="#radial-gradient-4"/>
    <radialGradient id="radial-gradient-36" cx="406.63" cy="65.43" fx="406.63" fy="65.43" r="4.45" xlink:href="#radial-gradient-4"/>
    <radialGradient id="radial-gradient-37" cx="406.62" cy="79.68" fx="406.62" fy="79.68" r="5.58" xlink:href="#radial-gradient-4"/>
  </defs>
  <g>
    <g>
      <path class="cls-1" d="M405.7,150.78c-32.99,0-59.95-21.56-59.95-50.89s26.96-50.89,59.95-50.89"/>
      <path class="cls-30" d="M405.7,49.22c33.21,0,59.95,21.56,59.95,50.89s-26.96,50.89-59.95,50.89"/>
      <path class="cls-31" d="M461.55,99.89c0,27.39-23.72,49.38-56.07,49.38s-56.07-22.21-56.07-49.38,23.72-49.38,56.07-49.38c32.56-.22,56.07,22,56.07,49.38Z"/>
    </g>
    <g>
      <path class="cls-32" d="M413.24,91.05c0,.86-.65,1.51-1.51,1.51h-3.88c-.86,0-1.51-.65-1.51-1.51v-3.88c0-.86.65-1.51,1.51-1.51h3.88c.86,0,1.51.65,1.51,1.51v3.88Z"/>
      <path class="cls-36" d="M411.95,81.78c0,.65-.65,1.29-1.29,1.29h-3.02c-.65,0-1.29-.43-1.29-1.29v-3.02c0-.65.65-1.29,1.29-1.29h3.02c.65,0,1.29.65,1.29,1.29v3.02Z"/>
      <path class="cls-33" d="M421.44,86.95c0,.65-.65,1.29-1.29,1.29h-3.23c-.65,0-1.29-.65-1.29-1.29v-3.23c0-.65.65-1.29,1.29-1.29h3.23c.65,0,1.29.65,1.29,1.29v3.23Z"/>
      <path class="cls-37" d="M418.63,78.54c0,.65-.43,1.08-1.08,1.08h-2.8c-.65,0-1.08-.43-1.08-1.08v-2.8c0-.65.43-1.08,1.08-1.08h2.8c.65,0,1.08.43,1.08,1.08v2.8Z"/>
      <path class="cls-35" d="M410.22,67.55c0,.43-.43.86-.86.86h-2.16c-.43,0-.86-.43-.86-.86v-2.16c0-.43.43-.86.86-.86h2.16c.43,0,.86.43.86.86v2.16Z"/>
      <path class="cls-34" d="M439.12,88.25c0,.43-.43.65-.65.65h-1.94c-.43,0-.86-.43-.86-.65v-1.94c0-.43.43-.65.86-.65h1.94c.43,0,.65.43.65.65v1.94Z"/>
      <path class="cls-29" d="M428.77,72.51c0,.43-.43.86-.86.86h-1.94c-.43,0-.65-.43-.65-.86v-1.94c0-.43.43-.65.65-.65h1.94c.43,0,.86.43.86.65v1.94Z"/>
      <path class="cls-25" d="M433.51,71c0,.43-.22.65-.65.65h-1.73c-.43,0-.65-.22-.65-.65v-1.73c0-.43.22-.65.65-.65h1.73c.43,0,.65.22.65.65v1.73Z"/>
      <path class="cls-22" d="M434.16,85.88c0,.43-.43.65-.65.65h-1.94c-.43,0-.65-.43-.65-.65v-1.94c0-.43.22-.86.65-.86h1.94c.43,0,.65.43.65.86v1.94Z"/>
      <path class="cls-21" d="M409.36,62.15c0,.43-.22.65-.65.65h-1.73c-.43,0-.65-.22-.65-.65v-1.51c0-.43.22-.65.65-.65h1.73c.43,0,.65.22.65.65v1.51Z"/>
      <path class="cls-20" d="M438.04,71c0,.22-.22.65-.65.65h-1.51c-.22,0-.65-.22-.65-.65v-1.51c0-.22.22-.65.65-.65h1.51c.43,0,.65.22.65.65v1.51Z"/>
      <path class="cls-23" d="M443.22,91.48c0,.22-.22.65-.65.65h-1.51c-.22,0-.65-.22-.65-.65v-1.51c0-.22.22-.65.65-.65h1.51c.22,0,.65.22.65.65v1.51Z"/>
      <path class="cls-24" d="M442.14,71.64c0,.22-.22.43-.43.43h-1.08c-.22,0-.43-.22-.43-.43v-1.08c0-.22.22-.43.43-.43h1.08c.22,0,.43.22.43.43v1.08Z"/>
      <path class="cls-28" d="M445.37,95.36c0,.22-.22.43-.43.43h-1.08c-.22,0-.43-.22-.43-.43v-1.08c0-.22.22-.43.43-.43h1.08c.22,0,.43.22.43.43v1.08Z"/>
      <path class="cls-27" d="M410.87,74.01c0,.65-.43,1.08-1.08,1.08h-2.37c-.65,0-1.08-.43-1.08-1.08v-2.59c0-.65.43-1.08,1.08-1.08h2.59c.43,0,1.08.43,1.08,1.08v2.59h-.22Z"/>
      <path class="cls-26" d="M420.58,95.15c0,.65-.65,1.29-1.08,1.29h-3.02c-.65,0-1.08-.65-1.08-1.29v-3.02c0-.65.43-1.08,1.08-1.08h3.02c.65,0,1.08.43,1.08,1.08v3.02Z"/>
      <path class="cls-18" d="M430.28,104.42c0,.43-.43.86-.86.86h-2.16c-.43,0-.86-.43-.86-.86v-2.16c0-.43.43-.86.86-.86h2.16c.43,0,.86.43.86.86v2.16Z"/>
      <path class="cls-19" d="M432,109.6c0,.43-.22.65-.65.65h-1.51c-.43,0-.65-.22-.65-.65v-1.51c0-.43.22-.65.65-.65h1.51c.43,0,.65.22.65.65v1.51Z"/>
      <path class="cls-11" d="M432.44,113.91c0,.22-.22.43-.43.43h-1.08c-.22,0-.43-.22-.43-.43v-1.08c0-.22.22-.43.43-.43h1.08c.22,0,.43.22.43.43v1.08Z"/>
      <path class="cls-6" d="M420.79,145.18c0,.22-.22.43-.43.43h-1.08c-.22,0-.43-.22-.43-.43v-1.08c0-.22.22-.43.43-.43h1.08c.22,0,.43.22.43.43v1.08Z"/>
      <path class="cls-4" d="M427.04,99.03c0,.43-.43.86-1.08.86h-2.59c-.65,0-1.08-.43-1.08-.86v-2.59c0-.43.43-1.08,1.08-1.08h2.59c.65,0,1.08.43,1.08,1.08v2.59Z"/>
      <path class="cls-17" d="M428.34,85.23c0,.43-.43.86-.86.86h-2.37c-.43,0-.86-.43-.86-.86v-2.37c0-.43.43-.86.86-.86h2.37c.43,0,.86.43.86.86v2.37Z"/>
      <path class="cls-9" d="M424.03,75.09c0,.43-.43.86-.86.86h-2.37c-.43,0-.86-.43-.86-.86v-2.37c0-.43.43-.86.86-.86h2.37c.43,0,.86.43.86.86v2.37Z"/>
      <path class="cls-10" d="M399.01,92.34l1.29,7.98-1.29-.43,1.51,7.76-1.29-.43,1.51,7.33-1.08-.22,1.51,7.55-.86-.22,1.51,7.33h-.86l1.51,7.76-.86-.22,1.08,6.9-12.29,1.73h14.02V52.45s-1.51,6.04-.86,10.14c0,.43-1.51-3.67-2.16-5.61-.22,2.16,1.08,6.47,1.94,8.84-.22.22-2.37-4.1-3.45-6.47,0,2.8,3.23,9.49,3.23,9.49,0,0-2.59-3.67-4.31-6.47.22,2.8,4.1,9.06,4.1,9.06,0,.43-2.8-3.23-4.53-6.25,0,2.16,4.53,9.49,4.53,9.7,0,0-2.8-3.02-5.18-6.68.43,2.16,1.73,4.96,4.96,9.92,0,0-3.67-4.1-5.39-6.68.22,3.02,4.74,9.49,4.74,9.49-4.53-5.82-21.78-16.39-33.64-9.92,4.31-.86,9.7-.65,11.64-.22.86.22-6.69.86-8.41,1.94,0,0,10.57-1.29,12.08-.86-.86.43-6.69,1.08-7.98,2.37,3.45-.86,9.92-.86,12.08-.43.22,0-7.76.65-9.27,1.73,0,0,9.49-.65,13.59.43-2.16.22-7.98-.22-10.57,1.08,3.02-.22,11.21,0,14.23,1.08-1.51,0-8.41-.65-11,.86,6.69-.43,12.72,1.08,14.66,1.94-1.51-.22-8.19-1.51-11.43-.22,5.39.22,10.57,2.59,11.64,3.02-4.53-1.08-29.54-5.82-34.5,11.86,4.74-6.9,8.63-9.06,8.63-9.06,0,0-3.88,3.02-4.96,8.19,3.88-6.9,8.63-9.06,8.63-9.06,0,0-4.53,4.1-5.18,7.76,3.45-5.39,8.84-7.98,8.84-7.98,0,0-4.74,3.45-6.04,7.12,3.02-3.88,8.41-7.12,9.27-7.33.86-.22-3.67,2.59-6.04,6.47,2.59-2.8,8.19-5.82,10.78-6.47-1.73.86-4.74,2.59-7.76,6.04,3.67-2.59,9.06-5.61,14.02-5.39,0,0-7.98,2.16-10.35,4.74,5.61-2.59,11.43-1.73,13.37-1.94-3.88,1.08-21.78,8.19-18.55,26.31,0-1.29,2.16-9.49,2.59-10.35.22-.22,0,5.61,1.08,8.63.22-1.51,1.29-10.78,1.73-11.86,0,1.08,0,5.82.86,8.84.22-.65.86-9.49,1.73-11,0,.65-.65,4.53.22,8.63.43-2.8,1.29-9.49,2.37-11.21-.22.65-.86,5.61,0,9.49.22-1.94,1.29-9.06,3.02-11.64-.22,1.29-.86,5.18-.22,9.7.43-.86,1.08-8.41,3.23-11.43-.86,3.88-.65,6.68-.43,9.49,1.51-6.04,3.02-9.92,3.02-9.92Z"/>
      <path class="cls-5" d="M415.4,144.96c0,.22-.22.43-.65.43h-1.51c-.22,0-.65-.22-.65-.43v-1.51c0-.22.22-.65.65-.65h1.51c.22,0,.65.22.65.65v1.51Z"/>
      <path class="cls-7" d="M408.71,57.84c0,.22-.22.43-.43.43h-1.29c-.22,0-.43-.22-.43-.43v-1.29c0-.22.22-.43.43-.43h1.29c.22,0,.43.22.43.43v1.29Z"/>
      <path class="cls-16" d="M408.28,54.18c0,.22-.22.43-.43.43h-1.08c-.22,0-.43-.22-.43-.43v-1.08c0-.22.22-.43.43-.43h1.08c.22,0,.43.22.43.43v1.08Z"/>
      <path class="cls-15" d="M411.73,118.22c0,.65-.43,1.08-1.08,1.08h-3.02c-.65,0-1.08-.43-1.08-1.08v-3.02c0-.65.43-1.08,1.08-1.08h3.02c.65,0,1.08.43,1.08,1.08v3.02Z"/>
      <path class="cls-13" d="M412.81,100.75c0,.86-.65,1.29-1.29,1.29h-3.67c-.86,0-1.29-.65-1.29-1.29v-3.67c0-.86.65-1.51,1.29-1.51h3.67c.86,0,1.29.65,1.29,1.51v3.67Z"/>
      <path class="cls-14" d="M412.38,110.24c0,.65-.65,1.29-1.29,1.29h-3.23c-.65,0-1.29-.65-1.29-1.29v-3.23c0-.65.65-1.29,1.29-1.29h3.23c.65,0,1.29.65,1.29,1.29v3.23Z"/>
      <path class="cls-2" d="M409.79,144.75c0,.43-.22.65-.65.65h-1.73c-.43,0-.65-.22-.65-.65v-1.73c0-.43.22-.65.65-.65h1.73c.43,0,.65.43.65.65v1.73Z"/>
      <path class="cls-3" d="M410.44,132.67c0,.43-.43.86-.86.86h-2.37c-.43,0-.86-.43-.86-.86v-2.37c0-.43.43-.86.86-.86h2.37c.43,0,.86.43.86.86v2.37Z"/>
      <path class="cls-8" d="M410.01,139.14c0,.43-.43.86-.86.86h-1.94c-.43,0-.86-.43-.86-.86v-1.94c0-.43.43-.86.86-.86h1.94c.43,0,.86.43.86.86v1.94Z"/>
      <path class="cls-12" d="M410.87,125.55c0,.43-.43,1.08-.86,1.08h-2.59c-.65,0-.86-.43-.86-1.08v-2.59c0-.43.43-.86.86-.86h2.59c.43,0,.86.43.86.86v2.59h0Z"/>
    </g>
  </g>
  <g>
    <g>
      <path class="cls-38" d="M190.91,87.38h-4.53v-4.96c0-2.16-1.94-1.94-1.94-1.94h-10.14v4.96c0,1.94-1.73,1.94-1.73,1.94h-6.9v-8.19c0-2.16-3.88-1.94-3.88-1.94v12.51h12.29c1.94,0,4.1-1.29,4.1-4.31v-3.02h4.31v7.33h8.19"/>
      <path class="cls-38" d="M58.94,85.66c0,2.8-2.16,4.31-4.1,4.31h-19.41v-11.86s3.88,0,3.88,1.94v7.33h13.8s1.73,0,1.73-2.16v-18.76s4.1,0,4.1,2.37v16.82Z"/>
      <path class="cls-38" d="M202.13,76.17c0,.65-.86,1.29-1.94,1.29s-1.94-.65-1.94-1.29.86-1.29,1.94-1.29c1.08,0,1.94.43,1.94,1.29Z"/>
      <path class="cls-38" d="M168.49,94.5c0,.65-.86,1.29-1.94,1.29s-2.16-.65-2.16-1.29.86-1.29,2.16-1.29c1.08.22,1.94.65,1.94,1.29Z"/>
      <path class="cls-38" d="M174.74,94.5c0,.65-.86,1.29-2.16,1.29-1.08,0-1.94-.65-1.94-1.29s.86-1.29,1.94-1.29c1.29.22,2.16.65,2.16,1.29Z"/>
      <path class="cls-38" d="M268.33,73.58c0,.65-.86,1.29-2.16,1.29-1.08,0-1.94-.65-1.94-1.29s.86-1.29,1.94-1.29c1.29,0,2.16.65,2.16,1.29Z"/>
      <path class="cls-38" d="M274.58,73.58c0,.65-.86,1.29-1.94,1.29s-1.94-.65-1.94-1.29.86-1.29,1.94-1.29,1.94.65,1.94,1.29Z"/>
      <path class="cls-38" d="M288.38,87.38v2.16h7.12c2.37,0,6.68-1.29,6.68-4.74v-1.94c0-2.37-4.1-2.37-4.1-2.37v4.31c0,2.37-2.16,2.37-2.16,2.37h-7.55v.22Z"/>
      <path class="cls-38" d="M306.28,89.33c1.29-.65,4.31-2.16,4.31-4.31v-15.74c0-2.37-4.31-2.37-4.31-2.37v22.43Z"/>
      <path class="cls-38" d="M284.07,99.03c1.29-.65,4.31-2.16,4.31-4.31v-12.29c0-2.37-4.31-2.37-4.31-2.37v18.98Z"/>
      <path class="cls-38" d="M221.53,99.03c1.29-.65,4.31-2.16,4.31-4.31v-12.29c0-2.37-4.1-2.37-4.1-2.37l-.22,18.98Z"/>
      <path class="cls-38" d="M231.24,87.17l-2.16,2.59h14.23c2.37,0,4.74-1.51,4.74-4.96v-15.74c0-2.37-4.1-2.37-4.1-2.37v17.9c0,2.37-2.16,2.59-2.16,2.59h-10.57Z"/>
      <path class="cls-38" d="M251.51,89.11c1.29-.65,4.31-2.16,4.31-4.31v-15.74c0-2.37-4.31-2.37-4.31-2.37v22.43Z"/>
      <path class="cls-38" d="M213.12,89.11c1.29-.65,4.31-2.16,4.31-4.31v-15.74c0-2.37-4.1-2.37-4.1-2.37l-.22,22.43Z"/>
      <path class="cls-38" d="M234.9,86.74c1.29-.65,4.31-2.16,4.31-4.31v-13.15c0-2.37-4.1-2.37-4.1-2.37l-.22,19.84Z"/>
      <path class="cls-38" d="M107.89,87.17l-2.37,2.59h14.23c2.37,0,4.74-1.51,4.74-4.96v-15.74c0-2.37-4.1-2.37-4.1-2.37v17.9c0,2.37-2.16,2.59-2.16,2.59h-.22s-10.14,0-10.14,0Z"/>
      <path class="cls-38" d="M127.73,89.11c1.29-.65,4.31-2.16,4.31-4.31v-15.74c0-2.37-4.1-2.37-4.1-2.37l-.22,22.43Z"/>
      <path class="cls-38" d="M111.56,86.74c1.29-.65,4.31-2.16,4.31-4.31v-13.15c0-2.37-4.1-2.37-4.1-2.37l-.22,19.84Z"/>
      <path class="cls-38" d="M63.68,87.38l-2.37,2.37h14.23c2.37,0,4.74-1.51,4.74-4.96v-15.74c0-2.37-4.1-2.37-4.1-2.37v18.33c0,2.37-2.16,2.37-2.16,2.37h-10.35Z"/>
      <path class="cls-38" d="M67.78,86.52c1.29-.65,4.31-2.16,4.31-4.31v-13.15c0-2.37-4.1-2.37-4.1-2.37l-.22,19.84Z"/>
      <path class="cls-38" d="M108.32,63.45h7.55l-1.08-1.29h-2.16s-1.08,0-1.08-1.29,1.29-1.29,1.29-1.29h2.16v-1.29h-3.45c-1.29,0-2.16,1.08-2.16,2.59,0,.43.22,1.08.43,1.51-1.29,0-1.51,1.08-1.51,1.08Z"/>
      <path class="cls-38" d="M232.96,64.1h7.55l-1.08-1.29h-2.16s-1.08,0-1.08-1.29,1.29-1.29,1.29-1.29h2.16v-1.29h-3.45c-1.29,0-2.16,1.08-2.16,2.59,0,.43.22,1.08.43,1.51-1.29-.22-1.51,1.08-1.51,1.08Z"/>
      <path class="cls-38" d="M42.55,76.39h7.55l-1.08-1.29h-2.16s-1.08,0-1.08-1.29,1.29-1.29,1.29-1.29h2.16v-1.51h-3.45c-1.29,0-2.16,1.08-2.16,2.59,0,.43.22,1.08.43,1.51-1.29.22-1.51,1.29-1.51,1.29Z"/>
      <path class="cls-38" d="M288.6,77.03h7.55l-1.08-1.08h-2.16s-1.08,0-1.08-1.29,1.29-1.29,1.29-1.29h2.16v-1.51h-3.45c-1.29,0-2.16,1.08-2.16,2.59,0,.43.22,1.08.43,1.51-1.08-.22-1.51,1.08-1.51,1.08Z"/>
    </g>
    <g>
      <path class="cls-38" d="M176.25,119.08h14.66c2.37,0,4.31,2.59,4.31,5.82,0,3.02-1.94,5.39-4.31,5.39h-10.57v-2.16h7.76c.22,0,2.59-.43,2.59-3.23s-1.94-3.45-2.37-3.45h-7.98v17.47c0,2.8-4.31,2.8-4.31,2.8l.22-22.64Z"/>
      <path class="cls-38" d="M73.82,130.3h-14.66c-2.37,0-4.31-2.59-4.31-5.82,0-3.02,1.94-5.39,4.31-5.39h10.57v2.16h-7.76c-.22,0-2.59.43-2.59,3.23s1.94,3.45,2.37,3.45h7.98v-11.21s4.31,0,4.31,2.37l-.22,11.21Z"/>
      <path class="cls-38" d="M156.19,78.54h-14.66c-2.37,0-4.31,2.59-4.31,5.82,0,3.02,1.94,5.39,4.31,5.39h10.57v-2.16h-7.76c-.22,0-2.59-.43-2.59-3.23s1.94-3.45,2.37-3.45h7.98v20.27s4.31,0,4.31-2.8l-.22-19.84Z"/>
      <path class="cls-38" d="M118.67,130.3h-14.66c-2.37,0-4.31-2.59-4.31-5.82,0-3.02,1.94-5.39,4.31-5.39h10.57v2.16h-7.76c-.22,0-2.59.43-2.59,3.23s1.94,3.45,2.37,3.45h7.98v-20.27s4.31,0,4.31,2.8l-.22,19.84Z"/>
      <path class="cls-38" d="M96.46,130.3h-3.88v-6.47c0-1.94-1.73-1.94-1.73-1.94h-9.06v8.63h-3.88v-10.78h14.66c1.94,0,4.1,1.29,4.1,4.1l-.22,6.47Z"/>
      <path class="cls-38" d="M274.15,130.08h-4.1v-6.47c0-1.94-1.73-1.94-1.73-1.94h-9.06v8.63h-4.1v-10.78h14.88c1.94,0,4.1,1.29,4.1,4.1v6.47Z"/>
      <path class="cls-38" d="M321.38,130.08h-3.88v-5.82c0-2.37-1.73-2.37-1.73-2.37h-9.06v7.98h-4.1v-11.21h14.88c1.94,0,4.1,1.51,4.1,4.96l-.22,6.47Z"/>
      <path class="cls-38" d="M262.94,119.08c1.94,0,3.88,1.29,3.88,4.53v6.25h-3.88v-6.25c0-2.37-1.73-2.37-1.73-2.37"/>
      <path class="cls-38" d="M235.34,121.24h-10.14v8.84h-3.88v-11h10.14c1.51,0,3.23,0,3.88,2.16h0Z"/>
      <path class="cls-38" d="M326.12,121.89v8.19h4.31v-8.19h7.33c-.65-1.94-2.16-3.02-3.67-3.02h-3.67v-1.94s-3.45,0-4.1,1.94h-2.37v3.02h2.16Z"/>
      <path class="cls-38" d="M238.36,121.46h2.37v8.63h4.31v-8.63h7.33c-.65-1.94-2.16-2.16-3.67-2.16h-3.67v-2.37s-3.45.22-4.1,2.37h-2.37v2.16h-.22Z"/>
      <path class="cls-38" d="M127.51,108.3h16.6c2.37,0,4.74,1.51,4.74,4.74v12.08c0,3.23-2.37,4.96-4.74,4.96h-14.45l3.02-2.16h9.7s2.16-.22,2.16-2.37v-12.29c0-2.37-2.16-2.37-2.16-2.37h-10.78v15.31c0,1.94-2.8,3.23-4.31,4.1l.22-22Z"/>
      <path class="cls-38" d="M34.36,108.52s3.88,0,3.88,2.37v14.88c0,2.37,2.16,2.37,2.16,2.37h10.78l2.16,2.16h-14.23c-2.37,0-4.74-1.51-4.74-4.96,0,0,0-16.82,0-16.82Z"/>
      <path class="cls-38" d="M172.37,127.93c-.22,1.29-2.16,2.16-4.31,2.16h-9.92s-4.1,0-4.1-2.37v-8.84h13.8c3.02,0,4.96.65,4.96,3.23s-2.37,3.23-4.53,3.23h-9.92v-2.16h8.63c.43,0,1.51,0,1.51-1.08s-1.51-1.08-1.51-1.08h-8.84v6.68c-.22.22,12.29.22,14.23.22Z"/>
      <path class="cls-38" d="M297.01,127.93c-.22,1.29-2.16,2.16-4.31,2.16h-9.92s-4.1,0-4.1-2.37v-8.84h13.8c3.02,0,4.96.65,4.96,3.23s-2.37,3.23-4.53,3.23h-9.92v-2.16h8.63c.43,0,1.51,0,1.51-1.08s-1.51-1.08-1.51-1.08h-8.84v6.68c0,.22,12.29.22,14.23.22Z"/>
      <path class="cls-38" d="M217.22,130.08v-10.14s.22-1.51-1.08-2.37-2.8-.65-3.02-.65v11h-7.98c-.43,0-2.37-.65-2.37-3.45s2.37-3.23,2.59-3.23h7.76v-2.16h-10.57c-2.37,0-4.31,2.37-4.31,5.39s1.94,5.82,4.31,5.82l14.66-.22Z"/>
      <path class="cls-38" d="M279.76,89.54v-10.14s.22-1.51-1.08-2.37c-1.29-.86-2.8-.65-3.02-.65v11h-7.98c-.43,0-2.37-.65-2.37-3.45s2.37-3.23,2.59-3.23h7.76v-2.16h-10.57c-2.37,0-4.31,2.37-4.31,5.39s1.94,5.82,4.31,5.82l14.66-.22Z"/>
      <path class="cls-38" d="M311.67,89.54l3.23-2.16h9.06c.43,0,2.37-.65,2.37-3.45s-2.37-3.23-2.59-3.23h-7.76v-2.16h10.57c2.37,0,4.31,2.37,4.31,5.39s-1.94,5.82-4.31,5.82l-14.88-.22Z"/>
      <path class="cls-38" d="M190.7,89.76h14.66c2.37,0,4.31-2.59,4.31-5.82,0-3.02-1.94-5.39-4.31-5.39h-10.57l.22,2.16h7.76c.22,0,2.59.43,2.59,3.23s-1.94,3.45-2.37,3.45h-7.98v-7.98s.22-1.51-1.08-2.37c-1.29-.86-2.8-.65-3.02-.65v11"/>
      <path class="cls-38" d="M74.68,89.76h24.8c2.37,0,4.31-2.59,4.31-5.82,0-3.02-1.94-5.39-4.31-5.39h-12.94v2.16h10.14c.22,0,2.59.43,2.59,3.23s-1.94,3.45-2.37,3.45h-6.25v-6.68h-4.1v6.68h-7.33"/>
    </g>
  </g>
</svg>