<?xml version="1.0" encoding="UTF-8"?>
<svg id="Layer_1" data-name="Layer 1" xmlns="http://www.w3.org/2000/svg" viewBox="0 0 200 200">
  <defs>
    <style>
      .cls-1 {
        fill: #db0032;
      }

      .cls-1, .cls-2 {
        fill-rule: evenodd;
      }

      .cls-2 {
        fill: #1d252c;
      }
    </style>
  </defs>
  <path class="cls-1" d="M134.92,111.03l-9.65,9.5c-.38.38-.88.56-1.38.56s-1.01-.2-1.4-.59c-.76-.77-.75-2.01.02-2.77l8.23-8.1-8.23-8.1c-.77-.76-.78-2-.02-2.77.76-.77,2-.78,2.77-.02l9.65,9.5c.38.37.59.87.59,1.4s-.21,1.03-.59,1.4h0ZM114.11,100.97l-4.92,18.35c-.24.88-1.03,1.46-1.89,1.46-.17,0-.34-.02-.51-.07-1.05-.28-1.67-1.36-1.39-2.4l4.92-18.35c.28-1.05,1.36-1.67,2.4-1.39,1.05.28,1.67,1.36,1.39,2.4h0ZM88.76,109.64l8.23,8.1c.77.76.78,2,.02,2.77-.39.39-.89.59-1.4.59s-.99-.19-1.38-.56l-9.65-9.5c-.37-.37-.59-.87-.59-1.4s.21-1.03.59-1.4l9.65-9.5c.77-.76,2.01-.75,2.78.02.76.77.75,2.01-.02,2.77l-8.23,8.1h0ZM109.76,64.59c-24.84,0-45.05,20.21-45.05,45.05s20.21,45.05,45.05,45.05,45.04-20.21,45.04-45.05-20.21-45.05-45.04-45.05h0ZM83.94,83.83v9.95c0,1.08-.88,1.96-1.96,1.96s-1.96-.88-1.96-1.96v-10.09c0-2.08,1.7-3.78,3.78-3.78h10.09c1.08,0,1.96.88,1.96,1.96s-.88,1.96-1.96,1.96h-9.95ZM95.86,137.4c0,1.08-.88,1.96-1.96,1.96h-10.09c-2.08,0-3.78-1.69-3.78-3.78v-10.09c0-1.08.88-1.96,1.96-1.96s1.96.88,1.96,1.96v9.95h9.95c1.08,0,1.96.88,1.96,1.96h0ZM139.48,125.49v10.09c0,2.08-1.69,3.78-3.78,3.78h-10.09c-1.09,0-1.96-.88-1.96-1.96s.88-1.96,1.96-1.96h9.95v-9.95c0-1.08.88-1.96,1.96-1.96s1.96.88,1.96,1.96h0ZM139.48,83.69v10.09c0,1.08-.88,1.96-1.96,1.96s-1.96-.88-1.96-1.96v-9.95h-9.95c-1.09,0-1.96-.88-1.96-1.96s.88-1.96,1.96-1.96h10.09c2.09,0,3.78,1.7,3.78,3.78Z"/>
  <path class="cls-1" d="M148.53,139.5c-2.61,3.38-5.66,6.41-9.05,9.02l24.48,24.48c1.2,1.2,2.81,1.86,4.52,1.86s3.32-.66,4.52-1.86c1.2-1.2,1.86-2.8,1.86-4.52s-.66-3.31-1.86-4.51l-24.47-24.47Z"/>
  <path class="cls-2" d="M109.76,60.67c16.23,0,30.64,7.94,39.56,20.14v-33.55H25.14v89.64c0,3.7,3.01,6.72,6.72,6.72h42.67c-2.39-2.48-4.53-5.21-6.36-8.15-.08.01-.17.02-.25.02h-23.78c-1.08,0-1.96-.88-1.96-1.96s.88-1.96,1.96-1.96h21.83c-1.12-2.23-2.07-4.55-2.85-6.96h-27.15c-1.08,0-1.96-.88-1.96-1.96s.88-1.96,1.96-1.96h26.06c-.52-2.26-.89-4.59-1.09-6.96h-12.77c-1.08,0-1.96-.88-1.96-1.96s.88-1.96,1.96-1.96h12.6c0-.05,0-.1,0-.16,0-2.31.16-4.58.47-6.8h-17.12c-1.08,0-1.96-.88-1.96-1.96s.88-1.96,1.96-1.96h17.83c.54-2.39,1.24-4.71,2.12-6.96h-28.11c-1.08,0-1.96-.88-1.96-1.96s.88-1.96,1.96-1.96h29.81s.02,0,.03,0c1.21-2.44,2.61-4.77,4.19-6.96h-21.81c-1.08,0-1.96-.88-1.96-1.96s.88-1.96,1.96-1.96h24.29c.21,0,.41.03.59.09,2.31-2.61,4.89-4.98,7.71-7.05h-36.29c-1.08,0-1.96-.88-1.96-1.96s.88-1.96,1.96-1.96h41.93c.17,0,.34.02.49.07,6.83-3.62,14.6-5.67,22.85-5.67h0ZM98.06,59.31h-7.67c-1.09,0-1.96-.88-1.96-1.96s.88-1.96,1.96-1.96h7.67c1.08,0,1.96.88,1.96,1.96s-.88,1.96-1.96,1.96h0ZM80.55,57.35c0,1.08-.88,1.96-1.96,1.96h-42.62c-1.08,0-1.96-.88-1.96-1.96s.88-1.96,1.96-1.96h42.62c1.09,0,1.96.88,1.96,1.96Z"/>
  <path class="cls-2" d="M89.31,36.18h46.78c1.07,0,1.93-.87,1.93-1.94s-.87-1.94-1.93-1.94h-46.78c-1.07,0-1.94.87-1.94,1.94s.87,1.94,1.94,1.94Z"/>
  <path class="cls-1" d="M89.31,40.1c-3.23,0-5.86-2.63-5.86-5.86s2.63-5.86,5.86-5.86h46.78c3.23,0,5.86,2.63,5.86,5.86s-2.63,5.86-5.86,5.86h-46.78ZM25.14,43.33h124.17v-11.47c0-3.7-3.01-6.72-6.72-6.72H31.86c-3.7,0-6.72,3.01-6.72,6.72v11.47h0ZM78.19,34.24c0,3.23-2.63,5.86-5.86,5.86s-5.86-2.63-5.86-5.86,2.63-5.86,5.86-5.86,5.86,2.63,5.86,5.86h0ZM61.2,34.24c0,3.23-2.63,5.86-5.86,5.86s-5.86-2.63-5.86-5.86,2.62-5.86,5.86-5.86,5.86,2.63,5.86,5.86h0ZM38.35,28.38c3.23,0,5.86,2.63,5.86,5.86s-2.63,5.86-5.86,5.86-5.86-2.63-5.86-5.86,2.63-5.86,5.86-5.86Z"/>
  <path class="cls-2" d="M38.35,36.18c1.07,0,1.94-.87,1.94-1.94s-.87-1.94-1.94-1.94-1.94.87-1.94,1.94.87,1.94,1.94,1.94Z"/>
  <path class="cls-2" d="M53.41,34.24c0,1.07.87,1.94,1.94,1.94s1.93-.87,1.93-1.94-.87-1.94-1.93-1.94-1.94.87-1.94,1.94Z"/>
  <path class="cls-2" d="M72.33,32.31c-1.07,0-1.94.87-1.94,1.94s.87,1.94,1.94,1.94,1.94-.87,1.94-1.94-.87-1.94-1.94-1.94Z"/>
</svg>