<?xml version="1.0" encoding="UTF-8"?>
<svg id="Layer_1" data-name="Layer 1" xmlns="http://www.w3.org/2000/svg" viewBox="0 0 200 200">
  <defs>
    <style>
      .cls-1 {
        fill: #1d252c;
      }

      .cls-2 {
        fill: #e3e3e4;
      }

      .cls-3 {
        fill: none;
        stroke: #1d252c;
        stroke-miterlimit: 10;
        stroke-width: 4.84px;
      }

      .cls-4 {
        fill: #db0032;
      }
    </style>
  </defs>
  <g>
    <circle class="cls-1" cx="90.38" cy="84.35" r="70.01"/>
    <polygon class="cls-4" points="58.93 120.06 58.93 162.05 108.79 185.66 158.64 162.05 158.64 120.06 58.93 120.06"/>
    <polygon class="cls-2" points="37.94 117.44 87.79 141.05 108.79 122.69 108.79 120.06 58.93 96.45 37.94 114.81 37.94 117.44"/>
    <polygon class="cls-2" points="179.63 117.44 129.78 141.05 108.79 122.69 108.79 120.06 158.64 96.45 179.63 114.81 179.63 117.44"/>
    <polygon class="cls-2" points="37.94 75.46 87.79 51.84 108.79 70.21 108.79 72.83 58.93 96.45 37.94 78.08 37.94 75.46"/>
    <polygon class="cls-2" points="179.63 75.46 129.78 51.84 108.79 70.21 108.79 72.83 158.64 96.45 179.63 78.08 179.63 75.46"/>
    <polyline class="cls-3" points="158.64 127.93 158.64 162.05 108.79 185.66 58.93 162.05 58.93 127.93"/>
    <line class="cls-3" x1="108.79" y1="122.69" x2="108.79" y2="185.66"/>
    <polygon class="cls-3" points="37.94 117.44 87.79 141.05 108.79 122.69 108.79 120.06 58.93 96.45 37.94 114.81 37.94 117.44"/>
    <polygon class="cls-3" points="179.63 117.44 129.78 141.05 108.79 122.69 108.79 120.06 158.64 96.45 179.63 114.81 179.63 117.44"/>
    <polygon class="cls-3" points="37.94 75.46 87.79 51.84 108.79 70.21 108.79 72.83 58.93 96.45 37.94 78.08 37.94 75.46"/>
    <polygon class="cls-3" points="179.63 75.46 129.78 51.84 108.79 70.21 108.79 72.83 158.64 96.45 179.63 78.08 179.63 75.46"/>
  </g>
  <path class="cls-1" d="M112.38,109.23h-6.8c-2.35,0-4.26-1.91-4.26-4.26v-3.85c-2.85-.72-5.57-1.85-8.09-3.34l-2.72,2.72c-1.66,1.65-4.36,1.65-6.03,0l-4.81-4.81c-1.66-1.66-1.66-4.37,0-6.03l2.72-2.71c-1.5-2.52-2.62-5.24-3.35-8.09h-3.85c-2.35,0-4.26-1.91-4.26-4.26v-6.8c0-2.35,1.91-4.26,4.26-4.26h3.85c.73-2.85,1.85-5.57,3.34-8.09l-2.72-2.71c-1.66-1.68-1.66-4.38,0-6.04l4.81-4.81c1.66-1.65,4.37-1.65,6.03,0l2.72,2.72c2.54-1.5,5.25-2.62,8.09-3.34v-3.85c0-2.35,1.91-4.26,4.26-4.26h6.8c2.35,0,4.26,1.91,4.26,4.26v3.85c2.84.71,5.55,1.84,8.09,3.34l2.72-2.72c1.66-1.66,4.36-1.66,6.03,0l4.81,4.81c1.66,1.66,1.66,4.36,0,6.03l-2.73,2.72c1.5,2.52,2.62,5.24,3.35,8.09h3.85c2.35,0,4.26,1.91,4.26,4.26v6.8c0,2.35-1.91,4.26-4.26,4.26h-3.85c-.73,2.86-1.85,5.58-3.35,8.09l2.72,2.71c1.66,1.66,1.66,4.37,0,6.03l-4.81,4.81c-1.67,1.65-4.37,1.64-6.03,0l-2.72-2.72c-2.52,1.5-5.24,2.62-8.09,3.34v3.85c0,2.35-1.91,4.26-4.26,4.26h0Z"/>
  <g>
    <path class="cls-4" d="M112.38,109.23h-6.8c-2.35,0-4.26-1.91-4.26-4.26v-3.85c-2.85-.72-5.57-1.85-8.09-3.34l-2.72,2.72c-1.66,1.65-4.36,1.65-6.03,0l-4.81-4.81c-1.66-1.66-1.66-4.37,0-6.03l2.72-2.71c-1.5-2.52-2.62-5.24-3.35-8.09h-3.85c-2.35,0-4.26-1.91-4.26-4.26v-6.8c0-2.35,1.91-4.26,4.26-4.26h3.85c.73-2.85,1.85-5.57,3.34-8.09l-2.72-2.71c-1.66-1.68-1.66-4.38,0-6.04l4.81-4.81c1.66-1.65,4.37-1.65,6.03,0l2.72,2.72c2.54-1.5,5.25-2.62,8.09-3.34v-3.85c0-2.35,1.91-4.26,4.26-4.26h6.8c2.35,0,4.26,1.91,4.26,4.26v3.85c2.84.71,5.55,1.84,8.09,3.34l2.72-2.72c1.66-1.66,4.36-1.66,6.03,0l4.81,4.81c1.66,1.66,1.66,4.36,0,6.03l-2.73,2.72c1.5,2.52,2.62,5.24,3.35,8.09h3.85c2.35,0,4.26,1.91,4.26,4.26v6.8c0,2.35-1.91,4.26-4.26,4.26h-3.85c-.73,2.86-1.85,5.58-3.35,8.09l2.72,2.71c1.66,1.66,1.66,4.37,0,6.03l-4.81,4.81c-1.67,1.65-4.37,1.64-6.03,0l-2.72-2.72c-2.52,1.5-5.24,2.62-8.09,3.34v3.85c0,2.35-1.91,4.26-4.26,4.26h0ZM106.48,104.08h5.01v-3.67c0-1.99,1.37-3.69,3.33-4.15,2.77-.64,5.38-1.72,7.77-3.21,1.7-1.05,3.88-.83,5.29.58l2.59,2.58,3.55-3.54-2.59-2.58c-1.41-1.41-1.65-3.58-.58-5.3,1.49-2.39,2.57-5,3.21-7.77.45-1.96,2.15-3.34,4.15-3.34h3.67v-5.01h-3.67c-2,0-3.7-1.38-4.15-3.34-.64-2.76-1.72-5.37-3.21-7.76-1.07-1.71-.83-3.89.58-5.3l2.59-2.58-3.55-3.55-2.59,2.59c-1.41,1.42-3.58,1.65-5.3.58-2.4-1.49-5.01-2.57-7.75-3.2-1.97-.46-3.34-2.17-3.34-4.15v-3.66h-5.01v3.66c0,1.99-1.37,3.7-3.33,4.15-2.76.63-5.37,1.71-7.77,3.21-1.7,1.06-3.88.83-5.29-.58l-2.59-2.58-3.55,3.54,2.59,2.58c1.41,1.41,1.64,3.58.58,5.3-1.49,2.39-2.57,5-3.21,7.77-.45,1.96-2.16,3.33-4.15,3.33h-3.67v5.01h3.67c1.99,0,3.7,1.38,4.15,3.34.64,2.76,1.72,5.37,3.21,7.76,1.06,1.71.83,3.89-.58,5.29l-2.59,2.59,3.54,3.54,2.59-2.59c1.4-1.41,3.58-1.65,5.29-.57,2.38,1.48,5,2.56,7.76,3.2,1.96.46,3.33,2.16,3.33,4.15v3.67h.02ZM139.08,78.19,139.07,64.18h0Z"/>
    <path class="cls-1" d="M139.08,78.19,139.07,64.18h0Z"/>
    <path class="cls-2" d="M108.98,88.46c-9.52,0-17.27-7.75-17.27-17.27s7.75-17.28,17.27-17.28,17.27,7.75,17.27,17.28-7.75,17.27-17.27,17.27ZM108.98,59.07c-6.68,0-12.12,5.44-12.12,12.12s5.44,12.11,12.12,12.11,12.12-5.44,12.12-12.11-5.43-12.12-12.12-12.12Z"/>
  </g>
</svg>