<?xml version="1.0" encoding="UTF-8"?>
<svg id="Layer_1" data-name="Layer 1" xmlns="http://www.w3.org/2000/svg" viewBox="0 0 200 200">
  <defs>
    <style>
      .cls-1 {
        fill: #1d252c;
      }

      .cls-2 {
        fill: #e3e3e4;
      }

      .cls-3 {
        fill: #db0032;
      }
    </style>
  </defs>
  <g>
    <rect class="cls-1" x="10.02" y="27.82" width="179.95" height="144.36" rx="22.38" ry="22.38"/>
    <path class="cls-3" d="M28.48,27.82h143.02c10.19,0,18.47,8.27,18.47,18.47v3.38H10.02v-3.38c0-10.19,8.27-18.47,18.47-18.47h-.01Z"/>
    <circle class="cls-1" cx="37.7" cy="40.51" r="4.19"/>
    <circle class="cls-2" cx="51.63" cy="40.51" r="4.19"/>
    <circle class="cls-2" cx="65.56" cy="40.51" r="4.19"/>
  </g>
  <g>
    <path class="cls-3" d="M43.21,82.4l6.83,19.66,6.46-19.66h9.83v28.8h-7.2v-17.44l-6.38,17.44h-6.01l-6.38-17.44v17.44h-7.2v-28.8h10.04Z"/>
    <path class="cls-3" d="M76.41,82.4l5.92,19.58,6.13-19.58h7.86l-9.46,28.8h-8.97l-9.5-28.8h8.02Z"/>
    <path class="cls-3" d="M116.19,83.63c1.65.82,2.92,1.98,3.83,3.48.9,1.49,1.36,3.24,1.36,5.25s-.45,3.75-1.36,5.24c-.91,1.49-2.18,2.65-3.83,3.48-1.65.82-3.55,1.23-5.72,1.23h-4.53v8.89h-7.57v-28.8h12.09c2.17,0,4.07.41,5.72,1.23ZM109.77,96.14c1.21,0,2.16-.34,2.86-1.01s1.05-1.6,1.05-2.78-.35-2.1-1.05-2.78-1.65-1.01-2.86-1.01h-3.83v7.57h3.83Z"/>
  </g>
  <g>
    <path class="cls-2" d="M142.13,145.08l-3.84.32c-.57.04-1.08.37-1.36.87-.61,1.07-1.23,2.16-1.87,3.29-.45.78-1.36,1.17-2.22.94l-2.32-.61-1.9-.5c-.87-.23-1.47-1.01-1.47-1.9v-4.14c0-.51-.22-.99-.6-1.31l-3.11-2.69c-.45-.39-1.09-.52-1.66-.34l-4.91,1.54c-.79.25-1.64-.09-2.04-.82l-2.14-3.81c-.39-.71-.26-1.6.34-2.14l3.78-3.46c.36-.33.57-.8.57-1.28v-4.05c0-.63-.33-1.21-.88-1.52l-4.82-2.71c-.68-.38-1.03-1.22-.8-2l1.13-3.82c.22-.74.9-1.24,1.66-1.24h5.66c.53,0,1.03-.24,1.36-.65l2.56-3.2c.36-.45.47-1.06.3-1.6l-1.54-4.95c-.25-.8.1-1.66.83-2.06l3.9-2.13c.7-.39,1.58-.24,2.12.36l3.48,3.83c.33.36.8.57,1.3.57h3.94c.62,0,1.18-.33,1.5-.86l2.85-4.85c.41-.69,1.24-1.02,2.02-.78l4.04,1.25c.73.22,1.23.9,1.23,1.66v5.71c0,.51.23,1,.63,1.34l2.86,2.38c.45.37,1.05.5,1.6.33l5.01-1.48c.77-.23,1.6.11,2.01.82l2.15,3.81c.4.71.26,1.6-.34,2.16l-3.7,3.39c-.36.33-.57.8-.57,1.28v4.1c0,.62.33,1.18.86,1.49l4.77,2.81c.66.39,1,1.23.76,1.99l-1.24,4.03c-.22.73-.9,1.23-1.66,1.23h-5.72c-.51,0-.99.22-1.31.6l-2.46,2.85c-.38.44-.51,1.06-.33,1.63l1.54,5c.24.78-.09,1.62-.81,2.02l-3.79,2.14c-.67.38-1.55.25-2.1-.33l-3.78-3.98c-.37-.39-.89-.59-1.42-.54h0ZM137.91,110.33c-7.7.04-14.08,6.45-14.11,14.18-.03,7.72,6.28,14.11,14.05,14.24,7.94.13,14.53-6.49,14.41-14.47-.12-7.67-6.62-13.99-14.35-13.96Z"/>
    <path class="cls-3" d="M161.45,110.87l-2.3.37c-.34.05-.63.27-.78.58-.32.68-.63,1.36-.97,2.08-.23.49-.76.77-1.3.67l-1.42-.26-1.17-.21c-.53-.09-.94-.54-.98-1.08l-.2-2.5c-.03-.31-.18-.58-.43-.76l-2-1.47c-.29-.21-.68-.27-1.02-.13l-2.88,1.16c-.46.19-1,.03-1.27-.39l-1.47-2.2c-.27-.41-.23-.95.1-1.31l2.11-2.27c.2-.21.3-.51.28-.8l-.19-2.44c-.03-.38-.26-.71-.61-.88l-3.03-1.41c-.43-.2-.68-.69-.57-1.17l.51-2.36c.09-.45.48-.79.94-.82l3.41-.27c.32-.03.61-.2.79-.45l1.39-2.05c.2-.29.24-.65.1-.98l-1.16-2.91c-.19-.47-.02-1,.4-1.28l2.25-1.47c.4-.27.94-.21,1.3.11l2.28,2.14c.21.21.51.31.81.28l2.37-.19c.37-.03.7-.25.87-.59l1.48-3.05c.21-.44.7-.67,1.18-.57l2.5.57c.45.1.78.48.82.94l.27,3.44c.03.31.19.59.44.77l1.84,1.3c.28.21.65.25.98.12l2.95-1.12c.45-.17.97,0,1.24.39l1.48,2.2c.27.41.23.96-.1,1.32l-2.07,2.22c-.2.21-.3.51-.28.8l.2,2.47c.03.37.25.69.58.86l3,1.48c.42.21.66.69.55,1.17l-.55,2.49c-.1.45-.48.78-.94.82l-3.45.27c-.3.03-.58.18-.76.43l-1.35,1.84c-.21.28-.26.66-.12,1l1.17,2.94c.18.46.02.99-.39,1.26l-2.19,1.47c-.39.26-.93.22-1.28-.09l-2.46-2.22c-.24-.21-.57-.31-.88-.26v-.02ZM157.27,90.11c-4.64.39-8.18,4.56-7.82,9.21.35,4.65,4.45,8.21,9.14,7.92,4.79-.3,8.45-4.6,8-9.39-.44-4.62-4.66-8.13-9.31-7.73h0Z"/>
  </g>
</svg>