<?xml version="1.0" encoding="UTF-8"?><svg id="Layer_2" xmlns="http://www.w3.org/2000/svg" viewBox="0 0 188.34 160.16"><defs><style>.cls-1,.cls-2,.cls-3{stroke-width:0px;}.cls-2{fill:#ce0e2d;}.cls-3{fill:#fff;}</style></defs><g id="Brand_Guideline"><path class="cls-3" d="m136.95,160.16c-15.99,0-30.95-5.35-43.76-10.45-12.82,5.1-27.77,10.45-43.76,10.45-.9,0-1.81-.02-2.72-.05-4.04-.15-10.06-.71-15.61-3.77-3.75-2.06-6.72-5.06-8.58-8.66-1.87-3.63-2.57-8.12-1.98-12.37l.39-2.13c.58-2.3,3.26-13.99.71-23.94C3.8,82.14-3.21,57.6,1.36,38.27c3.03-12.84,10.87-22.99,23.31-30.19C33.92,2.72,45.03,0,57.7,0c30.25,0,62.09,15.56,74.05,22.05,3.12-.8,6.08-1.3,8.98-1.52h.18c.99-.07,1.89-.1,2.74-.1.93,0,1.8.03,2.66.1.89.05,1.82.15,2.71.29.8.1,1.52.24,2.16.37l.49.1c3.7.81,7.11,2.02,10.27,3.61,6.71,3.37,12.61,8.58,17.05,15.05,3.97,5.79,9.26,15.35,9.35,31.48.1,18.18-4.35,32.31-12.86,40.87-3.3,3.31-7.17,5.72-11.41,7.13.7,5.14,1.53,11.57,1.86,16.5.06.93.19,1.87.16,2.8-.11,3.07-.82,6.21-2.23,8.94-1.86,3.6-4.83,6.6-8.59,8.67-5.54,3.06-11.55,3.62-15.6,3.77-.91.03-1.81.05-2.72.05Z"/><path class="cls-2" d="m182.27,71.47c-.08-14.46-4.77-22.96-8.29-28.09-3.86-5.63-8.97-10.15-14.77-13.06-2.71-1.37-5.65-2.4-8.73-3.08l-.5-.1c-.54-.11-1.15-.23-1.82-.31-.74-.12-1.51-.2-2.31-.25-.71-.05-1.44-.08-2.21-.08s-1.52.02-2.39.07h-.08c-3.24.25-6.52.89-10.2,1.99-8.72-4.9-42.16-22.49-73.29-22.49-11.58,0-21.67,2.44-30,7.26-10.93,6.33-17.81,15.19-20.44,26.34-4.18,17.68,2.56,40.61,19.48,66.3.2.3.36.55.49.74,3.31,11.39.44,24.55-.42,27.95l2.12,4.92.97,2.27c0-.58.06-1.2.22-1.9,1.54-6.13,5.09-23.32,1.37-35.12-.42-1.33-45.62-61.94-1.47-87.5,32.21-18.65,84.62,6.95,100.42,16.25,3.56-1.18,7.25-2.1,11.09-2.39,1.32-.08,2.64-.1,3.98,0,.67.04,1.34.11,2.01.21.68.08,1.32.22,1.97.35,2.6.57,5.17,1.45,7.64,2.69,4.93,2.48,9.52,6.41,13.04,11.55,3.51,5.12,7.41,12.74,7.48,25.5.14,25.99-10.05,40.52-25.41,38.5-.23,2.07,1.83,15.23,4.77,30.47l2.97-1.99c-.21-6.61-1.98-18.5-2.69-23.78,5.26-.51,10.02-2.79,13.89-6.67,7.35-7.39,11.19-20.03,11.1-36.55Z"/><path class="cls-2" d="m27.69,75.3c-.73-1.4-1.48-2.96-2.24-4.69-1.14-2.61-2.07-5.1-2.82-7.61-.98-3.28-1.6-6.34-1.91-9.34-.19-1.87-.25-3.59-.18-5.28.03-1,.12-2,.21-2.77.1-.81.24-1.79.45-2.78.38-1.88.97-3.75,1.76-5.57.81-1.86,1.8-3.59,2.94-5.14,1.16-1.57,2.45-3.01,3.86-4.27,1.31-1.18,2.77-2.28,4.33-3.25,2.81-1.77,5.87-3.09,9.1-3.94,2.72-.71,5.63-1.09,8.66-1.14.14,0,.29,0,.43,0,1.14,0,2.27.05,3.48.14,1.07.08,2.2.22,3.57.43,2.11.35,3.98.78,5.61,1.23-1.23-.07-2.56-.11-3.99-.11-.55,0-1.11,0-1.66.02-1.03.03-2.24.08-3.53.2-1.33.12-2.56.27-3.77.47-2.92.49-5.54,1.18-8.03,2.11-2.88,1.09-5.58,2.52-8.03,4.26-1.35.95-2.6,1.98-3.73,3.04-1.17,1.11-2.27,2.36-3.26,3.7-.94,1.28-1.79,2.72-2.52,4.27-.71,1.54-1.26,3.09-1.65,4.63-.22.8-.38,1.64-.52,2.36-.13.78-.26,1.59-.34,2.42-.16,1.47-.23,3.02-.21,4.74.03,2.76.31,5.68.85,8.94.41,2.46.96,5.01,1.68,7.78.49,1.87.99,3.6,1.46,5.15Z"/><path class="cls-2" d="m151.53,45.49c0-.86-.79-1.68-1.67-1.68h-4.86c-.67,0-.87.74-.38,1.29.56.63.88,1.43.88,2.25h0v20.94c0,.86.79,1.68,1.67,1.68h4.86c.67,0,.87-.74.38-1.29-.56-.63-.88-1.46-.88-2.28v-20.92Z"/><path class="cls-2" d="m77.27,74h-4.31l-.02,4.36c0,.86.84,1.68,1.72,1.68h4.31l.02-4.36c0-.86-.84-1.68-1.72-1.68Z"/><path class="cls-2" d="m68.2,74h-10.35l-.02,4.36c0,.86.84,1.68,1.72,1.68h10.35l.02-4.36c0-.86-.84-1.68-1.72-1.68Z"/><path class="cls-1" d="m48.07,88.77c-.18-.54-.74-.97-1.29-.97h-2.96s-.93,0-.93,0h-1.3c-.46,0-.58.51-.23.89.39.42.7.9.68,1.49l-5.12,14.25c-.25.69.48,1.58,1.29,1.58h2.48s1.41-4.27,1.41-4.27l5.88.08.88,3.17c.16.56.74,1.02,1.3,1.02h3.48s-5.57-17.23-5.57-17.23Zm-.92,9.98l-4.22-.06,2.29-7.46h.05s1.87,7.52,1.87,7.52Z"/><path class="cls-1" d="m97.54,102.09v-4.91c.02-3-1.04-4.98-5.96-5.04-1.53-.02-3.42.47-4.52.79l.16,3.03c1.67-.93,2.83-1.15,3.9-1.14.62,0,2.61.04,2.58,2.62l-1.29-.02c-1.48-.02-6.93-.07-6.97,4.43-.02,2.45,1.68,4.11,4.29,4.14,2.01.03,3.66-1.19,3.86-2.01h.05s.03.55.03.55c.03.67.71,1.31,1.41,1.31h2.52s.37,0,.37,0c.46,0,.58-.51.23-.89-.34-.37-.62-.78-.67-1.27,0-.44,0-.95,0-1.58Zm-3.85-1.96c-.03,3.28-2.18,3.3-2.55,3.3-.35,0-1.83-.02-1.81-1.78.02-2.25,2.68-2.31,4.37-2.29v.78Z"/><path class="cls-1" d="m126.83,104.94c-.68.4-1.41.68-2.19.83s-1.56.23-2.34.23c-1.11,0-2.09-.15-2.95-.44s-1.57-.73-2.16-1.31-1.03-1.29-1.33-2.15c-.3-.85-.46-1.83-.46-2.94,0-.96.13-1.86.38-2.71s.63-1.58,1.13-2.21,1.14-1.13,1.91-1.49,1.67-.55,2.7-.55c.48,0,.95.04,1.43.11s.94.19,1.38.36.85.4,1.23.69.7.64.96,1.07c.25.4.46.83.62,1.29.16.46.29.94.39,1.43s.16.99.21,1.48.06.97.06,1.43v.1h-9.12c.04.53.16.99.37,1.41s.47.76.8,1.04.72.5,1.16.65.92.23,1.44.23c.78,0,1.54-.13,2.28-.38s1.43-.57,2.1-.96v2.8Zm-2.3-7.16c-.02-.43-.08-.84-.2-1.22s-.29-.71-.51-.99-.51-.5-.85-.66-.75-.24-1.23-.24-.88.08-1.24.24-.67.38-.93.65-.46.6-.61.98-.24.79-.27,1.23h5.84Z"/><path class="cls-1" d="m141.08,104.94c-.68.4-1.41.68-2.19.83s-1.56.23-2.34.23c-1.11,0-2.09-.15-2.95-.44s-1.57-.73-2.16-1.31c-.58-.58-1.03-1.29-1.33-2.15-.3-.85-.46-1.83-.46-2.94,0-.96.13-1.86.38-2.71.25-.85.63-1.58,1.13-2.21s1.14-1.13,1.91-1.49,1.67-.55,2.7-.55c.48,0,.95.04,1.43.11s.94.19,1.38.36.85.4,1.23.69.7.64.96,1.07c.25.4.46.83.62,1.29s.29.94.39,1.43.16.99.21,1.48.06.97.06,1.43v.1h-9.12c.04.53.16.99.37,1.41s.47.76.8,1.04.72.5,1.16.65.92.23,1.44.23c.78,0,1.54-.13,2.28-.38s1.43-.57,2.1-.96v2.8Zm-2.3-7.16c-.02-.43-.08-.84-.2-1.22s-.29-.71-.51-.99-.51-.5-.85-.66-.75-.24-1.23-.24-.88.08-1.24.24-.67.38-.93.65-.46.6-.61.98-.24.79-.27,1.23h5.84Z"/><path class="cls-1" d="m59.76,88.95c0-.6-.55-1.17-1.17-1.17h-3.39c-.46,0-.61.51-.26.9.39.44.61,1,.61,1.57h0v14.59c0,.6.55,1.17,1.16,1.17h3.39c.46,0,.61-.51.26-.9-.39-.44-.61-1.02-.61-1.59v-14.57Z"/><path class="cls-1" d="m152.15,92.37c-2.07-.03-2.81.81-3.52,1.94v-.95c0-.6-.55-1.17-1.17-1.17h-3.39c-.46,0-.61.51-.26.9.39.44.61,1,.61,1.57v10.17c0,.6.55,1.17,1.16,1.17h3.39c.46,0,.61-.51.26-.9-.39-.44-.61-1.02-.61-1.59v-4.6c.14-1.58.66-2.97,2.69-2.94.59,0,.97.07,1.42.17l.03-3.77h-.62Z"/><path class="cls-1" d="m73.98,97.42l6.53,8.58h4.71l-7.78-9.74,7.39-8.47h-4.42l-6.48,7.73v-6.57s0,0,0,0c0-.58-.52-1.11-1.11-1.15-.02,0-.04-.01-.06-.01h-3.39c-.46,0-.61.51-.26.9.39.44.61,1,.61,1.57v14.59c0,.6.55,1.17,1.16,1.17h3.39c.46,0,.61-.51.26-.9-.39-.44-.61-1.02-.61-1.59v-6.1h.05Z"/><path class="cls-1" d="m113.02,96.42c-.19-.83-.51-1.56-.94-2.19-.43-.63-1.01-1.13-1.72-1.51-.71-.38-1.58-.56-2.61-.56-.84,0-1.58.16-2.24.48-.66.32-1.23.82-1.7,1.51v-5.16c0-.6-.55-1.17-1.17-1.17h-3.39c-.46,0-.61.51-.26.9.39.44.61,1,.61,1.57v14.59c0,.6.55,1.17,1.16,1.17h3.39c.46,0,.61-.51.26-.9-.22-.25-.38-.54-.48-.85.45.52.96.95,1.56,1.22.69.32,1.44.48,2.25.48,1.02,0,1.88-.19,2.59-.58.71-.38,1.28-.9,1.72-1.55.44-.65.76-1.39.95-2.22.2-.83.29-1.7.29-2.61s-.1-1.78-.29-2.61Zm-3.44,4.06c-.09.51-.25.97-.47,1.38-.22.42-.52.76-.9,1.04s-.84.41-1.4.41c-.53,0-.98-.14-1.37-.41-.38-.27-.7-.61-.94-1.03-.24-.41-.42-.87-.54-1.36-.08-.34-.12-.67-.15-1v-.89c.02-.33.06-.66.14-1,.11-.51.28-.97.53-1.38.24-.42.56-.76.95-1.03.39-.27.87-.4,1.44-.4s1.04.13,1.4.39c.37.26.66.6.87,1.01.21.41.36.87.44,1.37.08.5.13.97.13,1.43s-.05.94-.14,1.45Z"/><path class="cls-2" d="m139.5,45.5c0-.11-.01-.21-.04-.32-.16-.73-.87-1.36-1.64-1.36h-4.86c-.67,0-.87.74-.38,1.29.49.55.78,1.23.85,1.94.01.1.03.21.03.31v15.54c0,.62-.53,1.05-1.16,1.05h-4.95l.02-4.22c.01-2.99-2.91-5.84-5.97-5.84h-29.08c-.59,0-1.16-.55-1.16-1.13v-1.83c0-.62.46-1.06,1.1-1.06h28.04c.64,0,1.09-.44,1.1-1.06v-3.3c.02-.86-.82-1.68-1.71-1.68h-28.5c-3.54,0-6.05,2.44-6.06,5.88l-.02,4.3c-.01,3.02,2.94,5.91,6.04,5.91h28.74c.73,0,1.43.68,1.42,1.39v2.63h-42.29v-8.36c0-.86-.79-1.68-1.67-1.68h-4.86c-.49,0-.73.4-.62.83.04.16.12.31.25.46.56.63.88,1.43.88,2.25v5.48c-.02.6-.46,1.02-1.09,1.02h-4.93v-8.36c0-.86-.79-1.68-1.67-1.68h-4.86c-.67,0-.87.74-.38,1.29.26.29.45.61.6.96.01.03.03.05.04.08.02.06.04.12.06.18.11.33.18.68.18,1.03v5.57c-.07.54-.48.93-1.07.93h-5.01v-8.36c0-.86-.79-1.68-1.67-1.68h-4.86c-.33,0-.54.18-.62.43-.08.26-.01.59.24.87.56.63.88,1.43.88,2.25v12.53s0,.04,0,.11v.47c-.04,1-.36,3.04-2.26,4.05-3.29,1.75-5.64.89-8.09-.25-1.81-.84-2.61-.02-.67,1.74,1.38,1.25,6.29,5.48,11.5,3.43.3-.12.6-.25.9-.41,3.79-2.03,4.52-6.11,4.65-8.28v-.85h83.46c.64,0,1.18-.45,1.19-1.07v-23.41Z"/><path class="cls-1" d="m159.3,133.73s-.02-.06-.03-.09c-.61-1.92-3.3-1.96-3.95-.05-.01.04-.03.08-.04.12-1.92,5.53-9.02,6.42-13.4,5.53-7.08-1.44-12.67-7.1-18.47-11.57-3.99-3.07-8.22-5.82-12.76-7.61-3.28-1.29-6.8-2.21-10.19-1.38-2.18.53-4.15,1.76-6.03,3.16-.74.56-1.76.56-2.5,0-1.88-1.41-3.85-2.63-6.03-3.16-3.39-.83-6.91.09-10.19,1.38-4.55,1.79-8.78,4.54-12.76,7.61-5.8,4.46-11.39,10.13-18.47,11.57-4.38.89-11.47,0-13.4-5.53-.01-.03-.02-.07-.04-.11-.63-1.92-3.34-1.9-3.95.03,0,.03-.02.06-.03.09-1.15,3.54-.83,7.92.84,11.17,1.4,2.72,3.64,4.77,6.12,6.13,4.02,2.22,8.51,2.86,12.9,3.02,15.53.58,30.09-4.41,44.62-10.21.27-.11.53-.21.8-.34.53-.25,1.15-.25,1.68,0,.26.12.53.23.8.34,14.52,5.8,29.09,10.8,44.62,10.21,4.39-.17,8.89-.81,12.9-3.02,2.47-1.36,4.72-3.41,6.12-6.13,1.67-3.25,1.99-7.62.84-11.17Z"/></g></svg>