<?xml version="1.0" encoding="UTF-8"?>
<svg id="Layer_1" data-name="Layer 1" xmlns="http://www.w3.org/2000/svg" viewBox="0 0 500 300">
  <defs>
    <style>
      .cls-1 {
        fill: #7e876d;
        stroke-width: 0px;
      }
    </style>
  </defs>
  <path class="cls-1" d="M272.66,48.14l-2.25-.02h-.15c-11.91-.1-21.57-9.86-21.58-21.74v-2.27s2.25,0,2.25,0c11.93,0,21.68,9.72,21.73,21.67v.04s0,.08,0,.08v2.25ZM253.35,28.78c1.07,7.57,7.09,13.6,14.65,14.68-1.05-7.57-7.08-13.6-14.65-14.68Z"/>
  <path class="cls-1" d="M231.64,48.12h-.17s-2.25,0-2.25,0l-.02-2.34c.05-11.95,9.8-21.67,21.73-21.68h2.25s0,2.28,0,2.28c0,11.88-9.67,21.63-21.54,21.74ZM248.51,28.78c-7.56,1.07-13.58,7.1-14.64,14.68,7.55-1.07,13.58-7.11,14.64-14.68Z"/>
  <path class="cls-1" d="M248.68,67.64v-2.28c0-11.88,9.67-21.63,21.53-21.74h.18s2.25,0,2.25,0l.02,2.34c-.05,11.95-9.8,21.67-21.73,21.68h-2.25ZM267.99,48.29c-7.56,1.07-13.58,7.11-14.65,14.68,7.56-1.07,13.58-7.1,14.65-14.68Z"/>
  <path class="cls-1" d="M209.72,67.64v-2.28c0-11.88,9.67-21.63,21.54-21.74h.18s2.25,0,2.25,0l.02,2.34c-.05,11.95-9.8,21.67-21.73,21.68h-2.25ZM229.03,48.29c-7.56,1.07-13.58,7.11-14.64,14.68,7.56-1.07,13.58-7.1,14.64-14.68Z"/>
  <path class="cls-1" d="M250.92,67.64c-11.93,0-21.68-9.72-21.73-21.67v-2.37s2.25.02,2.25.02h.16c11.9.1,21.56,9.86,21.57,21.74v2.27s-2.25,0-2.25,0ZM233.86,48.29c1.05,7.57,7.08,13.6,14.65,14.68-1.07-7.57-7.09-13.61-14.65-14.68Z"/>
  <path class="cls-1" d="M248.68,106.67v-2.28c0-11.88,9.67-21.63,21.53-21.74h.03s.14,0,.14,0h2.25l.02,2.34c-.05,11.95-9.8,21.67-21.73,21.68h-2.25ZM267.99,87.32c-7.55,1.07-13.58,7.11-14.65,14.68,7.57-1.07,13.58-7.1,14.65-14.68Z"/>
  <path class="cls-1" d="M250.92,106.67c-11.93,0-21.68-9.72-21.73-21.67v-2.37s2.25.02,2.25.02h.16s.03,0,.03,0c11.87.11,21.53,9.86,21.54,21.74v2.27s-2.25,0-2.25,0ZM233.86,87.32c1.05,7.57,7.08,13.61,14.65,14.68-1.07-7.57-7.09-13.61-14.65-14.68Z"/>
  <path class="cls-1" d="M289.89,67.64c-11.93,0-21.68-9.72-21.73-21.67v-.04s0-.08,0-.08v-2.25l2.25.02h.16c11.9.1,21.56,9.86,21.57,21.74v2.27s-2.25,0-2.25,0ZM272.82,48.29c1.05,7.57,7.08,13.61,14.65,14.68-1.07-7.56-7.09-13.6-14.65-14.68Z"/>
  <path class="cls-1" d="M272.66,87.18l-2.25-.02h-.15s-.04,0-.04,0c-11.87-.11-21.53-9.86-21.54-21.74v-2.27s2.25,0,2.25,0c11.93,0,21.68,9.72,21.73,21.67v.04s0,.08,0,.08v2.25ZM253.35,67.81c1.07,7.57,7.09,13.61,14.65,14.68-1.05-7.57-7.08-13.61-14.65-14.68Z"/>
  <path class="cls-1" d="M233.69,87.18l-2.25-.02h-.15s-.04,0-.04,0c-11.87-.11-21.53-9.86-21.54-21.74v-2.27s2.25,0,2.25,0c11.93,0,21.68,9.72,21.73,21.67v2.37ZM214.38,67.81c1.07,7.56,7.09,13.6,14.65,14.68-1.05-7.57-7.08-13.6-14.65-14.68Z"/>
  <path class="cls-1" d="M231.6,87.16h-.13s-2.25,0-2.25,0l-.02-2.34c.05-11.95,9.8-21.67,21.73-21.67h2.25s0,2.28,0,2.28c0,11.88-9.67,21.63-21.54,21.74h-.04ZM248.51,67.81c-7.57,1.07-13.58,7.1-14.65,14.68,7.54-1.06,13.58-7.11,14.65-14.68Z"/>
  <path class="cls-1" d="M270.56,87.16h-.13s-2.25,0-2.25,0l-.02-2.34c.05-11.95,9.8-21.67,21.73-21.67h2.25s0,2.28,0,2.28c0,11.88-9.67,21.63-21.54,21.74h-.04ZM287.47,67.81c-7.57,1.07-13.58,7.1-14.65,14.68,7.54-1.06,13.58-7.11,14.65-14.68Z"/>
  <path class="cls-1" d="M171.87,265.07h1.06v6.37c0,.66.02,1.15.05,1.49.03.33.15.65.35.96.2.31.48.55.85.74.36.18.75.27,1.17.27s.78-.08,1.1-.23c.31-.15.58-.37.79-.64.22-.27.37-.58.45-.9.08-.33.13-.89.13-1.68v-6.37h1.04v6.37c0,1.07-.11,1.89-.32,2.46-.22.57-.6,1.04-1.14,1.43-.54.38-1.18.57-1.92.57-.59,0-1.12-.1-1.59-.29-.47-.19-.86-.46-1.18-.8-.31-.34-.53-.73-.65-1.15-.12-.42-.18-1.16-.18-2.22v-6.37ZM181.48,275.63v-10.56h.24l7.02,8.09v-8.09h1.04v10.56h-.24l-6.97-7.99v7.99h-1.09ZM192.2,265.07h1.06v10.56h-1.06v-10.56ZM194.63,266.1v-1.03h5.8v1.03h-2.35v9.53h-1.07v-9.53h-2.37ZM201.95,265.07h6.06v1.04h-5v3.29h4.96v1.03h-4.96v4.15h4.96v1.04h-6.02v-10.56ZM209.82,275.63v-10.56h2.19c1.5,0,2.6.11,3.3.33.7.22,1.31.57,1.82,1.04.51.48.9,1.06,1.18,1.74.27.69.41,1.49.41,2.4s-.21,1.78-.64,2.59c-.43.81-1.01,1.42-1.74,1.83-.73.41-1.78.62-3.16.62h-3.37ZM210.84,274.63h1.22c1.27,0,2.2-.06,2.77-.19.57-.13,1.08-.38,1.51-.76.43-.38.76-.84.99-1.38.23-.54.34-1.16.34-1.85s-.13-1.34-.39-1.93c-.26-.59-.63-1.07-1.11-1.46-.48-.38-1.05-.64-1.7-.77-.65-.13-1.61-.2-2.88-.2h-.75v8.53ZM228.77,264.64l4.93,10.99h-1.13l-1.66-3.6h-4.56l-1.65,3.6h-1.18l4.99-10.99h.26ZM228.63,266.98l-1.81,3.97h3.6l-1.79-3.97ZM235.39,265.07h2.1c1.18,0,1.98.05,2.41.15.43.1.8.27,1.11.51.31.24.55.54.73.91.18.37.26.78.26,1.24,0,.9-.32,1.61-.96,2.13-.64.51-1.54.75-2.71.71l3.81,4.91h-1.31l-3.79-4.91h-.6v4.91h-1.06v-10.56ZM236.44,266.1v3.59h1.82c.9,0,1.57-.13,1.99-.42.43-.29.64-.75.64-1.38s-.21-1.08-.63-1.37c-.42-.28-1.07-.43-1.96-.43h-1.87ZM248.58,264.64l4.93,10.99h-1.13l-1.66-3.6h-4.56l-1.65,3.6h-1.18l4.99-10.99h.26ZM248.45,266.98l-1.81,3.97h3.6l-1.79-3.97ZM255.17,265.07h2.09c1.11,0,1.95.22,2.52.67.57.45.86,1.09.86,1.92,0,.46-.12.89-.35,1.27-.23.39-.57.7-1.01.93.73.24,1.28.59,1.65,1.06.38.47.57,1.03.57,1.68,0,.87-.32,1.6-.96,2.17-.64.57-1.46.86-2.47.86h-2.91v-10.56ZM256.21,266.1v3.38h.6c.92,0,1.61-.15,2.06-.44.45-.29.68-.75.68-1.38,0-1.04-.71-1.56-2.12-1.56h-1.22ZM256.21,270.54v4.06h1.31c.75,0,1.31-.08,1.67-.23.36-.15.65-.39.88-.71.23-.32.34-.64.34-.98s-.06-.63-.19-.88c-.13-.25-.32-.48-.57-.68-.25-.2-.55-.34-.9-.44-.35-.1-1-.15-1.95-.15h-.59ZM267.27,265.07h6.06v1.04h-5v3.29h4.96v1.03h-4.96v4.15h4.96v1.04h-6.02v-10.56ZM274.67,275.63l1.5-10.56h.16l4.3,8.66,4.27-8.66h.16l1.52,10.56h-1.04l-1.03-7.56-3.74,7.56h-.26l-3.78-7.62-1.03,7.62h-1.01ZM288.51,265.07h1.06v10.56h-1.06v-10.56ZM292.04,265.07h2.1c1.18,0,1.98.05,2.41.15.43.1.8.27,1.11.51s.55.54.73.91c.18.37.26.78.26,1.24,0,.9-.32,1.61-.96,2.13-.64.51-1.54.75-2.71.71l3.81,4.91h-1.31l-3.79-4.91h-.6v4.91h-1.06v-10.56ZM293.1,266.1v3.59h1.82c.9,0,1.57-.13,1.99-.42.43-.29.64-.75.64-1.38s-.21-1.08-.63-1.37c-.42-.28-1.07-.43-1.96-.43h-1.87ZM305.24,264.64l4.93,10.99h-1.13l-1.66-3.6h-4.56l-1.65,3.6h-1.18l4.99-10.99h.26ZM305.11,266.98l-1.81,3.97h3.6l-1.79-3.97ZM310.75,266.1v-1.03h5.8v1.03h-2.35v9.53h-1.07v-9.53h-2.37ZM318.08,265.07h6.06v1.04h-5v3.29h4.96v1.03h-4.96v4.15h4.96v1.04h-6.02v-10.56ZM328.1,275.89c-1.38,0-2.46-.75-3.24-2.24l.9-.53c.63,1.16,1.36,1.74,2.19,1.74.54,0,1-.17,1.38-.51.38-.34.57-.77.57-1.28,0-.4-.16-.81-.49-1.22-.32-.41-.86-.9-1.61-1.46-.75-.56-1.26-.99-1.52-1.26-.26-.28-.45-.58-.57-.9-.12-.32-.18-.64-.18-.96,0-.69.24-1.27.73-1.74.49-.48,1.1-.71,1.83-.71.58,0,1.08.14,1.52.43.43.29.85.72,1.25,1.29l-.85.66c-.27-.37-.56-.68-.85-.93-.29-.24-.65-.37-1.08-.37s-.77.13-1.04.38c-.27.26-.4.58-.4.97s.12.73.36,1.02c.24.29.78.75,1.63,1.38.85.63,1.47,1.21,1.85,1.74.39.53.58,1.09.58,1.68,0,.76-.3,1.43-.89,1.99-.59.56-1.28.85-2.07.85h0Z"/>
  <g>
    <path class="cls-1" d="M58.55,147.9l.61.41-1.69,2.78-.68-.34c-3.84-1.94-7.31-2.91-10.43-2.91-3.75,0-6.61,1.24-8.6,3.72-1.99,2.48-2.98,6.05-2.98,10.7l.14,5.21h13.61v3.18h-13.75v49.5c0,2.66.07,4.76.2,6.3.14,1.54.3,2.79.51,3.76.2.97.62,1.64,1.25,2,.63.36,1.23.59,1.79.68.56.09,1.5.13,2.81.13.5,0,.88.15,1.15.44.27.29.41.62.41.98s-.14.68-.41.95-.65.41-1.15.41H11.14c-.5,0-.89-.14-1.18-.41-.29-.27-.44-.59-.44-.95s.15-.69.44-.98c.29-.29.69-.44,1.18-.44,1.76,0,2.98-.21,3.66-.64.68-.43,1.17-1.51,1.49-3.25.32-1.74.47-4.73.47-8.97v-49.5H7.42v-3.12h9.41l-.07-2.98c0-7.22,1.96-12.99,5.89-17.3,3.93-4.31,9.16-6.47,15.71-6.47,6.95,0,13.68,2.37,20.18,7.11Z"/>
    <path class="cls-1" d="M108.3,209.12l3.05,1.22-.34.81c-1.31,2.89-2.69,5.5-4.13,7.82-1.45,2.33-3.32,4.79-5.62,7.38-2.3,2.6-5.1,4.79-8.4,6.57-3.3,1.78-6.93,2.97-10.9,3.56-1.76.27-3.52.41-5.28.41-6.82,0-12.89-1.96-18.22-5.89-6.95-5.24-11.2-12.82-12.73-22.75-1.58-10.11.33-18.95,5.72-26.51,5.39-7.56,13.01-12.11,22.85-13.65,3.43-.54,7.1-.37,11,.51,3.9.88,7.37,2.63,10.39,5.25,5.1,4.38,7.61,10.47,7.52,18.28l.27.61-.81.27-37.65,12.19c.09.72.18,1.26.27,1.63,3.07,14.94,10.74,21.58,23.02,19.91,4.02-.54,7.59-2.17,10.73-4.88,3.14-2.71,6.11-6.73,8.9-12.05l.34-.68ZM81.75,173.57c-1.67-1.63-3.82-2.44-6.43-2.44-.32,0-.88.05-1.69.13-1.9.23-3.52,1.24-4.88,3.05-2.08,2.75-3.44,6.75-4.1,11.99-.66,5.24-.69,10.47-.1,15.71l21.94-7.11c.18-.81.24-2.19.17-4.13-.07-1.94-.19-3.92-.37-5.93-.18-2.01-.67-4.09-1.46-6.23-.79-2.14-1.82-3.83-3.08-5.04Z"/>
    <path class="cls-1" d="M188.61,233.56c.14.36.07.72-.2,1.08-.41.5-1.51.9-3.32,1.22-1.81.31-3.86.47-6.16.47-3.61,0-6.73-.41-9.35-1.22-4.97-1.53-7.72-4.27-8.26-8.19l-.95-6.16c-1.54,1.4-3.33,2.84-5.38,4.33-2.05,1.49-4.47,3.07-7.25,4.74-2.78,1.67-5.51,3.03-8.19,4.06-2.69,1.04-5.43,1.78-8.23,2.23-2.8.45-5.24.23-7.31-.68-4.47-1.76-7.54-4.78-9.21-9.07-1.63-4.15-1.56-8.44.2-12.87,2.08-5.28,6.2-9.15,12.36-11.61,6.16-2.46,15.68-4.05,28.54-4.77l.74-.07-2.23-14.49c-.63-3.7-1.84-6.6-3.62-8.7-1.78-2.1-3.98-3.22-6.6-3.35h-1.08c-2.08.14-3.88,1.26-5.42,3.39-1.08,1.58-2.19,4.02-3.32,7.31-.9,2.62-1.42,4.06-1.56,4.33-1.63,3.52-5.26,5.28-10.9,5.28-2.3,0-4.01-.53-5.11-1.59-1.11-1.06-1.66-2.29-1.66-3.69,0-3.3,1.99-6.3,5.96-9.01,8.49-6.18,17.06-9.16,25.73-8.94l3.32.07-.14.07c6.09.5,11.09,2.15,15,4.94,3.9,2.8,6.4,6.57,7.48,11.31l7.31,40.23c0,.27.07.79.2,1.56.14.77.5,1.81,1.08,3.12.59,1.31,1.33,2.33,2.23,3.05,1.26.99,2.73,1.35,4.4,1.08l.68-.07.2.61ZM137.62,228.28c2.35.99,5.82.17,10.43-2.47,4.6-2.64,8.51-5.56,11.72-8.77l-.88-5.76-1.69-10.83c-13.27,1.35-21.33,5.67-24.18,12.93-.77,1.94-1.16,3.86-1.19,5.76-.02,1.9.44,3.69,1.39,5.38.95,1.69,2.41,2.95,4.4,3.76Z"/>
    <path class="cls-1" d="M228.72,226.99l1.83,2.71-.68.47c-3.12,2.21-6.21,3.94-9.28,5.18-3.07,1.24-6.57,1.86-10.5,1.86-5.91,0-10.39-1.5-13.44-4.5-3.05-3-4.57-7.41-4.57-13.24l-.07-48.82-5.82-.07c-.68-.23-1.02-.72-1.02-1.49,0-.68.29-1.17.88-1.49l23.7-17.2h1.49v17.06l16.59.07c.68.23,1.02.74,1.02,1.56,0,.18-.02.35-.07.51-.05.16-.1.28-.17.37-.07.09-.14.19-.2.3-.07.11-.14.19-.2.24-.07.05-.15.09-.24.14l-.07.07-.2.07-16.46.14v49.16c0,1.4.09,2.62.27,3.66.18,1.04.51,2.09.98,3.15.47,1.06,1.25,1.89,2.34,2.47,1.08.59,2.41.88,4,.88,2.66,0,5.73-.97,9.21-2.91l.68-.34Z"/>
    <path class="cls-1" d="M314.79,233.7c.27.45.25.93-.07,1.42-.41.5-.88.7-1.42.61h-32.91c-1.08-.13-1.58-.65-1.49-1.56.04-.36.23-.67.54-.91.32-.25.72-.35,1.22-.3,1.9.23,3.25-.11,4.06-1.02,1.49-1.53,1.85-4.58,1.08-9.14l-6.3-39.01c0-.14-.07-.56-.2-1.29-.14-.72-.4-1.7-.78-2.95-.38-1.24-.88-2.45-1.49-3.62-.61-1.17-1.46-2.23-2.54-3.18-1.08-.95-2.3-1.51-3.66-1.69-7.63-1.08-12.46,3-14.49,12.26-.27,1.13-.47,2.37-.61,3.72v33.11c0,2.21.02,4.02.07,5.42.04,1.4.2,2.6.47,3.59.27.99.5,1.73.68,2.2.18.47.6.85,1.25,1.12.65.27,1.22.42,1.69.44.47.02,1.28.03,2.4.03.5,0,.87.15,1.12.44.25.29.37.62.37.98,0,.9-.5,1.35-1.49,1.35h-30.2c-1.08,0-1.63-.45-1.63-1.35,0-.36.15-.69.44-.98.29-.29.69-.44,1.18-.44,1.13,0,1.94-.06,2.44-.17.5-.11,1.02-.36,1.56-.74.54-.38.89-1.06,1.05-2.03.16-.97.29-2.2.41-3.69.11-1.49.17-3.54.17-6.16v-65.42c0-4.92-.54-7.83-1.63-8.74-.77-.63-2.75-.68-5.96-.14-.63.05-1.13-.14-1.49-.54-.32-.41-.36-.83-.14-1.29.23-.54.68-.86,1.35-.95,3.61-.63,10.25-3.54,19.91-8.74.18-.09.55-.29,1.12-.61.56-.32.98-.54,1.25-.68.63-.36,1.53-.23,2.71.41.59.32.88.72.88,1.22v36.57c.14-.04.3-.12.51-.24.2-.11.35-.19.44-.24,7.45-3.07,14.56-4,21.33-2.78,3.34.59,6.3,1.58,8.87,2.98,2.57,1.4,4.51,2.81,5.82,4.23,1.31,1.42,2.37,2.91,3.18,4.47.81,1.56,1.32,2.72,1.52,3.49.2.77.3,1.26.3,1.49l7.38,39.48c.5,2.17.93,3.79,1.29,4.88.36,1.08.88,1.94,1.56,2.57.68.63,1.39,1.02,2.13,1.15.75.14,1.88.2,3.42.2.59,0,1.02.25,1.29.75Z"/>
    <path class="cls-1" d="M372.46,209.12l3.05,1.22-.34.81c-1.31,2.89-2.69,5.5-4.13,7.82-1.44,2.33-3.32,4.79-5.62,7.38-2.3,2.6-5.1,4.79-8.4,6.57-3.3,1.78-6.93,2.97-10.9,3.56-1.76.27-3.52.41-5.28.41-6.82,0-12.89-1.96-18.22-5.89-6.95-5.24-11.2-12.82-12.73-22.75-1.58-10.11.33-18.95,5.72-26.51,5.39-7.56,13.01-12.11,22.85-13.65,3.43-.54,7.1-.37,11,.51,3.9.88,7.37,2.63,10.39,5.25,5.1,4.38,7.61,10.47,7.52,18.28l.27.61-.81.27-37.65,12.19c.09.72.18,1.26.27,1.63,3.07,14.94,10.74,21.58,23.02,19.91,4.02-.54,7.59-2.17,10.73-4.88s6.11-6.73,8.9-12.05l.34-.68ZM345.92,173.57c-1.67-1.63-3.82-2.44-6.43-2.44-.32,0-.88.05-1.69.13-1.9.23-3.52,1.24-4.88,3.05-2.08,2.75-3.44,6.75-4.1,11.99-.65,5.24-.69,10.47-.1,15.71l21.94-7.11c.18-.81.24-2.19.17-4.13-.07-1.94-.19-3.92-.37-5.93-.18-2.01-.67-4.09-1.46-6.23-.79-2.14-1.82-3.83-3.08-5.04Z"/>
    <path class="cls-1" d="M429.66,167.47h1.29l-7.72,16.86-1.49-.07-.2-.27c-2.44-2.93-5.6-4.4-9.48-4.4-2.17,0-4.18.52-6.03,1.56-1.81,1.04-3.27,2.39-4.4,4.06v.07l-.14.2c-.86,1.31-1.49,2.96-1.9,4.94l-.2.68v29.05c0,1.67.01,3.09.03,4.27.02,1.17.1,2.23.24,3.18.13.95.25,1.72.34,2.3.09.59.3,1.09.64,1.52.34.43.61.73.81.91.2.18.59.33,1.15.44.56.11,1.04.18,1.42.2.38.02,1,.03,1.86.03.5,0,.88.14,1.15.41s.41.59.41.95-.14.69-.41.98c-.27.29-.65.44-1.15.44h-30.13c-.5,0-.89-.15-1.18-.44-.29-.29-.44-.62-.44-.98,0-.9.54-1.35,1.63-1.35,1.76,0,2.98-.21,3.66-.64.68-.43,1.17-1.51,1.49-3.25.32-1.74.47-4.73.47-8.97v-30.95c0-4.92-.54-7.83-1.63-8.74-.77-.63-2.75-.68-5.96-.13-.5.09-.88.02-1.15-.2-.32-.18-.52-.5-.61-.95-.09-.95.41-1.49,1.49-1.63,3.88-.68,10.54-3.59,19.98-8.74.27-.13.67-.34,1.18-.61.52-.27.89-.47,1.12-.61.63-.41,1.51-.29,2.64.34.63.36.95.79.95,1.29v11.85c3.79-8.58,9.62-13.11,17.47-13.61h12.8Z"/>
    <path class="cls-1" d="M469.02,193.34c1.81.59,3.19,1.05,4.17,1.39.97.34,2.4.91,4.3,1.73s3.42,1.56,4.57,2.23c1.15.68,2.47,1.59,3.96,2.74,1.49,1.15,2.65,2.33,3.49,3.52.83,1.2,1.56,2.63,2.17,4.3.61,1.67.91,3.43.91,5.28,0,2.62-.61,5.15-1.83,7.58s-3.08,4.73-5.59,6.87c-2.51,2.14-6,3.86-10.5,5.15-4.49,1.29-9.67,1.93-15.54,1.93-1.35,0-2.37-.02-3.05-.07-4.06,0-8.89-.45-14.49-1.35h-.61c-4.06-.36-6.41-.23-7.04.41l-.14.41-.41.14c-.59.13-.99.11-1.22-.07l-.34-.27v-.47c0-2.21-.7-7.31-2.1-15.3-.18-.9-.32-1.63-.41-2.17l-.07-.41.34-.34c.18-.18.43-.27.74-.27.45,0,.77.14.95.41.36.54.82,1.16,1.39,1.86.56.7,1.6,1.78,3.12,3.25,1.51,1.47,3.13,2.81,4.84,4.03,1.71,1.22,3.93,2.45,6.64,3.69,2.71,1.24,5.53,2.13,8.46,2.67,1.72.32,3.59.47,5.62.47,5.06,0,9.04-.87,11.95-2.61,2.91-1.74,4.37-4.1,4.37-7.08,0-1.49-.4-2.83-1.18-4.03-.79-1.2-2.05-2.27-3.79-3.22-1.74-.95-3.5-1.76-5.28-2.44-1.78-.68-4.14-1.47-7.08-2.37l-6.16-1.9c-1.85-.59-3.27-1.05-4.27-1.39-.99-.34-2.47-.9-4.44-1.69-1.96-.79-3.53-1.53-4.71-2.23-1.17-.7-2.53-1.61-4.06-2.74-1.54-1.13-2.73-2.29-3.59-3.49-.86-1.2-1.6-2.61-2.23-4.23-.63-1.63-.95-3.36-.95-5.21,0-2.66.64-5.21,1.93-7.65,1.29-2.44,3.17-4.65,5.65-6.64,2.48-1.99,5.8-3.57,9.95-4.74,4.15-1.17,8.87-1.76,14.15-1.76,4.2,0,8.22.32,12.05.95.14.05.32.07.54.07,4.11.36,6.48.23,7.11-.41l.13-.41.41-.13c.5-.18.88-.18,1.15,0l.41.27v.47c0,2.26.7,7.38,2.1,15.37.04.32.09.62.14.91.04.29.09.55.13.78.04.23.07.38.07.47,0,.68-.34,1.02-1.02,1.02-.36,0-.66-.16-.88-.47-.95-1.44-2.23-2.99-3.86-4.64-1.63-1.65-3.51-3.32-5.65-5.01-2.14-1.69-4.56-3.1-7.25-4.23-2.69-1.13-5.27-1.69-7.75-1.69-4.38,0-7.91.81-10.6,2.44-2.69,1.63-4.03,3.77-4.03,6.43,0,1.22.35,2.37,1.05,3.45.7,1.08,1.51,1.98,2.44,2.68.93.7,2.27,1.43,4.03,2.2,1.76.77,3.24,1.35,4.44,1.76,1.2.41,2.9.95,5.11,1.63l7.11,2.17Z"/>
  </g>
</svg>