<?xml version="1.0" encoding="UTF-8"?>
<svg id="Layer_1" data-name="Layer 1" xmlns="http://www.w3.org/2000/svg" viewBox="0 0 200 200">
  <defs>
    <style>
      .cls-1 {
        fill: #1d252c;
      }

      .cls-2 {
        fill: #e3e3e4;
      }

      .cls-3 {
        fill: #db0032;
      }
    </style>
  </defs>
  <g>
    <rect class="cls-1" x="10.56" y="24.78" width="179.95" height="144.36" rx="22.38" ry="22.38"/>
    <path class="cls-3" d="M29.02,24.78h143.02c10.19,0,18.47,8.27,18.47,18.47v3.38H10.56v-3.38c0-10.19,8.27-18.47,18.47-18.47h-.01Z"/>
    <circle class="cls-1" cx="38.24" cy="37.47" r="4.19"/>
    <circle class="cls-2" cx="52.17" cy="37.47" r="4.19"/>
    <circle class="cls-2" cx="66.1" cy="37.47" r="4.19"/>
  </g>
  <rect class="cls-3" x="91.7" y="135.71" width="21.75" height="16.93" rx="5.28" ry="5.28"/>
  <rect class="cls-3" x="151.51" y="135.71" width="21.75" height="16.93" rx="5.28" ry="5.28"/>
  <rect class="cls-2" x="121.4" y="135.71" width="21.75" height="16.93" rx="5.28" ry="5.28"/>
  <rect class="cls-3" x="26.65" y="58.27" width="53.47" height="93.96" rx="7.46" ry="7.46"/>
  <rect class="cls-3" x="120.07" y="75.14" width="24.82" height="81.55" rx="4.88" ry="4.88" transform="translate(248.4 -16.56) rotate(90)"/>
  <circle class="cls-1" cx="38.24" cy="153.15" r="28.75"/>
  <g>
    <path class="cls-2" d="M22.18,153.08l6.67-6.67c.83-.83.83-2.18,0-3.01s-2.18-.83-3.01,0l-2.35,2.35-5.83,5.83c-.2.2-.35.42-.45.67-.23.54-.23,1.14,0,1.68.1.24.25.47.45.67l6.04,6.04,2.35,2.35c.42.42.96.62,1.51.62s1.09-.21,1.51-.62c.83-.83.83-2.18,0-3.01l-1.95-1.95-3.01-3.01-1.92-1.92h0Z"/>
    <path class="cls-2" d="M50.43,143.4c-.83-.83-2.18-.83-3.01,0-.63.63-.78,1.57-.45,2.35.1.24.25.47.45.67l6.04,6.04.84.84-.84.84-5.83,5.83c-.2.2-.35.43-.45.67-.33.78-.18,1.71.45,2.35.42.42.96.62,1.51.62s1.09-.21,1.51-.62l8.18-8.18c.83-.83.83-2.18,0-3.01l-8.38-8.38h0Z"/>
    <path class="cls-3" d="M44.94,146.39c-.83-.83-2.18-.83-3.01,0l-.78.78-1.57,1.57-7.32,7.32c-.2.2-.35.43-.45.67-.33.78-.18,1.71.45,2.35.42.42.96.62,1.51.62s1.09-.21,1.51-.62l8.88-8.89.78-.78c.83-.83.83-2.18,0-3.01h0Z"/>
  </g>
  <g>
    <path class="cls-2" d="M100.99,68.77l6.31,18.18,5.97-18.18h9.09v26.63h-6.66v-16.13l-5.9,16.13h-5.55l-5.9-16.13v16.13h-6.66v-26.63h9.28Z"/>
    <path class="cls-2" d="M131.68,68.77l5.48,18.11,5.67-18.11h7.27l-8.75,26.63h-8.29l-8.79-26.63h7.42Z"/>
    <path class="cls-2" d="M168.46,69.91c1.52.76,2.7,1.83,3.54,3.21.84,1.38,1.26,3,1.26,4.85s-.42,3.47-1.26,4.85c-.84,1.38-2.02,2.45-3.54,3.21-1.52.76-3.28,1.14-5.29,1.14h-4.18v8.22h-7v-26.63h11.18c2,0,3.77.38,5.29,1.14ZM162.53,81.47c1.12,0,2-.31,2.64-.93s.97-1.48.97-2.57-.32-1.95-.97-2.57-1.53-.93-2.64-.93h-3.54v7h3.54Z"/>
  </g>
</svg>