<?xml version="1.0" encoding="UTF-8"?>
<svg id="Layer_1" data-name="Layer 1" xmlns="http://www.w3.org/2000/svg" version="1.1" viewBox="0 0 500 200">
  <defs>
    <style>
      .cls-1 {
        fill: #002f57;
      }

      .cls-1, .cls-2 {
        stroke-width: 0px;
      }

      .cls-2 {
        fill: #6f6259;
      }
    </style>
  </defs>
  <g id="Layer_1-2" data-name="Layer 1-2">
    <path class="cls-1" d="M342.2,35h-2.81l.1,2.67c0,.73-.27,1.17-.8,1.27-.83.17-1.27-.27-1.34-1.27l-.07-2.64h-1.8l-.07,2.64c-.07,1-.53,1.4-1.34,1.27-.53-.1-.8-.5-.8-1.27l.1-2.64h-2.81l-.1,2.57c-.07,2.14.73,3.34,2.44,3.67,1.4.27,2.57-.13,3.47-1.2.9,1.04,2.07,1.44,3.47,1.2,1.7-.3,2.5-1.54,2.44-3.67l-.1-2.6h0Z"/>
    <path class="cls-1" d="M73.41,141.12c7.08,0,11.22,4.21,11.22,11.69s-4.17,11.85-11.22,11.85h-9.08v-23.54s9.08,0,9.08,0ZM69.27,160.59h3.57c4.41,0,6.78-2.67,6.78-7.78s-2.44-7.65-6.78-7.65h-3.57v15.43Z"/>
    <path class="cls-1" d="M104.57,164.67h-4.61v-3.24h-.1c-.9,2.24-2.67,3.51-5.41,3.51-3.87,0-6.44-2.54-6.44-6.71v-11.52h4.78v10.52c0,2.44,1.2,3.74,3.41,3.74s3.61-1.6,3.61-4.04v-10.22h4.78s0,17.97,0,17.97Z"/>
    <path class="cls-1" d="M113.35,161.63h-.1v3.07h-4.68v-24.68h4.78v9.78h.1c1-2.07,2.97-3.27,5.54-3.27,4.54,0,7.31,3.47,7.31,9.18s-2.81,9.22-7.31,9.22c-2.64,0-4.64-1.2-5.64-3.27v-.03ZM113.28,155.72c0,3.21,1.64,5.34,4.07,5.34s4.04-2.1,4.04-5.34-1.6-5.34-4.04-5.34-4.07,2.14-4.07,5.34Z"/>
    <path class="cls-1" d="M128.81,159.49c0-3.27,2.5-5.11,7.08-5.38l4.47-.27v-1.2c0-1.74-1.2-2.67-3.14-2.67-1.74,0-2.94.9-3.17,2.2h-4.34c.13-3.44,3.24-5.78,7.71-5.78s7.65,2.37,7.65,5.94v12.32h-4.61v-2.77h-.1c-.97,1.87-3.21,2.97-5.51,2.97-3.47,0-6.04-2.17-6.04-5.38ZM140.37,158.09v-1.34l-3.77.27c-2,.13-3.04.9-3.04,2.24s1.14,2.17,2.84,2.17c2.2,0,3.97-1.37,3.97-3.34Z"/>
    <path class="cls-1" d="M148.82,142.26c0-1.44,1.17-2.47,2.57-2.47s2.57,1.07,2.57,2.47-1.17,2.5-2.57,2.5-2.57-1.07-2.57-2.5ZM148.98,146.7h4.78v17.97h-4.78v-17.97Z"/>
    <path class="cls-1" d="M165.91,164.67v-23.54h4.94v23.54h-4.94Z"/>
    <path class="cls-1" d="M175.06,146.7h4.61v3.21h.1c1.04-2.27,2.84-3.47,5.61-3.47,3.97,0,6.24,2.5,6.24,6.71v11.52h-4.78v-10.52c0-2.37-1.1-3.74-3.37-3.74s-3.64,1.64-3.64,4.01v10.25h-4.78s0-17.97,0-17.97Z"/>
    <path class="cls-1" d="M205.45,164.67h-5.34l-6.24-17.97h5.08l3.81,13.69h.1l3.81-13.69h4.98l-6.21,17.97h.03Z"/>
    <path class="cls-1" d="M229.83,159.19c-.53,3.47-3.77,5.78-8.15,5.78-5.48,0-8.82-3.51-8.82-9.22s3.37-9.35,8.62-9.35,8.48,3.47,8.48,8.92v1.47h-12.39v.3c0,2.6,1.67,4.34,4.21,4.34,1.8,0,3.21-.83,3.67-2.24,0,0,4.37,0,4.37,0ZM217.64,153.85h7.75c-.07-2.34-1.6-3.87-3.81-3.87s-3.77,1.57-3.94,3.87Z"/>
    <path class="cls-1" d="M240.41,146.4c4.44,0,7.38,2.27,7.45,5.71h-4.41c-.1-1.44-1.3-2.3-3.11-2.3-1.7,0-2.84.77-2.84,1.94,0,.9.77,1.5,2.4,1.87l3.37.73c3.61.8,5.04,2.2,5.04,4.88,0,3.51-3.21,5.78-7.91,5.78s-7.71-2.27-7.95-5.74h4.64c.23,1.5,1.44,2.37,3.44,2.37s3.04-.73,3.04-1.9c0-.94-.63-1.4-2.24-1.8l-3.31-.73c-3.37-.77-5.11-2.5-5.11-5.14,0-3.37,2.97-5.61,7.51-5.61l-.03-.03Z"/>
    <path class="cls-1" d="M257.48,142.73v4.01h3.34v3.61h-3.34v8.72c0,1.4.7,2.07,2.14,2.07.43,0,.9,0,1.2-.07v3.54c-.5.1-1.34.2-2.3.2-4.17,0-5.78-1.4-5.78-4.91v-9.52h-2.44v-3.61h2.44v-4.01h4.78l-.03-.03Z"/>
    <path class="cls-1" d="M264.19,146.7h4.61v3.27h.1c.77-2.17,2.74-3.54,5.11-3.54,2.57,0,4.41,1.34,5.01,3.67h.1c.8-2.24,2.97-3.67,5.58-3.67,3.54,0,5.88,2.4,5.88,6.01v12.19h-4.78v-11.02c0-2.1-1.07-3.27-3.01-3.27s-3.14,1.37-3.14,3.41v10.85h-4.61v-11.19c0-1.94-1.1-3.07-2.94-3.07s-3.17,1.44-3.17,3.47v10.79h-4.78v-17.97l.03.07Z"/>
    <path class="cls-1" d="M310.67,159.19c-.53,3.47-3.77,5.78-8.15,5.78-5.48,0-8.82-3.51-8.82-9.22s3.37-9.35,8.62-9.35,8.48,3.47,8.48,8.92v1.47h-12.39v.3c0,2.6,1.67,4.34,4.21,4.34,1.8,0,3.21-.83,3.67-2.24h4.37ZM298.48,153.85h7.75c-.07-2.34-1.6-3.87-3.81-3.87s-3.77,1.57-3.94,3.87Z"/>
    <path class="cls-1" d="M314.04,146.7h4.61v3.21h.1c1.04-2.27,2.84-3.47,5.61-3.47,3.97,0,6.24,2.5,6.24,6.71v11.52h-4.78v-10.52c0-2.37-1.1-3.74-3.37-3.74s-3.64,1.64-3.64,4.01v10.25h-4.78s0-17.97,0-17.97Z"/>
    <path class="cls-1" d="M340.43,142.73v4.01h3.34v3.61h-3.34v8.72c0,1.4.7,2.07,2.14,2.07.43,0,.9,0,1.2-.07v3.54c-.5.1-1.34.2-2.3.2-4.17,0-5.78-1.4-5.78-4.91v-9.52h-2.44v-3.61h2.44v-4.01h4.78l-.03-.03Z"/>
    <path class="cls-1" d="M354.35,146.4c4.44,0,7.38,2.27,7.45,5.71h-4.41c-.1-1.44-1.3-2.3-3.11-2.3-1.7,0-2.84.77-2.84,1.94,0,.9.77,1.5,2.4,1.87l3.37.73c3.61.8,5.04,2.2,5.04,4.88,0,3.51-3.21,5.78-7.91,5.78s-7.71-2.27-7.95-5.74h4.64c.23,1.5,1.44,2.37,3.44,2.37s3.04-.73,3.04-1.9c0-.94-.63-1.4-2.24-1.8l-3.31-.73c-3.37-.77-5.11-2.5-5.11-5.14,0-3.37,2.97-5.61,7.51-5.61l-.03-.03Z"/>
    <path class="cls-1" d="M383.4,141.12c4.84,0,8.15,3.21,8.15,8.05s-3.44,8.05-8.42,8.05h-4.64v7.41h-4.94v-23.54h9.82l.03.03ZM378.49,153.38h3.57c2.84,0,4.47-1.5,4.47-4.21s-1.64-4.17-4.44-4.17h-3.61s0,8.38,0,8.38Z"/>
    <path class="cls-1" d="M392.89,159.49c0-3.27,2.5-5.11,7.08-5.38l4.47-.27v-1.2c0-1.74-1.2-2.67-3.14-2.67-1.74,0-2.94.9-3.17,2.2h-4.34c.13-3.44,3.24-5.78,7.71-5.78s7.65,2.37,7.65,5.94v12.32h-4.61v-2.77h-.1c-.97,1.87-3.21,2.97-5.51,2.97-3.47,0-6.04-2.17-6.04-5.38ZM404.44,158.09v-1.34l-3.77.27c-2,.13-3.04.9-3.04,2.24s1.14,2.17,2.84,2.17c2.2,0,3.97-1.37,3.97-3.34Z"/>
    <path class="cls-1" d="M412.99,146.7h4.61v3.21h.1c.6-2.2,2.17-3.44,4.27-3.44.57,0,1.04.07,1.4.17v4.21c-.4-.17-1.07-.27-1.77-.27-2.4,0-3.84,1.5-3.84,4.01v10.05h-4.78v-17.97.03Z"/>
    <path class="cls-1" d="M437.23,146.7h5.41l-6.91,7.71,7.25,10.25h-5.48l-5.24-7.38-1.3,1.4v5.98h-4.78v-24.68h4.78v13.96h.07s6.21-7.25,6.21-7.25Z"/>
    <path class="cls-1" d="M186.78,61.25c-6.01,0-10.39-1.2-13.12-3.67-2.5-2.2-3.74-5.51-3.74-9.95,0-2.64.4-5.04,1.2-7.21l6.48-1.07c-1.04,2.3-1.57,4.81-1.57,7.58,0,3.34.83,5.74,2.5,7.18,1.74,1.57,4.71,2.34,8.92,2.34h3.14v-16.53c2.84-.57,5.91-.87,9.22-.87,3.87,0,6.65.9,8.35,2.7,1.5,1.6,2.27,4.11,2.27,7.41v7.28h3.87v4.78h-9.75v-11.39c0-2.2-.37-3.77-1.14-4.68-.73-.9-2.07-1.34-3.97-1.34-1.04,0-2.04.1-3.04.27v17.16s-9.62,0-9.62,0ZM184.01,70.33c-.6.6-1.34.94-2.2.94s-1.57-.3-2.17-.9-.87-1.34-.87-2.24.3-1.57.87-2.2c.6-.6,1.3-.94,2.17-.94s1.6.3,2.2.9.9,1.34.9,2.2-.3,1.6-.9,2.2v.03ZM191.59,70.33c-.57.6-1.3.94-2.14.94s-1.57-.3-2.17-.9-.87-1.34-.87-2.24.3-1.57.87-2.2c.6-.6,1.3-.94,2.17-.94s1.57.3,2.14.9c.6.6.9,1.34.9,2.2s-.3,1.6-.9,2.2v.03Z"/>
    <path class="cls-1" d="M213.6,56.47h13.52v4.78h-13.52v-4.78Z"/>
    <path class="cls-1" d="M226.59,56.47h10.89v4.78h-10.89v-4.78Z"/>
    <path class="cls-1" d="M236.97,56.47h12.66v4.78h-12.66v-4.78Z"/>
    <path class="cls-1" d="M249.13,56.47h6.44v-16.83h6.04v21.61h-12.49v-4.78ZM252.94,70.4c-.6-.6-.94-1.37-.94-2.27s.3-1.6.94-2.24c.63-.6,1.37-.94,2.24-.94s1.64.3,2.24.94c.63.6.94,1.37.94,2.24s-.3,1.64-.94,2.24c-.6.63-1.37.94-2.24.94s-1.6-.3-2.24-.94v.03Z"/>
    <path class="cls-1" d="M267.13,56.47h13.66c-.27-6.81-3.87-11.09-10.85-12.86l1.47-5.08c5.14,1.37,8.95,3.54,11.39,6.55,2.6,3.21,3.91,7.58,3.91,13.12v3.04h-19.57s0-4.78,0-4.78Z"/>
    <path class="cls-1" d="M302.29,70.56c-2-1.44-3.04-3.31-3.04-5.71s1.14-4.61,3.37-6.41c1.34-1.07,3.71-2.37,7.15-3.87-3.64-3.47-6.71-5.54-9.22-6.24l.5-4.34c4.71-3.41,9.15-5.11,13.29-5.11,3.24,0,5.71.77,7.41,2.27,1.54,1.34,2.3,3.11,2.3,5.28,0,3.31-1.74,6.14-5.24,8.52,1.87,1,3.74,1.47,5.64,1.47h3.94v4.78h-4.61c-3.81,0-7.21-1.14-10.22-3.41-3.04,1.5-4.94,2.47-5.64,2.97-1.67,1.1-2.5,2.27-2.5,3.47,0,2.64,2.5,3.94,7.51,3.94,2.37,0,4.68-.2,6.91-.57l.37,4.57c-2.67.5-5.31.73-7.95.73-4.41,0-7.71-.8-9.98-2.37v.03ZM314.71,52.03c2.24-1.44,3.37-3.07,3.37-4.84,0-1.14-.37-2.04-1.07-2.74-.77-.73-1.87-1.14-3.31-1.14-1.9,0-4.24.94-6.98,2.77,1.5.6,4.17,2.57,7.98,5.91v.03Z"/>
    <path class="cls-1" d="M327.74,56.47h16.16v4.78h-16.16s0-4.78,0-4.78Z"/>
    <path class="cls-1" d="M360.76,61.25c-4.94,0-8.38-1.2-10.32-3.61-.94,2.4-3.37,3.61-7.28,3.61h-.7v-4.78c1.8,0,3.11-.43,3.97-1.34.94-.97,1.4-2.6,1.4-4.94,0-3.11,1-5.71,2.97-7.75,2.17-2.27,5.18-3.41,8.98-3.41,6.91,0,10.39,3.51,10.39,10.59v6.85h8.78v4.78h-18.2ZM364.27,50.36c0-4.34-1.64-6.55-4.91-6.55-1.7,0-3.04.57-4.04,1.74-.97,1.14-1.44,2.6-1.44,4.44,0,4.31,2.3,6.44,6.88,6.44h3.51v-6.11.03Z"/>
    <path class="cls-1" d="M378.26,56.47h17.8c.13-1.24.23-2.4.23-3.51,0-3.01-.67-5.18-2.04-6.61-1.44-1.47-3.77-2.24-7.01-2.24-1.7,0-3.47.13-5.28.37v-4.74c2.17-.27,4.11-.43,5.88-.43,5.08,0,8.78,1.14,11.09,3.41,2.24,2.14,3.34,5.48,3.34,9.98,0,1.3-.07,2.54-.17,3.74h3.61v4.78h-27.45v-4.78.03ZM386.91,70.4c-.63-.6-.94-1.37-.94-2.27s.3-1.6.94-2.24c.6-.6,1.34-.94,2.2-.94s1.64.3,2.24.94c.63.6.94,1.37.94,2.24s-.3,1.64-.94,2.24c-.6.63-1.37.94-2.24.94s-1.6-.3-2.2-.94v.03Z"/>
    <path class="cls-1" d="M404.97,56.47h13.52v4.78h-13.52v-4.78Z"/>
    <path class="cls-1" d="M418,61.25v-4.78h2.64c1.07,0,1.9.1,2.57.3-1.7-1.24-2.57-3.44-2.57-6.58s1-5.71,2.97-7.75c2.17-2.27,5.18-3.41,8.98-3.41,6.91,0,10.39,3.51,10.39,10.59v11.62h-24.98ZM437.03,50.36c0-4.34-1.64-6.55-4.91-6.55-1.7,0-3.04.57-4.04,1.74-.97,1.14-1.44,2.6-1.44,4.44,0,4.31,2.3,6.44,6.88,6.44h3.51v-6.11.03Z"/>
    <path class="cls-1" d="M169.89,125.23l.43-4.81c1.27.37,2.5.53,3.71.53,1.67,0,2.87-.43,3.67-1.34.87-1.04,1.34-2.7,1.34-5.08v-22.14h6.04v21.81c0,7.65-3.77,11.49-11.35,11.49-1.34,0-2.64-.13-3.87-.43l.03-.03Z"/>
    <path class="cls-1" d="M192.39,81.62h6.04v27.62h4.61v4.78h-10.65v-32.42.03Z"/>
    <path class="cls-1" d="M202.34,109.23h13.52v4.78h-13.52v-4.78Z"/>
    <path class="cls-1" d="M215.37,109.23h10.89v4.78h-10.89v-4.78Z"/>
    <path class="cls-1" d="M225.75,109.23h10.02v4.78h-10.02v-4.78Z"/>
    <path class="cls-1" d="M235.24,109.23h13.52v4.78h-13.52v-4.78Z"/>
    <path class="cls-1" d="M265.66,114.01c-4.94,0-8.38-1.2-10.32-3.61-.94,2.4-3.37,3.61-7.28,3.61h-.7v-4.78c1.8,0,3.11-.43,3.97-1.34.94-.97,1.4-2.6,1.4-4.94,0-3.11,1-5.71,2.97-7.78,2.17-2.27,5.18-3.41,8.98-3.41,6.91,0,10.39,3.51,10.39,10.59v6.85h9.92v4.78h-19.37l.03.03ZM269.16,103.12c0-4.34-1.64-6.55-4.91-6.55-1.7,0-3.04.6-4.04,1.74-.97,1.14-1.44,2.6-1.44,4.44,0,4.31,2.3,6.44,6.88,6.44h3.51v-6.11.03Z"/>
    <path class="cls-1" d="M284.29,109.23h6.44v-16.83h6.04v16.83h4.51v4.78h-17s0-4.78,0-4.78ZM286.93,88c-.57-.6-.87-1.34-.87-2.2s.3-1.6.87-2.24c.6-.6,1.3-.94,2.17-.94s1.57.3,2.17.94c.57.6.87,1.34.87,2.24s-.3,1.57-.87,2.2c-.6.6-1.3.94-2.17.94s-1.57-.3-2.17-.94ZM290.87,81.52c-.53-.57-.8-1.24-.8-2.04s.27-1.5.8-2.04c.57-.57,1.2-.87,2-.87s1.47.3,2,.87c.57.57.83,1.24.83,2.04s-.27,1.5-.83,2.04c-.57.57-1.24.87-2,.87s-1.44-.3-2-.87ZM294.51,88c-.57-.6-.87-1.34-.87-2.2s.3-1.6.87-2.24c.6-.6,1.34-.94,2.2-.94s1.57.3,2.14.94c.6.6.87,1.34.87,2.24s-.3,1.57-.87,2.2c-.6.6-1.3.94-2.14.94s-1.6-.3-2.2-.94Z"/>
    <path class="cls-1" d="M300.59,109.23h15.69v-16.83h6.04v16.83h4.07v4.78h-25.85v-4.78h.03ZM312.48,88c-.57-.6-.87-1.34-.87-2.2s.3-1.6.87-2.24c.6-.6,1.3-.94,2.17-.94s1.6.3,2.2.94c.6.6.87,1.34.87,2.24s-.3,1.57-.87,2.2c-.6.6-1.34.94-2.2.94s-1.57-.3-2.17-.94ZM320.12,88c-.57-.6-.87-1.34-.87-2.2s.3-1.6.87-2.24c.6-.6,1.3-.94,2.17-.94s1.57.3,2.14.94c.6.6.87,1.34.87,2.24s-.3,1.57-.87,2.2c-.6.6-1.3.94-2.14.94s-1.57-.3-2.17-.94Z"/>
    <path class="cls-1" d="M325.77,109.23h13.52v4.78h-13.52v-4.78Z"/>
    <path class="cls-1" d="M338.79,109.23h13.52v4.78h-13.52v-4.78Z"/>
    <path class="cls-1" d="M351.78,109.23h2.3c1.54,0,2.6-.4,3.17-1.17.63-.83.97-2.34.97-4.54v-8.38h6.04v8.52c0,2.2.2,3.71.57,4.51.43.94,1.3,1.4,2.6,1.4,2.47,0,3.67-1.97,3.67-5.88v-10.39h5.84v11.52c0,1.8.37,2.97,1.14,3.54.73.57,2.17.83,4.31.83h1.2c.23-1.74.33-3.57.33-5.51,0-4.24-.43-8.35-1.34-12.32l5.91-.8c1,4.11,1.47,8.35,1.47,12.72,0,3.87-.23,7.45-.7,10.72h-7.58c-2.5,0-4.34-.2-5.58-.63-1.3-.47-2.27-1.3-2.94-2.54-1.1,2.34-3.41,3.51-6.95,3.51-3.27,0-5.31-1.2-6.11-3.57-.94,2.14-2.97,3.21-6.11,3.21h-2.24v-4.78.03Z"/>
    <path class="cls-1" d="M404.17,105.79h-6.14l-6.58-23.64,6.01-.83s6.71,24.48,6.71,24.48ZM393.32,109.27h14.19v-27.62h6.04v27.62h4.54v4.78h-24.81v-4.78h.03ZM396.09,122.92c1.1,0,1.9.07,2.44.17-.5-.4-.77-.97-.77-1.74,0-1.24.5-2.24,1.54-3.04,1.17-.9,2.77-1.37,4.84-1.37,1.17,0,2.07.1,2.7.27l-.53,3.14c-1.07-.17-1.84-.23-2.3-.23-1.37,0-2.07.43-2.07,1.34,0,.97.97,1.47,2.94,1.47h2.81v3.24h-11.59v-3.24h0Z"/>
    <path class="cls-1" d="M417.43,109.23h13.52v4.78h-13.52v-4.78Z"/>
    <path class="cls-1" d="M430.45,109.23h5.71v-27.62h6.04v32.42h-11.75v-4.81Z"/>
    <path class="cls-2" d="M156.76,81.22c-.1,25.35-20.67,45.85-46.02,45.85h-21.81l8.01-21c.94-2.44,3.24-4.04,5.84-4.04h7.95c11.62,0,21.04-9.45,20.97-21.07-.03-11.59-9.62-20.9-21.2-20.9h-23.14c-2.6,0-4.91,1.6-5.84,4.01l-10.69,27.98c-1.27,3.27-6.14,2.4-6.14-1.14v-55.9h45.68c25.41,0,46.48,20.8,46.38,46.18v.03ZM82.4,73.44l-17.26,45.21c-1.57,4.07,1.44,8.45,5.81,8.45h13.56l22.01-57.64h-18.27c-2.57,0-4.91,1.6-5.81,4.01l-.03-.03Z"/>
  </g>
</svg>