<?xml version="1.0" encoding="UTF-8"?>
<svg id="Layer_1" data-name="Layer 1" xmlns="http://www.w3.org/2000/svg" viewBox="0 0 200 200">
  <defs>
    <style>
      .cls-1 {
        fill: #db0032;
      }

      .cls-1, .cls-2, .cls-3, .cls-4, .cls-5 {
        stroke-width: 0px;
      }

      .cls-2 {
        fill: #e3e3e4;
      }

      .cls-3 {
        fill: #a7a8a9;
      }

      .cls-4 {
        fill: #d1d2d3;
      }

      .cls-5 {
        fill: #1d252c;
      }
    </style>
  </defs>
  <rect class="cls-5" x="50.14" y="15.15" width="99.72" height="169.7" rx="27.64" ry="27.64"/>
  <circle class="cls-1" cx="101.44" cy="165.9" r="4.08"/>
  <path class="cls-1" d="M122.22,185.51h-44.45c-15.6,0-28.29-12.69-28.29-28.3V42.79c0-15.6,12.69-28.3,28.29-28.3h44.45c15.6,0,28.3,12.69,28.3,28.3v114.42c0,15.6-12.69,28.3-28.3,28.3ZM77.78,15.81c-14.88,0-26.98,12.1-26.98,26.98v114.42c0,14.88,12.1,26.98,26.98,26.98h44.45c14.88,0,26.98-12.1,26.98-26.98V42.79c0-14.88-12.1-26.98-26.98-26.98h-44.45Z"/>
  <rect class="cls-1" x="101.43" y="143.16" width="28.12" height="7.65"/>
  <polygon class="cls-3" points="115.5 127.87 115.5 135.51 108.47 135.51 108.47 143.16 122.53 143.16 122.53 135.51 129.55 135.51 129.55 127.87 115.5 127.87"/>
  <polygon class="cls-3" points="80.35 120.22 73.32 120.22 73.32 135.51 80.35 135.51 80.35 143.16 87.38 143.16 87.38 127.87 80.35 127.87 80.35 120.22"/>
  <rect class="cls-4" x="87.38" y="127.87" width="7.03" height="7.65"/>
  <polygon class="cls-1" points="73.32 150.81 87.38 150.81 87.38 143.16 80.35 143.16 80.35 135.51 66.29 135.51 66.29 143.16 73.32 143.16 73.32 150.81"/>
  <polygon class="cls-3" points="122.53 127.87 122.53 120.22 115.5 120.22 115.5 112.56 101.43 112.56 101.43 120.22 108.47 120.22 108.47 127.87 122.53 127.87"/>
  <polygon class="cls-1" points="101.43 143.16 108.47 143.16 108.47 135.51 115.5 135.51 115.5 127.87 94.41 127.87 94.41 135.51 101.43 135.51 101.43 143.16"/>
  <rect class="cls-2" x="87.38" y="135.51" width="14.06" height="15.3"/>
  <polygon class="cls-3" points="73.32 150.81 73.32 143.16 66.29 143.16 66.29 127.87 59.26 127.87 59.26 150.81 73.32 150.81"/>
  <rect class="cls-2" x="80.35" y="120.22" width="28.11" height="7.65"/>
  <polygon class="cls-1" points="101.43 97.27 101.43 89.62 94.41 89.62 94.41 74.32 87.38 74.32 87.38 97.27 101.43 97.27"/>
  <rect class="cls-2" x="119.01" y="81.97" width="7.03" height="7.65"/>
  <rect class="cls-4" x="126.04" y="97.27" width="7.03" height="7.65"/>
  <rect class="cls-3" x="126.04" y="89.62" width="7.03" height="7.65"/>
</svg>