<?xml version="1.0" encoding="UTF-8"?>
<svg xmlns="http://www.w3.org/2000/svg" version="1.1" viewBox="0 0 500 300">
  <defs>
    <style>
      .cls-1 {
        fill: #b6b09c;
      }

      .cls-2 {
        fill: #4e4e4c;
      }
    </style>
  </defs>
  <!-- Generator: Adobe Illustrator 28.6.0, SVG Export Plug-In . SVG Version: 1.2.0 Build 709)  -->
  <g>
    <g id="Layer_1">
      <path class="cls-2" d="M51.1,210.1v-.7h30.1c7.6,0,13.7.6,18.1,1.8,4.4,1.2,8.3,3.1,11.6,5.7,3.3,2.6,5.9,5.9,7.8,9.9,1.9,4,2.9,8.5,2.9,13.5s-1,9.5-3,14.1c-2,4.6-4.7,8.6-8.2,11.9-3.4,3.3-7.1,5.6-10.9,6.8-3.8,1.2-9.7,1.8-17.7,1.8h-30.8v-.7h.8c1.6,0,2.7-.6,3.2-1.9.5-1.3.8-3.6.8-7v-47.7c0-3.6-.3-5.7-.9-6.4-.6-.7-1.9-1.1-3.8-1.1M73.4,210.8h-10.1v50.8c0,3.2.5,5.6,1.6,7.1,1.1,1.6,2.9,2.7,5.5,3.4,2.6.7,6.1,1,10.5,1,12.3,0,20.9-3.2,25.9-9.5,5-6.3,7.5-13.2,7.5-20.6s-3.4-16.3-10.2-22.7c-6.8-6.4-17.1-9.6-30.8-9.6"/>
      <path class="cls-2" d="M142.5,209.5v.7c-.9,0-1.8,0-2.9.4-1.1.4-1.7.9-1.9,1.6-.2.7-.3,2.3-.3,4.8v50.3c0,2.7.1,4.4.3,5,.2.6.7,1.1,1.3,1.5.6.4,1.8.6,3.4.6v.7h-17.5v-.7c2.2,0,3.6-.4,4.1-1.3.5-.8.8-2.8.8-5.8v-49.8c0-3.1-.3-5.1-.9-6.1-.6-1-1.9-1.4-4-1.3v-.7h17.5Z"/>
      <path class="cls-2" d="M180.5,210.3l3.1,8.2h-.5c0,0-.8-.8-2.5-2.5-1.6-1.7-3.5-3-5.6-4-2.1-.9-4.5-1.4-7.2-1.4-4.5,0-8,1.3-10.7,3.8-2.6,2.6-3.9,5.7-3.9,9.3s.6,4.5,1.8,6.3c1.2,1.8,3.8,3.5,7.7,5,6.7,2.3,11.3,4,13.8,5.1,2.5,1.1,4.9,3.1,7.2,5.8,2.3,2.7,3.5,6.2,3.5,10.5s-.2,3.5-.6,5.1c-.4,1.6-1.1,3.2-2,4.7-.9,1.5-2,2.9-3.3,4.1-1.3,1.2-2.6,2.2-3.9,2.8-1.3.6-3.4,1.1-6.3,1.4-2.9.3-4.8.5-5.7.5h-17.5v-19h.7c0,6.3,1.5,10.7,4.4,13.2,2.9,2.5,7.4,3.7,13.6,3.7s9.8-1.3,12.7-4c2.9-2.6,4.3-5.8,4.3-9.5s-.5-4.2-1.5-5.8c-1-1.6-2.4-3-4.2-4.2-1.8-1.2-5.2-2.7-10.3-4.4-5-1.8-8.5-3.3-10.6-4.6-2-1.3-3.7-3.3-5.1-6-1.4-2.6-2.1-5.4-2.1-8.1,0-5.1,1.7-9.3,5.2-12.8,3.5-3.4,8.1-5.2,13.7-5.2s4.6.3,7.1.8c2.5.5,4,.8,4.3,1,.1,0,.2,0,.4,0"/>
      <path class="cls-2" d="M244.3,207.2l-3.1,7.9h-.7c.1-.5.2-1.1.2-1.9s-.2-1.1-.7-1.3c-.5-.2-1.3-.3-2.3-.3h-17.1v56c0,2.3.2,3.9.6,4.7.4.8.9,1.4,1.5,1.6.6.2,1.7.3,3.1.3v.7h-17.7v-.7c2.2-.1,3.6-.6,4.2-1.3.6-.7.8-2.2.8-4.4v-57h-16.4c-1.7,0-2.7,0-3.2.3-.5.2-.8.7-.8,1.4s.1,1,.4,1.8h-.7l-3.1-7.9h.7c.5,1.1,1.1,1.7,1.6,1.9.5.2,1.6.3,3.3.3h43.5c1.7,0,3-.1,3.7-.3.8-.2,1.3-.9,1.7-1.9h.7Z"/>
      <path class="cls-2" d="M247.7,210.1v-.7h18.6c4.7,0,8.1.1,10.2.3,2.1.2,4.3.9,6.5,2.1,2.2,1.2,3.9,2.8,5,4.8,1.1,2,1.7,4.5,1.7,7.4s-1,6.5-3,9.5c-2,3-4.8,5.6-8.5,7.6l4.6,7.1c1,1.8,3.7,5.7,8,11.7,4.3,6,7.7,9.7,10.1,11,2.4,1.3,4.7,2,6.9,2s4.7-.8,7.6-2.5l.3.9c-3.6,2.9-8.2,4.4-13.9,4.4s-7.1-1.1-9.8-3.4c-2.7-2.2-7.5-8.4-14.2-18.5,0,0,0-.1,0-.2l-6.6-10.1-5.8.2h-5.3v25c0,2,.3,3.5.8,4.3.5.9,1.8,1.3,3.8,1.3v.7h-16.9v-.7c2.1,0,3.4-.5,3.9-1.3.5-.8.8-2.4.8-4.9v-52c0-1.7-.2-3.1-.7-4.2-.4-1.1-1.8-1.7-4-1.7M260,211.2v30.7h6.9c5.4,0,9.4-1.3,12-3.8,2.6-2.5,3.9-5.9,3.9-10.1s-1.3-7.8-3.9-11.4c-2.6-3.6-7.1-5.4-13.6-5.4h-5.4Z"/>
      <path class="cls-2" d="M336.9,209.5v.7c-.9,0-1.8,0-2.9.4-1.1.4-1.7.9-1.9,1.6-.2.7-.3,2.3-.3,4.8v50.3c0,2.7.1,4.4.3,5,.2.6.7,1.1,1.3,1.5.6.4,1.8.6,3.4.6v.7h-17.5v-.7c2.2,0,3.6-.4,4.1-1.3.5-.8.8-2.8.8-5.8v-49.8c0-3.1-.3-5.1-.9-6.1-.6-1-1.9-1.4-4-1.3v-.7h17.5Z"/>
      <path class="cls-2" d="M399.9,212.8l2.4,6.9h-.7c-6.3-6.3-13.8-9.5-22.4-9.5s-16.1,2.7-21.6,8c-5.5,5.3-8.2,11.7-8.2,19.3s1.2,10,3.7,16.1c2.4,6,6.3,11,11.6,14.9,5.3,3.9,11.7,5.8,19.2,5.8s9.7-.8,14.5-2.4c4.7-1.6,8.2-3.7,10.6-6.4l.6.2-4.6,7c-7.4,1.6-12.2,2.6-14.4,2.8-2.2.3-5.2.4-8.9.4-13.7,0-23.6-3.2-29.5-9.5s-8.9-14-8.9-22.8,1.5-11.7,4.6-17.3c3-5.5,7.4-9.9,13.1-13.1,5.7-3.2,12.3-4.8,19.6-4.8s6.9.3,9.5,1c2.7.7,4.9,1.4,6.7,2.1l2.9,1.1c0,0,.1,0,.2,0"/>
      <path class="cls-2" d="M465.3,207.2l-3.1,7.9h-.7c.1-.5.2-1.1.2-1.9s-.2-1.1-.7-1.3c-.5-.2-1.3-.3-2.3-.3h-17.1v56c0,2.3.2,3.9.6,4.7.4.8.9,1.4,1.5,1.6.6.2,1.7.3,3.1.3v.7h-17.7v-.7c2.2-.1,3.6-.6,4.2-1.3.6-.7.8-2.2.8-4.4v-57h-16.4c-1.7,0-2.7,0-3.2.3-.5.2-.8.7-.8,1.4s.1,1,.4,1.8h-.7l-3.1-7.9h.7c.5,1.1,1.1,1.7,1.6,1.9.5.2,1.6.3,3.3.3h43.5c1.7,0,3-.1,3.7-.3.8-.2,1.3-.9,1.7-1.9h.7Z"/>
      <path class="cls-1" d="M310.8,74.3c-17,0-34.1,11.2-40.4,37,3.6-20.3,11.5-72.4,50.4-86.2l3.3-1.2c-25,6.7-46.7,22-58.1,40.1v.2c-1.1-1.9-2.3-3.8-3.8-5.7-2.9-3.7-7-7.2-12.4-10.2,0,0-.1,0-.1,0-2.4-1.3-5.1-2.5-8.1-3.5-.8-.3-1.7-.6-2.6-.8h0s0,0,0,0h0c-.2,0-.4-.1-.6-.2l.7.2c3-.2,14.8-.6,20.9,4.5,0,0,.1,0,.2.1h0s-21.2-27.2-54.8-15.2c-4.5,1.6-9.2,3.9-14.1,7.1-4.4,2.8-8.9,6.3-13.6,10.6,0,0-6.1-3.6-14.7-1.3,0,0,8.6,2.3,10.3,6.9h0c0,0-.3.7-.7,1.8-2.3-1.2-7.3-3-12.7-1.3,0,0,8.5,3.9,10.5,7-.7,2-1.3,4.2-1.5,5.9,0,.2,0,.3-.1.5-.8,4.5-1.5,9.9-1.2,16.6h0c0,1.1.1,2.1.4,3.1.5,2.5,1.3,7.5.6,13.3-.1,1.1-.2,2.2-.3,3.4,0,.6,0,1.2,0,1.8,0,2.3.8,6.7,1.4,9.9h0c1.2,2.6,3.4,4.5,6.9,5.1,1.6.3,3.2.2,4.8-.1.7-.1,1.4-.3,2-.4.1,0,.3,0,.4-.1,0,0,.1,0,.2,0,.2,0,.3,0,.4-.1,0,0,.1,0,.2,0,.2,0,.3-.1.4-.2l1-.5c1.6-.9,2.1-1.1,1.7-2.9,0,0,0,0,0,0-.3-1.4-.3-2.8-.2-4.2.2-1.7.3-4,.8-4.9.5-1,1.4-2,2.5-2.8.6-.5,1.3-1,1.9-1.4,0,0,0,0,0,0,3.2-2.1,6.9-3.5,7.7-4.1.5-.4.9-.8,1.2-1.3.9-1.3,2.6-4,3.2-7.3.1-.7.2-1.3.2-2.1s0-1.5-.2-2.3c-.1-.7-.4-1.4-.7-2.1,0-.2-.2-.4-.3-.6-.2-.6-.4-1.2-.6-1.6-.7-1.8-.6-3.9.4-6.1.3-.6.5-1.2.7-1.7,1.2-3.3,4.3-7,11.5-9,2.1-.6,4.1-.7,6-.5,1.5,0,3.1.4,4.3,1,9.1,4.7,12,14.4,12.8,22.1,0,.2,0,.5,0,.7,0,.2,0,.4,0,.6h0c0,.3,0,.5,0,.7.2,2.8,0,5.2,0,6.8.4-.3,1.1-1.1,1.8-2.6.6-1.7,1-3.3,1.3-4.9.6-5,1.9-11.9-4-23.6,2.2,2.2,5,6.1,6.4,12.6,2.1,7,5.5,19.8-1.7,34.1-1.9,5.8-6.5,11.4-9.9,18.6,5.7-4.2,11.4-9.6,15.6-16.4.5-.8.9-1.5,1.3-2.3-1.7,7.6-4.5,14.8-8,21.5,0,0,0,0,0,0-6.7,12.9-16.3,23.7-24.7,31.7,0,0,0,0,0,0,0,0-18,16-43.7,17.5,0,0,30.3,1.7,50.1-10.9,0,0,0,0,0,0,12.6-7.3,23.8-18.4,31.5-31.5,0,.2.1.3.2.5.2.5.3,1,.5,1.5,7.5,20.5,23.7,35.2,47.8,35.2s51.3-19.9,51.1-56.7c0-30.7-22-49.1-43.8-49.1M305.1,178.1c-16.9,0-34.4-18.4-34.4-50.8s18-47.2,35.2-47.2,30.8,14,30.8,44.5-15.6,53.5-31.6,53.5"/>
    </g>
  </g>
</svg>