<?xml version="1.0" encoding="UTF-8"?>
<svg id="Layer_1" xmlns="http://www.w3.org/2000/svg" xmlns:xlink="http://www.w3.org/1999/xlink" version="1.1" viewBox="0 0 500 200">
  <!-- Generator: Adobe Illustrator 29.0.1, SVG Export Plug-In . SVG Version: 2.1.0 Build 192)  -->
  <defs>
    <style>
      .st0 {
        fill: none;
      }

      .st1 {
        fill: #1e396c;
      }

      .st2 {
        fill: #dd2227;
      }

      .st3 {
        clip-path: url(#clippath-17);
      }

      .st4 {
        clip-path: url(#clippath-19);
      }

      .st5 {
        clip-path: url(#clippath-11);
      }

      .st6 {
        clip-path: url(#clippath-16);
      }

      .st7 {
        clip-path: url(#clippath-18);
      }

      .st8 {
        clip-path: url(#clippath-10);
      }

      .st9 {
        clip-path: url(#clippath-15);
      }

      .st10 {
        clip-path: url(#clippath-13);
      }

      .st11 {
        clip-path: url(#clippath-14);
      }

      .st12 {
        clip-path: url(#clippath-12);
      }

      .st13 {
        clip-path: url(#clippath-27);
      }

      .st14 {
        clip-path: url(#clippath-29);
      }

      .st15 {
        clip-path: url(#clippath-26);
      }

      .st16 {
        clip-path: url(#clippath-28);
      }

      .st17 {
        clip-path: url(#clippath-20);
      }

      .st18 {
        clip-path: url(#clippath-21);
      }

      .st19 {
        clip-path: url(#clippath-22);
      }

      .st20 {
        clip-path: url(#clippath-23);
      }

      .st21 {
        clip-path: url(#clippath-24);
      }

      .st22 {
        clip-path: url(#clippath-25);
      }

      .st23 {
        clip-path: url(#clippath-1);
      }

      .st24 {
        clip-path: url(#clippath-3);
      }

      .st25 {
        clip-path: url(#clippath-4);
      }

      .st26 {
        clip-path: url(#clippath-2);
      }

      .st27 {
        clip-path: url(#clippath-7);
      }

      .st28 {
        clip-path: url(#clippath-6);
      }

      .st29 {
        clip-path: url(#clippath-9);
      }

      .st30 {
        clip-path: url(#clippath-8);
      }

      .st31 {
        clip-path: url(#clippath-5);
      }

      .st32 {
        fill: #fff;
      }

      .st33 {
        clip-path: url(#clippath);
      }
    </style>
    <clipPath id="clippath">
      <rect class="st0" x="156.7" y="22.2" width="186.5" height="155.6"/>
    </clipPath>
    <clipPath id="clippath-1">
      <rect class="st0" x="156.7" y="22.2" width="186.5" height="155.6"/>
    </clipPath>
    <clipPath id="clippath-2">
      <rect class="st0" x="156.7" y="22.2" width="186.5" height="155.6"/>
    </clipPath>
    <clipPath id="clippath-3">
      <rect class="st0" x="156.7" y="22.2" width="186.5" height="155.6"/>
    </clipPath>
    <clipPath id="clippath-4">
      <rect class="st0" x="156.7" y="22.2" width="186.5" height="155.6"/>
    </clipPath>
    <clipPath id="clippath-5">
      <rect class="st0" x="156.7" y="22.2" width="186.5" height="155.6"/>
    </clipPath>
    <clipPath id="clippath-6">
      <rect class="st0" x="156.7" y="22.2" width="186.5" height="155.6"/>
    </clipPath>
    <clipPath id="clippath-7">
      <rect class="st0" x="156.7" y="22.2" width="186.5" height="155.6"/>
    </clipPath>
    <clipPath id="clippath-8">
      <rect class="st0" x="156.7" y="22.2" width="186.5" height="155.6"/>
    </clipPath>
    <clipPath id="clippath-9">
      <rect class="st0" x="156.7" y="22.2" width="186.5" height="155.6"/>
    </clipPath>
    <clipPath id="clippath-10">
      <rect class="st0" x="156.7" y="22.2" width="186.5" height="155.6"/>
    </clipPath>
    <clipPath id="clippath-11">
      <rect class="st0" x="156.7" y="22.2" width="186.5" height="155.6"/>
    </clipPath>
    <clipPath id="clippath-12">
      <rect class="st0" x="156.7" y="22.2" width="186.5" height="155.6"/>
    </clipPath>
    <clipPath id="clippath-13">
      <rect class="st0" x="156.7" y="22.2" width="186.5" height="155.6"/>
    </clipPath>
    <clipPath id="clippath-14">
      <rect class="st0" x="156.7" y="22.2" width="186.5" height="155.6"/>
    </clipPath>
    <clipPath id="clippath-15">
      <rect class="st0" x="156.7" y="22.2" width="186.5" height="155.6"/>
    </clipPath>
    <clipPath id="clippath-16">
      <rect class="st0" x="156.7" y="22.2" width="186.5" height="155.6"/>
    </clipPath>
    <clipPath id="clippath-17">
      <rect class="st0" x="156.7" y="22.2" width="186.5" height="155.6"/>
    </clipPath>
    <clipPath id="clippath-18">
      <rect class="st0" x="156.7" y="22.2" width="186.5" height="155.6"/>
    </clipPath>
    <clipPath id="clippath-19">
      <rect class="st0" x="156.7" y="22.2" width="186.5" height="155.6"/>
    </clipPath>
    <clipPath id="clippath-20">
      <rect class="st0" x="156.7" y="22.2" width="186.5" height="155.6"/>
    </clipPath>
    <clipPath id="clippath-21">
      <rect class="st0" x="156.7" y="22.2" width="186.5" height="155.6"/>
    </clipPath>
    <clipPath id="clippath-22">
      <rect class="st0" x="156.7" y="22.2" width="186.5" height="155.6"/>
    </clipPath>
    <clipPath id="clippath-23">
      <rect class="st0" x="156.7" y="22.2" width="186.5" height="155.6"/>
    </clipPath>
    <clipPath id="clippath-24">
      <rect class="st0" x="156.7" y="22.2" width="186.5" height="155.6"/>
    </clipPath>
    <clipPath id="clippath-25">
      <rect class="st0" x="156.7" y="22.2" width="186.5" height="155.6"/>
    </clipPath>
    <clipPath id="clippath-26">
      <rect class="st0" x="156.7" y="22.2" width="186.5" height="155.6"/>
    </clipPath>
    <clipPath id="clippath-27">
      <rect class="st0" x="156.7" y="22.2" width="186.5" height="155.6"/>
    </clipPath>
    <clipPath id="clippath-28">
      <rect class="st0" x="156.7" y="22.2" width="186.5" height="155.6"/>
    </clipPath>
    <clipPath id="clippath-29">
      <rect class="st0" x="156.7" y="22.2" width="186.5" height="155.6"/>
    </clipPath>
  </defs>
  <g class="st33">
    <path class="st2" d="M292.8,136.9c-6.9,2.9-14.5,5.1-22.5,6.4-37.6,6.1-71.1-9.4-74.9-34.5-2.6-17.3,9.5-34.7,29.6-45.8-25.3,10.5-41.5,30.3-38.5,50,3.8,25.2,37.3,40.6,74.9,34.6,11.8-2,22.4-5.7,31.5-10.7"/>
  </g>
  <g class="st23">
    <path class="st32" d="M316.4,90.6c-2.8-23.1-31.4-38-63.6-33.4-32.2,4.6-56.1,26.9-53.1,50,2.8,23,31.4,38,63.6,33.4,32.2-4.6,56-27,53.1-50"/>
  </g>
  <g class="st26">
    <path class="st2" d="M316.4,90.6c-2.8-23.1-31.4-38-63.6-33.4-32.2,4.6-56.1,26.9-53.1,50,2.8,23,31.4,38,63.6,33.4,32.2-4.6,56-27,53.1-50M303.6,88.1c.1.4-.2,1-.8,1l-6.1.9c-.4,0-.9-.3-1-.8s.2-1,.8-1l6-.9c.5-.1,1,.3,1.1.8M303.7,95.8c-.1.4-.5.9-1.1.8l-6.5-.8c-.5,0-.9-.5-.9-1,.1-.4.5-.9,1-.8l6.5.8c.7,0,1.1.4,1,1M301.5,80.7c.2.4,0,1-.4,1.2l-5.6,2.4c-.4.2-1,0-1.1-.4-.2-.4,0-1,.4-1.2l5.6-2.4c.4-.2,1,0,1.1.4M297.5,74c.3.4.2,1-.1,1.2l-4.8,3.8c-.3.3-1,.2-1.2-.1-.3-.4-.2-.9.1-1.3l4.8-3.8c.3-.2.9-.2,1.2.2M287.2,73.7l3.6-4.9c.3-.3.9-.4,1.2-.2.4.3.5.9.2,1.3l-3.6,4.9c-.2.3-.8.4-1.2.1-.4-.2-.4-.8-.2-1.2M282,71l2.2-5.7c.2-.4.7-.7,1.2-.4.4.2.7.7.5,1.2l-2.3,5.7c-.2.4-.7.7-1.1.5-.4-.3-.7-.8-.5-1.3M276.3,69.8l.7-6.1c0-.4.4-.9,1-.8s.9.5.8,1l-.7,6.1c0,.5-.4.9-1,.8-.4,0-.9-.4-.8-1M270.3,63c.5-.1,1,.2,1,.8l1,6.1c.1.4-.2,1-.8,1-.4.1-1-.2-1-.8l-.9-6.1c-.2-.5.1-1,.7-1M263,65c.4-.2,1,0,1.2.4l2.5,5.7c.2.4,0,1-.4,1.2-.4.2-1,0-1.2-.4l-2.5-5.7c-.2-.4-.1-1,.4-1.2M256.4,68.9c.3-.3.9-.2,1.2.1l3.8,4.8c.3.4.2,1-.1,1.3-.3.3-1,.2-1.2-.2l-3.8-4.8c-.3-.3-.2-.9.1-1.2M251.1,74.5c.3-.4.9-.5,1.3-.2l4.9,3.7c.3.3.4.9.2,1.2-.3.4-.9.5-1.2.2l-4.9-3.7c-.5-.3-.7-.9-.3-1.2M247.3,81.2c.2-.4.7-.7,1.2-.5l7.8,3.2c4.4-9.7,15.6-14.3,25.5-10.2,10,4,15,15.1,11.8,25.3l7.8,3.2c.4.2.7.7.4,1.1-.1.4-.5.7-1,.5l-10.2-4.1c.1-.2.2-.4.2-.7,3.5-9-.9-19.3-9.9-23-9-3.6-19.2.8-22.6,9.8-.1.2-.1.4-.2.7l-10.3-4.1c-.4-.2-.5-.7-.4-1M212.4,112c3.5,0,10.3.2,15.7,1.2v2c-5.4-1-12.2-1.1-15.7-1.2v-2ZM277.6,132.4h-1.7v-2.9c7,.1,13.6,0,17.1-.1-1.7,1.1-3.5,2.1-5.3,3h-10ZM274.6,135.2c-2.4,0-6.1-.1-10.7-1.1-4.4-.9-10.8-2.9-16.8-5.1v-1.9c5.9,2.2,12.2,4,16.7,5,2.8.7,6.9,1.1,10.8,1.3v1.7ZM217.5,120.4c-1.6-.7-3.2-1.3-4.5-2.1,3.9.1,10.1.3,15,1.2v2c-3.4-.7-7.2-1-10.6-1.1M229.4,116.3c2,.4,3.7,1,4.8,1.6,2.5,1.5,6.9,3.4,11.5,5.2v2.6c-4.7-1.7-8.8-3.6-11.3-5.1-1.2-.8-2.9-1.3-5-1.7v-2.6h0ZM257.8,127.1c2,.5,3.8,1.1,5.3,1.3,2.8.7,7.1,1.1,11.3,1.2v2.9c-2.4,0-6.1-.2-10.7-1.2-4.4-.9-10.8-2.9-16.8-5v-2.7c.9.3,1.6.5,2.5.9v2.6h8.3ZM229.4,119.8c1.9.4,3.5,1,4.6,1.6,2.6,1.5,7,3.5,11.8,5.2v2c-1.1-.4-2.2-.8-3.2-1.2-2-1.1-4.7-2.5-7.3-3.4h0c-.3-.2-.5-.3-.8-.4-1.2-.8-2.9-1.3-5-1.7v-2.1h-.1ZM276.7,128.7s-.3-.1-.9,0v-2c8.7.3,18,0,21,0-.9.7-1.6,1.2-2.6,1.9h-17.5ZM274.6,128.7c-2.3,0-6.2-.1-11.2-1.2-1.4-.3-2.9-.7-4.7-1.2v-1.9c1.6.4,3.2.9,4.6,1.1,2.6.5,6.9,1,11.3,1.2,0,0,0,2,0,2ZM249.6,123.6c-.9-.3-1.6-.5-2.5-.9v-1.9c.9.3,1.6.5,2.5.9v1.9ZM245.7,122.2c-4.6-1.7-8.7-3.5-11.1-5-1.3-.8-3-1.4-5.2-1.9v-2c2,.4,3.7,1,4.8,1.7,2.5,1.5,6.9,3.4,11.5,5.1v2ZM228.1,116v2.6c-5.3-1-11.9-1.2-15.7-1.2v-2.5c3.5,0,10.2.1,15.7,1.1M228.1,123.5s-3.5-.7-7.4-2c2.5.2,5.1.4,7.4.9v1.1ZM231.4,123.2c-.8-.1-1.4,0-2.2.1v-.7c.9.1,1.5.3,2.2.5M274.6,137.5c-1.1.3-2.2.7-3.3.9-1.3-.7-2.9-1.4-4.9-2-5.3-1.5-17.1-3.6-19.3-6.3h0c5.9,2.2,12.2,4,16.7,5,3.2.7,7.1,1,10.8,1.2,0,0,0,1.2,0,1.2ZM275.9,137.2v-.9c.8,0,1.6,0,2.4.1h0c-.8.2-1.6.4-2.4.8M281,135.3h-3.4c0-.1-.7-.1-1.7-.1v-2c3.5.1,7.2.1,9.7.1h0c-1.4.8-2.9,1.3-4.6,2M313.2,107h-35.4l5.8,6h26.5c-2.4,3.7-5.6,7.3-9.3,10.6-1,.9-1.9,1.6-2.9,2.4h-21.2s-.3,0-.9.1v-1.5h-1.3v1.5c-2.3,0-6.2-.1-11.2-1.2-1.4-.3-2.9-.8-4.7-1.2v-11.5h-9v8.6c-.9-.3-1.6-.5-2.5-.9v-1.9h-1.4v1.4c-4.6-1.7-8.7-3.5-11.1-5-1.3-.8-3-1.4-5.2-1.9v-1.3h-1.3v1c-5.4-1-12.2-1.1-15.7-1.2v-1.3h-1.5v1.2h-.8v.9h.8v2h-.8v.9h.8v2.5h0c-.4-.3-4-2.7-6.3-2.8v-13.3l-2,.2,3.8-10.6h38.5c0,.1,1.3,3.2,1.3,3.2l2.1-3,13,.2,14.9,11.5v4.6l.5-.9h36.9c-.2.2-.2.5-.3.8"/>
  </g>
  <g class="st24">
    <polygon class="st2" points="249.1 91.8 245.9 95 244.2 91.5 207.2 91.5 213 103.4 248.3 103.4 248.3 103 259.5 93.4 272.6 104.2 274.7 103.4 259.6 91.8 249.1 91.8"/>
  </g>
  <g class="st25">
    <polygon class="st2" points="218.4 109.5 224 109.5 224 106.7 218.5 106.7 218.4 109.5"/>
  </g>
  <g class="st31">
    <polygon class="st2" points="238.1 109.5 243.7 109.5 243.7 106.7 238.1 106.7 238.1 109.5"/>
  </g>
  <g class="st28">
    <polygon class="st2" points="287.5 119.8 290.8 119.8 290.8 116.8 285.6 116.8 285.6 119.8 286.2 119.8 287.5 119.8"/>
  </g>
  <g class="st27">
    <polygon class="st2" points="300.9 119.8 301.7 119.8 301.7 116.8 296.6 116.8 296.6 119.8 297.5 119.8 300.9 119.8"/>
  </g>
  <g class="st30">
    <path class="st1" d="M184,44.2h-7c-1.9,3.6-5.3,5.7-9.4,5.7-6,0-10.8-5-10.8-11.7v-9.5h4.8v9c0,4.5,2.3,7.6,6,7.6s6-3.2,6-7.6v-9h4.8v10.9h5.6v4.6ZM170,26.1h-4.2v-3.9h4.2s0,3.9,0,3.9Z"/>
  </g>
  <g class="st29">
    <path class="st1" d="M186.4,49.9h-4.2v-3.9h4.2v3.9ZM198.2,44.2h-15.4v-4.6h3.2c1.6,0,2.4-1.1,2.4-3.3v-7.6h4.8v7.4c0,1.3-.2,2.4-.5,3.5h5.6v4.6ZM192.8,49.9h-4.2v-3.9h4.2v3.9Z"/>
  </g>
  <g class="st8">
    <path class="st1" d="M226.4,44.2h-8.8c-2,0-3.8-.8-5.3-2.4-.9.7-1.9,1.3-3.2,1.7-1.4.4-2.8.7-4.2.7h-7.5v-4.6h7.4c1.6,0,3.2-.3,4.5-1.2-.5-.8-1.4-1.4-2.6-2.2-1.4-.9-2.8-1.4-4.1-1.7v-3.8c3-1.9,6.3-2.7,9.5-2.7s7.3,1.3,10.6,3.7c-.3,1-1.2,2.2-2.5,3.6-1.4,1.6-2.7,2.7-3.9,3.5.7.5,1.4.9,2.6.9h7.7v4.6ZM216.5,33c-1.5-.8-2.9-1.1-4.4-1.1s-2.7.3-4,1c1,.4,1.9,1,2.5,1.4.7.4,1.3,1.1,2.1,2.1.7-.3,1.4-.9,2.3-1.5.8-.9,1.3-1.4,1.5-1.9"/>
  </g>
  <g class="st5">
    <path class="st1" d="M235.2,37.7c0,1.9-.5,3.3-1.5,4.5-1.1,1.4-2.7,2.1-4.7,2.1h-4.5v-4.6h3.5c1.6,0,2.4-1.1,2.4-3.4v-14h4.8s0,15.5,0,15.5Z"/>
  </g>
  <g class="st12">
    <rect class="st1" x="238.8" y="22.2" width="4.8" height="22"/>
  </g>
  <g class="st10">
    <path class="st1" d="M272.2,37.8h-9.5c-3.4,0-4.9,1.1-4.9,3.7s1.6,3.7,4.9,3.7h6.5v4.7h-6.3c-6.2,0-9.8-3-9.8-8.4s2.1-6.8,5.7-7.8c-.5-1.1-.8-2.9-.8-4,0-4,3.3-7.4,7.4-7.4s5.2,1.5,6.4,4.1l-3.8,1.7c-.4-1.3-1.3-2-2.6-2s-2.8,1.5-2.8,3.6.7,2.8,2,3.4h7.6s0,4.7,0,4.7Z"/>
  </g>
  <g class="st11">
    <path class="st1" d="M284.6,41c0,3.2-.8,5.4-2.4,6.8-1.4,1.3-3.8,2-7.1,2v-3.8c3.2,0,4.7-1.5,4.7-4.5v-12.7h4.8s0,12.3,0,12.3Z"/>
  </g>
  <g class="st9">
    <rect class="st1" x="288.1" y="22.2" width="4.8" height="22"/>
  </g>
  <g class="st6">
    <path class="st1" d="M310.7,44.2h-5.3c-.8,3.7-3.8,5.7-9.3,5.7v-3.8c3.2,0,4.7-1.5,4.7-4.5v-12.8h4.8v10.9h5v4.6h.1ZM305.4,26.1h-4.2v-3.9h4.2v3.9Z"/>
  </g>
  <g class="st3">
    <rect class="st1" x="309.7" y="39.6" width="7.3" height="4.6"/>
  </g>
  <g class="st7">
    <rect class="st1" x="316.5" y="39.6" width="7.3" height="4.6"/>
  </g>
  <g class="st4">
    <path class="st1" d="M343.3,39.4c0,4.6-3,7.7-7.8,7.7s-5.1-1-6.5-2.9h-6.1v-4.6h4.7c0-4.9,2.8-7.9,7.7-7.9s8.1,3,8.1,7.7M338.6,39.5c0-2.7-1-4-3-4h-.3c-1.7,0-2.9,1.6-2.9,3.8s1.2,3.9,3.2,3.9c2,.1,3.2-1.4,3.2-3.7"/>
  </g>
  <g class="st17">
    <path class="st1" d="M173.7,174.6l-1.2-3h-9.7l-1.2,3c-.4,1.2-.9,2-1.2,2.4s-.9.7-1.5.7-1.2-.2-1.6-.7c-.4-.4-.7-1-.7-1.5s0-.7.1-1c.1-.3.3-.9.5-1.4l6.1-15.6c.1-.4.3-1,.7-1.6.2-.7.5-1.2.8-1.5.3-.4.7-.8,1.1-1,.4-.2,1-.4,1.6-.4s1.2.1,1.7.4c.4.2.8.5,1.1,1s.5.9.8,1.3c.2.4.4,1.1.8,1.9l6.2,15.5c.4,1.2.8,2.1.8,2.5s-.2,1.1-.7,1.5-1,.7-1.6.7-.8-.1-1-.2c-.2-.1-.5-.3-.7-.5-.2-.2-.4-.5-.5-1.1-.3-.3-.5-.8-.7-1.2M164.1,168h7.1l-3.6-9.9-3.5,9.9Z"/>
  </g>
  <g class="st18">
    <path class="st1" d="M180.7,175.1v-19.3c0-.9.2-1.5.7-2.1.4-.4,1-.7,1.6-.7s1.2.2,1.6.7.7,1.1.7,2.1v19.3c0,.9-.2,1.5-.7,2.1-.4.4-1,.7-1.6.7s-1.2-.2-1.5-.7c-.5-.5-.8-1.2-.8-2.1"/>
  </g>
  <g class="st19">
    <path class="st1" d="M211,174.6l-1.2-3h-9.7l-1.1,3c-.4,1.2-.9,2-1.2,2.4s-.9.7-1.5.7-1.2-.2-1.6-.7c-.4-.4-.7-1-.7-1.5s.1-.7.2-1c.1-.3.2-.9.5-1.4l6.1-15.6c.1-.4.3-1,.7-1.6.2-.7.5-1.2.8-1.5.2-.4.7-.8,1.1-1,.4-.2,1-.4,1.6-.4s1.2.1,1.6.4c.4.2.9.5,1.1,1,.3.4.5.9.7,1.3.2.4.4,1.1.8,1.9l6.2,15.5c.5,1.2.8,2.1.8,2.5s-.2,1.1-.7,1.5c-.4.4-1,.7-1.6.7s-.8-.1-1-.2c-.2-.1-.4-.3-.7-.5-.2-.2-.4-.5-.7-1.1-.2-.3-.4-.8-.5-1.2M201.3,168h7.1l-3.6-9.9-3.5,9.9Z"/>
  </g>
  <g class="st20">
    <path class="st1" d="M220.1,157.5c-.7,0-1.2-.2-1.5-.5-.4-.3-.7-.9-.7-1.6s.2-1.2.7-1.5c.4-.4,1-.7,1.5-.7s1.1.2,1.5.5.7.9.7,1.6-.2,1.2-.7,1.6c-.3.4-.9.5-1.5.5M222.4,162.2v12.8c0,.9-.2,1.5-.7,2.1-.4.4-1,.7-1.6.7s-1.2-.2-1.5-.7c-.4-.4-.7-1.1-.7-2v-12.7c0-.9.2-1.5.7-2,.4-.4,1-.7,1.5-.7s1.2.2,1.6.7c.4.3.7.9.7,1.7"/>
  </g>
  <g class="st21">
    <path class="st1" d="M229.6,162.1v.5c.8-1,1.6-1.7,2.6-2.3.9-.4,2-.8,3.2-.8s2.2.2,3.2.8,1.6,1.2,2.1,2.2c.3.5.4,1.1.5,1.7s.1,1.4.1,2.4v8.3c0,.9-.2,1.5-.7,2.1-.4.4-1,.7-1.6.7s-1.2-.2-1.6-.7c-.4-.4-.7-1.1-.7-2v-7.4c0-1.4-.2-2.6-.7-3.4-.4-.8-1.2-1.2-2.4-1.2s-1.5.2-2.2.7c-.7.4-1.1,1.1-1.4,2-.2.7-.3,1.9-.3,3.7v5.6c0,.9-.2,1.5-.7,2.1-.4.4-1,.7-1.6.7s-1.2-.2-1.5-.7c-.4-.4-.7-1.1-.7-2v-12.8c0-.9.2-1.5.5-1.9.3-.4.9-.7,1.5-.7s.8.1,1.1.3c.3.2.5.4.8.9.3.2.4.7.4,1.2"/>
  </g>
  <g class="st22">
    <path class="st1" d="M265.8,157.2h-9.6v6.1h7.9c.8,0,1.3.2,1.6.5s.5.8.5,1.3-.2,1-.5,1.3-.9.4-1.6.4h-7.9v7.8c0,1-.2,1.7-.7,2.2s-1.1.8-1.7.8-1.3-.2-1.7-.8-.7-1.2-.7-2.2v-18.4c0-.7.1-1.3.3-1.7.2-.4.5-.8,1-1,.4-.2,1-.3,1.6-.3h11.4c.8,0,1.3.2,1.7.5.3.3.5.8.5,1.3s-.2,1-.5,1.4c-.4.4-1,.7-1.7.7"/>
  </g>
  <g class="st15">
    <path class="st1" d="M280.4,175.3c-1.1.9-2.1,1.4-3.2,1.9-1,.4-2.2.7-3.4.7s-2.2-.2-3-.7c-.9-.4-1.5-1.1-2-1.9s-.7-1.6-.7-2.5.3-2.3,1.2-3.2c.8-.9,1.9-1.4,3.2-1.7.2-.1,1-.2,2.1-.4s2.1-.4,2.8-.7c.8-.2,1.6-.4,2.6-.7,0-1.2-.3-2.1-.8-2.6-.4-.5-1.3-.9-2.6-.9s-2,.1-2.5.4c-.5.3-1.1.8-1.4,1.4-.4.7-.7,1.1-.9,1.2-.2.2-.5.3-1.1.3s-1-.1-1.3-.4c-.3-.3-.5-.8-.5-1.2,0-.8.2-1.5.9-2.3.5-.8,1.4-1.3,2.6-1.9,1.2-.4,2.6-.8,4.4-.8s3.5.2,4.6.7,2,1.2,2.4,2.2c.4,1,.7,2.3.7,4v5c0,.9.1,1.7.4,2.6.2.9.4,1.5.4,1.7,0,.4-.2.9-.7,1.2s-.9.5-1.4.5-.9-.2-1.3-.7c-.5-.1-1.1-.8-1.5-1.5M280.1,168.9c-.7.2-1.6.5-2.8.8-1.3.2-2.1.4-2.6.5-.4.1-1,.3-1.4.8-.4.3-.7.9-.7,1.5s.2,1.2.8,1.7c.5.4,1.2.7,2,.7s1.6-.2,2.4-.5c.8-.4,1.3-.9,1.6-1.5.4-.7.5-1.7.5-3.4v-.5h.2Z"/>
  </g>
  <g class="st13">
    <path class="st1" d="M292,171.4v3.7c0,.9-.2,1.5-.7,2.1-.4.4-1,.7-1.6.7s-1.2-.2-1.5-.7c-.4-.4-.7-1.1-.7-2.1v-12.4c0-2,.8-3,2.2-3s1.3.2,1.6.8c.3.4.5,1.2.5,2.1.5-.9,1.1-1.6,1.6-2.1s1.3-.8,2.3-.8,1.9.2,2.7.8c.9.4,1.3,1.1,1.3,1.9s-.2,1-.5,1.3-.8.5-1.2.5-.5-.1-1.2-.3-1.2-.3-1.6-.3c-.7,0-1.2.2-1.6.5s-.8.9-1,1.5c-.2.7-.4,1.5-.4,2.4-.1,1-.2,2.1-.2,3.5"/>
  </g>
  <g class="st16">
    <path class="st1" d="M315.6,169.1v5.9c0,1-.2,1.6-.7,2.1-.4.4-1,.7-1.6.7s-1.2-.2-1.6-.7c-.4-.4-.7-1.2-.7-2.1v-7.1c0-1.1,0-2-.1-2.6-.1-.7-.3-1.1-.7-1.5s-.9-.5-1.6-.5c-1.4,0-2.4.5-2.8,1.5-.4,1-.7,2.4-.7,4.4v6c0,.9-.2,1.6-.7,2.1-.4.4-1,.8-1.6.8s-1.2-.2-1.6-.8c-.4-.4-.7-1.2-.7-2.1v-12.7c0-.9.2-1.5.5-2s.9-.7,1.5-.7,1.1.2,1.5.7.7,1,.7,1.7v.4c.8-.9,1.6-1.6,2.5-2.1s1.9-.7,2.9-.7,2.1.2,2.8.7c.8.4,1.4,1.1,2,2.1.8-.9,1.5-1.6,2.4-2.1s1.7-.7,2.8-.7,2.3.2,3.2.8c.9.4,1.5,1.2,2,2.1.4.8.5,2.1.5,3.8v8.7c0,1-.2,1.6-.7,2.1-.4.4-1,.7-1.6.7s-1.2-.2-1.6-.8c-.4-.4-.7-1.2-.7-2.1v-7.5c0-1,0-1.7-.1-2.3s-.3-1.1-.7-1.4c-.3-.4-.9-.5-1.6-.5s-1.2.2-1.6.5c-.5.3-1,.9-1.2,1.4-.4.5-.5,1.9-.5,3.8"/>
  </g>
  <g class="st14">
    <path class="st1" d="M343.3,171.9c0,1.2-.3,2.3-.9,3.2-.5.9-1.4,1.5-2.6,2-1.2.4-2.6.7-4.2.7s-2.9-.2-4.1-.8-2-1.1-2.5-1.9-.9-1.4-.9-2.2.2-.9.5-1.3c.3-.3.8-.5,1.3-.5s.9.1,1.1.3.5.5.8,1c.4.8,1,1.4,1.6,1.7.7.4,1.5.5,2.6.5s1.6-.2,2.2-.5c.5-.4.9-.9.9-1.4s-.3-1.3-.9-1.7c-.5-.3-1.5-.7-2.9-1-1.5-.3-2.8-.8-3.7-1.2-1-.4-1.7-1-2.3-1.6s-.9-1.5-.9-2.5.2-1.7.8-2.5,1.3-1.4,2.4-1.9c1.1-.4,2.3-.8,3.7-.8s2.2.1,3.2.3c1,.2,1.6.5,2.3,1s1.1.9,1.4,1.3c.3.4.5,1,.5,1.4s-.2,1-.5,1.3-.9.5-1.4.5-.9-.1-1.2-.4c-.3-.2-.7-.7-1.1-1.2-.3-.4-.8-.8-1.2-1.1-.4-.2-1.1-.4-1.9-.4s-1.4.2-2,.5-.8.8-.8,1.3.2.9.5,1.2.9.5,1.5.8c.7.2,1.6.4,2.7.8,1.4.3,2.5.8,3.4,1.2.9.4,1.5,1,2,1.6.3.8.5,1.5.5,2.3"/>
  </g>
</svg>