<?xml version="1.0" encoding="utf-8"?>
<!-- Generator: Adobe Illustrator 28.0.0, SVG Export Plug-In . SVG Version: 6.00 Build 0)  -->
<svg version="1.1" id="Layer_1" xmlns="http://www.w3.org/2000/svg" xmlns:xlink="http://www.w3.org/1999/xlink" x="0px" y="0px"
	 viewBox="0 0 500 300" style="enable-background:new 0 0 500 300;" xml:space="preserve">
<style type="text/css">
	.st0{fill:#EC7620;}
	.st1{fill-rule:evenodd;clip-rule:evenodd;fill:#350600;}
	.st2{fill:#350600;}
	.st3{fill:#F88D2A;}
	.st4{fill:#FFC629;}
	.st5{fill:#42A7C6;}
	.st6{fill:#AD8B80;}
	.st7{fill:#404041;}
	.st8{fill:#E20613;}
	.st9{fill:#007A8A;}
	.st10{fill:#A0002D;}
	.st11{fill:#0380C3;}
	.st12{fill:#FFFCE7;}
	.st13{fill:#DAC094;}
	.st14{fill:#692525;}
	.st15{fill:#699043;}
	.st16{fill:#70715B;}
	.st17{fill:#C1E7F6;}
	.st18{clip-path:url(#SVGID_00000173855998811905576180000001931929381243991222_);fill:#C1E7F6;}
	.st19{clip-path:url(#SVGID_00000173855998811905576180000001931929381243991222_);fill:#7CD1EE;}
	.st20{fill:#7CD1EE;}
	.st21{fill:#92A1C6;}
	.st22{filter:url(#Adobe_OpacityMaskFilter);}
	
		.st23{clip-path:url(#SVGID_00000165942340003259522050000012627764216592191913_);fill:url(#SVGID_00000013169103084761744240000017281667819508783752_);}
	
		.st24{clip-path:url(#SVGID_00000165942340003259522050000012627764216592191913_);mask:url(#SVGID_00000104696181851792834970000007311623135172044932_);fill:url(#SVGID_00000109713370224040818880000009742158195418754458_);}
	.st25{clip-path:url(#SVGID_00000049904097281586074660000008191690755682902958_);fill:#604693;}
	.st26{fill:#00B2E3;}
	.st27{fill:#F5911E;}
	.st28{fill:#B12B26;}
	.st29{fill:#ED4036;}
	.st30{fill:#6D6E70;}
	.st31{fill:#121921;}
	.st32{fill:#0381C4;}
	.st33{fill:#A2732A;}
	.st34{fill:#513A16;}
	.st35{fill:#B99664;}
	.st36{fill:none;stroke:#B99664;stroke-width:1.2826;stroke-miterlimit:10;}
	.st37{fill:#8F9191;}
	.st38{fill:none;}
	.st39{fill:url(#SVGID_00000039100133830311098090000001856346719177630108_);}
	.st40{fill:url(#SVGID_00000060751637617507873440000004698027318927435189_);}
	.st41{fill:url(#SVGID_00000059284442599063907340000018319855304900774578_);}
	.st42{fill:#1A1A1A;}
	.st43{fill:url(#SVGID_00000060028932339064179280000006036882517743743907_);}
	.st44{fill:url(#SVGID_00000176740959092010822180000013715985654915416486_);}
	.st45{fill:url(#SVGID_00000095321487401930532390000007235735699072032926_);}
	.st46{fill:url(#SVGID_00000173123055483519579260000015779408080346099622_);}
	.st47{opacity:0.6;fill:url(#SVGID_00000129205205883797226740000011484878708377580943_);}
	.st48{fill:url(#SVGID_00000042008393692854452040000017312563702615693215_);}
	.st49{opacity:0.6;fill:url(#SVGID_00000027564375395793314570000006033278081367491213_);}
	.st50{fill:url(#SVGID_00000074414836700754741340000002560177518769107602_);}
	.st51{opacity:0.6;fill:url(#SVGID_00000072252175757710911640000017852919759157549735_);}
	.st52{fill:url(#SVGID_00000023976878315977970720000013188431354692275612_);}
	.st53{opacity:0.6;fill:url(#SVGID_00000068635220032091581910000007232204155314116488_);}
	.st54{fill:url(#SVGID_00000070108511509660269530000000470699076972618684_);}
	.st55{fill:url(#SVGID_00000010275964732541994170000009268528891024770205_);}
	.st56{opacity:0.6;fill:url(#SVGID_00000085239012862538223320000001173246851759635588_);}
	.st57{fill:url(#SVGID_00000075862210538032865670000011312084724931176624_);}
	.st58{fill:url(#SVGID_00000074402454481205554680000013096117840336351423_);}
	.st59{opacity:0.6;fill:url(#SVGID_00000119088667623217080670000016523428070154780065_);}
	.st60{fill:#AB774D;}
</style>
<g>
	<g id="SvgjsG5407_00000004518910686978931380000004496587481670032313_">
		<path class="st12" d="M250,13.3L250,13.3c75.5,0,136.7,61.2,136.7,136.7l0,0c0,75.5-61.2,136.7-136.7,136.7l0,0
			c-75.5,0-136.7-61.2-136.7-136.7l0,0C113.3,74.5,174.5,13.3,250,13.3z"/>
	</g>
	<g id="SvgjsG5409_00000047768355738302800640000016521039616677584803_" transform="rotate(0 193.515625 195.93359375)">
		<g>
			<g>
				<g>
					<path class="st13" d="M235.3,174.6c-0.4-1.6-1-3.1-1.8-4.6c-0.4-0.8-0.9-1.5-1.5-2.2c-2.6-3.1-6.3-4.6-11-4.6
						c-3.3,0.1-6.6,0.6-9.8,1.5c1.1-6.6,7.3-8.4,9.2-8.7c0.9-0.2,1.5-1.1,1.3-2c-0.2-0.9-1.1-1.5-2-1.3c-4.9,0.8-9.1,4-11.1,8.6
						c-3.6-4.8-9.2-7.7-15.2-7.8c-3.5,0.1-6.9,0.6-10.2,1.5c-2.9,0.8-5.9,1.2-8.9,1.4c-0.9,0-1.7,0.8-1.7,1.7c0,0.2,0,0.3,0.1,0.5
						c1.7,5.5,5.8,10,11.1,12.3c7.9,3.3,17,2.3,24.1-2.6l0.3,0.1c0.8,0.2,1.5,0.2,2.3,0l0.5-0.1c3.3-1,6.6-1.5,10-1.7
						c3.8,0,6.7,1.2,8.6,3.7c0.5,0.7,0.9,1.4,1.3,2.1c0.5,1,0.8,2,1.1,3.1c1.5,5.8,0.3,13.4-3,19.4c-0.4,0.8-0.9,1.6-1.5,2.3
						l-0.1,0.2c-0.2,0.2-0.3,0.4-0.5,0.6c-2.1,2.7-5.7,6-10.6,6c-2.2,0-4.3-0.6-6.2-1.6c-0.5-0.2-1.1-0.2-1.5,0
						c-1.9,1-4.1,1.6-6.2,1.6c-5,0-8.5-3.2-10.6-6c-4.9-6.4-6.9-16.2-4.7-23.3l0.2-0.6l-3.2-1l-0.2,0.6c-2.6,8.2-0.4,19,5.3,26.4
						c3.7,4.8,8.3,7.3,13.3,7.3c2.4,0,4.8-0.6,7-1.6c2.2,1,4.6,1.6,7,1.6c5,0,9.6-2.6,13.3-7.3l0.2-0.3c0.5-0.7,1-1.4,1.5-2.2
						C235.7,190.6,237.2,181.6,235.3,174.6z M193.6,156.9c3.5,0,6.9,1.2,9.6,3.5c-4.3-1.1-8.8-1.3-13.2-0.5
						c-0.9,0.2-1.4,1.2-1.2,2.1c0.2,0.8,1,1.4,1.8,1.3c1.1-0.2,2.2-0.3,3.3-0.4c4.2-0.3,8.4,0.4,12.2,2.2l0.4,0.2
						c-5.2,3.8-11.8,5.1-18,3.6c-5.1-1.1-9.4-4.5-11.6-9.2c2.5-0.3,4.9-0.7,7.3-1.3C187.3,157.5,190.4,157,193.6,156.9z"/>
					<path class="st13" d="M236.3,167l-1.2,1.3l0.4,0.4c0.5,0.6,1,1.3,1.4,2l0.4,0.8l0.6-0.7l1.2-1.4c1.6-1.5,2.9-3.3,3.9-5.3
						c0.6-1.5,1.3-3,2-4.4l0.6-1.2l-4.7,0.9l-0.1,0.3c-0.6,1.3-1,2.3-1.3,3C238.7,164.3,237.6,165.7,236.3,167L236.3,167l0.5,0.4
						l0,0L236.3,167z"/>
					<path class="st13" d="M233.6,156.7c5.4,1.3,11,0.8,16.1-1.3c1.6-0.6,3-1.4,4.4-2.4c0.3,0.1,0.5,0.2,0.8,0.3
						c0.5,0.3,1.2,0.4,1.8,0.1c0.8-0.4,1.6-0.6,2.5-0.6c3.4,0,6.6,3.8,9.6,11.2c1,2,2.3,3.8,3.9,5.3c0.6,0.6,1.2,1.3,1.8,2l0.7,0.8
						l0.4-1c0.3-0.8,0.7-1.6,1.1-2.4l0.2-0.4l-0.3-0.3l-1.1-1.3c-1.3-1.2-2.3-2.6-3.2-4.2c-1.4-3.3-5.5-13.6-13.1-13.6
						c-0.4,0-0.7,0-1.1,0.1c1.3-6,7-7.6,8.8-7.9c1-0.2,1.7-1.2,1.5-2.2c-0.2-1-1.2-1.7-2.2-1.5c-4.7,0.8-8.7,3.7-10.9,8
						c-3.7-5-9.4-7.9-15.6-8c-3.5,0.1-7,0.6-10.5,1.5c-3,0.8-6,1.3-9.1,1.4c-1,0-1.9,0.9-1.9,1.9c0,0.2,0,0.4,0.1,0.5
						C220.6,149.9,226.4,155.2,233.6,156.7z M230.3,142.7c3.1-0.8,6.2-1.3,9.4-1.4c3.3,0,6.4,1.1,9,3c-4.2-1-8.5-1.1-12.8-0.3
						c-1,0.2-1.7,1.2-1.5,2.2c0.1,0.5,0.4,0.9,0.8,1.2c0.4,0.3,0.8,0.4,1.3,0.3c1.3-0.2,2.7-0.4,4-0.4c4.1-0.2,8.1,0.6,11.8,2.4
						c-5.2,3.7-11.8,4.9-18,3.5c-5-1.1-9.2-4.4-11.5-9C225.4,143.8,227.8,143.3,230.3,142.7L230.3,142.7z"/>
					<path class="st13" d="M276.6,197.4l-0.5-0.9l-0.6,0.8c-4.1,6.2-12.2,8.3-18.8,4.8c-0.5-0.3-1.2-0.3-1.7,0
						c-6.8,3.7-15.2,1.4-19.2-5.3l-0.5-0.8l-0.5,0.8c-0.4,0.7-0.9,1.5-1.4,2.1l-0.3,0.4l0.3,0.4c5,7.3,14.5,9.9,22.5,6.1
						c7.7,3.6,16.9,1.4,22-5.4l0.3-0.4l-0.3-0.4C277.4,198.9,277,198.1,276.6,197.4z"/>
					<path class="st13" d="M322,167.8l-3,1.6l0.3,0.6c5.1,9.6,3.2,25.5-3.9,31.5c-2.3,1.9-5.1,2.9-8.1,2.9c-0.7,0-1.5,0-2.2-0.1
						c1.6-1.5,2.9-3.3,3.7-5.3c3.1-7.3,1.5-17.7-1.7-23.7c-0.4-0.8-1.5-1.1-2.3-0.7c-0.8,0.4-1.1,1.5-0.7,2.3l0,0
						c2.8,5.4,4.2,14.7,1.6,20.8c-1.2,3.1-3.8,5.4-7,6.2c-4.2,1.2-8.7,0.2-12.1-2.5c-1.2-1.1-2.2-2.3-3.1-3.7
						c-0.5-0.8-0.9-1.6-1.3-2.5c-2.9-7.1-3.3-14.9-1-22.2c0.3-0.9,0.7-1.7,1.1-2.6c0.2-0.3,0.3-0.7,0.5-1c2.6-4.5,7.7-9.1,17.5-5.7
						h0.1c2.3,3.6,6.4,5.7,10.7,5.5c2,0,3.9-0.4,5.7-1c2-0.7,3.9-1.8,5.6-3.2c2.9-2.4,6.6-6.9,7.3-14.9c0.1-0.9-0.6-1.8-1.6-1.8
						c-0.1,0-0.3,0-0.4,0c-2.4,0.3-4.9,0.4-7.4,0.1c-2.9-0.3-5.7-0.2-8.6,0.2c-4.5,1-8.4,4-10.4,8.2c-1.1-2.1-2.8-3.9-4.8-5.1
						c-0.8-0.5-1.8-0.3-2.3,0.5c-0.5,0.8-0.3,1.8,0.5,2.3l0,0c1.9,1.2,3.4,3,4.1,5.1c-11-2.7-16.6,3.8-19,8l-0.2,0.4
						c-0.4,0.8-0.8,1.7-1.1,2.6c-3.3,8.9-2.9,18.7,1.2,27.2c0.4,0.8,0.9,1.6,1.4,2.3c0.9,1.4,2,2.6,3.2,3.7
						c4.3,3.4,9.9,4.6,15.2,3.2c0.4-0.1,0.8-0.3,1.2-0.4l0.2,0.1c1.9,0.6,3.8,0.9,5.7,0.9h0.5c3.7,0,7.3-1.4,10.2-3.7
						c8.4-7.2,10.7-24.5,4.7-35.7L322,167.8z M312.7,158.2c1.1-0.2,2.2-0.2,3.2-0.2h0.1c0.9,0,1.7-0.8,1.7-1.7
						c0-0.9-0.8-1.7-1.7-1.7l0,0l0,0c-3.7,0-7.3,0.9-10.6,2.6c1.6-2.5,4.2-4.3,7.1-4.9c2.5-0.4,5.1-0.4,7.7-0.2
						c1.9,0.2,3.9,0.2,5.9,0.1c-1.6,8.7-7.8,12.8-12.8,13.7c-4.3,0.7-8.1-0.6-9.9-3.5C306.2,160.3,309.4,158.8,312.7,158.2z"/>
				</g>
			</g>
		</g>
	</g>
	<g id="SvgjsG5411_00000090981842549462304280000006653546257362722473_" transform="rotate(0 188.00390625 128.18359375)">
		<g transform="rotate(0 -0.083282470703125 -4.763858795166016)">
			<path class="st14" d="M183.8,111.8L183.8,111.8L183.8,111.8c1.1,2.7,1.1,5.5-0.3,8.3l0,0l0,0c-1.3,2.8-3.5,4.8-6.5,6.1l0,0l0,0
				c-0.9,0.4-1.9,0.7-2.9,0.8l0,0l0,0c-1,0.1-2,0.1-2.9,0l0,0l0,0c-1.7-3.6-3.2-6.7-4.4-9.3l0,0l0,0c-1.2-2.6-2.5-5.5-3.7-8.5l0,0
				l0,0c-0.1-0.2-0.4-1-1-2.2l0,0l0,0c-0.5-1.3-1-2.4-1.4-3.3l0,0l0,0c0.8-0.9,1.8-1.8,2.8-2.5l0,0l0,0c1-0.7,2.2-1.4,3.3-1.9l0,0
				l0,0c2.6-1.1,4.9-1.5,6.7-1.1l0,0l0,0c1.8,0.4,3.2,1.5,3.9,3.3l0,0l0,0c0.5,1.2,0.6,2.4,0.4,3.6l0,0l0,0
				c-0.2,1.2-0.8,2.4-1.8,3.5l0,0l0,0c1.9-0.4,3.5-0.3,4.8,0.2l0,0l0,0C182.3,109.4,183.2,110.4,183.8,111.8z M173.9,103.6
				L173.9,103.6L173.9,103.6c-0.5-1.2-1.3-2-2.4-2.3l0,0l0,0c-1.1-0.3-2.4-0.1-3.9,0.5l0,0l0,0c-0.4,0.1-0.7,0.3-1.1,0.6l0,0l0,0
				c-0.4,0.2-0.8,0.5-1.3,0.8l0,0l0,0c0.4,1.3,0.9,2.6,1.4,4l0,0l0,0c0.5,1.4,1.2,3,1.9,4.9l0,0l0,0c2.5-1.4,4.2-2.8,5.1-4.1l0,0
				l0,0C174.5,106.6,174.6,105.1,173.9,103.6z M173.6,124L173.6,124L173.6,124c0.5,0,1,0,1.5-0.1l0,0l0,0c0.5-0.1,0.9-0.2,1.3-0.4
				l0,0l0,0c1.8-0.8,3.1-2.1,3.9-3.9l0,0l0,0c0.8-1.9,0.8-3.6,0.1-5.4l0,0l0,0c-0.6-1.4-1.4-2.3-2.5-2.7l0,0l0,0
				c-1.1-0.3-2.5-0.2-4.1,0.5l0,0l0,0c-0.6,0.3-1.3,0.6-2.1,1.1l0,0l0,0c-0.7,0.5-1.4,1-2.1,1.6l0,0l0,0c0.2,0.5,0.4,1,0.6,1.4l0,0
				l0,0c0.2,0.5,0.4,1,0.6,1.4l0,0l0,0c0.4,0.9,0.8,1.8,1.2,2.6l0,0l0,0C172.4,121.3,172.9,122.5,173.6,124z"/>
			<path class="st14" d="M205.6,101.7L205.6,101.7L205.6,101.7c0.4,1.6,0.8,3.8,1.1,6.7l0,0l0,0c0.3,2.8,0.4,5.4,0.4,7.8l0,0l0,0
				c-0.5,0.1-1,0.2-1.6,0.3l0,0l0,0c-0.6,0.1-1.1,0.1-1.7,0.1l0,0l0,0c0-0.4-0.1-0.8-0.1-1.2l0,0l0,0c0-0.4,0-0.7,0-1l0,0l0,0
				c-0.4,0.5-1,0.9-1.5,1.2l0,0l0,0c-0.6,0.3-1.2,0.6-1.9,0.8l0,0l0,0c-1.7,0.5-3.3,0.4-4.6-0.2l0,0l0,0c-1.3-0.6-2.2-1.7-2.6-3.2
				l0,0l0,0c-0.4-1.6-0.1-3,1-4.2l0,0l0,0c1.1-1.2,3-2.2,5.7-2.9l0,0l0,0c0.4-0.1,0.8-0.2,1.2-0.3l0,0l0,0c0.4-0.1,0.8-0.2,1.4-0.3
				l0,0l0,0c-0.1-0.3-0.1-0.5-0.2-0.8l0,0l0,0c-0.1-0.3-0.1-0.5-0.2-0.8l0,0l0,0c-0.6-2-1.2-3.5-1.9-4.2l0,0l0,0
				c-0.7-0.8-1.5-1-2.5-0.8l0,0l0,0c-1,0.3-1.7,1-2.1,2.1l0,0l0,0c-0.4,1.1-0.4,2.4-0.1,3.9l0,0l0,0c-0.9,0.2-1.7,0.2-2.3,0l0,0l0,0
				c-0.6-0.2-1.2-0.5-1.6-0.9l0,0l0,0c-0.1-1.6,0.4-3.2,1.5-4.6l0,0l0,0c1.1-1.5,2.6-2.4,4.4-2.9l0,0l0,0c2-0.6,3.7-0.4,5.1,0.6l0,0
				l0,0C204,97.6,205,99.3,205.6,101.7z M197.1,112.1L197.1,112.1L197.1,112.1c0.2,0.8,0.6,1.4,1.3,1.7l0,0l0,0
				c0.6,0.3,1.4,0.4,2.3,0.2l0,0l0,0c0.6-0.2,1.2-0.4,1.7-0.7l0,0l0,0c0.5-0.3,0.9-0.7,1.3-1.2l0,0l0,0c-0.1-0.9-0.2-1.8-0.3-2.6
				l0,0l0,0c-0.1-0.8-0.3-1.6-0.4-2.3l0,0l0,0c-2.3,0.5-3.9,1.2-4.8,2l0,0l0,0C197.1,110,196.8,110.9,197.1,112.1z"/>
			<path class="st14" d="M230.2,99.6L230.2,99.6L230.2,99.6c0.5,3.7,0.2,6.8-1.2,9.4l0,0l0,0c-1.3,2.5-3.3,4-5.9,4.4l0,0l0,0
				c-1,0.1-1.9,0.1-2.8,0l0,0l0,0c-0.9-0.2-1.7-0.5-2.6-1l0,0l0,0c-0.3-1.5-0.7-3.4-1.1-5.6l0,0l0,0c-0.4-2.2-0.7-4.5-1.1-6.9l0,0
				l0,0c-0.4-2.7-0.7-5.3-1-7.7l0,0l0,0c-0.3-2.4-0.4-4.4-0.4-5.9l0,0l0,0c0.3-0.2,0.7-0.4,1.2-0.5l0,0l0,0c0.5-0.1,1.1-0.3,1.7-0.4
				l0,0l0,0c0.2,0,0.5-0.1,0.7-0.1l0,0l0,0c0.2,0,0.6,0,1,0l0,0l0,0c0,1.4,0,2.9,0.1,4.6l0,0l0,0c0.1,1.7,0.2,3.6,0.3,5.5l0,0l0,0
				c0.5-0.9,1.1-1.6,1.8-2.2l0,0l0,0c0.7-0.5,1.6-0.9,2.5-1l0,0l0,0c1.8-0.3,3.3,0.2,4.5,1.4l0,0l0,0C229,95.1,229.8,97,230.2,99.6z
				 M220.9,110.2L220.9,110.2L220.9,110.2c0.3,0.2,0.6,0.3,1,0.4l0,0l0,0c0.3,0.1,0.7,0.1,1.1,0l0,0l0,0c1.5-0.2,2.5-1.3,3.1-3.2
				l0,0l0,0c0.5-1.9,0.6-4.4,0.1-7.6l0,0l0,0c-0.2-1.6-0.7-2.9-1.3-3.6l0,0l0,0c-0.6-0.8-1.4-1.1-2.3-0.9l0,0l0,0
				c-0.7,0.1-1.3,0.6-1.9,1.3l0,0l0,0c-0.5,0.8-0.9,1.9-1.2,3.2l0,0l0,0c0.1,1,0.2,1.9,0.4,2.9l0,0l0,0c0.1,1,0.2,1.9,0.4,2.8l0,0
				l0,0c0.2,1.5,0.4,2.5,0.5,3.2l0,0l0,0C220.7,109.2,220.8,109.7,220.9,110.2z"/>
			<path class="st14" d="M253.4,102.4L253.4,102.4L253.4,102.4c0.1,5.1-0.4,9-1.8,11.7l0,0l0,0c-1.3,2.7-3.3,4.1-5.8,4.2l0,0l0,0
				c-1.7,0-3.1-0.4-4.2-1.5l0,0l0,0c-1.1-1-1.8-2.5-2.1-4.4l0,0l0,0c0.5-0.4,1-0.7,1.6-0.9l0,0l0,0c0.6-0.3,1.2-0.5,1.8-0.6l0,0l0,0
				c0.3,1.8,0.7,3,1.2,3.8l0,0l0,0c0.5,0.7,1.1,1.1,1.9,1.1l0,0l0,0c1,0,1.8-0.9,2.4-2.5l0,0l0,0c0.6-1.7,0.9-4,0.9-7.2l0,0l0,0
				c-0.6,1-1.2,1.8-2,2.3l0,0l0,0c-0.8,0.5-1.6,0.8-2.5,0.8l0,0l0,0c-1.7,0-3.1-0.7-4.3-2.3l0,0l0,0c-1.1-1.6-1.8-3.7-1.8-6.3l0,0
				l0,0c0-1.7,0-3.3,0.2-4.8l0,0l0,0c0.2-1.5,0.6-3.5,1.3-5.9l0,0l0,0c0.6,0,1.2,0.1,1.9,0.1l0,0l0,0c0.6,0.1,1.3,0.2,1.9,0.3l0,0
				l0,0c-0.5,2.1-0.9,3.9-1.1,5.3l0,0l0,0c-0.2,1.4-0.3,3-0.2,4.7l0,0l0,0c0,1.7,0.4,3.1,0.9,4.2l0,0l0,0c0.6,1.1,1.3,1.6,2.3,1.6
				l0,0l0,0c0.7,0,1.3-0.3,1.9-1l0,0l0,0c0.6-0.6,1.1-1.6,1.5-2.8l0,0l0,0c-0.1-2.1-0.3-4.2-0.6-6.1l0,0l0,0
				c-0.3-1.9-0.7-3.6-1.2-5.1l0,0l0,0c0.5-0.3,1.1-0.6,1.9-0.7l0,0l0,0c0.8-0.2,1.6-0.2,2.3-0.2l0,0l0,0c0.4,1.5,0.8,3.5,1.1,5.8
				l0,0l0,0C253.2,98.2,253.4,100.4,253.4,102.4z"/>
			<path class="st14" d="M279.3,111.7L279.3,111.7L279.3,111.7c-1.9,0.1-4.1,0.2-6.7,0.1l0,0l0,0c-2.6-0.1-5.1-0.2-7.5-0.4l0,0l0,0
				c-0.3-4.6-0.4-9.5-0.4-14.6l0,0l0,0c0-5.1,0.2-9.5,0.5-13.1l0,0l0,0c3.4-0.3,6.2-0.5,8.6-0.5l0,0l0,0c2.4,0,4.8,0.1,7.3,0.3l0,0
				l0,0c0,0.5-0.1,1.1-0.2,1.6l0,0l0,0c-0.1,0.6-0.3,1.1-0.4,1.7l0,0l0,0c-1.9-0.2-3.8-0.3-5.6-0.3l0,0l0,0c-1.8,0-3.6,0-5.4,0l0,0
				l0,0c-0.2,1.4-0.3,2.9-0.5,4.3l0,0l0,0c-0.1,1.5-0.2,3-0.3,4.5l0,0l0,0c2-0.2,3.8-0.3,5.1-0.4l0,0l0,0c1.4-0.1,2.8-0.1,4.1,0l0,0
				l0,0c0.1,0.5,0.1,1.1,0.1,1.6l0,0l0,0c0,0.5,0,1.1-0.1,1.6l0,0l0,0c-1.9-0.1-3.6-0.1-5-0.1l0,0l0,0c-1.4,0-2.9,0.1-4.4,0.2l0,0
				l0,0c0,1.5-0.1,3.1-0.1,4.9l0,0l0,0c0,1.8,0,3.6,0.1,5.5l0,0l0,0c1.8,0.1,3.6,0.2,5.5,0.1l0,0l0,0c1.9,0,3.6-0.1,5.1-0.3l0,0l0,0
				c0.1,0.4,0.1,0.9,0.1,1.5l0,0l0,0C279.4,110.6,279.4,111.2,279.3,111.7z"/>
			<path class="st14" d="M303,103L303,103L303,103c-0.4,1.6-1.1,3.8-2.1,6.4l0,0l0,0c-1,2.6-2.1,5-3.2,7.1l0,0l0,0
				c-0.5-0.1-1-0.3-1.5-0.5l0,0l0,0c-0.5-0.2-1-0.4-1.5-0.7l0,0l0,0c0.2-0.4,0.3-0.8,0.5-1.1l0,0l0,0c0.1-0.3,0.3-0.6,0.4-0.9l0,0
				l0,0c-0.6,0.2-1.3,0.4-1.9,0.4l0,0l0,0c-0.7,0-1.4,0-2.1-0.2l0,0l0,0c-1.8-0.4-3.1-1.2-4-2.3l0,0l0,0c-0.9-1.2-1.1-2.5-0.8-4.1
				l0,0l0,0c0.4-1.6,1.3-2.7,2.9-3.3l0,0l0,0c1.6-0.5,3.7-0.5,6.4,0.1l0,0l0,0c0.4,0.1,0.9,0.2,1.2,0.3l0,0l0,0
				c0.4,0.1,0.8,0.2,1.4,0.4l0,0l0,0c0.1-0.3,0.1-0.5,0.2-0.8l0,0l0,0c0.1-0.3,0.1-0.5,0.2-0.8l0,0l0,0c0.5-2.1,0.6-3.6,0.3-4.6l0,0
				l0,0c-0.2-1-0.8-1.6-1.8-1.8l0,0l0,0c-1-0.2-2,0.1-2.8,0.8l0,0l0,0c-0.9,0.8-1.5,1.9-1.9,3.4l0,0l0,0c-0.9-0.3-1.6-0.6-2.1-1.1
				l0,0l0,0c-0.5-0.4-0.8-1-1-1.6l0,0l0,0c0.7-1.5,1.8-2.6,3.5-3.4l0,0l0,0c1.7-0.8,3.4-1,5.2-0.6l0,0l0,0c2.1,0.5,3.5,1.4,4.3,2.9
				l0,0l0,0C303.4,98.6,303.5,100.5,303,103z M290.6,108.2L290.6,108.2L290.6,108.2c-0.2,0.8-0.1,1.5,0.3,2.1l0,0l0,0
				c0.4,0.6,1.1,1,1.9,1.2l0,0l0,0c0.6,0.1,1.2,0.2,1.8,0.1l0,0l0,0c0.6-0.1,1.2-0.2,1.7-0.5l0,0l0,0c0.4-0.9,0.7-1.7,1-2.4l0,0l0,0
				c0.3-0.7,0.5-1.5,0.7-2.3l0,0l0,0c-2.2-0.6-4-0.7-5.2-0.4l0,0l0,0C291.6,106.3,290.9,107.1,290.6,108.2z"/>
			<path class="st14" d="M317.8,112.9L317.8,112.9L317.8,112.9c0.5,0.2,0.9,0.5,1.3,0.8l0,0l0,0c0.4,0.3,0.8,0.7,1.1,1.1l0,0l0,0
				c-0.7,1.9-1.7,3.3-2.8,4.2l0,0l0,0c-1.2,0.9-2.5,1.1-4,0.6l0,0l0,0c-1.7-0.6-2.7-1.9-3-3.9l0,0l0,0c-0.3-2,0.1-4.7,1.2-8l0,0l0,0
				c0.4-1.1,0.8-2.2,1.2-3.2l0,0l0,0c0.4-1,0.8-2,1.3-2.9l0,0l0,0c-0.5-0.3-1-0.5-1.4-0.7l0,0l0,0c-0.4-0.2-0.7-0.4-1.1-0.6l0,0l0,0
				c0.1-0.4,0.3-0.8,0.6-1.2l0,0l0,0c0.2-0.4,0.5-0.7,0.7-0.9l0,0l0,0c0.3,0.2,0.7,0.4,1.1,0.6l0,0l0,0c0.4,0.2,0.8,0.4,1.2,0.6l0,0
				l0,0c0.4-0.8,0.8-1.5,1.2-2.2l0,0l0,0c0.4-0.7,0.9-1.5,1.3-2.1l0,0l0,0c0.8,0.3,1.6,0.6,2.2,1l0,0l0,0c0.6,0.3,1.2,0.6,1.6,1l0,0
				l0,0c-0.4,0.5-0.8,1.1-1.2,1.8l0,0l0,0c-0.4,0.7-0.9,1.4-1.3,2.2l0,0l0,0c0.9,0.3,1.9,0.6,2.8,0.9l0,0l0,0
				c0.9,0.3,1.8,0.5,2.7,0.7l0,0l0,0c-0.1,0.3-0.3,0.7-0.5,1.1l0,0l0,0c-0.2,0.4-0.4,0.7-0.7,1.1l0,0l0,0c-0.9-0.2-1.8-0.4-2.7-0.7
				l0,0l0,0c-0.9-0.3-1.8-0.5-2.7-0.9l0,0l0,0c-0.5,1-1,2.1-1.5,3.2l0,0l0,0c-0.4,1.1-0.8,2.1-1.2,3.2l0,0l0,0
				c-0.8,2.4-1.2,4.2-1.3,5.5l0,0l0,0c-0.1,1.3,0.2,2.1,0.8,2.3l0,0l0,0c0.5,0.2,1.1-0.1,1.7-0.8l0,0l0,0
				C316.7,115.7,317.3,114.5,317.8,112.9z"/>
			<path class="st14" d="M335.6,116.7L335.6,116.7L335.6,116.7c1.2,2,1.9,3.6,2.1,4.7l0,0l0,0c0.2,1.1,0,2.2-0.5,3.3l0,0l0,0
				c-0.7,1.6-1.9,2.7-3.6,3.3l0,0l0,0c-1.6,0.6-3.3,0.5-5.1-0.3l0,0l0,0c-1.7-0.8-2.9-2-3.4-3.7l0,0l0,0c-0.6-1.7-0.4-3.4,0.4-5.3
				l0,0l0,0c0.4,0,0.9,0.1,1.5,0.2l0,0l0,0c0.5,0.1,1,0.3,1.5,0.5l0,0l0,0c-0.7,1.4-0.9,2.6-0.7,3.7l0,0l0,0
				c0.2,1.1,0.8,1.8,1.8,2.3l0,0l0,0c0.8,0.4,1.5,0.4,2.2,0.1l0,0l0,0c0.7-0.3,1.2-0.9,1.6-1.7l0,0l0,0c0.3-0.7,0.4-1.5,0.3-2.3l0,0
				l0,0c-0.2-0.8-0.7-2.1-1.7-3.7l0,0l0,0c-1.2-2-1.9-3.6-2-4.8l0,0l0,0c-0.1-1.1,0-2.3,0.5-3.4l0,0l0,0c0.7-1.5,1.7-2.6,3.2-3.1
				l0,0l0,0c1.4-0.5,3-0.4,4.7,0.4l0,0l0,0c1.6,0.7,2.7,1.7,3.3,3l0,0l0,0c0.6,1.3,0.6,2.9,0.1,4.8l0,0l0,0c-0.5,0.1-1,0-1.5-0.1
				l0,0l0,0c-0.5-0.1-1.1-0.3-1.8-0.5l0,0l0,0c0.4-1.4,0.5-2.5,0.3-3.3l0,0l0,0c-0.2-0.8-0.6-1.3-1.4-1.7l0,0l0,0
				c-0.6-0.3-1.2-0.3-1.7,0l0,0l0,0c-0.6,0.2-1,0.7-1.3,1.4l0,0l0,0c-0.3,0.7-0.4,1.5-0.2,2.3l0,0l0,0
				C334.1,113.8,334.6,115,335.6,116.7z"/>
		</g>
	</g>
</g>
</svg>
