<?xml version="1.0" encoding="UTF-8"?>
<svg xmlns="http://www.w3.org/2000/svg" xmlns:xlink="http://www.w3.org/1999/xlink" version="1.1" viewBox="0 0 500 300">
  <defs>
    <style>
      .cls-1 {
        fill: none;
      }

      .cls-2 {
        fill: #004a98;
      }

      .cls-3 {
        fill: #7296c6;
      }

      .cls-4 {
        fill: #373a3c;
      }

      .cls-5 {
        clip-path: url(#clippath);
      }
    </style>
    <clipPath id="clippath">
      <rect class="cls-1" x="34" y="41.9" width="443" height="234"/>
    </clipPath>
  </defs>
  <!-- Generator: Adobe Illustrator 28.6.0, SVG Export Plug-In . SVG Version: 1.2.0 Build 709)  -->
  <g>
    <g id="Layer_1">
      <g class="cls-5">
        <g>
          <path class="cls-3" d="M255.4,244.1c-20.7,7.6-43.4,7.9-64.4,1-21-7-39-20.8-51.2-39.4l-13.2-5.8c12.6,24.8,34.1,43.7,60.2,52.8,26.1,9.1,54.7,7.6,79.7-4.1l-11.2-4.6Z"/>
          <path class="cls-3" d="M221.8,50.5c16.1,0,32,4,46.2,11.6,14.2,7.6,26.4,18.7,35.4,32.1l10.5.8c-8.5-14.5-20.2-26.9-34.3-36-14.1-9.1-30-14.8-46.7-16.6-16.6-1.8-33.4.5-49.1,6.4-15.6,6-29.6,15.6-40.9,28.1l13.2-1.2c18-16.4,41.4-25.4,65.6-25.4Z"/>
          <path class="cls-2" d="M332.5,99.8c2,.2,4.1.4,6.1.7l4.8.6c3.7.5,7.4,1,11,1.5l3.7.5c-.9-.1-1.8-.5-2.6-.7l-2.7-.7-5.4-1.3c-3.6-.9-7.1-1.7-10.7-2.5h-.1c-3.3-.7-6.6-1.4-9.8-2-3.2-.6-6.4-1.2-9.7-1.8s-6.5-1.1-9.7-1.7c-3.2-.5-6.5-1.1-9.8-1.5s-6.5-1-9.7-1.4c-3.3-.4-6.5-.8-9.7-1.2-3.2-.4-6.4-.8-9.6-1.1-3.2-.3-6.3-.7-9.5-1-3.2-.3-6.2-.6-9.3-.9-3.1-.3-6.1-.5-9.1-.8s-5.9-.4-8.9-.7c-3-.2-5.7-.4-8.6-.6l-8.2-.5-7.9-.4c-2.5-.1-5-.2-7.5-.3-2.4,0-4.7-.2-7.1-.2-2.2,0-4.4-.1-6.6-.2-2,0-4.1,0-6.1,0h-10.5c-1.4,0-2.9,0-4.3,0-1.2,0-2.5,0-3.7,0-1,0-2,0-3,.1h-.3c-30,1.8-55.6,6.2-58.6,7.1-2.4.6-.6,2.1-.6,2.1l28.4,15c-2.8-.6-5.6-1.3-8.5-1.9-20.4-5.1-41.7-9.2-55.4-10.2-.3,0-.6,0-1,0-12.6.4-17.1,7.2-17.6,9.2-15.4,4.9-10.6,15-9.6,16.8.2-.8.4-1.5.8-2.2,17,2,37.1,10.8,42.4,14,1.9,38.8,30.3,54.6,58,66.6,115.3,49.8,183.5,72,202.6,77.6l-31.2-12.8c-15.4-6.5-38.9-16.2-66.8-27.7-4.2-1.7-8.2-3.4-12.1-5.1l29.2-4.7c-63.1-18.2-99.2-41-97.9-68,1.6-32.2,56.8-54.6,127.3-58.8h1.6s4.4-.1,4.4-.1c2.2,0,4.5,0,6.7,0h8.3c3.1,0,6.2,0,9.3.2,3.2.1,6.4.3,9.7.5,1.5.2,3.1.3,4.6.5ZM60.8,101.8c-3.7.4-7.4,1.2-10.9,2.5-.1,0-.1,0,0-.2,2.2-1.6.3-1.9,3.7-2.9,1.3-.3,4-.5,8.9.2-.5,0-1.1.2-1.6.3Z"/>
          <path class="cls-4" d="M229.7,199.4c-1.2,0-2.3-.2-3.4-.6-1.1-.3-2-.9-2.9-1.7-.8-.7-1.5-1.7-1.9-2.7-.3-.8-.4-1.6-.4-2.5,0-.4,0-.9,0-1.3l1.1-8.1c.2-1.4.6-2.7,1.3-3.8.7-1.1,1.5-2,2.6-2.7,1-.7,2.1-1.3,3.3-1.7,1.2-.3,2.4-.5,3.6-.5,1.2,0,2.3.2,3.4.5,1,.3,2,.9,2.8,1.6.8.7,1.4,1.6,1.8,2.7.3.8.4,1.6.4,2.4,0,.5,0,.9,0,1.4-.1,1.1-.5,2.1-1.1,3-.6.9-1.3,1.6-2.2,2.2-.9.6-1.9,1-3,1.2-1.2.3-2.4.4-3.6.4-1.7,0-3.4-.3-5.1-1l-.3,2.4c0,.2,0,.4,0,.6,0,.3,0,.7.2,1,.2.5.4.9.8,1.2.4.3.8.6,1.3.8.5.2,1.1.3,1.6.3h.2c.9,0,1.9-.2,2.7-.6,1-.4,1.8-1,2.5-1.9l3.3,2.5c-1.2,1.5-2.6,2.7-4.3,3.6-1.5.8-3.2,1.2-4.9,1.3ZM232,185.3c1.1,0,2.3-.2,3.2-.9.4-.3.7-.7.9-1.1.2-.4.3-.9.3-1.4,0-.4,0-.8-.2-1.1-.2-.4-.4-.7-.7-.9-.8-.7-1.9-1-3-1-.6,0-1.2,0-1.7.3-.6.2-1.1.4-1.5.8-.5.3-.9.8-1.2,1.3-.3.5-.5,1.1-.6,1.7l-.3,1.7c.5.2,1.2.3,2.1.5.9.2,1.8.3,2.8.3h0Z"/>
          <path class="cls-4" d="M269.1,174c1.1,0,2.1.2,3.1.6,1,.4,1.8,1,2.5,1.7.7.8,1.3,1.7,1.6,2.7.2.8.3,1.5.3,2.3,0,.5,0,.9,0,1.4l-2.3,16.7h-5.1l2.3-16.5c0-.3,0-.5,0-.8,0-.4,0-.7-.2-1.1-.1-.3-.3-.6-.6-.9-.3-.3-.7-.6-1.1-.8-.4-.2-.9-.3-1.3-.3-.5,0-1,.1-1.5.3-.5.2-1,.4-1.5.8-.4.3-.8.7-1.2,1.1-.3.4-.5.9-.6,1.4l-2.2,16.7h-5.1l2.3-16.9c0-.5,0-1-.2-1.4-.2-.4-.4-.8-.8-1-.4-.3-.8-.5-1.3-.7-.5-.2-1-.2-1.5-.2h-.3c-1.2,0-2.4.4-3.5,1l-2.6,19.2h-5.1l3.1-22.7c1.3-.8,2.7-1.4,4.1-1.9,1.5-.5,3-.7,4.6-.7,1.4,0,2.7.3,4,.9,1.2.5,2.1,1.4,2.6,2.6.9-1.1,2-2,3.3-2.6s2.7-.9,4.1-.9h0Z"/>
          <path class="cls-4" d="M284.6,199.4h-5.2l3.5-25.5h5.1l-3.5,25.5ZM286.7,165.5c.4,0,.8,0,1.2.2.4.2.7.4,1,.7.4.5.6,1.1.6,1.7,0,.2,0,.4,0,.6-.1.9-.6,1.7-1.3,2.3-.7.6-1.5.9-2.4.9-.4,0-.8,0-1.2-.2-.4-.2-.7-.4-1-.7-.4-.5-.6-1.1-.6-1.7,0-.2,0-.4,0-.6.1-.9.6-1.7,1.2-2.3.6-.6,1.5-.9,2.4-.9h0Z"/>
          <path class="cls-4" d="M302.7,174.1c.4,0,.8,0,1.3,0,.5,0,1,.1,1.5.2l-.7,4.6c-.6-.2-1.2-.3-1.8-.2h-.3c-.8,0-1.6.2-2.3.5-.7.3-1.4.7-1.9,1.3-.6.6-.9,1.3-1,2.1l-2.3,16.6h-5.1l2.3-16.7c.2-1.7.9-3.3,1.9-4.6.9-1.2,2.2-2.2,3.6-2.8,1-.4,2-.7,3-.8.7,0,1.3-.2,2-.2Z"/>
          <path class="cls-4" d="M313.5,199.8c-1.1,0-2.1-.2-3.1-.6-.9-.4-1.8-.9-2.5-1.7-.7-.8-1.3-1.7-1.6-2.7-.2-.7-.3-1.5-.3-2.2,0-.4,0-.9,0-1.3l1.2-8.6c.2-1.4.6-2.8,1.4-4.1.7-1.1,1.6-2,2.6-2.7,1.1-.7,2.2-1.2,3.4-1.4,1.3-.3,2.6-.4,3.9-.4,1.5,0,3.1.2,4.6.6,1.4.4,2.8.9,4.1,1.6l-3.2,23.1h-4.2l-.4-2.2c-.8.9-1.8,1.6-3,2-1,.4-2.1.6-3.2.6ZM318.5,178.6c-.7,0-1.4,0-2,.2-.7.1-1.3.4-1.9.7-.6.3-1.1.8-1.5,1.3-.4.5-.7,1.2-.8,1.9l-1.2,8.7c0,.2,0,.4,0,.6,0,.3,0,.7.2,1,.1.4.4.8.7,1.1.4.3.8.5,1.2.7.5.1,1,.2,1.6.2h.3c.8,0,1.7-.1,2.5-.4.8-.2,1.6-.6,2.3-1.1l2-14c-.5-.3-1-.5-1.5-.6-.6-.2-1.2-.2-1.9-.2h0Z"/>
          <path class="cls-4" d="M338.2,199.3h-.9c-1.1,0-2.1-.2-3.2-.5-.9-.3-1.7-.9-2.4-1.6-.7-.8-1.1-1.7-1.3-2.7-.2-.7-.2-1.4-.2-2,0-.6,0-1.2.1-1.8l3.2-22.4h4.7l-.5,6.1h4.6l-.6,4.8h-4.6l-1.7,11.4c0,.4,0,.7,0,1.1,0,.4,0,.8.2,1.2.2.5.6.9,1,1.2.5.3,1.1.5,1.6.5.6,0,1.3,0,2,0l-.6,4.5c-.5.1-.9.2-1.4.2Z"/>
          <path class="cls-4" d="M352.4,199.3c-1.2,0-2.3-.2-3.4-.6-1.1-.3-2-.9-2.9-1.7-.8-.7-1.5-1.7-1.9-2.7-.3-.8-.4-1.6-.4-2.5,0-.4,0-.9,0-1.3l1.1-8.1c.2-1.4.6-2.6,1.3-3.8.7-1,1.6-2,2.6-2.7,1-.7,2.1-1.3,3.3-1.7,1.2-.4,2.4-.5,3.6-.5,1.2,0,2.3.2,3.4.5,1,.4,2,.9,2.8,1.6.8.7,1.4,1.6,1.7,2.7.3.8.4,1.6.4,2.4,0,.5,0,.9,0,1.4-.1,1.1-.5,2.1-1.1,3-.6.9-1.3,1.6-2.2,2.2-.9.6-1.9,1-3,1.2-1.2.3-2.4.4-3.6.4-1.7,0-3.4-.3-5-1l-.3,2.4c0,.2,0,.4,0,.6,0,.3,0,.7.2,1,.2.5.4.9.8,1.2.4.3.8.6,1.3.8.5.2,1.1.3,1.6.3h.2c.9,0,1.9-.2,2.7-.6,1-.4,1.8-1,2.5-1.9l3.3,2.5c-1.2,1.5-2.6,2.7-4.3,3.6-1.5.8-3.2,1.2-4.9,1.2ZM354.6,185.3c1.1,0,2.3-.3,3.2-.9.4-.3.7-.7.9-1.1.2-.4.3-.9.3-1.4,0-.4,0-.8-.2-1.1-.2-.4-.4-.7-.6-.9-.8-.7-1.9-1-3-1-.6,0-1.2,0-1.7.3-.6.2-1.1.4-1.5.8-.5.3-.9.8-1.2,1.2-.3.5-.5,1.1-.6,1.7l-.3,1.7c.5.2,1.2.3,2.1.5.9.2,1.8.3,2.8.3Z"/>
          <path class="cls-4" d="M374.7,194.5c.9,0,1.7-.2,2.5-.7.4-.2.7-.5.9-.9.2-.4.4-.8.4-1.2,0-.4,0-.8-.2-1.1-.2-.3-.5-.6-.8-.8-.4-.2-.7-.4-1.1-.5-.4-.1-.8-.2-1.2-.3-.9-.2-1.8-.4-2.7-.7-.9-.3-1.8-.8-2.6-1.4-.8-.6-1.4-1.4-1.9-2.3-.3-.7-.5-1.5-.5-2.3,0-.4,0-.8,0-1.2.1-1.2.5-2.4,1.2-3.4.6-.9,1.3-1.7,2.2-2.2.9-.6,1.8-1,2.8-1.2,1-.2,2-.4,3.1-.4.7,0,1.4,0,2,.2.7.1,1.4.3,2.1.6.7.3,1.4.6,2,1,.6.4,1.2.9,1.8,1.5l-3.6,3.4c-.6-.6-1.3-1.1-2.1-1.3-.9-.4-1.9-.6-3-.6h-.2c-.7,0-1.3.2-1.9.5-.3.2-.6.4-.8.7-.2.3-.4.6-.4,1-.1.5,0,1,.1,1.4.2.4.5.7.9,1,.4.3.9.5,1.4.6.5.2,1,.3,1.5.4.9.2,1.9.4,2.8.7.9.3,1.7.7,2.4,1.3.7.6,1.2,1.4,1.5,2.2.3.7.4,1.4.4,2.1,0,.4,0,.8,0,1.1-.2,1.2-.6,2.3-1.2,3.3-.6.9-1.4,1.7-2.3,2.3-.9.6-1.9,1.1-2.9,1.4-1.1.3-2.2.4-3.3.4-.9,0-1.9-.1-2.8-.4-.9-.2-1.8-.6-2.6-1.1-.8-.5-1.5-1.1-2.1-1.8-.6-.8-1.1-1.6-1.4-2.5l4.2-2.5c.4,1.1,1.3,2,2.3,2.6.9.6,2,.9,3.1.9Z"/>
          <path class="cls-4" d="M408.8,174c1.2,0,2.5.1,3.7.5,1.1.3,2.1.8,2.9,1.4.8.7,1.5,1.6,1.8,2.6.3.8.4,1.6.4,2.4,0,.5,0,1.1-.1,1.6l-1.2,8.7c-.2,1.3-.6,2.5-1.3,3.6-.7,1-1.6,1.9-2.6,2.6-1,.7-2.1,1.2-3.3,1.5-1.2.3-2.4.5-3.6.5-1.4,0-2.9-.3-4.2-.8l-1.1,8.4h-5.1l4.4-31c1.5-.6,3-1.1,4.6-1.4,1.6-.3,3.2-.5,4.9-.5ZM405.1,194.8h.4c1.2,0,2.4-.3,3.5-.8.5-.3,1-.7,1.3-1.2.4-.5.6-1,.7-1.6l1.3-8.8c0-.2,0-.4,0-.7,0-.4,0-.8-.2-1.2-.2-.5-.5-.9-1-1.2-.5-.3-1-.6-1.6-.7-.6-.1-1.3-.2-1.9-.2-1.3,0-2.6.3-3.8.8l-2.1,15c.6.2,1.2.3,1.8.4.5,0,1,.1,1.5.1Z"/>
          <path class="cls-4" d="M432.4,174c1.1,0,2.3.2,3.4.5,1,.3,2,.9,2.8,1.7.8.7,1.4,1.6,1.8,2.6.3.8.4,1.6.4,2.4,0,.4,0,.8,0,1.3l-1.2,8.5c-.2,1.3-.6,2.6-1.3,3.7-.7,1-1.6,1.9-2.6,2.6-1,.7-2.1,1.2-3.3,1.6-1.1.3-2.3.5-3.5.5-1.2,0-2.3-.2-3.4-.5-1.1-.3-2-.9-2.9-1.6-.8-.7-1.4-1.6-1.8-2.6-.3-.8-.4-1.6-.4-2.5,0-.4,0-.9,0-1.3l1.2-8.5c.2-1.3.6-2.6,1.3-3.7.7-1,1.6-1.9,2.6-2.6,1-.7,2.1-1.2,3.3-1.6,1.2-.4,2.4-.5,3.6-.6ZM431.7,179.1c-.6,0-1.1,0-1.6.2-.5.1-1.1.4-1.5.6-.5.3-.9.6-1.2,1.1-.3.4-.5.9-.6,1.5l-1.1,8.3c0,.2,0,.3,0,.5,0,.3,0,.7.2,1,.2.5.5.9.8,1.2.4.3.9.6,1.4.7.5.2,1,.2,1.6.2.5,0,1,0,1.5-.2.6-.2,1.1-.4,1.6-.7.5-.3.9-.7,1.2-1.2.3-.5.5-1,.6-1.5l1.1-8.3c0-.2,0-.3,0-.5,0-.3,0-.7-.2-1-.2-.4-.5-.8-.9-1.1-.4-.3-.8-.5-1.3-.6-.5-.1-1-.2-1.5-.2Z"/>
          <path class="cls-4" d="M452.1,194.7c.9,0,1.7-.2,2.5-.7.4-.2.7-.5.9-.9.2-.4.4-.8.4-1.2,0-.4,0-.8-.2-1.1-.2-.3-.5-.6-.8-.8-.4-.2-.7-.4-1.1-.5-.4-.1-.8-.2-1.2-.3-.9-.2-1.8-.4-2.7-.7-.9-.3-1.8-.8-2.6-1.4-.8-.6-1.4-1.4-1.9-2.3-.3-.7-.5-1.5-.5-2.3,0-.4,0-.8,0-1.2.1-1.2.5-2.4,1.2-3.4.6-.9,1.3-1.7,2.2-2.2.9-.6,1.8-1,2.8-1.2,1.7-.4,3.4-.5,5.1-.2.7.1,1.4.3,2.1.6.7.3,1.4.6,2,1,.7.4,1.2.9,1.8,1.5l-3.6,3.4c-.6-.6-1.3-1.1-2.2-1.4-.9-.4-1.9-.6-2.9-.6h-.2c-.7,0-1.3.1-1.9.5-.3.2-.6.4-.8.7-.2.3-.4.6-.4,1-.1.5,0,1,.1,1.4.2.4.5.7.9,1,.4.3.9.5,1.4.6.5.2,1,.3,1.5.4.9.2,1.9.4,2.8.7.9.3,1.7.7,2.4,1.3.7.6,1.2,1.4,1.5,2.2.3.7.4,1.4.4,2.1,0,.4,0,.8-.1,1.1-.2,1.2-.6,2.3-1.2,3.3-.6.9-1.4,1.7-2.2,2.3-.9.6-1.9,1.1-3,1.4-1.1.3-2.2.4-3.3.4-.9,0-1.9-.1-2.8-.4-.9-.2-1.8-.6-2.6-1.1-.8-.5-1.5-1.1-2.1-1.8-.6-.8-1.1-1.6-1.4-2.5l4.2-2.5c.4,1.1,1.3,2,2.3,2.6.9.6,2,.9,3,.9Z"/>
          <path class="cls-4" d="M472.8,199.5h-.9c-1.1,0-2.1-.2-3.2-.5-.9-.3-1.7-.9-2.4-1.6-.7-.8-1.1-1.7-1.4-2.7-.2-.7-.2-1.3-.2-2,0-.6,0-1.2.1-1.9l3.2-22.4h4.7l-.5,6.1h4.6l-.6,4.8h-4.6l-1.7,11.4c0,.4,0,.7-.1,1.1,0,.4,0,.8.2,1.2.2.5.6.9,1,1.2.5.3,1.1.5,1.6.5.7,0,1.4.1,2,0l-.6,4.5c-.5.1-1,.2-1.4.2Z"/>
          <path class="cls-4" d="M227.7,137.4l-1.5,8.8c0,.4,0,.8,0,1.2,0,.4.2.7.5,1,.1.2.3.3.5.4.2,0,.4.2.6.2h15.2c.5,0,.9-.2,1.2-.6.3-.3.6-.6.8-1,.2-.4.4-.8.4-1.2l2.3-13.7h5.1l-2.3,13.7c-.1.8-.4,1.6-.9,2.3-.4.7-1,1.4-1.6,1.9-1.6,1.4-3.6,2.1-5.6,2.1h-15.2c-1,0-2-.2-2.9-.6-.8-.3-1.5-.9-2.1-1.6-.5-.6-.8-1.2-1-1.9-.2-.8-.2-1.6,0-2.3l1.5-8.8h5.1Z"/>
          <path class="cls-4" d="M266.9,123.2l-4.9,29.1h-5.1l4.9-29.1h5.1Z"/>
          <path class="cls-4" d="M277.5,132.5l-3.4,20c-.3,1.2-.6,2.4-1.1,3.5-.4.9-.9,1.8-1.6,2.7-.6.7-1.2,1.4-2,2-.7.5-1.5,1-2.3,1.4-.8.4-1.7.7-2.6.9-.9.2-1.8.4-2.7.4-.9.1-1.8.2-2.7.2h-2.8l.6-3.6h2.2c.7,0,1.4,0,2.1-.1.7,0,1.3-.2,1.9-.3.6-.1,1.1-.3,1.6-.5,1-.5,1.9-1.2,2.6-2.2.4-.6.7-1.2,1-1.9.3-.8.6-1.7.8-2.5l3.4-20h5.1Z"/>
          <path class="cls-4" d="M328,137.1c0-.9-.3-1.7-.7-2.6-.3-.7-.7-1.4-1.3-1.9-.5-.5-1.1-1-1.7-1.3-.6-.3-1.3-.6-1.9-.7-.6-.1-1.3-.2-1.9-.2h-.2c-.7,0-1.5,0-2.2.2-.7.2-1.5.4-2.1.7-.8.4-1.5.8-2.2,1.3-.7.5-1.3,1.2-1.9,1.9-.6.8-1.1,1.6-1.4,2.4-.4.9-.7,1.9-.9,2.9l-1.5,9.1h-21.5c-.2,0-.4,0-.6-.2-.2,0-.3-.2-.5-.4-.2-.3-.4-.6-.5-1,0-.4,0-.8,0-1.2l3.9-23h-5.1l-3.9,23.1c-.1.8-.1,1.6,0,2.3.2.7.5,1.4,1,1.9.6.7,1.3,1.2,2.1,1.6.9.4,1.9.6,2.8.6h23.7l7,2h0c.6.2,1.3.2,2,.2.5,0,1,0,1.5-.1,1.2-.2,2.3-.7,3.3-1.5.4-.3.8-.6,1.2-1,.3-.4.7-.8,1-1.2.5-.8.8-1.6,1-2.6l1.3-8.1c.2-1.1.2-2.2,0-3.2ZM322.9,140.3l-1.3,8.1c0,.4-.2.9-.4,1.3-.2.4-.4.7-.8,1-.3.2-.7.4-1.1.4h-.3c-.4,0-.9-.1-1.3-.3l-4.5-1.3,1.6-9.7c.2-1.3.7-2.6,1.4-3.7.6-.9,1.4-1.6,2.3-2,.4-.2.9-.3,1.3-.3.4,0,.8.1,1.2.3.4.2.7.5,1,.8.3.4.5.8.7,1.3.2.6.3,1.2.3,1.8,0,.8,0,1.5-.1,2.3Z"/>
          <path class="cls-4" d="M337.7,159.6l-5.6.5v-1.5s1.6,0,1.6,0c-.2-.3-.3-.5-.4-.7-.1-.2-.2-.3-.2-.5,0,0,0-.2,0-.3,0,0,0-.2,0-.2,0-.3.2-.5.4-.7.2-.4.5-.7.9-.8.4-.2.8-.3,1.3-.3.2,0,.4,0,.7,0h.4c.4,0,.7,0,1,.1l-.6,1.4c-.2,0-.5,0-.7-.1-.1,0-.2,0-.4,0-.1,0-.2,0-.4,0-.4,0-.7.1-.8.3,0,0,0,.1,0,.2,0,.1,0,.2,0,.3,0,.2.2.4.4.6.2.2.3.4.4.6l1.9-.2v1.5ZM342.7,123.2l-4.3,25.8h5.8c.5,0,.9-.2,1.2-.6.3-.3.6-.6.8-1,.2-.4.4-.8.5-1.2l3.9-23h5.1l-3.9,23c-.1.8-.4,1.6-.9,2.3-.4.7-1,1.4-1.6,1.9-.8.7-1.7,1.2-2.6,1.6-1,.4-2,.6-3.1.6h-14.4l.6-3.6h3.6l4.3-25.8h5.1Z"/>
          <path class="cls-4" d="M364.6,123.2l-4.9,29.1h-5l4.9-29.1h5Z"/>
          <path class="cls-4" d="M402.2,132.5l-2.3,13.8c0,.4-.2.9-.5,1.2-.2.4-.5.7-.8,1-.3.3-.8.5-1.2.6h-8.3c.3-1.1.5-2.2.7-3.2.2-.9.3-1.9.3-2.8.1-1.5,0-3.1-.1-4.6-.2-1.2-.5-2.3-1-3.3-.4-.8-1-1.6-1.6-2.3-.6-.6-1.3-1.1-2-1.4-.7-.3-1.4-.6-2.1-.8-.6-.2-1.3-.3-2-.3h-1.5c0,0,0,0,0,0h0s0,0,0,0l-2,3.4c.7,0,1.5.1,2.3.3.7.1,1.5.3,2.1.6.7.3,1.3.8,1.7,1.4.6.8.9,1.7,1.1,2.6.2,1.4.3,2.8.2,4.1,0,1-.2,2-.4,3-.2,1-.4,2.1-.7,3.2h-11.5l-.6,3.6h24.9c1,0,2.1-.2,3.1-.5.9-.4,1.8-.9,2.6-1.6.6-.5,1.2-1.2,1.6-1.9.4-.7.7-1.5.9-2.3l2.3-13.8h-5.1Z"/>
          <path class="cls-4" d="M431.2,132.5l-2.3,13.8c0,.4-.2.9-.4,1.2-.2.4-.5.7-.8,1-.3.3-.8.5-1.2.6h-8.5l2.8-16.6h-5.1l-3.4,20c-.2.9-.4,1.7-.8,2.5-.3.7-.6,1.3-1,1.9-.3.5-.7.9-1.2,1.3-.4.3-.9.6-1.4.8-.5.2-1.1.4-1.6.5-.6.1-1.2.2-1.9.3-.7,0-1.4,0-2.1.1h-2.2l-.6,3.6h2.8c.9,0,1.8,0,2.7-.2.9,0,1.8-.2,2.6-.4.9-.2,1.7-.5,2.6-.9.8-.4,1.6-.8,2.3-1.4.8-.6,1.4-1.2,2-1.9.6-.8,1.2-1.7,1.6-2.6.5-1.1.9-2.3,1.1-3.4h8.5c1,0,2.1-.2,3.1-.6.9-.4,1.8-.9,2.6-1.6.6-.5,1.2-1.2,1.6-1.9.4-.7.7-1.5.9-2.3l2.3-13.7h-5.1Z"/>
          <path class="cls-4" d="M232,125.9c0-.4.2-.7.4-1,.2-.3.4-.6.7-.8.3-.2.6-.4.9-.6.3-.1.6-.2,1-.2.3,0,.6,0,.9.2.3.1.5.3.7.6.2.2.3.5.4.8,0,.3,0,.7,0,1-.1.7-.5,1.3-1,1.8-.3.2-.6.4-.9.5-.3.1-.7.2-1,.2-.5,0-.9-.1-1.3-.4-.4-.3-.6-.7-.7-1.1,0-.3,0-.7,0-1Z"/>
          <path class="cls-4" d="M238.6,125.9c0-.4.2-.7.4-1,.2-.3.4-.6.7-.8.3-.2.6-.4.9-.6.3-.1.7-.2,1-.2.3,0,.6,0,.9.2.3.1.5.3.7.6.2.2.3.5.4.8,0,.3,0,.7,0,1,0,.4-.2.7-.4,1-.2.3-.4.6-.7.8-.3.2-.6.4-.9.5-.3.1-.6.2-1,.2-.3,0-.7,0-1-.2-.3-.1-.5-.3-.7-.5-.2-.2-.3-.5-.4-.8,0-.3,0-.7,0-1Z"/>
          <path class="cls-4" d="M381.8,161.9c0-.4.2-.7.4-1,.2-.3.4-.6.7-.8.3-.2.6-.4.9-.6.3-.1.6-.2,1-.2.3,0,.6,0,.9.2.3.1.5.3.7.6.2.2.3.5.4.8,0,.3,0,.7,0,1,0,.4-.2.7-.4,1-.2.3-.4.6-.7.8-.3.2-.6.4-.9.5-.3.1-.7.2-1,.2-.5,0-.9-.1-1.3-.4-.4-.3-.6-.7-.7-1.1,0-.3,0-.7,0-1Z"/>
          <path class="cls-4" d="M388.4,161.9c0-.4.2-.7.4-1,.2-.3.4-.6.7-.8.3-.2.6-.4.9-.6.3-.1.7-.2,1-.2.3,0,.6,0,.9.2.3.1.5.3.7.6.2.2.3.5.4.8,0,.3,0,.7,0,1,0,.4-.2.7-.4,1-.4.6-.9,1.1-1.5,1.3-.3.1-.6.2-1,.2-.3,0-.6,0-.9-.2-.3-.1-.5-.3-.7-.5-.2-.2-.3-.5-.4-.8,0-.3,0-.6,0-1Z"/>
          <path class="cls-4" d="M420.4,161.9c0-.4.2-.7.4-1,.2-.3.4-.6.7-.8.3-.2.6-.4.9-.6.3-.1.7-.2,1-.2.3,0,.6,0,.9.2.3.1.5.3.7.6.2.2.3.5.4.8,0,.3,0,.7,0,1,0,.4-.2.7-.4,1-.2.3-.4.6-.7.8-.3.2-.6.4-.9.5-.3.1-.6.2-1,.2-.3,0-.6,0-.9-.2-.3-.1-.5-.3-.7-.5-.2-.2-.3-.5-.4-.8,0-.3,0-.7,0-1Z"/>
        </g>
      </g>
    </g>
  </g>
</svg>