<?xml version="1.0" encoding="UTF-8"?>
<svg id="Layer_1" data-name="Layer 1" xmlns="http://www.w3.org/2000/svg" viewBox="0 0 200 200">
  <defs>
    <style>
      .cls-1 {
        fill: #1d252c;
      }

      .cls-2 {
        fill: #db0032;
      }
    </style>
  </defs>
  <path class="cls-2" d="M166.3,74.75v-3.82c4.88-1.14,8.55-5.5,8.55-10.72,0-6.05-4.96-11.01-11.04-11.01s-11.01,4.96-11.01,11.01c0,5.02,3.36,9.21,7.96,10.52v4.02c0,2.74-2.25,4.99-4.99,4.99h-30.8v5.53h30.8c5.79,0,10.52-4.73,10.52-10.52Z"/>
  <path class="cls-2" d="M145.28,48.95v-3.82c4.88-1.14,8.55-5.5,8.55-10.72,0-6.05-4.96-10.98-11.04-10.98s-11.01,4.93-11.01,10.98c0,5.02,3.36,9.21,7.96,10.52v4.02c0,2.74-2.25,4.99-4.99,4.99h-9.78v5.53h9.78c5.79,0,10.52-4.73,10.52-10.52Z"/>
  <path class="cls-2" d="M166.3,144.04v-3.82c0-5.79-4.73-10.49-10.49-10.49h-30.8v5.53h30.8c2.74,0,4.99,2.25,4.99,4.99v4.02c-4.59,1.34-7.96,5.53-7.96,10.52,0,6.05,4.96,11.01,11.01,11.01s11.04-4.96,11.04-11.01c-.06-5.25-3.74-9.61-8.58-10.75h0Z"/>
  <path class="cls-2" d="M140.63,162.46v-3.82c0-5.82-4.7-10.49-10.49-10.49h-5.13v5.53h5.13c2.74,0,4.99,2.22,4.99,4.99v3.99c-4.56,1.37-7.93,5.53-7.93,10.55,0,6.04,4.93,10.98,10.98,10.98s11.04-4.93,11.04-10.98c-.06-5.25-3.71-9.61-8.58-10.75Z"/>
  <path class="cls-2" d="M163.5,118.49c6.07,0,11.04-4.96,11.04-11.04s-4.96-10.98-11.04-10.98c-5.08,0-9.38,3.51-10.58,8.24h-27.92v5.53h27.92c1.23,4.73,5.47,8.24,10.58,8.24Z"/>
  <path class="cls-1" d="M95.35,15.81c-13.17,0-23.87,10.69-23.87,24.09,0,1.37.23,2.74.46,4.08-2.51-.91-5.22-1.37-8.18-1.37-13.17,0-23.87,10.69-23.87,24.09,0,1.43.14,2.79.4,4.16.03.03.09.06.11.09,4.05,4.28,9.55,6.62,15.48,6.62,1.54,0,2.77,1.23,2.77,2.77s-1.23,2.77-2.77,2.77c-6.16,0-11.95-2.05-16.68-5.79-8.33,3.71-14.09,12.03-14.09,21.7,0,11.15,7.73,20.67,18.19,23.18-2.28,3.65-3.42,7.73-3.42,12.26,0,12.95,10.69,23.87,23.87,23.87,1.2,0,2.4-.11,3.59-.29,2.77-8.38,9.47-14.83,17.99-17.19-3.39-3.25-5.9-7.41-7.19-12.09-2.48,2.05-5.5,3.54-8.92,4.19-.17.03-.34.06-.51.06-1.31,0-2.45-.91-2.71-2.25-.29-1.51.68-2.94,2.2-3.25,3.91-.74,7.1-3.02,9.15-6.07.11-.43.31-.8.63-1.11,1.51-2.74,2.17-5.99,1.6-9.38-.26-1.51.77-2.94,2.28-3.19,1.51-.26,2.94.77,3.19,2.28.8,4.73-.09,9.3-2.22,13.15.77,11.04,9.89,19.53,21.19,19.53,1.54,0,2.77,1.23,2.77,2.77s-1.23,2.77-2.77,2.77c-4.39,0-8.53-1.03-12.18-2.85-10.04.34-18.11,7.56-19.93,17.14,2,11.18,11.72,19.67,23.47,19.67,13.17,0,24.09-10.69,24.09-23.87v-60.91c-.68.06-1.37.14-2.02.14-3.65,0-7.24-.97-10.49-2.82-3.82-2.22-6.79-5.53-8.58-9.52-3.19,1.85-6.79,2.82-10.55,2.82-.37,0-.74,0-1.11-.03-1.54-.09-2.71-1.37-2.62-2.91.09-1.54,1.4-2.68,2.91-2.62,4.13.2,8.13-1.2,11.21-3.93,3.11-2.77,4.93-6.62,5.13-10.81.09-1.54,1.43-2.71,2.91-2.62,1.51.09,2.71,1.37,2.62,2.91-.26,5.19-2.37,9.95-5.9,13.6,1.23,3.51,3.56,6.44,6.79,8.3,2.97,1.71,6.36,2.34,9.75,1.88v-51.9c-.06-13.43-10.98-24.09-24.15-24.09h0Z"/>
</svg>