<?xml version="1.0" encoding="UTF-8"?>
<svg id="Layer_1" data-name="Layer 1" xmlns="http://www.w3.org/2000/svg" viewBox="0 0 200 200">
  <defs>
    <style>
      .cls-1 {
        fill: #1d252c;
      }

      .cls-2 {
        fill: #e3e3e4;
      }

      .cls-2, .cls-3 {
        fill-rule: evenodd;
      }

      .cls-3 {
        fill: #db0032;
      }
    </style>
  </defs>
  <circle class="cls-1" cx="100" cy="100" r="85.2"/>
  <polygon class="cls-3" points="109.6 94.46 109.6 105.54 100 111.07 90.4 105.54 90.4 94.46 100 88.92 109.6 94.46"/>
  <path class="cls-2" d="M127.67,94.24h0c-1.54-.89-3.3-1.09-4.91-.69l-2.9-5.02-2.89-5.01c2.96-3.09,2.27-8.19-1.48-10.35-3.75-2.17-8.5-.23-9.71,3.89h-11.59c-1.62-5.57-9.2-6.54-12.14-1.46-1.51,2.62-1.04,5.84.96,7.92l-5.79,10.04c-2.8-.69-5.83.5-7.34,3.13-2.94,5.07,1.7,11.16,7.34,9.77l2.9,5.02,2.9,5.01c-2.97,3.09-2.28,8.19,1.47,10.35,3.75,2.17,8.5.23,9.71-3.89h11.59c1.63,5.56,9.21,6.54,12.14,1.46,1.51-2.62,1.04-5.84-.96-7.92l5.79-10.04c2.8.69,5.83-.5,7.34-3.13,1.84-3.18.74-7.24-2.43-9.08ZM113.77,114.64c-3.42-.84-6.96,1.14-7.97,4.59h-11.59c-.99-3.42-4.51-5.44-7.97-4.59l-2.89-5.02-2.89-5.02c2.47-2.58,2.42-6.68,0-9.2l5.78-10.04c3.43.84,6.96-1.14,7.97-4.59h11.59c.99,3.42,4.51,5.44,7.97,4.59l2.9,5.02h0l2.9,5.01c-2.48,2.58-2.43,6.68,0,9.2h0l-5.79,10.04Z"/>
  <path class="cls-2" d="M114.91,79.95c.5-1.32,0-2.85-1.27-3.58-1.28-.74-2.88-.4-3.77.73-1.36,1.75-.35,4.35,1.84,4.7,1.39.23,2.73-.58,3.21-1.85h0Z"/>
  <path class="cls-2" d="M124.83,97.1c-2.27-.37-3.99,1.87-3.21,3.92.87,2.33,4.06,2.54,5.28.43,1.03-1.78-.07-4.03-2.06-4.35h0Z"/>
  <path class="cls-2" d="M114.91,120.04c-.84-2.18-3.78-2.54-5.13-.65-1,1.42-.54,3.38.93,4.23,2.4,1.39,5.17-1.05,4.2-3.58h0Z"/>
  <path class="cls-2" d="M90.13,122.89c1.36-1.75.35-4.35-1.84-4.7-1.39-.23-2.73.58-3.21,1.85-.5,1.32,0,2.84,1.27,3.58,1.28.74,2.88.39,3.77-.73h0Z"/>
  <path class="cls-2" d="M75.18,102.88c2.26.37,3.98-1.87,3.21-3.92-.87-2.33-4.06-2.54-5.28-.43-1.02,1.78.07,4.03,2.07,4.35h0Z"/>
  <path class="cls-2" d="M85.08,79.95c.84,2.18,3.78,2.54,5.13.65,1-1.42.54-3.38-.93-4.23-2.4-1.39-5.17,1.04-4.2,3.58h0Z"/>
  <path class="cls-3" d="M163.75,107.97v-15.93l-14.89-5.76c-1.1-3.92-2.66-7.63-4.61-11.11l6.46-14.61-11.26-11.27-14.62,6.46c-3.46-1.95-7.18-3.5-11.1-4.6l-5.77-14.9h-15.92l-5.77,14.9c-3.91,1.1-7.63,2.65-11.1,4.6l-14.61-6.46-11.27,11.27,6.46,14.61c-1.95,3.47-3.51,7.19-4.6,11.11l-14.9,5.76v15.93l14.9,5.76c1.09,3.92,2.65,7.63,4.6,11.1l-6.46,14.62,11.27,11.27,14.61-6.46c3.47,1.95,7.19,3.5,11.1,4.6l5.77,14.9h15.92l5.77-14.9c3.91-1.1,7.63-2.65,11.1-4.6l14.62,6.46,11.26-11.27-6.46-14.61c1.95-3.47,3.51-7.19,4.61-11.11l14.89-5.76ZM100,139.89c-22.03,0-39.9-17.87-39.9-39.9s17.86-39.9,39.9-39.9,39.89,17.86,39.89,39.9-17.86,39.9-39.89,39.9Z"/>
</svg>