<?xml version="1.0" encoding="UTF-8"?>
<svg id="Layer_1" data-name="Layer 1" xmlns="http://www.w3.org/2000/svg" viewBox="0 0 200 200">
  <defs>
    <style>
      .cls-1 {
        fill: #1d252c;
      }

      .cls-2 {
        fill: #e3e3e4;
      }

      .cls-3 {
        fill: #db0032;
      }
    </style>
  </defs>
  <rect class="cls-1" x="50.15" y="15.14" width="99.72" height="169.7" rx="27.64" ry="27.64"/>
  <circle class="cls-3" cx="100.01" cy="171.1" r="4.08"/>
  <path class="cls-3" d="M122.23,185.5h-44.45c-15.6,0-28.3-12.69-28.3-28.3V42.78c0-15.6,12.69-28.3,28.3-28.3h44.45c15.6,0,28.29,12.69,28.29,28.3v114.43c0,15.6-12.69,28.3-28.29,28.3h0ZM77.79,15.8c-14.88,0-26.98,12.1-26.98,26.98v114.43c0,14.88,12.1,26.98,26.98,26.98h44.45c14.88,0,26.98-12.1,26.98-26.98V42.78c0-14.88-12.1-26.98-26.98-26.98h-44.45Z"/>
  <path class="cls-2" d="M100,151.52l-3.31.27c-.49.04-.93.32-1.18.75-.52.92-1.06,1.86-1.61,2.84-.38.67-1.17,1.01-1.91.81l-2-.52-1.64-.43c-.75-.2-1.26-.87-1.26-1.64v-3.57c0-.44-.19-.85-.52-1.13l-2.68-2.31c-.39-.34-.94-.45-1.43-.3l-4.23,1.32c-.68.21-1.41-.08-1.76-.7l-1.84-3.28c-.34-.61-.22-1.37.3-1.85l3.25-2.98c.31-.28.49-.69.49-1.1v-3.49c0-.54-.29-1.04-.76-1.31l-4.15-2.34c-.58-.33-.89-1.05-.69-1.72l.98-3.29c.19-.64.78-1.07,1.43-1.07h4.88c.46,0,.89-.21,1.17-.56l2.2-2.76c.31-.39.41-.91.26-1.38l-1.33-4.26c-.21-.69.09-1.43.72-1.77l3.36-1.83c.61-.33,1.36-.21,1.83.31l3,3.3c.29.31.69.5,1.12.5h3.39c.53,0,1.02-.28,1.29-.74l2.45-4.18c.35-.6,1.07-.88,1.74-.67l3.48,1.08c.63.19,1.06.78,1.06,1.43v4.92c0,.44.2.86.54,1.15l2.46,2.05c.38.32.9.43,1.38.28l4.32-1.27c.67-.2,1.38.1,1.73.7l1.86,3.28c.35.61.22,1.38-.3,1.86l-3.19,2.92c-.31.28-.49.69-.49,1.1v3.53c0,.53.28,1.02.74,1.29l4.11,2.42c.57.34.86,1.06.66,1.71l-1.06,3.47c-.19.63-.78,1.06-1.43,1.06h-4.93c-.44,0-.85.19-1.13.52l-2.12,2.45c-.33.38-.44.92-.29,1.4l1.33,4.31c.21.67-.08,1.4-.69,1.74l-3.27,1.85c-.58.33-1.34.21-1.81-.28l-3.25-3.43c-.32-.33-.77-.51-1.23-.47h0ZM96.37,121.58c-6.63.04-12.13,5.56-12.15,12.22-.02,6.65,5.41,12.16,12.1,12.27,6.84.11,12.52-5.59,12.41-12.46-.1-6.61-5.71-12.05-12.36-12.03Z"/>
  <path class="cls-3" d="M116.64,122.04l-1.98.32c-.3.04-.55.24-.67.5-.27.58-.55,1.18-.84,1.79-.2.42-.66.67-1.12.58l-1.23-.22-1.01-.18c-.46-.08-.81-.47-.84-.93l-.17-2.15c-.02-.27-.16-.5-.37-.66l-1.72-1.26c-.25-.18-.58-.23-.88-.11l-2.48,1c-.4.16-.86.02-1.09-.34l-1.26-1.89c-.24-.35-.2-.82.09-1.13l1.82-1.95c.17-.18.26-.44.24-.69l-.16-2.1c-.02-.33-.22-.61-.52-.75l-2.61-1.21c-.37-.17-.58-.59-.5-1.01l.44-2.03c.08-.39.41-.68.81-.71l2.93-.23c.27-.02.52-.17.68-.39l1.2-1.77c.17-.25.21-.56.09-.84l-1-2.51c-.16-.41-.01-.86.35-1.1l1.94-1.26c.35-.23.81-.18,1.12.1l1.97,1.85c.18.18.44.27.69.24l2.04-.16c.32-.02.61-.21.75-.51l1.28-2.63c.18-.38.61-.58,1.01-.49l2.15.49c.38.09.67.41.7.81l.23,2.96c.02.27.16.51.38.67l1.58,1.12c.24.18.56.21.84.1l2.54-.97c.39-.15.84,0,1.07.34l1.27,1.89c.24.35.2.83-.09,1.14l-1.78,1.91c-.17.18-.26.44-.24.69l.17,2.13c.02.32.21.6.5.74l2.59,1.27c.36.18.57.6.47,1.01l-.47,2.14c-.09.39-.41.67-.81.71l-2.97.24c-.26.02-.5.16-.66.37l-1.16,1.58c-.18.24-.22.57-.1.86l1.01,2.54c.16.4.01.85-.33,1.09l-1.88,1.26c-.33.22-.8.19-1.1-.08l-2.12-1.91c-.21-.18-.49-.27-.76-.22h0ZM113.04,104.16c-4,.33-7.04,3.92-6.74,7.94.3,4.01,3.84,7.07,7.87,6.82,4.12-.26,7.28-3.96,6.89-8.09-.38-3.98-4.01-7-8.02-6.66h0Z"/>
  <rect class="cls-3" x="64.47" y="64.79" width="20.31" height="20.31" rx="6.65" ry="6.65"/>
  <rect class="cls-2" x="88.62" y="64.79" width="20.31" height="20.31" rx="6.65" ry="6.65"/>
  <rect class="cls-3" x="115.23" y="64.79" width="20.31" height="20.31" rx="6.65" ry="6.65"/>
</svg>