<?xml version="1.0" encoding="UTF-8"?>
<svg id="Layer_1" data-name="Layer 1" xmlns="http://www.w3.org/2000/svg" viewBox="0 0 200 200">
  <defs>
    <style>
      .cls-1 {
        fill: #db0032;
      }

      .cls-1, .cls-2, .cls-3, .cls-4 {
        stroke-width: 0px;
      }

      .cls-2 {
        fill: #e3e3e4;
      }

      .cls-3 {
        fill: #f2f3f5;
      }

      .cls-4 {
        fill: #1d252c;
      }
    </style>
  </defs>
  <rect class="cls-1" x="37.36" y="54.98" width="122.81" height="87.48"/>
  <g>
    <path class="cls-2" d="M86.02,93.28c-.93-1.02-2.51-1.08-3.52-.15l-17.08,15.66c-.52.47-.81,1.14-.81,1.84s.29,1.37.81,1.84l17.08,15.66c.48.44,1.08.66,1.68.66.67,0,1.35-.27,1.84-.81.93-1.02.86-2.59-.15-3.52l-15.08-13.82,15.08-13.82c1.02-.93,1.08-2.51.15-3.52Z"/>
    <path class="cls-2" d="M117.5,93.13c-1.01-.93-2.59-.86-3.52.15-.93,1.02-.86,2.59.15,3.52l15.08,13.82-15.08,13.82c-1.01.93-1.08,2.51-.15,3.52.49.54,1.16.81,1.84.81.6,0,1.21-.22,1.68-.66l17.08-15.66c.52-.47.81-1.14.81-1.84s-.29-1.37-.81-1.84l-17.08-15.66Z"/>
    <path class="cls-2" d="M105.28,92.58c-1.32-.38-2.71.37-3.09,1.69l-9.16,31.32c-.39,1.32.37,2.71,1.69,3.09.23.07.47.1.7.1,1.08,0,2.07-.71,2.39-1.79l9.16-31.32c.39-1.32-.37-2.71-1.69-3.09Z"/>
    <path class="cls-4" d="M156.76,52.56H43.24c-4.63,0-8.39,3.76-8.39,8.39v78.11c0,4.63,3.76,8.39,8.39,8.39h113.52c4.63,0,8.39-3.76,8.39-8.39V60.95c0-4.63-3.76-8.39-8.39-8.39ZM160.16,139.05c0,1.88-1.53,3.4-3.4,3.4H43.24c-1.88,0-3.4-1.53-3.4-3.4V60.95c0-1.88,1.53-3.4,3.4-3.4h113.52c1.88,0,3.4,1.53,3.4,3.4v78.11Z"/>
    <path class="cls-4" d="M151.42,74.42H48.58c-1.38,0-2.49,1.12-2.49,2.49s1.12,2.49,2.49,2.49h102.84c1.38,0,2.49-1.12,2.49-2.49s-1.12-2.49-2.49-2.49Z"/>
    <path class="cls-4" d="M124.36,68.92c1.38,0,2.49-1.12,2.49-2.49s-1.12-2.49-2.49-2.49-2.49,1.12-2.49,2.49,1.12,2.49,2.49,2.49Z"/>
    <path class="cls-4" d="M137,68.92c1.38,0,2.49-1.12,2.49-2.49s-1.12-2.49-2.49-2.49-2.49,1.12-2.49,2.49,1.12,2.49,2.49,2.49Z"/>
    <path class="cls-3" d="M149.64,68.92c1.38,0,2.49-1.12,2.49-2.49s-1.12-2.49-2.49-2.49-2.49,1.12-2.49,2.49,1.12,2.49,2.49,2.49Z"/>
  </g>
  <g>
    <g>
      <path class="cls-1" d="M192.31,99.9l-3.19-1.64c-.17-1.64-.53-3.25-1.09-4.79l2.19-2.91c.63-.84.61-2-.04-2.81l-4.37-5.45c-.44-.55-1.09-.86-1.79-.86-.33,0-.65.07-.95.21l-3.37,1.53c-1.27-.79-2.64-1.44-4.05-1.93l-.9-3.52c-.26-1.02-1.17-1.73-2.22-1.73h-3.48v4.59h1.7s.78,3.04.78,3.04c.2.8.83,1.43,1.62,1.65,1.8.49,3.48,1.29,5,2.39.65.46,1.56.56,2.29.23l2.91-1.32,2.14,2.67-1.89,2.51c-.5.66-.6,1.55-.27,2.3.8,1.81,1.24,3.75,1.31,5.74.03.83.5,1.58,1.24,1.96l2.75,1.42-.77,3.34-3.14.07c-.82.02-1.57.48-1.96,1.2-.89,1.63-2.05,3.09-3.46,4.32-.62.54-.9,1.37-.74,2.17l.62,3.12-3.09,1.48-2-2.4c-.53-.63-1.37-.94-2.18-.79-.93.17-1.9.26-2.86.26v4.59c.79,0,1.58-.05,2.35-.14l2.32,2.78c.44.52,1.08.82,1.76.82.34,0,.68-.08.99-.22l6.31-3.01c.95-.45,1.47-1.49,1.26-2.52l-.72-3.62c1.06-1.05,2-2.23,2.8-3.49l3.65-.09c1.05-.03,1.95-.76,2.18-1.78l1.57-6.81c.24-1.02-.25-2.07-1.19-2.55Z"/>
      <path class="cls-1" d="M180.5,100.37c0-6.32-5.14-11.46-11.46-11.46h0v4.29h0c3.95,0,7.17,3.21,7.17,7.17s-3.21,7.16-7.17,7.16h0v4.29h0c6.32,0,11.46-5.14,11.46-11.46Z"/>
    </g>
    <g>
      <path class="cls-4" d="M7.69,99.9l3.19-1.64c.17-1.64.53-3.25,1.09-4.79l-2.19-2.91c-.63-.84-.61-2,.04-2.81l4.37-5.45c.44-.55,1.09-.86,1.79-.86.33,0,.65.07.95.21l3.37,1.53c1.27-.79,2.64-1.44,4.05-1.93l.9-3.52c.26-1.02,1.17-1.73,2.22-1.73h3.48v4.59h-1.7s-.78,3.04-.78,3.04c-.2.8-.83,1.43-1.62,1.65-1.8.49-3.48,1.29-5,2.39-.65.46-1.56.56-2.29.23l-2.91-1.32-2.14,2.67,1.89,2.51c.5.66.6,1.55.27,2.3-.8,1.81-1.24,3.75-1.31,5.74-.03.83-.5,1.58-1.24,1.96l-2.75,1.42.77,3.34,3.14.07c.82.02,1.57.48,1.96,1.2.89,1.63,2.05,3.09,3.46,4.32.62.54.9,1.37.74,2.17l-.62,3.13,3.09,1.48,2-2.4c.53-.63,1.37-.94,2.18-.79.93.17,1.9.26,2.86.26v4.59c-.79,0-1.58-.05-2.35-.14l-2.32,2.78c-.44.52-1.08.82-1.76.82-.34,0-.68-.08-.99-.22l-6.31-3.01c-.95-.45-1.47-1.49-1.26-2.52l.72-3.62c-1.06-1.05-2-2.23-2.8-3.49l-3.65-.09c-1.05-.03-1.95-.76-2.18-1.78l-1.57-6.81c-.24-1.02.25-2.07,1.19-2.55Z"/>
      <path class="cls-4" d="M19.5,100.37c0-6.32,5.14-11.46,11.46-11.46h0v4.29h0c-3.95,0-7.17,3.21-7.17,7.17s3.21,7.17,7.17,7.17h0v4.29h0c-6.32,0-11.46-5.14-11.46-11.46Z"/>
    </g>
  </g>
</svg>