<?xml version="1.0" encoding="utf-8"?>
<!-- Generator: Adobe Illustrator 28.0.0, SVG Export Plug-In . SVG Version: 6.00 Build 0)  -->
<svg version="1.1" id="Layer_1" xmlns="http://www.w3.org/2000/svg" xmlns:xlink="http://www.w3.org/1999/xlink" x="0px" y="0px"
	 viewBox="0 0 500 300" style="enable-background:new 0 0 500 300;" xml:space="preserve">
<style type="text/css">
	.st0{fill:#EC7620;}
	.st1{fill-rule:evenodd;clip-rule:evenodd;fill:#350600;}
	.st2{fill:#350600;}
	.st3{fill:#F88D2A;}
	.st4{fill:#FFC629;}
	.st5{fill:#42A7C6;}
	.st6{fill:#AD8B80;}
	.st7{fill:#404041;}
	.st8{fill:#E20613;}
	.st9{fill:#007A8A;}
	.st10{fill:#A0002D;}
	.st11{fill:#0380C3;}
	.st12{fill:#FFFCE7;}
	.st13{fill:#DAC094;}
	.st14{fill:#692525;}
	.st15{fill:#699043;}
	.st16{fill:#70715B;}
	.st17{fill:#C1E7F6;}
	.st18{clip-path:url(#SVGID_00000169545647616689703380000004097000111854739118_);fill:#C1E7F6;}
	.st19{clip-path:url(#SVGID_00000169545647616689703380000004097000111854739118_);fill:#7CD1EE;}
	.st20{fill:#7CD1EE;}
	.st21{fill:#92A1C6;}
	.st22{filter:url(#Adobe_OpacityMaskFilter);}
	
		.st23{clip-path:url(#SVGID_00000127012083847151140220000017592907459301703046_);fill:url(#SVGID_00000069379139460258218650000014523195525482602159_);}
	
		.st24{clip-path:url(#SVGID_00000127012083847151140220000017592907459301703046_);mask:url(#SVGID_00000042004069427252731090000016642897735905452961_);fill:url(#SVGID_00000182508847839070346320000012525447721129936794_);}
	.st25{clip-path:url(#SVGID_00000061429325255411713530000004246674217060675994_);fill:#604693;}
	.st26{fill:#00B2E3;}
	.st27{fill:#F5911E;}
	.st28{fill:#B12B26;}
	.st29{fill:#ED4036;}
	.st30{fill:#6D6E70;}
	.st31{fill:#121921;}
	.st32{fill:#0381C4;}
	.st33{fill:#A2732A;}
	.st34{fill:#513A16;}
	.st35{fill:#B99664;}
	.st36{fill:none;stroke:#B99664;stroke-width:1.2826;stroke-miterlimit:10;}
	.st37{fill:#8F9191;}
	.st38{fill:none;}
	.st39{fill:url(#SVGID_00000003080365665835700570000018095082791736044960_);}
	.st40{fill:url(#SVGID_00000178204847929307369090000015827308500825746315_);}
	.st41{fill:url(#SVGID_00000170974590916711212610000010372547988891549571_);}
	.st42{fill:#1A1A1A;}
	.st43{fill:url(#SVGID_00000031924174799233046700000016219000398556003762_);}
	.st44{fill:url(#SVGID_00000094584588077509750210000003527743192851004850_);}
	.st45{fill:url(#SVGID_00000181774579151242673100000014674384714707872951_);}
	.st46{fill:url(#SVGID_00000181798880475587503450000004924845523525097617_);}
	.st47{opacity:0.6;fill:url(#SVGID_00000054235534478671287750000013452963180987479430_);}
	.st48{fill:url(#SVGID_00000152239252184139457190000005501839539800410541_);}
	.st49{opacity:0.6;fill:url(#SVGID_00000038406611309451360880000002633270609411572130_);}
	.st50{fill:url(#SVGID_00000170261270115224472360000006909077593012509592_);}
	.st51{opacity:0.6;fill:url(#SVGID_00000016766503196152751150000012080779849740067464_);}
	.st52{fill:url(#SVGID_00000055702756034472894310000004334335851847430827_);}
	.st53{opacity:0.6;fill:url(#SVGID_00000092424409906555656810000018071386411815879820_);}
	.st54{fill:url(#SVGID_00000060728943261722187280000015634616839994441862_);}
	.st55{fill:url(#SVGID_00000024724655345433565870000013146134801784187308_);}
	.st56{opacity:0.6;fill:url(#SVGID_00000049911521104498455600000015696336666850172566_);}
	.st57{fill:url(#SVGID_00000024687798716866230400000001779734821632753324_);}
	.st58{fill:url(#SVGID_00000031890344693750584510000009387438143909248650_);}
	.st59{opacity:0.6;fill:url(#SVGID_00000165923896814023268100000007710445038010431672_);}
	.st60{fill:#AB774D;}
</style>
<g>
	<g>
		<g>
			<polygon class="st27" points="239.7,119.1 241.8,117 240.9,113.1 239.7,113.8 			"/>
			<polygon class="st27" points="213.3,75.5 213.3,97.7 220.3,86.6 			"/>
			<path class="st27" d="M233.5,106.2l3.6,15.5l0.2-0.2v-8.3c0-0.4,0.2-0.8,0.6-1l2.5-1.6l-2.3-9.8l-12.4-2.8l-2.9,4.7
				c-0.1,0.2-0.3,0.3-0.4,0.4l10.2,2.3C233,105.4,233.4,105.8,233.5,106.2z"/>
			<polygon class="st27" points="221.8,97 218.1,100.7 221,100.7 223.2,97.3 			"/>
			<polygon class="st27" points="215.8,72.4 217.9,74.5 221.8,73.6 221,72.4 			"/>
			<polygon class="st27" points="288.8,92.1 288.8,70 281.9,81.1 			"/>
			<polygon class="st27" points="264.3,113.1 268,116.8 268,113.8 264.6,111.7 			"/>
			<polygon class="st27" points="248.3,53 259.4,46.1 237.2,46.1 			"/>
			<polygon class="st27" points="283.7,63 268,47.3 270.9,60.1 			"/>
			<polygon class="st27" points="227.3,64 230.3,51.2 214.6,66.9 			"/>
			<path class="st27" d="M228.6,66.2l-15.5,3.6l0.2,0.2h8.3c0.4,0,0.8,0.2,1,0.6l1.6,2.5l9.8-2.3l2.8-12.4l-4.7-2.9
				c-0.2-0.1-0.3-0.3-0.4-0.4l-2.3,10.2C229.5,65.7,229.1,66.1,228.6,66.2z"/>
			<path class="st27" d="M253.2,112.1c0.2-0.1,0.4-0.2,0.7-0.2c0.2,0,0.5,0.1,0.7,0.2l13.5,8.4v-0.3l-5.9-5.9
				c-0.3-0.3-0.4-0.7-0.3-1.1l0.7-2.9l-8.6-5.4l-10.7,6.7l1.2,5.4c0,0.2,0,0.4,0,0.6L253.2,112.1z"/>
			<path class="st27" d="M280.7,73.2c-0.1,0-0.2,0-0.3,0l-2.9-0.7l-5.4,8.6l6.7,10.7l5.4-1.2c0.2,0,0.4,0,0.6,0l-5.6-8.9
				c-0.2-0.4-0.2-0.9,0-1.3l8.4-13.5h-0.3l-5.9,5.9C281.4,73.1,281.1,73.2,280.7,73.2z"/>
			<path class="st27" d="M268.7,61.4l-3.6-15.5l-0.2,0.2v8.3c0,0.4-0.2,0.8-0.6,1l-2.5,1.6l2.3,9.8l12.4,2.8l2.9-4.7
				c0.1-0.2,0.3-0.3,0.4-0.4l-10.2-2.3C269.2,62.2,268.8,61.8,268.7,61.4z"/>
			<path class="st27" d="M221.7,94.5l2.9,0.7l5.4-8.6l-6.7-10.7l-5.4,1.2c-0.1,0-0.2,0-0.3,0c-0.1,0-0.2,0-0.3-0.1l5.6,8.9
				c0.2,0.4,0.2,0.9,0,1.3l-8.4,13.5h0.3l5.9-5.9C220.8,94.5,221.3,94.4,221.7,94.5z"/>
			<path class="st27" d="M280.1,39.7c-5.4,0.5-9.8,1.8-12.4,3.8l19.9,19.9c4.2-5.6,4.4-17.5,3.4-21.5c-0.7-0.6-1.3-1.2-2-1.8
				c-1.2-0.3-3-0.5-5.3-0.5C282.5,39.5,281.3,39.6,280.1,39.7z M285.2,51.3c-1.5,1.5-4,1.5-5.5,0c-1.5-1.5-1.5-4,0-5.5
				c1.5-1.5,4-1.5,5.5,0C286.7,47.3,286.7,49.8,285.2,51.3z"/>
			<path class="st27" d="M222.1,127.9c5.4-0.5,9.8-1.8,12.4-3.8l-19.9-19.9c-4.2,5.6-4.4,17.5-3.4,21.5c0.6,0.6,1.3,1.2,2,1.8
				C215,128,218.1,128.3,222.1,127.9z M217,116.3c1.5-1.5,4-1.5,5.5,0c1.5,1.5,1.5,4,0,5.5c-1.5,1.5-4,1.5-5.5,0
				C215.4,120.3,215.4,117.8,217,116.3z"/>
			<polygon class="st27" points="280.4,94 281.1,95.2 286.3,95.2 284.3,93.1 			"/>
			<path class="st27" d="M249,55.5c-0.4,0.2-0.9,0.2-1.3,0L234.2,47v0.3l5.9,5.9c0.3,0.3,0.4,0.7,0.3,1.1l-0.7,2.9l8.6,5.4l10.7-6.7
				l-1.2-5.4c0-0.2,0-0.4,0-0.6L249,55.5z"/>
			<polygon class="st27" points="262.5,48.6 260.4,50.6 261.3,54.5 262.5,53.8 			"/>
			<path class="st27" d="M227.1,95.7l12.3,2.8c0.5,0.1,0.8,0.5,0.9,0.9l2.2,9.8l10.7-6.7c0.4-0.2,0.9-0.2,1.3,0l8.5,5.3l2.8-12.3
				c0.1-0.5,0.5-0.8,0.9-0.9l9.8-2.2l-6.7-10.7c-0.2-0.4-0.2-0.9,0-1.3l5.3-8.5l-12.3-2.8c-0.5-0.1-0.8-0.5-0.9-0.9l-2.2-9.8
				L249,65.1c-0.2,0.1-0.4,0.2-0.7,0.2c-0.2,0-0.5-0.1-0.7-0.2l-8.5-5.3l-2.8,12.3c-0.1,0.5-0.5,0.8-0.9,0.9l-9.8,2.2l6.7,10.7
				c0.2,0.4,0.2,0.9,0,1.3L227.1,95.7z"/>
			<polygon class="st27" points="280.4,70.6 284,66.9 281.1,66.9 279,70.3 			"/>
			<polygon class="st27" points="237.9,54.5 234.2,50.8 234.2,53.8 237.6,55.9 			"/>
			<path class="st27" d="M273.5,101.4l15.5-3.6l-0.2-0.2h-8.3c-0.4,0-0.8-0.2-1-0.6l-1.6-2.5l-9.8,2.3l-2.8,12.4l4.7,2.9
				c0.2,0.1,0.3,0.3,0.4,0.4l2.3-10.2C272.7,101.9,273.1,101.5,273.5,101.4z"/>
			<path class="st27" d="M237.5,124.8l-0.3,0.3c-4,4-11.7,5-14.9,5.3c-1.3,0.1-2.6,0.2-3.8,0.2c-0.5,0-1.1,0-1.6,0
				c8.9,6.6,19.8,10.6,31.6,11.1C243.9,137.7,238.5,130.7,237.5,124.8z"/>
			<path class="st27" d="M193.4,88c2.3,3.6,10.7,11.7,17.5,12.6V72.5c-6.9,0.9-15.5,9.3-17.6,12.8C193.3,86.2,193.3,87.1,193.4,88z
				 M204,82.7c2.1,0,3.9,1.7,3.9,3.9c0,2.2-1.7,3.9-3.9,3.9s-3.9-1.7-3.9-3.9C200.1,84.4,201.8,82.7,204,82.7z"/>
			<path class="st27" d="M212.5,103.1h-0.4c-6,0-13.8-5.6-18.2-10.5c1.8,11.5,6.9,22,14.5,30.2C207.8,116.8,209,108.1,212.5,103.1z"
				/>
			<path class="st27" d="M193.3,81.2c3.9-4.6,10.9-9.9,16.9-11l-0.3-0.3c-4.2-4.2-5.8-13.6-5.5-20.3
				C197.8,58.5,193.8,69.4,193.3,81.2z"/>
			<path class="st27" d="M210.8,67.3l19.9-19.9c-2.6-2-7-3.3-12.4-3.8c-4.2-0.4-7.4,0-9.1,0.4c-0.6,0.6-1.2,1.3-1.8,2
				C206.4,50.2,206.6,61.8,210.8,67.3z M213.1,49.7c1.5-1.5,4-1.5,5.5,0c1.5,1.5,1.5,4,0,5.5c-1.5,1.5-4,1.5-5.5,0
				C211.6,53.7,211.6,51.2,213.1,49.7z"/>
			<path class="st27" d="M308.9,86.5C305,91,298,96.4,292,97.4l0.3,0.3c0,0,0,0,0,0c4,4,5,11.7,5.3,14.9c0.2,1.8,0.2,3.7,0.1,5.5
				C304.3,109.1,308.4,98.2,308.9,86.5z"/>
			<path class="st27" d="M295.2,112.8c-0.5-5.4-1.8-9.8-3.8-12.4l-19.9,19.9c2.6,2,7,3.3,12.4,3.8c4.2,0.4,7.4,0,9.1-0.4
				c0.6-0.6,1.2-1.3,1.8-2C295.3,119.9,295.5,116.8,295.2,112.8z M289.1,117.9c-1.5,1.5-4,1.5-5.5,0c-1.5-1.5-1.5-4,0-5.5
				c1.5-1.5,4-1.5,5.5,0C290.6,113.9,290.6,116.4,289.1,117.9z"/>
			<path class="st27" d="M267.9,124h-28.1c0.9,6.9,9.3,15.5,12.8,17.6c0.9,0,1.8-0.1,2.7-0.1C258.9,139.2,267,130.8,267.9,124z
				 M249.9,130.9c0-2.1,1.7-3.9,3.9-3.9s3.9,1.7,3.9,3.9s-1.7,3.9-3.9,3.9S249.9,133.1,249.9,130.9z"/>
			<path class="st27" d="M287.6,126.6c-1.3,0-2.6-0.1-3.8-0.2c-2.8-0.2-9.1-1.1-13.3-4v0.4c0,6-5.6,13.8-10.5,18.2
				c11.5-1.8,22-6.9,30.2-14.5C289.3,126.6,288.5,126.6,287.6,126.6z"/>
			<path class="st27" d="M291.3,67v28.1c6.9-0.9,15.5-9.3,17.6-12.8c0-0.9-0.1-1.8-0.1-2.7C306.5,76,298.1,67.9,291.3,67z M298.2,85
				c-2.1,0-3.9-1.7-3.9-3.9s1.7-3.9,3.9-3.9s3.9,1.7,3.9,3.9S300.3,85,298.2,85z"/>
			<polygon class="st27" points="218.5,104.6 234.2,120.3 231.2,107.5 			"/>
			<path class="st27" d="M289.7,64.5h0.4c6,0,13.8,5.6,18.2,10.5c-1.8-11.5-6.9-22-14.5-30.2C294.3,50.8,293.1,59.5,289.7,64.5z"/>
			<polygon class="st27" points="253.8,114.6 242.7,121.6 264.9,121.6 			"/>
			<path class="st27" d="M264.7,42.8l0.3-0.3c4-4,11.7-5,14.9-5.3c1.8-0.2,3.7-0.2,5.5-0.1c-8.9-6.6-19.8-10.6-31.6-11.1
				C258.3,29.9,263.7,36.9,264.7,42.8z"/>
			<polygon class="st27" points="274.8,103.6 271.9,116.4 287.6,100.7 			"/>
			<path class="st27" d="M234.3,43.6h28.1c-0.9-6.9-9.3-15.5-12.8-17.6c-0.9,0-1.8,0.1-2.7,0.1C243.3,28.4,235.2,36.8,234.3,43.6z
				 M252.2,36.7c0,2.1-1.7,3.9-3.9,3.9s-3.9-1.7-3.9-3.9c0-2.1,1.7-3.9,3.9-3.9S252.2,34.6,252.2,36.7z"/>
			<path class="st27" d="M218.4,41.2c2.8,0.2,9.1,1.1,13.3,4v-0.4c0-6,5.6-13.8,10.5-18.2c-11.5,1.8-22,7-30.2,14.5
				C214.1,40.9,216.3,41,218.4,41.2z"/>
		</g>
		<g>
			<g>
				<g>
					<g>
						
							<ellipse transform="matrix(0.2866 -0.9581 0.9581 0.2866 62.7823 210.3054)" class="st28" cx="172.6" cy="63" rx="12.8" ry="9"/>
					</g>
				</g>
				<g>
					<g>
						
							<ellipse transform="matrix(0.2866 -0.9581 0.9581 0.2866 66.0599 219.3013)" class="st28" cx="180.3" cy="65.3" rx="8.9" ry="8.7"/>
					</g>
				</g>
				<g>
					<g>
						
							<ellipse transform="matrix(0.2866 -0.9581 0.9581 0.2866 70.6504 217.6288)" class="st28" cx="181.5" cy="61.4" rx="8.9" ry="8.7"/>
					</g>
				</g>
				<g>
					<g>
						<path class="st29" d="M164.7,58c-1.2,3.9,1.8,4.2,2.8,6.9c0.8,2-1.4,6.8,2.1,7.8c8.3,2.5,10.2-2.9,12.3-9.6
							c2-6.7,3.7-12.2-5-14.8S166.7,51.2,164.7,58z"/>
					</g>
				</g>
				<g>
					<g>
						
							<ellipse transform="matrix(0.2866 -0.9581 0.9581 0.2866 68.9197 218.2594)" class="st29" cx="181" cy="62.9" rx="8.9" ry="8.7"/>
					</g>
				</g>
				<g>
					<g>
						<path class="st28" d="M165.2,56.5c-0.9,2.9,1.7-11.1,13.9-7.4c4.8,1.4,2.1,16.4,3.3,12.6c2-6.7,3.7-12.2-5-14.8
							S167.2,49.8,165.2,56.5z"/>
					</g>
				</g>
				<g>
					<g>
						
							<ellipse transform="matrix(0.2866 -0.9581 0.9581 0.2866 128.3285 390.2113)" class="st28" cx="326.2" cy="108.9" rx="12.8" ry="9"/>
					</g>
				</g>
				<g>
					<g>
						
							<ellipse transform="matrix(0.2866 -0.9581 0.9581 0.2866 125.051 381.2155)" class="st28" cx="318.5" cy="106.6" rx="8.9" ry="8.7"/>
					</g>
				</g>
				<g>
					<g>
						
							<ellipse transform="matrix(0.2866 -0.9581 0.9581 0.2866 129.6415 379.543)" class="st28" cx="319.7" cy="102.7" rx="8.9" ry="8.7"/>
					</g>
				</g>
				<g>
					<g>
						<path class="st29" d="M335.5,109.1c-1.2,3.9-3.8,2.5-6.2,4.2c-1.7,1.2-2.6,6.4-6.1,5.4c-8.3-2.5-7-8-5-14.8
							c2-6.7,3.7-12.2,12.3-9.6S337.5,102.3,335.5,109.1z"/>
					</g>
				</g>
				<g>
					<g>
						
							<ellipse transform="matrix(0.2866 -0.9581 0.9581 0.2866 127.9109 380.1735)" class="st29" cx="319.2" cy="104.2" rx="8.9" ry="8.7"/>
					</g>
				</g>
				<g>
					<g>
						<path class="st28" d="M336,107.6c-0.9,2.9,4.7-10.2-7.6-13.9c-4.8-1.4-10.8,12.5-9.7,8.7c2-6.7,3.7-12.2,12.3-9.6
							S338,100.8,336,107.6z"/>
					</g>
				</g>
			</g>
			<g>
				<g>
					<path class="st29" d="M251.3,150.8c-37.1,0-67.3-30.2-67.3-67.3s30.2-67.3,67.3-67.3s67.3,30.2,67.3,67.3
						S288.5,150.8,251.3,150.8z M251.3,23c-33.4,0-60.5,27.1-60.5,60.5S218,144,251.3,144s60.5-27.1,60.5-60.5S284.7,23,251.3,23z"
						/>
				</g>
			</g>
			<g>
				<g>
					<path class="st28" d="M250,154.7c-38.5,0-69.8-31.3-69.8-69.8c0-38.5,31.3-69.8,69.8-69.8c38.5,0,69.8,31.3,69.8,69.8
						C319.8,123.4,288.5,154.7,250,154.7z M250,20.6c-35.5,0-64.3,28.9-64.3,64.3c0,35.5,28.9,64.3,64.3,64.3
						c35.5,0,64.3-28.9,64.3-64.3C314.3,49.4,285.4,20.6,250,20.6z"/>
				</g>
			</g>
		</g>
	</g>
	<g>
		<g>
			<path class="st7" d="M178.9,174.9c-1.1,1-2.4,1.8-3.7,2.3c-1.4,0.5-2.8,0.8-4.2,0.8c-1,0-1.9-0.1-2.9-0.4c-1-0.3-1.9-0.7-2.8-1.2
				c-0.9-0.5-1.7-1.1-2.6-1.9c-0.8-0.7-1.7-1.5-2.4-2.3c-0.8-0.8-1.5-1.6-2.3-2.5c1.2-1.1,2.2-1.9,3-2.5c0.7-0.7,1.5-1.1,2.3-1
				c0.8,0,1.7,0.5,2.9,1.5c1,0.8,2.1,1.5,3.5,2.1c1.4,0.6,2.7,0.4,4-0.7c1.2-1.1,2.5-1.9,3.8-2.4c1.3-0.5,2.6-0.7,3.8-0.7
				c2.5,0,4.8,0.8,7.1,2.3c2.2,1.5,4.1,3.3,5.8,5.4c-1.1,1.3-2.1,2.3-3,3.2c-0.6,0.6-1.3,0.9-2.1,0.9c-0.8,0-1.7-0.4-2.6-1.2
				c-1-1-2.2-1.7-3.5-2.3C181.6,173.6,180.3,173.8,178.9,174.9z"/>
		</g>
	</g>
	<g>
		<g>
			<g>
				<path class="st7" d="M176.4,184c2.9,0,5.5,0.3,8,0.8c2.5,0.6,4.7,1.5,6.6,2.8c1.9,1.3,3.4,3,4.6,5.1c1.1,2.1,1.7,4.8,1.7,8V229
					c-1.8,1.1-3.6,2-5.6,2.8c-2,0.8-4.3,1.4-6.8,2c-2.6,0.6-5.4,0.8-8.6,0.8c-3.7,0-6.7-0.3-9.1-1c-2.4-0.7-4.5-1.6-6.3-2.9
					c-1.8-1.2-3.2-2.9-4.4-5.1c-1.1-2.1-1.7-4.7-1.7-7.8c0-4.8,1.5-8.3,4.6-10.7c3.1-2.3,7.4-3.8,12.9-4.5c5.5-0.6,9.9-1.1,12.9-1.4
					v-1.7c0-1-0.6-1.9-1.9-2.7c-1.3-0.8-3.6-1.3-7-1.3c-2.9,0.1-5.4,0.3-7.5,0.7c-2.1,0.4-3.9,0.8-5.3,1.3c-1.8,0.6-3,0.5-3.9-0.2
					c-0.8-0.7-1.2-1.8-1.2-3.3v-7.3c1.6-0.5,3.3-1,5-1.4c1.7-0.4,3.5-0.8,5.6-1.1C171,184.3,173.5,184.1,176.4,184z M185.2,211.6
					c-3.1,0.3-6.2,0.5-9.3,0.7c-3.1,0.2-5.6,0.8-7.3,1.8c-1.8,1-2.6,2.5-2.5,4.3c0,1.5,0.8,2.8,2.4,3.9c1.6,1.1,4.3,1.6,8.1,1.6
					s6.7-0.3,8.6-1V211.6z"/>
				<path class="st7" d="M227.2,184.7c6.1,0,10.8,1.4,14.1,4.1c3.3,2.7,5,7.2,5,13.6v25.9c0,3-1.4,4.5-4.2,4.5H234v-31.2
					c0-1.4-0.2-2.5-0.7-3.3c-0.4-0.8-1-1.4-1.8-1.9c-0.8-0.4-1.6-0.7-2.6-0.9c-1-0.1-2.1-0.2-3.3-0.2c-1.4,0-3,0.2-4.8,0.5
					c-1.8,0.3-3.4,0.7-4.7,1v31.4c0,3-1.5,4.5-4.5,4.5h-7.8v-42c2-1.1,4.1-2.1,6.4-2.9c2.3-0.8,4.8-1.6,7.7-2.2
					C220.7,185.1,223.8,184.7,227.2,184.7z"/>
				<path class="st7" d="M288.9,184.7h8.6c1-0.1,1.8,0,2.4,0.3c0.7,0.3,1.2,0.8,1.5,1.4c0.3,0.7,0.3,1.7-0.2,3.2l-15,39.3
					c-1.7,4.7-3.3,8.7-4.8,12.1c-1.5,3.3-3.2,6.1-5,8.2c-1.8,2.1-3.9,3.7-6.3,4.7c-2.4,1-5.4,1.5-8.9,1.5c-1,0-1.8,0-2.4-0.1
					c-0.6,0-1.3-0.1-2.1-0.3c-3.5-0.7-5-2.7-4.3-5.8l1.5-6.8c0.8,0.3,1.9,0.6,3.1,0.8c1.3,0.3,2.7,0.4,4.2,0.4s2.8-0.2,3.6-0.7
					c0.9-0.5,1.6-1,2.3-1.7c0.6-0.6,1.2-1.3,1.6-1.9c0.4-0.7,0.7-1.2,0.9-1.5l2.5-5.1c-1.5,0-2.6-0.7-3.1-2l-17.8-41
					c-0.3-0.6-0.5-1.2-0.6-1.8c-0.1-0.6-0.1-1.1,0.2-1.7c0.2-0.5,0.6-0.9,1.2-1.2c0.6-0.3,1.4-0.4,2.5-0.4h8.2l14.2,34.2
					L288.9,184.7z"/>
				<path class="st7" d="M324.3,184c2.9,0,5.5,0.3,8,0.8c2.5,0.6,4.7,1.5,6.6,2.8c1.9,1.3,3.4,3,4.6,5.1c1.1,2.1,1.7,4.8,1.7,8V229
					c-1.8,1.1-3.6,2-5.6,2.8c-2,0.8-4.3,1.4-6.8,2c-2.6,0.6-5.4,0.8-8.6,0.8c-3.7,0-6.7-0.3-9.1-1c-2.4-0.7-4.5-1.6-6.3-2.9
					c-1.8-1.2-3.2-2.9-4.4-5.1c-1.1-2.1-1.7-4.7-1.7-7.8c0-4.8,1.5-8.3,4.6-10.7c3.1-2.3,7.4-3.8,12.9-4.5c5.5-0.6,9.9-1.1,12.9-1.4
					v-1.7c0-1-0.6-1.9-1.9-2.7c-1.3-0.8-3.6-1.3-7-1.3c-2.9,0.1-5.4,0.3-7.5,0.7c-2.1,0.4-3.9,0.8-5.3,1.3c-1.8,0.6-3,0.5-3.9-0.2
					c-0.8-0.7-1.2-1.8-1.2-3.3v-7.3c1.6-0.5,3.3-1,5-1.4c1.7-0.4,3.5-0.8,5.6-1.1C319,184.3,321.4,184.1,324.3,184z M333.1,211.6
					c-3.1,0.3-6.2,0.5-9.3,0.7c-3.1,0.2-5.6,0.8-7.3,1.8c-1.8,1-2.6,2.5-2.5,4.3c0,1.5,0.8,2.8,2.4,3.9c1.6,1.1,4.3,1.6,8.1,1.6
					c3.8,0,6.7-0.3,8.6-1V211.6z"/>
			</g>
			<path class="st7" d="M178.9,174.9c-1.1,1-2.4,1.8-3.7,2.3c-1.4,0.5-2.8,0.8-4.2,0.8c-1,0-1.9-0.1-2.9-0.4c-1-0.3-1.9-0.7-2.8-1.2
				c-0.9-0.5-1.7-1.1-2.6-1.9c-0.8-0.7-1.7-1.5-2.4-2.3c-0.8-0.8-1.5-1.6-2.3-2.5c1.2-1.1,2.2-1.9,3-2.5c0.7-0.7,1.5-1.1,2.3-1
				c0.8,0,1.7,0.5,2.9,1.5c1,0.8,2.1,1.5,3.5,2.1c1.4,0.6,2.7,0.4,4-0.7c1.2-1.1,2.5-1.9,3.8-2.4c1.3-0.5,2.6-0.7,3.8-0.7
				c2.5,0,4.8,0.8,7,2.3c2.2,1.5,4.1,3.3,5.8,5.4c-1.1,1.2-2.1,2.3-3,3.2c-0.6,0.6-1.3,0.9-2.1,0.9c-0.8,0-1.7-0.4-2.6-1.2
				c-1-1-2.2-1.7-3.5-2.3C181.6,173.6,180.3,173.8,178.9,174.9z"/>
		</g>
		<g>
			<path class="st7" d="M162.5,253.6c0.4-0.1,0.6,0,0.6,0.4l0.2,1c-0.3,0.1-0.6,0.2-1,0.3c-0.3,0.1-0.7,0.1-1.2,0.2
				c-0.4,0-0.9,0.1-1.4,0.1c-1,0-1.8-0.1-2.4-0.4c-0.6-0.3-1.2-0.7-1.5-1.2c-0.4-0.5-0.6-1.1-0.8-1.7c-0.1-0.6-0.2-1.3-0.2-2
				c0-0.8,0.1-1.5,0.2-2.1c0.1-0.7,0.4-1.2,0.8-1.7c0.4-0.5,0.9-0.9,1.6-1.2c0.7-0.3,1.5-0.4,2.4-0.4c0.6,0,1.2,0,1.8,0.1
				c0.6,0.1,1.2,0.2,1.8,0.4v1.1c0,0.3-0.2,0.4-0.5,0.4c0,0-0.1,0-0.3-0.1c-0.2-0.1-0.4-0.1-0.7-0.2c-0.3-0.1-0.6-0.1-1-0.1
				c-0.4,0-0.7,0-1,0c-0.7,0-1.2,0.1-1.6,0.4c-0.4,0.3-0.7,0.6-0.9,0.9s-0.3,0.8-0.4,1.2c-0.1,0.4-0.1,0.9-0.1,1.4
				c0,0.5,0,0.9,0.1,1.3c0.1,0.4,0.2,0.7,0.4,1.1c0.2,0.4,0.5,0.7,0.9,0.9c0.4,0.2,0.9,0.3,1.6,0.3c0.3,0,0.7,0,1,0
				c0.3,0,0.6-0.1,0.9-0.1c0.3,0,0.5-0.1,0.6-0.1C162.4,253.6,162.5,253.6,162.5,253.6z"/>
			<path class="st7" d="M171,244.6c0.6,0,1.2,0.1,1.7,0.2c0.5,0.1,1,0.3,1.4,0.6c0.4,0.3,0.7,0.6,1,1.1c0.2,0.5,0.4,1,0.4,1.7v6.5
				c-0.3,0.2-0.7,0.4-1.1,0.5c-0.4,0.2-0.9,0.3-1.5,0.4c-0.6,0.1-1.2,0.2-1.9,0.2c-0.7,0-1.3-0.1-1.8-0.2c-0.5-0.1-0.9-0.3-1.4-0.6
				c-0.4-0.3-0.7-0.6-1-1.1c-0.3-0.5-0.4-1-0.4-1.6c0-0.9,0.3-1.5,1-2c0.7-0.5,1.6-0.8,2.7-0.9c1.1-0.1,1.9-0.2,2.4-0.3
				c0.5,0,0.9-0.1,1.1-0.1v-1c0-0.2,0-0.3-0.1-0.5c-0.1-0.2-0.2-0.3-0.4-0.5c-0.2-0.1-0.5-0.3-0.8-0.4c-0.3-0.1-0.8-0.1-1.3-0.1
				c-0.6,0-1.2,0.1-1.8,0.2c-0.5,0.1-1,0.2-1.3,0.3c-0.4,0.1-0.5,0-0.5-0.3v-1.4c0.3-0.1,0.7-0.2,1-0.3c0.3-0.1,0.7-0.1,1.2-0.2
				C170,244.6,170.5,244.6,171,244.6z M173.7,250.7c-0.2,0-0.5,0-0.8,0.1c-0.3,0-0.6,0.1-0.9,0.1c-0.3,0-0.8,0.1-1.4,0.1
				c-0.6,0.1-1.1,0.2-1.6,0.4c-0.5,0.2-0.7,0.5-0.7,1c0,0.5,0.2,0.8,0.7,1.1c0.5,0.3,1.1,0.4,2,0.4c0.7,0,1.3,0,1.7-0.1
				c0.4-0.1,0.8-0.2,1-0.3V250.7z"/>
			<path class="st7" d="M184.3,239.3c0.5,0,1,0,1.4,0.1c0.4,0.1,0.8,0.1,1.1,0.2c0,0.2-0.1,0.5-0.1,0.7c0,0.2-0.1,0.4-0.1,0.5
				c0,0.1-0.1,0.2-0.2,0.3c-0.1,0.1-0.2,0.1-0.5,0c-0.3,0-0.7-0.1-1.1-0.1c-0.4,0-0.8,0-1.1,0.1c-0.4,0.1-0.7,0.2-0.9,0.5
				c-0.2,0.2-0.4,0.6-0.4,1.1v2.1h3.2v1.1c0,0.2,0,0.4-0.1,0.5c-0.1,0.1-0.2,0.1-0.4,0.1h-2.7v8.3c0,0.2,0,0.4-0.1,0.4
				c-0.1,0.1-0.2,0.1-0.4,0.1h-1.4v-8.9h-1.1v-1.1c0-0.2,0.1-0.4,0.2-0.5c0.1-0.1,0.3-0.1,0.5-0.1h0.4v-2.6c0-0.5,0.1-1,0.3-1.4
				c0.2-0.4,0.5-0.7,0.9-0.9c0.4-0.2,0.8-0.4,1.2-0.5C183.4,239.3,183.8,239.3,184.3,239.3z"/>
			<path class="st7" d="M197.2,248.3c0,0.6-0.1,1-0.3,1.4c-0.2,0.4-0.4,0.7-0.7,0.9c-0.3,0.2-0.7,0.4-1.1,0.5
				c-0.4,0.1-0.9,0.2-1.4,0.2H190c0.1,0.9,0.4,1.6,1.1,2c0.6,0.4,1.4,0.6,2.2,0.6c0.4,0,0.7,0,0.9,0c0.3,0,0.5-0.1,0.7-0.1
				c0.2,0,0.4-0.1,0.5-0.1c0.1,0,0.3-0.1,0.4-0.1c0.1,0,0.3-0.1,0.4,0c0.1,0,0.2,0.2,0.2,0.4v1.1c-0.3,0.1-0.6,0.2-0.9,0.3
				c-0.3,0.1-0.7,0.2-1.1,0.2c-0.4,0.1-0.8,0.1-1.2,0.1c-0.5,0-1-0.1-1.6-0.2c-0.6-0.1-1.1-0.4-1.7-0.7c-0.5-0.4-1-0.9-1.3-1.5
				c-0.4-0.7-0.5-1.5-0.5-2.6c0-1.3,0.2-2.4,0.6-3.1c0.4-0.8,0.8-1.4,1.3-1.8c0.5-0.4,1.1-0.7,1.6-0.8c0.6-0.1,1.1-0.2,1.5-0.2
				c0.4,0,0.9,0.1,1.4,0.2c0.5,0.1,0.9,0.3,1.4,0.6c0.4,0.3,0.8,0.7,1.1,1.1C197.1,247,197.2,247.6,197.2,248.3z M192.9,249.6
				c1,0,1.6-0.1,2-0.3c0.4-0.2,0.6-0.5,0.6-1.1c0-0.7-0.2-1.2-0.7-1.6c-0.4-0.4-1-0.6-1.8-0.6c-0.6,0-1.1,0.1-1.5,0.3
				c-0.4,0.2-0.7,0.5-1,0.8c-0.2,0.3-0.4,0.7-0.5,1.1c-0.1,0.4-0.2,0.8-0.2,1.2H192.9z"/>
		</g>
	</g>
	<g>
		<path class="st30" d="M173.7,267.4v4.5h7.1v2.3c0,0.8-0.4,1.2-1.3,1.2h-5.8v7.8c0,0.8-0.4,1.3-1.1,1.3h-2.4v-17
			c0-2.2,1.1-3.4,3.4-3.4h10v2.1c0,0.9-0.4,1.3-1.3,1.3H173.7z"/>
		<path class="st30" d="M190.1,270.8c2.2,0,3.8,0.6,4.8,1.7c1,1.2,1.5,2.9,1.5,5.1c0,1.1-0.1,2.1-0.3,2.9c-0.2,0.8-0.6,1.5-1.1,2.1
			c-0.5,0.6-1.2,1-2,1.3c-0.8,0.3-1.8,0.5-2.9,0.5c-2.2,0-3.8-0.6-4.8-1.7c-1-1.1-1.5-2.9-1.5-5.2c0-1.1,0.1-2.1,0.4-2.9
			c0.2-0.8,0.6-1.5,1.1-2.1c0.5-0.6,1.2-1,1.9-1.3C187.9,271,188.9,270.8,190.1,270.8z M190.1,281.6c0.6,0,1.1-0.1,1.5-0.3
			c0.4-0.2,0.7-0.4,0.9-0.7c0.2-0.3,0.3-0.7,0.4-1.2c0.1-0.5,0.1-1.1,0.1-1.7c0-0.6,0-1.2-0.1-1.6c0-0.5-0.2-0.9-0.4-1.2
			c-0.2-0.3-0.5-0.6-0.9-0.8c-0.4-0.2-0.9-0.3-1.6-0.3c-0.6,0-1.1,0.1-1.5,0.2c-0.4,0.2-0.7,0.4-0.9,0.7c-0.2,0.3-0.3,0.7-0.4,1.2
			c-0.1,0.5-0.1,1.1-0.1,1.8c0,0.7,0,1.2,0.1,1.7c0,0.5,0.2,0.8,0.4,1.2c0.2,0.3,0.5,0.6,0.9,0.8
			C188.8,281.5,189.4,281.6,190.1,281.6z"/>
		<path class="st30" d="M206.3,270.8c2.2,0,3.8,0.6,4.8,1.7c1,1.2,1.5,2.9,1.5,5.1c0,1.1-0.1,2.1-0.3,2.9s-0.6,1.5-1.1,2.1
			c-0.5,0.6-1.2,1-2,1.3c-0.8,0.3-1.8,0.5-2.9,0.5c-2.2,0-3.8-0.6-4.8-1.7c-1-1.1-1.5-2.9-1.5-5.2c0-1.1,0.1-2.1,0.4-2.9
			c0.2-0.8,0.6-1.5,1.1-2.1c0.5-0.6,1.2-1,1.9-1.3C204.2,271,205.2,270.8,206.3,270.8z M206.3,281.6c0.6,0,1.1-0.1,1.5-0.3
			c0.4-0.2,0.7-0.4,0.9-0.7c0.2-0.3,0.3-0.7,0.4-1.2c0.1-0.5,0.1-1.1,0.1-1.7c0-0.6,0-1.2-0.1-1.6c0-0.5-0.2-0.9-0.4-1.2
			c-0.2-0.3-0.5-0.6-0.9-0.8c-0.4-0.2-0.9-0.3-1.6-0.3c-0.6,0-1.1,0.1-1.5,0.2c-0.4,0.2-0.7,0.4-0.9,0.7c-0.2,0.3-0.3,0.7-0.4,1.2
			c-0.1,0.5-0.1,1.1-0.1,1.8c0,0.7,0,1.2,0.1,1.7c0,0.5,0.2,0.8,0.4,1.2c0.2,0.3,0.5,0.6,0.9,0.8
			C205.1,281.5,205.6,281.6,206.3,281.6z"/>
		<path class="st30" d="M227.4,264c0.9,0,1.4,0.5,1.4,1.5V283c-0.5,0.3-1.1,0.5-1.6,0.8c-0.6,0.2-1.2,0.4-1.9,0.6
			c-0.7,0.2-1.5,0.2-2.3,0.2c-2.2,0-3.9-0.6-5-1.8s-1.6-2.9-1.6-5.1c0-0.3,0-0.7,0.1-1.2c0-0.5,0.1-0.9,0.3-1.4
			c0.1-0.5,0.3-1,0.6-1.5c0.3-0.5,0.6-0.9,1.1-1.3c0.4-0.4,1-0.7,1.7-0.9c0.7-0.2,1.5-0.4,2.4-0.4c1,0,2,0.1,2.9,0.4V264H227.4z
			 M225.4,274.5c-0.3-0.2-0.7-0.3-1.2-0.4c-0.4-0.1-0.9-0.1-1.6-0.1c-0.3,0-0.6,0.1-1,0.2c-0.3,0.1-0.7,0.3-1,0.6
			c-0.3,0.3-0.5,0.6-0.7,1.1c-0.2,0.5-0.3,1.1-0.3,1.9c0,0.6,0,1.1,0.1,1.6c0.1,0.5,0.2,0.9,0.5,1.3c0.2,0.4,0.6,0.6,1,0.8
			c0.4,0.2,1,0.3,1.7,0.3c0.6,0,1,0,1.4-0.1c0.4-0.1,0.7-0.1,0.9-0.2V274.5z"/>
		<path class="st30" d="M250.7,281.1c0.4-0.1,0.7-0.1,0.9,0c0.2,0.1,0.4,0.4,0.5,0.9l0.3,1.7c-0.4,0.2-0.9,0.3-1.4,0.4
			c-0.5,0.1-1,0.2-1.6,0.3c-0.6,0.1-1.2,0.1-1.7,0.1c-2.1,0-3.6-0.6-4.7-1.8s-1.6-2.8-1.6-4.9c0-1,0.1-1.9,0.4-2.8
			c0.2-0.8,0.6-1.6,1.1-2.2c0.5-0.6,1.2-1.1,2-1.4c0.8-0.3,1.8-0.5,2.9-0.5c0.7,0,1.4,0.1,2.3,0.2c0.8,0.1,1.6,0.3,2.4,0.6v1.7
			c0,0.4-0.1,0.7-0.4,0.9c-0.2,0.2-0.5,0.2-0.9,0.1c-0.1,0-0.3-0.1-0.6-0.2c-0.3-0.1-0.5-0.1-0.9-0.2c-0.3-0.1-0.7-0.1-1-0.2
			c-0.3-0.1-0.7-0.1-1-0.1c-0.6,0-1,0.1-1.4,0.4c-0.4,0.2-0.7,0.5-0.9,0.9c-0.2,0.4-0.4,0.8-0.5,1.3c-0.1,0.5-0.1,1-0.1,1.5
			c0,0.5,0,0.9,0.1,1.3c0.1,0.4,0.2,0.8,0.5,1.1c0.2,0.3,0.5,0.6,0.9,0.8c0.4,0.2,0.8,0.3,1.4,0.3c0.6,0,1.1,0,1.7-0.1
			C249.9,281.2,250.3,281.1,250.7,281.1z"/>
		<path class="st30" d="M256.5,275.2c0-0.4,0.1-0.9,0.3-1.4c0.2-0.5,0.6-0.9,1-1.3c0.5-0.4,1-0.7,1.7-1c0.7-0.3,1.5-0.4,2.5-0.4
			c0.6,0,1.1,0,1.7,0.1c0.5,0.1,1,0.2,1.4,0.3c0.4,0.1,0.7,0.3,1,0.5c0.3,0.2,0.4,0.5,0.3,0.9c-0.1,0.4-0.2,0.7-0.3,1
			c-0.1,0.3-0.2,0.6-0.4,1.1c-0.3-0.1-0.7-0.2-1-0.2c-0.3-0.1-0.7-0.1-1.2-0.2c-0.4,0-0.9-0.1-1.4-0.1c-0.5,0-0.9,0-1.2,0.1
			c-0.3,0.1-0.5,0.2-0.7,0.3c-0.2,0.1-0.3,0.3-0.4,0.4c-0.1,0.1-0.1,0.3-0.1,0.4v7.5c0,0.8-0.4,1.3-1.3,1.3h-2.1V275.2z"/>
		<path class="st30" d="M274.1,270.8c0.8,0,1.5,0.1,2.2,0.2c0.7,0.2,1.3,0.4,1.8,0.8c0.5,0.4,1,0.8,1.3,1.4c0.3,0.6,0.5,1.3,0.5,2.2
			v7.9c-0.5,0.3-1,0.6-1.6,0.8s-1.2,0.4-1.9,0.6c-0.7,0.2-1.5,0.2-2.4,0.2c-1,0-1.9-0.1-2.5-0.3c-0.7-0.2-1.3-0.4-1.8-0.8
			c-0.5-0.3-0.9-0.8-1.2-1.4c-0.3-0.6-0.5-1.3-0.5-2.2c0-1.3,0.4-2.3,1.3-3c0.9-0.7,2.1-1.1,3.6-1.2c1.5-0.2,2.7-0.3,3.6-0.4v-0.5
			c0-0.3-0.2-0.5-0.5-0.8c-0.4-0.2-1-0.4-1.9-0.4c-0.8,0-1.5,0.1-2.1,0.2c-0.6,0.1-1.1,0.2-1.5,0.4c-0.5,0.2-0.8,0.1-1.1,0
			c-0.2-0.2-0.3-0.5-0.3-0.9v-2c0.4-0.1,0.9-0.3,1.4-0.4c0.5-0.1,1-0.2,1.5-0.3C272.6,270.9,273.3,270.8,274.1,270.8z M276.5,278.5
			c-0.9,0.1-1.7,0.1-2.6,0.2c-0.9,0-1.5,0.2-2,0.5c-0.5,0.3-0.7,0.7-0.7,1.2c0,0.4,0.2,0.8,0.7,1.1c0.4,0.3,1.2,0.4,2.3,0.4
			c1.1,0,1.9-0.1,2.4-0.3V278.5z"/>
		<path class="st30" d="M290.1,264.7c0.6,0,1.2,0.1,1.9,0.2c0.7,0.1,1.2,0.2,1.6,0.3c0,0.6-0.1,1-0.1,1.3c0,0.2-0.1,0.5-0.2,0.8
			c-0.1,0.4-0.3,0.7-0.5,0.8c-0.2,0.1-0.5,0.1-1,0c-0.2,0-0.4-0.1-0.6-0.1c-0.3,0-0.5,0-0.7,0c-0.5,0-0.9,0.1-1.3,0.3
			c-0.4,0.2-0.6,0.5-0.6,1v1.8h3.7v1.9c0,0.8-0.4,1.3-1.2,1.3h-2.5v9c0,0.8-0.4,1.2-1.2,1.2h-2.2v-10.2h-1.3v-1.9
			c0-0.9,0.4-1.3,1.3-1.3v-2.4c0-0.8,0.1-1.4,0.4-1.9c0.3-0.5,0.7-0.9,1.2-1.2c0.5-0.3,1-0.5,1.6-0.6
			C288.9,264.7,289.5,264.7,290.1,264.7z"/>
		<path class="st30" d="M299.6,274.3v5.9c0,0.4,0.1,0.7,0.4,0.9c0.2,0.2,0.7,0.2,1.3,0.2c0.2,0,0.4,0,0.7,0c0.2,0,0.5-0.1,0.8-0.1
			c0.4-0.1,0.7,0,0.9,0.1c0.2,0.2,0.3,0.5,0.3,0.9v1.6c-0.2,0.2-0.6,0.3-1.2,0.5c-0.6,0.2-1.3,0.3-2.1,0.3c-0.5,0-1-0.1-1.5-0.2
			c-0.5-0.1-1-0.4-1.5-0.7c-0.4-0.3-0.8-0.8-1.1-1.3s-0.4-1.2-0.4-1.9v-13.2l2.1-0.5c0.1,0,0.2,0,0.4-0.1c0.2,0,0.3,0,0.4,0
			c0.1,0.1,0.3,0.2,0.4,0.3c0.1,0.2,0.2,0.4,0.2,0.8v3.2h3.8v2.1c0,0.9-0.4,1.3-1.2,1.3H299.6z"/>
		<path class="st30" d="M317.3,271.8c-0.1,0.6-0.2,1.2-0.3,1.7c-0.2,0.8-0.7,1.1-1.5,0.9c-0.3-0.1-0.7-0.2-1.2-0.3
			c-0.5-0.1-1.1-0.1-1.8-0.1c-0.5,0-0.9,0-1.2,0.1c-0.3,0.1-0.5,0.2-0.7,0.2c-0.1,0.1-0.2,0.2-0.3,0.3c0,0.1,0,0.2,0,0.4
			c0,0.3,0.2,0.5,0.6,0.6c0.4,0.1,1,0.2,1.7,0.3c0.7,0.1,1.4,0.2,2.1,0.3c0.6,0.1,1.2,0.3,1.7,0.6c0.5,0.3,0.9,0.7,1.1,1.3
			c0.3,0.5,0.4,1.3,0.4,2.1c0,0.8-0.2,1.5-0.5,2c-0.4,0.6-0.8,1-1.4,1.3c-0.6,0.3-1.2,0.6-2,0.7c-0.7,0.2-1.4,0.2-2.2,0.2
			c-0.6,0-1.2,0-1.8-0.1c-0.6-0.1-1.1-0.2-1.5-0.3c-0.5-0.1-0.9-0.2-1.3-0.4v-1.8c0-1,0.4-1.3,1.3-1.1c0.3,0.1,0.8,0.2,1.4,0.3
			c0.6,0.1,1.3,0.1,2,0.1c1.1,0,1.8-0.1,2.1-0.3c0.3-0.2,0.5-0.4,0.5-0.8c0-0.3-0.1-0.5-0.2-0.6c-0.1-0.2-0.3-0.3-0.5-0.3
			s-0.5-0.1-0.7-0.1c-0.3,0-0.6,0-1.1-0.1c-0.4,0-1-0.1-1.6-0.2c-0.6-0.1-1.2-0.3-1.7-0.6s-0.9-0.7-1.2-1.2
			c-0.3-0.5-0.5-1.1-0.5-1.9c0-0.7,0.2-1.4,0.5-1.9c0.3-0.5,0.8-1,1.3-1.3c0.5-0.3,1.2-0.6,1.8-0.8c0.7-0.2,1.3-0.2,2-0.2
			c0.6,0,1.2,0,1.8,0.1c0.6,0.1,1.1,0.2,1.6,0.3C316.4,271.5,316.9,271.6,317.3,271.8z"/>
	</g>
</g>
<image style="overflow:visible;" width="1608" height="242" xlink:href="Releva Pharma/DATA/logo.png"  transform="matrix(0.4688 0 0 0.4688 393.1188 93.2803)">
</image>
</svg>
