<?xml version="1.0" encoding="utf-8"?>
<!-- Generator: Adobe Illustrator 27.2.0, SVG Export Plug-In . SVG Version: 6.00 Build 0)  -->
<svg version="1.1" id="Layer_1" xmlns="http://www.w3.org/2000/svg" xmlns:xlink="http://www.w3.org/1999/xlink" x="0px" y="0px"
	 viewBox="0 0 1920 626.3" style="enable-background:new 0 0 1920 626.3;" xml:space="preserve">
<style type="text/css">
	.st0{fill-rule:evenodd;clip-rule:evenodd;fill:#0F109F;}
	.st1{fill:#3D5DC9;}
</style>
<g>
	<g id="Layer_12">
		<g>
			<polygon class="st0" points="433.6,336 456.3,404.4 509.3,421.4 488,353.5 			"/>
			<polygon class="st0" points="512.6,211.5 441.4,210.5 407.9,256.8 479.9,256.6 			"/>
			<polygon class="st0" points="346.5,188.2 313.8,143.1 290.8,210.5 324.3,256.8 			"/>
			<polygon class="st0" points="187.5,310.6 244.3,353.5 298.7,336 240.6,293.6 			"/>
			<polygon class="st0" points="308,483.2 366.2,442.2 366.2,385 308,427.5 			"/>
		</g>
	</g>
	<g id="Layer_13">
		<g>
			<polygon class="st1" points="491.8,293.6 433.6,336 488,353.5 544.9,310.6 			"/>
			<polygon class="st1" points="441.4,210.5 418.4,143.1 385.7,188.2 407.9,256.8 			"/>
			<polygon class="st1" points="219.6,211.5 252.3,256.6 324.3,256.8 290.8,210.5 			"/>
			<polygon class="st1" points="223,421.4 276.1,404.4 298.7,336 244.3,353.5 			"/>
			<polygon class="st1" points="366.2,442.2 424.4,483.2 424.4,427.5 366.2,385 			"/>
		</g>
	</g>
	<g id="Layer_14">
		<g>
			<polygon points="665.8,193.6 665.8,143.4 702.8,177.3 756.7,226.7 810.5,177.3 847.6,143.4 847.6,323.1 810.5,323.1 810.5,227.5 
				756.7,276.8 702.8,227.5 			"/>
			<polygon points="702.8,274.1 702.8,323.1 665.8,323.1 665.8,240.2 			"/>
		</g>
	</g>
	<g id="Layer_15">
		<rect x="1012.8" y="143.4" width="37" height="179.7"/>
	</g>
	<g id="Layer_16">
		<path d="M1275.2,225.3c12.3,0,22.5-10.2,22.5-22.5c0-12.3-10.2-22.5-22.5-22.5h-63.1v-37h63.1c32.7,0,59.5,26.8,59.5,59.5
			c0,23.6-13.9,44.1-33.9,53.7l39.8,66.6h-43.1l-36.3-60.8h-49v-37L1275.2,225.3L1275.2,225.3z"/>
	</g>
	<g id="Layer_17">
		<polygon points="1477.4,323.1 1542.9,143.1 1582.3,143.1 1647.8,323.1 1608.4,323.1 1562.6,197.2 1516.8,323.1 		"/>
	</g>
	<g id="Layer_18">
		<path d="M677.5,473.3l-3.5,9.2h-7.8l15.7-40h7.3l15.7,40h-8.2l-3.5-9.2H677.5z M691.3,467.3l-6-16.2l-6,16.2H691.3z"/>
	</g>
	<g id="Layer_19">
		<polygon points="816.9,442.5 816.9,448.8 799.7,448.8 799.7,458.7 815.9,458.7 815.9,464.9 799.7,464.9 799.7,476.3 817.3,476.3 
			817.3,482.5 792.2,482.5 792.2,442.5 		"/>
	</g>
	<g id="Layer_20">
		<path d="M914.5,466.3v16.2H907v-40h12.9c4.2,0,7.6,0.9,10.1,2.8c2.5,1.9,4.3,5,4.3,8.8c0,6.9-3.8,9.7-8.6,11.2l10.8,17.1h-8.8
			l-9.4-16.2L914.5,466.3L914.5,466.3z M924.1,459.1c1.5-1.1,2.3-2.4,2.3-4.7c0-2.2-0.8-3.7-2.3-4.7c-1.5-1.1-3.3-1.3-5.7-1.3h-3.9
			v11.9h3.9C920.8,460.4,922.7,460.2,924.1,459.1"/>
	</g>
	<g id="Layer_21">
		<path d="M1021.2,462.6c0-12.9,9.4-20.6,20.9-20.6c11.6,0,20.9,7.8,20.9,20.6s-9.3,20.6-20.9,20.6
			C1030.6,483.2,1021.2,475.4,1021.2,462.6 M1042.1,448.5c-7.4,0-13.2,5.3-13.2,14s5.8,14.1,13.2,14.1c7.4,0,13.1-5.4,13.1-14.1
			C1055.3,453.8,1049.5,448.5,1042.1,448.5"/>
	</g>
	<g id="Layer_22">
		<path d="M1177.7,470.9c0,7.4-5.4,12.3-13.9,12.3c-6.8,0-11.5-3.2-14.1-6.2l3.6-5.4c3.1,3.4,6.9,5.3,10.7,5.3
			c3.7,0,6.3-1.8,6.3-5.3c0-3.1-2.1-4.2-5.5-5.6l-6.2-2.5c-4.3-1.7-7.2-4.8-7.2-9.7c0-7,5.4-11.8,13.8-11.8c5.7,0,9.8,2.4,12.2,4.8
			l-3.6,5.4c-2.5-2.3-5.6-4-9-4c-3.3,0-5.9,1.6-5.9,4.6c0,2.9,2.5,4,4.6,4.9l6.7,2.7C1175.5,462.8,1177.7,465.9,1177.7,470.9"/>
	</g>
	<g id="Layer_23">
		<path d="M1279.6,442.5c4,0,7.5,0.8,10,3c2.6,2.1,4.2,5,4.2,9c0,4-1.6,7-4.2,9.1c-2.6,2.1-6,3.1-10,3.1h-5.3v15.8h-7.6v-40H1279.6z
			 M1283.8,459.3c1.3-0.9,2.2-2.5,2.2-4.8c0-2.2-1.1-3.8-2.4-4.8c-1.3-0.9-2.8-1.3-5.2-1.3h-4.2v12.4h4.4
			C1281,460.8,1282.6,460.3,1283.8,459.3"/>
	</g>
	<g id="Layer_24">
		<path d="M1387.7,473.3l-3.5,9.2h-7.8l15.7-40h7.3l15.7,40h-8.2l-3.5-9.2H1387.7z M1401.5,467.3l-6-16.2l-6,16.2H1401.5z"/>
	</g>
	<g id="Layer_25">
		<path d="M1519.8,483.2c-11.7,0-20.7-7.9-20.7-20.6c0-12.7,9.2-20.6,20.7-20.6c7.8,0,12.3,3.3,13.9,4.9l-2.7,6.1
			c-1.2-1.5-5.7-4.6-11.3-4.6c-6.9,0-12.9,4.6-12.9,14c0,8.6,5.4,14.2,13.4,14.2c5.3,0,9-2.3,11.4-4.9l2.7,5.7
			C1532,480,1527.7,483.2,1519.8,483.2"/>
	</g>
	<g id="Layer_26">
		<polygon points="1647.3,442.5 1647.3,448.8 1630.2,448.8 1630.2,458.7 1646.3,458.7 1646.3,464.9 1630.2,464.9 1630.2,476.3 
			1647.8,476.3 1647.8,482.5 1622.6,482.5 1622.6,442.5 		"/>
	</g>
	<g id="Layer_27">
	</g>
</g>
</svg>
