<?xml version="1.0" encoding="UTF-8"?>
<svg id="Layer_1" data-name="Layer 1" xmlns="http://www.w3.org/2000/svg" version="1.1" viewBox="0 0 500 200">
  <defs>
    <style>
      .cls-1 {
        fill: #a99873;
      }

      .cls-1, .cls-2, .cls-3, .cls-4, .cls-5 {
        stroke-width: 0px;
      }

      .cls-2 {
        fill: #0c0608;
      }

      .cls-3 {
        fill: #fff;
      }

      .cls-4 {
        fill: #ee353f;
      }

      .cls-5 {
        fill: #231f20;
      }
    </style>
  </defs>
  <path class="cls-2" d="M58.79,125.71h2.35c3.45,0,4.71-1.3,4.71-5.82v-3.93c0-3.93-1.21-5.39-3.8-5.39h-3.26v15.14h0ZM56.31,108.42h5.98c2.48,0,4.26.89,5.22,2.97.78,1.64.86,5.52.86,6.14,0,4.15-.38,6.55-1.19,7.84-1.05,1.67-3.02,2.51-6.41,2.51h-4.47v-19.45h0Z"/>
  <polygon class="cls-2" points="72.04 127.87 72.04 108.42 82.06 108.42 82.06 110.57 74.52 110.57 74.52 116.82 81.53 116.82 81.53 118.98 74.52 118.98 74.52 125.71 82.23 125.71 82.23 127.87 72.04 127.87 72.04 127.87"/>
  <path class="cls-2" d="M87.64,117.15h2.72c1.02,0,3.45-.27,3.45-3.31s-2.21-3.26-2.75-3.26h-3.42v6.57h0ZM85.17,127.87v-19.45h5.76c2.61,0,5.42.97,5.42,5.55s-3.45,5.33-5.44,5.33h-3.26v8.56h-2.48Z"/>
  <path class="cls-2" d="M103.7,110.71h-.05l-3.04,10.37h6.22l-3.13-10.37h0ZM102.2,108.42h3.15l6.33,19.45h-2.78l-1.4-4.63h-7.52l-1.46,4.63h-2.51l6.17-19.45h0Z"/>
  <path class="cls-2" d="M116.01,116.77h3.72c1.78,0,2.64-1.54,2.64-3.23,0-1.4-.7-2.96-2.61-2.96h-3.75v6.2h0ZM116.01,118.92v8.94h-2.48v-19.45h6.71c3.45,0,4.66,2.43,4.66,4.85,0,2.29-1.27,4.04-3.56,4.44v.05c2.24.35,3.04,1.1,3.18,5.01.03.84.3,3.88.67,5.09h-2.59c-.7-1.35-.54-3.88-.75-6.46-.19-2.37-2.1-2.48-2.94-2.48h-2.91Z"/>
  <polygon class="cls-2" points="138.8 108.42 138.8 110.57 133.69 110.57 133.69 127.87 131.21 127.87 131.21 110.57 126.09 110.57 126.09 108.42 138.8 108.42 138.8 108.42"/>
  <polygon class="cls-2" points="143.03 127.87 140.72 127.87 140.72 108.42 144.73 108.42 149.63 124.74 149.69 124.74 154.64 108.42 158.74 108.42 158.74 127.87 156.26 127.87 156.26 110.57 156.21 110.57 150.76 127.87 148.42 127.87 143.09 110.57 143.03 110.57 143.03 127.87 143.03 127.87"/>
  <polygon class="cls-2" points="162.46 127.87 162.46 108.42 172.48 108.42 172.48 110.57 164.93 110.57 164.93 116.82 171.94 116.82 171.94 118.98 164.93 118.98 164.93 125.71 172.64 125.71 172.64 127.87 162.46 127.87 162.46 127.87"/>
  <polygon class="cls-2" points="188.72 108.42 188.72 127.87 185.33 127.87 177.65 111 177.6 111 177.6 127.87 175.39 127.87 175.39 108.42 178.89 108.42 186.46 125.07 186.51 125.07 186.51 108.42 188.72 108.42 188.72 108.42"/>
  <polygon class="cls-2" points="203.46 108.42 203.46 110.57 198.34 110.57 198.34 127.87 195.86 127.87 195.86 110.57 190.74 110.57 190.74 108.42 203.46 108.42 203.46 108.42"/>
  <path class="cls-2" d="M220.27,120.86v-6.57c0-4.07-2.8-4.2-3.58-4.2s-3.58.13-3.58,4.2v6.57c0,4.25,1.24,5.33,3.58,5.33s3.58-1.08,3.58-5.33h0ZM210.57,120.76v-6.39c0-3.88,1.99-6.35,6.12-6.35s6.11,2.48,6.11,6.35v6.39c0,5.39-1.99,7.52-6.11,7.52s-6.12-2.13-6.12-7.52h0Z"/>
  <polygon class="cls-2" points="226.24 127.87 226.24 108.42 235.89 108.42 235.89 110.57 228.72 110.57 228.72 116.82 235.51 116.82 235.51 118.98 228.72 118.98 228.72 127.87 226.24 127.87 226.24 127.87"/>
  <polygon class="cls-2" points="242.84 127.87 242.84 108.42 252.48 108.42 252.48 110.57 245.32 110.57 245.32 116.82 252.1 116.82 252.1 118.98 245.32 118.98 245.32 127.87 242.84 127.87 242.84 127.87"/>
  <polygon class="cls-2" points="257.12 127.87 254.64 127.87 254.64 108.42 257.12 108.42 257.12 127.87 257.12 127.87"/>
  <polygon class="cls-2" points="274.6 108.42 274.6 127.87 271.2 127.87 263.53 111 263.47 111 263.47 127.87 261.26 127.87 261.26 108.42 264.77 108.42 272.34 125.07 272.39 125.07 272.39 108.42 274.6 108.42 274.6 108.42"/>
  <path class="cls-2" d="M284.32,110.71h-.05l-3.04,10.37h6.22l-3.12-10.37h0ZM282.81,108.42h3.15l6.33,19.45h-2.77l-1.4-4.63h-7.52l-1.45,4.63h-2.51l6.17-19.45h0Z"/>
  <polygon class="cls-2" points="307.68 108.42 307.68 127.87 304.28 127.87 296.6 111 296.55 111 296.55 127.87 294.34 127.87 294.34 108.42 297.85 108.42 305.42 125.07 305.47 125.07 305.47 108.42 307.68 108.42 307.68 108.42"/>
  <path class="cls-2" d="M320.07,113.78c.03-1.1-.05-2.21-.56-2.83-.51-.62-1.67-.83-2.18-.83-2.05,0-2.86,1.24-2.94,1.51-.08.21-.57.7-.57,4.04v5.2c0,4.77,1.56,5.33,3.48,5.33.75,0,3.04-.27,3.07-4.07h2.56c.11,6.14-4.23,6.14-5.5,6.14-2.42,0-6.14-.16-6.14-7.71v-5.49c0-5.5,2.42-7.06,6.25-7.06s5.34,1.99,5.09,5.76h-2.56Z"/>
  <polygon class="cls-2" points="325.81 127.87 325.81 108.42 335.83 108.42 335.83 110.57 328.29 110.57 328.29 116.82 335.29 116.82 335.29 118.98 328.29 118.98 328.29 125.71 335.99 125.71 335.99 127.87 325.81 127.87 325.81 127.87"/>
  <path class="cls-2" d="M60.62,70.33c.43,0,.79-.15,1.09-.46.3-.3.46-.67.46-1.09s-.15-.79-.46-1.09c-.3-.3-.67-.46-1.09-.46s-.79.15-1.1.46-.45.67-.45,1.09.15.79.45,1.09c.3.31.67.46,1.1.46h0Z"/>
  <path class="cls-2" d="M65.77,70.33c.43,0,.79-.15,1.09-.46.3-.3.46-.67.46-1.09s-.15-.79-.46-1.09c-.3-.3-.67-.46-1.09-.46s-.79.15-1.09.46c-.3.3-.46.67-.46,1.09s.15.79.46,1.09c.3.31.67.46,1.09.46h0Z"/>
  <path class="cls-2" d="M110.48,92.44c-.43,0-.79.15-1.09.46-.31.3-.46.67-.46,1.09s.15.79.46,1.09c.3.3.67.46,1.09.46s.79-.15,1.09-.46c.3-.3.46-.67.46-1.09s-.15-.79-.46-1.09c-.3-.31-.67-.46-1.09-.46h0Z"/>
  <path class="cls-2" d="M105.83,92.44c-.43,0-.79.15-1.09.46-.31.3-.46.67-.46,1.09s.15.79.46,1.09c.3.3.67.46,1.09.46s.79-.15,1.09-.46c.3-.3.46-.67.46-1.09s-.15-.79-.46-1.09c-.3-.31-.67-.46-1.09-.46h0Z"/>
  <path class="cls-2" d="M148.68,86.7h-36.97v-11.63h-2.37v11.63h-41.39c-.36,0-.55-.21-.55-.64v-13.45c-.76.21-1.76.57-3.01,1.07-1.25.5-2.47,1.18-3.67,2.03-1.2.85-2.24,1.89-3.12,3.12-.88,1.23-1.32,2.68-1.32,4.35,0,.64.09,1.3.27,1.98.18.68.53,1.32,1.05,1.91.52.59,1.26,1.1,2.22,1.53.96.42,2.21.68,3.76.77l.18-2.37c-1.76-.15-3.06-.49-3.88-1.03-.82-.53-1.23-1.47-1.23-2.8,0-.97.23-1.84.69-2.6s1.01-1.43,1.65-2.01c.64-.58,1.33-1.07,2.07-1.48.73-.41,1.38-.75,1.93-1.03l.04,9.98c0,.97.24,1.72.72,2.23.48.52,1.1.77,1.88.77h83.42v-24.07h-2.37v21.7h0Z"/>
  <path class="cls-2" d="M202.29,86.6c-1.99-.06-3.54-.39-4.64-.98-1.1-.59-1.65-1.74-1.65-3.44,0-.85.22-1.6.67-2.23.44-.64,1-1.19,1.65-1.64.66-.46,1.35-.83,2.07-1.14.72-.3,1.35-.53,1.9-.68v10.12h0ZM241.64,86.7h-36.97v-13.08c-.7.06-1.66.23-2.88.52-1.23.29-2.44.77-3.65,1.43-1.21.67-2.26,1.54-3.16,2.62-.89,1.08-1.34,2.41-1.34,3.99,0,1.06.14,1.95.42,2.67.28.71.65,1.33,1.1,1.85h-38.08v-21.56h-2.37v23.93h89.3v-24.07h-2.37v21.7h0Z"/>
  <polygon class="cls-2" points="247.65 89.07 250.02 89.07 250.02 65.13 247.65 65.13 247.65 89.07 247.65 89.07"/>
  <path class="cls-2" d="M267.44,70.33c.42,0,.79-.15,1.09-.46.3-.3.46-.67.46-1.09s-.15-.79-.46-1.09c-.3-.3-.67-.46-1.09-.46s-.79.15-1.09.46c-.3.3-.46.67-.46,1.09s.15.79.46,1.09c.3.31.67.46,1.09.46h0Z"/>
  <path class="cls-2" d="M272.59,70.33c.42,0,.79-.15,1.09-.46.3-.3.46-.67.46-1.09s-.15-.79-.46-1.09c-.3-.3-.67-.46-1.09-.46s-.79.15-1.09.46c-.31.3-.46.67-.46,1.09s.15.79.46,1.09c.3.31.67.46,1.09.46h0Z"/>
  <path class="cls-2" d="M271.45,86.6h-.27c-.61,0-1.26-.06-1.96-.18-.7-.12-1.35-.33-1.96-.64-.61-.3-1.11-.7-1.51-1.18-.39-.49-.59-1.08-.59-1.78,0-.91.23-1.73.68-2.46.46-.73,1-1.37,1.64-1.94.64-.56,1.32-1.04,2.05-1.43.73-.39,1.37-.71,1.91-.96v10.58h0ZM269.81,74.09c-.82.38-1.65.85-2.48,1.39-.84.55-1.59,1.18-2.26,1.89-.67.72-1.21,1.52-1.64,2.42-.43.9-.64,1.89-.64,2.99,0,1.19.29,2.18.89,2.99.59.81,1.32,1.45,2.19,1.94.87.49,1.79.84,2.78,1.05.99.21,1.88.32,2.67.32h2.51v-16.37c-.42.09-1,.25-1.71.48-.71.23-1.48.53-2.3.91h0Z"/>
  <path class="cls-2" d="M312.43,68.93c.61,0,1.26.15,1.96.46l.46-1.15c-.82-.34-1.64-.51-2.46-.51-.61,0-1.17.17-1.69.51-.52.34-.77.92-.77,1.75,0,.37.06.72.18,1.06.12.34.24.54.36.6h-1.96v1.18h6.11v-1.18h-1.14c-.67,0-1.23-.13-1.68-.39-.46-.26-.68-.68-.68-1.27,0-.4.12-.68.37-.83.24-.15.56-.23.96-.23h0Z"/>
  <path class="cls-2" d="M311.52,86.7h-31.23v-11.67h-2.37v15.09c0,.82-.03,1.61-.09,2.37-.06.76-.22,1.44-.48,2.03-.26.59-.65,1.07-1.16,1.43-.52.37-1.22.55-2.1.55v2.37c1.4,0,2.51-.26,3.33-.8.82-.53,1.44-1.22,1.87-2.07.43-.85.7-1.79.82-2.83.12-1.03.18-2.05.18-3.05v-1.05h33.6v-14.04h-2.37v11.67h0Z"/>
  <polygon class="cls-2" points="317.58 89.07 319.95 89.07 319.95 65.13 317.58 65.13 317.58 89.07 317.58 89.07"/>
  <path class="cls-2" d="M335.55,78.88c-.3-1.05-.75-1.98-1.35-2.8-.6-.82-1.35-1.48-2.26-1.98-.91-.5-1.97-.75-3.19-.75-1.31,0-2.43.23-3.37.68-.94.46-1.72.94-2.33,1.46l1.41,1.82c.85-.61,1.61-1.03,2.28-1.25.67-.23,1.32-.34,1.96-.34.76,0,1.45.18,2.08.53.62.35,1.14.81,1.55,1.39.41.58.73,1.25.96,2.03.23.78.34,1.59.34,2.44,0,1.09-.11,2.02-.32,2.78-.22.76-.41,1.37-.59,1.83h-9.8v2.37h11.29c.12-.21.28-.54.5-.98.21-.44.41-.96.6-1.57.19-.61.36-1.29.49-2.05.13-.76.2-1.55.2-2.37,0-1.09-.15-2.17-.45-3.21h0Z"/>
  <path class="cls-3" d="M420.45,76.86c-.11.16-.19.3-.55.52-.4.24-.84.33-1.3.3-.61-.03-.94-.2-1.25-.64-.9-1.26-1.47-2.5-2.41-4.74-.82-1.96-.68-1.64-1.89-4.59-.58-1.41-1.6-3.63-2.2-4.42-.91-1.2-2.55-2.41-3.12-2.64-.72-.3-1.74-.54-2.82-.61-1.92-.11-3.84.16-4.65.38-.63.17-1.76.55-2.32,1.23-.08.1-.35.44-.7.6-.83.39-1.03.36-2.11,1.16-1.75,1.28-1.48,3.27-.56,4.04.01.01.03.02.05.02-.03-.51.02-.96.11-.93.1.03.96.6,2.28.42.97-.13,1.58,1.34,1.58,1.34l.16-.43s.31.92.57,1.13c.05-.06.13-.16.15-.21.29.36.76.6.8,1.2-.02.53-.24,1.04-.93,1.67-.26.24-1.79,1.5-3.42,3.17-.85.86-1.27,1.39-2.13,2.32-.44.48-.85.78-1.28.8-.07,0-.13,0-.19,0-.51,0-.91-.28-1.07-.48-.17-.22-8.46-11.17-12.43-16.42,7.2-7.02,19.12-8.18,22.1-7.96.7.05,1.49.6.61,1.75.64.29,3.06.07,3.97-.77.9.85,3.32,1.06,3.97.77-.88-1.14-.09-1.7.61-1.75,2.95-.21,14.29.32,22.21,8.14-3.87,5.12-9.05,11.6-11.83,15.63h0ZM455.46,98.25c.25-26.53-5.58-41.38-10.63-48.67,1.72-2.28,2.79-3.67,2.86-3.75.51-.51,1.38-1.31,3.19-1.56.5-3.5,1.8-7.66,1.8-7.66,0,0-3.5,2.52-6.76,3.93.25,1.76-.21,2.84-.65,3.48-.06.09-.88,1.18-2.22,2.95-2.18-2.57-4.81-4.94-8.57-7.12-.9-.51-1.87-1.01-2.91-1.48.07-1.43-.42-2.77-1.36-3.72-.04-.82-.73-1.86-1.57-2.17h0c-.86-.23-2.16.17-2.8.77-1.42.2-2.77.94-3.77,2.06-3.09-.66-6.61-1.15-10.64-1.39-.48-1.96-1.75-3.39-3.32-4.16-.4-.85-1.59-1.71-2.6-1.76h-.01c-1.01.05-2.19.91-2.6,1.76-1.56.77-2.84,2.2-3.32,4.16-4.03.25-7.55.73-10.64,1.39-1-1.12-2.36-1.86-3.78-2.06-.64-.6-1.93-1.01-2.8-.77h0c-.84.31-1.53,1.35-1.56,2.17-.94.96-1.43,2.3-1.36,3.72-1.04.47-2.01.97-2.92,1.48-3.77,2.18-6.16,4.22-8.4,7.02-1.22-1.61-1.95-2.59-2.01-2.68-.45-.65-.9-1.72-.65-3.48-3.26-1.41-6.76-3.93-6.76-3.93,0,0,1.31,4.15,1.8,7.65,1.8.25,2.68,1.05,3.19,1.56.07.07,1,1.29,2.53,3.31-5.07,7.24-10.99,22.22-10.74,48.92.03,2.47-1.03,25.6,6.51,41.19.85,1.58,3.11,5.77,7.23,9.64,3.41,3.22,7.45,5.49,12.02,6.69.14.04.42.11.56.15,5.67,1.54,10.54.66,12.51-.48l-.29.7c-.08.18-.19.47-.25.63-1.06,2.87-.35,5.84,3.52,6.28,1.02.11,2.17.16,3.51.79.94.45,1.99,1.15,3.14,2.35.48.5,1.49,1.79,1.98,2.8h0s0,0,0,0h0c.5-1,1.5-2.29,1.98-2.8,1.15-1.19,2.2-1.9,3.14-2.35,1.34-.63,2.48-.67,3.51-.79,3.88-.45,4.6-3.41,3.53-6.27-.06-.17-.18-.47-.26-.65-.07-.17-.29-.7-.29-.7,2.69,1.56,10.95,2.77,18.87-2.26,5.43-3.44,9.4-7.35,12.58-13.62,7.54-15.59,6.53-39.17,6.5-41.3h0Z"/>
  <path class="cls-4" d="M453.86,90.99c-2.22,1.79-4.32,3.6-11.22,7.58l-1.8.98v-1.3c.01-.14.51-17.67-8.01-32.78-.54.72-2.33,3-4.17,5.34,1.08-.13,2.19.16,3.19,1.14,1.76,1.73,4.64,5.89,6.31,10.2.91,2.7,1.62,6.39,1.43,9.55h0s-1.03,17.84-3.07,34.94c-1.85,15.53-2.88,17.57-2.88,17.57-1.19-1.43-1.68-3.25-1.96-4.29l-.17.15s-1.09-1.55-1.73-4.61c-.74-3.48-.87-9.71-.79-12.72v.02s.04-.88-.69-2.39c-.34-.71-.61-1.42-.79-2.18,0-.01-.01-.02-.01-.03-1.12-4.78-3.3-6.12-4.5-7.6-1.45-1.79-2.51-3.65-3.16-5.18-.04.03-.07.05-.12.09-.8.76-1.39,1.53-1.42,1.97.27,2.79.53,4.78.11,6.19-.17-.09-.44-.36-.58-.47.19,1.85-.69,3.98-.13,5.67l-1.09-.14c.05.12.08.22.12.27.15.2.29.33.55.47.05.03.27.13.36.17.1.04.37.15,1.12.39.63-1.39.15-2.72-.48-3.48-.52-.63.11-1.55,1.18-1.08,1.39.62,2.9,1.49,4.49,3,2.28,2.16,2.95,4.25,2.46,4.66-.38.32-.66.25-1.11.09,0,.08-.01.17-.04.25-.12.41-.47.7-.98.85l-.05.08c-.24.34-.64.47-1.33.45-.59-.01-1.24-.36-1.33-.4-.12-.06-.27-.15-.45-.33-.13.1-.27.21-.41.33,1.8,2.43,5.26,6.44,7.73,10.84,1.76,3.15,2.58,5.78,2.58,5.78,0,0-.94.3-2.18.03.44,1.25.67,2.36.58,3.21-.95.04-2.2-.08-3.5-.81.04.2.07.4.11.61,1.11.8,2.35,1.72,2.89,2.1-5.41,2.54-13.25,1.37-13.4,1.35-.37-.05-.71-.1-1.01-.14-.05.14-.12.32-.19.49.53,1.25,1.76,4.18,2.03,4.76,3.44,1.57,6.64,2.6,11.56,1.78,0,0,.84-.08,2.94-.79,2.16-.72,6.2-3.09,9.3-6,3.87-3.63,6.21-7.44,6.97-8.94,5.99-11.7,6.98-29.05,6.98-36.07,0-2.29,0-3.54,0-3.64-.04-2.36-.17-6.21-.26-7.99h0Z"/>
  <path class="cls-4" d="M395.48,152.48c.23-.64,1.32-3.24,1.87-4.55-.08-.23-.15-.46-.21-.68-.75.13-1.5.23-2.25.31-.5.05-7.96,1.2-13.37-1.34.66-.47,1.9-1.48,3.57-2.56.02-.11.04-.22.06-.33-1.3.73-2.55.85-3.5.81-.08-.85.15-1.95.58-3.21-1.23.28-2.18-.02-2.18-.02,0,0,.82-2.63,2.58-5.78,1.65-2.94,3.95-5.91,5.92-8.37.2-.97.96-1.78,1.05-1.87.05-.05.28-.31.33-.36-.22-.19-.44-.37-.64-.52-.22.23-.39.34-.53.41-.63.28-1.01.39-1.33.4-.69.03-1.08-.11-1.33-.45l-.04-.08c-.51-.14-.86-.44-.98-.85-.02-.09-.04-.17-.04-.26-.38.13-.65.15-.99-.14-.48-.41.19-2.5,2.47-4.66,1.59-1.51,3.1-2.39,4.49-3,1.08-.47,1.71.45,1.18,1.08-.63.75-1.11,2.09-.47,3.48.65-.21.91-.32,1.01-.36.25-.1.56-.19.9-.63.03-.04.07-.13.11-.24l-.95.11c.49-1.19-.26-4.12.23-6.02-.13.09-.46.31-.65.38-.35-1.73-.3-4.46-.16-5.8-.02-.34-.51-.95-1.18-1.63-.53,1.36-1.46,3.01-3.03,4.95-1.21,1.48-3.39,2.83-4.5,7.6,0,.01,0,.02-.01.03-.18.76-.45,1.47-.79,2.18-.73,1.51-.68,2.39-.68,2.39v-.02c.07,3.01-.06,9.24-.8,12.72-.64,3.06-1.73,4.61-1.73,4.61l-.17-.15c-.28,1.04-.77,2.86-1.96,4.29,0,0-1.02-2.04-2.87-17.57-2.04-17.1-3.07-34.95-3.07-34.95h0c-.19-3.15.52-6.84,1.43-9.55,1.67-4.31,4.54-8.47,6.31-10.2,1.1-1.07,2.32-1.32,3.51-1.09-.34-.45-.7-.94-.7-.94-1.17-1.56-2.53-3.27-3.69-4.8-8.35,14.71-8.14,32.26-8.14,32.41v1.87s-1.45-.78-1.45-.78c-6.57-3.73-9.42-5.98-11.56-7.75-.09,1.78-.27,7.83-.27,7.83,0,.11,0,1.38,0,3.67,0,7.01,1.26,24.23,6.98,36.07.8,1.48,2.93,5.43,6.8,9.05,2.93,2.76,6.35,4.72,10.14,5.94.22.07.66.22.88.29,4.38,1.39,9.13,1.1,13.81-1.24l.05-.13h0Z"/>
  <path class="cls-4" d="M399.03,156.93c.1-2.06.43-5.15.88-7.86-.68.66-1.24.98-1.3.98-.1,0-.22-.11-.35-.28-1.31,3.19-3.14,7.68-3.16,7.73.87-.73,2.23-1.26,3.93-.55h0Z"/>
  <path class="cls-4" d="M411.73,159c.1-2.18-.79-8.01-1.33-11.34-.06-.09-.12-.18-.18-.27-.11-.15-.21-.3-.31-.46-.19.66-.43,1.37-.75,2.07-.37.82-.96,1.68-1.08,1.66-.1,0-1.66-1.12-2.67-3.29-1,2.14-2.54,3.23-2.64,3.24-.11.01-.7-.85-1.07-1.67-.17-.37-.31-.74-.44-1.11-.52,3.49-1.28,9.1-1.19,11.17-3.25-2.15-5.21,0-4.54,1.49.07.13.14.25.22.35.39.52.9.8,1.61.85,1.04.07,2.42.18,3.99.91,1.43.67,2.98,1.78,4.55,3.74,1.57-1.96,3.12-3.07,4.55-3.74,1.57-.74,2.95-.84,4-.91.71-.05,1.21-.38,1.61-.85.08-.1.15-.22.22-.35.67-1.49-1.3-3.63-4.54-1.49h0Z"/>
  <path class="cls-4" d="M412.87,150.04s-.5-.25-1.08-.78c.45,2.4.86,5.41.97,7.67,1.7-.7,3.05-.17,3.92.55-.02-.04-1.98-5.08-3.17-8.14-.29.4-.57.7-.64.7h0Z"/>
  <path class="cls-5" d="M400.57,85.25h0s0,0,0,0"/>
  <path class="cls-5" d="M398.78,86.02h0s0,0,0,0"/>
  <path class="cls-1" d="M454.11,98.97c-.04-2.36-.17-6.21-.26-7.99-2.22,1.79-4.32,3.6-11.22,7.58l-1.8.98v-1.3c.01-.14.51-17.67-8.01-32.78-.54.72-2.33,3-4.17,5.34,1.08-.13,2.19.16,3.19,1.14,1.76,1.73,4.64,5.89,6.31,10.2.91,2.7,1.62,6.39,1.43,9.55h0s-1.03,17.84-3.07,34.94c-1.85,15.53-2.88,17.57-2.88,17.57-1.19-1.43-1.68-3.25-1.96-4.29l-.17.15s-1.09-1.55-1.73-4.61c-.74-3.48-.87-9.71-.79-12.72v.02s.04-.88-.69-2.39c-.34-.71-.61-1.42-.79-2.18,0-.01-.01-.02-.01-.03-1.12-4.78-3.3-6.12-4.5-7.6-1.45-1.79-2.51-3.65-3.16-5.18-.04.03-.07.05-.12.09-.8.76-1.39,1.53-1.42,1.97.27,2.79.53,4.78.11,6.19-.17-.09-.44-.36-.58-.47.19,1.85-.69,3.98-.13,5.67l-1.09-.14c.05.12.08.22.12.27.15.2.29.33.55.47.05.03.27.13.36.17.1.04.37.15,1.12.39.63-1.39.15-2.72-.48-3.48-.52-.63.11-1.55,1.18-1.08,1.39.62,2.9,1.49,4.49,3,2.28,2.16,2.95,4.25,2.46,4.66-.38.32-.66.25-1.11.09,0,.08-.01.17-.04.25-.12.41-.47.7-.98.85l-.05.08c-.24.34-.64.47-1.33.45-.59-.01-1.24-.36-1.33-.4-.12-.06-.27-.15-.45-.33-.13.1-.27.21-.41.33,1.8,2.43,5.26,6.44,7.73,10.84,1.76,3.15,2.58,5.78,2.58,5.78,0,0-.94.3-2.18.03.44,1.25.67,2.36.58,3.21-.95.04-2.2-.08-3.5-.81.04.2.07.4.11.61,1.11.8,2.35,1.72,2.89,2.1-5.41,2.54-13.25,1.37-13.4,1.35-.37-.05-.71-.1-1.01-.14-.05.14-.12.32-.19.49.53,1.25,1.76,4.18,2.03,4.76,3.44,1.57,6.64,2.6,11.56,1.78,0,0,.84-.08,2.94-.79,2.16-.72,6.2-3.09,9.3-6,3.87-3.63,6.21-7.44,6.97-8.94,5.99-11.7,6.98-29.05,6.98-36.07,0-2.29,0-3.54,0-3.64h0ZM416.69,157.48s-1.98-5.08-3.17-8.14c-.29.4-.57.7-.64.7-.05,0-.5-.25-1.08-.78.45,2.4.86,5.41.97,7.67,1.7-.7,3.05-.17,3.92.55h0ZM411.73,159c.1-2.18-.79-8.01-1.33-11.34-.06-.09-.12-.18-.18-.27-.11-.15-.21-.3-.31-.46-.19.66-.43,1.37-.75,2.07-.37.82-.96,1.68-1.08,1.66-.1,0-1.66-1.12-2.67-3.29-1,2.14-2.54,3.23-2.64,3.24-.11.01-.7-.85-1.07-1.67-.17-.37-.31-.74-.44-1.11-.52,3.49-1.28,9.1-1.19,11.17-3.25-2.15-5.21,0-4.54,1.49.07.13.14.25.22.35.39.52.9.8,1.61.85,1.04.07,2.42.18,3.99.91,1.43.67,2.98,1.78,4.55,3.74,1.57-1.96,3.12-3.07,4.55-3.74,1.57-.74,2.95-.84,4-.91.71-.05,1.21-.38,1.61-.85.08-.1.15-.22.22-.35.67-1.49-1.3-3.63-4.54-1.49h0ZM395.1,157.48c.87-.73,2.23-1.26,3.93-.55.1-2.06.43-5.15.88-7.86-.68.66-1.24.98-1.3.98-.1,0-.22-.11-.35-.28-1.31,3.19-3.14,7.68-3.16,7.73h0ZM395.43,152.6l.05-.13c.23-.64,1.32-3.24,1.87-4.55-.08-.23-.15-.46-.21-.68-.75.13-1.5.23-2.25.31-.5.05-7.96,1.2-13.37-1.34.66-.47,1.9-1.48,3.57-2.56.02-.11.04-.22.06-.33-1.3.73-2.55.85-3.5.81-.08-.85.15-1.95.58-3.21-1.23.28-2.18-.02-2.18-.02,0,0,.82-2.63,2.58-5.78,1.65-2.94,3.95-5.91,5.92-8.37.2-.97.96-1.78,1.05-1.87.05-.05.28-.31.33-.36-.22-.19-.44-.37-.64-.52-.22.23-.39.34-.53.41-.63.28-1.01.39-1.33.4-.69.03-1.08-.11-1.33-.45l-.04-.08c-.51-.14-.86-.44-.98-.85-.02-.09-.04-.17-.04-.26-.38.13-.65.15-.99-.14-.48-.41.19-2.5,2.47-4.66,1.59-1.51,3.1-2.39,4.49-3,1.08-.47,1.71.45,1.18,1.08-.63.75-1.11,2.09-.47,3.48.65-.21.91-.32,1.01-.36.25-.1.56-.19.9-.63.03-.04.07-.13.11-.24l-.95.11c.49-1.19-.26-4.12.23-6.02-.13.09-.46.31-.65.38-.35-1.73-.3-4.46-.16-5.8-.02-.34-.51-.95-1.18-1.63-.53,1.36-1.46,3.01-3.03,4.95-1.21,1.48-3.39,2.83-4.5,7.6,0,.01,0,.02-.01.03-.18.76-.45,1.47-.79,2.18-.73,1.51-.68,2.39-.68,2.39v-.02c.07,3.01-.06,9.24-.8,12.72-.64,3.06-1.73,4.61-1.73,4.61l-.17-.15c-.28,1.04-.77,2.86-1.96,4.29,0,0-1.02-2.04-2.87-17.57-2.04-17.1-3.07-34.95-3.07-34.95h0c-.19-3.15.52-6.84,1.43-9.55,1.67-4.31,4.54-8.47,6.31-10.2,1.1-1.07,2.32-1.32,3.51-1.09-.34-.45-.7-.94-.7-.94-1.17-1.56-2.53-3.27-3.69-4.8-8.35,14.71-8.14,32.26-8.14,32.41v1.87s-1.45-.78-1.45-.78c-6.57-3.73-9.42-5.98-11.56-7.75-.09,1.78-.27,7.83-.27,7.83,0,.11,0,1.38,0,3.67,0,7.01,1.26,24.23,6.98,36.07.8,1.48,2.93,5.43,6.8,9.05,2.93,2.76,6.35,4.72,10.14,5.94.22.07.66.22.88.29,4.38,1.39,9.13,1.1,13.81-1.24h0ZM357.2,89.03c.82.69,4.95,4.19,11.47,7.91.15-3.9.26-17.92,8.65-32.88-.96-1.27-1.38-1.83-2.29-3.04-.69.72-1.57,1.22-2.87,1.61.05-2.97-.59-4.59-1.41-6.33-1.19.03-3.21.08-6.4-.6-4.23,9.05-6.37,19.5-7.15,33.34h0ZM364.39,55.61c.39-.23,1.71-1.06,2.52-2.2.41-.58.71-1.13.97-1.65-.03-.04-.87-1.12-.87-1.12-.95,1.61-1.82,3.26-2.62,4.97h0ZM368.67,50.18c.14-.25.28-.45.4-.6-2.08-2.73-3.49-4.55-3.62-4.72-.34-.42-1.2-2.14-.94-3.52-2.56-1.19-4.33-2.45-4.33-2.45,0,0,4.03,5.34,8.5,11.29h0ZM368.94,48c.22.29.45.59.69.91,3.42-4.38,7.98-7.51,13.49-9.58-.44-.65-1.05-2.09.56-3.66,0,0,0,0,0,0,2.38.3,2.98,1.73,3.12,2.48,4.29-1.16,9.37-1.87,15.06-2.08.2-3.92,2.98-4.86,2.98-4.86,0,0,.05-.74.64-.99,0,0,.01,0,.01,0,.59.25.65.99.65.99,0,0,2.78.94,2.98,4.86,5.68.2,10.76.92,15.05,2.08.15-.74.74-2.18,3.12-2.48,0,0,0,0,0,0,1.61,1.57,1,3.01.56,3.66,5.51,2.07,10.21,5.32,13.64,9.7.24-.33.48-.64.71-.93-3.2-3.95-7.67-7.15-12.45-9.12.52-1.55,0-2.87-.91-3.8,0-.63-.36-1.17-.76-1.38,0,0,0,0,0,0-.46-.06-1.14.15-1.61.64-1.38.2-2.74.92-3.48,2.39-3.55-.86-7.55-1.42-12.67-1.69-.12-2.35-1.49-3.8-3.16-4.63-.35-.82-1.06-1.28-1.66-1.43-.61.15-1.32.61-1.66,1.43-1.68.83-3.04,2.28-3.16,4.63-5.11.27-9.12.83-12.67,1.69-.74-1.47-2.09-2.19-3.48-2.39-.47-.48-1.15-.7-1.61-.64h0c-.39.21-.76.76-.76,1.39-.92.93-1.43,2.25-.91,3.8-4.81,1.99-9.09,5.04-12.28,9.03h0ZM442.03,49.74c.06.1.31.53.37.64,4.59-6.1,8.79-11.68,8.79-11.68,0,0-1.77,1.26-4.33,2.45.25,1.38-.61,3.1-.94,3.52-.14.17-1.66,2.15-3.88,5.07h0ZM443.87,50.84c-.26.34-.81,1.08-.81,1.08.7,1.27,1.45,2.59,3.44,3.63-.79-1.61-1.67-3.18-2.63-4.7h0ZM430.86,65.75c.34-.47,2.02-2.71,4.27-5.71-.16-.19-.33-.4-.44-.6-1.55,2.07-3.13,4.19-4.65,6.24-1.12,1.53-2.89,3.99-2.91,4.25-.02.45,2.87-3.03,3.72-4.18h0ZM402.14,145.87c.23.74.65,1.71.93,2.2,0,0,1.48-1.21,1.93-3.95-.28.23-.75.6-1.13.84-.68.39-1.29.7-1.72.91h0ZM383.38,145.88c2.31.9,8.73.98,11.73.61,3.83-.48,6.78-1.64,9.24-3.38-.64-.55-1.43-1.27-2.24-2.04-1.29,1.04-2.44,1.87-3.17,2.16-4.59,1.85-10.63,2.31-10.63,2.31,0,0,7.88-1.78,10.62-3.28.52-.28,1.41-.98,2.46-1.87-1.02-.98-2.01-1.96-2.76-2.71-.51.45-.91.75-1.45,1.15-1.01.72-2.51,1.26-3.66,1.76-5.61,2.25-9.27,4.59-10.14,5.3h0ZM392.42,99.59c.41-1.3.89-9.6-2.4-13.18.85,3.21,1.92,6.97,2.4,13.18h0ZM386.19,78.99c-.17,1.09-.15,2.45.11,3.48.18.71.52,1.37.79,1.99.11-2.11-.44-4.41-.9-5.47h0ZM387.86,81.66c0,2.36.47,4.09,1.28,6.96.09-3.03-.54-6.13-1.28-6.96h0ZM375.89,59.78c2.42,3.22,4.24,5.65,4.6,6.15.85,1.15,3.74,4.63,3.72,4.19-.02-.27-1.78-2.73-2.91-4.26-1.63-2.2-3.33-4.49-5-6.71-.16.23-.3.45-.42.63h0ZM373.75,48.41s0-.01,0-.01c-.25-.27-.88-.82-2.42.28-2.74,2.37-1.86,4.53-4.68,6.43,1.01.18,1.82.24,2.5.24.45,0,.85-.03,1.2-.07.52-.06.94-.14,1.32-.2h0c.71,1.59,1.61,3.04,1.59,5.74,3.3-1.75,1.95-7.39,5.03-7.33-1.73-1.94-4.24-4.76-4.52-5.08h0ZM436.78,47.1c-1.78-1.75-4.6-3.7-7.99-5.18-8.85-3.88-20.08-3.9-23.29-3.9,0,0,0,0,0,0,0,0,0,0-.01,0-3.21,0-14.43.02-23.28,3.9-3.39,1.49-6.22,3.43-7.99,5.18,0,0,4.01,4.49,5.04,5.71.55.64.72,1.18.4,2.14,6.15-4.12,13.14-6.18,25.6-6.26h.56c12.24.11,19.44,2.18,25.53,6.26-.32-.96-.14-1.49.4-2.14,1.04-1.21,5.04-5.71,5.04-5.71h0ZM435.03,56.53c.41,1.41.84,2.98,2.03,3.93.17.13.35.25.54.35l.03.02c-.03-2.7.88-4.16,1.59-5.74h0s0-.01,0-.02c1,.15,2.32.52,5.01.03-2.55-1.72-2-3.64-3.89-5.75-.2-.22-.43-.45-.7-.68-.68-.48-1.17-.65-1.54-.66-.48-.02-.74.23-.87.38-.25.27-2.9,3.12-4.64,5.08,1.56-.04,1.97,1.4,2.44,3.05h0ZM432.87,60.44c.27-.36.54-.71.8-1.06-3.62-3.2-9-6.44-14.89-7.71-3.99-.86-7.16-.94-9.17-.91-1.64.02-2.7.66-2.7,1.68-1.02-.19-1.3-1.48-1.43-1.71-.1.54-.6,1.58-1.42,1.71,0-1.03-1.05-1.66-2.7-1.68-2-.03-5.18.05-9.17.91-6.01,1.3-11.19,4.26-14.81,7.51.27.35.53.7.8,1.06,3.25-3.06,7.58-5.48,12.2-6.83,3.83-1.12,8.53-1.52,10.7-1.42,1.92.09,2.2,1.18,1.97,1.78.86.09,2.15-.66,2.42-1.17.2.38,1.38,1.24,2.43,1.17-.23-.6.05-1.69,1.97-1.78,2.17-.1,6.87.3,10.7,1.42,4.51,1.32,9.03,4.05,12.28,7.04h0ZM418.6,77.68c.46.02.9-.06,1.3-.3.36-.22.44-.36.55-.52,2.78-4.04,7.96-10.52,11.83-15.63-7.92-7.82-19.26-8.35-22.21-8.14-.7.05-1.49.6-.61,1.75-.64.29-3.06.07-3.97-.77-.91.85-3.33,1.06-3.97.77.88-1.14.09-1.7-.61-1.75-2.98-.22-14.91.94-22.1,7.96,3.97,5.25,12.26,16.21,12.43,16.42.16.2.57.48,1.07.48.07,0,.13,0,.19,0,.44-.02.84-.31,1.28-.8.85-.93,1.28-1.46,2.13-2.32,1.63-1.67,3.17-2.93,3.42-3.17.69-.64.91-1.14.93-1.67-.04-.6-.51-.84-.8-1.2-.02.05-.1.15-.15.21-.26-.21-.57-1.13-.57-1.13l-.16.43s-.61-1.47-1.58-1.34c-1.33.18-2.19-.39-2.28-.42-.08-.02-.14.42-.11.93-.02,0-.04,0-.05-.02-.91-.77-1.19-2.76.56-4.04,1.08-.79,1.28-.76,2.11-1.16.35-.17.62-.5.7-.6.56-.68,1.69-1.07,2.32-1.23.81-.22,2.73-.48,4.65-.38,1.08.06,2.1.31,2.82.61.57.23,2.21,1.44,3.12,2.64.6.79,1.63,3.01,2.2,4.42,1.21,2.95,1.07,2.63,1.89,4.59.94,2.24,1.51,3.48,2.41,4.74.31.43.64.6,1.25.64h0ZM394.34,99.16c0,1.17.82,2.79,1.94,3.44-.66-1.79-1.19-2.37-1.94-3.44h0ZM409.4,112.21c-.42.67-.76,1.05-1.3,1.52.17-.49.22-1.03.22-1.04-.25.51-.85,1.25-1.25,1.64-.96.96-1.14,1.89-1.14,1.89,0,0,.26-.34,1.42-1.03,1.22-.72,1.67-1.83,2.05-2.97h0ZM410.18,124.37c-.33-.45-1.23-1.63-2-2.33.52,1.24.76,2.03.84,2.34h0s.08-.05.13-.07c.13-.06.27-.1.41-.09.13,0,.27.04.45.09,0,0,.12.04.18.06h0ZM409.55,134.35c.7.68,1.48,1.47,2.09,2.09.36-.4.67-.73.91-1l-2.11-1.95s-.34.33-.89.86h0ZM405.74,130.49c.94.99,2.19,2.3,3.02,3.1.54-.52.87-.84.87-.84l-3.23-2.97c-.13.15-.36.39-.67.71h0ZM405.39,128.7c0,.5.02.89.02,1.08.04-.04.53-.56.53-.56,0,0-.41-.36-.55-.52h0ZM405.38,128.09s.54-.65.8-.92c.01-.02.03-.03.04-.05-.16-1.15-.42-2.59-.8-3.13-.08.54-.06,2.57-.04,4.1h0ZM406.73,122.63c.15.9.27,2.99.3,3.66t0,0c.24-.25.5-.51.75-.76-.05-.32-.34-1.98-1.05-2.9h0ZM405.29,121.75s.21-.08.68-.37c.42-.25.78-.54.99-.93.22-.42.18-.79.15-1.04,0,0-.09.39-.64.9-.24.21-.56.53-.74.76-.29.36-.43.68-.43.68h0ZM404.52,115.78c.01-1.5-1.63-1.67-2.02-3.16-.19,2.09,1.27,2.12,2.02,3.16h0ZM405.42,119.19s0-.02,0-.03v.03s.13-.31.61-.67c.31-.23,2.2-1.36,2.57-1.86.36-.5.51-1.18.51-1.18,0,0-.34.54-1.09.98-.63.37-2.12,1.29-2.38,1.74-.13.23-.19.42-.21.58-.01-.13-.05-.28-.12-.44-.46-.96-1.82-1.34-2.64-2.29-.53-.62-.55-.87-.55-.87-.02.64.11,1.11.36,1.47.23.32.92.9,1.82,1.5.92.61,1.11,1.05,1.11,1.05h0ZM404.73,121.11s-.17-1.16-1.03-1.54c.04.84,1.03,1.54,1.03,1.54h0ZM404.29,127.14c-.03-.91-.07-1.9-.13-2.33-.28.41-.47,1.01-.6,1.57.07.08.66.69.73.76h0ZM399.33,124.68c.25-.09.89-.38,1.24-.47.08-.02.21-.04.26-.05h0c.2-.69.51-1.74.74-2.23-.2-.06-1.89,2.28-2.23,2.75h0ZM402.02,124.84s.49.48.58.57c.1-.69.44-2.97.3-3.19-.77,1.48-.88,2.49-.89,2.62h0ZM402.08,112.04s.01-.4-.24-.91c-.14-.27-.58-.61-.79-.87-.18-.22-.21-.34-.21-.34-.05.25.06.85.13,1.1.08.28.27.56.58.76.34.21.52.26.52.26h0ZM401.43,127.77c-.1.1-6.76,6.37-6.76,6.37.43.43.87.91,1.18,1.21.13.14.21.13.31.03.42-.38,7.15-6.54,7.71-7.05.06-.05.07-.11.01-.17-.31-.32-1-1.11-1.52-1.67-.61-.65-1.4-1.46-1.89-1.32-.54.16-.58.17-1.27.32-1.46.26-2.52-.06-3.1-.2-.05,0-.1-.03-.15-.04-.02.16-.04.32-.06.47-.02.13-.05.29-.09.45.7.14,1.08.11,2.8.13.53,0,.86.17.4.69,0,0-4.41,4.4-4.66,4.66-.93.87-.98,1.08-.71,1.38.07.08.04.03.29.29l1.8-1.6,2.87-2.56s2.09-1.94,2.18-2.05c.1-.11.25-.1.3-.04.05.06.34.35.39.41.05.06.04.19-.07.29h0ZM411.82,126.36c1.64-.02,2.06,0,2.7-.11-.04-.19-.08-.36-.11-.52-.02-.12-.03-.25-.05-.38-.01,0-.02,0-.04,0-.57.13-1.64.46-3.09.2-.7-.14-.73-.16-1.27-.32-.49-.14-1.28.67-1.89,1.32-.52.55-1.21,1.34-1.52,1.66-.05.06-.04.12.01.17.56.51,7.3,6.67,7.71,7.05.11.1.18.11.32-.03.3-.31.75-.78,1.18-1.21,0,0-6.66-6.27-6.77-6.37-.1-.11-.11-.23-.07-.29.05-.06.34-.36.39-.41.05-.06.21-.07.3.04.1.11,2.18,2.05,2.18,2.05l2.87,2.55,1.8,1.6c.26-.27.23-.21.3-.29.27-.3.2-.49-.71-1.38-.26-.25-4.67-4.66-4.67-4.66-.46-.52-.12-.69.4-.69h0ZM410.45,108.24s1.05-1,1.44-4.3c.2.25.58.49.69.96.67-.81,2-5.24,2.14-6.75.44.19.05.1.55.35.36-.65,1.12-3.16,1.45-6.66.16.05.45.05.56.19.23-1.59.47-4.16.54-5.95.06-1.54.01-4.72-.64-6.54-.66-1.82-.96-2.79-2.02-4.46,0,0-.38.18-.57.44-.29-.88-1.09-3.01-1.49-3.78-1-1.95-1.48-3.21-2.52-3.87.47.03.65.13,1.25.11-.68-.64-.93-1.08-1.7-1.67.25-.17.69-.15,1.42-.03-1.03-.94-1.38-2.37-4.02-3.37.47-.08.84.08,1.47.06-.33-.52-1.14-1.38-2.46-1.77-2.71-.53-6.46-.62-8.2,1.45-.12.15-.6.24-1.02.4-.3.11-.42.2-.5.26-.3.22-.36.53.22,1.36-.76-.11-.96-.84-1.09-.77-.28.18-.53.4-.8.82-.25.38-.48,1.18-.42,1.52.09.07.72.36.85-.39.05-.26,1.23-.37,1.64-.37.59,0,1.15.14,1.89.11-.27.1-1.1.34-1.41.43-.33.1-.36.45-.05.48.34.04.5-.12.83-.19.15.09,0,.46.12.68,2.18-.5,2.34,1.85,4.67,1.38-1.1-.85-2.03-2.29-2.89-2.72,2.3.36,3.54,2.42,6.03,2.53q-.09-.24-.3-.66c.85,0,1.45.65,1.7.63-.32.34-1.03.62-1.98.75.17.31,1.1.38,1.41.44-.51.45-1.08.67-2.2.45-.36.34-.86,1.12-2.48,2.1q.02-.4.08-.77c-1.07.62-1.77,1.75-2.57,2.05.23-.39.43-1.09.61-1.44-2.8,2.53-5.47,4.97-6.48,6.8-1.13,2.04-1.48,4.16-1.34,7.64.11,1.86.9,7.15,1.05,8.19.22-.1.38-.18.57-.25.67,3.87,2.69,9.32,3.73,11.09.19-.43.31-.61.61-.83.17,1.04.71,2.21,1.57,2.97-.03-.7.28-1.1.35-1.35.23.75.1,3.08,1.44,4.38-.08-.64.16-1.18.34-2.04.23.74.28,1.68.64,2.44.42.89.94,1.77,1.43,2-.06-1.84.22-1.75.29-2.5.03.16.72.82,1.06,3.14,1.36-1.04,1.88-4.47,1.88-4.46,0,0,.39.34.68,1.29,1.18-1.23,1.55-2.87,1.9-4.1.12.87.16,1.72.05,2.14h0ZM388.44,93.41c1.01,1.45,2.96,6.01,2.91,9.18,1.21-3.13-.74-9.35-2.62-12.81-.02,1.02-.24,1.3-.5,1.73-.36-3.97-2.85-6.87-3.28-9.65-.08.49-.16.83-.28,1.22-.92-1.56-1.68-3.39-2.26-5.67-.16.18-.45.86-.46,1.64-1.24-3.44-.04-4.83.31-5.04.94-.55,2.07.33,2.94,1.3,1.31,1.46,2.69,4.37,7.08,4.44.72.01.99-.16.62-.23.04,0,.03,0-.01,0-3.65-.67-4.3-2.14-7.35-5.46-1.89-2.06-3.78-3.25-6.02-.62-4.35,5.13-5.74,9.44-6.52,13-.44,2.02-.74,6.31-.2,8.41.51-.18.55-.32.55-.32,0,0,.57,5.85,1.58,7.31.29-.62.71-2.16.71-3.54.56,1.73,1.06,2.65,1.82,3.64.4-1.46.41-2.82.21-4.41.88,2.09,1.55,2.98,2.02,3.31.37-.93.75-2.44.45-7.25.35,1.81.54,3.21.62,4.32.25.2.59.46.93.6.16-.49.64-1.19-.16-7.24,2.02,6.55.9,8.32.7,8.79-.68-.4-1.14-.86-1.42-1.22.03,1.95-.34,2.76-.65,3.46-.77-.4-1.21-.98-1.72-1.71.06,2.05-.46,3.29-.46,3.29,0,0-1.53-1.67-1.9-2.91.04.79-.51,3.13-.96,3.54-1.67-2.2-2.25-8.47-2.25-8.47,0,0-.11.08-.25.18.09,1.53.28,3.9.51,6.58v.02c.27,3.12.58,6.66.86,9.79.65,7.51,1.5,15,2.49,22.48,0,0,.13,1.23.34,1.9.23-.75.29-3.76.15-5.39-.04-.41.57-1.09.53-3.34-.01-.91-1.05-12.45-1.4-16.96-.04-.56-.11-1.78-.11-1.79.03.14.07.3.1.48.35,1.71.62,3.43.88,5.15.15,1.02.31,2.12.46,3.23.47,3.33.87,6.72.95,10.07.05,2.15-.66,2.76-.59,3.24.38,2.68.09,5.28-.49,6.77-.23-.07-.38-.29-.46-.41.36,2.05.84,3.68.84,3.68.79-1.72,1.25-3.57,1.12-8.14-.01-.36.66-1.39.78-3.74.04-.7-.09-2.91-.29-5.65-.35-4.91-.77-9.8-1.16-14.7-.02-.23-.06-.82-.07-.86.05.21.11.44.16.68,1.38,6.29,1.92,12.84,2.25,19.23.16,2.9-.93,5.06-.89,5.47.15,1.45.14,1.36.1,2.62-.05,1.51-.15,1.73-.15,1.73.49-1.12,2.08-4.88,1.54-16.61-.01-.28-.03-.57-.04-.86-.43-8.17-1.08-13.5-1.08-13.5.76,2.28,1.42,7.2,1.86,12.9.05-.08.11-.19.16-.3.82-2.17.96-4.36.81-6.66-.28-4.29-.79-7.81-.78-7.8,0,0,.1.32.11.35.16.48.53,1.75.96,3.95.31,1.52.52,3.06.64,4.61.01.22.02.44.03.64h0c1.63-2.43.93-7.3.13-12.35.72,1.61,2.02,6.16,1.66,9.58,2.44-2.29,1.12-6.86.19-12.09,1.39,3.12,2.41,6.92,2.07,9.43,1.99-2.58,1.25-6-.53-12.7,1.08,1.76,2.56,6,2.65,8.6,1.3-3.03-.21-8.08-1.49-12.15h0ZM391.01,117.02c.39-.63-.18-.8-1.32-.09-.67.41-3.03,1.95-4.21,3.59-.28.39-.19.61.31.11,1.19-1.19,2.98-2.85,2.95-2.06-.03.7.1,1.4.34,2.08.19-.04.37-.09.54-.14l1.55-.41c-.49-1.21-.6-2.36-.15-3.08h0ZM390.28,125.13c-.64.69-1.15,1.46-1.16,2.44.02.71.45,1.1,1.03,1.07.9-.1.44-1.06.95-.46.21.24.89-.55,1.07-.73-.39.06-.95.13-.86-.45.07-.42.39-.78.64-1.1.24-.3.98-1.69,1.46-1.52.23.16.09,1.48-.29,2.29-.81,1.72-.94,2.86-.38,3.19l.05.03v.05c-.09.6-.09,1.29.65,1.7l.07-.07c-.18-.6-.01-.96.04-1.25.01-.06.05-.26-.45-.4l-.04-.02h.03c.19,0,.63.03.81,0,.33-.05.71-.11.79-.76.02-.22.05-.44.07-.66.1-.98.28-1.87.42-2.55.17-.78.37-2.68.37-2.68,0,0,.19-.06.38-.04.23.02.55.13.72.57.05.13.08.33.02.65.19-.1.48-.3.51-.68v-.04s.03-.02.03-.02c.29-.2.42-.43.46-.67.11-.68-.68-1.38-.76-1.43-.47-.37-.31-1.07-.11-1.68l.27-.72c.24.29.55.58.93.79,1.1.77,2.19.59,2.19.59,0,0-.25-.61-.33-1.39-.11-1-.07-1.87-.07-1.87l.83.9s.49-1.65.17-4.77c-.37-3.61-1.13-5.02-1.3-5.52-.26-.82-.72-1.62-.72-1.62,0,0-.07.43-.66.94-.7-.87-1.93-2.58-2.24-3.75-.18.34-.46.64-.69.86l-.13.12-.02-.17c-.14-.87-.63-1.51-1.11-2.14-.34-.44-.66-.87-.82-1.33-.29.93-.35,1.97-.4,2.91-.06.92-.11,1.74-.36,2.28.17-.09.31-.19.43-.25.21-.13.31-.2.4-.19h.07s.03.04.03.04c.04.04.04.1.04.16-.28,1.22-.52,2.65-.59,3.5-.1,1.26,0,2.36.09,2.87.08-.09.94-.54.94-.54,0,0-.56,1.81-.27,4.81.04.47,0,1.37-.06,1.64.57-.08,1.05-.36,1.32-.51-.22.8-.41,1.53-.61,1.8-.74,1.02-2.32,1.28-3.48,1.58-1.43.38-2.86.68-4.19,1.34-.44.22-.86.67-.76,1,.11.35.61.43.8.43l.1.22c.33.48,1.36.19,1.62.07.3-.14.51-.31.57-.4-.05.08-.4-.04-.61-.13-.08-.03-.15-.12-.15-.17-.07-.61,2.49-.69,2.85-.68.4,0,.53.09.68.35.1.16.22.53-1.29,2.2h0ZM391.5,133.99c-.49,1.55-1.49,3.87-3.05,6.1-.76,1.09-1.91,2.24-1.91,2.24,0,0-.06.2-.12.53l-.24.13,1.28-.71c.21-.11.42-.21.63-.31.84-.46,1.77-.88,2.7-1.28.91-1.65,2-3.59,2.34-4.11-.11.4-.31,1.51-1.3,3.68l.69-.28c1.45-.57,2.71-1.02,3.32-1.31,1.01-.45,1.47-.84,1.86-1.13.08-.06.22-.19.41-.36.02.02-1.03-1.04-1.03-1.04l-.35.29s-.6.57-1.16.07c-.47-.42-2.6-2.79-2.79-3.01-.21-.25-.45-.67.04-1.42,0,0,.01-.02.03-.04-.67-.61-.76-1.44-.75-1.84-.3-.33-.42-.82-.35-1.45-.21.13-.43.19-.64.17-.22.23-.52.38-.88.42-.07,0-.1,0-.13,0-.36,0-.7-.09-.95-.3-.3-.24-.3-.22-.52-.66-.01-.03-.02-.06-.04-.09-1.23,1.3-2.37,2.94-4.02,5.56-2.04,3.25-2.52,4.44-2.95,5.69,1.34-.08,2.1-.29,3.85-2.12.81-.85,2.94-4,4.29-5.69-1.13,2.78-2.36,4.89-3.39,6.29-1.2,1.64-2.41,2.63-2.41,2.63,0,0-.51.32-.82,1.98.91-.02,3.27-1.32,5.49-4.29.69-.93,1.15-1.67,2.9-4.32h0ZM406.08,144.52c.02,1.63,1.34,3.29,1.68,3.56,0,0,.51-.62.74-2.22-1.12-.49-1.89-.98-2.42-1.34h0ZM415.34,146.43c3,.38,9.42.29,11.73-.61-.87-.7-4.54-3.05-10.14-5.29-1.15-.5-2.65-1.04-3.66-1.76-.63-.45-1.05-.78-1.67-1.35-1.85-1.7-6.7-6.76-7.56-7.7l-3.23,2.97s8.54,8.34,10.7,9.51c2.75,1.49,10.62,3.28,10.62,3.28,0,0-6.04-.46-10.63-2.31-2.76-1.12-11.5-9.73-11.5-9.73l-2.11,1.95c1.08,1.19,3.42,3.83,7.23,6.92,2.66,2.16,5.87,3.58,10.22,4.12h0ZM421.4,131.83c1.34,1.68,3.47,4.83,4.28,5.69,1.76,1.83,2.5,2.04,3.85,2.12-.43-1.25-.89-2.47-2.94-5.72-1.08-1.73-2.89-4.48-4.73-6.56.01.32-.03.63-.12.94-.03.07-.06.13-.1.2-.13.21-.28.4-.48.54-.3.21-.67.3-1.03.27-.37-.04-.68-.18-.9-.42-.22.02-.44-.04-.65-.17.07.64-.04,1.12-.34,1.45,0,.39-.08,1.19-.7,1.79.06.08.1.13.1.13.44.79.25,1.17.04,1.42-.19.22-2.31,2.58-2.79,3.01-.56.51-1.17-.07-1.17-.07l-.35-.29s-.54.55-.98.98c.04.04.07.07.11.11h0c.69.64,1.53,1.11,2.39,1.47.77.33,3.03,1.17,4.55,1.79-.36-1.12-.79-2.4-1.22-3.66.39.53,1.49,2.47,2.42,4.18-.06-.03.12.05.06.03,1.21.55,2.84,1.36,4.06,2.1-.1-.43-.18-.71-.18-.71,0,0-1.13-1.16-1.89-2.25-1.56-2.23-2.56-4.55-3.04-6.1,1.75,2.65,2.2,3.39,2.9,4.33,2.22,2.98,4.57,4.27,5.49,4.29-.32-1.65-.91-2.02-.91-2.02,0,0-1.09-.91-2.26-2.5.28.38.54.74-.06-.08-.45-.62-.27-.38-.04-.05-1.02-1.41-2.23-3.49-3.35-6.24h0ZM419.29,120.13l1.41.37c.21.06.44.12.68.17.24-.68.36-1.37.33-2.06-.03-.78,1.76.87,2.95,2.06.5.51.59.29.3-.11-1.19-1.63-3.55-3.18-4.21-3.59-1.14-.7-1.71-.53-1.32.09.45.71.34,1.86-.14,3.06h0ZM417.12,105.81c0-.05,0-.11.04-.15,0,0,.02-.02.04-.03.03,0,.05-.01.05-.01.09,0,.2.06.41.19.11.07.26.16.43.25-.25-.54-.3-1.36-.35-2.28-.06-.93-.09-1.9-.37-2.83,0,.01-.06-.1-.07-.13-.16.46-.48.89-.82,1.33-.48.63-.97,1.28-1.11,2.14l-.03.17-.13-.12c.25.23-.68-.84-.7-.86-.36,1.37-2.7,4.32-3.25,4.93h0c-.07.11-.97,1.44-1.32,4.74-.33,3.12,0,5.04,0,5.04l.83-.9s.04.87-.07,1.87c-.08.78-.33,1.39-.33,1.39,0,0,1.63.28,2.91-1.26l.23.6c.21.6.36,1.31-.11,1.68-.07.06-.86.75-.76,1.43.04.24.17.47.46.67l.03.02v.04c.03.38.32.59.51.68-.07-.32-.03-.52.02-.65.17-.44.49-.56.73-.57.18-.02.38.04.38.04,0,0,.2,1.9.36,2.68.15.68.33,1.57.43,2.55.02.22.05.44.07.66.07.65.45.71.79.76.18.03.62,0,.81-.02h.03s-.05.03-.05.03c-.49.13-.46.33-.44.4.06.29.23.64.05,1.25l.07.07c.74-.41.74-1.09.66-1.7v-.05s.04-.03.04-.03c.56-.33.43-1.46-.38-3.19-.38-.81-.54-2.17-.29-2.29.01,0,.03-.02.04-.02.13-.02.29,0,.67.55.26.39.53.72.87,1.14.32.4.54.76.53,1.1,0,.12-.04.21-.1.26-.05.04-.13.06-.24.07-.17.01-.37-.01-.53-.04.18.19.87.98,1.07.73.51-.59.05.36.95.46.58.03,1-.36,1.03-1.07,0-.25-.04-.41-.07-.63-.12-.67-.64-1.33-.89-1.59l-.2-.21c-1.51-1.67-1.38-2.04-1.29-2.2.15-.26.28-.34.68-.35.59-.01,1.24.08,1.27.08.61.12,1.62.28,1.58.6,0,.05-.07.14-.16.17-.21.09-.56.21-.61.13.05.09.27.26.57.4.26.12,1.3.41,1.62-.07l.11-.22c.18,0,.69-.08.79-.43.1-.32-.32-.77-.76-1-.36-.18-1.4-.59-2.25-.85-.34-.1-.77-.18-1.09-.28l-1.82-.47s-1-.32-1.35-.48c-.18-.08-.32-.15-.39-.19-.31-.17-.54-.35-.77-.66-.21-.28-.4-1.02-.62-1.83.22.12.77.49,1.44.59-.05-.27-.1-1.17-.06-1.64.28-3.01.34-4.74.34-4.74,0,0,.52.53.6.63.1-.52-.08-1.78-.18-3.04t0-.02c-.07-.86-.31-2.27-.59-3.48h0ZM424.66,82.33c.26-1.03.28-2.39.11-3.48-.46,1.06-1.01,3.36-.9,5.47.27-.63.61-1.29.78-1.99h0ZM421.82,88.47c.81-2.87,1.28-4.6,1.28-6.96-.74.83-1.37,3.92-1.28,6.96h0ZM419.16,85.88c1.04-3.12.17-4.7-.44-5.02-.02,1.43.36,2.11.44,5.02h0ZM418.54,99.45c.47-6.21,1.55-9.97,2.4-13.18-3.29,3.58-2.81,11.88-2.4,13.18h0ZM433.3,97.4c-.2,1.59-.2,2.95.2,4.41.76-.99,1.26-1.91,1.82-3.64,0,1.38.41,2.92.71,3.54,1-1.46,1.57-7.31,1.57-7.31,0,0,.03.14.55.32.54-2.09.24-6.39-.2-8.41-.77-3.56-2.17-7.87-6.52-13-2.24-2.64-4.13-1.44-6.02.62-3.05,3.31-3.7,4.78-7.35,5.46-.04,0-.05,0-.01,0-.36.07-.09.24.62.23,4.4-.07,5.77-2.98,7.09-4.45.87-.97,2-1.84,2.94-1.3.35.21,1.55,1.6.31,5.04,0-.79-.3-1.47-.45-1.64-.58,2.28-1.34,4.11-2.26,5.67-.12-.38-.2-.73-.28-1.22-.43,2.78-2.92,5.67-3.28,9.65-.26-.43-.48-.71-.5-1.73-1.88,3.47-3.83,9.69-2.62,12.81-.05-3.18,1.9-7.74,2.91-9.18-1.29,4.07-2.79,9.12-1.5,12.15.09-2.6,1.58-6.84,2.65-8.6-1.78,6.7-2.52,10.11-.53,12.7-.34-2.51.68-6.32,2.07-9.43-.92,5.23-2.25,9.79.2,12.09-.36-3.42.95-7.97,1.66-9.58-.8,5.05-1.5,9.92.13,12.35,0-1.75.31-3.55.67-5.25.43-2.21,1.08-4.33,1.08-4.33,0,0-.51,3.53-.79,7.82-.04.72-.06,1.44-.05,2.16.02.88.08,1.77.26,2.63.14.73.36,1.51.76,2.16.45-5.7,1.1-10.62,1.86-12.9,0,0-.65,5.33-1.08,13.5-.02.29-.03.58-.04.86-.53,11.73,1.05,15.49,1.54,16.61,0,0-.1-.22-.15-1.73-.04-1.27-.05-1.17.1-2.62.04-.42-1.05-2.57-.89-5.47.09-1.74.21-3.48.36-5.17.13-1.55.28-3.05.44-4.49.18-1.32.3-2.57.49-3.91.26-1.89.63-3.78.97-5.66.27-1.49.12-.18.1.18-.13,1.69-.45,5.38-.74,9.19-.2,2.83-.84,8.45-.7,11.17.12,2.36.79,3.39.78,3.74-.13,4.57.32,6.42,1.12,8.14,0,0,.47-1.63.83-3.68-.08.12-.23.34-.46.41-.58-1.49-.87-4.09-.49-6.77.07-.48-.64-1.08-.59-3.24.08-3.37.53-6.73.95-10.07.15-1.12.3-2.21.46-3.23.1-.66.2-1.32.31-1.98.15-1.06.34-2.12.57-3.17.04-.17.07-.34.1-.48,0,.01-.03.77-.11,1.79-.37,4.52-1.39,16.05-1.4,16.96-.04,2.26.57,2.94.53,3.35-.15,1.63-.09,4.64.15,5.39.22-.67.34-1.9.34-1.9,0,0,.64-4.68,1.38-11.34.11-1.02.23-2.05.33-3.08.1-.96.2-1.95.3-2.97.11-1.19.23-2.37.34-3.56.05-.51.09-1.02.14-1.54.28-3.13.59-6.67.86-9.79,0,0,.42-5.07.51-6.6-.14-.1-.25-.18-.25-.18,0,0-.57,6.26-2.25,8.47-.45-.41-.99-2.76-.96-3.54-.37,1.24-1.89,2.91-1.89,2.91,0,0-.52-1.24-.46-3.29-.51.74-.96,1.31-1.72,1.71-.31-.7-.68-1.51-.65-3.46-.28.36-.73.82-1.42,1.22-.2-.48-1.32-2.25.7-8.79-.8,6.05-.33,6.75-.17,7.24.34-.15.68-.4.93-.6.08-1.1.27-2.5.62-4.31-.3,4.81.08,6.32.45,7.25.48-.34,1.15-1.23,2.03-3.31h0ZM446.59,55.69c-3.19.68-5.21.64-6.4.6-.82,1.73-1.46,3.36-1.41,6.33-1.3-.39-1.97-.78-2.66-1.5-.91,1.21-1.42,1.88-2.38,3.15,8.39,14.96,8.38,28.77,8.53,32.67,6.52-3.71,10.65-7.21,11.47-7.91-.78-13.84-2.92-24.29-7.15-33.34h0ZM448.96,139.54c-3.18,6.27-7.15,10.17-12.58,13.62-7.93,5.03-16.19,3.82-18.87,2.26,0,0,.21.52.29.7.08.19.2.49.26.65,1.06,2.86.34,5.82-3.53,6.27-1.02.11-2.17.16-3.51.79-.94.45-1.99,1.16-3.14,2.35-.48.5-1.49,1.79-1.98,2.8h0s0,0,0,0c-.5-1-1.5-2.29-1.98-2.8-1.15-1.19-2.2-1.9-3.14-2.35-1.34-.63-2.48-.67-3.51-.79-3.87-.45-4.58-3.42-3.52-6.28.06-.16.17-.45.25-.63l.29-.7c-1.96,1.14-6.84,2.02-12.51.48-.14-.04-.42-.11-.56-.15-4.57-1.2-8.6-3.47-12.02-6.69-4.13-3.87-6.38-8.06-7.23-9.64-7.54-15.59-6.48-38.72-6.51-41.19-.25-26.7,5.67-41.68,10.74-48.92-1.53-2.02-2.46-3.24-2.53-3.31-.51-.51-1.38-1.31-3.19-1.56-.5-3.5-1.8-7.65-1.8-7.65,0,0,3.5,2.52,6.76,3.93-.25,1.76.21,2.83.65,3.48.06.09.8,1.06,2.01,2.68,2.24-2.8,4.64-4.84,8.4-7.02.9-.51,1.87-1.01,2.92-1.48-.07-1.43.42-2.77,1.36-3.72.04-.82.73-1.85,1.56-2.17h0c.87-.23,2.16.17,2.8.77,1.42.2,2.77.94,3.78,2.06,3.09-.66,6.61-1.15,10.64-1.39.48-1.96,1.75-3.39,3.32-4.16.41-.85,1.59-1.71,2.6-1.76h.01c1.01.05,2.19.91,2.6,1.76,1.57.77,2.84,2.2,3.32,4.16,4.03.25,7.55.73,10.64,1.39,1-1.12,2.36-1.86,3.77-2.06.64-.6,1.94-1.01,2.8-.77h0c.83.31,1.53,1.35,1.57,2.17.94.96,1.43,2.3,1.36,3.72,1.04.47,2.01.97,2.91,1.48,3.76,2.17,6.39,4.54,8.57,7.12,1.34-1.78,2.16-2.86,2.22-2.95.45-.64.9-1.72.65-3.48,3.26-1.41,6.76-3.93,6.76-3.93,0,0-1.31,4.15-1.8,7.66-1.8.25-2.68,1.05-3.19,1.56-.07.07-1.14,1.47-2.86,3.75,5.05,7.29,10.88,22.14,10.63,48.67.03,2.12,1.04,25.71-6.5,41.3h0ZM389.42,48.6c.48.21.84.38,1.36.6.37-.44.53-.65.94-1.12-.52-.22-.87-.39-1.4-.6-.32.35-.67.82-.89,1.12h0ZM415.42,43.66s-.41.23-.62.66c.19.29.56.41,1.11.49.07.01.22.02.3.03.26-.6-.29-1.35-.79-1.17h0ZM426.93,46.77c-.23.78-.81,1.26-1.17,1.74-1.97-.76-6.33-1.87-8.73-2.11-.65.71-1.62,1.67-2.64,1.91-1.49-.18-2.45-.57-3.49-1.01.58.04.75.03,1.16.02,1.47-.04,2.78-.51,3.73-1.09-2.08-.32-2.57-.89-1.56-2.22.46-.6,1.22-1.69,2.33-1.41.86.22,1.08,1.46.98,2.38,2.44.3,5.55,1.13,7.92,1.95.16-.68-.28-1.02-.56-1.51.36-.38.89-.82,1.31-1.09.61.34.95,1.68.72,2.44h0ZM417.37,47.88c.36.35.62.63,1,1,.53-.29.77-.43,1.36-.72-.39-.38-.63-.65-1.04-1.02-.45.22-.97.54-1.31.75h0ZM428.07,47.37c-.46,1.07-.86,2.16-1.4,3.14.32.13.75-.14,1.05-.33,1.42-.86,2.43-3.25,2.99-4.67.01-.05-.83.17-1.27.36-.84.38-.98.6-1.37,1.5h0ZM428.73,45.25c1.14-.1,2.2.18,2.69-.34-.71-.21-1.44-.4-1.68-.75.31-.25.74.09.97.28.16-.15.24-.22.42-.39-.74-.61-1.9-.25-2.15.38.21.11.53.23.65.37-.24.07-.7.32-.89.46h0ZM386.09,49.55c-.33-.11-.63-.2-1.03-.31-.27.38-.55.89-.72,1.21.51.16.88.29,1.43.45.22-.34.34-.55.53-.83.33.1.63.2,1.01.32.3-.48.44-.7.78-1.21-.55-.17-.91-.3-1.48-.45-.18.25-.36.55-.51.82h0ZM410.15,43.3c-.72-1.18-3.4-.12-5.1.59.99-.01,1.83-.04,2.88-.02.42,0,1.53.02,2.28.04.07-.21.09-.36-.06-.61h0ZM411.35,45.48c-5.77-.32-17.05.29-22.6,1.81,0,0-.58-1.44-1.08-1.96-1.48-1.58-2.08.13-2.09.34,1.86.11,2.18,1.06,2.18,1.06-.44.81-.77,1.07-1.8,1.78-.33.23-1.52.97-3.16,1.1-3.49.17-2.54-3.46-.42-4.95-.27.33-1.52,2.23-.75,3.21.87,1.09,4.09.2,4.87-.78-.43-.41-1.21-.52-2.36-.42.05-.57.31-2.05,1.99-3.47.61.14,2.31,1.06,2.9,2.51,5.1-1.37,14.44-1.76,14.89-1.77-.11-.88-.42-4.22-.44-4.42-.05-.55.32-.8.67-1.02.39.68.75.99,1.61,1.31-.33.4-.65.57-1.04.87.05.67.11,1.89.13,2.38.82-.36,1.99-.85,3.4-1.18.5-.12,1.14-.19,1.54-.14.5.06,1.08.32,1.36.57.24.22.55.59.56,1.07,0,.82-.16,1.54-.38,2.11h0ZM401.58,62.69c-.09-.05-.75-.05-.82.09-.08.13.4.34.55.4.1.03.23-.02.3-.15.07-.14.06-.29-.04-.34h0ZM401.96,62.67s.16.28.09.77c-.07.49-.29.94-1,1.11-.76.18-1.55-.29-1.58-1.1-.01-.21.05-.48.14-.66-.26.03-.27.21-.51.52-.15.19-.4.17-.75.4,0-.47.51-1.2,1.09-1.46.85-.38,3.8-.51,5.89.58-.74-.14-1.38-.09-2.07-.12-.85-.05-1.3-.04-1.3-.04h0ZM409.46,39.69c-.45-.33-.74-.56-1.2-.88-.41.27-.87.66-1.17.9.41.31.71.54,1.15.87.48-.35.69-.52,1.22-.89h0ZM397.21,63.69c-.13.08-.24.48.22.49.38.01.46-.41.46-.41,0,0-.48-.2-.67-.08h0ZM409.87,67.18c-.06-.26-.73-1.19-2.13-1.49.38.36.62,1.01.75,1.25-.28.15-1.02.22-1.27.26.51.36,1.47.45,2.64-.02h0ZM406.97,64.73c-.82-.97-1.93-1.32-2.48-1.41.66.81,1.34,1.49,2.48,1.41h0ZM406.24,63.33c.44.44,1.84,1.04,2.62,1.76-.11-1.2-1.16-1.85-2.62-1.76h0ZM405.69,80.51c-1.61,2.4,0,4.9,0,4.9,0-.02,1.11-3.34,0-4.9h0ZM408.36,90.05s1.81-1.69,1.98-5.16c-1.02,1.71-2.14,2.68-2.14,2.67,0,0-.97-.66-1.76-1.63,0,2.21,1.95,4.12,1.93,4.12h0ZM406.22,75.19c-1.43,1.55-.55,2.85-.55,2.84,0-.02,1.75-1.89.55-2.84h0ZM408.26,69.38c.47.47,1.96.82,2.79,1.6-.11-1.28-1.42-2.08-2.79-1.6h0ZM410.49,73.2c-.01-.9-.28-2.46-2.31-2.76-.13,1.05,1.66,1.7,2.31,2.76h0ZM409.68,76.07c-.94,1.03-.06,3.06.48,4.88.5-.89,1.1-3.91-.48-4.88h0ZM414.7,80.72c-.54,2.5-1.62,3.45-1.62,3.44,0,0-.86-.7-1.6-1.66-.05,2.02,1.68,3.97,1.65,3.96-.01-.01,2.11-1.7,1.57-5.74h0ZM412.03,72.09c-.21,1.13,1.61,2.84,1.61,2.85,0,0,.25-2.17-1.61-2.85h0ZM415.21,77.34c-.17,1.32,1.36,4.33,1.43,4.57.03-.22.88-2.73-1.43-4.57h0ZM403.24,92.9c.4-.88,1.54-2.56.95-5.35-.21,2.1-1.55,3.04-1.54,3.03,0,0-.76-.42-1.36-1.69.19,2.56,1.15,3.3,1.95,4.01h0ZM401.87,77.05c-2.35,1.77-1.23,3.41-.82,4.32.48-1.72.68-2.19.82-4.32h0ZM400.69,82.44c-1.58,1.97.86,4.44.85,4.47,0-.02.2-3.74-.85-4.47h0ZM394.82,90.21c-.31-1.99-.18-3.33-1.16-5.09-.31,2.1.95,4.77,1.16,5.09h0ZM396.84,79.9c.65-2.35,1.97-3.69,2.43-5.06-2.36,1.67-2.84,4.23-2.43,5.06h0ZM397.87,85.97c-.03.99-.02,1.91-.25,3.01-.66-.17-.98-.62-1.46-1.03.4,1.33,2.04,2.86,2.3,3.25.24-1.81.31-4-.58-5.22h0ZM396.21,90.38c-.54,2.34,1.8,4.6,1.81,4.64,0,.03,0-2.78-1.81-4.64h0ZM396.91,96.67c.81,1.36,1.43,1.97,2.07,2.62-1-1.52-1.8-4.34-2.8-5.1-.09.42.27,1.71.73,2.48h0ZM394.02,82.96c-.18-1.16,1.25-2.22.76-4.08-1.43,1.61-1.15,3.13-.76,4.08h0ZM402.43,98.86c-.29-.08-1.71-1.39-2.13-2.22.22,1.32,2.02,3.91,2.89,4.44.28-.47,1.34-2.57.41-5.91-.39,2.02-.8,3.04-1.17,3.68h0ZM408.66,92.94c-.39,1.4-1.02,2.32-2.06,3.38-.44-.41-.88-.89-1.48-2.09-.23,2.33,1.1,3.69,1.86,4.2.47-.39,2.03-2.6,1.68-5.48h0ZM411.76,99.1c1.43-1.76,2.18-3.79,1.56-5.86-1.27,1.99-1.31,4.01-1.56,5.86h0ZM408.29,102.19c.42-.97,1.49-2.77,1.26-4.86-.92.79-1.35,3.62-1.26,4.86h0ZM415.79,90.84c.65-1.02,1.54-2.49.8-3.45-.35.95-.51,2.05-.8,3.45h0ZM411.06,94.15s2.41-2.32,2.33-5.21c-.68,1.94-2.32,2.76-2.33,2.76,0,0-.91-.57-1.32-1.83-.32,2.93,1.34,4.29,1.32,4.27h0ZM415.5,87.62s1.54-2.71.66-4.19c-1.01.22-.64,4.21-.66,4.19h0ZM415.42,92.17c-.93,1.25-1.19,4.08-1.48,5.03.33-.3,2.03-4.32,1.48-5.03h0ZM404.71,105.86c.51-1.54.38-3.41-.27-4.22-.44,1.56-.41,3,.27,4.22h0ZM406.21,109.87c.52-1.34.48-3.02-.09-3.74-.45,1.44-.47,2.72.09,3.74h0ZM408.17,108.58c.44-1.04,1.36-2.06,1.32-5.4-1,1-1.42,4.13-1.32,5.4h0ZM402.02,106.1c-.23-.75-.64-3.3-1.61-4.4-.39,1.85.81,3.61,1.61,4.4h0ZM414.08,108.33s-.01-.74-.26-1.01c-.19.92-1.41,2.86-1.14,5.1.55-2.01,2.1-2.42,2.51-4.28.34.22.64.32.98.35-.19-.74-.74-1.5-.92-3.04-.17.51-.37,2.02-1.17,2.87h0ZM397.78,112.28c.28-2.25-.94-4.18-1.14-5.1-.24.27-.26,1.01-.26,1.01-.8-.85-1-2.36-1.17-2.87-.18,1.54-.73,2.29-.92,3.04.34-.03.64-.13.98-.35.4,1.86,1.95,2.27,2.5,4.28h0ZM385.56,91.3s-.76-.2-1.17-.73c.37,1.55,1.8,2.26,1.8,2.26,0,0,1.2-2.87-1.53-6.97,1.49,4.32.91,5.44.91,5.44h0ZM383.94,95.61s-.67-.28-1.06-.84c.22,1.15.64,1.65,1.68,2.38.54-1.72.87-3.09-1.56-8.16,1.67,4.97.94,6.62.94,6.62h0ZM373.98,93.2s-.69-1.08-.84-3.97c-.61,3.08.57,4.91.57,4.91,0,0,.8-.53.78-1.42-.09.21-.51.48-.51.48h0ZM375.48,91.72s-.73-1.13-1.02-4.41c-.55,3.52.87,5.55.87,5.55,0,0,.88-.63.81-1.64-.09.24-.66.5-.66.5h0ZM382.07,82.98c-.66-.74-1.71-1.84-2.76-5.81.12,3.38,1.82,6.52,3.05,7.58.59-.85.7-3.36-.14-5.19,0,0,.17,2.05-.15,3.42h0ZM380.33,85.76c-.59-.79-1.74-2.49-2.4-6.53-.22,3.37,1.41,7,2.54,8.16.68-.8.87-2.37.22-4.27,0,0,.11,1.3-.35,2.63h0ZM378.67,87.86c-.54-.83-1.31-1.94-2-6.82-.17,4.44,1,7.07,2.07,8.31.72-.75.88-2.11.69-2.99,0,0-.36,1.2-.76,1.5h0ZM377.06,89.96c-.46-.76-.82-1.65-1.26-6.01-.31,3.94.34,6.35,1.24,7.49.68-.64.87-1.85.73-2.64,0,0-.32.9-.71,1.16h0ZM436.47,92.58c-.03.89.77,1.42.77,1.42,0,0,1.18-1.83.57-4.91-.15,2.9-.83,3.97-.83,3.97,0,0-.42-.28-.51-.48h0ZM434.82,91.08c-.06,1.01.81,1.64.81,1.64,0,0,1.42-2.03.87-5.55-.29,3.28-1.02,4.41-1.02,4.41,0,0-.57-.27-.66-.5h0ZM428.88,82.84c-.33-1.37-.15-3.42-.15-3.42-.84,1.84-.73,4.34-.13,5.19,1.24-1.06,2.93-4.2,3.05-7.58-1.06,3.96-2.1,5.07-2.76,5.81h0ZM430.63,85.61c-.46-1.33-.35-2.63-.35-2.63-.66,1.9-.46,3.47.21,4.27,1.13-1.16,2.75-4.79,2.54-8.16-.67,4.04-1.81,5.74-2.4,6.53h0ZM434.3,80.9c-.69,4.87-1.46,5.99-2.01,6.82-.39-.3-.75-1.5-.75-1.5-.19.88-.03,2.24.69,2.99,1.06-1.24,2.23-3.87,2.07-8.31h0ZM435.15,83.81c-.45,4.35-.8,5.25-1.26,6-.38-.26-.71-1.16-.71-1.16-.14.79.05,2,.73,2.64.91-1.13,1.55-3.55,1.24-7.49h0ZM425.4,91.16s-.58-1.12.91-5.44c-2.73,4.11-1.53,6.98-1.53,6.98,0,0,1.43-.71,1.8-2.26-.41.53-1.18.73-1.18.73h0ZM428.08,94.63c-.22,1.15-.64,1.65-1.68,2.38-.54-1.72-.86-3.09,1.56-8.16-1.67,4.97-.94,6.62-.94,6.62,0,0,.67-.28,1.06-.84h0Z"/>
</svg>