<?xml version="1.0" encoding="UTF-8"?>
<svg id="Layer_1" data-name="Layer 1" xmlns="http://www.w3.org/2000/svg" xmlns:xlink="http://www.w3.org/1999/xlink" viewBox="0 0 500 300">
  <defs>
    <style>
      .cls-1 {
        fill: url(#linear-gradient);
      }

      .cls-1, .cls-2, .cls-3, .cls-4, .cls-5, .cls-6, .cls-7 {
        stroke-width: 0px;
      }

      .cls-2 {
        fill: url(#linear-gradient-6);
      }

      .cls-3 {
        fill: url(#linear-gradient-5);
      }

      .cls-4 {
        fill: url(#linear-gradient-2);
      }

      .cls-5 {
        fill: url(#linear-gradient-7);
      }

      .cls-6 {
        fill: url(#linear-gradient-3);
      }

      .cls-7 {
        fill: url(#linear-gradient-4);
      }
    </style>
    <linearGradient id="linear-gradient" x1="490.88" y1="158.03" x2="16.09" y2="158.03" gradientUnits="userSpaceOnUse">
      <stop offset="0" stop-color="#b78b1e"/>
      <stop offset=".5" stop-color="#fad58c"/>
      <stop offset="1" stop-color="#b78b1e"/>
    </linearGradient>
    <linearGradient id="linear-gradient-2" x1="490.88" y1="170.76" x2="16.09" y2="170.76" xlink:href="#linear-gradient"/>
    <linearGradient id="linear-gradient-3" x1="490.88" y1="170.1" x2="16.09" y2="170.1" xlink:href="#linear-gradient"/>
    <linearGradient id="linear-gradient-4" x1="490.88" y1="150" x2="16.09" y2="150" xlink:href="#linear-gradient"/>
    <linearGradient id="linear-gradient-5" x1="490.88" y1="170.76" x2="16.09" y2="170.76" xlink:href="#linear-gradient"/>
    <linearGradient id="linear-gradient-6" x1="490.88" y1="170.76" x2="16.09" y2="170.76" xlink:href="#linear-gradient"/>
    <linearGradient id="linear-gradient-7" x1="490.88" y1="170.1" x2="16.09" y2="170.1" xlink:href="#linear-gradient"/>
  </defs>
  <path class="cls-1" d="m40.61,163.58l-31.63-54.2h15.69l28.73,49.74,27.77-49.74h4.1l-31.39,54.08v43.22h-13.28v-43.1Z"/>
  <path class="cls-4" d="m109.9,207.89c-5.88,0-11.03-1.07-15.45-3.2-4.43-2.13-8.13-4.93-11.11-8.39-2.98-3.46-5.21-7.42-6.7-11.89-1.49-4.47-2.23-9.01-2.23-13.64s.74-9.17,2.23-13.64c1.49-4.47,3.7-8.43,6.64-11.89,2.94-3.46,6.64-6.26,11.11-8.39,4.47-2.13,9.64-3.2,15.51-3.2s11.15,1.07,15.57,3.2c4.42,2.13,8.11,4.93,11.05,8.39,2.94,3.46,5.15,7.42,6.64,11.89,1.49,4.47,2.23,9.01,2.23,13.64s-.75,9.18-2.23,13.64c-1.49,4.47-3.72,8.43-6.7,11.89-2.98,3.46-6.68,6.26-11.11,8.39-4.43,2.13-9.58,3.2-15.45,3.2Zm0-71.83c-4.91,0-9.01,1.71-12.31,5.13-3.3,3.42-5.76,7.71-7.36,12.86-1.61,5.15-2.41,10.73-2.41,16.72s.82,11.57,2.48,16.72c1.65,5.15,4.1,9.44,7.36,12.86,3.26,3.42,7.34,5.13,12.25,5.13s8.99-1.71,12.25-5.13c3.26-3.42,5.71-7.71,7.36-12.86,1.65-5.15,2.48-10.72,2.48-16.72s-.83-11.57-2.48-16.72c-1.65-5.15-4.1-9.43-7.36-12.86-3.26-3.42-7.35-5.13-12.25-5.13Z"/>
  <path class="cls-6" d="m179.92,136.78c-3.38.08-6.58.83-9.6,2.23-3.02,1.41-5.69,3.56-8.03,6.46v61.21h-13.28v-65.91l13.28-6.04v9.17c2.41-3.38,5.33-5.95,8.75-7.73,3.42-1.77,7.67-2.66,12.74-2.66,2.82,0,5.61.34,8.39,1.03,2.78.68,5.25,1.77,7.42,3.26,2.17,1.49,3.92,3.36,5.25,5.61,1.33,2.25,1.99,4.95,1.99,8.09v55.17h-13.28v-53.6c0-5.55-1.27-9.68-3.8-12.37-2.53-2.69-5.82-4-9.84-3.92Z"/>
  <path class="cls-7" d="m214.08,135.57c.16-6.12-.28-11.53-1.33-16.24-1.05-4.71-2.62-8.75-4.71-12.13-3.38,1.45-6.94,2.84-10.68,4.16-3.74,1.33-7.55,2.11-11.41,2.35-4.59.32-8.41,0-11.47-.97-3.06-.97-5.35-2.25-6.88-3.86-1.53-1.61-2.35-3.38-2.48-5.31-.12-1.93.5-3.74,1.87-5.43,1.37-1.69,3.46-3.12,6.28-4.29,2.82-1.17,6.32-1.75,10.5-1.75,5.88,0,11.35.81,16.42,2.41,5.07,1.61,9.54,4.1,13.4,7.48,3.22-1.13,6.66-2.09,10.32-2.9,3.66-.8,7.87-1.17,12.62-1.09,3.62.08,6.62.56,8.99,1.45,2.37.89,4.23,1.99,5.55,3.32,1.33,1.33,2.19,2.74,2.6,4.23.4,1.49.4,2.88,0,4.16-.4,1.29-1.13,2.35-2.17,3.2-1.05.85-2.33,1.27-3.86,1.27-1.77,0-3.34-.72-4.71-2.17-1.37-1.45-2.86-3.04-4.47-4.77-1.61-1.73-3.5-3.3-5.67-4.71-2.17-1.41-4.95-2.11-8.33-2.11-2.58.16-5.47.85-8.69,2.05,3.62,3.62,6.46,8.05,8.51,13.28,2.05,5.23,3.08,11.35,3.08,18.35v3.5c2.33-1.77,4.93-3.12,7.79-4.04,2.86-.92,6.1-1.39,9.72-1.39,5.87,0,11.02,1.07,15.45,3.2,4.42,2.13,8.13,4.93,11.11,8.39,2.98,3.46,5.21,7.42,6.7,11.89,1.49,4.47,2.23,9.01,2.23,13.64s-.75,9.18-2.23,13.64c-1.49,4.47-3.7,8.43-6.64,11.89-2.94,3.46-6.62,6.26-11.05,8.39-4.43,2.13-9.62,3.2-15.57,3.2-3.86,0-7.53-.54-10.99-1.63-3.46-1.09-6.4-2.6-8.81-4.53l-10.99,4.95v-71.11Zm-30.3-41.04c-3.62,0-6.32.93-8.09,2.78-1.77,1.85-2.6,3.86-2.48,6.04.12,2.17,1.21,4.12,3.26,5.85,2.05,1.73,5.13,2.44,9.24,2.11,3.94-.32,7.57-1.11,10.87-2.35,3.3-1.25,6.64-2.6,10.02-4.04-2.66-3.54-5.92-6.16-9.78-7.85-3.86-1.69-8.21-2.54-13.04-2.54Zm60.96,110.22c3.7,0,6.94-.98,9.72-2.96,2.78-1.97,5.11-4.55,7-7.73,1.89-3.18,3.3-6.82,4.23-10.92.92-4.1,1.35-8.27,1.27-12.49-.08-4.23-.66-8.39-1.75-12.49-1.09-4.11-2.7-7.73-4.83-10.87-2.13-3.14-4.83-5.67-8.09-7.6-3.26-1.93-7.06-2.86-11.41-2.78-2.34.08-4.65.46-6.94,1.15-2.29.68-4.49,1.71-6.58,3.08v49.01c.4,2.5,1.17,4.65,2.29,6.46,1.13,1.81,2.49,3.32,4.1,4.53,1.61,1.21,3.38,2.11,5.31,2.72,1.93.6,3.82.9,5.67.9Z"/>
  <path class="cls-3" d="m319.48,207.89c-5.88,0-11.03-1.07-15.45-3.2-4.43-2.13-8.13-4.93-11.11-8.39-2.98-3.46-5.21-7.42-6.7-11.89-1.49-4.47-2.23-9.01-2.23-13.64s.74-9.17,2.23-13.64c1.49-4.47,3.7-8.43,6.64-11.89,2.94-3.46,6.64-6.26,11.11-8.39,4.47-2.13,9.64-3.2,15.51-3.2s11.15,1.07,15.57,3.2c4.42,2.13,8.11,4.93,11.05,8.39,2.94,3.46,5.15,7.42,6.64,11.89,1.49,4.47,2.23,9.01,2.23,13.64s-.75,9.18-2.23,13.64c-1.49,4.47-3.72,8.43-6.7,11.89-2.98,3.46-6.68,6.26-11.11,8.39-4.43,2.13-9.58,3.2-15.45,3.2Zm0-71.83c-4.91,0-9.01,1.71-12.31,5.13-3.3,3.42-5.76,7.71-7.36,12.86-1.61,5.15-2.41,10.73-2.41,16.72s.82,11.57,2.48,16.72c1.65,5.15,4.1,9.44,7.36,12.86,3.26,3.42,7.34,5.13,12.25,5.13s8.99-1.71,12.25-5.13c3.26-3.42,5.71-7.71,7.36-12.86,1.65-5.15,2.48-10.72,2.48-16.72s-.83-11.57-2.48-16.72c-1.65-5.15-4.1-9.43-7.36-12.86-3.26-3.42-7.35-5.13-12.25-5.13Z"/>
  <path class="cls-2" d="m394.08,207.89c-5.88,0-11.03-1.07-15.45-3.2-4.43-2.13-8.13-4.93-11.11-8.39-2.98-3.46-5.21-7.42-6.7-11.89-1.49-4.47-2.23-9.01-2.23-13.64s.74-9.17,2.23-13.64c1.49-4.47,3.7-8.43,6.64-11.89,2.94-3.46,6.64-6.26,11.11-8.39,4.47-2.13,9.64-3.2,15.51-3.2s11.15,1.07,15.57,3.2c4.42,2.13,8.11,4.93,11.05,8.39,2.94,3.46,5.15,7.42,6.64,11.89,1.49,4.47,2.23,9.01,2.23,13.64s-.75,9.18-2.23,13.64c-1.49,4.47-3.72,8.43-6.7,11.89-2.98,3.46-6.68,6.26-11.11,8.39-4.43,2.13-9.58,3.2-15.45,3.2Zm0-71.83c-4.91,0-9.01,1.71-12.31,5.13-3.3,3.42-5.76,7.71-7.36,12.86-1.61,5.15-2.41,10.73-2.41,16.72s.82,11.57,2.48,16.72c1.65,5.15,4.1,9.44,7.36,12.86,3.26,3.42,7.34,5.13,12.25,5.13s8.99-1.71,12.25-5.13c3.26-3.42,5.71-7.71,7.36-12.86,1.65-5.15,2.48-10.72,2.48-16.72s-.83-11.57-2.48-16.72c-1.65-5.15-4.1-9.43-7.36-12.86-3.26-3.42-7.35-5.13-12.25-5.13Z"/>
  <path class="cls-5" d="m464.1,136.78c-3.38.08-6.58.83-9.6,2.23-3.02,1.41-5.69,3.56-8.03,6.46v61.21h-13.28v-65.91l13.28-6.04v9.17c2.41-3.38,5.33-5.95,8.75-7.73,3.42-1.77,7.67-2.66,12.74-2.66,2.82,0,5.61.34,8.39,1.03,2.78.68,5.25,1.77,7.42,3.26,2.17,1.49,3.92,3.36,5.25,5.61,1.33,2.25,1.99,4.95,1.99,8.09v55.17h-13.28v-53.6c0-5.55-1.27-9.68-3.8-12.37-2.53-2.69-5.82-4-9.84-3.92Z"/>
</svg>