<?xml version="1.0" encoding="utf-8"?>
<!-- Generator: Adobe Illustrator 28.1.0, SVG Export Plug-In . SVG Version: 6.00 Build 0)  -->
<svg version="1.1" id="Layer_1" xmlns="http://www.w3.org/2000/svg" xmlns:xlink="http://www.w3.org/1999/xlink" x="0px" y="0px"
	 viewBox="0 0 562.1 595.3" style="enable-background:new 0 0 562.1 595.3;" xml:space="preserve">
<style type="text/css">
	.st0{fill:#E32021;}
	.st1{fill:#CD1518;}
</style>
<g>
	<g>
		<path class="st0" d="M271.5,164.5c0-0.1-0.1-0.1-0.1-0.2C271.4,164.4,271.5,164.5,271.5,164.5"/>
	</g>
	<polygon class="st1" points="443.3,336.3 451.9,359 478.3,359.7 457.3,374.3 464.7,397.3 443.1,383.6 421.3,397.1 428.9,374.1 
		408,359.4 434.4,358.9 	"/>
	<polygon class="st1" points="142.8,335.6 151.6,358.4 177.9,359.1 156.9,373.6 164.3,396.6 142.6,382.9 120.9,396.4 128.5,373.5 
		107.7,358.8 134,358.3 	"/>
	<polygon class="st1" points="379.9,403.9 388.5,426.6 415,427.3 394,441.8 401.4,464.9 379.7,451.2 358,464.7 365.6,441.7 
		344.7,427 371.1,426.5 	"/>
	<polygon class="st1" points="211.3,402.9 220.1,425.5 246.4,426.3 225.5,440.8 232.8,463.9 211.1,450.2 189.4,463.7 197,440.7 
		176.2,426 202.5,425.5 	"/>
	<polygon class="st1" points="286.6,455.3 295.4,478 321.7,478.7 300.6,493.2 308.1,516.2 286.4,502.5 264.7,516 272.2,493.1 
		251.5,478.4 277.8,477.9 	"/>
	<g>
		<path class="st1" d="M232.7,99.7c-11.9-20.9-9-35,0.6-51.5c1.4-2.5,6-7.7,4.7-7.5s-6.1,2.1-9,3.4c-24.4,10.8-43.8,34.1-43.8,62.2
			c0,15.8-0.8,30-9.9,40.2c-11.6,13-18.3,22.6-20,33.9h72.6C249.7,156.4,249,128.3,232.7,99.7"/>
		<path class="st1" d="M268.4,160.5c1.1,1.4,2.1,2.8,3.2,4.1c0,0,0,0,0-0.1c0,0-0.1-0.1-0.1-0.2c-0.1-0.1-0.1-0.1,0,0
			c0,0,0.1,0.1,0.1,0.2v0.1c0.5,0.7,0.4-3.5,0.6-5.3c1.2-12.1,3.1-25.7,20-48.3C315.5,79.7,310.6,35.8,275.8,4
			c-0.6-0.6-2.2-2.7-1.9-1.8c0.2,1.1,0.3,1.7,0.4,2.5c4.1,25.2-9.2,34.9-20.4,53.4c-16.6,27.7-8.8,47.9-3.3,66.3
			C254.2,136.3,260.6,150,268.4,160.5"/>
		<path class="st1" d="M387.3,122.2c-16.6-19.8-20.3-39-10.7-60.8c0.6-1.3,2.5-4.2,1.9-3.9c-0.6,0.3-2.4,1.5-3.5,2.2
			c-28.3,18.6-36.9,38.3-39.8,59.5c-2.6,19,5,28.7,4.8,43.2c-0.1,3.9-2.9,3.7-6,0.6c-9.4-9.4-8.7-35.8-6.1-62.4
			c0.7-6.9-2-17.9-4.3-18.2c-1.3,8.4-3,11.8-6,17c-3.7,6.5-14.3,20-28.2,42.6c-9.7,15.9-9.9,32.9-8.4,38.4h148.2
			C420.6,147.7,401.2,138.8,387.3,122.2"/>
		<path class="st1" d="M314.2,375.2c-2.2,16-9.8,26.2-16.3,39.1c-4.8,9.4,7.4-27-16.2-58.7c-16.3-21.8-33.3-38.1-9.5-62.2
			c1.1-1.1,4-5,3.5-3.3c0,1.2-0.1,2.3-0.1,3.6c0,1.1,0.1,2.3,0.3,3.5c1.6,7.3,3.2,14.5,12.7,23.2C310,340.2,317.8,349.2,314.2,375.2
			 M358.7,260.2c9.8,33.5,10.2,67.9-1.9,95.7c-2,4.5-6.4,6.2-4.6-0.6c8.7-33.8,7.5-65.8-7.8-95.1h-194c0,1,0,1.9,0,2.9
			c-0.5,62.1,43.4,102.5,95.8,137.2c7.5,5,40.1,26.9,36.9,48c93.7-40.8,147.7-118.9,152-188L358.7,260.2L358.7,260.2z"/>
		<path d="M176.4,195.4v23h1.7c2.7,0,4.9-0.4,6.5-1.1c1.7-0.8,3.1-2,4.3-3.8c1.2-1.8,1.9-4.2,2.3-7.3h1.6v28.5h-1.6
			c-0.6-5.4-2.1-8.9-4.6-10.7s-5.3-2.6-8.4-2.6h-1.7v17.2c0,2.9,0.2,4.8,0.5,5.5c0.3,0.7,1,1.4,2,1.9s2.3,0.8,4,0.8h2v1.4h-31.4
			v-1.4h2c1.8,0,3.2-0.3,4.2-0.9c0.8-0.4,1.4-1.1,1.8-2c0.3-0.7,0.5-2.5,0.5-5.3v-36.9c0-3-0.2-4.8-0.5-5.5c-0.3-0.7-1-1.4-2-1.9
			c-1-0.6-2.3-0.8-4-0.8h-2v-1.5h50.7v16.2h-1.8c-0.4-3.8-1.5-6.6-3.2-8.4c-1.7-1.8-4.2-3.1-7.4-3.9c-1.8-0.4-5.1-0.6-9.8-0.6
			L176.4,195.4L176.4,195.4z"/>
		<path d="M240,246.9v1.4h-31.4v-1.4h2c1.7,0,3.2-0.3,4.2-0.9c0.8-0.4,1.4-1.1,1.8-2c0.4-0.7,0.5-2.5,0.5-5.3v-36.9
			c0-3-0.2-4.8-0.5-5.5c-0.3-0.7-1-1.4-2-1.9c-1-0.6-2.3-0.8-4-0.8h-2v-1.5H240v1.5h-2c-1.7,0-3.2,0.3-4.2,0.9
			c-0.8,0.4-1.4,1.1-1.8,2c-0.3,0.7-0.5,2.4-0.5,5.4v36.9c0,2.9,0.2,4.8,0.5,5.5c0.4,0.7,1,1.4,2,1.9s2.4,0.8,4,0.8L240,246.9
			L240,246.9z"/>
		<path d="M266.1,195.3v24.3h2.5c4.1,0,7.2-0.4,9.1-1.1c2.1-0.7,3.7-2,4.8-3.8c1.2-1.8,1.8-4.2,1.8-7.2c0-4.3-1.1-7.4-3.2-9.4
			c-2.2-2-5.6-3-10.3-3L266.1,195.3L266.1,195.3z M266.1,222.7v15.9c0,3.1,0.2,5,0.6,5.8c0.4,0.8,1.1,1.4,2.2,1.9
			c1,0.5,2.9,0.7,5.7,0.7v1.4h-31v-1.4c2.8,0,4.8-0.2,5.8-0.7s1.7-1.1,2.1-1.9c0.4-0.8,0.6-2.7,0.6-5.8v-36.8c0-3-0.2-5-0.6-5.8
			c-0.4-0.8-1.1-1.5-2.1-1.9c-1-0.5-2.9-0.7-5.8-0.7V192h27.9c7.3,0,12.6,0.5,16,1.5c3.4,0.9,6.2,2.7,8.2,5.2
			c2.2,2.6,3.2,5.5,3.2,8.9c0,4.2-1.6,7.6-4.8,10.3c-2,1.7-4.9,3-8.5,3.9l14.3,19.1c1.9,2.4,3.3,4,4.1,4.6c1.2,0.9,2.6,1.3,4.2,1.4
			v1.6h-18.9l-19.3-25.6L266.1,222.7L266.1,222.7z"/>
		<path d="M332.1,195.4v22.9h1.2c3.8,0,6.6-1.2,8.2-3.4c1.7-2.3,2.8-5.6,3.3-9.9h1.6v29.4h-1.6c-0.4-3.2-1.1-5.9-2.2-7.8
			c-1.1-2.1-2.5-3.4-4-4.1c-1.5-0.7-3.7-1.1-6.6-1.1v15.8c0,3.1,0.1,5,0.4,5.7c0.3,0.7,0.8,1.3,1.6,1.7c0.8,0.4,2,0.7,3.8,0.7h3.6
			c5.6,0,10-1.2,13.4-3.7c3.4-2.4,5.8-6.2,7.3-11.1h1.6l-2.7,17.9h-51.9v-1.4h2c1.8,0,3.2-0.3,4.2-0.9c0.8-0.4,1.4-1.1,1.8-2
			c0.4-0.7,0.5-2.5,0.5-5.3v-36.9c0-2.6-0.1-4.2-0.2-4.8c-0.3-1-0.9-1.7-1.6-2.3c-1.2-0.8-2.7-1.2-4.7-1.2h-2v-1.5h50.5v16.6H358
			c-0.9-4-2.1-6.9-3.6-8.6c-1.6-1.8-3.8-3.1-6.6-3.9c-1.7-0.5-4.8-0.7-9.3-0.7L332.1,195.4L332.1,195.4z"/>
		<path d="M406.1,215.4l16.5,23c2.7,3.9,4.7,6.3,5.9,7.1c1.2,0.8,2.6,1.3,4.2,1.5v1.4h-29.2v-1.4c2.3-0.2,3.9-0.5,4.5-1
			c0.7-0.5,1-1.1,1-1.9c0-0.5-0.1-0.9-0.3-1.3c-0.4-0.9-1.5-2.4-3.1-4.7l-8.7-12.1l-9.1,10.4c-2.7,3.2-4.1,5.4-4.1,6.6
			c0,0.8,0.4,1.6,1.1,2.3c0.7,0.7,1.7,1.2,3.2,1.5c0.6,0.2,1.9,0.3,3.8,0.3v1.4h-23V247c2.6-0.4,4.7-1,6.2-2c2-1.3,4.7-4,8.2-8
			l11.9-13.5l-15.3-21.2c-2.5-3.5-4-5.5-4.3-5.9c-0.8-0.9-1.6-1.6-2.4-2c-0.8-0.4-1.9-0.7-3.2-0.9v-1.5h29.7v1.5H398
			c-1.7,0-2.9,0.3-3.6,0.8c-0.7,0.5-1,1.2-1,2c0,0.6,0.1,1.2,0.3,1.6l3.1,4.4l7.4,10.4l6.3-7.2c3.3-3.8,4.9-6.4,4.9-7.9
			c0-0.8-0.2-1.5-0.7-2.1c-0.5-0.6-1.1-1.1-2-1.5c-0.9-0.4-2.2-0.5-4-0.5v-1.5h22.1v1.5c-1.7,0-3.1,0.2-4.2,0.6
			c-1.1,0.4-2.3,1.1-3.5,2.1c-0.8,0.7-2.7,2.8-5.8,6.3L406.1,215.4z"/>
		<path d="M105.6,447.5c1-1.3,1.7-2.3,1.9-3.1c0.3-0.8,0.2-1.7-0.2-2.8c0-0.1-0.1-0.4-0.2-0.6c-0.1-0.3-0.1-0.5,0-0.6
			c0.1-0.2,0.3-0.3,0.6-0.5c0.4-0.2,0.7-0.3,0.9-0.1c0.2,0.1,0.5,0.4,0.7,0.9c1.3,2.3,2,4.3,1.9,6c0,1.6-0.8,3.3-2.2,5.1l-14,14.9
			l0.1,0.2l24.9-6.6l1.4,2.4L104,482.5l0.1,0.1l20.6-4.7c0.5-0.1,1-0.3,1.3-0.5c0.4-0.2,0.6-0.6,0.6-1s-0.3-1-0.8-1.9l-0.2-0.3
			c-0.2-0.3-0.2-0.6-0.2-0.7c0-0.2,0.3-0.4,0.7-0.7c0.3-0.2,0.6-0.2,0.8-0.2c0.3,0,0.5,0.2,0.6,0.4c1.1,2.1,2,3.8,2.7,5.2
			c0.3,0.6,1,1.7,2,3.4l0.6,1c0.2,0.3,0.2,0.6,0.1,0.8c-0.1,0.3-0.3,0.5-0.6,0.6c-0.5,0.2-0.8,0.3-1,0.2c-0.2-0.1-0.4-0.3-0.5-0.6
			c-0.8-1.4-1.6-2.3-2.5-2.8c-0.9-0.5-2-0.6-3.4-0.3l-29.1,6.4l-1.2-2.2l18-20.1l-25.6,6.6l-1.2-2.2L105.6,447.5z"/>
		<path d="M108.2,503.7c0.1-0.3,0.2-0.5,0.5-0.7c0.4-0.3,0.7-0.5,0.9-0.4c0.2,0.1,0.5,0.3,0.8,0.7c0.7,0.8,1.3,1.3,1.9,1.4
			c0.6,0.1,1.2,0.1,1.7-0.2c0.5-0.3,1.1-0.7,1.8-1.2l16.1-13.8c0.7-0.6,1.2-1.1,1.5-1.6c0.3-0.5,0.5-1,0.4-1.6
			c0-0.6-0.4-1.3-1.1-2.1l-0.2-0.2c-0.2-0.3-0.4-0.5-0.3-0.7c0-0.2,0.2-0.5,0.5-0.8c0.2-0.2,0.5-0.3,0.8-0.4c0.3,0,0.5,0.1,0.7,0.3
			c1.5,1.9,2.8,3.5,4,5l10.9,12.7c0.6,0.7,0.6,1.3-0.1,1.9l-5.6,5c-0.2,0.2-0.5,0.3-0.9,0.1c-0.4-0.1-0.6-0.3-0.9-0.5
			c-0.3-0.3-0.5-0.7-0.6-1s0-0.6,0.2-0.9c1.1-1.4,2-2.5,2.4-3.3c0.5-0.9,0.7-1.7,0.6-2.5c-0.1-0.8-0.5-1.7-1.3-2.6l-4.7-5.5
			l-10.3,8.8l6.3,7.4c0.1,0.2,0.2,0.5,0.1,0.7c-0.1,0.3-0.2,0.5-0.5,0.7c-0.2,0.2-0.5,0.3-0.7,0.3c-0.3,0-0.5,0-0.6-0.2l-6.3-7.4
			l-7.6,6.6c-0.5,0.5-0.9,1-1.2,1.4c-0.3,0.4-0.4,0.9-0.3,1.5c0.1,0.6,0.5,1.4,1.3,2.2l3.2,3.8c0.8,0.9,1.6,1.5,2.3,1.8
			c0.7,0.2,1.5,0.3,2.3,0c0.8-0.2,2.1-0.7,3.8-1.5c0.7-0.2,1.2,0.1,1.8,0.9c0.2,0.3,0.3,0.7,0.3,1s-0.1,0.6-0.4,0.8l-5.8,3.6
			c-0.4,0.2-0.8,0.3-1,0.2c-0.3-0.1-0.5-0.3-0.9-0.7l-11.5-13.4c-1.3-1.5-2.7-3.1-4.3-4.8C108.1,504.2,108.1,504,108.2,503.7"/>
		<path d="M144.2,540c-0.8-2.3-0.4-4.4,1.2-6.4c0.8-1,1.8-1.6,3-1.7c1.2-0.1,2.4,0.2,3.5,1.1c0.6,0.5,1,1.1,1.1,1.6
			c0.1,0.6,0.1,1-0.1,1.2c0,0-0.2,0-0.7,0c-0.4,0-0.9,0-1.4,0.2s-1,0.5-1.4,1.1c-1,1.3-1.4,2.7-1.2,4c0.3,1.3,1.2,2.7,2.9,4
			c1.2,0.9,2.4,1.5,3.6,1.7c1.2,0.2,2.4,0.1,3.4-0.3c1-0.4,1.9-1,2.5-1.8c0.8-1,1.2-2.1,1.2-3.3c0-1.2-0.3-2.4-0.7-3.5
			c-0.5-1.2-1.2-2.6-2.2-4.4c-1.1-2.1-2-3.8-2.5-5.3s-0.8-3-0.8-4.6c0.1-1.6,0.7-3.2,1.9-4.7c1.9-2.5,4.2-3.7,6.8-3.6
			c2.6,0.1,5.3,1.2,8,3.3c2.2,1.7,3.7,3.6,4.6,5.7c0.9,2.1,0.7,4.1-0.7,5.9c-0.8,1-1.8,1.6-3,1.7c-1.2,0.1-2.4-0.2-3.5-1.1
			c-0.6-0.5-1-1.1-1.1-1.6c-0.1-0.6-0.1-1,0.1-1.2c0,0,0.3,0,0.8,0.1s1.1,0.1,1.6,0c0.6-0.1,1.1-0.5,1.5-1.1c0.8-1.1,1-2.2,0.7-3.4
			c-0.4-1.2-1.2-2.3-2.4-3.3c-1.7-1.3-3.4-1.9-4.9-1.8s-2.7,0.8-3.7,2c-0.8,1-1.1,2-1.1,3.1c0,1.1,0.4,2.4,1.1,4
			c0.6,1.3,1.2,2.6,2,4c1.2,2.2,2,4.1,2.6,5.6c0.5,1.5,0.7,3.1,0.6,4.8c-0.1,1.7-0.8,3.3-2.1,5c-1.1,1.4-2.5,2.4-4.3,2.8
			c-1.8,0.5-3.7,0.4-5.7-0.1s-3.9-1.5-5.8-2.9C146.8,544.5,145,542.2,144.2,540"/>
		<path d="M166.7,557.6c0-0.3,0-0.6,0.2-0.8c0.3-0.5,0.5-0.7,0.8-0.7c0.2,0,0.5,0.1,1,0.4c0.9,0.5,1.7,0.7,2.3,0.6
			c0.6-0.1,1.1-0.3,1.5-0.8c0.4-0.4,0.8-1,1.3-1.8l10.3-18.5c0.4-0.8,0.7-1.5,0.9-2s0.1-1.1-0.1-1.7c-0.3-0.6-0.8-1.1-1.7-1.6
			l-0.3-0.2c-0.3-0.2-0.5-0.4-0.6-0.5c-0.1-0.2,0-0.5,0.2-1c0.2-0.3,0.4-0.5,0.6-0.6c0.3-0.1,0.5-0.1,0.8,0c2,1.3,3.8,2.3,5.5,3.3
			l14.6,8.2c0.8,0.5,1,1.1,0.6,1.8l-3.5,6.7c-0.2,0.3-0.4,0.4-0.8,0.4c-0.4,0-0.7-0.1-1-0.2c-0.4-0.2-0.7-0.5-0.9-0.8
			c-0.2-0.3-0.2-0.6-0.1-0.9c0.6-1.7,1-3,1.1-4c0.1-1,0-1.8-0.3-2.5c-0.4-0.7-1.1-1.4-2.1-2l-6.3-3.5l-6.7,11.8l8.4,4.8
			c0.2,0.2,0.3,0.4,0.3,0.6c0,0.3-0.1,0.6-0.2,0.8c-0.1,0.3-0.3,0.4-0.6,0.6c-0.2,0.1-0.5,0.1-0.7,0l-8.4-4.8l-5,8.8
			c-0.3,0.7-0.5,1.3-0.6,1.7s0,1,0.3,1.5c0.3,0.6,0.9,1.1,2,1.7l4.3,2.4c1.1,0.6,2,0.9,2.8,0.9c0.7,0,1.5-0.3,2.2-0.8
			s1.7-1.4,3.1-2.7c0.5-0.4,1.2-0.4,2,0.2c0.3,0.2,0.5,0.5,0.6,0.8s0.1,0.6-0.1,0.9l-4.3,5.4c-0.3,0.4-0.6,0.5-0.9,0.6
			c-0.3,0-0.6-0.1-1-0.3l-15.4-8.6c-1.7-0.9-3.6-2-5.7-3C166.8,558.1,166.7,557.8,166.7,557.6"/>
		<path d="M217.3,563.5c5,1.8,8.3,0.4,10-4.4c0.7-1.9,0.6-3.8-0.2-5.6c-0.8-1.8-2.8-3.2-5.8-4.3c-1-0.4-1.8-0.5-2.4-0.4
			c-0.6,0.1-1.1,0.3-1.5,0.8c-0.4,0.5-0.8,1.4-1.2,2.5l-3.5,9.6L217.3,563.5z M197.8,574.4c-0.1-0.3-0.1-0.6,0.1-0.9
			c0.2-0.5,0.4-0.8,0.6-0.8c0.2,0,0.5,0,1,0.2c1,0.4,1.8,0.4,2.4,0.3c0.6-0.2,1.1-0.5,1.4-1c0.3-0.5,0.6-1.1,1-2l7.2-20
			c0.3-0.9,0.5-1.6,0.5-2.2c0.1-0.6-0.1-1.1-0.4-1.6c-0.3-0.5-1-1-2-1.3l-0.3-0.1c-0.3-0.1-0.6-0.3-0.6-0.4c-0.1-0.2-0.1-0.5,0.1-1
			c0.1-0.3,0.3-0.5,0.5-0.7c0.2-0.2,0.5-0.2,0.8-0.1c2.2,0.9,4.1,1.7,6,2.3l8.6,3.1c2.6,1,4.6,2.2,6.1,3.6c1.5,1.4,2.4,2.9,2.7,4.4
			c0.4,1.5,0.3,3-0.2,4.4c-0.7,1.9-2,3.3-4,4.3c-2,1-4.4,1.4-7.2,1.2l0.4,1.7c0.6,2.8,1.2,5.2,1.7,7.3c0.6,2.1,1.3,4,2.1,5.9
			c0.7,1.1,1.5,1.9,2.5,2.5c0.1,0,0.2,0.1,0.4,0.2c0.2,0.1,0.4,0.3,0.5,0.5s0.1,0.5,0,0.8s-0.3,0.5-0.5,0.7
			c-0.2,0.2-0.5,0.2-0.8,0.1l-1.3-0.5c-1.5-0.6-2.5-1-3.2-1.3c-1.3-0.8-2.2-1.7-3-2.7c-0.7-1-1.3-2.4-1.8-4s-1.1-4.2-1.8-7.7
			l-0.4-1.8c-0.2-1-0.5-1.7-0.9-2.1c-0.4-0.5-1.1-0.9-2.3-1.3l-1.5-0.5l-3,8.2c-0.3,0.9-0.4,1.6-0.5,2.1c-0.1,0.6,0.1,1.1,0.4,1.6
			c0.3,0.5,1,1,2,1.3l0.3,0.1c0.3,0.1,0.5,0.3,0.6,0.4c0.1,0.2,0.1,0.5,0,1c-0.1,0.3-0.3,0.5-0.5,0.7c-0.2,0.2-0.5,0.2-0.8,0.1
			c-2.1-0.9-4.2-1.7-6.3-2.4c-1.8-0.6-3.8-1.3-6-2C198.1,574.9,197.9,574.7,197.8,574.4"/>
		<path d="M244.4,575.1c-1.1-6.7-2-11.5-2.5-14.5c-0.3-1.6-0.7-2.8-1.2-3.5c-0.5-0.7-1.2-1.3-2.3-1.7c-0.1-0.1-0.3-0.1-0.6-0.2
			c-0.3-0.1-0.4-0.2-0.5-0.4s-0.1-0.4,0-0.8c0.1-0.4,0.2-0.7,0.5-0.8s0.6-0.1,1.1,0c2.6,0.5,4.6,1.3,5.8,2.3
			c1.2,1.1,2.1,2.7,2.5,4.9l3.9,21.9h0.2l11.1-19.8c0.3-0.6,0.5-1,0.6-1.3c0.1-0.5-0.1-0.9-0.4-1.1c-0.4-0.2-1-0.4-2-0.6l-0.3-0.1
			c-0.4-0.1-0.6-0.2-0.7-0.3c-0.1-0.1-0.1-0.5-0.1-1c0.1-0.3,0.2-0.6,0.4-0.8c0.2-0.2,0.4-0.3,0.7-0.2c2.3,0.5,4.2,0.9,5.7,1.2
			c0.7,0.1,2,0.3,3.9,0.6l1.1,0.2c0.3,0.1,0.5,0.2,0.7,0.5c0.1,0.3,0.1,0.5,0.1,0.9c-0.1,0.5-0.3,0.8-0.4,0.9
			c-0.2,0.1-0.4,0.1-0.8,0c-1.5-0.3-2.7-0.2-3.6,0.1c-0.9,0.4-1.7,1.2-2.6,2.5c-1.6,2.7-4.1,7.1-7.6,13c-3.5,6-6.1,10.4-7.6,13.1
			l-2.5-0.5C246.3,586.7,245.5,581.9,244.4,575.1"/>
		<path d="M270.6,592.6c-0.2-0.2-0.2-0.5-0.2-0.8c0-0.5,0.2-0.9,0.3-1c0.2-0.1,0.5-0.1,1-0.1c1,0,1.8-0.1,2.3-0.5
			c0.5-0.4,0.8-0.8,1-1.4c0.1-0.6,0.2-1.3,0.3-2.2l0.5-21.3c0-0.9-0.1-1.6-0.2-2.2c-0.1-0.6-0.4-1-0.9-1.4c-0.5-0.4-1.3-0.6-2.3-0.6
			h-0.3c-0.4,0-0.6-0.1-0.7-0.2c-0.1-0.1-0.2-0.4-0.2-0.9c0-0.3,0.1-0.6,0.3-0.8c0.2-0.2,0.4-0.3,0.7-0.3c2.4,0.2,4.5,0.3,6.4,0.3
			l16.8,0.4c0.9,0,1.4,0.5,1.4,1.3v7.4c0,0.3-0.2,0.6-0.5,0.8c-0.3,0.2-0.7,0.3-1,0.3c-0.4,0-0.8-0.1-1.1-0.3s-0.5-0.4-0.5-0.7
			c-0.2-1.8-0.5-3.1-0.9-4c-0.3-0.9-0.8-1.6-1.5-2.1c-0.7-0.5-1.6-0.7-2.8-0.8l-7.2-0.2l-0.3,13.6l9.6,0.2c0.2,0,0.4,0.2,0.6,0.4
			c0.1,0.2,0.2,0.5,0.2,0.8s-0.1,0.5-0.2,0.7c-0.1,0.2-0.3,0.3-0.6,0.3l-9.6-0.2l-0.2,10.1c0.1,0.8,0.1,1.4,0.2,1.8
			c0.1,0.5,0.4,0.9,0.9,1.2c0.5,0.4,1.4,0.6,2.5,0.5l5,0.1c1.3,0,2.2-0.2,2.9-0.6c0.7-0.4,1.2-0.9,1.6-1.7c0.4-0.8,0.9-2.1,1.5-3.8
			c0.3-0.6,0.9-0.9,1.8-0.7c0.4,0.1,0.7,0.2,0.9,0.5c0.3,0.2,0.4,0.5,0.3,0.8l-1.2,6.8c-0.1,0.5-0.3,0.8-0.5,0.9s-0.6,0.2-1.1,0.2
			l-17.7-0.4c-1.9,0-4.1,0-6.5,0C271,593,270.8,592.9,270.6,592.6"/>
		<path d="M338.2,587.7c-0.2-0.2-0.4-0.4-0.4-0.7c-0.1-0.5-0.1-0.9,0.1-1c0.1-0.1,0.5-0.3,1-0.4c1-0.3,1.7-0.6,2.1-1.1
			s0.6-1,0.6-1.6c0-0.6-0.1-1.3-0.3-2.2L335,556l-3.6,0.9c-1.2,0.3-2,0.8-2.5,1.5c-0.5,0.6-0.8,1.5-0.9,2.5c-0.1,1,0,2.4,0.1,4.2
			c0,0.3-0.1,0.6-0.5,0.8c-0.3,0.3-0.7,0.5-1.1,0.6c-0.3,0.1-0.6,0.1-0.9-0.1c-0.3-0.1-0.5-0.3-0.6-0.7l-1.7-7.4
			c-0.2-0.8,0.1-1.4,1.1-1.6l25.1-6.5c0.9-0.2,1.5,0.1,1.7,0.9l2.1,7.3c0.1,0.3,0,0.6-0.2,0.9c-0.2,0.3-0.5,0.4-0.8,0.5
			c-0.4,0.1-0.8,0.1-1.2,0c-0.4-0.1-0.7-0.3-0.8-0.5c-0.7-1.7-1.3-2.9-1.9-3.7c-0.5-0.8-1.2-1.4-2-1.7s-1.8-0.3-3-0.1l-3.5,0.9
			l6.3,24.7c0.3,0.9,0.5,1.5,0.8,2.1c0.3,0.5,0.7,0.9,1.3,1.1c0.6,0.2,1.4,0.2,2.4,0l0.3-0.1c0.3-0.1,0.6-0.1,0.8,0s0.4,0.4,0.5,0.8
			c0.1,0.3,0.1,0.6,0,0.9c-0.1,0.3-0.3,0.4-0.6,0.5c-2.3,0.5-4.3,0.9-6.2,1.4c-2.1,0.5-4.2,1.1-6.5,1.8
			C338.7,588,338.5,587.9,338.2,587.7"/>
		<path d="M386.6,567.6c0.9-2,1.2-4.3,0.9-6.8c-0.3-2.6-1-5.2-2.3-7.8c-1.1-2.5-2.6-4.6-4.3-6.4c-1.7-1.8-3.6-2.9-5.7-3.5
			c-2.1-0.6-4.2-0.4-6.3,0.6c-3.3,1.5-5.1,4-5.5,7.4c-0.4,3.4,0.3,7.3,2.3,11.4c1.2,2.5,2.6,4.7,4.3,6.5c1.7,1.8,3.6,3,5.6,3.6
			s4.1,0.4,6.3-0.5C384.1,571,385.7,569.6,386.6,567.6 M373.7,575.6c-3-0.4-5.8-1.6-8.1-3.4c-2.4-1.9-4.2-4.2-5.5-7
			c-1.6-3.4-2.1-6.7-1.7-9.9c0.4-3.2,1.5-6.1,3.3-8.4c1.8-2.4,4-4.2,6.4-5.3c3.1-1.4,6.2-1.9,9.2-1.5c3.1,0.4,5.8,1.5,8.1,3.4
			c2.4,1.8,4.2,4.2,5.5,7c1.6,3.4,2.1,6.8,1.7,9.9c-0.4,3.3-1.5,6.1-3.4,8.5c-1.8,2.5-4,4.2-6.5,5.4
			C379.8,575.5,376.8,576,373.7,575.6"/>
		<path d="M418.7,551.8c-2.4,0.2-4.3-0.8-5.9-2.8c-0.8-1-1.1-2.1-0.9-3.3s0.8-2.2,2-3.1c0.7-0.5,1.3-0.7,1.9-0.6
			c0.6,0.1,1,0.2,1.1,0.4c0,0,0,0.2-0.2,0.6c-0.2,0.4-0.2,0.8-0.2,1.4c0,0.5,0.3,1.1,0.7,1.7c1,1.3,2.2,2.1,3.6,2.2
			c1.4,0.1,2.9-0.5,4.6-1.8c1.2-0.9,2-1.9,2.6-3c0.5-1.1,0.8-2.3,0.7-3.4c-0.1-1.1-0.5-2.1-1.1-2.9c-0.8-1-1.7-1.7-2.9-2
			c-1.1-0.3-2.3-0.4-3.6-0.2c-1.2,0.2-2.8,0.5-4.8,0.9c-2.3,0.5-4.2,0.9-5.8,1.1c-1.5,0.2-3.1,0-4.6-0.5c-1.5-0.5-2.9-1.5-4.1-3
			c-1.9-2.5-2.4-5-1.7-7.4c0.8-2.5,2.5-4.8,5.3-6.9c2.2-1.6,4.4-2.6,6.7-2.9c2.3-0.3,4.1,0.4,5.5,2.2c0.8,1,1.1,2.1,0.9,3.3
			c-0.2,1.2-0.8,2.2-2,3.1c-0.7,0.5-1.3,0.7-1.9,0.6c-0.6,0-1-0.2-1.1-0.4c0,0,0.1-0.3,0.4-0.7c0.3-0.4,0.4-1,0.4-1.6
			s-0.2-1.2-0.6-1.8c-0.8-1.1-1.8-1.6-3.1-1.6s-2.5,0.5-3.8,1.5c-1.7,1.3-2.8,2.7-3,4.2c-0.3,1.5,0,2.8,0.9,4c0.8,1,1.7,1.6,2.7,1.9
			c1.1,0.3,2.4,0.3,4.1,0c1.4-0.2,2.8-0.5,4.3-0.9c2.5-0.6,4.5-0.9,6.1-1s3.2,0.1,4.8,0.7c1.6,0.6,3,1.7,4.3,3.3
			c1.1,1.4,1.6,3.1,1.6,4.9c0,1.8-0.5,3.7-1.6,5.5c-1,1.8-2.5,3.4-4.3,4.8C423.7,550.4,421.1,551.6,418.7,551.8"/>
		<path d="M438.7,519.5l7.7-8l-13.6-5.7l-0.1,0.1L438.7,519.5z M440.4,536.2c-0.3,0-0.5-0.2-0.8-0.4c-0.4-0.4-0.5-0.7-0.5-0.9
			s0.2-0.4,0.3-0.6c0.2-0.2,0.3-0.3,0.3-0.4c0.7-0.8,1.1-1.5,1-2.3c-0.1-0.7-0.2-1.5-0.5-2.2c-0.3-0.7-0.5-1.2-0.6-1.4l-9.4-22.1
			c-0.2-0.5-0.5-0.9-0.7-1.1c-0.5-0.4-1-0.6-1.5-0.4c-0.6,0.2-1.2,0.5-2,1c-0.5,0.4-0.8,0.6-1,0.6s-0.4-0.1-0.8-0.5
			c-0.3-0.3-0.4-0.6-0.4-0.8c0.1-0.3,0.3-0.6,0.6-0.9c1.2-1.3,2.3-2.2,3.3-2.8c0.9-0.6,2-0.9,3.1-0.9s2.5,0.3,4.2,1l22.1,8.8
			c1.4,0.6,2.5,0.9,3.3,1s1.6-0.2,2.3-0.9l0.2-0.2c0.2-0.3,0.5-0.4,0.7-0.4s0.5,0.1,0.9,0.5c0.2,0.2,0.4,0.5,0.4,0.8
			c0.1,0.3,0,0.5-0.3,0.8c-1.7,1.6-3.1,3-4.2,4.2c-1.5,1.6-3,3.2-4.5,4.9c-0.2,0.2-0.5,0.3-0.8,0.3c-0.3,0-0.5-0.2-0.8-0.4
			c-0.3-0.4-0.5-0.7-0.5-0.8c0-0.2,0.1-0.4,0.4-0.7c0.8-0.9,1.4-1.6,1.5-2.1c0.2-0.5,0.1-1-0.4-1.4c-0.3-0.3-1.1-0.8-2.3-1.3
			l-4.5-1.8l-9.1,9.5c1,2.2,1.6,3.5,1.7,3.8c0.2,0.3,0.3,0.5,0.3,0.5c0.7,1.3,1.2,2,1.5,2.3c0.4,0.4,0.9,0.5,1.4,0.3
			c0.5-0.3,1.3-0.9,2.3-2l0.2-0.2c0.2-0.3,0.5-0.4,0.7-0.4c0.2,0,0.5,0.1,0.9,0.5c0.2,0.2,0.4,0.5,0.4,0.8c0.1,0.3,0,0.5-0.3,0.8
			c-1.7,1.6-3.1,3-4.2,4.1c-0.8,0.8-2,2.1-3.5,3.9C440.9,536.2,440.6,536.3,440.4,536.2"/>
		<path d="M459.7,495.2c-6.6-1.8-11.3-3.1-14.2-3.9c-1.6-0.4-2.8-0.5-3.7-0.4c-0.8,0.1-1.7,0.6-2.5,1.3c-0.1,0.1-0.3,0.2-0.5,0.4
			c-0.2,0.2-0.4,0.3-0.6,0.3s-0.4-0.1-0.7-0.3c-0.3-0.3-0.5-0.5-0.5-0.8s0.2-0.6,0.5-1c1.6-2.2,3.1-3.6,4.6-4.3
			c1.5-0.7,3.3-0.7,5.5-0.1l21.5,5.9l0.1-0.1L456,473.7c-0.4-0.5-0.7-0.9-1-1.1c-0.4-0.3-0.8-0.3-1.2-0.1c-0.4,0.2-0.8,0.8-1.4,1.5
			l-0.2,0.3c-0.2,0.3-0.4,0.5-0.6,0.5s-0.5-0.1-0.9-0.3c-0.3-0.2-0.4-0.4-0.5-0.7c-0.1-0.3-0.1-0.5,0.1-0.7c1.4-1.8,2.6-3.4,3.5-4.7
			c0.4-0.6,1.1-1.6,2.2-3.3l0.6-1c0.2-0.3,0.4-0.4,0.7-0.4s0.6,0.1,0.8,0.3c0.4,0.3,0.6,0.6,0.6,0.8c0,0.2-0.1,0.4-0.3,0.7
			c-0.9,1.3-1.4,2.4-1.4,3.3c-0.1,1,0.3,2.1,1.2,3.4c1.8,2.6,4.6,6.8,8.5,12.4c4,5.8,6.9,9.9,8.6,12.5l-1.5,2.1
			C470.9,498.2,466.1,496.9,459.7,495.2"/>
		<path d="M486.7,478.8c-0.3,0-0.6,0-0.9-0.2c-0.5-0.3-0.7-0.5-0.7-0.7c0-0.2,0.1-0.5,0.3-1c0.5-0.9,0.6-1.7,0.5-2.3
			c-0.1-0.6-0.4-1.1-0.8-1.5c-0.4-0.4-1.1-0.8-1.8-1.2l-19-9.4c-0.8-0.4-1.5-0.6-2.1-0.8c-0.6-0.1-1.1-0.1-1.7,0.2
			c-0.6,0.3-1.1,0.9-1.5,1.8L459,464c-0.2,0.3-0.3,0.5-0.5,0.6c-0.2,0.1-0.5,0-1-0.2c-0.3-0.1-0.5-0.3-0.6-0.6
			c-0.1-0.2-0.1-0.5,0-0.8c1.1-2.1,2.1-4,3-5.7l7.4-15c0.4-0.8,1-1.1,1.8-0.7l6.8,3.2c0.3,0.1,0.4,0.4,0.5,0.8c0,0.4,0,0.7-0.2,1
			c-0.2,0.4-0.4,0.7-0.7,0.9c-0.3,0.2-0.6,0.3-0.9,0.2c-1.7-0.5-3-0.8-4-0.9c-1-0.1-1.8,0-2.5,0.4c-0.7,0.4-1.3,1.1-1.9,2.2
			l-3.2,6.5l12.1,6.1l4.3-8.6c0.1-0.2,0.4-0.3,0.6-0.4c0.3,0,0.6,0,0.8,0.2c0.3,0.1,0.4,0.3,0.6,0.5c0.1,0.2,0.1,0.4,0,0.7l-4.3,8.6
			l9,4.5c0.7,0.3,1.3,0.5,1.7,0.6c0.4,0.1,1,0,1.5-0.3c0.6-0.3,1.1-1,1.6-2.1l2.2-4.4c0.5-1.1,0.8-2.1,0.7-2.8
			c0-0.7-0.3-1.5-0.9-2.1c-0.5-0.7-1.5-1.7-2.9-3c-0.5-0.5-0.4-1.2,0.1-2c0.2-0.3,0.5-0.5,0.8-0.7c0.3-0.1,0.6-0.1,0.9,0l5.6,4
			c0.4,0.3,0.6,0.6,0.6,0.8c0,0.3-0.1,0.6-0.3,1.1l-7.8,15.8c-0.9,1.7-1.8,3.7-2.7,5.9C487.2,478.6,487,478.7,486.7,478.8"/>
	</g>
</g>
</svg>
