<?xml version="1.0" encoding="UTF-8"?>
<svg id="Layer_1" data-name="Layer 1" xmlns="http://www.w3.org/2000/svg" viewBox="0 0 200 200">
  <defs>
    <style>
      .cls-1 {
        fill: #1d252c;
      }

      .cls-2, .cls-3 {
        fill: #e3e3e4;
      }

      .cls-2, .cls-4 {
        fill-rule: evenodd;
      }

      .cls-4, .cls-5 {
        fill: #db0032;
      }
    </style>
  </defs>
  <g>
    <rect class="cls-1" x="16.96" y="33.39" width="166.07" height="133.22" rx="20.65" ry="20.65"/>
    <path class="cls-5" d="M34.01,33.39h131.99c9.41,0,17.04,7.64,17.04,17.04v3.12H16.96v-3.12c0-9.41,7.64-17.04,17.04-17.04h0Z"/>
    <circle class="cls-1" cx="42.51" cy="45.1" r="3.87"/>
    <circle class="cls-3" cx="55.37" cy="45.1" r="3.87"/>
    <circle class="cls-3" cx="68.23" cy="45.1" r="3.87"/>
  </g>
  <g>
    <path class="cls-4" d="M62.76,101.3c1.48,0,2.74-.94,3.23-2.25h2.56v8.45h2.37v-9.63c0-.66-.53-1.19-1.19-1.19h-3.75c-.48-1.31-1.75-2.25-3.23-2.25-1.9,0-3.44,1.54-3.44,3.44s1.54,3.44,3.44,3.44Z"/>
    <path class="cls-2" d="M87.79,80.63h5.23v23.45c0,.19.15.34.34.34h13.29c.19,0,.34-.15.34-.34v-23.45h5.23c.14,0,.27-.09.32-.22.05-.13.01-.28-.09-.37l-12.21-10.65c-.13-.11-.32-.11-.45,0l-12.21,10.65c-.11.09-.15.24-.09.37.05.13.17.22.32.22h0Z"/>
    <path class="cls-4" d="M114.25,110.77c-.46,7.47-6.67,13.38-14.25,13.38s-13.79-5.91-14.25-13.38c-.03-.49.35-.9.85-.9h26.82c.49,0,.88.41.85.9Z"/>
    <path class="cls-4" d="M138,116.6c1.48,0,2.67-1.2,2.67-2.67v-3.22c0-.47-.38-.85-.85-.85h-19.12c-.45,0-.83.36-.85.81-.43,10.6-9.16,19.06-19.86,19.06s-19.43-8.46-19.86-19.06c-.02-.45-.39-.81-.85-.81h-19.12c-.47,0-.85.38-.85.85v3.22c0,1.48,1.2,2.67,2.67,2.67,8.01,0,12.03,9.7,6.37,15.37-1.04,1.04-1.04,2.74,0,3.78l5.75,5.75c1.04,1.04,2.74,1.04,3.78,0,5.67-5.67,15.37-1.65,15.37,6.37,0,1.48,1.2,2.67,2.67,2.67h8.13c1.48,0,2.67-1.2,2.67-2.67,0-8.01,9.7-12.03,15.37-6.37,1.04,1.04,2.74,1.04,3.78,0l5.75-5.75c1.04-1.04,1.04-2.74,0-3.78-5.66-5.66-1.64-15.37,6.37-15.37h0Z"/>
    <path class="cls-4" d="M134.01,99.05h-2.56v8.45h-2.37v-9.63c0-.66.53-1.19,1.19-1.19h3.75c.48-1.31,1.75-2.25,3.23-2.25,1.9,0,3.44,1.54,3.44,3.44s-1.54,3.44-3.44,3.44c-1.48,0-2.74-.94-3.23-2.25Z"/>
    <path class="cls-4" d="M65.99,81.61h11.05c.66,0,1.19.53,1.19,1.19v24.69h-2.37v-23.51h-9.87c-.48,1.31-1.75,2.25-3.23,2.25-1.9,0-3.44-1.54-3.44-3.44s1.54-3.44,3.44-3.44c1.48,0,2.74.94,3.23,2.25Z"/>
    <path class="cls-4" d="M134.01,83.99c.48,1.31,1.75,2.25,3.23,2.25,1.9,0,3.44-1.54,3.44-3.44s-1.54-3.44-3.44-3.44c-1.48,0-2.74.94-3.23,2.25h-11.05c-.66,0-1.19.53-1.19,1.19v24.69h2.37v-23.51h9.87Z"/>
  </g>
</svg>