<?xml version="1.0" encoding="UTF-8"?>
<svg id="Layer_1" data-name="Layer 1" xmlns="http://www.w3.org/2000/svg" viewBox="0 0 200 200">
  <defs>
    <style>
      .cls-1 {
        fill: #1d252c;
      }

      .cls-2 {
        fill: #e3e3e3;
      }

      .cls-3 {
        fill: #db0032;
      }
    </style>
  </defs>
  <g>
    <path class="cls-1" d="M123.39,73.77l-8.13,10.9c-1.37-1.37-2.92-2.55-4.62-3.52l8.07-10.82c1.23,1.52,2.84,2.7,4.69,3.44Z"/>
    <path class="cls-1" d="M160.75,62.18c0,1,.1,1.98.31,2.9h-20.47c.23-.95.34-1.92.34-2.9s-.12-1.97-.33-2.91h20.45c-.2.92-.3,1.89-.3,2.91Z"/>
    <path class="cls-1" d="M142.03,30.54l-10.07,10.07c-.53.53-.82,1.23-.82,1.97v7.14c-.98-.24-1.99-.37-3.04-.37-.93,0-1.87.1-2.78.3v-9.43c0-.78.3-1.5.85-2.05l13.41-13.41c.55-.55,1.28-.85,2.06-.85h19.44c-.22.97-.33,1.99-.33,3.07,0,.95.09,1.86.28,2.73h-17.02c-.75,0-1.45.29-1.98.82Z"/>
    <path class="cls-1" d="M115.17,115.84l8.07,10.74c-.6.34-1.09.75-1.5,1.11-.16.14-.3.27-.45.37-.96.67-1.79,1.44-2.47,2.3l-8.29-11.01c1.7-.96,3.25-2.15,4.63-3.51Z"/>
    <path class="cls-1" d="M140.9,141.17c.22-.95.33-1.92.33-2.91s-.12-1.97-.33-2.9h20.15c-.2.92-.3,1.89-.3,2.9s.1,1.98.31,2.91h-20.17Z"/>
    <path class="cls-1" d="M161.12,176.53h-19.47c-.77,0-1.52-.31-2.06-.85l-13.41-13.41c-.55-.55-.85-1.27-.85-2.05v-9.84c.98.24,2.01.37,3.07.37.94,0,1.86-.09,2.74-.27v7.38c0,.75.29,1.45.82,1.97l10.07,10.07c.53.53,1.23.82,1.98.82h16.99c-.17.84-.24,1.72-.24,2.64,0,1.11.12,2.17.37,3.17Z"/>
    <path class="cls-1" d="M121.52,103.13c.13-.96.19-1.92.19-2.91s-.06-1.95-.19-2.91h39.53c-.2.92-.3,1.89-.3,2.91s.1,1.98.31,2.91h-39.54Z"/>
    <path class="cls-1" d="M99.61,61.41c-.47,1.22-1.61,2.06-2.92,2.13-18.27,1.09-33.15,17.8-33.15,36.34s14.89,35.37,33.15,36.47c1.31.08,2.45.92,2.92,2.14l5.87,11.36,5.68,14.81,3.71,10.75c.21.54.27,1.12.19,1.68-.48,3.25-3.28,5.74-6.66,5.74h-16.97c-3.72,0-6.74-3.02-6.74-6.74v-7.26c0-2.9-1.86-5.48-4.62-6.39-3.07-1.02-7.71-2.25-10.56-3.68-2.6-1.31-5.74-.81-7.79,1.25l-5.13,5.13c-2.63,2.63-5.22,3.3-7.85.67l-13.42-13.42c-2.63-2.63-2.63-6.9,0-9.53l5.14-5.13c2.05-2.05,2.55-5.2,1.25-7.79-1.43-2.85-3.34-6.49-4.35-9.56-.91-2.76-3.49-4.62-6.39-4.62h-7.26c-3.72,0-6.74-3.02-6.74-6.74v-17.64c0-3.72,3.02-6.74,6.74-6.74h7.26c2.9,0,5.14-2.53,6.06-5.29,1.02-3.07,2.25-6.04,3.68-8.89,1.31-2.6.81-5.74-1.25-7.79l-5.14-5.13c-2.63-2.63-2.63-6.9,0-9.53l13.42-13.42c2.63-2.63,6.9-2.63,9.53,0l5.13,5.14c2.05,2.05,5.2,2.55,7.79,1.25,2.85-1.43,5.82-2.67,8.89-3.68,2.76-.91,4.62-3.49,4.62-6.39v-7.26c0-3.72,3.02-6.74,6.74-6.74h18.64c3.38,0,6.18,2.49,6.66,5.74.09.57.01,1.15-.19,1.69l-10.16,26.27-5.77,10.78Z"/>
    <path class="cls-3" d="M183.04,26.98c0-5.55-4.5-10.06-10.06-10.06-1.2,0-2.36.21-3.42.6-.75.27-1.47,1.09-2.09,1.53-2.57,1.8-3.95,4.43-3.95,7.93,0,5.55,3.91,9.72,9.46,9.72,4.35,0,8.06-2.43,9.46-6.29.39-1.07.6-2.22.6-3.42Z"/>
    <path class="cls-3" d="M183.04,62.18c0-5.55-4.5-10.06-10.06-10.06-1.2,0-2.36.21-3.42.6-.75.27-1.47,1.09-2.09,1.53-2.57,1.8-3.95,4.43-3.95,7.93,0,5.55,3.91,9.72,9.46,9.72,4.35,0,8.06-2.43,9.46-6.29.39-1.07.6-2.22.6-3.42Z"/>
    <path class="cls-3" d="M138.16,62.18c0-5.55-4.5-10.06-10.06-10.06-1.2,0-2.36.21-3.42.6-.75.27-1.47,1.09-2.09,1.53-2.57,1.8-3.95,4.43-3.95,7.93,0,5.55,3.91,9.72,9.46,9.72,4.35,0,8.06-2.43,9.46-6.29.39-1.07.6-2.22.6-3.42Z"/>
    <path class="cls-3" d="M183.04,100.22c0-5.55-4.5-10.06-10.06-10.06-1.2,0-2.36.21-3.42.6-.75.27-1.47,1.09-2.09,1.53-2.57,1.8-3.95,4.43-3.95,7.93,0,5.55,3.91,9.72,9.46,9.72,4.35,0,8.06-2.43,9.46-6.29.39-1.07.6-2.22.6-3.42Z"/>
    <path class="cls-3" d="M183.04,138.26c0-5.55-4.5-10.06-10.06-10.06-1.2,0-2.36.21-3.42.6-.75.27-1.47,1.09-2.09,1.53-2.57,1.8-3.95,4.43-3.95,7.93,0,5.55,3.91,9.72,9.46,9.72,4.35,0,8.06-2.43,9.46-6.29.39-1.07.6-2.22.6-3.42Z"/>
    <path class="cls-3" d="M138.46,138.26c0-5.55-4.5-10.06-10.06-10.06-1.2,0-2.36.21-3.42.6-.75.27-1.47,1.09-2.09,1.53-2.57,1.8-3.95,4.43-3.95,7.93,0,5.55,3.91,9.72,9.46,9.72,4.35,0,8.06-2.43,9.46-6.29.39-1.07.6-2.22.6-3.42Z"/>
    <path class="cls-3" d="M183.04,173.35c0-5.55-4.5-10.06-10.06-10.06-1.2,0-2.36.21-3.42.6-.75.27-1.47,1.09-2.09,1.53-2.57,1.8-3.95,4.43-3.95,7.93,0,5.55,3.91,9.72,9.46,9.72,4.35,0,8.06-2.43,9.46-6.29.39-1.07.6-2.22.6-3.42Z"/>
    <circle class="cls-3" cx="99.75" cy="100.22" r="25.04"/>
  </g>
  <g>
    <path class="cls-2" d="M82.81,92.82h2.87l6.27,9.31v-9.31h3.12v14.77h-2.89l-6.27-9.31v9.31h-3.1v-14.77Z"/>
    <path class="cls-2" d="M97.59,92.82h3.17v12.05h5.87v2.72h-9.03v-14.77Z"/>
    <path class="cls-2" d="M117.14,93.43c.81.4,1.44.97,1.88,1.72s.66,1.61.66,2.6-.22,1.85-.66,2.59c-.44.74-1.07,1.31-1.88,1.71-.81.4-1.74.6-2.8.6h-2.85v4.96h-3.17v-14.77h6.01c1.06,0,1.99.2,2.8.6ZM114.05,100c.75,0,1.34-.2,1.77-.61.44-.41.65-.96.65-1.65s-.22-1.26-.65-1.67c-.44-.41-1.03-.61-1.77-.61h-2.55v4.54h2.55Z"/>
  </g>
</svg>