<?xml version="1.0" encoding="utf-8"?>
<!-- Generator: Adobe Illustrator 28.0.0, SVG Export Plug-In . SVG Version: 6.00 Build 0)  -->
<svg version="1.1" id="Layer_1" xmlns="http://www.w3.org/2000/svg" xmlns:xlink="http://www.w3.org/1999/xlink" x="0px" y="0px"
	 viewBox="0 0 500 300" style="enable-background:new 0 0 500 300;" xml:space="preserve">
<style type="text/css">
	.st0{fill:#EC7620;}
	.st1{fill-rule:evenodd;clip-rule:evenodd;fill:#350600;}
	.st2{fill:#350600;}
	.st3{fill:#F88D2A;}
	.st4{fill:#FFC629;}
	.st5{fill:#42A7C6;}
	.st6{fill:#AD8B80;}
	.st7{fill:#404041;}
	.st8{fill:#E20613;}
	.st9{fill:#007A8A;}
	.st10{fill:#A0002D;}
	.st11{fill:#0380C3;}
	.st12{fill:#FFFCE7;}
	.st13{fill:#DAC094;}
	.st14{fill:#692525;}
	.st15{fill:#699043;}
	.st16{fill:#70715B;}
	.st17{fill:#C1E7F6;}
	.st18{clip-path:url(#SVGID_00000005981440772838372970000001632049343114749631_);fill:#C1E7F6;}
	.st19{clip-path:url(#SVGID_00000005981440772838372970000001632049343114749631_);fill:#7CD1EE;}
	.st20{fill:#7CD1EE;}
	.st21{fill:#92A1C6;}
	.st22{filter:url(#Adobe_OpacityMaskFilter);}
	
		.st23{clip-path:url(#SVGID_00000158707178179990107310000018269569783021520283_);fill:url(#SVGID_00000173157654488753468560000009052672506654953633_);}
	
		.st24{clip-path:url(#SVGID_00000158707178179990107310000018269569783021520283_);mask:url(#SVGID_00000105384330254197623820000009183980831973379990_);fill:url(#SVGID_00000031928640524527656330000012134366991326792347_);}
	.st25{clip-path:url(#SVGID_00000047017937955380760130000017776571335520225966_);fill:#604693;}
	.st26{fill:#00B2E3;}
	.st27{fill:#F5911E;}
	.st28{fill:#B12B26;}
	.st29{fill:#ED4036;}
	.st30{fill:#6D6E70;}
	.st31{fill:#121921;}
	.st32{fill:#0381C4;}
	.st33{fill:#A2732A;}
	.st34{fill:#513A16;}
	.st35{fill:#B99664;}
	.st36{fill:none;stroke:#B99664;stroke-width:1.2826;stroke-miterlimit:10;}
	.st37{fill:#8F9191;}
	.st38{fill:none;}
	.st39{fill:url(#SVGID_00000052798781144626428750000012120221949054988459_);}
	.st40{fill:url(#SVGID_00000096777023675785057640000013886860034581936525_);}
	.st41{fill:url(#SVGID_00000039827183666019262730000008271950583567117464_);}
	.st42{fill:#1A1A1A;}
	.st43{fill:url(#SVGID_00000160175162616769702040000005447538640748568731_);}
	.st44{fill:url(#SVGID_00000077295593013521483980000007392265950167153034_);}
	.st45{fill:url(#SVGID_00000066498548066618735750000011537624101885825936_);}
	.st46{fill:url(#SVGID_00000109020493416572182920000018061105836249889722_);}
	.st47{opacity:0.6;fill:url(#SVGID_00000105392072189411326980000009362851196581976242_);}
	.st48{fill:url(#SVGID_00000041272750257911897890000012053794140973344433_);}
	.st49{opacity:0.6;fill:url(#SVGID_00000029017453109647860310000000187818811817172126_);}
	.st50{fill:url(#SVGID_00000138532091768005226340000004768527037697110924_);}
	.st51{opacity:0.6;fill:url(#SVGID_00000074404846836368602690000001529208542044352941_);}
	.st52{fill:url(#SVGID_00000175284783203406728930000013134650813498315411_);}
	.st53{opacity:0.6;fill:url(#SVGID_00000135670810392244248800000014543092036312368538_);}
	.st54{fill:url(#SVGID_00000032636063325914575570000000766627484485318305_);}
	.st55{fill:url(#SVGID_00000144321645078211214910000004372141084122442399_);}
	.st56{opacity:0.6;fill:url(#SVGID_00000145029886128940126300000004149262095764674733_);}
	.st57{fill:url(#SVGID_00000032624650962930942140000005364072813672935041_);}
	.st58{fill:url(#SVGID_00000031190137262866693230000007466572999580434321_);}
	.st59{opacity:0.6;fill:url(#SVGID_00000179645290167117649900000007895867769236144828_);}
	.st60{fill:#AB774D;}
</style>
<g>
	<g>
		<path class="st31" d="M29.8,104.5c0-1.5,1.3-2.8,2.8-2.8h28.5c6.1,0,10.8,1.4,13.8,4.3c3.1,2.9,4.6,7,4.6,12.4
			c0,3.2-0.6,5.9-1.9,8.2c-1.3,2.3-3,4-5.2,5.2c3.1,1,5.4,2.5,7,4.6c1.6,2.1,2.4,5.1,2.4,9c0,6-1.7,10.5-5,13.5
			c-3.4,3-8.2,4.6-14.6,4.6H29.8V104.5z M58.7,127.3c5.8,0,8.7-2.6,8.7-7.9c0-2.8-0.7-4.9-2.2-6.2c-1.4-1.3-4-2-7.5-2h-15v16H58.7z
			 M59.3,154c3.3,0,5.7-0.7,7.3-2.1c1.5-1.4,2.3-3.7,2.3-7.1c0-2.8-0.8-4.9-2.3-6.2c-1.6-1.3-4.2-2-8-2H42.8V154H59.3z"/>
		<path class="st31" d="M96.8,101.7h41.6v10.1h-31.4v15.8h27.9v10h-27.9v15.9h31.4v10H94v-59C94,103,95.2,101.7,96.8,101.7"/>
		<path class="st31" d="M155.8,101.7h41.6v10.1H166v15.8h27.9v10H166v15.9h31.4v10H153v-59C153,103,154.3,101.7,155.8,101.7"/>
		<path class="st31" d="M231.5,101.7h10.4c1.2,0,2.2,0.7,2.6,1.8l22.8,60h-13.4l-5.9-14.9h-22.8l-5.8,14.9H206l22.9-60
			C229.3,102.4,230.4,101.7,231.5,101.7 M246.1,138.7l-9.5-24.9l-9.4,24.9H246.1z"/>
	</g>
	<polygon class="st31" points="275.9,101.7 288.9,101.7 288.9,127.6 315.9,127.6 315.9,101.7 328.9,101.7 328.9,163.5 315.9,163.5 
		315.9,137.6 288.9,137.6 288.9,163.5 275.9,163.5 	"/>
	<g>
		<path class="st32" d="M407.5,142.3v9c11.8-5.9,20.7-12.7,26-19.5c1.1,0.6,2.2,1.2,3.3,1.8c6,3.4,11.3,7.2,15.4,11.4
			c-4.2,5.6-9.4,10.6-15.4,15.2c-9.7,7.5-21.4,13.7-33.4,18.5v-59.3c1.6,0.7,3.2,1.3,4.8,1.9c4.8,1.6,9.6,3.4,14.1,5.3
			c0.6-0.7,1.2-1.4,1.7-2c1.2-1.6,2-3.1,2.5-4.5l0.1-0.4c-5-2.2-10.3-4.1-15.7-5.9c-2.7-0.9-5.2-2-7.6-3.3c-2.9-1.6-5.6-3.6-8.1-5.8
			c-8.7-7.9-14.2-19.3-14.2-32V49.2c18.9,5.2,39.8,13.8,55.6,25.9c14.6,11.2,25.1,25.6,25.3,42.5c-0.1,5.9-1.4,11.5-3.7,16.7
			c1.9,1.7,3.1,3,3.1,3c1,1.1,2,2.2,2.9,3.3c3.6-7.1,5.6-14.7,5.7-22.9c-0.2-20.4-12.6-37.4-30.3-50.4c-17.6-12.9-40.4-22-61.6-27.3
			c-2.6-0.6-5.1,1.3-5.1,4v28.6c0,17.5,8.8,32.9,22.2,42.2v34.1c-13.4,9.2-22.2,24.6-22.2,42.1v30.3c0,2.6,2.3,4.5,4.9,4
			c21.3-4,44.3-10.9,62-20.9c17.7-10.1,30-23.4,30.2-39.1c-0.1-7.5-2.9-14.5-7.8-20.9c-1.7-2.2-3.6-4.3-5.7-6.3
			c-4.7-4.4-10.3-8.4-16.7-12c-0.8-0.4-1.6-0.9-2.3-1.3c1-2.5,1.5-4.9,1.5-7.3c0-12.6-14.4-26.2-38-36.6c-2.7-1.2-5.7,0.8-5.7,3.8
			v14.2c2.4,2.6,5.1,4.9,8.1,6.8V91c17.7,8.8,27.6,19,27.6,26.6C431.1,117.5,432.9,128.7,407.5,142.3 M436.8,196.9
			c-15.8,9.1-36.7,15.7-55.6,19.5V191c0-12.7,5.5-24.1,14.2-32v25.5c0,2.9,2.9,4.8,5.5,3.8c13.9-5.2,27.5-11.9,38.9-20.3
			c6.8-5,12.8-10.6,17.7-16.7c2.9,4.3,4.5,9,4.6,13.9C462.1,177.9,451.5,188.5,436.8,196.9"/>
	</g>
	<polygon class="st31" points="30.1,194.4 46.6,194.4 46.6,199.1 35.2,199.1 35.2,204.9 45.5,204.9 45.5,209.6 35.2,209.6 35.2,216 
		46.7,216 46.7,220.7 30.1,220.7 	"/>
	<polygon class="st31" points="73.3,194.4 73.3,220.7 67.4,220.7 56,202.1 56,220.7 50.9,220.7 50.9,194.4 56.7,194.4 68.2,213 
		68.2,194.4 	"/>
	<polygon class="st31" points="101,194.4 92.6,220.7 85.3,220.7 77,194.4 82.5,194.4 89,215.8 95.5,194.4 	"/>
	<rect x="104.7" y="194.4" class="st31" width="5.1" height="26.4"/>
	<g>
		<path class="st31" d="M124.6,210.4h-3.7v10.3h-5.1v-26.4h10.4c6.9,0,9.4,3.4,9.4,7.8v0c0,3.7-1.9,6.7-5.8,7.7l6.6,10.8h-5.6
			L124.6,210.4z M120.9,205.9h5.6c2.5,0,3.9-1.2,3.9-3.5v0c0-2.2-1.5-3.3-3.9-3.3h-5.6V205.9z"/>
		<path class="st31" d="M139.2,207.5L139.2,207.5c0-7.5,5.2-13.6,13.4-13.6h0c8.2,0,13.4,6.1,13.4,13.6v0c0,7.5-5.2,13.7-13.4,13.7
			h0C144.4,221.2,139.2,215,139.2,207.5 M152.6,216.2c4.9,0,8.2-3.8,8.3-8.7v-0.1c0-4.9-3.3-8.5-8.3-8.5h0c-5,0-8.3,3.6-8.3,8.5v0.1
			C144.3,212.4,147.7,216.2,152.6,216.2L152.6,216.2z"/>
	</g>
	<polygon class="st31" points="192.8,194.4 192.8,220.7 186.9,220.7 175.5,202.1 175.5,220.7 170.4,220.7 170.4,194.4 176.2,194.4 
		187.7,213 187.7,194.4 	"/>
	<polygon class="st31" points="225.5,194.4 225.5,220.7 220.5,220.7 220.5,203 220.2,203.8 214.5,220.7 209.8,220.7 204,203.8 
		203.8,203.2 203.8,220.7 198.8,220.7 198.8,194.4 205.2,194.4 211.5,212.5 212.2,215.2 212.8,212.5 219.1,194.4 	"/>
	<polygon class="st31" points="230.7,194.4 247.2,194.4 247.2,199.1 235.8,199.1 235.8,204.9 246.1,204.9 246.1,209.6 235.8,209.6 
		235.8,216 247.3,216 247.3,220.7 230.7,220.7 	"/>
	<polygon class="st31" points="273.8,194.4 273.8,220.7 267.9,220.7 256.5,202.1 256.5,220.7 251.5,220.7 251.5,194.4 257.3,194.4 
		268.7,213 268.7,194.4 	"/>
	<polygon class="st31" points="286,199.2 277.6,199.2 277.6,194.4 299.5,194.4 299.5,199.2 291.1,199.2 291.1,220.7 286,220.7 	"/>
	<g>
		<path class="st31" d="M29.8,257.7l2-4.3c2,1.3,4.7,2.1,7.6,2.1c3.5,0,5.3-1.2,5.3-3.2v-0.1c0-1.7-1.3-2.5-4.8-3.5
			c-0.8-0.2-1.6-0.4-2.3-0.6c-4.8-1.3-6.9-3.7-6.9-7.8v-0.1c0-4.4,3.6-7.3,9.6-7.3c3.4,0,6.8,0.8,9.1,2.3l-2,4.3
			c-1.9-1.3-4.5-2-7.1-2c-3.1,0-4.5,1.1-4.5,2.7v0.1c0,1.9,1.2,2.6,3.6,3.4c0.7,0.2,1.7,0.5,2.5,0.7c5.7,1.6,7.9,4,7.9,8v0.1
			c0,4.9-3.9,7.8-10.3,7.8C35.7,260.1,32.1,259.3,29.8,257.7"/>
	</g>
	<polygon class="st31" points="53.7,233.4 70.3,233.4 70.3,238.1 58.8,238.1 58.8,243.9 69.2,243.9 69.2,248.6 58.8,248.6 
		58.8,254.9 70.3,254.9 70.3,259.7 53.7,259.7 	"/>
	<g>
		<path class="st31" d="M83.3,249.4h-3.7v10.3h-5.1v-26.4h10.4c6.9,0,9.4,3.4,9.4,7.8v0c0,3.7-1.9,6.7-5.8,7.7l6.6,10.8h-5.6
			L83.3,249.4z M79.6,244.9h5.6c2.5,0,3.9-1.2,3.9-3.5v0c0-2.2-1.5-3.3-3.9-3.3h-5.6V244.9z"/>
	</g>
	<polygon class="st31" points="121.2,233.4 112.9,259.7 105.5,259.7 97.2,233.4 102.7,233.4 109.2,254.8 115.7,233.4 	"/>
	<rect x="124.9" y="233.3" class="st31" width="5.1" height="26.4"/>
	<g>
		<path class="st31" d="M134.4,246.6L134.4,246.6c0-8.2,5.6-13.7,13.8-13.7h0c3.5,0,6.3,1,8.7,2.5l-2,4.4c-2.2-1.4-4.3-1.9-6.4-1.9
			h0c-4.6,0-8.5,2.7-8.5,8.6v0.1c0,5.9,4,8.6,8.5,8.6h0c2.1,0,4.2-0.5,6.5-1.9l2,4.4c-2.4,1.5-5.1,2.5-8.7,2.5h0
			C140.1,260.1,134.5,254.7,134.4,246.6"/>
	</g>
	<polygon class="st31" points="160.5,233.4 177,233.4 177,238.1 165.6,238.1 165.6,243.9 175.9,243.9 175.9,248.6 165.6,248.6 
		165.6,254.9 177.1,254.9 177.1,259.7 160.5,259.7 	"/>
	<g>
		<path class="st31" d="M180,257.7l2-4.3c2,1.3,4.7,2.1,7.6,2.1c3.5,0,5.3-1.2,5.3-3.2v-0.1c0-1.7-1.3-2.5-4.8-3.5
			c-0.8-0.2-1.6-0.4-2.3-0.6c-4.8-1.3-6.9-3.7-6.9-7.8v-0.1c0-4.4,3.6-7.3,9.6-7.3c3.4,0,6.8,0.8,9.1,2.3l-2,4.3
			c-1.9-1.3-4.5-2-7.1-2c-3.1,0-4.5,1.1-4.5,2.7v0.1c0,1.9,1.2,2.6,3.6,3.4c0.7,0.2,1.7,0.5,2.5,0.7c5.7,1.6,7.9,4,7.9,8v0.1
			c0,4.9-3.9,7.8-10.3,7.8C186,260.1,182.4,259.3,180,257.7"/>
	</g>
</g>
</svg>
