<?xml version="1.0" encoding="UTF-8"?>
<svg id="Layer_1" data-name="Layer 1" xmlns="http://www.w3.org/2000/svg" viewBox="0 0 200 200">
  <defs>
    <style>
      .cls-1 {
        fill: #db0032;
      }

      .cls-1, .cls-2, .cls-3 {
        stroke-width: 0px;
      }

      .cls-2 {
        fill: #e3e3e4;
      }

      .cls-3 {
        fill: #1d252c;
      }
    </style>
  </defs>
  <rect class="cls-3" x="48.96" y="15.15" width="99.72" height="169.7" rx="27.64" ry="27.64"/>
  <circle class="cls-1" cx="100.26" cy="165.9" r="4.08"/>
  <g>
    <path class="cls-1" d="M49.29,134.06s-.03,0-.05,0c-1.44-.08-2.88-.26-4.28-.54-.46-.09-.75-.53-.66-.99.09-.46.53-.76.99-.66,1.33.26,2.7.43,4.06.51.46.03.82.42.79.89-.03.45-.4.79-.84.79Z"/>
    <path class="cls-1" d="M37.72,131.09c-.12,0-.24-.03-.36-.08-2.41-1.15-4.67-2.6-6.73-4.31-.36-.3-.4-.83-.11-1.18.3-.36.83-.4,1.18-.11,1.95,1.62,4.09,3,6.37,4.09.42.2.6.7.4,1.12-.14.3-.44.48-.76.48ZM25.86,121.21c-.26,0-.52-.12-.68-.35-1.57-2.17-2.86-4.52-3.84-7-.17-.43.04-.92.47-1.09.43-.17.92.04,1.09.47.93,2.35,2.15,4.58,3.64,6.64.27.38.19.9-.19,1.17-.15.11-.32.16-.49.16ZM20.19,106.85c-.42,0-.78-.31-.83-.74-.16-1.32-.25-2.66-.25-4,0-1.33.08-2.67.25-3.98.06-.46.48-.79.94-.73.46.06.79.48.73.94-.15,1.24-.23,2.51-.23,3.77,0,1.27.08,2.55.24,3.8.06.46-.27.88-.73.94-.04,0-.07,0-.11,0ZM22.11,91.53c-.1,0-.21-.02-.31-.06-.43-.17-.64-.66-.47-1.09.98-2.48,2.27-4.84,3.84-7.01.27-.38.8-.46,1.17-.19s.46.8.19,1.17c-1.49,2.05-2.71,4.29-3.64,6.64-.13.33-.45.53-.78.53ZM31.16,79.01c-.24,0-.48-.1-.65-.3-.3-.36-.25-.89.11-1.18,2.05-1.71,4.31-3.17,6.72-4.32.42-.2.92-.02,1.12.4.2.42.02.92-.4,1.12-2.28,1.09-4.42,2.47-6.37,4.09-.16.13-.35.2-.54.2Z"/>
    <path class="cls-1" d="M45.12,72.36c-.39,0-.75-.28-.82-.68-.09-.46.21-.9.66-.99,1.41-.27,2.85-.46,4.28-.54.45-.02.86.33.89.79.03.46-.33.86-.79.89-1.36.08-2.72.25-4.06.51-.05.01-.11.02-.16.02Z"/>
  </g>
  <path class="cls-2" d="M49.66,70.2c.62-.04,1.25-.05,1.87-.05,17.65,0,31.96,14.31,31.96,31.96s-14.31,31.96-31.96,31.96c-.63,0-1.26-.02-1.88-.05"/>
  <path class="cls-1" d="M121.05,185.51h-44.45c-15.6,0-28.3-12.69-28.3-28.3V42.79c0-15.6,12.69-28.3,28.3-28.3h44.45c15.6,0,28.29,12.69,28.29,28.3v114.42c0,15.6-12.69,28.3-28.29,28.3ZM76.6,15.81c-14.88,0-26.98,12.1-26.98,26.98v114.42c0,14.88,12.1,26.98,26.98,26.98h44.45c14.88,0,26.98-12.1,26.98-26.98V42.79c0-14.88-12.1-26.98-26.98-26.98h-44.45Z"/>
</svg>