<?xml version="1.0" encoding="UTF-8"?>
<svg id="Layer_1" data-name="Layer 1" xmlns="http://www.w3.org/2000/svg" viewBox="0 0 200 200">
  <defs>
    <style>
      .cls-1 {
        fill: #db0032;
      }

      .cls-1, .cls-2 {
        fill-rule: evenodd;
      }

      .cls-2 {
        fill: #1d252c;
      }
    </style>
  </defs>
  <path class="cls-2" d="M101.04,89.18l-11.49,13.63s-.04.04-.05.06l-12.35,14.65c-2.49,3.02-5.55,5.46-8.99,7.18l6.51,6.36c1,.98,1.53,2.23,1.53,3.63,0,.71-.14,1.39-.4,2.01,4.67-2.54,8.83-5.97,12.29-10.17l10.18-12.07s.04-.05.06-.07l12.15-14.41s.04-.05.06-.07l15.74-18.67c4.65-5.51,11-8.65,17.89-8.83.61-.02,1.19.21,1.63.64.44.42.68,1.01.68,1.61v3.98c0,.06,0,.07.06.09.05.02.06.02.11-.02l4.36-4.26s.04-.05.07-.07l8.85-8.65c.13-.13.17-.23.17-.41s-.04-.28-.17-.4l-6.02-5.89s-.04-.04-.06-.06l-7.2-7.04s-.05-.04-.11-.02c-.06.02-.06.03-.06.09v3.99c0,1.23-.99,2.24-2.22,2.25-11.15.14-21.38,5.07-28.8,13.88l-13.07,15.51c-.11.46-.36.88-.74,1.21-.18.15-.37.27-.57.35Z"/>
  <path class="cls-2" d="M87.79,97.9l9.26-10.98-12.48-14.8c-7.42-8.8-17.65-13.73-28.8-13.88-1.23-.02-2.23-1.02-2.23-2.25v-3.99c0-.06,0-.07-.06-.09-.06-.02-.06-.02-.11.02l-7.21,7.05s-.03.03-.05.05l-6.02,5.89c-.13.13-.17.23-.17.4s.04.28.17.41l8.85,8.65s.05.05.07.07l4.36,4.26s.05.04.11.02c.05-.02.06-.03.06-.09v-3.98c0-.61.25-1.19.68-1.61.42-.41.98-.64,1.57-.64.02,0,.04,0,.06,0,6.89.18,13.24,3.32,17.89,8.83l14.05,16.66Z"/>
  <path class="cls-2" d="M28.18,99.97c0-10.54,6-20.08,15.24-24.71l-6.47-6.32c-1-.98-1.53-2.23-1.53-3.63,0-.74.15-1.45.44-2.09-13.32,7.19-21.84,21.11-21.84,36.75,0,23.04,18.74,41.78,41.78,41.78,1.25,0,2.25,1.01,2.25,2.25v4c0,.06,0,.07.06.09.06.02.06.02.11-.02l7.28-7.11s.03-.04.05-.05l5.95-5.82c.13-.13.17-.23.17-.41s-.04-.28-.17-.4l-8.89-8.69s-.05-.05-.07-.07l-4.32-4.22s-.05-.04-.11-.02c-.05.02-.06.03-.06.09v3.98c0,1.24-1.01,2.25-2.25,2.25-15.23,0-27.62-12.39-27.62-27.63Z"/>
  <path class="cls-2" d="M102.94,115.87l8.97,10.64c3.47,4.21,7.63,7.65,12.3,10.19-.27-.62-.41-1.3-.41-2.01,0-1.4.53-2.65,1.53-3.63l6.51-6.36c-3.44-1.72-6.51-4.16-8.99-7.17l-.07-.08-10.58-12.55-9.26,10.98Z"/>
  <path class="cls-2" d="M137.38,125.59l-8.89,8.69c-.13.13-.17.22-.17.4s.04.28.17.41l5.95,5.82s.04.03.05.05l7.28,7.12s.05.04.1.02c.06-.02.06-.03.06-.09v-4c0-1.24,1.01-2.25,2.25-2.25,23.04,0,41.78-18.74,41.78-41.78,0-15.63-8.52-29.56-21.84-36.75.29.64.44,1.35.44,2.09,0,1.4-.53,2.65-1.52,3.63l-6.47,6.32c9.24,4.63,15.24,14.16,15.24,24.71,0,15.23-12.39,27.63-27.63,27.63-1.25,0-2.25-1.01-2.25-2.25v-3.98c0-.06,0-.07-.06-.09-.06-.02-.06-.02-.1.02l-4.33,4.22s-.05.05-.07.07Z"/>
  <path class="cls-1" d="M73.72,114.58l11.12-13.19-14.54-17.25c-3.27-3.89-7.56-6.33-12.25-7.03v1.53c0,1.89-1.08,3.51-2.82,4.24-1.74.73-3.65.37-5-.95l-3.36-3.29c-8.54,3.57-14.18,11.98-14.18,21.34,0,11.99,9.17,21.87,20.86,23.01v-1.62c0-1.89,1.08-3.51,2.82-4.24,1.74-.73,3.65-.37,5,.95l3.33,3.25c3.47-1.44,6.54-3.73,8.96-6.67l.06-.08h0ZM66.1,91.85v16.31c0,1.24-1.01,2.25-2.25,2.25s-2.25-1.01-2.25-2.25v-16.31c0-1.24,1.01-2.25,2.25-2.25s2.25,1.01,2.25,2.25h0ZM54.85,104.14c.73-1.01,2.14-1.23,3.15-.49,1.01.73,1.23,2.14.5,3.15-1.65,2.27-4.3,3.62-7.09,3.62-4.83,0-8.77-3.93-8.77-8.77v-3.28c0-4.83,3.93-8.77,8.77-8.77,2.79,0,5.44,1.35,7.09,3.62.73,1.01.51,2.41-.5,3.15-1.01.73-2.41.51-3.15-.49-.81-1.11-2.09-1.77-3.45-1.77-2.35,0-4.26,1.91-4.26,4.26v3.28c0,2.35,1.91,4.26,4.26,4.26,1.35,0,2.64-.66,3.45-1.77Z"/>
  <path class="cls-1" d="M115.15,101.39l11.19,13.27c2.42,2.94,5.49,5.22,8.96,6.67l3.33-3.25c.89-.87,2.02-1.32,3.19-1.32.6,0,1.22.12,1.81.37,1.74.73,2.82,2.36,2.82,4.24v1.62c11.69-1.14,20.87-11.02,20.87-23.01,0-9.36-5.65-17.77-14.18-21.34l-3.37,3.29c-1.35,1.32-3.27,1.68-5,.95-1.74-.73-2.82-2.36-2.82-4.24v-1.53c-4.69.7-8.97,3.14-12.25,7.03l-14.54,17.25h0ZM140.36,106.79c-1.65,2.27-4.3,3.62-7.09,3.62-4.83,0-8.77-3.93-8.77-8.77v-3.28c0-4.83,3.93-8.77,8.77-8.77,2.79,0,5.44,1.35,7.09,3.62.73,1.01.51,2.41-.5,3.15-1,.73-2.41.51-3.14-.49-.8-1.11-2.1-1.77-3.45-1.77-2.35,0-4.26,1.91-4.26,4.26v3.28c0,2.35,1.91,4.26,4.26,4.26,1.35,0,2.64-.66,3.45-1.77.73-1.01,2.14-1.23,3.14-.49,1.01.73,1.23,2.14.5,3.15h0ZM152.23,110.41h-6.51c-1.24,0-2.25-1.01-2.25-2.25v-16.31c0-1.24,1.01-2.25,2.25-2.25h6.51c4.83,0,8.77,3.93,8.77,8.77v3.28c0,4.83-3.94,8.77-8.77,8.77Z"/>
  <path class="cls-1" d="M147.97,94.1v11.8h4.26c2.35,0,4.26-1.91,4.26-4.26v-3.28c0-2.35-1.91-4.26-4.26-4.26h-4.26Z"/>
</svg>