<?xml version="1.0" encoding="UTF-8"?>
<svg id="Layer_1" data-name="Layer 1" xmlns="http://www.w3.org/2000/svg" version="1.1" viewBox="0 0 500 200">
  <defs>
    <style>
      .cls-1 {
        fill: #212951;
      }

      .cls-1, .cls-2 {
        stroke-width: 0px;
      }

      .cls-2 {
        fill: #2eabe3;
      }
    </style>
  </defs>
  <g>
    <path class="cls-1" d="M75.76,111.94h-5.58c-3.21,0-5.38-1.61-6.7-4.89-.98,1.54-2.93,2.37-5.65,2.37-4.75,0-7.82-4.12-7.82-9.63,0-5.93,3-9.77,8.24-9.77,0-.07,3.56-.07,10.61-.07v12.5c0,2.65,1.33,4.05,4.05,4.05h2.86v5.45ZM59.42,86.32h-4.96v-4.61h4.96v4.61ZM63.12,99.37v-5.24h-3.63c-2.23,0-3.91,2.51-3.91,5.58,0,2.79,1.61,5.1,3.84,5.1,2.3,0,3.7-2.16,3.7-5.45ZM66.89,86.32h-4.96v-4.61h4.96v4.61Z"/>
    <path class="cls-1" d="M83.23,111.94h-8.52v-5.31h8.52v5.31Z"/>
    <path class="cls-1" d="M86.65,118.57h-4.96v-4.61h4.96v4.61ZM100.54,111.94h-17.87v-5.31h3.63c1.88,0,2.79-1.26,2.79-3.84v-8.87h5.58v8.66c0,1.47-.21,2.79-.63,4.05h6.49s0,5.31,0,5.31ZM94.12,118.57h-4.96v-4.61h4.96v4.61Z"/>
    <path class="cls-1" d="M126.93,111.94h-6.35c-1.61,2.23-4.12,3.42-7.4,3.42s-5.86-1.19-7.54-3.42h-6.14v-5.31h4.47c0-5.72,3.28-9.28,9.01-9.28s9.28,3.49,9.28,9.28h4.68v5.31ZM116.74,106.49c0-3.14-1.19-4.75-3.56-4.75h-.42c-2.02,0-3.35,1.88-3.35,4.47s1.33,4.54,3.7,4.54c2.23.07,3.63-1.61,3.63-4.26Z"/>
    <path class="cls-1" d="M149.06,102.86c0,2.72-.84,4.89-2.51,6.56-1.61,1.68-3.84,2.51-6.63,2.51h-14.24v-5.31h5.65c-.42-1.19-.63-2.37-.63-3.7,0-5.51,3.49-9.01,9.01-9.01,2.79,0,5.03.77,6.77,2.37,1.75,1.54,2.58,3.77,2.58,6.56ZM138.38,90.92h-4.96v-4.54h4.96v4.54ZM143.54,103.07c0-3.14-1.19-4.68-3.56-4.68h-.42c-1.12,0-1.95.49-2.65,1.47-.49.84-.77,1.88-.77,3,0,1.33.28,2.37.91,3.21.7.98,1.61,1.47,2.86,1.47,1.19,0,2.09-.42,2.72-1.33.63-.98.91-1.95.91-3.14ZM145.85,90.92h-4.96v-4.54h4.96v4.54Z"/>
    <path class="cls-1" d="M169.16,111.94h-6.14c-.91,4.4-4.47,6.56-10.82,6.56v-4.47c3.63,0,5.51-1.75,5.51-5.24v-14.87h5.58v12.71h5.86v5.31h0Z"/>
    <path class="cls-1" d="M179.56,104.26c0,2.09-.63,3.84-1.75,5.24-1.33,1.61-3.14,2.44-5.51,2.44h-5.24v-5.31h4.12c1.88,0,2.79-1.33,2.79-3.91v-16.4h5.58v17.94Z"/>
    <path class="cls-1" d="M188.99,111.94h-5.58v-25.62h5.58v25.62Z"/>
    <path class="cls-1" d="M231.85,111.94h-.28c-3.21,0-5.58-.77-7.19-2.37-1.26,5.38-6.91,8.94-13.33,8.94-7.96,0-14.24-5.86-14.24-13.54v-4.75h5.58v4.26c0,5.31,3.14,8.94,8.8,8.94,4.33,0,8.38-2.72,8.38-6.42,0-2.09-1.82-3.49-3.7-3.49-.35,0-.63.07-.98.14v-4.82c0-.07.77-.07,2.44-.07,4.05,0,6.98,1.82,8.94,5.51.98,1.82,2.37,2.44,4.75,2.44h.91v5.24h-.07ZM210.42,126.81h-4.96v-4.54h4.96v4.54ZM217.89,126.81h-4.96v-4.54h4.96v4.54Z"/>
    <path class="cls-1" d="M239.88,111.94h-8.52v-5.31h8.52v5.31Z"/>
    <path class="cls-1" d="M247.77,111.94h-8.52v-5.31h8.52v5.31Z"/>
    <path class="cls-1" d="M255.58,111.94h-8.52v-5.31h8.52v5.31Z"/>
    <path class="cls-1" d="M263.47,111.94h-8.52v-5.31h8.52v5.31Z"/>
    <path class="cls-1" d="M271.36,111.94h-8.52v-5.31h8.52v5.31Z"/>
    <path class="cls-1" d="M279.25,111.94h-8.52v-5.31h8.52v5.31Z"/>
    <path class="cls-1" d="M287.07,111.94h-8.52v-5.31h8.52v5.31Z"/>
    <path class="cls-1" d="M294.96,111.94h-8.52v-5.31h8.52v5.31Z"/>
    <path class="cls-1" d="M302.84,111.94h-8.52v-5.31h8.52v5.31Z"/>
    <path class="cls-1" d="M314.08,104.26c0,2.09-.63,3.84-1.75,5.24-1.33,1.61-3.14,2.44-5.45,2.44h-4.75v-5.31h3.56c1.88,0,2.79-1.33,2.79-3.91v-8.8h5.58v10.33h0ZM313.8,118.57h-4.96v-4.61h4.96v4.61Z"/>
    <path class="cls-1" d="M337.61,111.94h-19.97v-5.31h14.45c0-5.58-3-8.03-10.12-8.03v-4.68c3.49,0,5.93.21,7.4.77,5.38,1.88,8.24,5.86,8.24,11.87v5.38Z"/>
  </g>
  <g>
    <path class="cls-1" d="M50,137.21h10.61c2.09,0,4.05.35,5.86,1.05,1.75.7,3.28,1.61,4.61,2.86,1.26,1.19,2.3,2.65,3,4.26.7,1.68,1.05,3.42,1.05,5.31v.07c0,1.88-.35,3.7-1.05,5.38s-1.68,3.07-3,4.33c-1.26,1.19-2.79,2.16-4.61,2.86-1.75.7-3.7,1.05-5.86,1.05h-10.61v-27.16ZM60.61,158.92c1.19,0,2.3-.21,3.35-.56.98-.42,1.88-.98,2.58-1.68s1.26-1.61,1.68-2.58c.42-.98.63-2.09.63-3.28v-.07c0-1.19-.21-2.3-.63-3.28-.42-.98-.98-1.88-1.68-2.58s-1.61-1.26-2.58-1.68c-.98-.42-2.09-.63-3.35-.63h-4.61v16.4h4.61v-.07Z"/>
    <path class="cls-1" d="M79.39,137.21h6v27.16h-6s0-27.16,0-27.16Z"/>
    <path class="cls-1" d="M104.03,164.78c-2.09,0-4.05-.35-5.79-1.05s-3.28-1.68-4.47-2.93c-1.26-1.26-2.23-2.72-2.93-4.4-.7-1.68-1.05-3.56-1.05-5.58v-.07c0-1.95.35-3.77,1.05-5.45.7-1.68,1.68-3.21,3-4.47,1.26-1.26,2.79-2.3,4.47-3,1.75-.77,3.63-1.12,5.72-1.12,1.19,0,2.3.07,3.35.28.98.14,1.95.42,2.79.7s1.68.7,2.37,1.19c.77.49,1.47.98,2.16,1.61l-3.77,4.54c-.49-.42-1.05-.84-1.54-1.19s-1.05-.63-1.61-.84-1.19-.42-1.82-.56-1.33-.21-2.16-.21c-1.12,0-2.09.21-3.07.7s-1.75,1.05-2.51,1.82c-.7.77-1.26,1.68-1.68,2.65-.42,1.05-.63,2.09-.63,3.28v.07c0,1.26.21,2.37.63,3.42s.98,1.95,1.68,2.72c.77.77,1.61,1.4,2.58,1.82.98.42,2.09.63,3.35.63,2.23,0,4.12-.56,5.65-1.68v-3.91h-6v-5.17h11.8v11.8c-1.4,1.19-3.07,2.23-4.96,3.07-1.95.91-4.19,1.33-6.63,1.33Z"/>
    <path class="cls-1" d="M120.37,137.21h6v27.16h-6v-27.16Z"/>
    <path class="cls-1" d="M138.24,142.72h-8.24v-5.51h22.48v5.51h-8.24v21.64h-6v-21.64h0Z"/>
    <path class="cls-1" d="M165.11,137h5.51l11.66,27.36h-6.28l-2.51-6.07h-11.52l-2.51,6.07h-6.07l11.73-27.36ZM171.4,152.98l-3.63-8.8-3.63,8.8h7.26Z"/>
    <path class="cls-1" d="M185.22,137.21h6v21.78h13.54v5.38h-19.55v-27.16Z"/>
    <path class="cls-1" d="M217.89,137.21h10.61c2.09,0,4.05.35,5.86,1.05,1.75.7,3.28,1.61,4.61,2.86,1.26,1.19,2.3,2.65,3,4.26.7,1.68,1.05,3.42,1.05,5.31v.07c0,1.88-.35,3.7-1.05,5.38s-1.68,3.07-3,4.33c-1.26,1.19-2.79,2.16-4.61,2.86-1.75.7-3.7,1.05-5.86,1.05h-10.61v-27.16h0ZM228.5,158.92c1.19,0,2.3-.21,3.35-.56.98-.42,1.88-.98,2.58-1.68s1.26-1.61,1.68-2.58.63-2.09.63-3.28v-.07c0-1.19-.21-2.3-.63-3.28s-.98-1.88-1.68-2.58-1.61-1.26-2.58-1.68c-.98-.42-2.09-.63-3.35-.63h-4.61v16.4h4.61v-.07Z"/>
    <path class="cls-1" d="M258.31,164.78c-3.63,0-6.49-.98-8.59-3-2.09-2.02-3.14-5.03-3.14-9.08v-15.5h6v15.36c0,2.23.49,3.91,1.54,5.03,1.05,1.12,2.44,1.68,4.33,1.68s3.28-.56,4.33-1.61c1.05-1.12,1.54-2.72,1.54-4.89v-15.57h6v15.36c0,2.09-.28,3.84-.84,5.38-.56,1.54-1.33,2.79-2.37,3.84s-2.3,1.82-3.77,2.3c-1.54.42-3.21.7-5.03.7Z"/>
    <path class="cls-1" d="M275.06,137.21h12.57c3.14,0,5.51.77,7.12,2.37,1.26,1.26,1.88,2.79,1.88,4.61v.07c0,.77-.07,1.47-.28,2.02-.21.63-.42,1.12-.77,1.61s-.7.91-1.12,1.26-.91.7-1.4.91c1.61.63,2.79,1.4,3.7,2.44s1.33,2.44,1.33,4.26v.07c0,1.26-.21,2.3-.7,3.28-.49.91-1.19,1.68-2.02,2.3-.91.63-1.95,1.12-3.21,1.4-1.26.28-2.65.49-4.19.49h-12.91v-27.09ZM286.44,148.17c1.33,0,2.37-.21,3.14-.7.77-.42,1.19-1.19,1.19-2.16v-.07c0-.91-.35-1.61-.98-2.09-.7-.49-1.68-.7-2.93-.7h-5.93v5.72h5.51ZM288.05,159.13c1.33,0,2.37-.21,3.07-.7.77-.49,1.12-1.26,1.12-2.23v-.14c0-.91-.35-1.61-1.05-2.16s-1.82-.77-3.35-.77h-6.91v6h7.12Z"/>
    <path class="cls-1" d="M311.15,137h5.51l11.66,27.36h-6.28l-2.51-6.07h-11.52l-2.51,6.07h-6.07l11.73-27.36ZM317.5,152.98l-3.63-8.8-3.63,8.8h7.26Z"/>
    <path class="cls-1" d="M331.54,137.21h6v27.16h-6v-27.16Z"/>
  </g>
  <g>
    <path class="cls-2" d="M385.15,151.17h-26.95v13.68h26.95c35.81,0,64.85-29.04,64.85-64.85s-29.04-64.85-64.85-64.85h-69.18v13.68h69.18c28.27,0,51.24,22.9,51.24,51.24s-22.97,51.1-51.24,51.1h0Z"/>
    <path class="cls-2" d="M385.15,62.23h-43.49v13.54h43.49c13.33,0,24.15,10.82,24.15,24.15s-10.82,24.15-24.15,24.15h-13.54v-35.6h-13.54v49.21h27.09c20.8,0,37.7-16.89,37.7-37.7s-16.89-37.77-37.7-37.77Z"/>
  </g>
</svg>