<?xml version="1.0" encoding="UTF-8"?>
<svg id="Layer_1" data-name="Layer 1" xmlns="http://www.w3.org/2000/svg" viewBox="0 0 500 300">
  <defs>
    <style>
      .cls-1 {
        fill: #36b0c9;
      }

      .cls-1, .cls-2 {
        stroke-width: 0px;
      }

      .cls-2 {
        fill: #4b3d2a;
      }
    </style>
  </defs>
  <path class="cls-1" d="M259.69,60.66c-3.32,3.54-4.96,8.18-4.96,13.86s1.61,10.23,4.89,13.83c3.15,3.46,7.05,5.23,11.72,5.33,4.44.1,8.87-1.65,11.99-4.82,3.57-3.63,5.38-8.41,5.38-14.34s-1.64-10.29-4.89-13.86c-3.22-3.6-7.2-5.4-12.03-5.4s-8.84,1.8-12.09,5.4h0ZM280.22,61.45c2.24,3.35,3.38,7.7,3.38,13.07s-1.14,9.76-3.38,13.14c-2.3,3.38-5.12,5.08-8.43,5.08s-6.22-1.74-8.53-5.15c-2.3-3.44-3.47-7.8-3.47-13.07s1.17-9.63,3.47-13.07c2.3-3.38,5.15-5.08,8.53-5.08s6.13,1.71,8.43,5.08h0Z"/>
  <path class="cls-1" d="M334.31,60.66c-3.32,3.54-4.96,8.18-4.96,13.86s1.61,10.23,4.89,13.83c3.15,3.46,7.05,5.23,11.72,5.33,4.44.1,8.87-1.65,11.99-4.82,3.57-3.63,5.38-8.41,5.38-14.34s-1.64-10.29-4.89-13.86c-3.22-3.6-7.2-5.4-12.03-5.4s-8.84,1.8-12.09,5.4h0ZM354.83,61.45c2.24,3.35,3.38,7.7,3.38,13.07s-1.14,9.76-3.38,13.14c-2.3,3.38-5.12,5.08-8.43,5.08s-6.22-1.74-8.53-5.15c-2.3-3.44-3.47-7.8-3.47-13.07s1.17-9.63,3.47-13.07c2.3-3.38,5.15-5.08,8.53-5.08s6.13,1.71,8.43,5.08h0Z"/>
  <path class="cls-2" d="M356.45,170.63c.11-.03,2.51-.11,2.51-.11l3.31-9.4c2.72-7.7,13.68-16.76,26.75-14.6,1.82.3,3.35,1.54,3.97,3.28l6.19,17.53c.7,1.98,2.57,3.3,4.67,3.3h0c3.43,0,5.82-3.41,4.66-6.63l-23.67-65.48h-2.19l-26.19,72.11ZM365.02,153.32l9.92-27.98c1.56-4.39,7.76-4.4,9.33-.01l4.5,12.59c1.14,3.2-1.25,6.41-4.64,6.53-7.21.27-14.17,3.39-19.11,8.87h0Z"/>
  <path class="cls-1" d="M203.7,92.07c-7.78,0-14.08-7.97-14.08-17.81s6.3-17.81,14.08-17.81c3.82,0,7.28,1.93,9.82,5.05l1.99-1.62v-.22c-3.27-2.75-7.46-4.4-12.03-4.4-10.43,0-18.89,8.6-18.89,19.21s8.46,19.21,18.89,19.21c4.57,0,8.76-1.65,12.03-4.4l-2.03-2.22c-2.53,3.1-5.98,5-9.78,5Z"/>
  <path class="cls-1" d="M312.71,92.07c-7.78,0-14.08-7.97-14.08-17.81s6.3-17.81,14.08-17.81c3.82,0,7.28,1.93,9.82,5.05l1.99-1.62v-.22c-3.27-2.75-7.46-4.4-12.03-4.4-10.43,0-18.89,8.6-18.89,19.21s8.46,19.21,18.89,19.21c4.57,0,8.76-1.65,12.03-4.4l-2.03-2.22c-2.53,3.1-5.98,5-9.78,5Z"/>
  <path class="cls-1" d="M248.8,56.33h-5.08v16.32c-1.45-.63-2.97-.95-4.58-.95-3.22,0-6.13,1.29-8.21,3.41-1.04,1.04-1.89,2.27-2.49,3.63v-22.42h-5.05v37.35h5.07l-.02-10.33c0-2.97,1.2-5.65,3.16-7.58,1.93-1.93,4.61-3.13,7.55-3.13,1.61,0,3.16.35,4.58,1.01v20.02h5.11l-.02-37.35Z"/>
  <path class="cls-2" d="M347.22,98.52h-.06c-2.69,0-4.88,2.18-4.88,4.88v20.25c0,2.99-2.65,5.22-5.61,4.79-1.06-.15-2.13-.23-3.23-.23-6.22,0-11.83,2.5-15.85,6.58-2.01,2.01-3.66,4.39-4.82,7.01v-38.4c0-2.69-2.18-4.88-4.88-4.88h0c-2.69,0-4.88,2.18-4.88,4.88v62.36c0,2.69,2.18,4.88,4.88,4.88h.03c2.7,0,4.88-2.19,4.88-4.89l-.03-15.05c0-5.73,2.32-10.91,6.1-14.63,3.72-3.72,8.9-6.03,14.57-6.03,1.81,0,3.58.23,5.28.67,2.12.55,3.55,2.54,3.55,4.72v30.33c0,2.69,2.18,4.88,4.88,4.88h.1c2.69,0,4.88-2.19,4.88-4.88l-.04-62.36c0-2.69-2.18-4.87-4.88-4.87Z"/>
  <path class="cls-2" d="M311.2,98.52h-53.15v2.07h16.82c2.69,0,4.88,2.18,4.88,4.88v60.28c0,2.69,2.18,4.88,4.88,4.88h0c2.69,0,4.88-2.18,4.88-4.88v-60.28c0-2.69,2.18-4.88,4.88-4.88h16.82v-2.07Z"/>
  <path class="cls-2" d="M483.31,98.52h-.06c-2.69,0-4.88,2.18-4.88,4.88v20.25c0,2.99-2.65,5.22-5.61,4.79-1.06-.15-2.13-.23-3.23-.23-6.22,0-11.83,2.5-15.85,6.58-2.01,2.01-3.66,4.39-4.82,7.01v-38.4c0-2.69-2.18-4.88-4.88-4.88h0c-2.69,0-4.88,2.18-4.88,4.88v62.36c0,2.69,2.18,4.88,4.88,4.88h.03c2.7,0,4.88-2.19,4.88-4.89l-.03-15.05c0-5.73,2.32-10.91,6.1-14.63,3.72-3.72,8.9-6.03,14.57-6.03,1.81,0,3.58.23,5.28.67,2.12.55,3.55,2.54,3.55,4.72v30.33c0,2.69,2.18,4.88,4.88,4.88h.1c2.69,0,4.88-2.19,4.88-4.88l-.04-62.36c0-2.69-2.18-4.87-4.88-4.87Z"/>
  <path class="cls-2" d="M447.28,98.52h-53.15v2.07h16.82c2.69,0,4.88,2.18,4.88,4.88v60.28c0,2.69,2.18,4.88,4.88,4.88h0c2.69,0,4.88-2.18,4.88-4.88v-60.28c0-2.69,2.18-4.88,4.88-4.88h16.82v-2.07Z"/>
  <g>
    <path class="cls-2" d="M254.14,157.29c-4.79,1.58-5.33,7.56-11.7,9.66-1.65.55-3.51,1.07-6.21.5h0c-2.68-.61-4.87-2.49-5.88-5.05-1.22-3.1-2.58-6.53-4.18-10.29-3.33-7.83-7-13.66-13.86-16.06,4.56-.47,8.34-2.24,11.31-5.4,3.47-3.8,5.2-8.27,5.2-13.25s-1.73-9.5-5.2-13.31c-3.52-3.75-8.16-5.59-13.92-5.59h-25.1v63.45c0,1.48,1.2,2.68,2.68,2.68h0c3.46,0,6.26-2.8,6.26-6.26h0v-12.86c0-5.16,4.18-9.34,9.34-9.34h1.24c5.76.37,6.83,3.26,12.51,16.57.31.72.61,1.43.92,2.14,2.76,6.31,8.2,11.03,14.82,12.92l.13.04c.8.22,1.63.42,2.51.59,4.76.94,13.64,1.2,19.37-1.07,4.1-1.64,6.46-4.45,5.36-7.76-.52-1.57-2.37-3.37-5.59-2.31ZM193.54,139.83v-39.41h11.52c4.64,0,8.22,1.62,10.9,4.92,2.57,3.24,3.86,7.27,3.86,12.08s-1.29,8.83-3.86,12.19c-2.57,3.3-6.21,4.92-10.9,4.92h-1.96c-3.91,0-7.49,2.01-9.56,5.31Z"/>
    <path class="cls-2" d="M255.2,99.07h-1.95l-19.59,54.01h2.06l2.89-8.11c2.12-5.87,9.5-12.69,18.9-13.53l3.69,10.4.67,1.9,7.75,21.47h0c4.62,0,7.85-4.59,6.27-8.94l-20.68-57.19ZM241.11,137.87l9.28-26.22,6.54,18.23c-5.98.62-11.68,3.41-15.82,7.99Z"/>
  </g>
  <path class="cls-2" d="M134.4,207.99c0-17.12,9.59-32.26,24.73-39.74,1.3-.64,2.62-1.25,3.99-1.77.39-.15.72-.37,1.02-.62.75-.64,1.2-1.56,1.24-2.54l.04.04.1-3.15c.02-.64.04-1.27.04-1.91v-57.45c0-43.46-36.15-78.65-79.96-77.06C43.99,25.3,11.35,60.16,11.35,101.8v56.5c0,.73.03,1.45.05,2.18l.1,2.96.03-.03c.04.98.49,1.92,1.25,2.56.29.25.62.46.99.6,1.39.54,2.73,1.17,4.03,1.83,14.94,7.55,24.4,22.63,24.4,39.59,0,.33.4,12.9.49,13.2l-.34-8.46v17.38c0,2.21,2.03,3.95,4.3,3.47,1.66-.35,2.78-1.91,2.78-3.61v-6.41s0-5.54,0-5.54l-.16-3.42c0-.41.08-8.11-.05-8.47-.7-19.93-12.66-37.37-31.04-45.35l-.03-1.1c-.02-.46-.03-.91-.03-1.38v-56.58c0-37.98,29.77-69.78,67.73-71.15,39.96-1.45,72.93,30.64,72.93,70.28v57.45c0,.42-.01.83-.03,1.24l-.03,1.12c-18.09,7.69-30.03,24.52-31.27,43.95-.05.75-.27,2.65-.27,3.4,0,12.67-.03,9.73-.03,9.87v12.62c0,2.18,2,3.93,4.27,3.48,1.67-.33,2.81-1.9,2.81-3.6v-11.4s0,8.78,0,8.78v-11.52"/>
  <path class="cls-1" d="M24.59,203.75c-1.96,0-3.54,1.59-3.54,3.54v1.49c0,1.95,1.59,3.54,3.54,3.54s3.54-1.59,3.54-3.54v-1.49c0-1.95-1.59-3.54-3.54-3.54Z"/>
  <path class="cls-2" d="M111.66,152.57c.48-.34.85-.78,1.07-1.29,5.52-6.45,12-12.15,19.33-16.83,1.67-1.06,2.13-3.26,1.09-4.89-1.08-1.65-3.26-2.1-4.89-1.09-5.58,3.56-10.68,7.69-15.31,12.24v-11.83h7.18v-13.45c-4.48-.14-8.93-1.91-12.34-5.32h0s-11.3-11.3-11.3-11.3h-6.43v6.43l11.3,11.3h0c2.16,2.16,3.66,4.74,4.51,7.49v24.46c-5.91,7.27-10.71,15.38-14.23,24.05v-.12c0-1.96-1.59-3.55-3.54-3.55s-3.54,1.59-3.54,3.55v-.97c-3.49-8.29-8.16-16.03-13.85-23.02.03-.15.05-.29.05-.44v-21.71c.58-3.68,2.26-7.22,5.09-10.05h0s11.3-11.3,11.3-11.3v-6.43h-6.43l-11.3,11.3h0c-3.41,3.41-7.85,5.18-12.34,5.32h0v13.45h6.59v12.14c-4.55-4.47-9.56-8.54-15.02-12.06-1.66-1.06-3.83-.61-4.89,1.06-1.07,1.63-.59,3.83,1.05,4.89,22.87,14.72,37.54,39.29,39.75,66.23v71.5c0,1.12.54,2.12,1.36,2.76.65.72,1.58,1.18,2.62,1.18,1.95,0,3.54-1.59,3.54-3.55v-71.93c1.47-17.85,8.43-34.63,19.6-48.21Z"/>
  <path class="cls-1" d="M152.01,203.75c-1.95,0-3.54,1.59-3.54,3.54v1.92c0,1.96,1.59,3.55,3.54,3.55s3.55-1.59,3.55-3.55v-1.92c0-1.95-1.59-3.54-3.55-3.54Z"/>
  <path class="cls-2" d="M105.86,227.52v24.28c0,2.08,1.78,3.73,3.88,3.53,1.86-.18,3.21-1.86,3.21-3.72v-21.32s0-4.94,0-4.94v-16.63c0,10,0,14.94,0,14.93.05-.24.06-15.42.08-15.67,2.07-27.12,13.59-46.04,34.36-57.9,1.7-.97,2.35-3.08,1.42-4.8-.93-1.71-3.11-2.37-4.81-1.42-23,12.56-37.12,34.53-38,62.51"/>
  <path class="cls-2" d="M71.07,227.52v4.81s0,19.48,0,19.48c0,2.08-1.78,3.73-3.88,3.53-1.86-.18-3.21-1.86-3.21-3.72v-21.32s0-4.94,0-4.94v-16.63c0,10,0,14.94,0,14.93-.05-.24-.06-15.42-.08-15.67-2.07-27.12-13.59-46.04-34.36-57.9-1.7-.97-2.35-3.08-1.42-4.8.93-1.71,3.11-2.37,4.81-1.42,23,12.56,37.12,34.53,38,62.51"/>
  <path class="cls-2" d="M96.48,95.57l11.3-11.3h0c3.41-3.41,7.85-5.18,12.34-5.32v-13.45h-13.45c-.14,4.49-1.91,8.93-5.32,12.34h0l-11.3,11.3v6.43h6.43Z"/>
  <path class="cls-2" d="M94.47,69.92c-2.73,2.73-4.42,6.48-4.42,10.62v4.04l9.02-9.02h0c2.75-2.75,4.21-6.33,4.37-9.96-3.48.38-6.61,1.97-8.97,4.33Z"/>
  <path class="cls-2" d="M120.03,82.18c-3.63.16-7.21,1.62-9.96,4.37h0l-9.02,9.02h4.04c4.13,0,7.89-1.69,10.62-4.42,2.36-2.36,3.94-5.49,4.33-8.97Z"/>
  <path class="cls-2" d="M110.07,107.82c2.75,2.75,6.33,4.21,9.96,4.37-.38-3.48-1.97-6.61-4.33-8.97-2.73-2.73-6.48-4.42-10.62-4.42h-4.04l9.02,9.02h0Z"/>
  <path class="cls-2" d="M90.05,109.8v4.04c0,4.13,1.69,7.89,4.42,10.62,2.36,2.36,5.49,3.94,8.97,4.33-.16-3.63-1.62-7.21-4.37-9.96h0s-9.02-9.02-9.02-9.02Z"/>
  <path class="cls-2" d="M73.75,128.46c3.48-.38,6.61-1.97,8.97-4.33,2.73-2.73,4.42-6.48,4.42-10.62v-4.04l-9.02,9.02h0c-2.75,2.75-4.21,6.33-4.37,9.96Z"/>
  <path class="cls-2" d="M67.12,107.5l9.02-9.02h-4.04c-4.13,0-7.89,1.69-10.62,4.42-2.36,2.36-3.94,5.49-4.33,8.97,3.63-.16,7.21-1.62,9.96-4.37h0Z"/>
  <path class="cls-2" d="M70.2,65.5h-13.45v13.45c4.49.14,8.93,1.91,12.34,5.32l11.3,11.3h6.43v-6.43l-11.3-11.3h0c-3.41-3.41-5.18-7.85-5.32-12.34h0Z"/>
  <path class="cls-2" d="M75.82,95.57l-9.02-9.02c-2.75-2.75-6.33-4.21-9.96-4.37.38,3.48,1.97,6.61,4.33,8.97,2.73,2.73,6.49,4.42,10.62,4.42h4.04Z"/>
  <path class="cls-2" d="M77.81,75.55l9.02,9.02v-4.04c0-4.13-1.69-7.89-4.42-10.62-2.36-2.36-5.49-3.94-8.97-4.33.16,3.63,1.62,7.21,4.37,9.96h0Z"/>
  <g>
    <path class="cls-1" d="M202.78,203.75c-1.94-1.76-4.36-2.64-7.26-2.64s-5.58.94-8.04,2.82c-.78.6-1.2,1.58-1.2,2.56v5.27c2.6-2.72,5.12-4.07,7.56-4.07,1.43,0,2.61.43,3.55,1.29,1.04.96,1.57,2.24,1.57,3.85v4.62c0,1.82-1.48,3.3-3.3,3.3h-7.75c-1.12,0-2.16.56-2.77,1.5-1.43,2.2.15,5.1,2.77,5.1h15.01c1.82,0,3.3-1.48,3.3-3.3v-12.18c0-3.37-1.15-6.08-3.44-8.11Z"/>
    <path class="cls-1" d="M195.52,196.08c1.01,0,1.9-.39,2.69-1.18.79-.75,1.18-1.65,1.18-2.69s-.39-1.96-1.18-2.75c-.79-.75-1.69-1.12-2.69-1.12s-1.95.38-2.7,1.12c-.79.79-1.18,1.71-1.18,2.75s.39,1.96,1.18,2.75c.79.75,1.69,1.13,2.7,1.13Z"/>
    <path class="cls-1" d="M215.4,191.96h0c-1.51.49-2.53,1.89-2.53,3.48v28.25c0,2.02,1.64,3.66,3.66,3.66s3.66-1.64,3.66-3.66v-28.25c0-2.48-2.42-4.24-4.78-3.48Z"/>
    <path class="cls-1" d="M246.01,203.75c-1.94-1.76-4.36-2.64-7.26-2.64s-5.58.94-8.04,2.82c-.78.6-1.2,1.58-1.2,2.56v5.27c2.6-2.72,5.12-4.07,7.56-4.07,1.43,0,2.61.43,3.55,1.29,1.04.96,1.57,2.24,1.57,3.85v4.62c0,1.82-1.48,3.3-3.3,3.3h-7.75c-1.12,0-2.16.56-2.77,1.5-1.43,2.2.15,5.1,2.77,5.1h15.01c1.82,0,3.3-1.48,3.3-3.3v-12.18c0-3.37-1.15-6.08-3.44-8.11Z"/>
    <path class="cls-1" d="M238.75,196.08c1.01,0,1.9-.39,2.69-1.18.79-.75,1.18-1.65,1.18-2.69s-.39-1.96-1.18-2.75c-.79-.75-1.69-1.12-2.69-1.12s-1.95.38-2.7,1.12c-.79.79-1.18,1.71-1.18,2.75s.39,1.96,1.18,2.75c.79.75,1.69,1.13,2.7,1.13Z"/>
    <path class="cls-1" d="M269.87,202.3c-1.5.49-2.52,1.89-2.52,3.47v17.87c0,2.55-.77,4.57-2.31,6.08-1.41,1.43-3.25,2.15-5.5,2.15-3.26-.02-6.38-.98-9.35-2.89l3.27,7.4c.86.42,1.76.78,2.69,1.08,1.83.51,3.54.77,5.12.77,1.58.02,3.16-.24,4.73-.77,2.22-.72,4.04-1.86,5.47-3.44,2.11-2.29,3.17-5.32,3.17-9.08v-19.16c0-2.48-2.42-4.23-4.77-3.47Z"/>
    <path class="cls-1" d="M365.02,205.84c-2.35-1.47-4.87-2.2-7.56-2.2-.82,0-1.76.04-2.8.11l7.07-7.41c1.93-2.03.5-5.38-2.3-5.38h-.64c-.91,0-1.77.39-2.38,1.07l-13.64,15.3c-1.18,1.32-1.05,3.34.27,4.51,1.06.93,2.62,1.07,3.79.29,2.4-1.6,4.96-2.41,7.66-2.41,2.97,0,5.37,1.02,7.21,3.05,1.61,1.76,2.42,3.99,2.42,6.68,0,.22-.02.65-.06,1.29h-49.23v-5.28c0-4.01-.7-7.24-2.09-9.68-2.03-3.46-5.4-5.2-10.09-5.2-2.33.02-4.39.55-6.19,1.6-1.72.97-3.11,2.38-4.15,4.21-1.32,2.29-1.98,4.89-1.98,7.79,0,4.05,1.24,7.32,3.71,9.79,2.26,2.26,5.11,3.38,8.56,3.38h4.84c-.44,1.26-1.06,2.22-1.84,2.86-1.23,1.1-2.88,1.65-4.95,1.65-3.57-.02-6.87-.98-9.87-2.89l3.27,7.4c.86.42,1.8.78,2.81,1.08,1.96.51,3.77.77,5.42.77,2.47,0,4.71-.58,6.71-1.73,1.83-1.06,3.25-2.55,4.26-4.46.63-1.08,1.1-2.64,1.43-4.68h53.7c1.61,0,2.98-1.23,3.17-2.83.24-2,.36-3.62.36-4.84,0-2.55-.36-4.74-1.07-6.57-1.12-3.12-3.05-5.54-5.8-7.26ZM307.62,217.5v3.24h-5.03c-1.23,0-2.27-.39-3.13-1.18-1.25-1.19-1.87-2.97-1.87-5.34,0-2.11.49-3.86,1.46-5.25.93-1.3,2.12-1.95,3.55-1.95,1.25,0,2.3.51,3.16,1.51,1.03,1.14,1.63,2.66,1.82,4.56.04.44.05,1.29.05,2.53v1.87Z"/>
    <path class="cls-1" d="M470.3,193.71c0,1.04.39,1.97,1.18,2.78.79.75,1.69,1.13,2.69,1.13s1.93-.39,2.72-1.18c.79-.77,1.18-1.68,1.18-2.72s-.39-1.96-1.18-2.75c-.81-.75-1.71-1.13-2.72-1.13s-1.94.38-2.69,1.13c-.79.79-1.18,1.7-1.18,2.75Z"/>
    <path class="cls-1" d="M468.95,188.87c.97,0,1.82-.36,2.53-1.07.75-.75,1.13-1.61,1.13-2.59s-.38-1.87-1.13-2.59c-.72-.71-1.56-1.07-2.53-1.07s-1.81.36-2.53,1.07c-.75.75-1.13,1.61-1.13,2.59s.38,1.83,1.13,2.59c.72.71,1.56,1.07,2.53,1.07Z"/>
    <path class="cls-1" d="M464.06,197.61c1.01,0,1.91-.39,2.69-1.18.79-.77,1.18-1.68,1.18-2.72s-.39-1.96-1.18-2.75c-.79-.75-1.69-1.13-2.69-1.13-1.06,0-1.97.38-2.72,1.13-.79.79-1.18,1.7-1.18,2.75s.39,1.97,1.18,2.78c.81.75,1.71,1.13,2.72,1.13Z"/>
    <path class="cls-1" d="M484.55,202.08l-1.05.34c-1.3.42-2.17,1.62-2.17,2.98v11.25c.02,2.73-1.35,4.1-4.1,4.1h-4.29v-13.75c0-2.13-2.08-3.64-4.11-2.98l-.99.32c-1.29.42-2.16,1.62-2.16,2.98v10.29c0,1.73-1.4,3.14-3.14,3.14h-1.95c-1.73,0-3.14-1.4-3.14-3.14v-8.41c0-2.13-2.08-3.64-4.11-2.98l-.99.32c-1.29.42-2.16,1.62-2.16,2.98v8.09c0,1.73-1.4,3.14-3.14,3.14h-44.09v-5.28c0-4.01-.7-7.24-2.09-9.68-2.03-3.46-5.4-5.2-10.09-5.2-2.33.02-4.39.55-6.19,1.6-1.72.97-3.11,2.38-4.15,4.21-1.32,2.29-1.98,4.89-1.98,7.79,0,4.05,1.24,7.32,3.71,9.79,2.26,2.26,5.11,3.38,8.56,3.38h4.84c-.44,1.26-1.06,2.22-1.84,2.86-1.23,1.1-2.88,1.65-4.95,1.65-3.57-.02-6.87-.98-9.87-2.89l3.27,7.4c.86.42,1.8.78,2.81,1.08,1.96.51,3.77.77,5.42.77,2.47,0,4.71-.58,6.71-1.73,1.83-1.06,3.25-2.55,4.26-4.46.63-1.08,1.1-2.64,1.43-4.68h74.7c3.52,0,6.3-1.02,8.33-3.05,1.83-1.83,2.75-4.23,2.75-7.21l.06-12.01c.01-2.13-2.07-3.66-4.1-3ZM395.76,217.5v3.24h-5.03c-1.23,0-2.27-.39-3.13-1.18-1.25-1.19-1.87-2.97-1.87-5.34,0-2.11.48-3.86,1.46-5.25.93-1.3,2.12-1.95,3.55-1.95,1.25,0,2.3.51,3.16,1.51,1.03,1.14,1.63,2.66,1.82,4.56.04.44.05,1.29.05,2.53v1.87Z"/>
  </g>
</svg>