<?xml version="1.0" encoding="utf-8"?>
<!-- Generator: Adobe Illustrator 28.0.0, SVG Export Plug-In . SVG Version: 6.00 Build 0)  -->
<svg version="1.1" id="Layer_1" xmlns="http://www.w3.org/2000/svg" xmlns:xlink="http://www.w3.org/1999/xlink" x="0px" y="0px"
	 viewBox="0 0 500 300" style="enable-background:new 0 0 500 300;" xml:space="preserve">
<style type="text/css">
	.st0{fill:#EC7620;}
	.st1{fill-rule:evenodd;clip-rule:evenodd;fill:#350600;}
	.st2{fill:#350600;}
	.st3{fill:#F88D2A;}
	.st4{fill:#FFC629;}
	.st5{fill:#42A7C6;}
	.st6{fill:#AD8B80;}
	.st7{fill:#404041;}
	.st8{fill:#E20613;}
	.st9{fill:#007A8A;}
	.st10{fill:#A0002D;}
	.st11{fill:#0380C3;}
	.st12{fill:#FFFCE7;}
	.st13{fill:#DAC094;}
	.st14{fill:#692525;}
	.st15{fill:#699043;}
	.st16{fill:#70715B;}
	.st17{fill:#C1E7F6;}
	.st18{clip-path:url(#SVGID_00000022521220061415617640000005397671411309762950_);fill:#C1E7F6;}
	.st19{clip-path:url(#SVGID_00000022521220061415617640000005397671411309762950_);fill:#7CD1EE;}
	.st20{fill:#7CD1EE;}
	.st21{fill:#92A1C6;}
	.st22{filter:url(#Adobe_OpacityMaskFilter);}
	
		.st23{clip-path:url(#SVGID_00000086689510555256747600000002706089921489477265_);fill:url(#SVGID_00000109022081477285750800000004038809628729874348_);}
	
		.st24{clip-path:url(#SVGID_00000086689510555256747600000002706089921489477265_);mask:url(#SVGID_00000165920640251423161720000002820945015718957710_);fill:url(#SVGID_00000028303758783019254910000003237656735127708585_);}
	.st25{clip-path:url(#SVGID_00000054961603443294910780000018392033423410614664_);fill:#604693;}
	.st26{fill:#00B2E3;}
	.st27{fill:#F5911E;}
	.st28{fill:#B12B26;}
	.st29{fill:#ED4036;}
	.st30{fill:#6D6E70;}
	.st31{fill:#121921;}
	.st32{fill:#0381C4;}
	.st33{fill:#A2732A;}
	.st34{fill:#513A16;}
	.st35{fill:#B99664;}
	.st36{fill:none;stroke:#B99664;stroke-width:1.2826;stroke-miterlimit:10;}
	.st37{fill:#8F9191;}
	.st38{fill:none;}
	.st39{fill:url(#SVGID_00000021821723483971679580000010114757124539504062_);}
	.st40{fill:url(#SVGID_00000105419555573919808840000009377462846195783055_);}
	.st41{fill:url(#SVGID_00000165221544609457765970000014471199762836909211_);}
	.st42{fill:#1A1A1A;}
	.st43{fill:url(#SVGID_00000092417451339396256750000012656799506330699445_);}
	.st44{fill:url(#SVGID_00000001646598437249498050000004431699587492863619_);}
	.st45{fill:url(#SVGID_00000067925806550558753310000004609999027315784637_);}
	.st46{fill:url(#SVGID_00000174603046129850654040000002053220604836763580_);}
	.st47{opacity:0.6;fill:url(#SVGID_00000008143362436194231550000015623211156168412589_);}
	.st48{fill:url(#SVGID_00000026131912511753622720000011063844463909201599_);}
	.st49{opacity:0.6;fill:url(#SVGID_00000022554032957875362540000016424006189258955662_);}
	.st50{fill:url(#SVGID_00000103973575174722297260000008418553119398923413_);}
	.st51{opacity:0.6;fill:url(#SVGID_00000112614812784558221100000000707297809756379568_);}
	.st52{fill:url(#SVGID_00000117643307780465860770000007414251247576144007_);}
	.st53{opacity:0.6;fill:url(#SVGID_00000144301246063024769660000009749758346598322618_);}
	.st54{fill:url(#SVGID_00000116925154904310727580000005063678998776414596_);}
	.st55{fill:url(#SVGID_00000032624034489276543140000002251628186347773599_);}
	.st56{opacity:0.6;fill:url(#SVGID_00000112628439988302489160000000341902704252439965_);}
	.st57{fill:url(#SVGID_00000081643897770866436710000012492165479186101152_);}
	.st58{fill:url(#SVGID_00000170242697472405153870000011661053933263781513_);}
	.st59{opacity:0.6;fill:url(#SVGID_00000071525451702433695770000015243905224695666587_);}
	.st60{fill:#AB774D;}
</style>
<g>
	<path class="st17" d="M246.7,15.1c-15.5,19.5-37.2,44.7-51.8,70.4c-0.6,1.1-1.2,2.3-2,3.5c-2.3,4.3-4.4,8.6-6.3,12.9
		c-4.3,11.6-5.6,23.4-5.6,33.2l5.9,2.5l97.6-71.6C271.7,47.4,258.2,29.6,246.7,15.1"/>
	<path class="st17" d="M219.4,29.1c0,2.6-2.1,4.7-4.7,4.7c-2.6,0-4.7-2.1-4.7-4.7c0-2.6,2.1-4.7,4.7-4.7
		C217.3,24.4,219.4,26.5,219.4,29.1"/>
	<path class="st17" d="M252.3,191.8c0,3.8-3.1,6.9-6.9,6.9c-3.8,0-6.9-3.1-6.9-6.9c0-3.8,3.1-6.9,6.9-6.9
		C249.2,184.9,252.3,188,252.3,191.8"/>
	<g>
		<defs>
			<path id="SVGID_1_" d="M250,214.5C250,214.5,250,214.5,250,214.5S250,214.5,250,214.5 M270.7,156.7c-10.5,8-15.5,12.5-11.1,30
				c4.4,17.5-9.5,27.8-9.6,27.8c0,0,10.7-7.8,24.8-14.8c34.8-18,39.5-47.6,41.4-57c1.9-9.4,5-13.9,8.6-19.4
				c3.6-5.5,15.4-14.5,15.4-14.5L270.7,156.7z"/>
		</defs>
		<clipPath id="SVGID_00000079463712968443648570000012609691785148572342_">
			<use xlink:href="#SVGID_1_"  style="overflow:visible;"/>
		</clipPath>
		<path style="clip-path:url(#SVGID_00000079463712968443648570000012609691785148572342_);fill:#C1E7F6;" d="M250,214.5
			c0,0,13.9-10.3,9.6-27.8c-4.4-17.5,0.7-22,11.1-30l69.5-47.9c0,0-11.8,9-15.4,14.5c-3.6,5.5-6.6,10-8.6,19.4
			c-1.9,9.4-6.6,39-41.4,57C260.7,206.8,250,214.5,250,214.5"/>
		<path style="clip-path:url(#SVGID_00000079463712968443648570000012609691785148572342_);fill:#7CD1EE;" d="M310.8,127.6
			c-2.6,2.5-40.3,21.3-28.1,39.7c12.2,18.4,33.3-3.9,38.2-22c4.9-18.2,20.6-36.1,20.6-36.1l-1.2-2L310.8,127.6z"/>
	</g>
	<path class="st20" d="M341.1,108.1c0,0,21.4-16.1,24.3-18c2.9-1.9,8.4-1.3,7.6,3.7c-0.8,5-6.6,7.1-10.2,7.3
		C359.3,101.4,346.6,104.1,341.1,108.1"/>
	<path class="st17" d="M170.8,171.1c-1.2,0.7-2.6,1.3-5.1,5.6c-2.6,4.3-4.4,8.6-8,6.1c-1.2-0.8-1.1-2.8,0.8-4.3
		C163.7,174.3,170.8,171.1,170.8,171.1"/>
	<path class="st17" d="M172.5,170c0,0,8.8-4.7,18.1,1.9c5.3,3.7,10.6,13.2,15.9,17.2c4.2,3.2,11.8,0.9,16.1-2.1
		c20.4-13.9,77-54.1,80.6-56.4c4.4-2.9,10-11.8,7.5-22.4c-2.5-10.7-12.3-23.6-12.3-23.6L172.5,170z"/>
	<path class="st21" d="M292.2,35.6c1.2-1.1,5.9-4.7,11.6-6c5.7-1.3,8.9-3.4,7.3-5.9c-1.6-2.5-5.3,0.4-6.1,1
		C304.3,25.3,292.2,35.6,292.2,35.6"/>
	<path class="st17" d="M293.2,75.8c-0.7-1-6.5-8.1-10-12.2c-3.5-4.1-6.2-8.5-3.7-14.9c2.6-6.4,10.8-11.8,10.8-11.8
		s-81.4,54.2-97.8,66.7c-4.3,3.3-7.3,7-9.4,10.8c-4.3,21-0.6,40,0.1,43.2c0.1,0.3,0.1,0.5,0.1,0.5s102.7-68.7,107.9-73.1
		C296.3,80.7,293.9,76.8,293.2,75.8"/>
	<g>
		<defs>
			<path id="SVGID_00000060007167447188248420000010390379133294160270_" d="M192.5,103.7c-4.3,3.3-7.3,7-9.4,10.8
				c-4.3,21-0.6,40,0.1,43.2c0.1,0.3,0.1,0.5,0.1,0.5s102.7-68.7,107.9-73.1c5.1-4.4,2.7-8.3,2-9.3c-0.7-1-6.5-8.1-10-12.2
				c-3.5-4.1-6.2-8.5-3.7-14.9c2.4-5.9,9.6-10.9,10.6-11.7C286.4,39.5,208.6,91.4,192.5,103.7 M290.2,37c0.1-0.1,0.1-0.1,0.1-0.1
				S290.3,37,290.2,37"/>
		</defs>
		<clipPath id="SVGID_00000002349139050026928360000017921358157959345837_">
			<use xlink:href="#SVGID_00000060007167447188248420000010390379133294160270_"  style="overflow:visible;"/>
		</clipPath>
		<defs>
			<filter id="Adobe_OpacityMaskFilter" filterUnits="userSpaceOnUse" x="121.3" y="-18.9" width="232.6" height="232.8">
				<feColorMatrix  type="matrix" values="1 0 0 0 0  0 1 0 0 0  0 0 1 0 0  0 0 0 1 0"/>
			</filter>
		</defs>
		
			<mask maskUnits="userSpaceOnUse" x="121.3" y="-18.9" width="232.6" height="232.8" id="SVGID_00000078756273857671035510000003632918582279315109_">
			<g class="st22">
				
					<linearGradient id="SVGID_00000152964970520206643890000012677733690301356166_" gradientUnits="userSpaceOnUse" x1="396.2455" y1="50.9502" x2="397.7513" y2="50.9502" gradientTransform="matrix(65.0453 46.9772 46.9772 -65.0453 -27970.1777 -15232.0264)">
					<stop  offset="0" style="stop-color:#000000"/>
					<stop  offset="0.1083" style="stop-color:#000000"/>
					<stop  offset="0.9743" style="stop-color:#FFFFFF"/>
					<stop  offset="1" style="stop-color:#FFFFFF"/>
				</linearGradient>
				
					<polygon style="clip-path:url(#SVGID_00000002349139050026928360000017921358157959345837_);fill:url(#SVGID_00000152964970520206643890000012677733690301356166_);" points="
					219.1,-18.9 353.9,78.5 256.1,213.9 121.3,116.6 				"/>
			</g>
		</mask>
		
			<linearGradient id="SVGID_00000148657310505898613250000006667314905631796141_" gradientUnits="userSpaceOnUse" x1="396.2455" y1="50.9502" x2="397.7513" y2="50.9502" gradientTransform="matrix(65.0453 46.9772 46.9772 -65.0453 -27970.1797 -15232.0264)">
			<stop  offset="0" style="stop-color:#ABC8E7"/>
			<stop  offset="0.1083" style="stop-color:#ABC8E7"/>
			<stop  offset="0.9743" style="stop-color:#194F90"/>
			<stop  offset="1" style="stop-color:#194F90"/>
		</linearGradient>
		
			<polygon style="clip-path:url(#SVGID_00000002349139050026928360000017921358157959345837_);mask:url(#SVGID_00000078756273857671035510000003632918582279315109_);fill:url(#SVGID_00000148657310505898613250000006667314905631796141_);" points="
			219.1,-18.9 353.9,78.5 256.1,213.9 121.3,116.6 		"/>
	</g>
	<g>
		<g>
			<defs>
				<rect id="SVGID_00000162334713103699467490000007625251663778724511_" x="295.8" y="39.1" width="0.6" height="0.6"/>
			</defs>
			<clipPath id="SVGID_00000036246187082153291400000000363589944218449810_">
				<use xlink:href="#SVGID_00000162334713103699467490000007625251663778724511_"  style="overflow:visible;"/>
			</clipPath>
			<path style="clip-path:url(#SVGID_00000036246187082153291400000000363589944218449810_);fill:#604693;" d="M295.8,39.7
				c0,0,0.2-0.2,0.6-0.6C296.1,39.3,295.9,39.5,295.8,39.7"/>
		</g>
	</g>
	<polygon class="st26" points="84.6,208.1 84.6,216 78.5,216 78.5,247.5 68.2,247.5 68.2,216 62.2,216 62.2,208.1 	"/>
	<path class="st26" d="M86.9,208.1h7.3c4.8,0,8.1,0.2,9.8,0.6c1.7,0.4,3.1,1.3,4.2,2.9c1.1,1.5,1.6,4,1.6,7.3c0,3.1-0.4,5.1-1.1,6.2
		c-0.8,1.1-2.3,1.7-4.5,1.9c2,0.5,3.4,1.2,4.1,2c0.7,0.8,1.1,1.6,1.3,2.3c0.2,0.7,0.3,2.7,0.3,5.8v10.4h-9.5v-13.1
		c0-2.1-0.2-3.4-0.5-3.9c-0.3-0.5-1.2-0.8-2.6-0.8v17.8H86.9V208.1z M97.2,214.8v8.8c1.2,0,2-0.2,2.4-0.5c0.5-0.3,0.7-1.3,0.7-3.1
		v-2.2c0-1.2-0.2-2.1-0.7-2.5C99.2,215,98.4,214.8,97.2,214.8"/>
	<path class="st26" d="M137.1,208.1v26.4c0,3-0.1,5.1-0.3,6.3c-0.2,1.2-0.8,2.5-1.7,3.7c-1,1.3-2.2,2.2-3.8,2.9
		c-1.6,0.7-3.4,1-5.5,1c-2.4,0-4.4-0.4-6.2-1.2c-1.8-0.8-3.2-1.8-4-3c-0.9-1.2-1.4-2.6-1.6-4c-0.2-1.4-0.2-4.3-0.2-8.8v-23.3h10.3
		v29.6c0,1.7,0.1,2.8,0.3,3.3c0.2,0.5,0.6,0.7,1.1,0.7c0.6,0,1.1-0.3,1.3-0.8c0.2-0.5,0.3-1.8,0.3-3.7v-29.1H137.1z"/>
	<path class="st26" d="M162.8,220h-9.5v-2.9c0-1.4-0.1-2.2-0.4-2.6c-0.2-0.4-0.7-0.6-1.2-0.6c-0.6,0-1.1,0.3-1.4,0.8
		c-0.3,0.5-0.5,1.3-0.5,2.3c0,1.3,0.2,2.3,0.5,3c0.3,0.7,1.3,1.5,2.9,2.4c4.6,2.7,7.4,4.9,8.6,6.7c1.2,1.7,1.8,4.5,1.8,8.4
		c0,2.8-0.3,4.9-1,6.2c-0.7,1.3-1.9,2.4-3.8,3.3c-1.9,0.9-4.1,1.4-6.6,1.4c-2.7,0-5.1-0.5-7-1.6c-1.9-1-3.2-2.4-3.8-4
		c-0.6-1.6-0.9-3.9-0.9-6.8v-2.6h9.5v4.8c0,1.5,0.1,2.4,0.4,2.9c0.3,0.4,0.7,0.6,1.4,0.6c0.7,0,1.2-0.3,1.5-0.8
		c0.3-0.5,0.5-1.3,0.5-2.4c0-2.3-0.3-3.8-1-4.6c-0.6-0.7-2.2-1.9-4.8-3.6c-2.5-1.7-4.2-2.9-5.1-3.7c-0.8-0.8-1.5-1.8-2.1-3.2
		c-0.5-1.3-0.8-3.1-0.8-5.2c0-3,0.4-5.2,1.2-6.6c0.8-1.4,2-2.5,3.7-3.3c1.7-0.8,3.8-1.2,6.2-1.2c2.7,0,4.9,0.4,6.8,1.3
		c1.9,0.9,3.1,1.9,3.7,3.3c0.6,1.3,0.9,3.5,0.9,6.7V220z"/>
	<polygon class="st26" points="187.5,208.1 187.5,216 181.4,216 181.4,247.5 171.2,247.5 171.2,216 165.1,216 165.1,208.1 	"/>
	<path class="st26" d="M220.5,208.1l-7.5,25.2v14.3h-9.5v-14.3l-7.2-25.2h9.4c1.5,7.7,2.3,12.9,2.5,15.5c0.6-4.2,1.5-9.4,2.9-15.5
		H220.5z"/>
	<path class="st26" d="M272.8,208.1v26.4c0,3-0.1,5.1-0.3,6.3c-0.2,1.2-0.8,2.5-1.7,3.7c-1,1.3-2.2,2.2-3.8,2.9
		c-1.6,0.7-3.4,1-5.5,1c-2.4,0-4.4-0.4-6.2-1.2c-1.8-0.8-3.2-1.8-4-3c-0.9-1.2-1.4-2.6-1.6-4c-0.2-1.4-0.2-4.3-0.2-8.8v-23.3h10.3
		v29.6c0,1.7,0.1,2.8,0.3,3.3c0.2,0.5,0.6,0.7,1.1,0.7c0.7,0,1.1-0.3,1.3-0.8c0.2-0.5,0.3-1.8,0.3-3.7v-29.1H272.8z"/>
	<path class="st26" d="M276.8,208.1h7.3c4.8,0,8.1,0.2,9.8,0.6c1.7,0.4,3.1,1.3,4.2,2.9c1.1,1.5,1.6,4,1.6,7.3
		c0,3.1-0.4,5.1-1.1,6.2c-0.8,1.1-2.3,1.7-4.5,1.9c2,0.5,3.4,1.2,4.1,2c0.7,0.8,1.1,1.6,1.3,2.3c0.2,0.7,0.3,2.7,0.3,5.8v10.4h-9.5
		v-13.1c0-2.1-0.2-3.4-0.5-3.9c-0.3-0.5-1.2-0.8-2.6-0.8v17.8h-10.3V208.1z M287.1,214.8v8.8c1.2,0,2-0.2,2.4-0.5
		c0.5-0.3,0.7-1.3,0.7-3.1v-2.2c0-1.2-0.2-2.1-0.7-2.5C289.1,215,288.2,214.8,287.1,214.8"/>
	<path class="st26" d="M347.1,208.1l-4.6,39.4h-12.8c-1.2-6.1-2.2-13-3.1-20.7c-0.4,3.3-1.4,10.2-2.9,20.7H311l-4.6-39.4h10
		l1.1,13.8l1,13.3c0.4-6.9,1.3-15.9,2.8-27.1H332c0.1,1.2,0.5,5.5,1.1,13l1.1,15c0.6-9.5,1.5-18.9,2.9-28H347.1z"/>
	<path class="st26" d="M366.3,208.1l5.9,39.4h-10.5l-0.5-7.1h-3.7l-0.6,7.1h-10.6l5.2-39.4H366.3z M360.9,233.5
		c-0.5-4.5-1-10-1.6-16.6c-1,7.6-1.7,13.1-2,16.6H360.9z"/>
	<polygon class="st26" points="391.8,208.1 391.8,216 385.8,216 385.8,247.5 375.5,247.5 375.5,216 369.4,216 369.4,208.1 	"/>
	<polygon class="st26" points="394.2,208.1 411.3,208.1 411.3,216 404.4,216 404.4,223.5 410.8,223.5 410.8,231 404.4,231 
		404.4,239.6 412,239.6 412,247.5 394.2,247.5 	"/>
	<path class="st26" d="M414.9,208.1h7.3c4.8,0,8.1,0.2,9.8,0.6c1.7,0.4,3.1,1.3,4.2,2.9c1.1,1.5,1.6,4,1.6,7.3
		c0,3.1-0.4,5.1-1.1,6.2c-0.8,1.1-2.3,1.7-4.5,1.9c2,0.5,3.4,1.2,4.1,2c0.7,0.8,1.1,1.6,1.3,2.3c0.2,0.7,0.3,2.7,0.3,5.8v10.4h-9.5
		v-13.1c0-2.1-0.2-3.4-0.5-3.9c-0.3-0.5-1.2-0.8-2.6-0.8v17.8h-10.3V208.1z M425.2,214.8v8.8c1.2,0,2-0.2,2.4-0.5
		c0.5-0.3,0.7-1.3,0.7-3.1v-2.2c0-1.2-0.2-2.1-0.7-2.5C427.2,215,426.4,214.8,425.2,214.8"/>
	<path class="st26" d="M238.2,227c-3.8,6.9-7.7,10.2-10.4,7.2c-2.7-3,2.5-6.6,3.6-7.4c0.7-0.5,8.8-5.8,14.1-9.3
		c0-0.6-0.1-1.1-0.1-1.5c-0.2-1.6-0.8-3.1-1.8-4.5c-1-1.4-2.4-2.4-4.1-3.1c-1.7-0.7-3.6-1-5.7-1c-2.2,0-4.2,0.4-5.8,1.1
		c-1.7,0.7-3,1.8-4,3.1c-1,1.4-1.6,2.9-1.7,4.5c-0.2,1.6-0.3,4.5-0.3,8.4v6.7c0,4.1,0.1,6.9,0.3,8.5c0.2,1.6,0.8,3.1,1.8,4.5
		c1,1.4,2.4,2.4,4.1,3.1c1.7,0.7,3.6,1,5.7,1c2.2,0,4.2-0.4,5.8-1.1c1.7-0.7,3-1.8,4-3.1c1-1.4,1.6-2.9,1.7-4.5
		c0.2-1.6,0.3-4.5,0.3-8.4v-6.7c0-2.7,0-4.8-0.1-6.5C243.1,220.2,240.3,223.2,238.2,227"/>
	<polygon class="st17" points="133.1,266.2 130.8,266.2 130.8,284.5 141.6,284.5 141.6,282.5 133.1,282.5 	"/>
	<rect x="149.8" y="266.2" class="st17" width="2.3" height="18.3"/>
	<polygon class="st17" points="162.2,284.5 164.5,284.5 164.5,275.8 171.9,275.8 171.9,274 164.5,274 164.5,268.2 173.4,268.2 
		173.4,266.2 162.2,266.2 	"/>
	<polygon class="st17" points="183.9,275.9 191.3,275.9 191.3,274 183.9,274 183.9,268.2 193.3,268.2 193.3,266.2 181.6,266.2 
		181.6,284.5 193.5,284.5 193.5,282.5 183.9,282.5 	"/>
	<path class="st17" d="M221.1,266.2h-6.5v18.3h2.3v-7.4h4.4c1.7,0,3.1-0.5,4.1-1.5c1.1-1,1.6-2.3,1.6-3.9c0-1.4-0.5-2.7-1.5-3.8
		C224.7,266.7,223.2,266.2,221.1,266.2 M223.8,274.2c-0.7,0.7-1.5,1-2.6,1h-4.2v-7.1h4.4c1.1,0,2,0.4,2.6,1.1
		c0.6,0.7,0.9,1.5,0.9,2.4C224.8,272.7,224.4,273.5,223.8,274.2"/>
	<path class="st17" d="M246,278.2c0,1.7-0.4,2.9-1.1,3.6c-0.7,0.7-1.8,1.1-3.2,1.1c-0.7,0-1.4-0.1-2.1-0.4c-0.7-0.3-1.2-0.7-1.5-1.3
		c-0.3-0.6-0.5-1.6-0.5-3v-12h-2.3v12c0,2.3,0.5,4,1.5,5.1c1,1.1,2.6,1.6,4.7,1.6c1.9,0,3.5-0.5,4.6-1.6c1.2-1,1.8-2.8,1.8-5.2v-12
		H246V278.2z"/>
	<path class="st17" d="M269.9,274.1c0.5-0.9,0.8-1.8,0.8-2.8c0-1.3-0.5-2.4-1.4-3.5c-0.9-1.1-2.4-1.6-4.4-1.6h-7.2v18.3h2.1v-7.9
		h5.3l3.4,7.9h2.4l-3.6-8.5C268.5,275.6,269.4,275,269.9,274.1 M264.7,274.7h-4.8v-6.5h5.1c1,0,1.8,0.3,2.5,0.8c0.7,0.5,1,1.3,1,2.3
		c0,1-0.3,1.8-0.9,2.5C266.9,274.4,265.9,274.7,264.7,274.7"/>
	<rect x="280.1" y="266.2" class="st17" width="2.3" height="18.3"/>
	<polygon class="st17" points="292.5,284.5 294.8,284.5 294.8,275.8 302.2,275.8 302.2,274 294.8,274 294.8,268.2 303.7,268.2 
		303.7,266.2 292.5,266.2 	"/>
	<rect x="312" y="266.2" class="st17" width="2.3" height="18.3"/>
	<polygon class="st17" points="326.6,275.9 334,275.9 334,274 326.6,274 326.6,268.2 336,268.2 336,266.2 324.3,266.2 324.3,284.5 
		336.2,284.5 336.2,282.5 326.6,282.5 	"/>
	<path class="st17" d="M357.1,268.8c-1.4-1.8-3.5-2.6-6.1-2.6h-6.2v18.3h6.9c2.2,0,3.9-0.9,5.3-2.7c1.4-1.8,2.1-4,2.1-6.6
		C359.3,272.7,358.6,270.6,357.1,268.8 M355.4,280.5c-1,1.4-2.5,2-4.5,2h-3.7v-14.5h3.7c2.1,0,3.6,0.7,4.6,2.2
		c1,1.4,1.5,3.1,1.5,4.9C357,277.4,356.5,279.2,355.4,280.5"/>
</g>
</svg>
