<?xml version="1.0" encoding="UTF-8"?>
<svg id="Layer_1" data-name="Layer 1" xmlns="http://www.w3.org/2000/svg" version="1.1" viewBox="0 0 500 200">
  <defs>
    <style>
      .cls-1 {
        fill: #51b8e5;
      }

      .cls-1, .cls-2, .cls-3, .cls-4 {
        stroke-width: 0px;
      }

      .cls-2 {
        fill: #29b7b0;
      }

      .cls-3 {
        fill: #303030;
      }

      .cls-4 {
        fill: #f9a280;
      }
    </style>
  </defs>
  <path class="cls-3" d="M158.03,35.72v102.14h-24.8v-36.71h-24.8v36.71h-24.8V35.72h24.8v36.71h24.8v-36.71h24.8Z"/>
  <g>
    <path class="cls-3" d="M365.28,109.17c-12.33,0-22.36-10.03-22.36-22.36s10.03-22.36,22.36-22.36,22.39,9.99,22.39,22.36-10.03,22.36-22.39,22.36M365.28,35.72c-28.2,0-51.05,22.89-51.05,51.09s22.86,51.05,51.05,51.05,51.09-22.86,51.09-51.05-22.86-51.09-51.09-51.09"/>
    <path class="cls-3" d="M94.97,149.17v-3.59h-11.35v18.5h11.35v-3.6h-6.83v-4.09h6.04v-3.46h-6.04v-3.76h6.83Z"/>
    <path class="cls-3" d="M112.32,154.91l5.87-9.33h-5.11l-3.27,5.57-3.73-5.57h-5.24l6.07,9.1-5.94,9.4h5.11l3.33-5.67,3.76,5.67h5.24l-6.1-9.17Z"/>
    <path class="cls-3" d="M133.53,153.23c-.43.43-1.09.63-1.95.63h-2.44v-4.65h2.44c.86,0,1.52.2,1.95.59.4.43.63.99.63,1.72s-.23,1.32-.63,1.71M137.98,148.45c-.53-.89-1.29-1.62-2.31-2.11-1.02-.53-2.28-.76-3.73-.76h-7.32v18.5h4.52v-6.63h2.8c1.52,0,2.77-.3,3.79-.82,1.02-.56,1.78-1.25,2.28-2.14.49-.89.73-1.88.73-2.97,0-1.15-.26-2.18-.76-3.07"/>
    <path class="cls-3" d="M156.35,149.17v-3.59h-11.35v18.5h11.35v-3.6h-6.83v-4.09h6.04v-3.46h-6.04v-3.76h6.83Z"/>
    <path class="cls-3" d="M172.38,153.3c-.4.4-1.02.59-1.85.59h-2.8v-4.58h2.8c.82,0,1.45.2,1.85.63.43.4.63.96.63,1.65s-.2,1.32-.63,1.72M173.47,156.76c1.35-.4,2.37-1.09,3.07-2.08.73-.96,1.06-2.04,1.06-3.3,0-1.09-.26-2.08-.76-2.97-.53-.86-1.29-1.58-2.31-2.08-1.02-.53-2.28-.76-3.73-.76h-7.59v18.5h4.52v-6.99h1.09l3.83,6.99h5.11l-4.29-7.32Z"/>
    <path class="cls-3" d="M184.35,164.08h4.49v-18.5h-4.49v18.5Z"/>
    <path class="cls-3" d="M207.41,149.17v-3.59h-11.35v18.5h11.35v-3.6h-6.86v-4.09h6.07v-3.46h-6.07v-3.76h6.86Z"/>
    <path class="cls-3" d="M226.3,145.58v11.48l-7.55-11.48h-4.49v18.5h4.49v-11.41l7.55,11.41h4.52v-18.5h-4.52Z"/>
    <path class="cls-3" d="M248.83,159.53c-.69.4-1.45.59-2.31.59-1.42,0-2.54-.49-3.4-1.45-.86-.96-1.29-2.24-1.29-3.86s.43-2.94,1.29-3.89c.86-.96,1.98-1.45,3.4-1.45.86,0,1.62.2,2.31.59.66.43,1.19,1.02,1.55,1.78h4.98c-.53-2.01-1.58-3.59-3.17-4.75-1.55-1.15-3.43-1.75-5.64-1.75-1.78,0-3.4.4-4.82,1.22-1.42.79-2.51,1.91-3.3,3.33-.79,1.45-1.19,3.07-1.19,4.91s.4,3.43,1.19,4.88c.79,1.42,1.88,2.51,3.3,3.33,1.42.79,3.03,1.19,4.82,1.19,2.21,0,4.09-.56,5.64-1.71,1.58-1.15,2.64-2.74,3.17-4.75h-4.98c-.36.79-.89,1.39-1.55,1.78"/>
    <path class="cls-3" d="M273.37,149.17v-3.59h-11.31v18.5h11.31v-3.6h-6.83v-4.09h6.03v-3.46h-6.03v-3.76h6.83Z"/>
    <path class="cls-3" d="M292.86,155.87c-.53-.73-1.19-1.25-1.91-1.62-.76-.36-1.72-.76-2.93-1.15-1.19-.4-2.08-.76-2.64-1.09-.56-.33-.82-.79-.82-1.42,0-.53.17-.96.49-1.25.33-.26.76-.43,1.32-.43.63,0,1.15.17,1.55.53.4.33.63.79.66,1.42h4.88c-.1-1.75-.76-3.1-2.01-4.09-1.25-.99-2.87-1.45-4.92-1.45s-3.63.46-4.88,1.45c-1.25.99-1.88,2.34-1.88,4.06,0,1.15.26,2.11.82,2.8.53.73,1.19,1.29,1.95,1.65.76.36,1.72.73,2.94,1.12.82.23,1.45.46,1.91.66.43.16.82.43,1.12.73.3.3.46.69.46,1.12,0,.56-.2.99-.56,1.29-.4.3-.92.46-1.58.46s-1.19-.17-1.58-.53c-.43-.36-.66-.89-.73-1.58h-4.82c.03,1.22.4,2.24,1.02,3.13.66.86,1.52,1.48,2.57,1.95,1.09.43,2.28.66,3.66.66s2.57-.26,3.6-.79c1.02-.49,1.81-1.19,2.34-2.04.53-.86.79-1.81.79-2.87,0-1.12-.26-2.01-.82-2.7"/>
    <path class="cls-3" d="M317.69,153.63v3.33h5.74c-.36,1.06-.92,1.88-1.68,2.44-.76.56-1.72.82-2.8.82-1.62,0-2.9-.46-3.83-1.42-.92-.96-1.39-2.31-1.39-3.99s.43-2.9,1.32-3.86c.89-.96,2.04-1.42,3.5-1.42.86,0,1.58.17,2.21.46.63.33,1.12.82,1.45,1.42h4.98c-.49-1.88-1.52-3.36-3.03-4.45-1.52-1.06-3.36-1.62-5.61-1.62-1.81,0-3.43.4-4.85,1.22-1.45.79-2.54,1.91-3.36,3.33-.79,1.45-1.19,3.07-1.19,4.91s.4,3.43,1.19,4.88c.82,1.42,1.91,2.51,3.36,3.33,1.42.79,3.07,1.19,4.88,1.19,1.55,0,2.93-.3,4.19-.89,1.22-.59,2.24-1.39,3.03-2.34.79-.99,1.35-2.01,1.72-3.13v-4.22h-9.83Z"/>
    <path class="cls-3" d="M343.12,153.3c-.43.4-1.06.59-1.88.59h-2.8v-4.58h2.8c.82,0,1.45.2,1.88.63.4.4.59.96.59,1.65s-.2,1.32-.59,1.72M344.21,156.76c1.35-.4,2.37-1.09,3.07-2.08.69-.96,1.06-2.04,1.06-3.3,0-1.09-.26-2.08-.79-2.97-.49-.86-1.25-1.58-2.31-2.08-1.02-.53-2.28-.76-3.73-.76h-7.55v18.5h4.49v-6.99h1.09l3.86,6.99h5.08l-4.25-7.32Z"/>
    <path class="cls-3" d="M367.36,158.67c-.89.99-2.08,1.48-3.53,1.48s-2.7-.49-3.6-1.45c-.89-.99-1.32-2.31-1.32-3.92s.43-2.97,1.32-3.92c.89-.99,2.08-1.45,3.6-1.45s2.64.46,3.53,1.45c.89.99,1.35,2.28,1.35,3.92s-.46,2.9-1.35,3.89M372.05,149.9c-.86-1.45-1.98-2.57-3.43-3.4-1.45-.79-3.03-1.19-4.78-1.19s-3.33.4-4.78,1.19c-1.45.82-2.61,1.95-3.46,3.4-.86,1.45-1.29,3.07-1.29,4.88s.43,3.43,1.29,4.88c.86,1.45,2.01,2.57,3.46,3.4,1.45.79,3.03,1.22,4.78,1.22s3.33-.43,4.75-1.22c1.45-.82,2.61-1.95,3.43-3.4.86-1.45,1.29-3.07,1.29-4.88s-.43-3.43-1.25-4.88"/>
    <path class="cls-3" d="M390.65,145.58v11.08c0,1.09-.26,1.95-.86,2.54-.56.59-1.35.89-2.41.89s-1.85-.3-2.41-.89c-.53-.59-.82-1.45-.82-2.54v-11.08h-4.48v11.05c0,1.65.33,3.03.99,4.19.66,1.15,1.58,2.01,2.74,2.61,1.15.56,2.44.86,3.92.86s2.77-.3,3.96-.89c1.19-.56,2.14-1.42,2.84-2.57.69-1.15,1.06-2.54,1.06-4.19v-11.05h-4.52Z"/>
    <path class="cls-3" d="M411.13,153.23c-.4.43-1.06.63-1.91.63h-2.44v-4.65h2.44c.86,0,1.52.2,1.91.59.43.43.66.99.66,1.72s-.23,1.32-.66,1.71M415.61,148.45c-.53-.89-1.29-1.62-2.31-2.11-1.02-.53-2.28-.76-3.76-.76h-7.29v18.5h4.52v-6.63h2.77c1.52,0,2.8-.3,3.83-.82,1.02-.56,1.75-1.25,2.24-2.14.49-.89.76-1.88.76-2.97,0-1.15-.26-2.18-.76-3.07"/>
    <path class="cls-3" d="M266.9,60.89h5.51c2.25,0,4.42.43,6.43,1.28,1.98.86,3.76,2.05,5.28,3.56,1.52,1.52,2.71,3.3,3.56,5.28.85,2.02,1.28,4.19,1.28,6.43,0,6.63-3.92,12.6-9.99,15.2-2.08.89-4.28,1.35-6.56,1.35h-5.51v-33.11ZM266.9,137.86v-19.72l18.4,19.73h29.75l-24.43-24.44c12.33-7.25,20.61-20.65,20.61-35.98,0-23.02-18.7-41.72-41.72-41.72h-24.86v102.14"/>
    <path class="cls-1" d="M164.15,35.72v28.7h74.38v-28.7h-74.38Z"/>
    <path class="cls-4" d="M238.52,97.22v-24.79h0s-74.38,0-74.38,0h0v28.7h74.38v-3.91Z"/>
    <path class="cls-2" d="M238.52,135.89v-26.74h-74.38v28.7h74.38v-1.95Z"/>
  </g>
</svg>