<?xml version="1.0" encoding="UTF-8"?>
<svg id="Layer_1" data-name="Layer 1" xmlns="http://www.w3.org/2000/svg" viewBox="0 0 500 300">
  <defs>
    <style>
      .cls-1 {
        fill: #a75248;
      }

      .cls-1, .cls-2 {
        stroke-width: 0px;
      }

      .cls-2 {
        fill: #323e48;
      }
    </style>
  </defs>
  <g>
    <rect class="cls-2" x="320.47" y="75.85" width="46.08" height="67.58"/>
    <polygon class="cls-1" points="296.36 39.38 253.36 82.38 253.44 143.01 357.62 39.55 296.36 39.38"/>
    <polygon class="cls-2" points="254 24.5 253.55 82.02 193.13 143.31 133.45 143.16 254 24.5"/>
  </g>
  <g>
    <path class="cls-2" d="M202.38,248.28l-.14-.19c4.65-2,8.52-5.22,11.83-9.85,2.95-4.58,4.38-9.87,4.38-16.16,0-4.11-.72-8.17-2.02-11.44-1.25-3.12-3.18-6.18-5.74-9.11-2.53-2.53-5.6-4.46-9.1-5.74-3.4-1.36-7.14-2.02-11.44-2.02h-37.23v81.72h16.63v-67.07h20.6c2.38,0,4.63.56,6.32,1.58,1.57.94,2.54,2.24,3.44,3.45.97,1.61,1.28,2.91,1.59,4.45l.16.77c.26,1.27.49,2.37.49,3.42,0,2.49-.38,4.24-1.28,5.75-.59,1.46-1.47,2.73-2.85,4.11-1.18,1.18-2.42,1.91-3.68,2.16l-.14.05c-1.15.57-2.71.93-4.05.93h-16.59l1.02,1.46c6.04,8.58,12.28,17.44,18.41,25.84,2.89,4.17,6.14,8.4,9.28,12.49l.49.63h19.52l-.62-.87c-6.43-9-12.96-17.82-19.28-26.35"/>
    <path class="cls-2" d="M57.62,240.06l-38.9-46.09-.16-.2h-1.8v21.89l.13.15c6.75,8.07,13.54,16.36,20.1,24.38,6.6,8.06,13.42,16.4,20.21,24.52l.42.5,24.89-29.74v40h16.29v-81.72h-1.79l-39.4,46.28Z"/>
    <polygon class="cls-2" points="16.76 275.49 33.06 275.49 33.06 254.93 16.76 234.73 16.76 275.49"/>
    <rect class="cls-2" x="119.35" y="193.78" width="16.63" height="81.72"/>
    <path class="cls-2" d="M356.1,244.52h28.88c-.66,2.37-1.59,4.32-2.94,6.22-1.63,1.95-3.16,3.8-5.42,5.09-2.05,1.71-4.26,2.87-6.62,3.46-2.32.87-4.75,1.26-7.88,1.26-3.66,0-6.76-.7-9.78-2.21-3.12-1.39-5.85-3.35-7.88-5.67-2.01-2.3-4.05-4.89-5.39-8.24-1.47-3.68-2.22-7.09-2.22-10.13,0-3.35.85-6.36,2.22-10.12,1.34-3.35,3.38-5.94,5.39-8.24,2.03-2.32,4.75-4.28,7.9-5.68,3.01-1.5,6.11-2.2,9.76-2.2,4.12,0,7.92,1.11,11.97,3.46,3.33,2.12,6.21,4.9,8.56,8.25l.29.41,13.81-8.29-.3-.47c-3.58-5.53-8.55-10.16-14.37-13.39-5.7-3.48-12.41-5.24-19.96-5.24-4.98,0-10.06,1.03-16.04,3.28-4.71,2.2-8.98,5.08-13.08,8.84-3.86,4.21-6.66,8.46-8.8,13.37-2.14,4.59-3.28,10.14-3.28,16.03s1.13,11.44,3.28,16.03c2.46,5.27,5.43,9.67,8.82,13.06,4.04,4.04,8.32,6.92,13.07,8.82,5.03,2.2,10.27,3.27,16.03,3.27s10.58-.83,15.02-2.61c5.01-1.79,9.08-4.15,12.42-7.19,3.37-2.76,6.35-6.51,8.84-11.13,2.29-4.25,3.61-8.88,3.93-13.81v-2.58c0-.61.08-1.14.16-1.7.08-.58.17-1.17.17-1.85v-4.73h-46.57v14.63Z"/>
    <polygon class="cls-2" points="483.24 208.42 483.24 193.78 422.66 193.78 422.66 275.49 483.24 275.49 483.24 260.52 439.29 260.52 439.29 242.46 478.28 242.46 478.28 227.48 439.29 227.48 439.29 208.42 483.24 208.42"/>
    <polygon class="cls-2" points="276.54 193.78 274.55 193.78 232.68 275.49 250.78 275.49 256.73 262.61 280.42 262.61 272.9 248.29 264.85 248.29 275.56 225.65 300.64 275.49 318.4 275.49 276.69 194.08 276.54 193.78"/>
  </g>
</svg>