<?xml version="1.0" encoding="UTF-8"?>
<svg id="Layer_1" data-name="Layer 1" xmlns="http://www.w3.org/2000/svg" viewBox="0 0 500 300">
  <defs>
    <style>
      .cls-1 {
        fill: #003a70;
      }

      .cls-1, .cls-2 {
        stroke-width: 0px;
      }

      .cls-2 {
        fill: #85754e;
      }
    </style>
  </defs>
  <g>
    <path class="cls-1" d="m132.6,198.38c0,.56-.5.56-.5.56h-2.38s-.56,0-.56-.56v-39.02h7.98c9.33,0,12.61,4.77,12.61,10.69v1.19c0,5.66-2.22,9.4-7.35,10.79l5.03,10.23c1.22,2.15,2.48,3.57,4.14,3.57h.56c.56,0,.56.56.56.56v1.92s0,.63-.56.63h-.89c-3.05,0-4.8-1.69-7.18-5.83l-5.1-10.62h-6.32v15.89h-.03Zm0-19.16h5.03c5.56,0,8.64-1.65,8.64-7.98v-1.19c0-5.2-3.11-7.41-8.87-7.41h-4.8v16.58Z"/>
    <path class="cls-1" d="m157.79,192.46c0-4.17,1.59-7.18,6.65-8.44l8.21-1.92v-3.11c-.17-3.18-2.32-5.53-5.59-5.53s-5.26,1.92-5.26,4.87c0,.3-.33.4-.33.4h-2.71s-.26-.1-.26-.4c0-4.93,3.74-8.04,8.61-8.04s8.87,3.05,8.87,9.6v18.5c0,.56-.5.56-.5.56h-2.22s-.56,0-.56-.56v-1.99c-1.82,2.42-4.57,2.95-6.55,2.95-5.3,0-8.34-2.81-8.34-6.88Zm14.86-2.81v-4.14l-7.88,1.82c-3.28.73-3.74,3.34-3.74,4.8,0,2.65,1.99,4.07,5.03,4.07,3.87,0,6.59-3.18,6.59-6.55Z"/>
    <path class="cls-1" d="m186.85,198.38c0,.56-.5.56-.5.56h-2.22s-.56,0-.56-.56v-38.43c0-.56.5-.56.5-.56h2.22s.56,0,.56.56v12.71c1.06-1.59,3.61-2.38,5.73-2.38,5.53,0,9.33,3.97,9.33,9.5v10.36c0,5.2-3.41,9.2-8.47,9.2-1.99,0-4.77-.5-6.55-2.95v1.99h-.03Zm11.75-18.6c0-3.51-2.22-6.29-6.06-6.29-2.55,0-5.76,1.52-5.76,6.29v10.62c0,3.61,2.48,5.76,6.32,5.76,3.11,0,5.33-2.71,5.49-6.06,0,.03,0-9.86,0-10.33Z"/>
    <path class="cls-1" d="m227.23,198.38c0,.56-.56.56-.56.56h-2.22s-.5,0-.5-.56v-1.99c-1.82,2.42-4.34,2.95-6.32,2.95-5.1,0-8.64-3.97-8.64-9.17v-10.36c0-5.26,2.95-9.57,8.87-9.57,2.22,0,5.1.96,6.09,2.61v-12.94c0-.56.5-.56.5-.56h2.25c.3,0,.5.23.5.56v38.46h.03Zm-3.28-18.53c0-4.93-3.38-6.39-6.09-6.39-3.81,0-5.59,2.55-5.59,6.39v10.36c0,3.34,2.25,5.99,5.36,5.99,3.67,0,6.32-1.92,6.32-5.99v-10.36Z"/>
    <path class="cls-1" d="m232.89,192.46c0-4.17,1.59-7.18,6.65-8.44l8.21-1.92v-3.11c-.17-3.18-2.32-5.53-5.59-5.53s-5.26,1.92-5.26,4.87c0,.3-.36.4-.36.4h-2.71s-.3-.1-.3-.4c0-4.93,3.74-8.04,8.61-8.04s8.87,3.05,8.87,9.6v18.5c0,.56-.5.56-.5.56h-2.18s-.56,0-.56-.56v-1.99c-1.82,2.42-4.57,2.95-6.55,2.95-5.26,0-8.31-2.81-8.31-6.88Zm14.86-2.81v-4.14l-7.84,1.82c-3.28.73-3.74,3.34-3.74,4.8,0,2.65,1.99,4.07,5.03,4.07,3.84,0,6.55-3.18,6.55-6.55Z"/>
    <path class="cls-1" d="m258.67,171.24c0-.56.53-.56.53-.56h2.25s.5,0,.5.56v1.62c1.29-1.82,3.54-2.61,5.99-2.61,5.1,0,8.87,3.34,8.87,9.6v18.5c0,.56-.56.56-.56.56h-2.15s-.56,0-.56-.56v-18.44c0-3.67-1.59-6.45-5.76-6.45-4.53,0-5.83,3.44-5.83,6.45v18.5c0,.56-.63.56-.63.56h-2.09s-.56,0-.56-.56v-27.17Z"/>
    <path class="cls-1" d="m311.5,159.36s.5,0,.66.56l10.76,38.63c.1.4-.33.4-.33.4h-2.78c-.17,0-.4-.17-.5-.56l-4.07-14.3h-12.44l-4.17,14.3c-.13.4-.33.56-.5.56h-2.81s-.46,0-.33-.4l10.92-38.63c.17-.56.63-.56.63-.56h4.96Zm-7.88,21.38h10.72l-4.77-18.1h-1.03l-4.93,18.1Z"/>
    <path class="cls-1" d="m342.41,189.51h1.99c.46,0,.73.23.73.73,0,4.4-2.71,9.1-8.94,9.1-5.56,0-9.23-3.18-9.23-10.16v-8.47c0-7.45,3.67-10.39,9.23-10.39,3.28,0,7.51,1.19,8.44,6.88.07.3.1.56-.33.73l-2.09.56c-.33.1-.56-.07-.63-.46-.23-2.02-1.65-4.57-5.36-4.57-4.07,0-5.92,2.42-5.92,7.35v8.37c0,4,2.05,7.02,5.92,7.02s5.66-3.38,5.66-6.06c-.03-.63.53-.63.53-.63Z"/>
    <path class="cls-1" d="m349.59,192.46c0-4.17,1.59-7.18,6.69-8.44l8.21-1.92v-3.11c-.17-3.18-2.32-5.53-5.59-5.53s-5.26,1.92-5.26,4.87c0,.3-.33.4-.33.4h-2.71s-.3-.1-.3-.4c0-4.93,3.71-8.04,8.61-8.04,4.63,0,8.87,3.05,8.87,9.6v18.5c0,.56-.5.56-.5.56h-2.22s-.56,0-.56-.56v-1.99c-1.82,2.42-4.6,2.95-6.55,2.95-5.3,0-8.34-2.81-8.34-6.88Zm14.89-2.81v-4.14l-7.88,1.82c-3.28.73-3.74,3.34-3.74,4.8,0,2.65,1.99,4.07,5.03,4.07,3.87,0,6.59-3.18,6.59-6.55Z"/>
    <path class="cls-1" d="m392.52,198.38c0,.56-.56.56-.56.56h-2.22s-.5,0-.5-.56v-1.99c-1.82,2.42-4.37,2.95-6.35,2.95-5.1,0-8.64-3.97-8.64-9.17v-10.36c0-5.26,2.95-9.57,8.87-9.57,2.22,0,5.1.96,6.09,2.61v-12.94c0-.56.5-.56.5-.56h2.25c.3,0,.5.23.5.56v38.46h.07Zm-3.28-18.53c0-4.93-3.41-6.39-6.09-6.39-3.77,0-5.59,2.55-5.59,6.39v10.36c0,3.34,2.25,5.99,5.36,5.99,3.67,0,6.35-1.92,6.35-5.99v-10.36h-.03Z"/>
    <path class="cls-1" d="m418.37,190.61c0,5.66-3.74,8.77-9.1,8.77s-9.1-3.74-9.1-8.77v-10.86c0-5.43,3.61-9.43,9.57-9.43,4.93,0,8.64,3.28,8.64,7.58v5.03c0,.96-.5,1.92-1.92,2.22l-13.01,2.45v3.05c.17,3.18,2.22,5.59,5.83,5.59s5.89-2.15,5.89-5.59c0-.3.33-.4.33-.4h2.58s.3.07.3.36Zm-3.28-12.61c0-2.95-2.32-4.53-5.66-4.53-4.4,0-5.99,2.81-5.99,6.29v4.57l11.65-2.22v-4.1Z"/>
    <path class="cls-1" d="m441.44,173c1.29-1.85,3.61-2.71,5.83-2.71,4.3,0,8.77,1.85,8.77,9.5v18.6c0,.56-.56.56-.56.56h-2.15s-.56,0-.56-.56v-18.6c0-3.67-1.59-6.32-5.49-6.32-2.38,0-4.24,1.82-4.24,4.57v20.36c0,.56-.56.56-.56.56h-2.02s-.56,0-.56-.56v-20.36c0-2.25-1.42-4.57-4.93-4.57-4.53,0-5.66,3.34-5.66,6.32v18.6c0,.56-.63.56-.63.56h-2.09s-.56,0-.56-.56v-27.14c0-.56.5-.56.5-.56h2.25s.5,0,.5.56v1.62c.96-1.59,3.28-2.61,5.73-2.61,2.48.03,5.1.73,6.45,2.75Z"/>
    <path class="cls-1" d="m461.17,171.24c-.17-.56.4-.56.4-.56h2.55s.4,0,.56.56l6.62,24.13h.46l6.69-24.13c.13-.56.56-.56.56-.56h2.48s.56,0,.4.56l-9.66,33.03c-1.85,6.06-4.8,6.69-7.02,6.69h-.63c-.56,0-.56-.63-.56-.63v-1.99s0-.56.56-.56c.86,0,3.34.3,4.57-3.61l1.65-5.2h-1.06s-.4,0-.63-.56l-7.94-27.17Z"/>
  </g>
  <g>
    <path class="cls-1" d="m144.78,112.26c1.36,0,2.09-.76,2.09-2.15s-.73-2.15-2.09-2.15-2.15.76-2.15,2.15c0,1.39.76,2.15,2.15,2.15Z"/>
    <path class="cls-1" d="m221.67,136.46c-1.39,0-2.09.7-2.09,2.02,0,1.46.7,2.22,2.09,2.22s2.15-.76,2.15-2.22c0-1.32-.76-2.02-2.15-2.02Z"/>
    <path class="cls-1" d="m271.81,89.09c-1.39,0-2.09.7-2.09,2.02,0,1.46.7,2.22,2.09,2.22s2.15-.76,2.15-2.22c.03-1.29-.73-2.02-2.15-2.02Z"/>
    <path class="cls-1" d="m278.7,89.09c-1.39,0-2.09.7-2.09,2.02,0,1.46.7,2.22,2.09,2.22s2.15-.76,2.15-2.22c0-1.29-.73-2.02-2.15-2.02Z"/>
    <path class="cls-1" d="m304.61,136.46c-1.39,0-2.09.7-2.09,2.02,0,1.46.7,2.22,2.09,2.22s2.15-.76,2.15-2.22c0-1.32-.73-2.02-2.15-2.02Z"/>
    <path class="cls-1" d="m311.5,136.46c-1.39,0-2.09.7-2.09,2.02,0,1.46.7,2.22,2.09,2.22s2.15-.76,2.15-2.22c0-1.32-.73-2.02-2.15-2.02Z"/>
    <path class="cls-1" d="m364.39,136.46c-1.39,0-2.09.7-2.09,2.02,0,1.46.7,2.22,2.09,2.22s2.15-.76,2.15-2.22c0-1.32-.76-2.02-2.15-2.02Z"/>
    <path class="cls-1" d="m371.27,136.46c-1.39,0-2.09.7-2.09,2.02,0,1.46.7,2.22,2.09,2.22s2.15-.76,2.15-2.22c0-1.32-.76-2.02-2.15-2.02Z"/>
    <path class="cls-1" d="m171.39,89.09h-2.22s-.5,0-.5.56v38.43c0,.56.5.56.5.56h2.22s.56,0,.56-.56v-38.43c0-.56-.56-.56-.56-.56Z"/>
    <path class="cls-1" d="m129.16,118.45c-.07,1.99-.03,3.44-.03,4.4.43,6.06,1.89,10.49,4.04,13.14,2.48,3.18,6.49,4.7,12.28,4.7,10.46,0,15.13-3.67,15.13-11.95v-27.77c0-.56-.56-.56-.56-.56h-2.22s-.5,0-.5.56v27.21h0v.63c0,3.64-1.16,6.12-3.48,7.38-1.59.89-4.3,1.32-8.24,1.32-9.33,0-12.68-4.67-13.14-15.69v-2.91"/>
    <path class="cls-1" d="m478.41,97.9h-2.22s-.5,0-.5.56v29.66c0,.56.5.56.5.56h2.22s.56,0,.56-.56v-29.66c0-.56-.56-.56-.56-.56Z"/>
    <path class="cls-1" d="m132.44,120.9v-3.48c0-.56-.56-.56-.56-.56h-2.22s-.5,0-.5.56v3.44"/>
    <path class="cls-1" d="m246.03,100.41h-2.22s-.5,0-.5.56v23.27h0v2.58c0,3.08-.7,5.63-2.09,7.55-1.46,2.22-3.61,3.34-6.42,3.38h-7.51c-.5,0-.5.46-.5.46v1.95s0,.5.5.5h7.61c3.74-.07,6.69-1.36,8.74-3.91,1.99-2.48,2.98-5.79,2.98-10.06v-25.72c-.03-.56-.6-.56-.6-.56Z"/>
    <path class="cls-1" d="m481.46,93.96h-4.9v-.46c0-1.52.56-2.28,1.65-2.35h1.92c.36,0,.36-.36.36-.36v-1.36s0-.33-.36-.33h-2.25c-2.35.17-3.57,1.79-3.57,4.53v.33h-2.88c-.36,0-.36.33-.36.33v1.49s0,.36.36.36h10.06c.4,0,.4-.36.4-.36v-1.49s-.03-.33-.43-.33Z"/>
    <path class="cls-1" d="m463.22,107.89c-2.75-2.71-6.49-4.07-11.02-4.07-1.79,0-3.54.23-5.36.73l10.72-12.15h0l.79-.93.03-.03.1-.13c.36-.4-.07-.76-.07-.76l-1.59-1.39s-.36-.33-.73.1l-.66.76-.5.6-14.53,16.18-.23.26-.6.66-.7.79c-.36.43,0,.76,0,.76l1.65,1.46s.43.4.79-.03c2.95-2.85,6.26-3.81,10.86-3.81,3.54,0,6.26.99,8.31,3.05,1.75,1.75,2.88,4.3,3.28,7.55.17,1.13.23,3.57.23,8.24h-43.66c-2.68,0-4-1.42-4-4.37v-1.62h0v-30.12c0-.56-.56-.56-.56-.56h-2.22s-.5,0-.5.56v31.81c0,4.83,2.25,7.28,6.72,7.28h47.16c.1,0,.6-.03.6-.6v-5.76c.03-6.62-1.42-11.49-4.34-14.46Z"/>
    <path class="cls-1" d="m394.67,100.41h-7.51c-.53,0-.53.46-.53.46v1.99s0,.5.53.5h7.25c4.9,0,7.28,2.58,7.28,7.91v14.46h-17.58c-.5,0-.5.46-.5.46v2.02s0,.5.5.5h20.29s.56,0,.6-.56l.03-.03v-17.28c-.03-6.26-4.07-10.29-10.36-10.43Z"/>
    <path class="cls-1" d="m375.48,106.74v-5.76c0-.56-.56-.56-.56-.56h-2.22s-.5,0-.5.56v14.89h0v2.28c0,5.1-2.42,7.58-7.35,7.58h-7.51c-4.6,0-6.95-2.32-7.25-7.02v-8.61c0-6.72-2.95-10.46-9.1-10.46s-9.1,3.74-9.1,10.46v8.01c-.07,5.13-2.45,7.65-7.28,7.65h-7.51c-4.96,0-7.35-2.48-7.35-7.58v-17.21c0-.56-.56-.56-.56-.56h-2.22s-.5,0-.5.56v14.89h0v1.99c0,5.33-2.38,7.91-7.28,7.91h-8.41c-4.07-.26-6.19-2.61-6.42-7.02v-8.64c0-5.03-1.65-8.41-5.06-9.76-.23-.1-.46-.13-.73-.2-.36-.1-.73-.26-1.16-.33-.66-.1-1.39-.17-2.15-.17-6.16,0-9.1,3.74-9.1,10.46h0v8.44c0,2.48.46,4.63,1.42,6.29h0c.7,1.22,1.65,2.18,2.91,2.81.07.03.1.03.13.07.26.13.5.23.79.33.1.03.2.07.3.1.23.07.5.13.73.2.13.03.26.07.4.1.26.07.5.1.76.13.13.03.26.03.4.07.33.03.7.03,1.06.07h.4c.36,0,.73-.03,1.06-.07.13,0,.26-.03.43-.07.26-.03.5-.07.76-.1.13-.03.26-.07.4-.1.26-.07.46-.13.7-.2.1-.03.2-.07.33-.1.26-.1.5-.2.73-.33.07-.03.13-.07.17-.1,1.26-.66,2.18-1.59,2.91-2.78v-.03c1.69,2.42,4.34,3.67,7.81,3.81v.03h8.77c4,0,6.95-1.46,8.7-4.3,1.82,2.85,4.67,4.3,8.47,4.3h8.61c3.64-.07,6.35-1.36,8.11-3.87,1.42,2.45,3.91,3.87,7.68,3.87s6.26-1.42,7.65-3.84c1.79,2.55,4.6,3.84,8.37,3.84h8.24c3.81,0,6.65-1.46,8.47-4.3,1.95-3.28,1.72-6.55,1.72-6.55v-10.96c-.07-.03-.07-.1-.07-.13Zm-94.43,11.85c0,4.4-2.48,6.95-5.83,6.95s-5.83-2.55-5.83-6.95v-8.47c0-5.56,2.45-7.28,5.83-7.28s5.83,1.75,5.83,7.28v8.47Zm65.8,0c0,4.4-2.48,6.95-5.83,6.95s-5.83-2.55-5.83-6.95v-8.47c0-5.56,2.42-7.28,5.83-7.28s5.83,1.75,5.83,7.28v8.47Z"/>
    <path class="cls-1" d="m226.37,100.38h-2.22s-.5,0-.5.56v14.89h0v1.99c0,5.33-2.42,7.91-7.35,7.91h-7.68c-4.67-.07-7.02-2.45-7.15-7.18v-7.74c0-6.26-4.07-10.33-10.43-10.43h-7.55c-.5,0-.5.46-.5.46v1.99s0,.5.5.5h7.35c4.9,0,7.28,2.58,7.28,7.91v4.5h0v1.99c0,5.3-2.35,7.88-7.15,7.98h-10.43c-.53,0-.53.46-.53.46v2.02s0,.53.53.53h10.53c4.04,0,7.02-1.46,8.8-4.37,1.82,2.88,4.67,4.34,8.47,4.37h8.31c6.12,0,10.23-4.2,10.23-10.43v-17.34c.03-.56-.53-.56-.53-.56Z"/>
  </g>
  <path class="cls-2" d="m32.78,91.71l-.33.07v.3c-.03,8.21-5.96,15.42-14.1,17.08l-.26.07v.3c.33,29.62,2.48,47.66,13.4,64.18,11.32,17.11,27.54,23.96,32.2,25.65l.13.03.13-.03c3.71-1.32,14.66-5.96,24.69-16.32-1.56-8.64-2.02-14.3-2.48-19.49-.43-4.67-3.77-11.35-8.31-12.54-.36-.1,2.15-4.04,2.35-7.58-.96,2.71-3.44,6.79-4.7,7.48-4.47,2.75-6.45,3.74-8.7,3.48-2.25-.23-3.48-.23-5.46.26-1.99.5-9.93,2.22-12.41,1.72-2.48-.5-4.24-.5-4.73.73-.5,1.26-2.48,2.98-3.97,2.98s-3.74.5-5.23-1.22c-4.47-.5-3.71-3.97-3.71-5.73s.5-5.69.76-7.18c.23-1.49,2.22-2.48,3.48-3.21,1.26-.73,12.64-8.44,15.16-10.92,2.48-2.48,6.69-9.43,13.14-13.9.5-1.49,1.72-4.47,1.72-4.47l-3.24-11.42,5.46,7.18s-.23-6.19-.99-9.17c3.71,4.7,8.18,11.42,9.93,12.91,1.72,1.49,16.62,7.68,19.86,10.16,2.28.2,5.92.43,12.41,5.1.36-5.69.53-11.88.6-18.67v-.3l-.26-.07c-8.14-1.69-14.07-8.87-14.1-17.08v-.3l-.3-.03c-7.41-1.19-18.83-2.58-31.05-2.58-12.25,0-23.67,1.39-31.08,2.55"/>
</svg>