<?xml version="1.0" encoding="UTF-8"?>
<svg id="Layer_1" data-name="Layer 1" xmlns="http://www.w3.org/2000/svg" version="1.1" viewBox="0 0 500 200">
  <defs>
    <style>
      .cls-1 {
        fill: #674e1b;
      }

      .cls-1, .cls-2, .cls-3 {
        stroke-width: 0px;
      }

      .cls-2 {
        fill: #808184;
      }

      .cls-3 {
        fill: #b08d28;
      }
    </style>
  </defs>
  <g>
    <path class="cls-3" d="M46.88,134.79l-1.07,1.94c-1.42-.57-2.01-.62-3.75-.67v4.69h4.37l-1,1.9c-.91-.39-1.72-.62-3.36-.6v2.96c0,1.06.11,1.97.41,2.99h-2.81c.42-1.65.44-3.15.44-3.7v-6.2c0-1.89-.23-2.6-.44-3.31h7.23Z"/>
    <path class="cls-3" d="M52.98,147.6c-.56.2-1.18.4-2.04.4-2.94,0-3.68-2.38-3.68-4.46,0-3.07,1.53-4.76,3.7-4.76,1.51,0,2.71.92,2.97,2.68.13.74.11,1.13.11,2.14l-4.86.1c.05.63.21,2.78,2.25,2.78.74,0,1.37-.25,2.41-.72l-.86,1.84ZM52.89,142.52c.05-1.67-.56-2.62-1.83-2.62s-1.8,1.06-1.94,2.62h3.77Z"/>
    <path class="cls-3" d="M63.11,134.72c-.14.62-.32,1.34-.32,2.82v8.93c0,.42,0,.6.32,1.53h-2.06v-1.53c-.67.74-1.37,1.53-2.69,1.53-1.78,0-3.47-1.55-3.47-3.91,0-2.65,2.32-5.11,4.91-5.11.56,0,.88.09,1.25.19v-1.64c0-1.2-.19-1.78-.39-2.32l2.45-.5ZM61.05,140.78c-.3-.28-.77-.7-1.7-.7-.74,0-1.22.26-1.74.58-.37.63-.76,1.34-.76,2.7,0,3.19,2.73,3.29,3.08,3.29.6,0,.9-.21,1.12-.39v-5.48Z"/>
    <path class="cls-3" d="M70.39,147.6c-.56.2-1.18.4-2.04.4-2.94,0-3.68-2.38-3.68-4.46,0-3.07,1.53-4.76,3.7-4.76,1.51,0,2.71.92,2.97,2.68.12.74.11,1.13.11,2.14l-4.86.1c.05.63.21,2.78,2.25,2.78.74,0,1.38-.25,2.41-.72l-.86,1.84ZM70.3,142.52c.05-1.67-.56-2.62-1.83-2.62s-1.8,1.06-1.94,2.62h3.77Z"/>
    <path class="cls-3" d="M75.3,138.77c-.09.48-.09.67-.09,1.27v1.13c.54-1.06,1.18-2.35,2.69-2.35.39,0,.56.09.85.23l-.3,2.22c-.48-.44-.72-.67-1.41-.67-.97,0-1.48.48-1.83.81v4.42c0,1.34.14,1.64.46,2.17h-2.69c.37-.58.46-.88.46-1.76v-5.87c0-.33,0-.72-.3-1.6h2.17Z"/>
    <path class="cls-3" d="M80.52,139.13l1.16-.24c.32-.08.69-.08.81-.08,1.71,0,2.43.97,2.62,1.31.27.48.27.73.27,1.34l.07,5.27c0,.21.16.74.33,1.28h-2.08v-1.28c-.67.49-.86.65-1.51,1.2-.11.02-.46.08-.74.08-.72,0-2.32-.63-2.32-2.13,0-1.59,2.04-2.48,3.24-2.97.88-.33.97-.4,1.34-.67v-.47c0-.46-.03-.6-.1-.74-.25-.46-.99-.88-1.83-.88-.69,0-1.18.27-1.74.6l.49-1.62ZM83.71,143.97h-2.36c-.19.46-.33.84-.33,1.39,0,1.03.83,1.36,1.74,1.36.42,0,.65-.07.95-.16v-2.59Z"/>
    <path class="cls-3" d="M90.3,134.7c-.23,1.16-.32,2.22-.32,3v7.57c0,1.3.09,1.67.56,2.73h-2.99c.19-.35.67-1.23.67-2.1l.02-8.65c0-.84-.14-1.3-.39-2.06l2.45-.49Z"/>
    <path class="cls-3" d="M107.57,144.39c.95,2.06,1.56,2.91,2.06,3.58l-3.13.03c0-.58-.07-1.25-.55-2.32l-.77-1.78h-4.63l-.67,1.43c-.23.49-.74,1.64-.67,2.67h-3.22c.44-.51.83-.99,1.92-3.15l5.09-10.11h.1l4.47,9.65ZM101.28,142.35h3.2l-1.53-3.54-1.67,3.54Z"/>
    <path class="cls-3" d="M112.33,138.77c-.32.51-.44.71-.44,1.53v5.07c.25,1.21,1.25,1.21,1.45,1.21.75,0,1.32-.35,1.72-.63v-5.02c0-.92-.02-1.37-.35-2.13l2.58-.03c-.26.56-.46.98-.46,1.71v5.36c0,1.22.2,1.84.32,2.17h-2.16c.07-.84.07-1,.07-1.87l-1.39,1.52c-.26.14-.78.37-1.32.37-.32,0-1.51-.15-2.25-1.69l.03-5.21c.02-1.31-.17-1.77-.48-2.34h2.68Z"/>
    <path class="cls-3" d="M124.01,138.98v1.16h-2.34v3.31c0,2.08,0,2.31.09,2.55.11.32.58.76,1.16.76.3,0,.56-.05,1.2-.2l-1,1.29c-.6.12-1,.19-1.51.19-1.39,0-1.76-1.02-1.76-1.52,0-.39.05-.71.05-1.29v-5.11h-1.2c.26-.32.55-.6,2.97-3.1v1.94h2.34Z"/>
    <path class="cls-3" d="M127.79,134.72c-.19,1.28-.35,2.26-.35,3.58v2.52l.95-1.09c.32-.37.74-.87,1.81-.87.81,0,1.65.5,1.97,1.25.3.65.28,1.32.27,2.24v3.59c0,.92,0,1.16.19,2.08h-2.15c.26-.97.26-1.36.26-1.94v-3.47c0-.57.02-1.08-.26-1.48-.35-.49-1.04-.67-1.43-.67-.69,0-1.18.28-1.62.55v3.9c0,2.08.11,2.41.3,3.1h-2.51c.28-.66.52-1.27.52-3.21v-6.69c0-1.43-.1-1.94-.42-2.91l2.46-.47Z"/>
    <path class="cls-3" d="M142.81,143.09c0,4.02-3.36,5.06-4.49,5.06-1.8,0-4.1-1.18-4.1-4.39,0-3.84,2.59-4.63,4.1-5.09,2.52-.09,4.49,1.69,4.49,4.42M141.16,143.46c0-1.86-1.18-3.54-2.82-3.54-1.2,0-2.23,1.16-2.23,3.1,0,2.65,1.76,3.95,3.45,3.81.62-.49,1.6-1.38,1.6-3.37"/>
    <path class="cls-3" d="M146.68,138.77c-.09.48-.09.67-.09,1.27v1.13c.54-1.06,1.18-2.35,2.69-2.35.39,0,.56.09.84.23l-.3,2.22c-.47-.44-.72-.67-1.41-.67-.97,0-1.48.48-1.83.81v4.42c0,1.34.14,1.64.46,2.17h-2.69c.37-.58.46-.88.46-1.76v-5.87c0-.33,0-.72-.3-1.6h2.16Z"/>
    <path class="cls-3" d="M153.63,138.76c-.23.44-.44.83-.44,2.31v4.39c0,1.67.28,2.15.53,2.55h-2.83c.41-.62.55-.84.55-2.66v-4.26c0-1.18-.12-1.6-.47-2.32h2.67ZM153.59,136.2c0,.51-.37,1.32-1.25,1.32-.69,0-1.25-.53-1.25-1.36,0-.92.69-1.32,1.22-1.32.79,0,1.28.74,1.28,1.36"/>
    <path class="cls-3" d="M160.3,138.98v1.16h-2.34v3.31c0,2.08,0,2.31.09,2.55.11.32.58.76,1.16.76.3,0,.56-.05,1.19-.2l-1,1.29c-.6.12-1,.19-1.51.19-1.39,0-1.76-1.02-1.76-1.52,0-.39.05-.71.05-1.29v-5.11h-1.19c.26-.32.54-.6,2.97-3.1v1.94h2.34Z"/>
    <path class="cls-3" d="M163.53,138.76c.07.49.19.97.39,1.43l1.81,4.41c1.6-4.39,1.62-4.67,1.62-5.83h2.75c-.62.88-.92,1.3-2.13,4.56l-1.2,3.22c-.37,1.02-1.53,3.41-1.8,3.6l-1.02.72h-1.73l1.14-1.37c.32-.39.69-1.11,1.37-2.57-.51-1.32-1.32-3.29-2.01-4.95-.14-.34-.81-1.99-1.67-3.2h2.46Z"/>
    <path class="cls-3" d="M181.43,140.17h-2.01v5.6c0,1.27.23,1.71.49,2.2l-2.82.03c.42-.77.51-1.41.51-2.38v-5.46l-.92-.04c.44-.56.56-.74.92-1.3v-.54c0-.97,0-3.61,3.02-3.61.67,0,1.2.12,1.67.22-.18.88-.23,1.13-.35,1.98-.21-.44-.55-.89-1.34-.89-1.2,0-1.2,1.26-1.2,1.81v1.16h2.01v1.22Z"/>
    <path class="cls-3" d="M190.11,143.09c0,4.02-3.36,5.06-4.49,5.06-1.8,0-4.1-1.18-4.1-4.39,0-3.84,2.59-4.63,4.1-5.09,2.52-.09,4.49,1.69,4.49,4.42M188.46,143.46c0-1.86-1.18-3.54-2.82-3.54-1.2,0-2.23,1.16-2.23,3.1,0,2.65,1.76,3.95,3.45,3.81.62-.49,1.6-1.38,1.6-3.37"/>
    <path class="cls-3" d="M193.98,138.77c-.09.48-.09.67-.09,1.27v1.13c.54-1.06,1.18-2.35,2.69-2.35.39,0,.56.09.85.23l-.3,2.22c-.48-.44-.72-.67-1.41-.67-.97,0-1.48.48-1.83.81v4.42c0,1.34.14,1.64.46,2.17h-2.69c.37-.58.46-.88.46-1.76v-5.87c0-.33,0-.72-.3-1.6h2.17Z"/>
    <path class="cls-3" d="M206.9,134.79c.25.6.37.92,1.41,2.24l5.96,7.58v-6.01c0-2.44-.16-3.05-.37-3.81h2.53c-.17.71-.33,1.41-.33,2.82v7.1c0,2.04.25,2.75.44,3.29h-2.44c-.23-.7-.67-1.32-1.13-1.9l-5.62-7.19v5.21c0,1.16.12,2.8.53,3.88h-2.8c.42-1.37.44-3.24.44-3.49v-7.95c-.63-.81-.98-1.15-1.78-1.78h3.15Z"/>
    <path class="cls-3" d="M221.19,138.77c-.32.51-.44.71-.44,1.53v5.07c.25,1.21,1.25,1.21,1.44,1.21.76,0,1.32-.35,1.73-.63v-5.02c0-.92-.02-1.37-.35-2.13l2.59-.03c-.26.56-.46.98-.46,1.71v5.36c0,1.22.19,1.84.32,2.17h-2.17c.07-.84.07-1,.07-1.87l-1.39,1.52c-.26.14-.77.37-1.32.37-.32,0-1.51-.15-2.25-1.69l.03-5.21c.02-1.31-.17-1.77-.48-2.34h2.67Z"/>
    <path class="cls-3" d="M234.34,140.9c-.41-.42-.9-.93-1.97-.93-2.04,0-2.62,1.85-2.62,3.2,0,2.7,1.73,3.44,2.9,3.44.8,0,1.45-.2,1.97-.35l-.95,1.48c-.42.12-.83.23-1.5.23-2.44,0-4.28-1.83-4.28-4.33,0-1.27.6-4.85,4.82-4.85.81,0,1.3.1,1.78.18l-.16,1.94Z"/>
    <path class="cls-3" d="M238.28,134.7c-.23,1.16-.31,2.22-.31,3v7.57c0,1.3.09,1.67.56,2.73h-2.99c.19-.35.67-1.23.67-2.1v-8.65c.01-.84-.12-1.3-.37-2.06l2.44-.49Z"/>
    <path class="cls-3" d="M245.67,147.6c-.56.2-1.18.4-2.04.4-2.94,0-3.68-2.38-3.68-4.46,0-3.07,1.53-4.76,3.7-4.76,1.51,0,2.71.92,2.97,2.68.12.74.11,1.13.11,2.14l-4.86.1c.05.63.21,2.78,2.25,2.78.74,0,1.37-.25,2.41-.72l-.86,1.84ZM245.58,142.52c.05-1.67-.56-2.62-1.83-2.62s-1.79,1.06-1.94,2.62h3.77Z"/>
    <path class="cls-3" d="M249.01,139.13l1.16-.24c.32-.08.68-.08.81-.08,1.71,0,2.43.97,2.62,1.31.26.48.26.73.26,1.34l.07,5.27c0,.21.16.74.33,1.28h-2.08v-1.28c-.67.49-.86.65-1.51,1.2-.11.02-.46.08-.74.08-.72,0-2.33-.63-2.33-2.13,0-1.59,2.04-2.48,3.24-2.97.88-.33.97-.4,1.34-.67v-.47c0-.46-.03-.6-.11-.74-.24-.46-.99-.88-1.83-.88-.69,0-1.18.27-1.74.6l.49-1.62ZM252.19,143.97h-2.36c-.19.46-.34.84-.34,1.39,0,1.03.83,1.36,1.74,1.36.43,0,.65-.07.95-.16v-2.59Z"/>
    <path class="cls-3" d="M258.63,138.77c-.08.48-.08.67-.08,1.27v1.13c.54-1.06,1.18-2.35,2.69-2.35.39,0,.56.09.85.23l-.3,2.22c-.48-.44-.72-.67-1.41-.67-.97,0-1.48.48-1.83.81v4.42c0,1.34.14,1.64.46,2.17h-2.69c.37-.58.46-.88.46-1.76v-5.87c0-.33,0-.72-.3-1.6h2.17Z"/>
    <path class="cls-3" d="M269.79,137.56c0-1.55-.21-2.28-.35-2.73l2.57-.03c3.4-.05,5,1.99,5,3.77,0,2.15-1.9,3.21-2.5,3.52,1.17,2.08,2.8,4.04,4.36,5.92h-1.81c-1.78-1.53-2.59-2.48-5.31-6.11v3.26c0,1.02.01,1.44.37,2.85h-2.68c.28-1.3.35-2.27.35-3.41v-7.03ZM271.75,141.7c1.24-.35,3.25-.92,3.25-2.94,0-.99-.61-2.57-3.25-2.84v5.78Z"/>
    <path class="cls-3" d="M285.41,147.6c-.56.2-1.18.4-2.04.4-2.94,0-3.68-2.38-3.68-4.46,0-3.07,1.53-4.76,3.7-4.76,1.51,0,2.71.92,2.98,2.68.12.74.1,1.13.1,2.14l-4.85.1c.05.63.21,2.78,2.25,2.78.74,0,1.37-.25,2.41-.72l-.86,1.84ZM285.33,142.52c.05-1.67-.57-2.62-1.83-2.62s-1.8,1.06-1.94,2.62h3.77Z"/>
    <path class="cls-3" d="M295.77,140.44h-1.65c.23.44.53.99.53,1.75,0,1.59-1.35,2.64-3.56,2.64-.42,0-.7-.04-1-.07-.27.35-.4.6-.4.81,0,.12.05.37.17.47.12.12,1.21.12,1.6.12,2.02,0,2.36,0,2.84.27.55.3.86.92.86,1.55,0,1.2-1.04,2.03-1.62,2.38-.81.48-1.65.49-2.67.49h-1.83l-1-.58c-.25-.14-.32-.3-.32-.53v-.74c1.2-.72,1.43-.99,1.87-1.5-.93-.18-1.87-.35-1.87-1.1,0-.35.34-.67,1.15-1.06.4-.18.67-.4.95-.65-1.13-.32-1.94-1.22-1.94-2.52,0-2.94,2.43-3.51,3.59-3.51.97,0,1.37.25,1.82.53h2.5v1.23ZM289.86,147.55c-.17.23-.41.51-.41.97,0,.27.15,1.04,1.57,1.04.73,0,2.34-.1,2.34-1.18,0-.83-.85-.88-1.48-.88l-2.02.05ZM291.94,143.86c.4-.29,1.02-.7,1.02-1.67,0-1.11-.76-2.48-1.89-2.48-.81,0-1.46.65-1.46,1.87s.65,2.36,1.93,2.3l.39-.02Z"/>
    <path class="cls-3" d="M299.57,138.77c-.32.51-.44.71-.44,1.53v5.07c.25,1.21,1.25,1.21,1.44,1.21.76,0,1.32-.35,1.73-.63v-5.02c0-.92-.02-1.37-.35-2.13l2.59-.03c-.26.56-.46.98-.46,1.71v5.36c0,1.22.2,1.84.32,2.17h-2.16c.07-.84.07-1,.07-1.87l-1.39,1.52c-.27.14-.78.37-1.32.37-.32,0-1.52-.15-2.25-1.69l.03-5.21c.02-1.31-.18-1.77-.47-2.34h2.68Z"/>
    <path class="cls-3" d="M309.15,134.7c-.23,1.16-.32,2.22-.32,3v7.57c0,1.3.08,1.67.56,2.73h-2.99c.19-.35.67-1.23.67-2.1v-8.65c.01-.84-.13-1.3-.37-2.06l2.45-.49Z"/>
    <path class="cls-3" d="M312,139.13l1.16-.24c.32-.08.69-.08.81-.08,1.71,0,2.43.97,2.62,1.31.26.48.26.73.26,1.34l.07,5.27c0,.21.16.74.33,1.28h-2.07v-1.28c-.67.49-.87.65-1.51,1.2-.1.02-.46.08-.74.08-.72,0-2.32-.63-2.32-2.13,0-1.59,2.04-2.48,3.24-2.97.88-.33.96-.4,1.34-.67v-.47c0-.46-.03-.6-.11-.74-.25-.46-.99-.88-1.83-.88-.69,0-1.18.27-1.74.6l.49-1.62ZM315.19,143.97h-2.36c-.19.46-.33.84-.33,1.39,0,1.03.83,1.36,1.74,1.36.42,0,.64-.07.95-.16v-2.59Z"/>
    <path class="cls-3" d="M323.87,138.98v1.16h-2.34v3.31c0,2.08,0,2.31.09,2.55.1.32.58.76,1.16.76.3,0,.56-.05,1.2-.2l-1,1.29c-.59.12-1.01.19-1.51.19-1.39,0-1.76-1.02-1.76-1.52,0-.39.05-.71.05-1.29v-5.11h-1.2c.26-.32.54-.6,2.97-3.1v1.94h2.34Z"/>
    <path class="cls-3" d="M327.63,138.76c-.22.44-.44.83-.44,2.31v4.39c0,1.67.28,2.15.53,2.55h-2.84c.41-.62.55-.84.55-2.66v-4.26c0-1.18-.12-1.6-.48-2.32h2.67ZM327.6,136.2c0,.51-.36,1.32-1.25,1.32-.69,0-1.25-.53-1.25-1.36,0-.92.69-1.32,1.22-1.32.79,0,1.28.74,1.28,1.36"/>
    <path class="cls-3" d="M337.72,143.09c0,4.02-3.36,5.06-4.49,5.06-1.8,0-4.1-1.18-4.1-4.39,0-3.84,2.59-4.63,4.1-5.09,2.52-.09,4.49,1.69,4.49,4.42M336.06,143.46c0-1.86-1.18-3.54-2.81-3.54-1.2,0-2.24,1.16-2.24,3.1,0,2.65,1.76,3.95,3.45,3.81.62-.49,1.6-1.38,1.6-3.37"/>
    <path class="cls-3" d="M342.73,139.11c.37-.19.81-.42,1.41-.42.83,0,2.32.69,2.32,2.41v5.32c0,.74.07.97.33,1.59h-2.36c.28-.74.28-1.07.28-1.53v-5.09c0-.32-.32-1.2-1.67-1.2-.86,0-1.22.25-1.64.53v5.25c0,.97.03,1.27.16,2.04h-2.34c.39-.88.46-1.87.46-2.82v-4.95c0-.25-.16-1.04-.24-1.48h1.99l-.02,1.8,1.32-1.45Z"/>
    <path class="cls-3" d="M42.85,109.62c.75,0,1.39-.62,1.39-1.37s-.62-1.34-1.39-1.34-1.36.61-1.36,1.34.62,1.37,1.36,1.37"/>
    <path class="cls-3" d="M46.07,109.62c.74,0,1.37-.62,1.37-1.37s-.63-1.34-1.37-1.34-1.34.6-1.34,1.34.61,1.37,1.34,1.37"/>
    <path class="cls-3" d="M60.3,116.73c0,1.34-.63,1.99-1.93,1.99h-8.41c-1.28,0-1.9-.65-1.9-1.99v-5.67h-4.33c-2.71,0-4.08,1.59-4.08,4.74s1.37,4.87,4.08,4.87c1.49,0,2.51-.44,3.04-1.3.51.87,1.55,1.3,3.1,1.3h8.61c1.21,0,2.19-.35,2.93-1.07.73-.7,1.1-1.62,1.1-2.73v-5.86l-2.2.66v5.05ZM45.84,115.79c0,.98-.13,1.71-.4,2.16-.28.51-.82.76-1.59.76s-1.31-.25-1.59-.77c-.27-.44-.4-1.17-.4-2.16s.13-1.72.4-2.14c.28-.49.81-.74,1.59-.74h1.99v2.88Z"/>
    <path class="cls-3" d="M57.87,122.11c-.74,0-1.37.61-1.37,1.34s.63,1.37,1.37,1.37,1.34-.64,1.34-1.37-.62-1.34-1.34-1.34"/>
    <path class="cls-3" d="M61.09,122.11c-.77,0-1.39.61-1.39,1.34s.64,1.37,1.39,1.37,1.34-.63,1.34-1.37-.6-1.34-1.34-1.34"/>
    <path class="cls-3" d="M68.19,111.41c-1.47,0-2.58.52-3.3,1.53-.58.84-.87,1.93-.87,3.25s.29,2.38.87,3.23c.7,1.03,1.81,1.55,3.3,1.55.66,0,1.25-.13,1.81-.4-.21,1.35-.98,2.05-2.34,2.12-1,.06-2.1-.18-3.23-.72l-.31-.15,1.06,2.28c.61.37,1.45.56,2.49.56,1.5,0,2.66-.49,3.45-1.45.74-.84,1.11-1.98,1.13-3.46,0-.21.03-.64.07-1.3.02-.61.02-1.13.02-1.52,0-1.63-.23-2.86-.7-3.74-.66-1.17-1.82-1.76-3.44-1.76M68.19,118.99c-1.32,0-1.97-.92-1.97-2.8s.64-2.82,1.97-2.82,1.95.93,1.95,2.82-.63,2.8-1.95,2.8"/>
    <path class="cls-3" d="M94.32,109.62c.74,0,1.37-.62,1.37-1.37s-.63-1.34-1.37-1.34-1.37.61-1.37,1.34.63,1.37,1.37,1.37"/>
    <path class="cls-3" d="M107.33,116.69c0,1.34-.62,1.99-1.9,1.99h-7.52v.04h-.5c-1.29,0-1.92-.63-1.92-1.93v-5.77l-2.2.65v5.06c0,1.34-.64,1.99-1.95,1.99h-9.17v-.31c.02-.84.03-1.54.03-2.09,0-3.3-1.37-4.98-4.08-4.98-1.45,0-2.56.53-3.31,1.59-.62.87-.94,2.02-.94,3.39,0,1.27.37,2.31,1.09,3.07.76.83,1.88,1.26,3.31,1.28h1.47c-.22,1.16-1.15,1.99-2.28,2.01h-.2c-.94,0-1.91-.23-3-.72l-.3-.13,1.06,2.27c.59.37,1.43.56,2.49.56,1.25,0,2.29-.42,3.09-1.24.71-.71,1.16-1.61,1.36-2.75h9.5c1.23,0,2.22-.35,2.94-1.04.72.69,1.69,1.04,2.88,1.04h8.24c1.21,0,2.2-.36,2.93-1.07.74-.73,1.09-1.63,1.09-2.73v-9.84l-2.22.65v9ZM79.97,118.72h-1.7c-1.46,0-2.18-.79-2.18-2.41,0-2.02.66-3.01,2.03-3.01.79,0,1.34.32,1.61.96.17.4.25,1.06.25,2.05l-.02,2.41Z"/>
    <polygon class="cls-3" points="111.08 120.67 113.3 120.67 113.3 106.99 111.08 107.68 111.08 120.67"/>
    <path class="cls-3" d="M121.4,109.62c.75,0,1.38-.62,1.38-1.37s-.62-1.34-1.38-1.34-1.37.61-1.37,1.34.62,1.37,1.37,1.37"/>
    <path class="cls-3" d="M124.62,109.62c.74,0,1.36-.62,1.36-1.37s-.62-1.34-1.36-1.34-1.34.6-1.34,1.34.61,1.37,1.34,1.37"/>
    <path class="cls-3" d="M138.84,116.73c0,1.34-.63,1.99-1.93,1.99h-8.41c-1.28,0-1.9-.65-1.9-1.99v-5.67h-4.34c-2.71,0-4.08,1.59-4.08,4.74s1.38,4.87,4.08,4.87c1.51,0,2.51-.42,3.04-1.3.5.87,1.54,1.3,3.09,1.3h8.61c1.21,0,2.2-.35,2.93-1.07.73-.7,1.1-1.62,1.1-2.73v-5.86l-2.2.66v5.05ZM124.39,115.79c0,.97-.14,1.71-.4,2.16-.28.51-.81.76-1.59.76s-1.31-.25-1.59-.77c-.27-.44-.4-1.17-.4-2.16s.13-1.72.4-2.14c.28-.49.82-.75,1.59-.75h1.99v2.88Z"/>
    <path class="cls-3" d="M138.59,122.11c-.73,0-1.34.61-1.34,1.34s.62,1.37,1.34,1.37,1.36-.63,1.36-1.37-.62-1.34-1.36-1.34"/>
    <path class="cls-3" d="M157.11,109.62c.75,0,1.39-.62,1.39-1.37s-.62-1.34-1.39-1.34-1.34.6-1.34,1.34.61,1.37,1.34,1.37"/>
    <path class="cls-3" d="M163.15,114.11c0-.93-.34-1.72-1.01-2.35-.75-.72-1.85-1.09-3.28-1.09-2.52,0-4.14,1.35-4.14,3.44,0,1.14.23,1.99.69,2.51.54.63,1.48.94,2.86.94h2.67c-.03.51-.22.84-.58,1-.15.05-.51.11-1.41.11h-13.26c-.62,0-.89-.27-.89-.87v-10.82l-2.21.7v10.18c0,1.73,1.09,2.8,2.86,2.8h13.76c1.3,0,2.22-.22,2.81-.66.76-.56,1.15-1.47,1.15-2.72v-3.18ZM160.93,115.65h-2.28c-.99,0-1.35-.13-1.47-.22-.12-.11-.27-.42-.27-1.26,0-1.02.64-1.51,1.95-1.51,1.39,0,2.07.5,2.07,1.51v1.48Z"/>
    <path class="cls-3" d="M160.35,109.62c.71,0,1.34-.64,1.34-1.37s-.61-1.34-1.34-1.34-1.36.61-1.36,1.34.63,1.37,1.36,1.37"/>
    <path class="cls-3" d="M191.11,116.69c0,1.34-.62,1.99-1.9,1.99h-1.94c-1.28,0-1.9-.62-1.9-1.89v-9.8l-2.22.7v9c0,1.34-.63,1.99-1.93,1.99h-10.02v-7.66l-2.22.66v8.31c0,1.69-.96,2.7-2.57,2.7-1.15,0-2.16-.25-3.09-.77l-.35-.2,1.15,2.36c.63.39,1.38.58,2.29.58,2.62,0,4.43-1.53,4.75-3.99h10.18c1.24,0,2.22-.35,2.92-1.06.74.72,1.69,1.06,2.88,1.06h2.17c1.21,0,2.2-.36,2.93-1.07.74-.74,1.09-1.62,1.09-2.73v-9.84l-2.22.65v9Z"/>
    <path class="cls-3" d="M201.42,109.62c.75,0,1.39-.62,1.39-1.37s-.63-1.34-1.39-1.34-1.37.61-1.37,1.34.62,1.37,1.37,1.37"/>
    <path class="cls-3" d="M204.64,109.62c.74,0,1.36-.62,1.36-1.37s-.63-1.34-1.36-1.34-1.34.6-1.34,1.34.61,1.37,1.34,1.37"/>
    <path class="cls-3" d="M218.87,116.73c0,1.34-.63,1.99-1.92,1.99h-8.41c-1.28,0-1.9-.65-1.9-1.99v-5.67h-4.33c-2.71,0-4.09,1.59-4.09,4.74s1.37,4.87,4.09,4.87c1.48,0,2.5-.44,3.04-1.3.5.87,1.54,1.3,3.09,1.3h8.61c1.22,0,2.2-.35,2.93-1.07.73-.7,1.1-1.62,1.1-2.73v-5.86l-2.2.66v5.05ZM204.41,115.79c0,.97-.14,1.72-.4,2.16-.28.51-.81.76-1.59.76s-1.31-.25-1.59-.77c-.27-.45-.4-1.17-.4-2.16s.14-1.71.4-2.14c.28-.49.82-.75,1.59-.75h1.98v2.88Z"/>
    <path class="cls-3" d="M216.45,122.11c-.74,0-1.36.61-1.36,1.34s.62,1.37,1.36,1.37,1.34-.64,1.34-1.37-.61-1.34-1.34-1.34"/>
    <path class="cls-3" d="M219.66,122.11c-.77,0-1.39.61-1.39,1.34s.64,1.37,1.39,1.37,1.34-.63,1.34-1.37-.6-1.34-1.34-1.34"/>
    <path class="cls-3" d="M226.85,111.08c-.95,0-1.92.42-2.92,1.35v2.72l.23-.41c.67-1.17,1.55-1.74,2.69-1.74,1.37,0,2.03.62,2.03,1.91v3.82l-5.08.05-1.32,1.89h8.6v-5.91c0-1.13-.39-2-1.18-2.67-.81-.68-1.8-1-3.05-1"/>
    <path class="cls-3" d="M261.67,116.73c0,1.34-.63,1.99-1.92,1.99h-.86v-.04h-4.12v-.58c0-2.05-.28-3.63-.84-4.69-.83-1.56-2.34-2.35-4.46-2.35-1.67,0-3.24.7-4.65,2.07l-.09.09,1.59,1.48.09-.09c.97-1.05,1.97-1.56,3.06-1.56,1.32,0,2.18.54,2.62,1.66.29.69.43,1.83.43,3.38v.62h-14.71v-.04h-2.08c-.61,0-.89-.27-.89-.87v-10.82l-2.22.7v10.18c0,1.73,1.1,2.8,2.86,2.8h24.38c1.21,0,2.19-.36,2.93-1.07.72-.7,1.09-1.62,1.09-2.73v-5.85l-2.2.65v5.06Z"/>
    <path class="cls-3" d="M259.82,109.62c.73,0,1.35-.62,1.35-1.37s-.6-1.34-1.35-1.34-1.36.61-1.36,1.34.62,1.37,1.36,1.37"/>
    <path class="cls-3" d="M263.02,106.91c-.75,0-1.37.61-1.37,1.34s.62,1.36,1.37,1.36,1.36-.61,1.36-1.36-.61-1.34-1.36-1.34"/>
    <path class="cls-3" d="M273.21,116.73c0,1.31-.63,1.95-1.93,1.95h-.66v-10.83l-2.22.65v10.18h-2.04l-1.04,1.99h6.09c1.19,0,2.17-.36,2.9-1.07.73-.71,1.1-1.63,1.1-2.73v-10.02l-2.21.66v9.23Z"/>
    <polygon class="cls-3" points="276.95 120.67 279.16 120.67 279.16 106.99 276.95 107.68 276.95 120.67"/>
    <path class="cls-3" d="M287.26,109.62c.76,0,1.39-.62,1.39-1.37s-.62-1.34-1.39-1.34-1.37.61-1.37,1.34.62,1.37,1.37,1.37"/>
    <path class="cls-3" d="M290.48,109.62c.74,0,1.37-.62,1.37-1.37s-.63-1.34-1.37-1.34-1.34.6-1.34,1.34.61,1.37,1.34,1.37"/>
    <path class="cls-3" d="M306.61,108.44h-3.09v-.48c0-.86.33-1.26,1.03-1.26.4,0,.71.17.98.53l.09.12,1.1-1.1-.09-.09c-.58-.6-1.22-.91-1.91-.91-1.62,0-2.74,1.2-2.74,2.9v.3l-.68.04-1.17,1.41h6.47v-1.45Z"/>
    <path class="cls-3" d="M315.2,122.11c-.75,0-1.34.59-1.34,1.34s.6,1.37,1.34,1.37,1.37-.63,1.37-1.37-.62-1.34-1.37-1.34"/>
    <path class="cls-3" d="M318.39,122.11c-.74,0-1.34.61-1.34,1.34s.61,1.37,1.34,1.37,1.36-.63,1.36-1.37-.62-1.34-1.36-1.34"/>
    <path class="cls-3" d="M341.1,116.69c0,1.34-.63,1.99-1.91,1.99h-3.18s-.06,0-.09,0h-4.01v-.06c.34-.33.6-.73.79-1.19.19-.46.29-.97.29-1.54,0-.49-.08-.98-.23-1.47-.15-.48-.37-.92-.64-1.3-.27-.38-.59-.7-.95-.93-.36-.24-.76-.36-1.18-.36-.15,0-.36.05-.61.15-.25.1-.54.27-.86.49-.32.23-.64.52-.99.86-.34.35-.68.78-1,1.29-.32.5-.63,1.09-.91,1.76-.28.67-.51,1.43-.7,2.29h-5.12c-1.3,0-1.93-.63-1.93-1.93v-5.73l-2.2.65v5.06c0,1.34-.64,1.99-1.95,1.99h-5.99c-1.3,0-1.93-.63-1.93-1.93v-5.77l-2.2.65v5.06c0,1.34-.64,1.99-1.95,1.99h-7.28c-1.28,0-1.9-.65-1.9-1.99v-5.67h-4.34c-2.71,0-4.08,1.59-4.08,4.74s1.37,4.87,4.08,4.87c1.5,0,2.51-.42,3.05-1.31.5.87,1.54,1.31,3.09,1.31h7.51c1.23,0,2.22-.35,2.95-1.04.72.69,1.69,1.04,2.87,1.04h6.25c1.23,0,2.22-.35,2.94-1.04.73.69,1.69,1.04,2.88,1.04h1.37s3.65,0,3.65,0c0,.87.08,1.64.23,2.31.15.66.35,1.24.61,1.73.25.49.55.89.88,1.22.33.33.67.59,1.03.79.35.19.7.33,1.06.41.35.08.67.12.98.12.38,0,.77-.08,1.16-.25.39-.17.75-.41,1.08-.72.33-.31.59-.71.8-1.17.21-.47.31-1,.31-1.6,0-.65-.11-1.19-.34-1.66-.22-.45-.49-.83-.82-1.13v-.06h4s3.61,0,3.61,0c1.21,0,2.2-.36,2.93-1.07.73-.73,1.1-1.64,1.1-2.73v-9.84l-2.22.65v9ZM290.25,115.79c0,.97-.14,1.71-.4,2.16-.27.51-.81.76-1.59.76s-1.3-.25-1.59-.77c-.26-.44-.4-1.19-.4-2.16s.14-1.71.4-2.14c.29-.49.82-.75,1.59-.75h2v2.88ZM330.93,124.06c-.07.24-.17.46-.3.64-.12.19-.28.33-.45.44-.18.11-.37.17-.57.17-.33,0-.67-.08-1.04-.25-.36-.17-.69-.44-1-.81-.3-.37-.56-.85-.76-1.44-.2-.59-.3-1.31-.3-2.14h2.08c.38,0,.71.07,1.01.22.3.15.56.35.76.6.21.25.37.53.49.85.12.32.17.65.17.99,0,.26-.04.51-.11.75M331.05,117.25c-.12.29-.3.53-.52.74-.22.21-.49.37-.81.49-.31.12-.66.19-1.03.19h-1.87c.04-.42.12-.83.25-1.23.13-.4.27-.78.44-1.13.17-.35.35-.68.55-.98.2-.3.4-.56.6-.78.2-.22.38-.38.55-.5.17-.12.31-.19.42-.19.19,0,.38.07.57.21.19.13.36.32.52.55.15.23.28.48.38.78.09.29.14.6.14.91,0,.34-.06.65-.18.94"/>
    <polygon class="cls-3" points="344.85 107.69 344.85 120.67 347.07 120.67 347.07 106.99 344.85 107.69"/>
  </g>
  <g>
    <path class="cls-3" d="M236.41,54.54l-3.28,6.01c-4.33-1.75-6.1-1.92-11.42-2.08v14.53h13.3l-3.06,5.9c-2.78-1.21-5.25-1.92-10.24-1.86v9.17c0,3.28.32,6.12,1.24,9.28h-8.58c1.29-5.13,1.34-9.77,1.34-11.47v-19.21c0-5.84-.69-8.08-1.34-10.27h22.03Z"/>
    <path class="cls-3" d="M267.33,84.3c2.89,6.38,4.77,9,6.27,11.08l-9.53.11c0-1.8-.22-3.88-1.66-7.21l-2.36-5.52h-14.1l-2.04,4.44c-.69,1.52-2.24,5.07-2.03,8.29h-9.82c1.34-1.59,2.52-3.06,5.85-9.78l15.49-31.33h.31l13.62,29.92ZM248.19,77.96h9.75l-4.66-10.97-5.09,10.97Z"/>
    <path class="cls-3" d="M282.73,54.54c.75,1.86,1.13,2.84,4.28,6.93l18.17,23.49v-18.61c0-7.54-.49-9.45-1.12-11.8h7.71c-.53,2.19-1.01,4.37-1.01,8.74v22c0,6.33.76,8.51,1.34,10.21h-7.45c-.71-2.18-2.04-4.1-3.42-5.9l-17.11-22.27v16.16c0,3.61.38,8.69,1.61,12.01h-8.52c1.28-4.26,1.33-10.05,1.33-10.81v-24.62c-1.92-2.51-3-3.55-5.41-5.52h9.59Z"/>
    <path class="cls-3" d="M319.31,63.11c0-4.79-.64-7.04-1.07-8.45l7.82-.11c10.34-.16,15.22,6.17,15.22,11.69,0,6.66-5.79,9.94-7.6,10.91,3.59,6.45,8.52,12.51,13.29,18.34h-5.51c-5.42-4.76-7.88-7.7-16.19-18.94v10.1c0,3.16.05,4.47,1.12,8.84h-8.14c.85-4.05,1.07-7.05,1.07-10.59v-21.79ZM325.27,75.94c3.8-1.08,9.91-2.85,9.91-9.11,0-3.06-1.87-7.97-9.91-8.79v17.91Z"/>
  </g>
  <path class="cls-2" d="M415.54,100c0,3.41-2.77,6.18-6.18,6.18s-6.17-2.77-6.17-6.18,2.77-6.18,6.17-6.18,6.18,2.77,6.18,6.18"/>
  <path class="cls-3" d="M415.91,62.13c.72-.56,1.44-1.1,2.15-1.61,6.97-4.91,11.55-5.65,13.66-5.65,1.22,0,2.25.24,3.06.7,1.65.94,2.89,3.14,3.62,6.16l.36-.02c.77-.04,1.52-.06,2.23-.06,1.21,0,2.35.06,3.44.16-.97-5.29-3.19-9.27-6.75-11.31-1.72-.99-3.73-1.49-5.97-1.49-5.75,0-12.93,3.27-20.32,9.24l4.52,3.86Z"/>
  <path class="cls-3" d="M403.01,137.7c-.79.62-1.58,1.22-2.37,1.78-6.98,4.91-11.55,5.64-13.66,5.64-1.22,0-2.25-.23-3.06-.7-1.67-.95-2.91-3.16-3.63-6.22,0,0-1.67.05-2.27.05-1.27,0-2.52-.06-3.73-.16,1,5.46,3.3,9.43,6.73,11.4,1.73.98,3.73,1.48,5.97,1.48,5.75,0,12.92-3.27,20.31-9.24-1.38-1.21-2.77-2.51-4.12-3.86l-.18-.18Z"/>
  <path class="cls-3" d="M438.75,138.29h-.36c-.73,3.01-1.97,5.2-3.62,6.15-.81.47-1.84.7-3.06.7-2.11,0-6.68-.74-13.66-5.65-.71-.51-1.43-1.05-2.15-1.61l-.38.31-4.14,3.55c7.39,5.97,14.56,9.24,20.31,9.24,2.24,0,4.25-.5,5.97-1.48,3.56-2.04,5.77-6.02,6.74-11.31-1.08.1-2.23.16-3.44.16-.71,0-1.46-.02-2.23-.05"/>
  <path class="cls-3" d="M379.91,61.78h.4c.72-3.04,1.96-5.26,3.63-6.21.81-.46,1.84-.7,3.06-.7,2.1,0,6.68.74,13.66,5.64.79.56,1.58,1.16,2.37,1.79l.18-.18c1.34-1.35,2.73-2.65,4.12-3.86-7.39-5.96-14.56-9.24-20.32-9.24-2.23,0-4.24.5-5.96,1.49-3.43,1.96-5.72,5.94-6.73,11.4,1.21-.1,2.45-.16,3.73-.16.6,0,1.23.01,1.87.04"/>
  <path class="cls-3" d="M369.35,96.07c1.17-1.21,2.29-2.43,2.29-2.43-.61-.78-1.21-1.57-1.76-2.35-4.86-6.91-6.81-13.47-4.95-16.71.96-1.67,3.17-2.93,6.25-3.65l-.03-.54c-.01-.44-.02-1.94-.02-1.94,0-.31,0-1.93.13-3.5-5.47,1-9.43,3.31-11.39,6.73-3.71,6.47-.36,16.24,7.78,26.28,0,0,.53-.69,1.7-1.89Z"/>
  <path class="cls-3" d="M447.26,106.17l-.19.19c.61.79,1.21,1.57,1.77,2.36,4.86,6.9,6.81,13.46,4.94,16.71-.94,1.67-3.14,2.92-6.2,3.64l.02.42c.01.65.01,1.34,0,2.13v.17l-.02.2v.1c-.02.46-.03.92-.05,1.37v.22s-.02.24-.02.24c-.02.39-.06.76-.08,1.14,5.48-.99,9.45-3.3,11.42-6.74,3.7-6.47.37-16.22-7.76-26.25-1.19,1.37-2.47,2.75-3.83,4.1"/>
  <path class="cls-2" d="M440.78,91.45c.5-1.5.98-2.99,1.38-4.47.93-3.39,2.48-9.92,2.76-16.52-1.33-.16-2.72-.25-4.24-.25-.51,0-1.04.01-1.57.03-.03.74-.07,1.48-.13,2.25-.38,4.63-1.45,9.71-3.07,14.97-2.6-2.01-5.32-3.95-8.17-5.79-1.9-1.24-3.84-2.44-5.83-3.58-1.75-1-3.51-1.95-5.28-2.85-.19.07-.37.14-.56.21-2.23.84-4.47,1.74-6.71,2.76,3.25,1.48,6.48,3.13,9.65,4.94,1.53.88,3.02,1.78,4.48,2.71,3.69,2.34,7.19,4.82,10.42,7.42h0c.29.23.56.47.84.7h0c.99,2,1.92,4,2.78,6.01.38-.88.73-1.77,1.09-2.65.95.88,1.87,1.76,2.76,2.65,1.4-1.41,2.75-2.83,3.98-4.27-1.45-1.45-2.97-2.88-4.58-4.29Z"/>
  <path class="cls-2" d="M399.71,116.85c-1.54-.88-3.04-1.8-4.52-2.73-3.69-2.33-7.18-4.82-10.4-7.42-.29-.23-.56-.47-.85-.71-.99-1.99-1.93-4.02-2.76-6-.25.57-.61,1.44-1.09,2.64-.96-.87-1.88-1.76-2.76-2.65-1.4,1.41-2.75,2.82-3.96,4.25l3.28,3.19c.41.37.86.73,1.28,1.09-.58,1.74-1.11,3.46-1.58,5.16-.97,3.65-2.3,9.66-2.56,15.85,1.32.16,2.73.24,4.23.24.51,0,1.04-.01,1.57-.03.02-.73.07-1.48.13-2.24.38-4.64,1.46-9.72,3.08-14.99,2.61,2.02,5.33,3.98,8.19,5.83,1.88,1.22,3.82,2.41,5.82,3.55,1.75,1,3.5,1.94,5.26,2.84.18-.06.36-.13.54-.19,2.24-.85,4.48-1.75,6.73-2.77-3.24-1.47-6.47-3.12-9.64-4.94"/>
  <path class="cls-3" d="M371.64,106.36l-2.29-2.43c-.16-.18-.6-.66-.66-.73-.24-.27-.75-.83-.75-.83l-.3-.34c-8.14,10.04-11.49,19.81-7.78,26.28,1.96,3.43,5.92,5.73,11.39,6.74-.02-.24-.12-1.61-.13-2.9-.02-1.29.05-3.08.05-3.08-3.08-.73-5.29-1.99-6.25-3.65-1.86-3.25.08-9.81,4.94-16.71.56-.79,1.16-1.57,1.77-2.35"/>
  <path class="cls-3" d="M447.08,93.64l.19.19c1.36,1.36,2.64,2.73,3.83,4.1,8.13-10.02,11.47-19.78,7.77-26.25-1.97-3.44-5.93-5.75-11.42-6.74.02.38.1,1.6.1,1.6.03.45.11,3.13.07,3.98v.42c3.05.73,5.24,1.98,6.19,3.64,1.86,3.25-.08,9.81-4.94,16.71-.56.78-1.16,1.57-1.77,2.35"/>
  <path class="cls-3" d="M392.49,109.65c-1.81-3.17-3.47-6.41-4.94-9.65-1.02-2.24-1.92-4.48-2.76-6.71-.07-.19-.14-.37-.2-.55.91-1.77,1.84-3.53,2.85-5.28,1.13-1.99,2.33-3.92,3.55-5.83-2.86,1.85-5.58,3.81-8.19,5.83-1.62-5.27-2.69-10.35-3.08-14.98-.06-.76-.1-1.51-.13-2.24-.53-.02-1.06-.03-1.57-.03-1.51,0-2.91.09-4.23.25.26,6.19,1.59,12.2,2.56,15.85.47,1.7,1,3.42,1.58,5.16-.42.37-.87.72-1.28,1.08l-3.28,3.2c1.21,1.43,2.56,2.84,3.96,4.25.88-.89,1.8-1.77,2.76-2.65.35.88.71,1.77,1.09,2.65.32.75,1.18,2.82,2.76,6,.28.23.55.48.84.71,3.22,2.6,6.72,5.08,10.41,7.42-.92-1.46-1.83-2.95-2.7-4.48"/>
  <path class="cls-3" d="M438.89,64.45c-.67.03-1.34.03-2.03.08-8.2.71-16.28,3.18-17.18,3.46l-1.8.6s-3.18-3.53-4.24-4.59c-1.45,1.23-2.88,2.58-4.29,3.98.89.89,1.77,1.81,2.65,2.76-.88.35-1.77.72-2.65,1.1-2.02.87-4.03,1.8-6.04,2.8-.23.27-.46.53-.68.81-2.59,3.22-5.08,6.72-7.42,10.44,1.48-.93,2.98-1.85,4.52-2.73,3.17-1.81,6.4-3.47,9.63-4.94,2.24-1.02,4.49-1.92,6.71-2.76.19-.07.37-.14.57-.21,1.77.9,3.53,1.85,5.28,2.85,1.99,1.14,3.93,2.34,5.83,3.58-1.86-2.88-3.81-5.6-5.85-8.22,5.26-1.62,10.35-2.7,14.99-3.08.76-.07,1.5-.1,2.23-.13.08-2.08,0-4.02-.22-5.8"/>
  <path class="cls-3" d="M440.78,108.55c1.61-1.4,3.13-2.84,4.58-4.28-1.22-1.44-2.57-2.86-3.98-4.27-.89.89-1.81,1.77-2.76,2.65-.35-.88-.71-1.77-1.09-2.65-.86-2.01-1.79-4.02-2.78-6.02-.27-.23-.54-.46-.82-.69,0,0-.01-.01-.02-.02-3.22-2.6-6.73-5.09-10.42-7.42.93,1.47,1.85,2.97,2.72,4.5,1.82,3.18,3.46,6.41,4.94,9.64,1.02,2.24,1.92,4.48,2.77,6.72.07.18.13.36.2.54-.91,1.77-1.85,3.54-2.84,5.28-1.14,1.98-2.32,3.91-3.53,5.8,2.85-1.85,5.58-3.78,8.17-5.79,1.61,5.26,2.69,10.34,3.07,14.97.07.77.11,1.51.13,2.25.53.02,1.06.03,1.57.03,1.52,0,2.91-.08,4.24-.25-.21-7.57-2.11-14.31-2.76-16.52-.43-1.47-.88-2.97-1.38-4.47"/>
  <path class="cls-2" d="M439.1,129.76c-.73-.03-1.47-.07-2.23-.13-4.64-.38-9.73-1.46-14.99-3.08,2.03-2.61,3.99-5.34,5.85-8.21,1.21-1.89,2.39-3.82,3.53-5.8.99-1.74,1.94-3.5,2.84-5.28-.07-.18-.13-.36-.2-.54-.84-2.23-1.74-4.47-2.77-6.72-1.47,3.24-3.12,6.47-4.94,9.64-.87,1.53-1.79,3.02-2.72,4.5-2.34,3.69-4.82,7.19-7.42,10.42-.23.28-.46.55-.69.83-2.01,1-4.02,1.93-6.04,2.79.88.38,1.77.75,2.65,1.1-.87.95-1.75,1.87-2.65,2.76,1.42,1.41,2.85,2.76,4.29,3.98,1.06-1.06,2.11-2.15,3.15-3.3.37-.41.73-.87,1.1-1.29.55.18,1.1.37,1.64.54l.16.05c.9.28,8.98,2.74,17.18,3.46.69.05,1.36.05,2.03.08.22-1.77.29-3.72.22-5.79"/>
  <path class="cls-3" d="M419,116.85c-3.17,1.82-6.41,3.47-9.66,4.95-2.25,1.02-4.49,1.93-6.73,2.77-.18.06-.36.13-.54.19-1.1-.56-2.87-1.48-5.26-2.84-1.97-1.12-3.93-2.33-5.82-3.55,1.85,2.85,3.79,5.59,5.8,8.19-5.25,1.61-10.33,2.68-14.96,3.07-.76.07-1.51.1-2.24.13-.08,2.09,0,4.05.22,5.83.13,0,.48-.02.48-.02,6.25-.29,13.25-1.72,20.5-4.13,1.4,1.61,2.83,3.14,4.28,4.59,1.43-1.23,2.86-2.58,4.27-3.99-.89-.89-1.78-1.81-2.66-2.76.88-.35,1.77-.72,2.65-1.1,2.01-.86,4.03-1.79,6.03-2.79.23-.28.46-.55.69-.83,2.6-3.22,5.09-6.72,7.43-10.42-1.47.93-2.96,1.84-4.49,2.71"/>
  <path class="cls-2" d="M409.34,67.97c-1.41-1.41-2.83-2.76-4.27-3.99-1.45,1.45-2.88,2.98-4.28,4.59-7.25-2.41-14.25-3.85-20.5-4.14h-.09c-.13,0-.26,0-.39-.01-.22,1.77-.3,3.74-.22,5.83.73.03,1.48.07,2.24.13,4.63.38,9.7,1.46,14.96,3.07-2.01,2.6-3.95,5.34-5.8,8.19-1.69,2.62-2.84,4.58-3.55,5.83-.99,1.74-1.94,3.51-2.85,5.29.07.18.14.36.21.54.84,2.23,1.74,4.46,2.76,6.71,1.47-3.24,3.12-6.47,4.94-9.64.88-1.53,1.79-3.02,2.7-4.48,2.34-3.72,4.83-7.22,7.42-10.44.22-.28.46-.54.68-.81,2.01-1,4.02-1.93,6.04-2.8-.89-.38-1.77-.75-2.65-1.1.88-.95,1.76-1.87,2.66-2.76"/>
  <path class="cls-1" d="M415.54,100c0,3.41-2.77,6.18-6.18,6.18s-6.17-2.77-6.17-6.18,2.77-6.18,6.17-6.18,6.18,2.77,6.18,6.18"/>
  <path class="cls-1" d="M373.93,64.57c-.08.81-.17,1.94-.18,3.02,0,.7.03,2.62.04,2.87,1.57-.18,2.73-.24,4.23-.25.51,0,1.04.01,1.57.03-.08-2.09,0-4.05.22-5.83-.53-.02-1.13-.02-1.67-.03,0,0-2.51,0-4.21.19ZM405.07,136.02c.14.14.27.28.41.42,1.43,1.39,2.83,2.66,3.87,3.58,0,0,.71-.63,1.33-1.17.99-.9,1.97-1.85,2.95-2.83-1.45-1.23-2.88-2.58-4.29-3.98-1.42,1.41-2.83,2.76-4.27,3.99ZM379.6,129.75c-.52.02-1.06.03-1.57.03-1.5,0-2.91-.08-4.23-.24-.01.24-.02.47-.02.71-.06,1.71-.05,3.45.16,5.18,1.76.17,4.27.19,4.27.19.54,0,1.08-.02,1.61-.04-.22-1.77-.3-3.74-.22-5.83ZM373.37,95.75l-1.36,1.32c-.98,1.05-1.9,2.08-2.64,2.93.74.85,1.66,1.88,2.64,2.93l1.36,1.32c1.22-1.43,2.56-2.84,3.96-4.25-1.4-1.4-2.75-2.82-3.96-4.25ZM439.1,70.24c.53-.02,1.06-.03,1.57-.03,1.52,0,2.91.08,4.24.25,0-.19.02-.38.03-.57.02-1.81-.01-3.59-.18-5.33-1.29-.12-2.65-.19-4.04-.19-.59,0-1.23.05-1.85.07.22,1.77.3,3.72.22,5.79ZM409.35,59.99c-1.03.91-2.44,2.19-3.87,3.58-.14.13-.27.28-.41.42,1.43,1.23,2.86,2.57,4.27,3.99,1.41-1.41,2.85-2.75,4.29-3.98-.98-.98-1.96-1.92-2.95-2.83-.62-.55-1.33-1.18-1.33-1.18ZM445.35,95.73c-1.23,1.43-2.57,2.86-3.98,4.27,1.4,1.41,2.75,2.83,3.98,4.27,1.42-1.41,2.78-2.83,4.03-4.27-1.25-1.43-2.62-2.86-4.03-4.27ZM440.68,129.79c-.51,0-1.04-.01-1.57-.03.08,2.08,0,4.03-.22,5.79.61.02,1.25.07,1.84.07,1.39,0,2.75-.06,4.04-.19.16-1.73.2-3.51.18-5.33,0-.19-.02-.38-.03-.57-1.33.17-2.72.25-4.24.25Z"/>
</svg>