<?xml version="1.0" encoding="UTF-8"?>
<svg id="Layer_1" data-name="Layer 1" xmlns="http://www.w3.org/2000/svg" viewBox="0 0 200 200">
  <defs>
    <style>
      .cls-1 {
        fill: #db0032;
      }

      .cls-1, .cls-2, .cls-3 {
        stroke-width: 0px;
      }

      .cls-2 {
        fill: #e3e3e4;
      }

      .cls-3 {
        fill: #1d252c;
      }
    </style>
  </defs>
  <g>
    <rect class="cls-3" x="50.14" y="15.15" width="99.72" height="169.7" rx="27.64" ry="27.64"/>
    <path class="cls-1" d="M114.92,37.37h-30.91c-4.37,0-7.93-3.56-7.93-7.93v-3.21h2.45v3.21c0,3.02,2.46,5.48,5.48,5.48h30.91c3.02,0,5.48-2.46,5.48-5.48v-3.21h2.45v3.21c0,4.38-3.56,7.93-7.93,7.93Z"/>
    <circle class="cls-1" cx="101.44" cy="165.9" r="4.08"/>
    <path class="cls-1" d="M122.22,185.51h-44.45c-15.6,0-28.3-12.69-28.3-28.3V42.79c0-15.6,12.69-28.3,28.3-28.3h44.45c15.6,0,28.29,12.69,28.29,28.3v114.43c0,15.6-12.69,28.3-28.29,28.3ZM77.78,15.81c-14.88,0-26.98,12.1-26.98,26.98v114.43c0,14.88,12.1,26.98,26.98,26.98h44.45c14.88,0,26.98-12.1,26.98-26.98V42.79c0-14.88-12.1-26.98-26.98-26.98h-44.45Z"/>
  </g>
  <g>
    <path class="cls-2" d="M127.55,110.62v.14c-.03.05-.06.11-.07.16-.58,1.84-1.34,3.6-2.2,5.33-1.15,2.32-2.6,4.45-4.14,6.53-1,1.35-2.06,2.64-3.33,3.75-1,.88-2.1,1.6-3.37,2.01-1.81.58-3.62.48-5.4-.09-.98-.31-1.94-.73-2.89-1.14-2.48-1.08-5.05-1.36-7.71-.92-1.33.22-2.58.71-3.81,1.23-1.17.5-2.33,1-3.6,1.23-1.56.28-3.09.2-4.55-.47-1.22-.56-2.27-1.36-3.21-2.32-2.25-2.3-4.17-4.87-5.82-7.62-3.64-6.06-5.67-12.64-6.02-19.71-.13-2.69.09-5.34.76-7.95.95-3.7,2.7-6.95,5.54-9.55,2.96-2.71,6.46-4.18,10.48-4.34,1.79-.07,3.5.3,5.17.91,1.38.51,2.75,1.06,4.12,1.57.69.26,1.41.45,2.16.5.8.05,1.57-.13,2.31-.4,1.4-.51,2.8-1.06,4.2-1.58,1.44-.53,2.92-.94,4.46-1.1,1.74-.18,3.47-.07,5.19.28,4.08.83,7.37,2.91,9.81,6.29.04.06.08.13.13.2-.13.09-.25.17-.37.25-1.97,1.32-3.61,2.97-4.87,4.98-1.37,2.2-2.09,4.59-2.2,7.18-.11,2.43.28,4.77,1.29,6.99,1.26,2.76,3.24,4.9,5.78,6.52.69.44,1.44.77,2.16,1.15Z"/>
    <path class="cls-2" d="M113.13,60.03c.18.7.18,1.41.12,2.11-.32,4.07-2.01,7.49-4.97,10.27-1.88,1.76-4.1,2.93-6.65,3.41-.68.13-1.38.16-2.07.08-.2-.02-.26-.11-.28-.29-.19-1.26-.08-2.52.26-3.73,1.67-5.99,5.53-9.83,11.5-11.54.51-.14,1.04-.18,1.56-.27.05,0,.1-.03.16-.04.12,0,.25,0,.37,0Z"/>
  </g>
</svg>