<?xml version="1.0" encoding="UTF-8"?>
<svg id="Layer_1" data-name="Layer 1" xmlns="http://www.w3.org/2000/svg" viewBox="0 0 200 200">
  <defs>
    <style>
      .cls-1 {
        fill: #db0032;
      }

      .cls-1, .cls-2, .cls-3 {
        stroke-width: 0px;
      }

      .cls-2 {
        fill: #e3e3e4;
      }

      .cls-3 {
        fill: #1d252c;
      }
    </style>
  </defs>
  <circle class="cls-3" cx="100" cy="100" r="89"/>
  <g>
    <path class="cls-2" d="M50.28,99.78l20.66-20.66c2.57-2.57,2.57-6.75,0-9.32-2.57-2.57-6.75-2.57-9.32,0l-7.26,7.26-18.06,18.06c-.61.61-1.07,1.31-1.39,2.06-.71,1.66-.71,3.54,0,5.19.32.75.78,1.45,1.39,2.06l18.7,18.7,7.26,7.26c1.29,1.29,2.97,1.93,4.66,1.93s3.37-.64,4.66-1.93c2.57-2.57,2.57-6.75,0-9.32l-6.03-6.03-9.32-9.32-5.94-5.94Z"/>
    <path class="cls-2" d="M137.75,69.8c-2.57-2.57-6.75-2.57-9.32,0-1.96,1.96-2.42,4.85-1.39,7.26.32.75.78,1.45,1.39,2.06l18.7,18.7,2.6,2.6-2.6,2.6-18.06,18.06c-.61.61-1.07,1.32-1.39,2.06-1.03,2.4-.57,5.29,1.39,7.26,1.29,1.29,2.97,1.93,4.66,1.93s3.37-.64,4.66-1.93l25.32-25.32c2.57-2.57,2.57-6.75,0-9.32l-25.95-25.95Z"/>
    <path class="cls-1" d="M120.74,79.06c-2.57-2.57-6.75-2.57-9.32,0l-2.4,2.4-4.85,4.85-22.65,22.65c-.61.61-1.07,1.32-1.39,2.06-1.03,2.4-.57,5.29,1.39,7.26,1.29,1.29,2.97,1.93,4.66,1.93s3.37-.64,4.66-1.93l27.5-27.51,2.4-2.4c2.57-2.57,2.57-6.75,0-9.32Z"/>
  </g>
</svg>