<?xml version="1.0" encoding="UTF-8"?>
<svg id="Layer_1" data-name="Layer 1" xmlns="http://www.w3.org/2000/svg" viewBox="0 0 200 200">
  <defs>
    <style>
      .cls-1 {
        fill: #1d252c;
      }

      .cls-2 {
        fill: #db0032;
      }
    </style>
  </defs>
  <path class="cls-1" d="M159.48,77.63c-2.93-13.42-14.88-23.47-29.18-23.47-3.49,0-6.85.6-9.97,1.7-6.65-15.11-20.72-25.53-37.01-25.53-20.49,0-37.47,16.48-40.58,38.04-16.3,1.85-28.97,15.68-28.97,32.47,0,18.05,14.63,32.68,32.68,32.68h20.08v-6.08c0-4.06,3.13-7.4,7.09-7.75v-16.38c0-14.72,11.84-26.7,26.39-26.7.42,0,.83.01,1.25.03,14.09.66,25.12,12.24,25.12,26.35v16.71c3.97.35,7.09,3.69,7.09,7.75v6.08h24.79c15.44,0,27.97-12.52,27.97-27.96s-11.87-27.3-26.75-27.93Z"/>
  <g>
    <path class="cls-2" d="M125.98,123.65h-51.96c-2.29,0-4.15,1.86-4.15,4.15v37.71c0,2.29,1.86,4.15,4.15,4.15h51.96c2.29,0,4.15-1.86,4.15-4.15v-37.71c0-2.29-1.86-4.15-4.15-4.15ZM104.95,157.88c.07.49-.31.93-.81.93h-8.29c-.5,0-.88-.44-.81-.93.58-4.28,1.17-8.57,1.75-12.85-1.53-1.03-2.55-2.79-2.55-4.78,0-3.17,2.57-5.75,5.75-5.75s5.75,2.58,5.75,5.75c0,1.99-1.01,3.75-2.55,4.78.58,4.28,1.17,8.56,1.75,12.85Z"/>
    <path class="cls-2" d="M122.33,122.52h-5.72c-.35,0-.63-.28-.63-.63v-18.55c0-8.76-6.93-16.1-15.68-16.26-8.94-.16-16.27,7.07-16.27,15.97v18.84c0,.35-.28.63-.63.63h-5.72c-.35,0-.63-.28-.63-.63v-18.51c0-13.16,10.91-23.88,24.05-23.25,12.15.58,21.85,10.64,21.85,22.93v18.84c0,.35-.28.63-.63.63Z"/>
  </g>
</svg>