<?xml version="1.0" encoding="UTF-8"?>
<svg id="Layer_1" data-name="Layer 1" xmlns="http://www.w3.org/2000/svg" viewBox="0 0 500 300">
  <defs>
    <style>
      .cls-1 {
        fill: #828487;
      }

      .cls-1, .cls-2, .cls-3, .cls-4 {
        stroke-width: 0px;
      }

      .cls-2 {
        fill: #d47320;
      }

      .cls-3 {
        fill: #006f73;
      }

      .cls-4 {
        fill: #ce6f21;
      }
    </style>
  </defs>
  <g>
    <circle class="cls-3" cx="290.29" cy="67.94" r="9.64"/>
    <path class="cls-3" d="m126.49,77.57v99.29c0,3.64-2.95,6.59-6.59,6.59h-18.54c-3.28,0-5.98-2.4-6.48-5.54,0-.11.02-.21.02-.32v-100.03h-21.47v100.03c0,.11.01.21.02.32-.51,3.14-3.2,5.54-6.48,5.54h-18.54c-3.64,0-6.59-2.95-6.59-6.59V40.61h-21.35v136.99c0,14.82,12.01,26.84,26.84,26.84h20.74c6.05,0,11.61-2.03,16.1-5.4,4.49,3.38,10.05,5.4,16.1,5.4h20.74c14.82,0,26.84-12.01,26.84-26.84v-100.03h-21.35Z"/>
    <path class="cls-3" d="m457.8,77.57v95.35c0,5.28-4.07,9.88-9.34,10.04-5.46.16-9.93-4.21-9.93-9.63v-95.76h-21.71v95.35c0,5.28-4.07,9.88-9.34,10.04-5.46.16-9.93-4.21-9.93-9.63v-95.76h-21.71v100.34c0,3.61-2.94,6.56-6.55,6.56h-33.11c10.1-11.27,16.26-26.16,16.26-42.49,0-1.64-.08-3.27-.2-4.88h-21.05c.03,1.66.02,3.23.02,4.88,0,23.44-19.01,42.45-42.45,42.45s-42.45-19.01-42.45-42.45c0-1.65,0-3.32.01-4.88h-21.05c-.12,1.61-.2,3.24-.2,4.88,0,16.33,6.15,31.22,16.26,42.49h-32.37c-3.27,0-5.92-2.65-5.92-5.92v-100.98h-21.71v127.56c.24,14.51-7.6,26.4-13.09,29.8l17.24,14.64c11.22-6.51,17.57-24.97,17.57-39.52v-5.75c.6.08,1.21.14,1.83.14h73.43c4.85,0,9.07-2.63,11.34-6.54,2.28,3.91,6.5,6.54,11.34,6.54h73.43c4.69,0,8.8-2.47,11.12-6.18,4.54,3.7,10.33,5.93,16.65,5.93h10c5.8,0,11.14-1.89,15.49-5.07,4.35,3.17,9.69,5.07,15.49,5.07h10c14.55,0,26.35-11.8,26.35-26.35v-100.27h-21.71Z"/>
    <circle class="cls-4" cx="84.65" cy="58.3" r="10.25"/>
    <circle class="cls-4" cx="126.76" cy="58.3" r="10.25"/>
    <circle class="cls-4" cx="147.26" cy="58.3" r="10.25"/>
    <path class="cls-4" d="m280.47,79.13c-19.86,7.77-33.93,27.09-33.93,49.7,0,.73.04,1.45.07,2.17h102.79c-1.12-31.8-27.23-57.24-59.3-57.24s-58.18,25.44-59.3,57.24h6.87c.22-25.66,18.53-47.01,42.81-51.87Z"/>
    <path class="cls-1" d="m358.72,133.35h-137.35c-.76,0-1.37-.61-1.37-1.37s.61-1.37,1.37-1.37h137.35c.76,0,1.37.61,1.37,1.37s-.61,1.37-1.37,1.37Z"/>
  </g>
  <g>
    <path class="cls-2" d="m247.42,241.04c2.23,1.43,3.69,3.19,4.38,5.28.85,2.6.54,5.05-.92,7.34-.95,1.43-2.26,2.61-3.93,3.56-1.62.9-3.33,1.44-5.12,1.61-.42.03-.86.05-1.32.05-.83,0-1.7-.07-2.61-.21-2.04-.3-3.91-.89-5.6-1.77-2.04-1.04-3.56-2.36-4.57-3.98-.85-1.37-1.2-2.81-1.05-4.3.05-.41.14-.81.26-1.21l2.35.74c-.07.25-.12.49-.13.74-.11.93.11,1.84.66,2.72,1.62,2.43,4.43,3.97,8.45,4.62,1.21.19,2.32.24,3.33.13,3.17-.39,5.57-1.74,7.2-4.06,1.05-1.6,1.28-3.33.66-5.2-.64-1.71-1.78-3.04-3.44-4.01-1.66-.97-3.44-1.76-5.32-2.37-.28-.09-.57-.18-.85-.29-1.46-.46-2.91-1.03-4.35-1.72-1.23-.62-2.35-1.45-3.35-2.49-1-1.05-1.74-2.24-2.22-3.59-.48-1.34-.51-2.79-.11-4.34.42-1.51,1.29-2.83,2.61-3.96,1.2-1,2.61-1.72,4.25-2.16,1.86-.47,3.86-.61,5.99-.39.88.09,1.84.29,2.89.62,1.05.33,2,.86,2.86,1.6,1.44,1.32,2,3,1.69,5.04l-2.45-.4c.19-1.16-.11-2.1-.9-2.82-1.05-.86-2.5-1.39-4.33-1.57-1.83-.18-3.54-.08-5.12.33-2.73.81-4.43,2.27-5.12,4.38-.37,1.64-.09,3.12.84,4.46.93,1.34,2.12,2.37,3.56,3.09,1.27.6,2.61,1.13,4.04,1.58h.03c.28.11.56.2.85.29,2.04.67,4.01,1.57,5.91,2.69Z"/>
    <path class="cls-2" d="m282.28,245.87v-24.15h2.45v24.15c0,2.39-.59,4.57-1.75,6.55-1.17,1.97-2.74,3.54-4.7,4.71-1.96,1.17-4.14,1.75-6.53,1.75s-4.57-.59-6.55-1.75c-1.97-1.17-3.54-2.74-4.71-4.71-1.17-1.97-1.75-4.15-1.75-6.55v-24.15h2.48v24.15c0,1.94.47,3.7,1.42,5.29.95,1.59,2.22,2.86,3.81,3.81,1.59.95,3.36,1.42,5.29,1.42s3.7-.47,5.29-1.42c1.59-.95,2.86-2.22,3.81-3.81.95-1.59,1.43-3.36,1.43-5.29Z"/>
    <path class="cls-2" d="m291.07,258.89v-37.16h22.96v2.48h-20.48v21.09h18.47v2.48h-18.47v11.11h-2.48Z"/>
    <path class="cls-2" d="m322.84,247.72v11.14h-2.48v-37.13h11.22c2.38,0,4.55.59,6.52,1.75,1.97,1.17,3.54,2.74,4.71,4.71s1.75,4.14,1.75,6.52c0,2.9-.84,5.48-2.52,7.72-1.68,2.24-3.86,3.8-6.53,4.68.07.07.15.13.24.18.77.63,1.41,1.35,1.9,2.15.49.8.93,1.62,1.32,2.47.26.51.52,1,.77,1.48.67,1.18,1.37,2.01,2.11,2.51.37.25.77.4,1.21.45.44.05.93.07,1.48.05h.66v2.45c-.21,0-.41,0-.61.03h-.61c-.58,0-1.17-.06-1.76-.17-.59-.11-1.18-.36-1.78-.75-1.05-.72-2-1.84-2.85-3.35-.3-.53-.58-1.06-.84-1.61-.35-.74-.73-1.44-1.12-2.08-.39-.65-.87-1.21-1.41-1.66-.72-.54-1.5-1.05-2.32-1.53h-9.05Zm0-23.51v21.03h8.73c1.94,0,3.7-.47,5.29-1.41,1.59-.94,2.86-2.21,3.8-3.81.94-1.6,1.41-3.37,1.41-5.31s-.47-3.68-1.41-5.28c-.94-1.6-2.21-2.87-3.8-3.81-1.59-.94-3.36-1.41-5.29-1.41h-8.73Z"/>
    <path class="cls-2" d="m374.49,224.16h-20.48v21.09h18.47v2.48h-18.47v8.68h20.4v2.48h-22.88v-37.21h22.96v2.48Z"/>
    <path class="cls-2" d="m380.82,224.21v-2.48h23.65v2.48h-10.58v34.68h-2.48v-34.68h-10.58Z"/>
    <path class="cls-2" d="m413.29,228.43v30.46h-2.48v-37.66l24.15,30.96v-30.46h2.48v37.66l-24.15-30.96Z"/>
    <path class="cls-2" d="m451.24,247.75l-4.78,11.14h-2.69l16.2-37.82,16.21,37.82h-2.69l-4.78-11.14h-17.47Zm16.41-2.48l-7.68-17.92-7.68,17.92h15.36Z"/>
  </g>
</svg>