<?xml version="1.0" encoding="utf-8"?>
<!-- Generator: Adobe Illustrator 28.0.0, SVG Export Plug-In . SVG Version: 6.00 Build 0)  -->
<svg version="1.1" id="Layer_1" xmlns="http://www.w3.org/2000/svg" xmlns:xlink="http://www.w3.org/1999/xlink" x="0px" y="0px"
	 viewBox="0 0 500 300" style="enable-background:new 0 0 500 300;" xml:space="preserve">
<style type="text/css">
	.st0{fill:#EC7620;}
	.st1{fill-rule:evenodd;clip-rule:evenodd;fill:#350600;}
	.st2{fill:#350600;}
	.st3{fill:#F88D2A;}
	.st4{fill:#FFC629;}
	.st5{fill:#42A7C6;}
	.st6{fill:#AD8B80;}
	.st7{fill:#404041;}
	.st8{fill:#E20613;}
	.st9{fill:#007A8A;}
	.st10{fill:#A0002D;}
	.st11{fill:#0380C3;}
	.st12{fill:#FFFCE7;}
	.st13{fill:#DAC094;}
	.st14{fill:#692525;}
	.st15{fill:#699043;}
	.st16{fill:#70715B;}
	.st17{fill:#C1E7F6;}
	.st18{clip-path:url(#SVGID_00000162325528481457495480000004424384327314499987_);fill:#C1E7F6;}
	.st19{clip-path:url(#SVGID_00000162325528481457495480000004424384327314499987_);fill:#7CD1EE;}
	.st20{fill:#7CD1EE;}
	.st21{fill:#92A1C6;}
	.st22{filter:url(#Adobe_OpacityMaskFilter);}
	
		.st23{clip-path:url(#SVGID_00000176024478741852394900000007458322700073571519_);fill:url(#SVGID_00000136375909857541476190000013226912120176265094_);}
	
		.st24{clip-path:url(#SVGID_00000176024478741852394900000007458322700073571519_);mask:url(#SVGID_00000000912967585711906460000002907547408073798275_);fill:url(#SVGID_00000158725135146290239380000005829733258871221166_);}
	.st25{clip-path:url(#SVGID_00000177463169556245367520000016588175531150637959_);fill:#604693;}
	.st26{fill:#00B2E3;}
	.st27{fill:#F5911E;}
	.st28{fill:#B12B26;}
	.st29{fill:#ED4036;}
	.st30{fill:#6D6E70;}
	.st31{fill:#121921;}
	.st32{fill:#0381C4;}
	.st33{fill:#A2732A;}
	.st34{fill:#513A16;}
	.st35{fill:#B99664;}
	.st36{fill:none;stroke:#B99664;stroke-width:1.2826;stroke-miterlimit:10;}
	.st37{fill:#8F9191;}
	.st38{fill:none;}
	.st39{fill:url(#SVGID_00000178167268937828713330000005334190774936563882_);}
	.st40{fill:url(#SVGID_00000085245768025230442570000005494809973759414974_);}
	.st41{fill:url(#SVGID_00000147201869753006419240000001918010671138928830_);}
	.st42{fill:#1A1A1A;}
	.st43{fill:url(#SVGID_00000090295671384541874100000014747987525882824321_);}
	.st44{fill:url(#SVGID_00000080916249334117981720000014534416474448971676_);}
	.st45{fill:url(#SVGID_00000025431251498249526320000010368040540862532766_);}
	.st46{fill:url(#SVGID_00000167358601726233431070000003990031658559476110_);}
	.st47{opacity:0.6;fill:url(#SVGID_00000173158820248109929240000013286824970300905149_);}
	.st48{fill:url(#SVGID_00000050637544628679473260000005152895559491306928_);}
	.st49{opacity:0.6;fill:url(#SVGID_00000025417196380098109590000004179970187746857373_);}
	.st50{fill:url(#SVGID_00000129172339479372220880000009984969236105821069_);}
	.st51{opacity:0.6;fill:url(#SVGID_00000100374783993390202410000011358943212646472326_);}
	.st52{fill:url(#SVGID_00000023965455127206415020000005681640303488596157_);}
	.st53{opacity:0.6;fill:url(#SVGID_00000109019599506255775470000017485217358661905812_);}
	.st54{fill:url(#SVGID_00000016039750305529641220000007195013198609861560_);}
	.st55{fill:url(#SVGID_00000106130982682130787190000005800439155129214907_);}
	.st56{opacity:0.6;fill:url(#SVGID_00000083807534562235718390000007920091404986384257_);}
	.st57{fill:url(#SVGID_00000112614527833778166200000003346284612267833021_);}
	.st58{fill:url(#SVGID_00000065759928805854228360000009608326639556657843_);}
	.st59{opacity:0.6;fill:url(#SVGID_00000063627774432978248230000016737109660917567366_);}
	.st60{fill:#AB774D;}
</style>
<g>
	<g>
		<path class="st37" d="M120,175.9h7.8c4.7,0,7.8,2.5,7.8,6.6v0.1c0,4.5-3.7,6.8-8.1,6.8h-5v7.3H120V175.9z M127.4,187.2
			c3.4,0,5.7-1.8,5.7-4.6v-0.1c0-3-2.2-4.5-5.6-4.5h-5.2v9.1H127.4z"/>
		<path class="st37" d="M143.3,175.9h8.9c2.5,0,4.6,0.8,5.9,2.1c1,1,1.6,2.5,1.6,4.1v0.1c0,3.4-2.4,5.5-5.6,6l6.4,8.5h-2.9l-6-8.1
			h-5.9v8.1h-2.3V175.9z M152,186.5c3.1,0,5.3-1.6,5.3-4.3v-0.1c0-2.5-2-4.1-5.3-4.1h-6.4v8.4H152z"/>
		<path class="st37" d="M167.4,186.3L167.4,186.3c0-5.8,4.3-10.8,10.6-10.8c6.3,0,10.5,4.9,10.5,10.7v0.1c0,5.7-4.3,10.7-10.6,10.7
			C171.6,197,167.4,192.1,167.4,186.3z M186.1,186.3L186.1,186.3c0-4.8-3.4-8.6-8.2-8.6s-8.1,3.8-8.1,8.5v0.1c0,4.7,3.4,8.6,8.2,8.6
			C182.7,194.8,186.1,191,186.1,186.3z"/>
		<path class="st37" d="M197,175.9h7.2c6.5,0,11,4.5,11,10.3v0.1c0,5.8-4.5,10.4-11,10.4H197V175.9z M199.4,178.1v16.4h4.9
			c5.2,0,8.6-3.6,8.6-8.1v-0.1c0-4.6-3.3-8.2-8.6-8.2H199.4z"/>
		<path class="st37" d="M223.4,188v-12.1h2.3v11.9c0,4.5,2.4,7,6.3,7c3.8,0,6.3-2.3,6.3-6.8v-12.1h2.3v11.9c0,6-3.5,9.2-8.6,9.2
			C226.9,197,223.4,193.8,223.4,188z"/>
		<path class="st37" d="M248.9,186.3L248.9,186.3c0-5.9,4.4-10.8,10.5-10.8c3.8,0,6,1.3,8.1,3.3l-1.6,1.7c-1.7-1.7-3.7-2.8-6.5-2.8
			c-4.6,0-8,3.7-8,8.5v0.1c0,4.8,3.5,8.6,8,8.6c2.8,0,4.7-1.1,6.7-3l1.5,1.5c-2.2,2.2-4.5,3.6-8.3,3.6
			C253.3,197,248.9,192.3,248.9,186.3z"/>
		<path class="st37" d="M280.7,178.1h-7v-2.2H290v2.2h-7v18.6h-2.4V178.1z"/>
		<path class="st37" d="M298.2,175.9h2.3v20.7h-2.3V175.9z"/>
		<path class="st37" d="M309.2,186.3L309.2,186.3c0-5.8,4.3-10.8,10.6-10.8c6.3,0,10.5,4.9,10.5,10.7v0.1c0,5.7-4.3,10.7-10.6,10.7
			C313.5,197,309.2,192.1,309.2,186.3z M328,186.3L328,186.3c0-4.8-3.4-8.6-8.2-8.6c-4.7,0-8.1,3.8-8.1,8.5v0.1
			c0,4.7,3.4,8.6,8.2,8.6C324.6,194.8,328,191,328,186.3z"/>
		<path class="st37" d="M338.9,175.9h2.2l13.1,16.6v-16.6h2.3v20.7h-1.9l-13.4-17v17h-2.3V175.9z"/>
		<path class="st37" d="M364.5,193.6l1.5-1.7c2.2,2,4.2,2.9,7.1,2.9c2.8,0,4.6-1.5,4.6-3.5v-0.1c0-1.9-1-3-5.4-3.9c-4.8-1-7-2.6-7-6
			v-0.1c0-3.3,2.9-5.7,6.8-5.7c3,0,5.2,0.9,7.3,2.5l-1.4,1.8c-1.9-1.6-3.9-2.3-6-2.3c-2.7,0-4.4,1.5-4.4,3.3v0.1c0,2,1.1,3.1,5.6,4
			c4.6,1,6.8,2.7,6.8,5.9v0.1c0,3.6-3,5.9-7.1,5.9C369.7,196.9,367,195.8,364.5,193.6z"/>
	</g>
	<g>
		<path d="M50,129.2v-0.1c0-14.2,10.7-26.6,26.3-26.6c15.7,0,26.2,12.3,26.2,26.5v0.1c0,14.2-10.7,26.6-26.3,26.6
			C60.5,155.7,50,143.4,50,129.2z M96.5,129.2v-0.1c0-11.7-8.5-21.3-20.3-21.3S56,117.3,56,129v0.1c0,11.7,8.5,21.3,20.3,21.3
			S96.5,140.9,96.5,129.2z"/>
		<path d="M103,103.3h6.5l18.3,44.4l18.4-44.4h6.3l-22.2,51.9h-5.2L103,103.3z"/>
		<path d="M158.2,103.3h37.2v5.3H164v17.6h28.1v5.3H164v18h31.8v5.3h-37.6V103.3z"/>
		<path d="M203.1,103.3h22.1c6.3,0,11.4,1.9,14.6,5.2c2.5,2.5,4,6.1,4,10.2v0.1c0,8.5-5.9,13.5-14,15l15.8,21h-7.1l-14.9-20h-14.7
			v20h-5.8V103.3z M224.7,129.6c7.7,0,13.2-4,13.2-10.6v-0.1c0-6.3-4.9-10.2-13.2-10.2h-15.9v20.9H224.7z"/>
		<path d="M252.2,103.3h3.8v48h30.2v3.5h-34.1V103.3z"/>
		<path d="M293.9,103.3h3.8v51.5h-3.8V103.3z"/>
		<path d="M306.9,129.2v-0.1c0-13.9,10.1-26.6,25.5-26.6c8.4,0,13.7,2.5,18.8,6.8l-2.5,2.9c-4-3.5-8.8-6.2-16.6-6.2
			c-12.5,0-21.3,10.6-21.3,23v0.1c0,13.3,8.3,23.3,22.1,23.3c6.5,0,12.7-2.7,16.4-5.9v-14.8h-17.2v-3.5H353V148
			c-4.6,4.1-11.8,7.7-20.2,7.7C316.5,155.7,306.9,143.7,306.9,129.2z"/>
		<path d="M362.4,103.3h3.8v23.8h33v-23.8h3.8v51.5h-3.8v-24.1h-33v24.1h-3.8V103.3z"/>
		<path d="M428.2,106.9h-18v-3.5H450v3.5h-18v48h-3.8V106.9z"/>
		<path d="M76.3,120.8c-0.1,0-0.1,0-0.2,0c0.1,0.4,0.1,0.9,0.1,1.4v0c0,4.2-3.2,7.9-7.8,7.9c-0.1,0-0.2,0-0.4,0
			c0.4,4,3.6,7.4,8.2,7.4c4.9,0,8.2-3.9,8.2-8.3v0C84.5,124.6,81.2,120.8,76.3,120.8z"/>
	</g>
	<rect x="18.9" y="72.2" class="st38" width="462.2" height="155.5"/>
</g>
</svg>
