<?xml version="1.0" encoding="UTF-8"?>
<svg id="Layer_1" data-name="Layer 1" xmlns="http://www.w3.org/2000/svg" viewBox="0 0 200 200">
  <defs>
    <style>
      .cls-1 {
        fill: #1d252c;
      }

      .cls-2 {
        fill: #e3e3e4;
      }

      .cls-3 {
        fill: #db0032;
      }
    </style>
  </defs>
  <g>
    <path class="cls-1" d="M146.02,92.96c1.78-1.8,4.07-2.98,5.94-4.68,1.36-1.24,3.11-2.78,2.38-4.62-.66-1.67-1.91-3.08-2.65-4.72-2.24-5.02-.51-10.96,4-14.05,1.78-1.21,3.88-1.98,5.45-3.5,1.58-1.53,2.21-3.51,2.6-5.61.34-1.86.63-3.71,1.79-5.28,1.28-1.73,3.21-2.69,5.23-3.32-4.23-20.02-22-35.04-43.27-35.04-24.43,0-44.23,19.8-44.23,44.23s19.8,44.23,44.23,44.23c5.54,0,10.84-1.03,15.73-2.89.57-1.76,1.43-3.38,2.81-4.77Z"/>
    <g>
      <path class="cls-3" d="M132.9,107.48l-5.49.45c-.81.06-1.54.53-1.95,1.24-.87,1.53-1.75,3.09-2.67,4.71-.64,1.12-1.94,1.67-3.18,1.35l-3.31-.87-2.72-.71c-1.24-.33-2.1-1.45-2.1-2.72v-5.92c0-.72-.32-1.41-.86-1.88l-4.45-3.84c-.65-.56-1.56-.75-2.38-.49l-7.01,2.19c-1.13.36-2.34-.13-2.92-1.16l-3.05-5.44c-.56-1.02-.37-2.28.49-3.06l5.39-4.94c.51-.47.81-1.14.81-1.83v-5.79c0-.89-.48-1.73-1.26-2.17l-6.89-3.87c-.97-.54-1.47-1.74-1.14-2.86l1.62-5.46c.32-1.05,1.29-1.78,2.38-1.78h8.09c.76,0,1.47-.34,1.94-.93l3.65-4.57c.51-.65.67-1.51.43-2.29l-2.21-7.07c-.36-1.14.15-2.37,1.19-2.94l5.57-3.04c1.01-.55,2.26-.34,3.03.51l4.98,5.47c.48.51,1.14.82,1.85.82h5.63c.88,0,1.69-.47,2.15-1.23l4.07-6.93c.59-.99,1.78-1.46,2.88-1.12l5.77,1.79c1.04.32,1.75,1.29,1.75,2.38v8.17c0,.74.33,1.43.89,1.91l4.08,3.4c.64.53,1.5.71,2.29.47l7.16-2.11c1.1-.33,2.29.16,2.87,1.16l3.08,5.44c.58,1.02.37,2.29-.49,3.09l-5.28,4.84c-.51.47-.81,1.14-.81,1.83v5.86c0,.88.47,1.69,1.23,2.13l6.82,4.02c.94.56,1.42,1.75,1.09,2.84l-1.77,5.76c-.32,1.04-1.29,1.75-2.38,1.75h-8.18c-.72,0-1.41.32-1.88.86l-3.52,4.07c-.54.63-.72,1.52-.48,2.33l2.21,7.15c.34,1.12-.13,2.32-1.15,2.89l-5.42,3.06c-.96.54-2.22.36-3-.47l-5.39-5.69c-.53-.55-1.28-.85-2.04-.77h-.01ZM126.88,57.82c-11,.06-20.12,9.22-20.16,20.27-.04,11.03,8.97,20.17,20.07,20.35,11.35.18,20.77-9.27,20.58-20.67-.17-10.96-9.46-20-20.5-19.95Z"/>
      <path class="cls-2" d="M177.24,49.13l-4.93.39c-.43.04-.83.26-1.09.61l-1.92,2.62c-.29.4-.37.94-.17,1.43l1.67,4.21c.26.66.02,1.41-.55,1.8l-3.13,2.1c-.55.37-1.32.32-1.83-.13l-3.52-3.18c-.34-.31-.81-.44-1.26-.37v-.02s-3.29.53-3.29.53c-.49.07-.91.39-1.12.83-.45.97-.91,1.95-1.39,2.97-.33.7-1.09,1.1-1.85.96l-2.04-.37-1.67-.31c-.76-.13-1.34-.77-1.4-1.54l-.28-3.57c-.04-.44-.26-.83-.61-1.09l-2.86-2.1c-.42-.31-.97-.38-1.46-.18l-4.12,1.66c-.66.27-1.42.04-1.81-.56l-2.1-3.14c-.39-.59-.33-1.36.15-1.88l3.02-3.24c.28-.31.43-.72.4-1.14l-.27-3.48c-.04-.54-.37-1.02-.87-1.25l-4.33-2.01c-.61-.28-.97-.98-.82-1.67l.72-3.37c.13-.65.69-1.13,1.35-1.18l4.87-.38c.45-.04.87-.28,1.13-.65l1.99-2.93c.28-.42.34-.93.15-1.4l-1.66-4.16c-.27-.67-.02-1.43.58-1.83l3.21-2.1c.58-.38,1.34-.31,1.85.16l3.26,3.06c.31.29.72.44,1.15.4l3.38-.27c.53-.04,1.01-.36,1.24-.85l2.12-4.36c.31-.63,1.01-.96,1.68-.81l3.57.81c.64.15,1.12.69,1.16,1.35l.38,4.92c.04.44.27.85.63,1.1l2.62,1.85c.4.29.93.36,1.4.17l4.22-1.61c.65-.25,1.39-.01,1.78.56l2.11,3.14c.39.59.33,1.37-.15,1.89l-2.95,3.18c-.28.31-.43.72-.4,1.14l.28,3.53c.04.53.36.99.83,1.23l4.29,2.11c.6.29.94.99.78,1.67l-.78,3.56c-.15.65-.69,1.12-1.35,1.18M154.54,28.94c-6.63.55-11.68,6.51-11.18,13.17.5,6.64,6.36,11.73,13.06,11.32,6.84-.43,12.08-6.57,11.43-13.42-.63-6.6-6.66-11.61-13.3-11.05h0Z"/>
    </g>
  </g>
  <path class="cls-1" d="M165.24,122.17c-.07,2.41-1.09,4.63-2.89,6.24l-30.28,27.14c-3.9,3.49-8.93,5.42-14.17,5.42h-43.7l-8.13,11.62c-.11.15-.23.28-.37.39.67,1.36.44,3.04-.69,4.17l-9.62,9.62c-1.42,1.42-3.73,1.42-5.15,0l-28.58-28.58c-1.42-1.42-1.42-3.73,0-5.15l9.62-9.63c1.04-1.04,2.55-1.32,3.84-.83.06-.09.13-.18.21-.26l26.06-26.06c5.72-5.72,14.3-7.48,21.81-4.48l7.8,3.12c3.81,1.53,7.83,2.3,11.93,2.3h11.07c5.46,0,10.09,4.28,10.25,9.74.17,5.67-4.4,10.34-10.03,10.34h-11.43c-1.14,0-1.95,1.13-1.58,2.21h0c.23.67.86,1.12,1.58,1.12h17.66s31.04-25.78,31.04-25.78c3.48-2.48,8.2-2.09,11.21.93,1.71,1.71,2.61,3.98,2.55,6.4Z"/>
</svg>