<?xml version="1.0" encoding="utf-8"?>
<!-- Generator: Adobe Illustrator 28.0.0, SVG Export Plug-In . SVG Version: 6.00 Build 0)  -->
<svg version="1.1" id="Layer_1" xmlns="http://www.w3.org/2000/svg" xmlns:xlink="http://www.w3.org/1999/xlink" x="0px" y="0px"
	 viewBox="0 0 500 300" style="enable-background:new 0 0 500 300;" xml:space="preserve">
<style type="text/css">
	.st0{fill:#EC7620;}
	.st1{fill-rule:evenodd;clip-rule:evenodd;fill:#350600;}
	.st2{fill:#350600;}
	.st3{fill:#F88D2A;}
	.st4{fill:#FFC629;}
	.st5{fill:#42A7C6;}
	.st6{fill:#AD8B80;}
	.st7{fill:#404041;}
	.st8{fill:#E20613;}
	.st9{fill:#007A8A;}
	.st10{fill:#A0002D;}
	.st11{fill:#0380C3;}
	.st12{fill:#FFFCE7;}
	.st13{fill:#DAC094;}
	.st14{fill:#692525;}
	.st15{fill:#699043;}
	.st16{fill:#70715B;}
	.st17{fill:#C1E7F6;}
	.st18{clip-path:url(#SVGID_00000124863258551789278890000010005045215449033108_);fill:#C1E7F6;}
	.st19{clip-path:url(#SVGID_00000124863258551789278890000010005045215449033108_);fill:#7CD1EE;}
	.st20{fill:#7CD1EE;}
	.st21{fill:#92A1C6;}
	.st22{filter:url(#Adobe_OpacityMaskFilter);}
	
		.st23{clip-path:url(#SVGID_00000175323651782405452580000004564371875984925097_);fill:url(#SVGID_00000163064969776716652560000005915685763073666719_);}
	
		.st24{clip-path:url(#SVGID_00000175323651782405452580000004564371875984925097_);mask:url(#SVGID_00000171700759626476499980000005805054934945885332_);fill:url(#SVGID_00000007424256380202712020000003919619421495895229_);}
	.st25{clip-path:url(#SVGID_00000084511146329565677180000009554131801501201551_);fill:#604693;}
	.st26{fill:#00B2E3;}
	.st27{fill:#F5911E;}
	.st28{fill:#B12B26;}
	.st29{fill:#ED4036;}
	.st30{fill:#6D6E70;}
	.st31{fill:#121921;}
	.st32{fill:#0381C4;}
	.st33{fill:#A2732A;}
	.st34{fill:#513A16;}
	.st35{fill:#B99664;}
	.st36{fill:none;stroke:#B99664;stroke-width:1.2826;stroke-miterlimit:10;}
	.st37{fill:#8F9191;}
	.st38{fill:none;}
	.st39{fill:url(#SVGID_00000076595460205661944960000001223053034651953069_);}
	.st40{fill:url(#SVGID_00000055684062286096157680000003071507726129179824_);}
	.st41{fill:url(#SVGID_00000039112807437335048910000004804492509595965322_);}
	.st42{fill:#1A1A1A;}
	.st43{fill:url(#SVGID_00000129170683687774041430000007100240697868669625_);}
	.st44{fill:url(#SVGID_00000070808413696431956140000012847356047791888033_);}
	.st45{fill:url(#SVGID_00000155861452451057673030000009492231930935876506_);}
	.st46{fill:url(#SVGID_00000103967245818822666440000005299663197371190668_);}
	.st47{opacity:0.6;fill:url(#SVGID_00000000907637168937956140000009027790206786141596_);}
	.st48{fill:url(#SVGID_00000072248602538241654830000006473982416305145216_);}
	.st49{opacity:0.6;fill:url(#SVGID_00000127032304909319073150000000269868853623109265_);}
	.st50{fill:url(#SVGID_00000063608454549154585690000014918602015347101824_);}
	.st51{opacity:0.6;fill:url(#SVGID_00000166666274226194436600000018077788932979171753_);}
	.st52{fill:url(#SVGID_00000125572956108926255830000012611480990307806379_);}
	.st53{opacity:0.6;fill:url(#SVGID_00000148638045228521434150000014123452014381558972_);}
	.st54{fill:url(#SVGID_00000134968711444580882420000012411985140476684453_);}
	.st55{fill:url(#SVGID_00000114066621031919999340000014378868992613525921_);}
	.st56{opacity:0.6;fill:url(#SVGID_00000085949084824184400050000002351082396659202699_);}
	.st57{fill:url(#SVGID_00000121960387116238258450000005323505509668244624_);}
	.st58{fill:url(#SVGID_00000168801767408368068110000001745929047599953590_);}
	.st59{opacity:0.6;fill:url(#SVGID_00000012432050459931280060000011737088979886227620_);}
	.st60{fill:#AB774D;}
</style>
<g>
	<rect x="281.1" y="108.9" class="st10" width="17.6" height="82.1"/>
	<rect x="255.2" y="108.9" class="st10" width="43.5" height="17.6"/>
	<polygon class="st10" points="107.6,108.9 88.8,109.2 121.3,191.1 140.3,191.1 	"/>
	<polygon class="st10" points="155.9,108.9 174.7,109.2 150.2,170.4 140.8,146.4 	"/>
	<rect x="20.8" y="108.9" class="st10" width="60.9" height="17.6"/>
	<rect x="20.8" y="173.4" class="st10" width="60.9" height="17.6"/>
	<rect x="20.8" y="141.2" class="st10" width="50.8" height="17.6"/>
	<rect x="315.4" y="108.9" class="st10" width="60.9" height="17.6"/>
	<rect x="315.4" y="173.4" class="st10" width="60.9" height="17.6"/>
	<rect x="315.4" y="141.2" class="st10" width="50.8" height="17.6"/>
	<path class="st10" d="M214.2,126.6c13,0,23.5,10.6,23.5,23.5c0,13-10.6,23.5-23.5,23.5c-13,0-23.5-10.6-23.5-23.5
		C190.7,137.1,201.3,126.6,214.2,126.6 M214.2,109.2c-22.6,0-40.9,18.3-40.9,40.9c0,22.6,18.3,40.9,40.9,40.9
		c22.6,0,40.9-18.3,40.9-40.9C255.2,127.5,236.8,109.2,214.2,109.2"/>
	<path class="st10" d="M426,126.6c13,0,23.5,10.6,23.5,23.5c0,13-10.6,23.5-23.5,23.5c-13,0-23.5-10.6-23.5-23.5
		C402.5,137.1,413,126.6,426,126.6 M426,109.2c-22.6,0-40.9,18.3-40.9,40.9c0,22.6,18.3,40.9,40.9,40.9c22.6,0,40.9-18.3,40.9-40.9
		C467,127.5,448.6,109.2,426,109.2"/>
	<polygon class="st10" points="479.2,191.1 426.8,191.1 460.1,172.7 	"/>
</g>
</svg>
