<?xml version="1.0" encoding="UTF-8"?>
<svg id="Layer_1" data-name="Layer 1" xmlns="http://www.w3.org/2000/svg" viewBox="0 0 500 300">
  <defs>
    <style>
      .cls-1 {
        fill: #989abb;
      }

      .cls-1, .cls-2, .cls-3 {
        stroke-width: 0px;
      }

      .cls-2 {
        fill: #f08231;
      }

      .cls-3 {
        fill: #313678;
      }
    </style>
  </defs>
  <g>
    <path class="cls-3" d="m295.11,200.06c0,1.89-.76,2.84-2.27,2.84h-36.96v.34c0,1.67.19,3.36.57,5.06.38,1.71,1.08,3.26,2.1,4.66,1.02,1.4,2.42,2.54,4.21,3.41,1.78.87,4.03,1.31,6.76,1.31,4.17,0,8.09-.13,11.77-.4,3.68-.27,6.73-.51,9.15-.74h.34c.6,0,1.1.13,1.48.4.38.27.57.7.57,1.31v7.5c0,.91-.13,1.59-.4,2.05-.27.45-.93.76-1.99.91-1.82.38-3.52.68-5.12.91-1.59.23-3.2.42-4.83.57-1.63.15-3.41.26-5.34.34-1.93.08-4.19.12-6.77.12-2.88,0-5.93-.44-9.15-1.31-3.22-.87-6.2-2.39-8.93-4.55-2.73-2.16-4.98-5.08-6.76-8.76-1.78-3.68-2.67-8.32-2.67-13.93v-8.41c0-4.4.6-8.38,1.81-11.94,1.21-3.56,2.97-6.6,5.28-9.1,2.31-2.5,5.16-4.43,8.56-5.8,3.4-1.36,7.26-2.05,11.57-2.05s8.26.7,11.63,2.1c3.36,1.4,6.18,3.39,8.45,5.97,2.27,2.58,3.99,5.63,5.16,9.15,1.17,3.52,1.76,7.41,1.76,11.65v6.37Zm-15.01-8.3c0-4.47-1.1-7.92-3.3-10.35-2.2-2.42-5.08-3.64-8.64-3.64s-6.48,1.19-8.76,3.58c-2.27,2.39-3.41,5.86-3.41,10.4v.46h24.1v-.46Z"/>
    <path class="cls-3" d="m358.89,224.62c0,.83-.19,1.46-.57,1.88-.38.42-1.21.81-2.5,1.19-3.56.91-7.35,1.63-11.37,2.16-4.02.53-7.85.8-11.48.8-9.17,0-16-2.52-20.47-7.56-4.47-5.04-6.71-12.03-6.71-20.98v-8.75c0-8.94,2.23-15.94,6.71-20.98,4.47-5.04,11.29-7.56,20.47-7.56,1.36,0,2.99.06,4.89.17,1.89.11,3.9.32,6.03.62v-20.12c0-.61.23-1.14.68-1.59s.98-.68,1.59-.68h10.46c.61,0,1.14.23,1.59.68s.68.99.68,1.59v79.13Zm-15.01-46.62c-1.59-.22-3.47-.41-5.63-.56-2.16-.15-3.92-.23-5.29-.23-2.43,0-4.43.42-6.03,1.24-1.59.83-2.84,1.96-3.75,3.39-.91,1.43-1.53,3.13-1.87,5.09-.34,1.96-.51,4.11-.51,6.44v8.7c0,2.34.17,4.49.51,6.45.34,1.96.97,3.66,1.87,5.09.91,1.43,2.16,2.56,3.75,3.39,1.59.83,3.6,1.24,6.03,1.24,2.05,0,4.11-.08,6.2-.23,2.08-.15,3.66-.34,4.72-.57v-39.46Z"/>
    <path class="cls-3" d="m414.37,226.21c0,.91-.15,1.57-.45,1.99-.3.42-.95.74-1.93.97-1.29.38-3.18.72-5.68,1.02-2.5.3-5.5.46-8.98.46-3.71,0-7.14-.57-10.29-1.71-3.15-1.14-5.88-2.86-8.19-5.17-2.31-2.31-4.13-5.19-5.46-8.64-1.33-3.45-1.99-7.49-1.99-12.11v-10.57c0-4.62.66-8.66,1.99-12.11,1.33-3.45,3.14-6.33,5.46-8.64,2.31-2.31,5.04-4.03,8.19-5.17,3.14-1.14,6.58-1.71,10.29-1.71,3.49,0,6.48.15,8.98.46,2.5.3,4.39.64,5.68,1.02.98.23,1.63.55,1.93.97.3.42.45,1.08.45,1.99v7.39c0,.61-.19,1.04-.57,1.31-.38.27-.87.4-1.48.4h-.34c-1.14-.15-2.2-.28-3.18-.4-.99-.11-2.01-.19-3.07-.23-1.06-.04-2.27-.08-3.64-.11-1.37-.04-2.96-.06-4.78-.06-1.36,0-2.69.23-3.98.68-1.29.46-2.44,1.23-3.47,2.33-1.02,1.1-1.86,2.62-2.5,4.55s-.97,4.38-.97,7.33v10.57c0,2.96.32,5.4.97,7.33.64,1.93,1.48,3.45,2.5,4.55,1.02,1.1,2.18,1.88,3.47,2.33,1.29.46,2.62.68,3.98.68,1.82,0,3.41-.02,4.78-.06,1.36-.04,2.58-.08,3.64-.12,1.06-.04,2.09-.11,3.07-.23.98-.11,2.05-.24,3.18-.4h.34c.61,0,1.1.13,1.48.4.38.27.57.7.57,1.31v7.39Z"/>
  </g>
  <g>
    <g>
      <path class="cls-3" d="m219.77,125.84v94.71c0,5.2-4.22,9.42-9.42,9.42h-115.3c-5.2,0-9.42-4.22-9.42-9.42v-64.46h.06l3.2,4.69,1.71,2.32,1.7,2.33,1.8,2.22,1.84,2.16,1.98,2.08,2.05,1.95,2.19,1.83,2.33,1.71,2.4,1.56,2.46,1.46,2.58,1.36,2.64,1.21,2.72,1.08,2.74.97,2.82.87,2.81.72,2.85.59,2.88.49,2.85.39,2.92.2,2.88.1h2.88l2.85-.17,2.85-.28,2.85-.42,2.81-.56,2.78-.65,2.75-.76,5.52-1.67,1.78-.66,1.66-.73,1.6-.79,1.5-.76,1.35-.8,1.25-.72,1.18-.7,1.08-.69,1.98-1.42,1.91-1.5.94-.8,1.01-.9,2.01-1.91,1.94-1.98,1.84-2.01,1.74-2.09,1.7-2.08,1.6-2.13,1.57-2.12,2.95-4.2,2.74-4.17,2.68-4.06,2.61-3.9,2.57-3.78,2.64-3.55,2.71-3.37,1.39-1.63,1.46-1.56,3.02-3.02h.03Z"/>
      <path class="cls-1" d="m219.77,27.41v70.87c0,.99-.49,1.91-1.32,2.45l-.24.16-1.77,1.16-.66.46-1.32.94-2.02,1.43-.59.42-1.38,1.04-1.08.83-.87.67h0l-.4.31-1.5,1.22-1.91,1.56-.24.21-1.6,1.38-1.8,1.6-.1.11-1.62,1.53-1.71,1.62h0s-.03.04-.03.04l-1.56,1.63h0s-1.31,1.38-1.31,1.38l-.26.26-.03.04-1.45,1.63-1.51,1.68-.03-1.68-.1-1.63v-.04l-.2-1.63-.21-1.64-.03-.03-.32-1.63-.32-1.52h0s-.02-.12-.02-.12l-.45-1.6-.42-1.38-.06-.21-.56-1.56-.49-1.22-.13-.31-.66-1.5-.52-1.04-.21-.42-.8-1.43-.56-.94-.28-.46-.87-1.32-.59-.87-.31-.45-.98-1.22-.94-1.18h0l-.02-.03-.21-.24-.42-.49-.84-1.01-1.8-1.84-1.94-1.77-2.06-1.6-2.15-1.5-2.26-1.39-2.36-1.21-2.43-1.08-2.46-.94-2.4-.76-2.36-.66-2.36-.56-2.32-.45-2.33-.38-2.29-.24-2.3-.17-2.29-.07-2.26.03-2.26.14-2.22.2-2.22.31-2.19.39-2.23.48-2.15.56-2.16.62-2.16.73-2.12.8-2.12.9-2.04.94-2.06,1.05-2.01,1.08-1.98,1.18-1.94,1.24-1.88,1.36-1.83,1.39-1.81,1.5-1.7,1.53-1.67,1.63-1.6,1.67-1.53,1.74-1.43,1.8-1.35,1.87-1.28,1.91-1.18,1.98-1.08,2.01-1.01,2.09-.9,2.12-.84,2.16-.69,2.22-.62,2.23-.53,2.25-.42,2.26-.31,2.3-.24,2.32h-.1V27.41c0-5.2,4.22-9.42,9.42-9.42h115.3c5.2,0,9.42,4.21,9.42,9.42"/>
    </g>
    <path class="cls-2" d="m240,96.08c-.06,0-.11,0-.16,0h-.11s-17.29,1.2-17.29,1.2l5.25,7.63-3.06,1.89-.69.45-.09.06-.05.05-2.3,1.46-.24.2-1.62,1.1-.95.67-.2.14-2.31,1.7-.67.49-1.84,1.42-1.04.79-1.39,1.15-1.38,1.14-1,.87-1.67,1.45-.66.63-1.91,1.8-.31.31-2.15,2.11-.03.07-2.12,2.29-.17.17-1.86,2.11-.36.42-1.67,1.98-.52.62-3.4,4.27-.76.93-3.18,4.06h0l-.9,1.15-2.08,2.56-1.15,1.39-.97,1.14-2.19,2.47-1.39,1.49-.9.94-2.39,2.33-1.94,1.77-.52.45-2.48,1.98-.12.1-1.35.94-1.35.93-.69.42-.7.42-1.42.8-1.45.72-.71.31h0l-.78.35-1.49.63-1.56.55-1.56.49-.55.17-1.04.28-1.6.38-1.63.31-1.67.28-1.7.2-3.4.24-1.73.04h-1.74l-1.74-.1-1.73-.14-1.7-.21-1.46-.24-.24-.04-1.67-.35-1.66-.42-1.6-.49-.66-.24-.93-.35-1.53-.62-1.25-.63-.2-.1-1.42-.79-1.26-.76-.12-.07-1.35-.9-1.02-.76-.27-.2-1.21-1.01-.69-.59-.53-.46-1.49-1.42-.73-.72-1.11-1.22-.93-1.08-.77-.94-.2-.24-.9-1.21-.42-.62-.42-.63-.79-1.32-.1-.17-.63-1.14-.48-1.01-.18-.39-.62-1.42-.14-.38-.42-1.11-.38-1.15-.1-.35-.42-1.6-.07-.28-.31-1.32-.16-.94-.12-.69-.21-1.56v-.1l-.13-1.67-.04-.49-.03-1.21.02-1.05.02-.69.07-1.52.04-.17.17-1.74.03-.31.24-1.39.16-.76.19-.93.31-1.21.13-.49.53-1.6.03-.07.62-1.67.15-.31h0l.61-1.28.35-.72.45-.87.62-1.08.28-.48.92-1.42.05-.07,1.08-1.49.24-.31.9-1.12.57-.65h0l.6-.7,1.01-1.04.27-.28,1.32-1.25.13-.14,1.25-1.08.68-.52.78-.59,1.31-.94.17-.1,1.53-1.01.63-.35.97-.53,1.6-.83.07-.04,1.6-.69,1.59-.59.1-.03,1.74-.56,1.74-.45.9-.18.86-.17,1.8-.28,1.67-.2,1.7-.11h1.74l1.7.07,1.7.14,1.71.2,1.01.17.69.14,1.67.35,1.67.42,1.63.52.21.07,1.39.49,1.6.62,1.08.49.47.21,1.49.79,1.22.69.28.17,1.1.73.32.21,1.19.86.75.55.68.59h0l1.16,1.01.16.17h0l.68.75.47.5.3.35.76.94.73.97.24.35.86,1.35.21.35.55,1.08h0l.55,1.08.14.35.59,1.45.17.46.3,1.04.39,1.28.05.21.31,1.49.13.65.09.87.13,1.28.02.24v.03l.03,1.49v.94l-.05.59h0s-.11,1.22-.11,1.22l-.02.28-.03.31-.2,1.18-.21,1.21-.07.27-.36,1.27-.06.19-.17.62-.31.8h0l-.14.37-.38,1.01-.04.07-.6,1.28-.43.9-.26.42-.44.71-.38.61-.2.31-.7.97-.76.97-.24.31-1.08,1.17-.07.08-.21.24-1.07.97-.73.66-.69.56-1.22.94-.34.2h-.02s-1.73,1.05-1.73,1.05l-.18.1-1.97,1.01-.18.07h-.01l-2.06.79-.87.24-1.49.42-2.36.45-1.62.14h0l-.8.07h-2.43l-2.39-.24-.76-.14-1.64-.31-2.32-.7h-.04l-2.22-.86-.34-.17-1.81-.94-.24-.14-.65-.42-1.16-.72-1.49-1.15-.45-.35-.88-.83h0l-.88-.83-.18-.21-.1-.17-.03-.11-.1-.27-.04-.32v-.27l.04-.24.03-.07.1-.28.18-.24.21-.2.24-.17.27-.14,2.88-1.08,6.11-2.29,4.43-1.64,1.83-.68h.02l1.93-.72h.01l.03-.02.04-.02.2-.07,10.96-4.09,1.25-.59,1.12-.76,1.01-.94.83-1.08.66-1.22.46-1.28.2-1.15v-.1l.04-.07v-1.38l-.18-1.35-.1-.31-.3-.97-.28-.53-.35-.72-.42-.63-.79-1.18-.11-.17-.69-.83-.3-.38-.34-.42-.2-.24-.31-.31-.35-.35-.03-.03-.14-.14-.86-.86-.94-.76-.9-.76-1.02-.7-.95-.65-1.09-.59-1.03-.56-1.14-.49-1.05-.49-1.21-.38-1.08-.35-1.37-.28h-.05l-.94-.2-1.38-.17-.97-.14-2.43-.03-.76.03-1.63.14-.97.17-1.38.2-1.01.28-1.29.35-.98.38-1.27.49-1.01.49-1.15.56-.97.59-1.08.65-.9.7-1.01.76-.83.76h0l-.94.86-.04.04-.09.1-.31.35h0l-.47.52h0l-.7.76-.69.97-.73.97-.1.21-.57.9-.25.42-.32.53-.45.97-.56,1.22-.15.41h0s-.66,1.77-.66,1.77l-.02.07-.46,1.81-.13.52-.23,1.38-.16.97-.07,1.01-.1,1.38.1,2.4.02.2.03.28h-.01l.03.27.04.28.03.21h0v.1s.02.07.02.07v.13s.01.02.01.02l.09.81.55,2.33.76,2.29.46,1.08.03.07.04.07.03.08.04.09.02.06.32.74.16.24h-.01l.07.09.14.19.17.32.17.27.07.11.06.17h.05l.12.21.53.83.62.83.24.35.9,1.15.97,1.14.14.14.9.94.18.17.89.86.78.7.34.31.2.14.16.15.13.09.72.56.42.31.8.59.46.31.82.56.46.27.82.49.51.28h0l.83.45.51.24.88.42.48.21.9.42.49.17.93.35.53.17.93.31.46.11,1.01.28.43.1,1.02.24.42.07,1.04.2.42.04,1.08.14.35.03,1.12.1.35.04,1.11.03h1.42l1.42-.03.2-.04,1.22-.1.26-.03,1.16-.14.24-.04h0l1.21-.2.31-.07,1.11-.24.38-.1,1.04-.28.38-.11,1.04-.31.42-.17,1.01-.35.41-.17.97-.42.46-.21.94-.42.45-.24.9-.45.45-.28.86-.49.42-.27.87-.56.42-.31.83-.59.39-.31h0l.46-.36.24-.2.1-.07.17-.14h0l.5-.45.47-.42.26-.24.85-.79,1.08-1.08.06-.1.94-1.05.17-.2h0l.76-.94.38-.56.49-.66.66-.97.17-.24.76-1.25.17-.31.52-.97.49-.97.17-.31.59-1.32.17-.42.35-.9.43-1.28.02-.07.42-1.38.2-.8.17-.62.28-1.46.03-.27.2-1.21.13-1.18.04-.31.11-1.49v-.59l.03-.94-.03-1.49v-.03l-.11-1.52-.1-.87-.07-.65-.24-1.49-.05-.21-.27-1.28-.27-1.04-.11-.46-.45-1.45-.12-.35-.37-1.08-.45-1.08-.14-.35-.62-1.35-.17-.35-.49-.97-.56-.94-.2-.35-.76-1.25-.14-.17-.69-1.01-.46-.59-.42-.55-.72-.86-.17-.21-.63-.73-.1-.17-.66-.69-.32-.35-.42-.44-.2-.21-.53-.49h0l-.5-.46-.17-.16-.53-.49-.1-.07-.29-.24-.35-.28-.52-.42-.35-.28-.09-.06-.17-.14-.26-.17-.13-.09-.2-.12-.2-.14-.11-.07-.55-.38-.52-.35-1.27-.73-.85-.49-.98-.48-1.2-.59-.72-.28-1.6-.66-.45-.13-1.9-.63-.24-.06-2.11-.63h-.04l-.48-.12-.13-.02-1.68-.38-2.13-.42-.16-.03-2.03-.28-.23-.03-1.98-.17-.28-.04-2.18-.1h-2.22l-1.56.1h-.02l-.57.04-1.84.17-.35.03-1.91.28-.24.03-2.04.42h-.1l-2.15.52-2.15.63-.19.06h0l-1.92.63-.35.13h0l-1.76.66-.68.28-1.43.59-1.01.48-1.04.49-1.35.73-.7.35-.65.38h0l-.18.11-.35.2-.23.13-.24.15-.32.17-.28.18-.56.34-.16.11-.15.09-.72.46-.07.03-.83.59-1.04.69-.04.04-1.08.83-.69.53-.42.35-.18.15-1,.86-.14.1-1.01.94h0l-.64.59-1.6,1.6-.11.14-.98,1.07-.16.18-.24.28-.83,1.04-.59.7-.49.65-.83,1.12-.17.31-.97,1.49-.07.07-.83,1.42h0l-.28.48-.56,1.08-.45.87-.34.72-.61,1.28-.12.31h0l-.48,1.24-.16.42-.03.07-.56,1.6-.17.49-.33,1.21-.26.93-.17.76-.31,1.39-.05.31-.3,1.74-.03.17-.19,1.52-.09.69-.07,1.05-.1,1.21v.49l-.03,1.38v.29s0,.1,0,.1l.05,1.56.02.69.07.94.1,1.32.03.28.18,1.6.03.35.2,1.15.18,1.11.1.38.31,1.42.07.39.28,1.01.31,1.14.07.17.31.97.11.35h0l.2.63.24.62.46,1.21.1.24.42.94.45,1.08.63,1.22.35.72.83,1.42.24.46.42.59.5.8.27.41.55.76.66.9.04.07.62.76.03.03.63.76.07.1.57.63.55.6.02.02.31.35.24.24.48.49.4.42.34.35.04.04.28.24.16.17.06.05.03.03.13.11.02.03.09.07.31.28.52.49,1.67,1.38h.03l1.74,1.29.62.42,1.15.76.03.03,1.18.69.69.42,1.67.9.32.17,2.01.93.24.1.13.06,1.52.65.15.06,1.56.59.55.21,1.25.38.9.28,1.04.28,1.18.31.73.13,1.5.35,2.29.38.33.04,1.96.24,2.33.14h4.72l2.33-.14h.02l2.34-.24.26-.04,2.07-.31.36-.06h0l1.96-.35.68-.13,1.6-.31,1.08-.28,1.18-.28,1.42-.38.8-.21,1.9-.59.24-.06,2.08-.7.24-.1h0l2.16-.93.4-.17,1.84-.9.87-.42,1.28-.69.07-.03,1.28-.76.59-.42,1.91-1.29,1.73-1.38.63-.49.31-.28.04-.04.28-.24.24-.2h0l.3-.28h.02l.34-.31h0l.25-.24.17-.15.31-.28.17-.17.48-.49.56-.55.63-.63.35-.35,2.08-2.26.35-.42.5-.6.27-.33.2-.23.58-.71.09-.1,1.56-1.98h0l.35-.45,1.31-1.77.56-.73,1.11-1.6.66-.94,1.01-1.49,1.67-2.47.79-1.14.9-1.39.36-.54,1.32-2.02.75-1.15,2.7-4.06.63-.93,3.01-4.27.46-.62,1.49-1.98h0l.31-.42,1.7-2.11.18-.17,1.94-2.29.03-.07,1.98-2.11,2.11-2.11.62-.63,1.56-1.45.96-.87,1.29-1.14,1.35-1.15.94-.79,1.78-1.42h0l.6-.49,2.22-1.7.18-.14,2.46-1.77.28-.2,1.23-.85.88-.61h.02s5.1,7.4,5.1,7.4l.02-.05,7.52-15.42c.73-1.5-.38-3.21-2-3.21m-112.36,37.2l-.27.07-.31.04-.28-.04-.31-.07-.24-.13-.24-.17-.21-.21-.17-.28-.1-.27-.07-.28-.03-.2-.11-1.77.02-.63.05-1.38.16-1.01.16-.97.4-1.38.15-.52.7-1.81h0l.02-.07.97-1.77.28-.41h0l.85-1.22.86-.97.46-.53,1.49-1.31.28-.21,1.35-.97,1.74-.97h0l1.83-.76,1.94-.52,1.97-.35,1.98-.1,1.63.1.38.03,1.94.35,1.11.31.83.24,1.84.79,1.45.83.28.17,1.59,1.18.73.63.76.72.46.53.84.97.21.31h0l.92,1.35.07.17.07.2v.21l-.04.21-.06.21-.11.17-.13.17-.04.03-.13.07-.17.1-3.08,1.15h0s-3.43,1.28-3.43,1.28h0l-3.25,1.22h0l-2.88,1.08-2.51.94-2.04.76-1.41.53-.17.06-10.97,4.09Z"/>
  </g>
  <g>
    <path class="cls-3" d="m85.63,268.21c0-.2,0-.45.03-.75s.04-.61.07-.94.07-.67.11-1.01c.05-.34.1-.66.15-.96.06-.37.24-.56.56-.56h2.14c.35,0,.51.18.47.53-.04.41-.07.82-.1,1.24s-.04.75-.04,1.01c0,.96.06,1.86.18,2.68.12.82.38,1.54.76,2.14s.95,1.07,1.69,1.42c.74.34,1.73.51,2.97.51.5,0,.96-.01,1.37-.04.42-.03.82-.07,1.21-.13.02-.46.03-.87.04-1.24,0-.36.02-.7.03-1.01,0-.31.01-.63.01-.94v-3.47c0-2.11.62-3.66,1.85-4.66,1.23-1,2.99-1.5,5.29-1.5.74,0,1.47.04,2.19.11s1.32.16,1.8.25c.15.04.26.09.35.17s.12.2.12.39v6.3c0,.41.09.67.28.79s.52.18,1,.18h1.28v3.55h-2.19c-.65,0-1.21-.05-1.69-.14-.48-.09-.88-.27-1.21-.53-.32-.26-.57-.62-.74-1.07-.17-.45-.25-1.04-.25-1.76v-4.89c-.28-.04-.51-.07-.69-.08-.19-.02-.41-.03-.67-.03-1.06,0-1.85.24-2.39.71-.54.47-.8,1.32-.8,2.54v4.58c0,.67,0,1.4-.03,2.19s-.05,1.52-.08,2.17c0,.33-.2.54-.61.61-.78.13-1.64.23-2.6.31-.95.07-1.94.11-2.96.11-1.59,0-2.95-.19-4.08-.57-1.13-.38-2.05-.93-2.76-1.67-.71-.73-1.24-1.64-1.57-2.73-.33-1.09-.5-2.36-.5-3.8Zm3.64,11.27c0-.19.07-.33.19-.43s.28-.15.44-.15h1.86c.17,0,.31.05.44.15.13.1.19.25.19.43v1.97c0,.15-.07.28-.21.39s-.28.17-.43.17h-1.86c-.17,0-.32-.06-.44-.17s-.19-.24-.19-.39v-1.97Zm5.16,0c0-.19.06-.33.19-.43.13-.1.27-.15.42-.15h1.89c.15,0,.29.05.42.15.13.1.19.25.19.43v1.97c0,.15-.07.28-.19.39-.13.11-.27.17-.42.17h-1.89c-.15,0-.29-.06-.42-.17-.13-.11-.19-.24-.19-.39v-1.97Z"/>
    <path class="cls-3" d="m110.34,269.04c0-.09.1-.17.31-.24s.41-.1.61-.1h1.75c.44,0,.74-.04.89-.12.15-.08.22-.35.22-.79v-3.3c0-1.15-.02-2.39-.06-3.72,0-.15.05-.27.15-.38s.24-.15.4-.15h2.33c.2,0,.35.05.44.15.09.1.15.23.17.38.02.59.03,1.11.04,1.57,0,.45.01.88.01,1.29v2.58c0,1.19,0,2.18-.01,2.98,0,.81-.04,1.46-.1,1.96-.04.19-.1.34-.18.47-.08.13-.24.24-.46.33-.2.06-.48.1-.82.14-.34.04-.72.07-1.14.1s-.85.05-1.29.06c-.44,0-.85.01-1.22.01h-1.14c-.2,0-.41-.03-.61-.08s-.31-.14-.31-.25v-2.89Zm3.72-14.58c0-.18.07-.34.2-.46.13-.12.29-.18.47-.18h2.19c.17,0,.31.06.43.18s.18.27.18.46v2.17c0,.17-.06.31-.18.43s-.27.18-.46.18h-2.17c-.2,0-.37-.06-.49-.18s-.18-.26-.18-.43v-2.17Z"/>
    <path class="cls-3" d="m122.19,276.18c0-.32.17-.47.5-.47h2.53c.72,0,1.36-.04,1.9-.11.55-.07,1-.21,1.36-.4s.63-.46.82-.79.29-.77.31-1.3l.03-1.28c-.13.09-.3.17-.5.22-.2.06-.42.1-.64.14-.22.04-.44.06-.65.07-.21,0-.4.01-.57.01-1.89,0-3.38-.51-4.47-1.54s-1.64-2.55-1.64-4.57v-.56c0-2.18.64-3.87,1.93-5.07,1.29-1.19,3.12-1.79,5.51-1.79.35,0,.73.01,1.12.04.4.03.78.06,1.15.1.37.04.72.08,1.04.14.32.06.59.12.79.19s.33.14.39.21c.06.07.08.17.08.32v12.66c0,1.35-.19,2.45-.58,3.29-.39.84-.92,1.5-1.58,1.97-.67.47-1.43.79-2.3.96-.87.17-1.79.25-2.75.25h-.74c-.32,0-.66,0-1.01-.03-.35-.02-.68-.03-.97-.04-.3,0-.5-.03-.61-.07-.19-.04-.3-.1-.36-.18-.06-.08-.08-.2-.08-.35v-2.03Zm7.5-14.13c-.54-.06-1.1-.08-1.69-.08-1.07,0-1.9.3-2.47.89-.57.59-.86,1.43-.86,2.5v.36c0,1.06.23,1.84.69,2.35.46.51,1.21.76,2.25.76.59,0,1.09-.04,1.48-.11.4-.07.6-.29.6-.64v-6.02Z"/>
    <path class="cls-3" d="m135.38,276.23c0-.3.18-.44.53-.44h.56c.39,0,.73-.02,1.03-.07.3-.05.54-.15.74-.32.19-.17.34-.41.44-.74.1-.32.15-.77.15-1.35v-12.47c0-.15.06-.27.17-.37s.24-.15.39-.15h2.42c.15,0,.27.05.37.15s.15.23.15.37v7.86h2.44v3.55h-2.53v1.33c0,.65-.04,1.24-.12,1.76-.08.53-.23.99-.43,1.38-.39.78-.93,1.33-1.62,1.65-.69.32-1.6.49-2.71.49-.13,0-.36,0-.69-.01-.33,0-.6-.03-.81-.07-.31-.06-.47-.23-.47-.53v-2.03Z"/>
    <path class="cls-3" d="m143.66,269.04c0-.09.1-.17.31-.24s.41-.1.61-.1h1.28c.17,0,.34,0,.53-.03.18-.02.36-.06.51-.13.16-.06.29-.16.4-.28.11-.12.17-.29.17-.51v-6.91c0-.15.05-.27.15-.37s.24-.15.4-.15h2.42c.15,0,.27.05.38.15s.15.23.15.37v7.39c.06.09.16.17.3.24.15.07.31.11.5.15.19.04.37.06.54.07.18,0,.33.01.46.01h.67v3.55h-.33c-.7,0-1.42-.06-2.14-.18-.72-.12-1.32-.38-1.8-.76-.26.18-.55.34-.86.46s-.64.22-.99.29-.68.12-1.03.15c-.34.03-.66.04-.96.04h-.75c-.2,0-.41-.03-.61-.08s-.31-.14-.31-.25v-2.89Zm1.3-14.58c0-.18.07-.34.19-.46.13-.12.29-.18.47-.18h1.92c.18,0,.35.06.49.18s.21.27.21.46v2.17c0,.17-.07.31-.22.43s-.3.18-.47.18h-1.92c-.19,0-.34-.06-.47-.18-.13-.12-.19-.26-.19-.43v-2.17Zm5.14,0c0-.18.07-.34.21-.46s.29-.18.46-.18h1.94c.18,0,.34.06.46.18s.18.27.18.46v2.17c0,.17-.06.31-.18.43s-.27.18-.46.18h-1.94c-.17,0-.32-.06-.46-.18s-.21-.26-.21-.43v-2.17Z"/>
    <path class="cls-3" d="m153.23,272.26c-.2,0-.41-.03-.61-.08s-.31-.14-.31-.25v-2.89c0-.09.1-.17.31-.24s.41-.1.61-.1h6.16v3.55h-6.16Z"/>
    <path class="cls-3" d="m158.29,269.21c0-.15.09-.27.28-.36.19-.09.4-.14.64-.14h15.79c.02-.3.03-.63.04-1,0-.37.01-.7.01-1,0-.81-.12-1.49-.36-2.04-.24-.55-.6-.98-1.07-1.32-.47-.33-1.05-.57-1.72-.72-.68-.15-1.45-.22-2.32-.22h-5.91c-.41,0-.62-.15-.64-.44,0-.04,0-.1-.01-.19,0-.09-.02-.19-.03-.29,0-.1-.01-.19-.01-.28v-.15c0-.46.04-.91.11-1.33s.19-.85.35-1.28c.16-.43.35-.87.57-1.33.22-.46.48-.96.78-1.5l2.08-3.92c.09-.15.2-.28.32-.39s.27-.17.46-.17h2.5c.15,0,.25.03.3.1.06.07.08.14.08.24s-.03.19-.08.3l-2.61,4.94c-.11.2-.22.43-.33.67-.11.24-.21.48-.31.71-.09.23-.17.44-.24.62-.07.19-.1.32-.1.42.76-.04,1.4-.06,1.92-.08.52-.02.97-.03,1.36-.03,2.87,0,5,.61,6.39,1.85,1.39,1.23,2.1,3.03,2.14,5.4v1.4c0,.19,0,.39-.01.57,0,.19-.01.34-.01.47h2.08v3.55h-21.51c-.24,0-.45-.05-.64-.14-.18-.09-.28-.21-.28-.36v-2.55Z"/>
    <path class="cls-3" d="m180.52,272.26c-.2,0-.41-.03-.61-.08s-.31-.14-.31-.25v-2.89c0-.09.1-.17.31-.24s.41-.1.61-.1h6.16v3.55h-6.16Z"/>
    <path class="cls-3" d="m185.57,269.04c0-.09.1-.17.31-.24s.41-.1.61-.1h1.89c.44,0,.74-.04.87-.12s.21-.35.21-.79v-16.08c0-.17.06-.31.17-.42.11-.11.24-.17.39-.17h2.53c.15,0,.27.06.37.17s.15.25.15.42v16.13c0,.5,0,1.05-.03,1.65s-.06,1.15-.11,1.65c-.04.19-.1.34-.18.47-.08.13-.24.24-.46.33-.2.06-.49.1-.85.14-.36.04-.75.07-1.18.1-.43.03-.87.05-1.32.06-.45,0-.87.01-1.24.01h-1.22c-.2,0-.41-.03-.61-.08s-.31-.14-.31-.25v-2.89Z"/>
    <path class="cls-3" d="m196.43,269.21c0-.15.05-.27.15-.36.1-.09.23-.14.38-.14h10.24c.44,0,.74-.04.87-.12s.21-.35.21-.79v-16.1c0-.15.06-.28.17-.39s.24-.17.39-.17h2.53c.15,0,.27.06.38.17.1.11.15.24.15.39v16.16c0,.7-.01,1.31-.04,1.82-.03.51-.06,1-.1,1.49-.04.19-.09.34-.17.47-.07.13-.22.24-.44.33-.2.06-.5.1-.89.14-.39.04-.81.07-1.26.1s-.93.05-1.42.06c-.49,0-.93.01-1.32.01h-9.3c-.15,0-.27-.05-.38-.14-.1-.09-.15-.21-.15-.36v-2.55Zm2.69,10.08c-.3,0-.44-.11-.44-.33v-.81c0-.19.15-.28.44-.28h.53c-.15-.22-.26-.47-.33-.75-.07-.28-.11-.56-.11-.83,0-1.56.93-2.33,2.78-2.33.15,0,.35,0,.6.03.25.02.49.07.71.14.2.04.31.13.31.28v.75c0,.19-.12.28-.36.28h-.97c-.48,0-.83.08-1.06.25-.22.17-.33.45-.33.86,0,.31.06.59.17.82.11.23.25.39.42.49h1.94c.3,0,.44.09.44.28v.83c0,.22-.15.33-.44.33h-4.28Zm.58-25.82c0-.35.18-.53.56-.53h2.42c.35,0,.53.18.53.53v12.58c0,.17-.05.3-.15.42-.1.11-.23.17-.38.17h-2.44c-.15,0-.27-.06-.37-.17-.1-.11-.15-.25-.15-.42v-12.58Z"/>
    <path class="cls-3" d="m216.17,251.69c0-.15.05-.28.15-.39.1-.11.24-.17.4-.17h2.5c.17,0,.3.06.4.17s.15.24.15.39v19.99c0,.15-.05.28-.15.4s-.24.18-.4.18h-2.5c-.17,0-.3-.06-.4-.18-.1-.12-.15-.25-.15-.4v-19.99Z"/>
    <path class="cls-3" d="m230.33,270.37c0-.41.02-.94.07-1.6.05-.66.12-1.3.24-1.93.06-.35.24-.53.56-.53h2.11c.31,0,.47.18.47.53-.04.43-.06.85-.07,1.28,0,.43-.01.78-.01,1.05,0,1.04.11,1.96.32,2.76.21.8.59,1.48,1.12,2.04s1.26.98,2.17,1.28c.91.3,2.05.44,3.44.44h.87c.4,0,.81,0,1.25-.03s.85-.03,1.25-.04c.4,0,.69-.03.88-.07.02-.54.03-1.11.03-1.72v-1.58h-2.3c-1.96,0-3.49-.51-4.6-1.54-1.1-1.03-1.65-2.55-1.65-4.57v-.56c0-2.18.65-3.87,1.94-5.07,1.29-1.19,3.13-1.79,5.5-1.79.37,0,.75.01,1.15.04.4.03.79.06,1.17.1s.73.08,1.06.14c.32.06.59.12.79.19.19.07.31.14.38.21s.1.17.1.32v8.97h2.5v3.55h-2.53c0,1.18,0,2.31-.01,3.39,0,1.07-.03,1.93-.07,2.58,0,.33-.19.53-.58.58-1,.15-2.12.25-3.36.29-1.24.05-2.44.07-3.61.07-3.54,0-6.18-.71-7.93-2.14s-2.62-3.65-2.62-6.66Zm8.27-17.13c0-.18.06-.34.19-.46.13-.12.29-.18.47-.18h1.92c.18,0,.35.06.49.18s.21.27.21.46v2.17c0,.17-.07.31-.22.43-.15.12-.31.18-.47.18h-1.92c-.19,0-.34-.06-.47-.18-.13-.12-.19-.26-.19-.43v-2.17Zm6.44,15.58v-6.78c-.54-.06-1.12-.08-1.75-.08-1.06,0-1.87.3-2.46.89-.58.59-.88,1.43-.88,2.5v.36c0,1.06.23,1.84.69,2.35.46.51,1.19.76,2.19.76h2.19Zm-1.3-15.58c0-.18.07-.34.21-.46s.29-.18.46-.18h1.94c.19,0,.34.06.46.18.12.12.18.27.18.46v2.17c0,.17-.06.31-.18.43-.12.12-.27.18-.46.18h-1.94c-.17,0-.32-.06-.46-.18s-.21-.26-.21-.43v-2.17Z"/>
    <path class="cls-3" d="m249.93,269.04c0-.09.1-.17.31-.24s.41-.1.61-.1h1.75c.44,0,.74-.04.89-.12.15-.08.22-.35.22-.79v-3.3c0-1.15-.02-2.39-.06-3.72,0-.15.05-.27.15-.38.1-.1.23-.15.4-.15h2.33c.2,0,.35.05.44.15s.15.23.17.38c.02.59.03,1.11.04,1.57s.02.88.02,1.29v2.58c0,1.19,0,2.18-.02,2.98,0,.81-.04,1.46-.1,1.96-.04.19-.1.34-.18.47-.08.13-.24.24-.46.33-.2.06-.48.1-.82.14-.34.04-.72.07-1.14.1s-.85.05-1.29.06c-.44,0-.85.01-1.22.01h-1.14c-.2,0-.41-.03-.61-.08s-.31-.14-.31-.25v-2.89Zm3.11-11.74c-.3,0-.44-.11-.44-.33v-.8c0-.18.15-.28.44-.28h.53c-.15-.22-.26-.47-.33-.75s-.11-.56-.11-.83c0-1.56.93-2.33,2.78-2.33.15,0,.35,0,.6.03s.49.07.71.14c.2.04.3.13.3.28v.75c0,.19-.12.28-.36.28h-.97c-.48,0-.83.08-1.05.25-.22.17-.33.45-.33.86,0,.32.06.59.17.82.11.23.25.39.42.49h1.94c.3,0,.44.09.44.28v.83c0,.22-.15.33-.44.33h-4.28Z"/>
    <path class="cls-3" d="m261.31,251.69c0-.15.06-.28.17-.39s.25-.17.42-.17h2.47c.18,0,.32.06.42.17s.14.24.14.39v15.6c0,.63.13,1.02.39,1.18.26.16.65.24,1.17.24h.92v3.55h-1.94c-.63,0-1.2-.05-1.71-.15-.51-.1-.94-.3-1.3-.58-.36-.29-.64-.69-.83-1.19-.2-.51-.29-1.17-.29-1.99v-16.66Z"/>
    <path class="cls-3" d="m267.2,272.26c-.2,0-.41-.03-.61-.08s-.31-.14-.31-.25v-2.89c0-.09.1-.17.31-.24s.41-.1.61-.1h6.16v3.55h-6.16Z"/>
    <path class="cls-3" d="m272.25,269.04c0-.09.1-.17.31-.24s.41-.1.61-.1h1.75c.44,0,.74-.04.89-.12.15-.08.22-.35.22-.79v-3.3c0-1.15-.02-2.39-.06-3.72,0-.15.05-.27.15-.38.1-.1.23-.15.4-.15h2.33c.2,0,.35.05.44.15s.15.23.17.38c.02.59.03,1.11.04,1.57s.02.88.02,1.29v2.58c0,1.19,0,2.18-.02,2.98,0,.81-.04,1.46-.1,1.96-.04.19-.1.34-.18.47-.08.13-.24.24-.46.33-.2.06-.48.1-.82.14-.34.04-.72.07-1.14.1s-.85.05-1.29.06c-.44,0-.85.01-1.22.01h-1.14c-.2,0-.41-.03-.61-.08s-.31-.14-.31-.25v-2.89Zm1.25-14.41c0-.18.07-.33.2-.44.13-.11.29-.17.47-.17h1.92c.19,0,.35.06.49.17.14.11.21.26.21.44v2.03c0,.15-.07.28-.22.4s-.31.18-.47.18h-1.92c-.18,0-.34-.06-.47-.18-.13-.12-.2-.25-.2-.4v-2.03Zm2.69-3.94c0-.17.07-.31.21-.43s.28-.18.43-.18h1.83c.18,0,.34.06.47.18.13.12.2.26.2.43v1.69c0,.17-.07.31-.21.42-.14.11-.3.17-.49.17h-1.83c-.15,0-.29-.06-.42-.17-.13-.11-.19-.25-.19-.42v-1.69Zm2.44,3.94c0-.18.07-.33.21-.44.14-.11.29-.17.46-.17h1.94c.18,0,.34.06.46.17.12.11.18.26.18.44v2.03c0,.15-.06.28-.18.4-.12.12-.27.18-.46.18h-1.94c-.17,0-.32-.06-.46-.18s-.21-.25-.21-.4v-2.03Z"/>
    <path class="cls-3" d="m284.11,276.18c0-.32.17-.47.5-.47h2.53c.72,0,1.36-.04,1.9-.11.54-.07,1.01-.21,1.39-.4s.66-.46.85-.79.28-.77.28-1.3v-.83h-2.03c-2.02,0-3.6-.51-4.74-1.54-1.14-1.03-1.71-2.55-1.71-4.57v-.56c0-2.18.64-3.87,1.93-5.07,1.29-1.19,3.12-1.79,5.51-1.79.35,0,.72.01,1.12.04.4.03.78.06,1.15.1s.71.08,1.03.14.57.12.78.19c.18.07.31.14.38.21s.1.17.1.32v8.97h2.44v3.55h-2.5v.94c-.09,1.15-.34,2.09-.74,2.82-.4.73-.91,1.3-1.54,1.72-.63.42-1.36.71-2.2.87-.83.17-1.72.25-2.66.25h-.74c-.32,0-.66,0-1.01-.03-.35-.02-.67-.03-.97-.04-.3,0-.5-.03-.61-.07-.19-.04-.31-.1-.36-.18-.05-.08-.08-.2-.08-.35v-2.03Zm2.47-10.47c0,1.06.23,1.84.69,2.35.46.51,1.21.76,2.25.76h2.08v-6.78c-.54-.06-1.1-.08-1.69-.08-1.05,0-1.87.3-2.46.89s-.87,1.43-.87,2.5v.36Z"/>
    <path class="cls-3" d="m297.32,272.26c-.2,0-.41-.03-.61-.08s-.31-.14-.31-.25v-2.89c0-.09.1-.17.31-.24s.41-.1.61-.1h6.16v3.55h-6.16Z"/>
    <path class="cls-3" d="m303.29,272.26c-.2,0-.41-.03-.61-.08s-.31-.14-.31-.25v-2.89c0-.09.1-.17.31-.24s.41-.1.61-.1h6.16v3.55h-6.16Z"/>
    <path class="cls-3" d="m308.35,269.04c0-.09.1-.17.31-.24s.41-.1.61-.1h1.89c.44,0,.74-.04.87-.12s.21-.35.21-.79v-16.08c0-.17.06-.31.17-.42s.24-.17.39-.17h2.53c.15,0,.27.06.38.17.1.11.15.25.15.42v16.13c0,.5,0,1.05-.03,1.65-.02.6-.05,1.15-.11,1.65-.04.19-.1.34-.18.47-.08.13-.24.24-.46.33-.2.06-.49.1-.85.14-.36.04-.75.07-1.18.1s-.87.05-1.32.06c-.45,0-.87.01-1.23.01h-1.22c-.2,0-.41-.03-.61-.08s-.31-.14-.31-.25v-2.89Z"/>
    <path class="cls-3" d="m320.12,251.69c0-.15.05-.28.15-.39s.24-.17.4-.17h2.5c.17,0,.3.06.4.17.1.11.15.24.15.39v19.99c0,.15-.05.28-.15.4-.1.12-.24.18-.4.18h-2.5c-.17,0-.3-.06-.4-.18s-.15-.25-.15-.4v-19.99Z"/>
    <path class="cls-3" d="m331.86,276.2c0-.28.16-.42.47-.42h.58c.52,0,.96-.02,1.32-.07.36-.05.65-.15.87-.32.22-.17.38-.41.49-.74.1-.32.15-.77.15-1.35v-12.47c0-.15.05-.27.15-.37s.24-.15.4-.15h2.42c.15,0,.27.05.38.15s.15.23.15.37v7.86h2.47v3.55h-2.55v1.3c0,.63-.04,1.21-.13,1.75-.08.54-.23,1-.43,1.39-.43.8-1.01,1.36-1.75,1.68-.74.32-1.69.49-2.86.49-.15,0-.42,0-.8-.01-.39,0-.7-.03-.94-.07-.26-.06-.39-.23-.39-.53v-2.06Zm3.92-21.74c0-.18.07-.34.2-.46.13-.12.29-.18.47-.18h2.2c.16,0,.31.06.43.18.12.12.18.27.18.46v2.17c0,.17-.06.31-.18.43-.12.12-.27.18-.46.18h-2.17c-.2,0-.36-.06-.49-.18-.12-.12-.18-.26-.18-.43v-2.17Z"/>
    <path class="cls-3" d="m341.53,272.26c-.2,0-.41-.03-.61-.08s-.31-.14-.31-.25v-2.89c0-.09.1-.17.31-.24s.41-.1.61-.1h6.16v3.55h-6.16Z"/>
    <path class="cls-3" d="m347.5,272.26c-.2,0-.41-.03-.61-.08s-.31-.14-.31-.25v-2.89c0-.09.1-.17.31-.24s.41-.1.61-.1h12.04v3.55h-12.04Z"/>
    <path class="cls-3" d="m358.43,269.21c0-.15.09-.27.28-.36.18-.09.4-.14.64-.14h12.31c.4,0,.77,0,1.13-.01.35,0,.6-.02.75-.04.02-.31.03-.64.04-.99.01-.34.02-.66.02-.96,0-.81-.13-1.49-.38-2.04-.25-.55-.61-.98-1.08-1.32-.47-.33-1.05-.57-1.72-.72-.67-.15-1.45-.22-2.32-.22h-5.91c-.41,0-.62-.15-.64-.44,0-.04,0-.1-.02-.19,0-.09-.02-.19-.03-.29,0-.1-.01-.2-.01-.29v-.17c0-.46.04-.91.11-1.33.07-.43.19-.85.35-1.28.16-.43.35-.87.57-1.33.22-.46.48-.96.78-1.5l2.08-3.89c.09-.15.2-.28.32-.39.12-.11.27-.17.46-.17h2.5c.15,0,.25.03.31.1.06.07.08.14.08.24s-.03.19-.08.3l-2.61,4.97c-.11.2-.22.43-.33.67-.11.24-.21.47-.3.69-.09.22-.17.43-.24.62s-.1.33-.1.4c.8-.04,1.43-.06,1.9-.08.47-.02.9-.03,1.29-.03,1.57,0,2.91.18,4,.53,1.09.35,1.98.87,2.67,1.56s1.18,1.54,1.5,2.57.47,2.21.47,3.54v.69c0,.2,0,.47-.02.8,0,.33-.02.68-.04,1.04-.02.36-.04.71-.07,1.04s-.05.6-.07.81c-.05.33-.28.51-.67.53-.31.04-.71.06-1.19.07-.48,0-1.01.02-1.58.04-.57.02-1.15.03-1.74.03h-12.48c-.24,0-.45-.05-.64-.14-.18-.09-.28-.21-.28-.36v-2.55Z"/>
    <path class="cls-3" d="m377.94,276.2c0-.28.16-.42.47-.42h.58c.52,0,.96-.02,1.32-.07.36-.05.65-.15.87-.32.22-.17.38-.41.49-.74.1-.32.15-.77.15-1.35v-12.47c0-.15.05-.27.15-.37s.24-.15.4-.15h2.42c.15,0,.27.05.38.15s.15.23.15.37v7.86h2.47v3.55h-2.55v1.3c0,.63-.04,1.21-.13,1.75-.08.54-.23,1-.43,1.39-.43.8-1.01,1.36-1.75,1.68-.74.32-1.69.49-2.86.49-.15,0-.42,0-.8-.01-.39,0-.7-.03-.94-.07-.26-.06-.39-.23-.39-.53v-2.06Z"/>
    <path class="cls-3" d="m387.6,272.26c-.2,0-.41-.03-.61-.08s-.31-.14-.31-.25v-2.89c0-.09.1-.17.31-.24s.41-.1.61-.1h6.16v3.55h-6.16Z"/>
    <path class="cls-3" d="m393.57,272.26c-.2,0-.41-.03-.61-.08s-.31-.14-.31-.25v-2.89c0-.09.1-.17.31-.24s.41-.1.61-.1h6.16v3.55h-6.16Z"/>
    <path class="cls-3" d="m398.63,269.04c0-.09.1-.17.31-.24s.41-.1.61-.1h.83c.13,0,.28,0,.44-.03s.33-.06.49-.11c.16-.06.3-.13.42-.24.12-.1.2-.24.24-.4.06-.18.08-.4.08-.64v-2.33c0-2.02.57-3.55,1.69-4.6,1.13-1.05,2.65-1.57,4.55-1.57s3.38.51,4.46,1.53c1.08,1.02,1.62,2.55,1.62,4.58v1.64c0,2.07-.53,3.61-1.6,4.61-1.07,1-2.58,1.5-4.54,1.5-.94,0-1.86-.11-2.74-.35-.88-.23-1.54-.61-1.98-1.15-.37.43-.86.72-1.46.87-.6.16-1.29.24-2.07.24h-.44c-.2,0-.41-.03-.61-.08s-.31-.14-.31-.25v-2.89Zm6.91-2.68c0,.42.03.83.08,1.22.15.68.44,1.15.89,1.4s1.02.37,1.72.37c.94,0,1.62-.23,2.03-.69.41-.46.61-1.27.61-2.43v-1.02c0-1.11-.2-1.91-.61-2.42-.41-.51-1.08-.76-2.03-.76s-1.63.26-2.05.77c-.43.52-.64,1.32-.64,2.41v1.16Z"/>
  </g>
</svg>