<?xml version="1.0" encoding="UTF-8"?>
<svg id="Layer_1" data-name="Layer 1" xmlns="http://www.w3.org/2000/svg" version="1.1" viewBox="0 0 500 200">
  <defs>
    <style>
      .cls-1 {
        fill: #008755;
        stroke-width: 0px;
      }
    </style>
  </defs>
  <path class="cls-1" d="M49.44,121.44h-8.45v23.47h8.25c7.89,0,13.07-5.38,13.07-11.84s-5.02-11.63-12.86-11.63M49.49,140.3h-3.18v-14.14h3.18c4.41,0,7.48,3.02,7.48,7.07s-2.97,7.12-7.48,7.07"/>
  <path class="cls-1" d="M81.05,135.18c0,3.28-2,5.18-4.77,5.18s-4.77-1.95-4.77-5.18v-13.73h-5.38v13.94c0,6,3.95,9.94,10.04,9.94s10.15-4.05,10.15-10.09v-13.73h-5.28v13.68h0Z"/>
  <path class="cls-1" d="M106.52,132.67c1.9-1.02,3.02-2.97,3.02-5.12,0-3.89-3.38-6.1-7.43-6.1h-10.56v23.47h11.17c4.25,0,7.84-2.51,7.84-6.56.05-2.56-1.59-4.87-4.05-5.69M101.04,130.92h-4.1v-5.28h4.1c2.1,0,3.18,1.28,3.18,2.66s-1.08,2.61-3.18,2.61M96.94,134.87h4.87c2.1,0,3.48,1.18,3.48,2.97,0,1.59-1.23,3.02-3.48,3.02h-4.87v-6h0Z"/>
  <path class="cls-1" d="M126.5,121.44h-5.23l-9.53,23.47h5.59l1.84-4.87h9.12l1.84,4.87h5.84l-9.43-23.37-.05-.1ZM126.81,135.79h-6.1l3.07-8.04,3.02,8.04Z"/>
  <rect class="cls-1" x="138.85" y="121.44" width="5.48" height="23.47"/>
  <path class="cls-1" d="M168.47,121.44h-10.2v23.47h5.33v-7.38h4.66c5.59,0,8.97-3.64,8.97-8.15.05-4.92-3.74-7.94-8.76-7.94M163.6,126.01h4.36c2.56,0,4.05,1.59,4.05,3.59s-1.49,3.59-4.05,3.59h-4.36v-7.17h0Z"/>
  <path class="cls-1" d="M192.45,121.14c-6.97,0-12.4,5.33-12.4,12.2s5.18,11.99,12.25,11.99,12.4-5.28,12.4-12.14-5.18-12.04-12.25-12.04M192.35,140.4c-4.1,0-7.02-3.07-7.02-7.17s2.87-7.12,7.02-7.12,7.02,3.07,7.02,7.12-2.97,7.17-7.02,7.17"/>
  <path class="cls-1" d="M256.25,137.84c-1.33,1.69-3.33,2.61-5.43,2.56-4.05,0-7.02-3.02-7.02-7.17s2.97-7.12,7.02-7.12c2.05-.05,4,.82,5.33,2.41l.1.1,3.89-3.48-.1-.1c-2.36-2.56-5.69-3.95-9.12-3.89-6.97,0-12.4,5.33-12.4,12.2s5.28,11.99,12.25,11.99c3.59.1,7.07-1.43,9.43-4.15l.1-.1-3.89-3.33-.15.1Z"/>
  <polygon class="cls-1" points="214.28 121.44 208.95 121.44 208.95 144.96 225.66 144.96 225.66 140.2 214.28 140.2 214.28 121.44"/>
  <rect class="cls-1" x="228.73" y="121.44" width="5.48" height="23.47"/>
  <polygon class="cls-1" points="268.8 140.3 268.8 135.08 279.21 135.08 279.21 130.67 268.8 130.67 268.8 126.11 280.85 126.11 280.85 121.44 263.47 121.44 263.47 144.96 281.2 144.96 281.2 140.3 268.8 140.3"/>
  <path class="cls-1" d="M170.21,64.41c1.95,0,3.48-1.59,3.48-3.48s-1.59-3.48-3.48-3.48-3.48,1.59-3.48,3.48,1.59,3.48,3.48,3.48"/>
  <path class="cls-1" d="M262.14,59.13c1.95,0,3.48-1.59,3.48-3.48s-1.59-3.48-3.48-3.48-3.48,1.59-3.48,3.48c0,1.95,1.59,3.48,3.48,3.48"/>
  <path class="cls-1" d="M257.27,67.23c1.95,0,3.48-1.59,3.48-3.48s-1.59-3.48-3.48-3.48-3.48,1.59-3.48,3.48c0,1.9,1.59,3.48,3.48,3.48"/>
  <path class="cls-1" d="M263.53,63.75c0,1.95,1.59,3.48,3.48,3.48s3.48-1.59,3.48-3.48-1.59-3.48-3.48-3.48c-1.95-.05-3.48,1.54-3.48,3.48"/>
  <path class="cls-1" d="M276.13,68.05l-5.89,3.59c1.38,2.25,5.43,10.15,3.59,21.37h-8.25v-21.37h-6.87v21.37h-5.23v-21.37h-6.87v21.37h-9.74v-24.19h-6.87v27.11c0,5.53-4.51,10.04-10.04,10.04h-1.74v6.87h1.74c7.84,0,14.66-5.38,16.5-13.02h42.89l.61-2.61c3.69-15.12-2-26.13-3.84-29.16"/>
  <path class="cls-1" d="M127.22,68l-3.07,6.15c8.92,4.51,9.48,13.32,8.76,18.81h-15.32v6.87h20.96l.61-2.72c4.25-19.27-8.05-27.16-11.94-29.11"/>
  <path class="cls-1" d="M221.92,99.82l1.79-6.15c1.64-5.53.56-11.53-2.87-16.19-6.05-8.1-17.52-9.79-25.62-3.79-.31.26-.61.51-.92.77l-6.05,5.18v-18.7h-6.87v32.03h-7.74v-24.13h-7.12c-9.48,0-17.17,7.69-17.22,17.22v13.84h6.87v-13.84c0-5.69,4.61-10.3,10.3-10.3h.2v24.13l55.24-.05h0ZM188.25,88.7l10.5-8.97c4.82-4.1,12.04-3.54,16.14,1.28.15.2.31.41.46.61,2.15,2.92,2.82,6.66,1.79,10.15l-.36,1.23h-28.54v-4.3h0Z"/>
  <path class="cls-1" d="M106.21,104.23c-1.95,0-3.48,1.59-3.48,3.48s1.59,3.48,3.48,3.48,3.48-1.59,3.48-3.48c.05-1.9-1.54-3.48-3.48-3.48"/>
  <path class="cls-1" d="M69.52,104.23c-1.95,0-3.48,1.59-3.48,3.48s1.59,3.48,3.48,3.48,3.48-1.59,3.48-3.48-1.54-3.48-3.48-3.48"/>
  <path class="cls-1" d="M60.71,104.23c-1.95,0-3.48,1.59-3.48,3.48s1.59,3.48,3.48,3.48,3.48-1.59,3.48-3.48c.05-1.9-1.54-3.48-3.48-3.48"/>
  <path class="cls-1" d="M161.66,64.41c1.95,0,3.48-1.59,3.48-3.48s-1.59-3.48-3.48-3.48-3.48,1.59-3.48,3.48,1.54,3.48,3.48,3.48"/>
  <path class="cls-1" d="M106.57,88.75c0,2.31-1.9,4.2-4.2,4.2h-3.18v-24.13h-7.17c-9.27,0-16.55,7.53-16.55,17.22v6.97h-27.62v-.92c0-7.23,1.74-14.35,5.12-20.75l-6.05-3.23c-3.89,7.33-5.94,15.58-5.94,23.93v7.79h41.3v-13.84c0-5.89,4.15-10.3,9.68-10.3h.36v24.13h10.04c6.1,0,11.07-4.97,11.07-11.07v-19.93h-6.87v19.93Z"/>
  <path class="cls-1" d="M457.68,108.17c-1.18-.05-2.41,0-3.59.2.87-.97,1.64-2,2.36-3.07,2.56-4,3.23-8.92,1.9-13.48-1.18.2-2.36.51-3.43.97.67-1.13,1.18-2.31,1.64-3.48,1.64-4.46,1.28-9.43-1.02-13.58-1.13.46-2.2,1.02-3.18,1.69.41-1.23.67-2.51.87-3.79.61-4.71-.77-9.48-3.84-13.07-1.02.67-1.9,1.43-2.72,2.31.15-1.28.15-2.56.05-3.84-.36-4.71-2.72-9.07-6.51-11.94-.82.87-1.59,1.79-2.2,2.82-.15-1.28-.41-2.56-.77-3.79-1.33-4.56-4.56-8.3-8.86-10.3-.61,1.02-1.13,2.1-1.54,3.23-.41-1.23-.92-2.41-1.54-3.54-2.25-4.2-6.2-7.17-10.86-8.2-.82,2.31-1.13,4.82-.87,7.23-.51-.41-1.13-.77-1.74-1.18-4.05-2.46-8.97-3.07-13.48-1.69.87,4.66,3.69,8.76,7.79,11.17.61.36,1.23.72,1.84.97-2.31.87-4.36,2.31-6,4.15,2.56,2.97,6.05,4.97,9.94,5.53,1.84,3.38,4.87,6.05,8.45,7.43,1.08,3.69,3.48,6.92,6.71,9.02.31,3.84,1.95,7.48,4.66,10.25-.51,3.84.31,7.74,2.41,11.02-1.33,3.64-1.33,7.64.05,11.27-2.05,3.28-2.87,7.17-2.31,11.02-2.72,2.77-4.36,6.41-4.61,10.3-3.23,2.15-5.59,5.38-6.66,9.07-3.59,1.43-6.61,4.05-8.4,7.48-3.84.61-7.28,2.56-9.79,5.53-4.71-.26-9.27,1.54-12.55,4.92-2.25,2.25-3.59,4.51-4.25,6.56-.61,2.05-2.77,3.23-4.87,2.61-1.28-.36-2.25-1.38-2.61-2.61-.67-2.1-2-4.3-4.25-6.56-3.28-3.38-7.84-5.12-12.55-4.92-2.51-2.97-5.94-4.92-9.79-5.59-1.84-3.43-4.82-6.05-8.4-7.48-1.08-3.74-3.43-6.92-6.66-9.07-.26-3.84-1.9-7.53-4.61-10.3.56-3.84-.26-7.74-2.31-11.02,1.33-3.64,1.38-7.64.05-11.27,2.1-3.28,2.92-7.17,2.41-11.02,2.72-2.77,4.41-6.41,4.66-10.25,3.23-2.1,5.64-5.33,6.71-9.02,3.64-1.38,6.61-4,8.45-7.43,3.89-.61,7.38-2.56,9.94-5.53-1.64-1.84-3.74-3.23-6-4.15.61-.31,1.23-.61,1.84-.97,4.1-2.41,6.92-6.46,7.79-11.12-4.51-1.43-9.48-.82-13.48,1.69-.61.36-1.18.77-1.74,1.18.26-2.46,0-4.92-.87-7.23-4.61,1.02-8.61,4.05-10.86,8.2-.61,1.13-1.13,2.31-1.54,3.54-.41-1.13-.92-2.2-1.54-3.23-4.3,2-7.53,5.74-8.86,10.3-.36,1.23-.61,2.51-.77,3.79-.61-1.02-1.33-2-2.2-2.82-3.79,2.87-6.2,7.23-6.51,11.99-.1,1.28-.1,2.56.05,3.89-.82-.87-1.74-1.64-2.77-2.36-3.13,3.59-4.51,8.35-3.84,13.07.15,1.28.46,2.56.87,3.79-.97-.67-2.05-1.23-3.18-1.69-2.31,4.15-2.66,9.12-1.02,13.58.41,1.23.97,2.41,1.64,3.48-1.13-.46-2.25-.77-3.43-.97-1.33,4.56-.67,9.48,1.9,13.48.67,1.08,1.49,2.1,2.36,3.07-1.18-.2-2.41-.31-3.59-.2-.36,4.71,1.33,9.38,4.66,12.76.87.92,1.9,1.79,2.92,2.51-1.18.05-2.41.2-3.54.51.67,4.71,3.28,8.92,7.28,11.53,1.08.72,2.2,1.33,3.38,1.84-1.18.31-2.31.72-3.33,1.28,1.64,4.46,5.07,8.04,9.53,9.74,1.18.46,2.46.87,3.69,1.08-1.08.51-2.1,1.18-3.02,1.95,2.51,4,6.66,6.76,11.38,7.48,1.28.2,2.56.31,3.84.31-.92.77-1.79,1.59-2.56,2.56,3.33,3.43,7.94,5.23,12.71,4.97,1.28-.05,2.56-.2,3.84-.51-.77.92-1.43,1.95-1.95,3.02,3.95,2.61,8.86,3.43,13.43,2.15,2-.51,3.89-1.33,5.64-2.51,4.77-3.23,11.02-3.23,15.78,0,1.74,1.13,3.64,2,5.64,2.51,4.56,1.28,9.48.46,13.43-2.15-.51-1.08-1.18-2.1-1.95-3.02,1.28.31,2.56.46,3.84.51,4.77.26,9.38-1.54,12.71-4.92-.77-.92-1.59-1.79-2.56-2.56,1.28.05,2.56-.05,3.84-.31,4.71-.72,8.81-3.48,11.38-7.48-.92-.77-1.95-1.43-3.02-1.95,1.28-.26,2.51-.61,3.69-1.08,4.46-1.69,7.89-5.28,9.53-9.74-1.08-.56-2.2-.97-3.33-1.28,1.18-.51,2.31-1.13,3.38-1.84,3.95-2.61,6.61-6.82,7.28-11.53-1.18-.31-2.36-.46-3.54-.51,1.08-.77,2.05-1.59,2.92-2.51,3.33-3.48,5.02-8.15,4.71-12.86M353.56,143.68c2.82,1.08,5.18,2.97,6.82,5.53,2.05,3.18,2.72,6,2.2,8.51-2.46-.56-4.71-2.36-6.76-5.53-1.64-2.56-2.46-5.48-2.25-8.51M344.39,136.56c2.51,1.64,4.41,4.05,5.48,6.87,1.33,3.54,1.38,6.41.41,8.76-2.31-1.08-4.15-3.33-5.48-6.87-1.13-2.77-1.23-5.84-.41-8.76M336.9,127.7c2.1,2.1,3.48,4.87,3.89,7.84.56,3.74,0,6.56-1.49,8.66-2-1.54-3.33-4.1-3.89-7.84-.46-2.97.1-6,1.49-8.66M331.47,117.45c1.64,2.51,2.36,5.48,2.15,8.51-.26,3.79-1.38,6.41-3.28,8.15-1.64-1.95-2.41-4.71-2.15-8.51.2-3.02,1.33-5.84,3.28-8.15M321.28,100.74c1.38-2.66,3.64-4.77,6.3-6.05.41,2.97-.1,6-1.54,8.61-1.79,3.33-3.89,5.28-6.3,6.1-.72-2.51-.26-5.33,1.54-8.66M318.56,95.88c-.15-2.56.87-5.23,3.33-8.1,1.95-2.31,4.56-3.89,7.43-4.61-.2,2.97-1.38,5.84-3.33,8.1-2.41,2.87-4.92,4.36-7.43,4.61M323.43,113.5c.82-2.87,2.51-5.43,4.92-7.28,1.02,2.82,1.18,5.89.31,8.76-1.02,3.64-2.72,6-4.92,7.28-1.18-2.25-1.33-5.12-.31-8.76M328.45,79.53c-3.02,2.31-5.74,3.23-8.25,2.92.36-2.51,1.95-4.92,4.97-7.23,2.36-1.84,5.28-2.87,8.25-2.92-.87,2.87-2.56,5.43-4.97,7.23M357.66,48.02c-2.36,1.84-5.28,2.82-8.3,2.87-3.79.05-6.51-.82-8.4-2.56,1.79-1.79,4.51-2.82,8.3-2.87,3.02-.05,6,.82,8.4,2.56M353.35,35.77c2.56-1.59,5.53-2.25,8.56-2-1.13,2.77-3.18,5.07-5.74,6.61-3.23,1.95-6.05,2.56-8.56,2,.67-2.46,2.46-4.66,5.74-6.61M340.9,36.84c1.43-2.66,3.69-4.77,6.41-6,.41,2.97-.2,6-1.64,8.61-1.84,3.33-3.95,5.23-6.41,6-.61-2.46-.15-5.28,1.64-8.61M339.21,53.6c2.92-.72,5.94-.46,8.71.72-1.95,2.31-4.56,3.89-7.48,4.56-3.69.87-6.56.56-8.71-.72,1.33-2.15,3.79-3.69,7.48-4.56M329.17,46.94c.87-2.87,2.61-5.38,4.97-7.17,1.02,2.82,1.08,5.89.2,8.76-1.08,3.64-2.77,5.94-5.02,7.23-1.13-2.31-1.23-5.18-.15-8.81M331.01,63.64c2.72-1.33,5.74-1.69,8.71-1.13-1.43,2.66-3.64,4.77-6.35,6.05-3.43,1.64-6.3,1.95-8.71,1.13.87-2.41,2.92-4.41,6.35-6.05M319.84,59.24c.2-2.97,1.38-5.84,3.38-8.1,1.59,2.56,2.31,5.53,2.05,8.51-.31,3.79-1.43,6.41-3.38,8.1-1.64-1.95-2.36-4.71-2.05-8.51M314.87,64.67c2.1,2.15,3.43,4.92,3.79,7.89.51,3.74-.1,6.56-1.59,8.61-2-1.59-3.28-4.15-3.79-7.89-.41-2.97.15-6,1.59-8.61M309.54,79.63c2.51,1.69,4.36,4.1,5.38,6.92,1.28,3.59,1.33,6.46.26,8.76-2.31-1.13-4.1-3.38-5.38-6.92-1.02-2.82-1.08-5.89-.26-8.76M307.49,95.36c2.77,1.13,5.12,3.07,6.71,5.64,2,3.23,2.66,6.05,2.1,8.51-2.46-.61-4.71-2.41-6.71-5.64-1.59-2.56-2.31-5.53-2.1-8.51M312.72,118.99c-2.1-2.15-3.43-4.92-3.84-7.89,2.97.51,5.69,1.95,7.74,4.1,2.61,2.77,3.84,5.33,3.84,7.89-2.56-.1-5.12-1.38-7.74-4.1M318.92,133.18c-2.51-1.64-4.41-4.05-5.43-6.87,2.97-.15,5.94.72,8.45,2.36,3.18,2.1,4.87,4.41,5.43,6.87-2.51.46-5.33-.26-8.45-2.36M327.94,145.73c-2.82-1.08-5.18-3.02-6.76-5.59,2.92-.77,5.94-.56,8.76.56,3.54,1.38,5.69,3.28,6.76,5.59-2.36.97-5.23.82-8.76-.56M339.42,156.14c-2.97-.46-5.69-1.9-7.79-4.05,2.66-1.38,5.69-1.84,8.66-1.33,3.74.61,6.25,2,7.79,4.05-2.1,1.43-4.92,1.95-8.66,1.33M352.84,163.82c-2.97.15-5.94-.67-8.45-2.31,2.31-1.9,5.23-2.97,8.2-3.13,3.79-.2,6.56.61,8.45,2.31-1.74,1.9-4.41,2.97-8.2,3.13M367.6,168.54c-2.87.77-5.94.61-8.76-.46,1.9-2.36,4.46-4,7.33-4.77,3.64-.97,6.51-.77,8.76.46-1.28,2.2-3.69,3.84-7.33,4.77M368.01,156.55c-2.15-2.1-3.54-4.87-3.95-7.84,2.97.46,5.69,1.84,7.79,4,2.66,2.66,3.89,5.28,3.95,7.84-2.56-.05-5.12-1.33-7.79-4M456.14,95.31c.26,2.97-.51,6-2.1,8.51-2,3.23-4.25,5.02-6.71,5.64-.51-2.51.1-5.28,2.1-8.51,1.59-2.56,3.95-4.56,6.71-5.64M454.09,79.58c.87,2.87.77,5.94-.26,8.76-1.28,3.59-3.07,5.79-5.38,6.92-1.02-2.31-1.02-5.23.26-8.76,1.02-2.82,2.87-5.23,5.38-6.92M445.03,72.56c.36-2.97,1.69-5.74,3.79-7.89,1.43,2.61,2,5.64,1.59,8.61-.51,3.74-1.79,6.3-3.79,7.89-1.54-2.05-2.1-4.87-1.59-8.61M437.65,103.31c-1.43-2.61-1.95-5.64-1.54-8.61,2.72,1.28,4.92,3.43,6.3,6.05,1.79,3.33,2.2,6.2,1.54,8.66-2.41-.82-4.51-2.77-6.3-6.1M439.95,122.32c-2.2-1.28-3.84-3.64-4.92-7.28-.82-2.87-.72-5.94.31-8.76,2.36,1.84,4.1,4.36,4.92,7.28,1.02,3.64.92,6.51-.31,8.76M437.7,91.31c-1.95-2.25-3.13-5.12-3.33-8.1,2.92.72,5.53,2.31,7.43,4.61,2.46,2.87,3.48,5.59,3.33,8.1-2.51-.26-4.97-1.74-7.43-4.61M440.52,51.19c1.95,2.25,3.13,5.07,3.38,8.1.31,3.79-.41,6.56-2.05,8.51-1.9-1.69-3.07-4.3-3.38-8.1-.26-2.97.46-6,2.05-8.51M429.5,39.71c2.41,1.79,4.15,4.3,5.02,7.17,1.08,3.64.97,6.51-.2,8.76-2.2-1.23-3.89-3.59-5.02-7.23-.87-2.82-.77-5.89.2-8.71M416.38,30.85c2.72,1.23,4.97,3.33,6.41,6,1.84,3.33,2.31,6.15,1.64,8.61-2.46-.77-4.56-2.66-6.41-6-1.49-2.61-2.05-5.64-1.64-8.61M407.52,40.38c-2.56-1.54-4.56-3.84-5.74-6.61,2.97-.26,6,.41,8.56,2,3.23,1.95,5.07,4.15,5.74,6.61-2.51.56-5.28,0-8.56-2M414.28,50.88c-2.97-.05-5.89-1.02-8.3-2.87,2.46-1.74,5.38-2.61,8.35-2.56,3.79.05,6.51,1.08,8.3,2.87-1.84,1.74-4.56,2.61-8.35,2.56M415.77,54.32c2.77-1.18,5.79-1.43,8.71-.72,3.69.87,6.1,2.41,7.48,4.56-2.2,1.28-5.07,1.59-8.71.72-2.92-.67-5.53-2.25-7.48-4.56M423.96,62.52c2.97-.56,6-.2,8.71,1.13,3.43,1.64,5.48,3.64,6.35,6.05-2.41.82-5.28.51-8.71-1.13-2.72-1.28-4.92-3.38-6.35-6.05M430.27,72.25c2.97.05,5.89,1.08,8.25,2.92,3.02,2.31,4.56,4.71,4.97,7.23-2.51.31-5.28-.61-8.25-2.92-2.41-1.79-4.15-4.36-4.97-7.23M432.21,117.45c1.95,2.31,3.07,5.12,3.28,8.15.26,3.79-.51,6.56-2.15,8.51-1.9-1.69-3.02-4.36-3.28-8.15-.2-3.02.56-6,2.15-8.51M422.89,135.54c.41-2.97,1.79-5.74,3.89-7.84,1.38,2.66,1.95,5.69,1.49,8.66-.56,3.74-1.9,6.3-3.89,7.84-1.49-2.05-2.05-4.92-1.49-8.66M413.82,143.43c1.02-2.82,2.97-5.23,5.48-6.87.82,2.87.67,5.94-.36,8.76-1.33,3.54-3.18,5.74-5.48,6.87-1.02-2.31-.97-5.23.36-8.76M403.31,149.22c1.59-2.51,4-4.46,6.76-5.53.2,2.97-.56,5.94-2.2,8.45-2.05,3.18-4.3,4.97-6.76,5.53-.51-2.46.2-5.28,2.2-8.45M391.84,152.7c2.1-2.15,4.82-3.54,7.79-4-.46,2.97-1.84,5.69-3.95,7.84-2.66,2.72-5.23,3.95-7.79,4,.05-2.56,1.28-5.12,3.95-7.84M396.14,168.54c-3.64-.97-6.05-2.56-7.38-4.77,2.2-1.23,5.07-1.43,8.76-.46,2.92.77,5.48,2.41,7.33,4.77-2.77,1.08-5.84,1.28-8.71.46M410.85,163.82c-3.79-.2-6.46-1.28-8.2-3.13,1.9-1.69,4.66-2.51,8.45-2.31,2.97.1,5.89,1.23,8.2,3.13-2.46,1.64-5.43,2.46-8.45,2.31M424.27,156.08c-3.74.61-6.56.15-8.66-1.33,1.54-2.05,4.05-3.43,7.79-4.05,2.97-.51,6-.05,8.66,1.33-2.1,2.2-4.82,3.59-7.79,4.05M435.75,145.73c-3.54,1.38-6.41,1.54-8.76.56,1.08-2.31,3.23-4.2,6.76-5.59,2.77-1.13,5.84-1.33,8.76-.56-1.59,2.56-3.95,4.51-6.76,5.59M450.2,126.31c-1.02,2.82-2.92,5.23-5.43,6.87-3.18,2.1-5.94,2.82-8.45,2.36.56-2.51,2.25-4.77,5.43-6.87,2.51-1.69,5.48-2.51,8.45-2.36M443.23,123.08c0-2.56,1.23-5.18,3.84-7.89,2.05-2.15,4.77-3.59,7.74-4.1-.41,2.97-1.74,5.74-3.84,7.89-2.61,2.72-5.18,4.05-7.74,4.1"/>
  <path class="cls-1" d="M339.01,105.41v1.95c2.46,4.77,5.23,9.33,8.3,13.73h-6.87s1.38,2.82,5.59,2.82h71.69c4.25,0,5.59-2.82,5.59-2.82h-6.3c3.18-4.71,6.1-9.63,8.66-14.71h3.43v-5.38h-18.65c-19.63-15.94-23.83-43.2-12.4-63.59-32.74,6.46-57.29,34.84-59.03,68M340.44,105.46c9.68-6,20.75-9.43,32.13-10.09v10.09h-32.13ZM408.75,103.25l-1.64,2.2h-30.13v-10.2c11.12.05,21.98,2.82,31.77,7.99M402.6,97.31c-19.73-7.69-41.81-6.3-60.36,3.84,3.48-28.23,23.37-51.65,50.68-59.65-7.79,18.91-4,40.63,9.68,55.8"/>
  <path class="cls-1" d="M378.67,147.68h6.35c4.25,0,5.59-2.82,5.59-2.82h-17.58c.05,0,1.38,2.82,5.64,2.82"/>
  <path class="cls-1" d="M403.42,138.92h-43.15s1.38,2.82,5.59,2.82h31.92c4.25,0,5.64-2.82,5.64-2.82"/>
  <path class="cls-1" d="M413.15,132.97h-62.62s1.38,2.82,5.59,2.82h51.4c4.3,0,5.64-2.82,5.64-2.82"/>
  <path class="cls-1" d="M419.1,127.03h-74.51s1.38,2.82,5.59,2.82h63.34c4.25,0,5.59-2.82,5.59-2.82"/>
</svg>