<?xml version="1.0" encoding="utf-8"?>
<!-- Generator: Adobe Illustrator 28.0.0, SVG Export Plug-In . SVG Version: 6.00 Build 0)  -->
<svg version="1.1" id="Layer_1" xmlns="http://www.w3.org/2000/svg" xmlns:xlink="http://www.w3.org/1999/xlink" x="0px" y="0px"
	 viewBox="0 0 500 300" style="enable-background:new 0 0 500 300;" xml:space="preserve">
<style type="text/css">
	.st0{fill:#EC7620;}
	.st1{fill-rule:evenodd;clip-rule:evenodd;fill:#350600;}
	.st2{fill:#350600;}
	.st3{fill:#F88D2A;}
	.st4{fill:#FFC629;}
	.st5{fill:#42A7C6;}
	.st6{fill:#AD8B80;}
	.st7{fill:#404041;}
	.st8{fill:#E20613;}
	.st9{fill:#007A8A;}
	.st10{fill:#A0002D;}
	.st11{fill:#0380C3;}
	.st12{fill:#FFFCE7;}
	.st13{fill:#DAC094;}
	.st14{fill:#692525;}
	.st15{fill:#699043;}
	.st16{fill:#70715B;}
	.st17{fill:#C1E7F6;}
	.st18{clip-path:url(#SVGID_00000031206394283509830860000006269130953719010444_);fill:#C1E7F6;}
	.st19{clip-path:url(#SVGID_00000031206394283509830860000006269130953719010444_);fill:#7CD1EE;}
	.st20{fill:#7CD1EE;}
	.st21{fill:#92A1C6;}
	.st22{filter:url(#Adobe_OpacityMaskFilter);}
	
		.st23{clip-path:url(#SVGID_00000178184598695856488080000013385106415382315453_);fill:url(#SVGID_00000027572693653980198960000009212866368741673642_);}
	
		.st24{clip-path:url(#SVGID_00000178184598695856488080000013385106415382315453_);mask:url(#SVGID_00000077317592312459608130000016744021729542988963_);fill:url(#SVGID_00000124128975475221400310000001659599729868417204_);}
	.st25{clip-path:url(#SVGID_00000104676784718541433500000003384687054326328251_);fill:#604693;}
	.st26{fill:#00B2E3;}
	.st27{fill:#F5911E;}
	.st28{fill:#B12B26;}
	.st29{fill:#ED4036;}
	.st30{fill:#6D6E70;}
	.st31{fill:#121921;}
	.st32{fill:#0381C4;}
	.st33{fill:#A2732A;}
	.st34{fill:#513A16;}
	.st35{fill:#B99664;}
	.st36{fill:none;stroke:#B99664;stroke-width:1.2826;stroke-miterlimit:10;}
	.st37{fill:#8F9191;}
	.st38{fill:none;}
	.st39{fill:url(#SVGID_00000094588145083939821660000018305660886043267223_);}
	.st40{fill:url(#SVGID_00000034048009359716251330000015223624929336390289_);}
	.st41{fill:url(#SVGID_00000140725702514716897430000009742657571881007528_);}
	.st42{fill:#1A1A1A;}
	.st43{fill:url(#SVGID_00000125564029934244722660000002286364963180947853_);}
	.st44{fill:url(#SVGID_00000134225173052122934230000004935581758297007288_);}
	.st45{fill:url(#SVGID_00000088096241581471008640000007062220773713275034_);}
	.st46{fill:url(#SVGID_00000092418423894880843840000003030244589796785824_);}
	.st47{opacity:0.6;fill:url(#SVGID_00000140726410697538109800000012547276834022944428_);}
	.st48{fill:url(#SVGID_00000085966697219971556610000009242134652851699899_);}
	.st49{opacity:0.6;fill:url(#SVGID_00000163036688197028654840000012094193650808647065_);}
	.st50{fill:url(#SVGID_00000082331117576148124390000005956789431249636765_);}
	.st51{opacity:0.6;fill:url(#SVGID_00000137823970763047679130000009238575479033918642_);}
	.st52{fill:url(#SVGID_00000104676671119456684160000006334115997019150208_);}
	.st53{opacity:0.6;fill:url(#SVGID_00000067199002701129621210000006736288330510396066_);}
	.st54{fill:url(#SVGID_00000122719656913355837610000015179744010613765032_);}
	.st55{fill:url(#SVGID_00000141424150730116915260000017422671071009220503_);}
	.st56{opacity:0.6;fill:url(#SVGID_00000091726896209833243640000003118200822796057791_);}
	.st57{fill:url(#SVGID_00000031886211301408885850000001540671569170510996_);}
	.st58{fill:url(#SVGID_00000036236112093225179410000004619108130581132435_);}
	.st59{opacity:0.6;fill:url(#SVGID_00000124852941592857591970000003014173426079485077_);}
	.st60{fill:#AB774D;}
</style>
<g>
	<g>
		<g>
			<path class="st3" d="M251.2,116.5c0.1-4.1-2.2-7.5-5.3-10.6c-20.2-20.2-40.4-40.4-60.6-60.6c-5.3-5.3-10.7-10.7-16.1-16
				c-6.1-5.9-14.9-5.9-20.9,0c-5.5,5.3-5.3,14.5,0.5,20.4c25.8,25.9,51.7,51.8,77.6,77.6c4.6,4.6,10.7,5.7,16.3,3.3
				C248,128.3,251.3,123,251.2,116.5z"/>
			<path class="st3" d="M286.6,96.7c0.1-4.1-2.2-7.5-5.3-10.7c-20.4-20.3-20.1-20.1-40.5-40.5c-5.4-5.4-10.7-10.8-16.2-16.1
				c-6.1-6-15-5.9-21.1,0c-5.5,5.4-5.3,14.6,0.5,20.5c26.1,26.1,31.5,31.6,57.6,57.6c4.6,4.6,10.8,5.8,16.4,3.3
				C283.4,108.7,286.7,103.4,286.6,96.7z"/>
			<path class="st3" d="M308.8,80.4c-12.8-12.7-25.4-25.3-38-37.9c-4.9-4.9-9.8-9.9-14.8-14.8c-3.6-3.6-7.9-3.9-10.9-0.9
				c-3.1,3-2.6,7.5,1,11.2c14,14,28,28.1,42.1,42.1C294.2,86.1,302.5,86.4,308.8,80.4z"/>
			<path class="st4" d="M286.1,156.8c10.5,0,21.1,0,31.9,0c0-10.5,0-21.1,0-31.6C302.5,123.1,285,140.4,286.1,156.8z"/>
		</g>
		<g>
			<g>
				<path class="st5" d="M70,258.6c-4.1,0-8-0.5-11.7-1.5c-3.7-1-6.7-2.2-9-3.7l4.5-9.8c2.2,1.3,4.9,2.4,7.9,3.2
					c3,0.9,5.9,1.3,8.8,1.3c3.2,0,5.5-0.4,6.8-1.2c1.3-0.8,2-1.8,2-3.2c0-1.1-0.5-2-1.6-2.5c-1-0.6-2.4-1-4.1-1.3
					c-1.7-0.3-3.6-0.6-5.6-0.9c-2.1-0.3-4.1-0.7-6.2-1.2c-2-0.5-3.9-1.3-5.7-2.3c-1.7-1-3.1-2.3-4.2-4c-1-1.7-1.6-3.9-1.6-6.7
					c0-3,0.9-5.7,2.7-8c1.8-2.3,4.3-4.2,7.5-5.5c3.3-1.3,7.2-2,11.8-2c3.3,0,6.6,0.4,10,1.1c3.3,0.7,6.2,1.8,8.5,3.1l-4.7,9.8
					c-2.2-1.3-4.5-2.2-6.9-2.7c-2.3-0.5-4.6-0.8-6.7-0.8c-3.2,0-5.5,0.4-6.9,1.2c-1.4,0.8-2.1,1.9-2.1,3.2c0,1.2,0.5,2.1,1.6,2.7
					c1.1,0.6,2.5,1.1,4.2,1.4c1.7,0.3,3.6,0.6,5.7,0.9c2.1,0.3,4.1,0.7,6.1,1.2c2,0.5,3.9,1.3,5.6,2.3c1.7,1,3.1,2.3,4.2,4
					c1,1.7,1.6,3.9,1.6,6.7c0,2.9-0.9,5.5-2.7,7.8c-1.8,2.3-4.3,4.1-7.7,5.4C78.9,258,74.8,258.6,70,258.6z"/>
				<path class="st5" d="M125.5,258.6c-5.1,0-9.7-1.1-13.7-3.2c-4-2.1-7.1-5-9.4-8.7c-2.3-3.7-3.4-8-3.4-12.7c0-4.8,1.1-9,3.4-12.7
					c2.3-3.7,5.4-6.6,9.4-8.7c4-2.1,8.6-3.2,13.7-3.2c5,0,9.4,1.1,13.2,3.1c3.8,2.1,6.5,5.1,8.1,8.9l-10.6,5.9
					c-1.3-2.2-2.9-3.9-4.7-4.9c-1.8-1-3.8-1.6-6-1.6c-2.3,0-4.4,0.5-6.3,1.6c-1.9,1-3.4,2.5-4.5,4.5c-1.1,2-1.7,4.3-1.7,7.1
					c0,2.8,0.6,5.2,1.7,7.1c1.1,2,2.6,3.5,4.5,4.5c1.9,1,4,1.6,6.3,1.6c2.2,0,4.2-0.5,6-1.6c1.8-1,3.4-2.7,4.7-5l10.6,5.9
					c-1.7,3.8-4.4,6.7-8.1,8.9C135,257.6,130.6,258.6,125.5,258.6z"/>
				<path class="st5" d="M183,209.5c3.8,0,7.2,0.8,10.2,2.3c3,1.5,5.3,3.8,7.1,6.9c1.7,3.1,2.6,7.1,2.6,11.9v27.3H189v-25.2
					c0-3.8-0.8-6.7-2.5-8.5c-1.7-1.8-4.1-2.7-7.1-2.7c-2.2,0-4.2,0.5-5.9,1.4c-1.7,0.9-3.1,2.3-4.1,4.2c-1,1.8-1.5,4.3-1.5,7.3v23.6
					H154v-65.8h13.8v31.3l-3.1-4c1.7-3.2,4.2-5.6,7.4-7.4C175.3,210.3,178.9,209.5,183,209.5z"/>
				<path class="st5" d="M234.7,258.6c-5,0-9.5-1.1-13.4-3.2c-3.9-2.1-7-5-9.3-8.7c-2.2-3.7-3.4-7.9-3.4-12.6c0-4.8,1.1-9,3.4-12.7
					c2.2-3.7,5.3-6.6,9.3-8.7c3.9-2.1,8.4-3.1,13.4-3.1c5.1,0,9.6,1.1,13.6,3.1c4,2.1,7.1,5,9.3,8.7c2.2,3.7,3.4,7.9,3.4,12.7
					c0,4.8-1.1,9-3.4,12.7c-2.2,3.7-5.4,6.6-9.3,8.7C244.3,257.6,239.8,258.6,234.7,258.6z M234.7,247.3c2.4,0,4.4-0.5,6.3-1.6
					c1.8-1,3.2-2.6,4.3-4.6c1.1-2,1.6-4.4,1.6-7.1c0-2.8-0.5-5.1-1.6-7.1s-2.5-3.4-4.3-4.5c-1.8-1-3.9-1.6-6.2-1.6
					c-2.3,0-4.4,0.5-6.2,1.6c-1.8,1-3.3,2.5-4.4,4.5c-1.1,2-1.6,4.3-1.6,7.1c0,2.7,0.5,5.1,1.6,7.1c1.1,2,2.6,3.5,4.4,4.6
					C230.4,246.8,232.5,247.3,234.7,247.3z"/>
				<path class="st5" d="M294.8,258.6c-5,0-9.5-1.1-13.4-3.2c-3.9-2.1-7-5-9.3-8.7c-2.2-3.7-3.4-7.9-3.4-12.6c0-4.8,1.1-9,3.4-12.7
					c2.2-3.7,5.3-6.6,9.3-8.7c3.9-2.1,8.4-3.1,13.4-3.1c5.1,0,9.6,1.1,13.6,3.1c4,2.1,7.1,5,9.3,8.7c2.2,3.7,3.4,7.9,3.4,12.7
					c0,4.8-1.1,9-3.4,12.7c-2.2,3.7-5.4,6.6-9.3,8.7S299.9,258.6,294.8,258.6z M294.8,247.3c2.4,0,4.4-0.5,6.3-1.6
					c1.8-1,3.2-2.6,4.3-4.6c1.1-2,1.6-4.4,1.6-7.1c0-2.8-0.5-5.1-1.6-7.1c-1.1-2-2.5-3.4-4.3-4.5c-1.8-1-3.9-1.6-6.2-1.6
					c-2.3,0-4.4,0.5-6.2,1.6c-1.8,1-3.3,2.5-4.4,4.5c-1.1,2-1.6,4.3-1.6,7.1c0,2.7,0.5,5.1,1.6,7.1c1.1,2,2.6,3.5,4.4,4.6
					C290.5,246.8,292.5,247.3,294.8,247.3z"/>
				<path class="st5" d="M326.8,257.9v-65.8h13.8v65.8H326.8z"/>
				<path class="st5" d="M365.8,258.6c-3.7,0-6.8-0.6-9.5-1.9c-2.7-1.3-4.7-3-6.2-5.2c-1.4-2.2-2.2-4.6-2.2-7.4
					c0-2.8,0.7-5.2,2.1-7.4c1.4-2.2,3.6-3.8,6.6-5c3-1.2,7-1.8,11.9-1.8h12.6v8h-11.2c-3.3,0-5.5,0.5-6.7,1.6
					c-1.2,1.1-1.8,2.4-1.8,4c0,1.8,0.7,3.2,2.1,4.2c1.4,1,3.3,1.6,5.6,1.6s4.5-0.5,6.3-1.6c1.9-1.1,3.2-2.7,3.9-4.9l2.1,6.5
					c-1,3-2.8,5.2-5.5,6.9C373.4,257.8,370,258.6,365.8,258.6z M380.3,257.9v-9.3l-0.9-2v-16.7c0-3-0.9-5.3-2.7-6.9
					c-1.8-1.7-4.6-2.5-8.3-2.5c-2.5,0-5,0.4-7.5,1.2s-4.6,1.9-6.3,3.2l-4.9-9.7c2.6-1.9,5.7-3.3,9.4-4.3c3.7-1,7.4-1.5,11.2-1.5
					c7.3,0,12.9,1.7,16.9,5.1c4,3.4,6,8.8,6,16.1v27.2H380.3z"/>
				<path class="st5" d="M398.6,275.1v-64.9h13.2v9.8l-0.3,14.2l0.9,14.1v26.9H398.6z M426.8,258.6c-4,0-7.4-0.9-10.5-2.7
					c-3-1.8-5.4-4.5-7.1-8.1c-1.7-3.6-2.5-8.2-2.5-13.8c0-5.6,0.8-10.2,2.4-13.8c1.6-3.6,3.9-6.3,7-8.1c3-1.8,6.6-2.7,10.7-2.7
					c4.6,0,8.6,1,12.2,3.1c3.6,2,6.4,4.9,8.5,8.6c2.1,3.7,3.1,8,3.1,13c0,5-1.1,9.4-3.1,13c-2.1,3.6-4.9,6.5-8.5,8.5
					C435.4,257.6,431.3,258.6,426.8,258.6z M424.5,247.3c2.3,0,4.4-0.5,6.2-1.6c1.8-1.1,3.3-2.6,4.3-4.6c1.1-2,1.6-4.3,1.6-7.1
					c0-2.8-0.5-5.1-1.6-7.1c-1.1-2-2.5-3.4-4.3-4.5c-1.8-1-3.9-1.6-6.2-1.6c-2.3,0-4.4,0.5-6.2,1.6c-1.8,1-3.3,2.5-4.4,4.5
					c-1.1,2-1.6,4.3-1.6,7.1c0,2.7,0.5,5.1,1.6,7.1c1.1,2,2.6,3.5,4.4,4.6C420.1,246.7,422.1,247.3,424.5,247.3z"/>
			</g>
		</g>
	</g>
</g>
</svg>
