<?xml version="1.0" encoding="UTF-8"?>
<svg id="Layer_1" data-name="Layer 1" xmlns="http://www.w3.org/2000/svg" viewBox="0 0 200 200">
  <defs>
    <style>
      .cls-1 {
        fill: #1d252c;
      }

      .cls-2 {
        fill: #e3e3e4;
      }

      .cls-3 {
        fill: #db0032;
      }
    </style>
  </defs>
  <g>
    <rect class="cls-1" x="10.03" y="27.82" width="179.95" height="144.36" rx="22.38" ry="22.38"/>
    <path class="cls-3" d="M28.49,27.82h143.02c10.19,0,18.47,8.27,18.47,18.47v3.38H10.03v-3.38c0-10.19,8.27-18.47,18.47-18.47h-.01Z"/>
    <circle class="cls-1" cx="37.71" cy="40.51" r="4.19"/>
    <circle class="cls-2" cx="51.64" cy="40.51" r="4.19"/>
    <circle class="cls-2" cx="65.57" cy="40.51" r="4.19"/>
  </g>
  <g>
    <path class="cls-3" d="M146.5,109.14c0-21.06-15.26-38.51-35.32-42-.36-.06-.74-.11-1.1-.17-1.14-.17-2.29-.29-3.46-.37-.54-.04-1.09-.07-1.64-.08-.39,0-.77-.06-1.16-.06-.6,0-1.19.07-1.78.09-.76.03-1.52.05-2.3.12-.35.03-.7.09-1.04.13-1.19.13-2.38.23-3.6.45-27.65,5.03-42.51,35.05-30.4,60.44.51,1.06.98,2.13,1.48,3.24-3.67,5.13-7.23,10.1-10.78,15.08-.62.87-1.4,1.69-1.73,2.66-.26.75-.23,1.96.23,2.48.48.54,1.61.65,2.47.65.61,0,1.23-.45,1.84-.73,6.03-2.8,12.05-5.61,18.08-8.42.24-.11.47-.23.71-.35,3.28,2.66,6.96,4.82,10.94,6.43.03.02.06.06.09.08,1.21.77,2.61,1.39,4.01,1.69,2.41.52,4.81.85,7.23,1.07.21.02.42.03.62.05.99.08,1.98.14,2.97.15.34,0,.66.05,1,.05.8,0,1.58-.08,2.37-.12.24-.02.48-.02.72-.04,22.12-1.59,39.58-19.99,39.58-42.52h-.03Z"/>
    <g>
      <circle class="cls-1" cx="80.55" cy="108.05" r="5.56"/>
      <circle class="cls-1" cx="103.27" cy="108.05" r="5.56"/>
      <circle class="cls-1" cx="126.46" cy="108.05" r="5.56"/>
    </g>
  </g>
</svg>