<?xml version="1.0" encoding="utf-8"?>
<!-- Generator: Adobe Illustrator 28.0.0, SVG Export Plug-In . SVG Version: 6.00 Build 0)  -->
<svg version="1.1" id="Layer_1" xmlns="http://www.w3.org/2000/svg" xmlns:xlink="http://www.w3.org/1999/xlink" x="0px" y="0px"
	 viewBox="0 0 500 300" style="enable-background:new 0 0 500 300;" xml:space="preserve">
<style type="text/css">
	.st0{fill:#F05123;}
	.st1{fill:#7DA7AD;}
	.st2{fill-rule:evenodd;clip-rule:evenodd;fill:#F05123;}
</style>
<g id="Group_41" transform="translate(-14.215 -27.695)">
	<g id="Group_39" transform="translate(46.458 27.82)">
		<g id="Group_34" transform="translate(82.915)">
			<path id="Path_26" class="st0" d="M343.4,202.1c-19.6,0-36-16-36-36V95.6h8.7v47.3c0.4-0.7,1.1-1.1,1.8-1.8
				c14.2-13.8,36.7-13.8,50.5,0c13.8,13.8,13.8,36.7,0,50.9C361.9,198.5,352.9,202.5,343.4,202.1z M343.4,139.2
				c-14.9,0-26.9,12-26.9,26.9l0,0c0,14.9,12,26.9,26.9,26.9c14.9,0,26.9-12,26.9-26.9C370.3,151.2,358.3,139.2,343.4,139.2
				L343.4,139.2z"/>
		</g>
		<g id="Group_35">
			<path id="Path_27" class="st0" d="M125,202.1c-19.6,0-36-16-36-36c0-9.5,3.6-18.5,10.5-25.4c14.2-14.2,36.7-14.2,50.9,0
				c0.7,0.7,1.1,1.1,1.5,1.8V95.6h8.7v70.9C160.6,186.1,144.6,202.1,125,202.1z M125,139.2c-14.9,0-26.9,12-26.9,26.9
				c0,7.3,2.9,14.2,8,18.9c10.5,10.5,27.6,10.5,38.2,0l0,0c10.5-10.5,10.5-27.6,0-38.2C138.8,142.2,131.9,139.2,125,139.2L125,139.2
				z"/>
		</g>
		<g id="Group_36" transform="translate(21.096 10.165)">
			<path id="Path_28" class="st0" d="M179.1,192.2c-9.5,0-18.2-3.6-24.7-10.5c-6.5-6.5-10.2-16-9.8-25.4v-33.8h8.7v33.8
				c-0.4,7.3,2.2,14.2,7.3,18.9l0,0c9.8,10.2,25.8,10.5,36,1.1c0.4-0.4,0.7-0.7,1.1-1.1c5.1-5.1,7.6-12,7.3-18.9v-33.8h8.7v33.8
				c0.4,9.5-3.3,18.5-9.8,25.4C197.3,188.2,188.5,192.2,179.1,192.2z"/>
		</g>
		<g id="Group_37" transform="translate(41.051 9.588)">
			<path id="Path_29" class="st0" d="M233.1,192.5c-20,0-36-16-36-36c0-9.5,3.6-18.5,10.5-25.4c13.8-13.8,36.7-13.8,50.5,0.4
				c4.4,4.4,7.6,9.8,9.1,16l0.7,2.2l-8.7,2.2l-0.4-2.2c-1.5-5.8-4.7-10.9-9.5-14.2c-4.7-3.6-10.5-5.8-16.7-5.8
				c-14.9,0-26.9,12-26.9,26.9c0,7.3,2.9,14.2,8,18.9c5.1,5.1,12,8,19.3,8c12.4,0,22.9-8.4,26.2-20l0.7-2.2l8.7,2.2l-0.7,2.2
				C263.3,181.6,249.1,192.5,233.1,192.5L233.1,192.5z"/>
		</g>
		<g id="Group_38" transform="translate(61.407 9.588)">
			<path id="Path_30" class="st0" d="M286.7,192.5c-20,0-36-16-36-35.6c0-9.5,3.6-18.5,10.5-25.4c13.8-14.2,36.7-14.2,50.5,0
				c6.5,6.5,10.5,16,10.5,25.4v33.8h-8.7v-10.2c-0.4,0.7-1.1,1.1-1.5,1.8C305.3,188.9,296.2,192.9,286.7,192.5z M286.7,129.6
				c-14.9,0-26.9,12-26.9,26.9c0,7.3,2.9,14.2,8,19.3c10.5,10.5,27.6,10.2,38.2-0.4c10.2-10.5,10.2-27.3,0-37.8
				C300.5,132.5,293.6,129.6,286.7,129.6z"/>
		</g>
	</g>
	<g id="Group_40" transform="translate(14.215 27.695)">
		<path id="Path_31" class="st0" d="M37.8,96.4c12.7-2.9,26.2-0.4,36.7,7.3c5.5,3.6,9.8,8.4,13.1,14.2c10.5,17.4,8.7,39.6-4.4,54.9
			c-8.7,10.2-21.4,16.4-34.9,17.1c-6.2,0-13.1-1.1-19.3-3.6c-3.3-1.1-6.2-2.9-8.7-4.7c-2.9-1.8-5.5-4-8-6.5c-2.2-2.5-4-5.5-5.5-8.7
			s-2.2-6.5-2.5-10.2c-0.7-6.9,0.7-13.8,4.4-20c1.5-2.9,3.6-5.8,6.2-8s5.5-4.4,8.7-5.5c6.2-2.9,13.4-3.6,20-2.2
			c3.3,0.7,6.5,1.8,9.5,3.6c1.5,0.7,2.9,1.8,4,2.9c1.5,1.1,2.5,2.2,3.6,3.3c4.4,4.7,7.3,10.9,8,17.4H68c-1.5-6.2-4.7-11.6-9.1-15.6
			c-1.1-1.1-2.2-1.8-3.6-2.9c-1.1-0.7-2.5-1.5-4-2.2c-2.5-1.1-5.5-2.2-8.4-2.5c-5.8-0.7-11.6,0.4-17.1,2.9c-5.1,2.5-9.5,6.5-12,11.6
			c-5.8,10.2-4.4,22.9,3.3,32c1.8,2.2,4,4,6.5,5.8c2.5,1.8,5.1,3.3,7.6,4.4c5.5,2.5,11.6,3.6,17.4,3.6c24.4-0.4,43.6-20.4,42.9-44.7
			c0-1.5,0-2.5-0.4-4c-0.7-6.2-2.5-12-5.5-17.4c-3.3-5.5-7.3-10.2-12.4-13.8c-10.2-7.6-22.9-10.5-35.6-8L37.8,96.4z"/>
		<path id="Path_32" class="st1" d="M23.3,108.8c11.3-6.9,24.7-8.4,37.1-4.7c6.2,1.8,12,5.1,17.1,9.1c15.6,13.1,21.1,34.5,13.4,53.4
			c-5.1,12.4-14.9,22.2-27.6,26.9c-6.2,2.5-13.1,3.3-19.6,2.9c-3.3-0.4-6.5-0.7-9.8-1.5s-6.5-2.2-9.5-3.6c-2.9-1.8-5.8-4-8-6.5
			c-2.2-2.5-4.4-5.5-5.8-8.7c-2.9-6.5-3.6-13.4-2.2-20.4c0.7-3.3,1.8-6.5,3.6-9.8c1.8-2.9,4-5.8,6.5-8c5.1-4.7,11.6-7.6,18.2-8.4
			c3.3-0.4,6.9-0.4,10.2,0.4c1.5,0.4,3.3,0.7,4.7,1.5c1.5,0.4,2.9,1.1,4.4,2.2c5.8,3.3,10.2,8,13.1,14.2l-0.4,0.4
			c-3.3-5.5-8-9.5-13.8-12c-1.5-0.7-2.9-1.1-4.4-1.5s-2.9-0.7-4.4-0.7c-2.9-0.4-5.8-0.4-8.7,0.4c-5.8,1.1-11.3,4-15.3,8
			c-2.2,2.2-3.6,4.4-5.1,6.9s-2.2,5.5-2.9,8c-2.2,11.6,2.9,23.3,13.1,29.4c2.2,1.1,4.7,2.2,7.6,3.3c2.9,0.7,5.8,1.5,8.7,1.8
			c5.8,0.4,12-0.4,17.8-2.2c22.9-8,34.9-33.1,26.5-56c-0.4-1.1-0.7-2.5-1.5-3.6c-2.5-5.5-6.2-10.5-10.9-14.9c-4.7-4-10.2-7.3-16-9.1
			c-12-4-25.1-2.5-36.3,3.6L23.3,108.8z"/>
		<path id="Path_33" class="st0" d="M12.7,126.6c8-10.2,20-16.4,33.1-17.4c6.5-0.4,13.1,0.7,19.3,2.9c19.3,6.9,31.6,25.4,30.9,45.8
			c-0.4,13.4-6.5,26.2-16.7,34.9c-5.1,4.4-10.9,7.6-17.4,9.5c-3.3,1.1-6.5,1.5-9.8,1.8s-6.9,0.4-10.2-0.4c-3.3-0.7-6.9-1.8-9.8-3.3
			c-2.9-1.8-5.8-3.6-8.4-6.2c-4.7-5.1-8-11.6-9.1-18.5c-0.4-3.3-0.4-6.9,0-10.2c0.4-3.3,1.8-6.5,3.3-9.8c3.3-6.2,8.4-10.9,14.2-14.2
			c2.9-1.5,6.2-2.5,9.5-2.9c1.8-0.4,3.3-0.4,5.1-0.4s3.3,0,5.1,0.4c6.5,1.1,12.4,4,17.1,8.7l-0.4,0.4c-4.7-4-10.9-6.2-17.1-6.5
			c-1.5,0-2.9,0-4.4,0s-2.9,0.4-4.4,0.7c-3.3,0.7-5.8,1.8-8.4,3.3c-5.1,2.9-9.1,7.6-11.6,12.7s-3.3,11.3-2.2,16.7
			c1.8,11.6,10.9,20.7,22.5,23.3c2.9,0.7,5.8,0.7,8.7,0.4c9.1-0.4,17.8-4,24.7-9.5c18.5-15.3,21.1-42.9,5.8-61.8
			c-0.7-1.1-1.8-1.8-2.5-2.9c-4.4-4.4-9.5-8-15.3-10.2s-12-3.3-18.2-3.3c-13.1,1.1-24.7,6.5-33.1,16.4L12.7,126.6z"/>
		<path id="Path_34" class="st2" d="M62.9,152.4c-3.3-3.3-3.3-8.7,0-12.4c3.3-3.3,8.7-3.3,12.4,0c3.3,3.3,3.3,8.7,0,12.4
			C72,155.6,66.5,155.6,62.9,152.4"/>
	</g>
</g>
</svg>
