<?xml version="1.0" encoding="UTF-8"?>
<svg id="Layer_1" data-name="Layer 1" xmlns="http://www.w3.org/2000/svg" viewBox="0 0 500 300">
  <defs>
    <style>
      .cls-1 {
        fill: #e4e5e6;
      }

      .cls-1, .cls-2, .cls-3 {
        stroke-width: 0px;
      }

      .cls-2 {
        fill: #a7a9ac;
      }

      .cls-3 {
        fill: #231f20;
      }
    </style>
  </defs>
  <g>
    <g>
      <path class="cls-3" d="m194.44,112.93h6.7l8.38,25.2,8.45-25.2h6.7l6.06,36.14h-6.65l-3.87-22.82-7.68,22.82h-6.06l-7.61-22.82-3.97,22.82h-6.71l6.26-36.14Z"/>
      <path class="cls-3" d="m253.27,112.02c5.11,0,9.51,1.85,13.19,5.55,3.68,3.7,5.52,8.21,5.52,13.54s-1.82,9.74-5.45,13.39c-3.63,3.65-8.03,5.48-13.21,5.48s-9.93-1.87-13.52-5.62c-3.59-3.75-5.38-8.21-5.38-13.36,0-3.46.83-6.63,2.51-9.53,1.67-2.9,3.97-5.2,6.89-6.89,2.93-1.7,6.08-2.54,9.45-2.54Zm-.07,6.73c-3.35,0-6.16,1.16-8.44,3.49-2.28,2.33-3.42,5.28-3.42,8.87,0,4,1.43,7.16,4.3,9.48,2.23,1.82,4.79,2.73,7.67,2.73,3.26,0,6.04-1.18,8.34-3.54,2.3-2.36,3.44-5.27,3.44-8.72s-1.16-6.35-3.47-8.73c-2.31-2.38-5.12-3.57-8.43-3.57Z"/>
      <path class="cls-3" d="m295.52,112.02c5.11,0,9.51,1.85,13.19,5.55,3.68,3.7,5.52,8.21,5.52,13.54s-1.82,9.74-5.45,13.39c-3.63,3.65-8.03,5.48-13.21,5.48s-9.93-1.87-13.52-5.62c-3.59-3.75-5.38-8.21-5.38-13.36,0-3.46.83-6.63,2.51-9.53,1.67-2.9,3.97-5.2,6.89-6.89,2.93-1.7,6.08-2.54,9.45-2.54Zm-.07,6.73c-3.35,0-6.16,1.16-8.44,3.49-2.28,2.33-3.42,5.28-3.42,8.87,0,4,1.43,7.16,4.3,9.48,2.23,1.82,4.79,2.73,7.67,2.73,3.26,0,6.04-1.18,8.34-3.54,2.3-2.36,3.44-5.27,3.44-8.72s-1.16-6.35-3.47-8.73c-2.31-2.38-5.12-3.57-8.43-3.57Z"/>
      <path class="cls-3" d="m320.74,112.93h6.6l15.46,23.78v-23.78h6.88v36.14h-6.62l-15.44-23.71v23.71h-6.88v-36.14Z"/>
      <path class="cls-3" d="m355.19,112.93h6.77l5.22,23.07,6.45-23.07h5.72l6.55,23.07,5.17-23.07h6.77l-8.14,36.14h-6.6l-6.66-23.36-6.53,23.36h-6.53l-8.18-36.14Z"/>
      <path class="cls-3" d="m414.23,112.93h6.98l13.9,36.14h-7.15l-2.83-7.44h-14.75l-2.94,7.44h-7.15l13.93-36.14Zm3.53,9.58l-4.85,12.41h9.67l-4.82-12.41Z"/>
      <path class="cls-3" d="m440.42,112.93h6.88v29.58h10.02v6.56h-16.9v-36.14Z"/>
      <path class="cls-3" d="m462.6,112.93h6.95v12.46l9.81-12.46h8.26l-12.62,16.13,13.85,20.01h-8.16l-11.14-16.06v16.06h-6.95v-36.14Z"/>
    </g>
    <g>
      <path class="cls-3" d="m279.69,167.45l-3.25,2.87c-1.14-1.59-2.3-2.38-3.48-2.38-.58,0-1.05.15-1.41.46-.37.31-.55.66-.55,1.04s.13.75.39,1.1c.36.46,1.43,1.45,3.22,2.96,1.67,1.4,2.69,2.28,3.04,2.65.89.9,1.52,1.76,1.89,2.58s.56,1.72.56,2.69c0,1.89-.65,3.45-1.96,4.68-1.31,1.23-3.01,1.85-5.11,1.85-1.64,0-3.07-.4-4.29-1.21-1.22-.8-2.26-2.07-3.13-3.79l3.69-2.22c1.11,2.04,2.39,3.05,3.83,3.05.75,0,1.39-.22,1.9-.66s.77-.95.77-1.52c0-.52-.19-1.04-.58-1.57s-1.24-1.32-2.56-2.4c-2.51-2.05-4.13-3.63-4.86-4.74-.73-1.11-1.1-2.22-1.1-3.33,0-1.6.61-2.97,1.83-4.11,1.22-1.14,2.72-1.72,4.51-1.72,1.15,0,2.24.27,3.29.8,1.04.53,2.17,1.5,3.38,2.91Z"/>
      <path class="cls-3" d="m285.85,164.31h4.71l4.3,8.29,4.28-8.29h4.65l-6.74,13.06v9.98h-4.42v-9.98l-6.77-13.06Z"/>
      <path class="cls-3" d="m322.68,167.45l-3.25,2.87c-1.14-1.59-2.3-2.38-3.48-2.38-.58,0-1.05.15-1.41.46-.37.31-.55.66-.55,1.04s.13.75.39,1.1c.36.46,1.43,1.45,3.22,2.96,1.67,1.4,2.69,2.28,3.04,2.65.89.9,1.52,1.76,1.89,2.58s.56,1.72.56,2.69c0,1.89-.65,3.45-1.96,4.68-1.31,1.23-3.01,1.85-5.11,1.85-1.64,0-3.07-.4-4.29-1.21-1.22-.8-2.26-2.07-3.13-3.79l3.69-2.22c1.11,2.04,2.39,3.05,3.83,3.05.75,0,1.39-.22,1.9-.66s.77-.95.77-1.52c0-.52-.19-1.04-.58-1.57s-1.24-1.32-2.56-2.4c-2.51-2.05-4.13-3.63-4.86-4.74-.73-1.11-1.1-2.22-1.1-3.33,0-1.6.61-2.97,1.83-4.11,1.22-1.14,2.72-1.72,4.51-1.72,1.15,0,2.24.27,3.29.8,1.04.53,2.17,1.5,3.38,2.91Z"/>
      <path class="cls-3" d="m328.21,164.31h12.74v4.32h-4.2v18.72h-4.45v-18.72h-4.09v-4.32Z"/>
      <path class="cls-3" d="m347.18,164.31h12.58v4.29h-8.22v4.17h8.22v4.21h-8.22v6.06h8.22v4.31h-12.58v-23.04Z"/>
      <path class="cls-3" d="m369.29,164.31h4.27l5.34,16.07,5.39-16.07h4.27l3.87,23.04h-4.24l-2.47-14.55-4.89,14.55h-3.87l-4.85-14.55-2.53,14.55h-4.28l3.99-23.04Z"/>
      <path class="cls-3" d="m411.22,167.45l-3.25,2.87c-1.14-1.59-2.3-2.38-3.48-2.38-.58,0-1.05.15-1.41.46-.37.31-.55.66-.55,1.04s.13.75.39,1.1c.36.46,1.43,1.45,3.22,2.96,1.67,1.4,2.69,2.28,3.04,2.65.89.9,1.52,1.76,1.89,2.58s.56,1.72.56,2.69c0,1.89-.65,3.45-1.96,4.68-1.31,1.23-3.01,1.85-5.11,1.85-1.64,0-3.07-.4-4.29-1.21-1.22-.8-2.26-2.07-3.13-3.79l3.69-2.22c1.11,2.04,2.39,3.05,3.83,3.05.75,0,1.39-.22,1.9-.66s.77-.95.77-1.52c0-.52-.19-1.04-.58-1.57-.39-.52-1.24-1.32-2.56-2.4-2.51-2.05-4.13-3.63-4.86-4.74-.73-1.11-1.1-2.22-1.1-3.33,0-1.6.61-2.97,1.83-4.11,1.22-1.14,2.72-1.72,4.51-1.72,1.15,0,2.24.27,3.29.8,1.04.53,2.17,1.5,3.38,2.91Z"/>
    </g>
  </g>
  <g>
    <g>
      <path class="cls-3" d="m70.55,75.3c-4.1,4.32-7.7,9.11-10.71,14.29l-38.53,22.24c10.47-18.2,28.2-31.69,49.24-36.53Z"/>
      <path class="cls-3" d="m56.6,95.77c-2.24,4.81-4,9.89-5.2,15.17l-38.39,22.16c1.19-5.27,2.91-10.33,5.12-15.12l38.47-22.21Z"/>
      <path class="cls-3" d="m50.45,115.82c-.64,4-.98,8.1-.98,12.28v.46l-38.32,22.12c0-.23,0-.46,0-.68,0-4.09.32-8.12.94-12.03l38.37-22.15Z"/>
      <path class="cls-3" d="m51.14,144.08l-38.28,22.11c-.78-3.67-1.31-7.43-1.55-11.28l38.31-22.12c.22,3.85.74,7.62,1.52,11.29Z"/>
      <path class="cls-3" d="m55.54,158.04l-38.25,22.08c-1.4-3.27-2.58-6.66-3.52-10.14l38.27-22.1c.93,3.49,2.1,6.89,3.49,10.16Z"/>
      <path class="cls-3" d="m62.33,170.62l-38.22,22.06c-1.96-2.91-3.72-5.96-5.26-9.14l38.23-22.08c1.55,3.18,3.3,6.24,5.24,9.16Z"/>
      <path class="cls-3" d="m71.46,181.83h0s-6.08,3.51-6.08,3.51l-32.1,18.53c-2.52-2.54-4.85-5.26-7-8.14l38.21-22.06c.11.15.22.3.33.44.01.02.02.03.03.05.03.04.06.08.09.13.05.07.11.15.17.22.04.06.09.12.14.18.06.08.12.16.18.23.07.1.15.19.22.29.07.08.13.17.2.25.06.07.11.14.17.21.09.11.17.22.26.32.04.05.09.11.13.16.08.1.16.2.24.3.01.01.02.03.03.04.04.05.08.09.12.14.09.11.18.22.28.33.04.05.08.1.12.14,0,.01.02.02.03.03.09.11.19.23.28.34,0,0,0,0,0,.01,0,0,0,0,0,0,.02.03.05.06.07.08.11.13.21.25.32.38.1.12.2.23.3.35.1.12.2.23.3.34.1.11.2.23.3.34s.2.23.31.34c.14.15.27.3.41.45.14.15.27.3.41.45.07.07.14.15.21.22.07.07.14.15.21.22.14.15.28.3.42.44.11.12.22.23.33.35.11.11.22.23.34.34Z"/>
      <path class="cls-3" d="m83.14,191.58l-38.14,22.02c-3.15-2.12-6.13-4.47-8.92-7.03l38.17-22.03c2.78,2.55,5.75,4.91,8.89,7.04Z"/>
      <path class="cls-3" d="m143.37,202.8c-4.04,4.24-8.55,8.02-13.46,11.25l-.02.02c-2.49,1.64-5.08,3.13-7.76,4.48-10.32,5.18-21.99,8.1-34.33,8.1-.26,0-.52,0-.77,0l37.94-21.91c.38.01.77.01,1.16.01,5.93,0,11.7-.68,17.25-1.95Z"/>
      <path class="cls-3" d="m118.18,204.34l-37.99,21.94c-5.37-.53-10.58-1.61-15.56-3.19l38.07-21.98c4.96,1.59,10.13,2.69,15.48,3.24Z"/>
      <path class="cls-3" d="m98.07,199.46l-38.09,21.99c-3.97-1.55-7.79-3.42-11.41-5.58l38.13-22.02c3.61,2.17,7.41,4.05,11.37,5.61Z"/>
    </g>
    <g>
      <path class="cls-2" d="m87.96,73.35l-28.12,16.24c3.01-5.18,6.61-9.97,10.71-14.29,5.54-1.27,11.31-1.95,17.25-1.95h.16Z"/>
      <path class="cls-2" d="m110.57,76.79l-59.17,34.16c1.2-5.29,2.96-10.37,5.2-15.17l38.28-22.1c5.41.5,10.66,1.55,15.69,3.11Z"/>
      <path class="cls-2" d="m126.73,83.95l-23.58,13.62s-.02,0-.02-.01c-.69-.31-1.4-.57-2.14-.77l-23.4,13.51s.02-.05.04-.07c.28-.61.6-1.19.95-1.78.12-.19.23-.38.35-.57.06-.1.12-.19.18-.28.13-.18.25-.37.38-.55.06-.1.13-.19.19-.28.3-.41.61-.81.94-1.21.11-.13.22-.26.33-.39.22-.26.45-.51.69-.76h0c.08-.09.16-.17.24-.25.08-.08.16-.17.24-.25.04-.04.08-.08.13-.12.12-.13.25-.25.38-.37.17-.16.34-.32.52-.48.2-.18.4-.36.6-.53.07-.06.14-.12.21-.18.19-.15.37-.3.56-.45.19-.15.38-.3.58-.44.19-.15.39-.29.59-.43.3-.21.59-.42.9-.62.15-.1.3-.21.45-.3.5-.33,1.01-.64,1.52-.93.34-.19.67-.38,1.02-.55.17-.09.34-.18.52-.26.12-.05.23-.11.35-.16.06-.02.12-.05.18-.08.05-.02.12-.05.17-.08h.01c.05-.03.11-.05.17-.08.12-.05.24-.1.35-.15.76-.32,1.53-.58,2.32-.8.18-.05.35-.09.53-.13.15-.04.31-.07.46-.1.16-.03.31-.06.47-.09h0c.16-.03.32-.05.47-.08.68-.1,1.36-.15,2.02-.15.42,0,.84.02,1.24.06.41.04.82.1,1.22.18.05,0,.09.02.14.02-1.76-.46-3.65-.58-5.65-.27-3.73.59-7.15,2.41-10.22,4.61-4.02,2.88-7.04,6.43-8.81,10.52-.01.02-.02.05-.03.07-.35.82-.65,1.66-.9,2.53,0,0,0,.02,0,.02l-25.01,14.44-.06.04v-.45c0-.19,0-.39,0-.58.03-3.98.36-7.89.98-11.7l64.79-37.41c3.82,1.47,7.51,3.23,11.01,5.27.16.09.32.19.47.28Z"/>
      <path class="cls-2" d="m74.87,128.36c.15.59.3,1.17.47,1.76l-22.26,12.85-1.94,1.12c-.05-.21-.09-.41-.13-.62,0-.05-.02-.1-.02-.14,0-.01,0-.03-.01-.04-.03-.17-.07-.35-.1-.52-.07-.35-.13-.7-.2-1.05-.02-.12-.04-.24-.06-.35-.02-.12-.04-.24-.06-.35-.02-.12-.04-.24-.06-.36-.02-.09-.03-.19-.05-.28-.02-.18-.05-.36-.08-.54-.01-.09-.02-.18-.04-.27-.13-.82-.24-1.65-.33-2.47-.02-.24-.05-.47-.08-.71-.01-.12-.02-.24-.04-.36-.01-.12-.02-.24-.04-.35-.01-.12-.02-.24-.03-.36-.01-.12-.02-.24-.03-.36-.02-.24-.04-.48-.06-.72-.01-.12-.02-.24-.03-.36,0-.12-.02-.24-.02-.36-.02-.24-.03-.48-.05-.72h0l24.11-13.92c-.1,1.73,0,3.51.29,5.36.22,1.38.52,2.75.85,4.13Z"/>
      <path class="cls-2" d="m139.27,93.2l-8.97,5.18-16.78,9.69c-.29-.5-.59-1.01-.91-1.5l-35.9,20.73c-.08-.34-.16-.67-.24-1.01-.1-.44-.19-.89-.28-1.34-.09-.44-.18-.89-.25-1.33-.04-.21-.07-.41-.1-.61-.05-.31-.08-.62-.12-.92,0-.04,0-.08-.01-.12-.04-.32-.06-.64-.08-.96-.07-1.1-.07-2.19.01-3.25l31.11-17.96,23.57-13.61c3.16,2.11,6.16,4.45,8.96,7Z"/>
      <path class="cls-2" d="m79.63,142.1c.23.55.46,1.09.69,1.63l-24.78,14.31c-.19-.45-.38-.9-.56-1.36-1.15-2.85-2.13-5.79-2.93-8.8l24.41-14.09c.94,2.82,2.04,5.61,3.17,8.32Z"/>
      <path class="cls-2" d="m149.12,104.01l-18.97,10.95-11.11,6.42c-.19-.56-.39-1.13-.58-1.69l-36.98,21.35c-.21-.5-.42-1.01-.63-1.52-.18-.43-.35-.86-.53-1.29-.27-.68-.53-1.36-.79-2.05-.11-.28-.21-.58-.32-.86-.32-.86-.62-1.73-.91-2.59l36.94-21.33,26.85-15.5c2.53,2.53,4.88,5.25,7.03,8.12Z"/>
      <path class="cls-2" d="m86.58,156.57s.02.02.02.04l-24.27,14.01s-.02-.02-.02-.04c-.02-.02-.03-.04-.04-.05-.11-.16-.21-.33-.32-.48-.11-.16-.21-.32-.32-.48-.01-.02-.03-.04-.04-.07-.21-.32-.41-.64-.61-.97-.07-.11-.13-.21-.2-.32-.13-.22-.27-.44-.4-.65-.1-.17-.19-.33-.3-.5-.1-.16-.19-.33-.29-.5-.19-.33-.38-.65-.56-.98-.32-.58-.65-1.18-.96-1.77-.09-.18-.18-.35-.27-.52-.13-.26-.27-.52-.4-.78-.08-.17-.18-.35-.26-.52-.08-.18-.17-.35-.25-.52l24.75-14.28c1.21,2.65,2.5,5.26,3.88,7.82.02.02.03.05.04.07.27.5.55,1,.82,1.5Z"/>
      <path class="cls-2" d="m156.61,116.18l-20.35,11.75-11.97,6.91s-.01-.02-.02-.04c-.25-.51-.49-1.04-.73-1.55l-35.9,20.72s0-.01-.01-.02c-.01-.02-.02-.03-.03-.05-.03-.06-.06-.12-.09-.18-.33-.6-.64-1.21-.96-1.81-.75-1.44-1.47-2.9-2.16-4.37-.12-.24-.23-.48-.35-.73-.12-.24-.23-.49-.34-.73l36.59-21.12,31.02-17.91c1.96,2.9,3.74,5.94,5.3,9.11Z"/>
      <path class="cls-2" d="m93.26,167.24c.33.48.67.95,1.02,1.42l-22.81,13.17c-.12-.11-.22-.22-.34-.34-.11-.12-.22-.23-.33-.35-.14-.15-.28-.3-.42-.44-.07-.07-.14-.15-.21-.22-.07-.07-.14-.15-.21-.22l-.42-.45c-.13-.15-.27-.3-.41-.45-.1-.12-.21-.23-.31-.34-.1-.12-.2-.23-.3-.35-.1-.12-.2-.23-.3-.35-.1-.12-.2-.23-.3-.35-.11-.13-.22-.25-.32-.38-.02-.02-.05-.05-.07-.08t0,0s0,0,0-.01c-.1-.11-.19-.22-.28-.33,0-.01-.02-.02-.02-.04-.04-.05-.08-.1-.12-.15-.09-.11-.19-.22-.28-.33-.04-.05-.07-.09-.12-.14-.01-.01-.02-.03-.04-.04-.08-.1-.16-.2-.24-.3-.04-.05-.08-.11-.13-.16-.08-.1-.18-.21-.26-.32-.05-.07-.11-.14-.17-.21-.07-.08-.13-.17-.19-.25-.08-.1-.15-.19-.22-.29-.06-.07-.12-.15-.18-.23-.04-.06-.09-.12-.13-.18-.06-.07-.12-.15-.17-.22-.03-.04-.06-.08-.1-.13,0-.01-.02-.03-.03-.04-.12-.15-.22-.3-.33-.45l23.98-13.84c1.02,1.71,2.09,3.41,3.2,5.07.52.78,1.05,1.56,1.59,2.33Z"/>
      <path class="cls-2" d="m161.74,129.71l-19.15,11.05-11.69,6.75c-.26-.52-.53-1.02-.81-1.54l-34.93,20.16c-.16-.24-.33-.47-.5-.72-.41-.59-.81-1.18-1.2-1.76-1.07-1.62-2.1-3.25-3.1-4.91l35.59-20.55,32.22-18.6c1.41,3.26,2.61,6.63,3.56,10.12Z"/>
      <path class="cls-2" d="m104.45,179.21s.04.03.05.04l-21.36,12.33s-.04-.02-.05-.04c-.23-.15-.46-.32-.69-.47-.08-.05-.16-.12-.25-.18-.2-.14-.41-.28-.61-.42h-.01s-.04-.04-.06-.05c0,0-.01,0-.02-.01-1.11-.8-2.2-1.62-3.26-2.48-.14-.12-.28-.22-.42-.34-.15-.12-.3-.24-.45-.37-.45-.37-.9-.75-1.33-1.12-.15-.13-.29-.25-.44-.38-.15-.13-.29-.25-.43-.39-.29-.25-.58-.52-.87-.78l22.33-12.89c1.91,2.33,4,4.51,6.32,6.39.02.02.04.04.07.05.48.39.97.76,1.47,1.11Z"/>
      <path class="cls-2" d="m164.26,144.74l-13.25,7.65-15.14,8.74v-.07c-.05-.62-.13-1.23-.23-1.84l-30.72,17.74s-.04-.04-.07-.05c-1.3-1.03-2.52-2.16-3.68-3.37-.2-.21-.4-.42-.59-.63-.2-.21-.39-.42-.59-.64-.19-.21-.38-.43-.58-.65-.19-.22-.38-.44-.56-.66h0c-.12-.14-.24-.28-.35-.42l34.08-19.68,30.07-17.37c.81,3.65,1.35,7.42,1.6,11.25Z"/>
      <path class="cls-2" d="m124.97,204.74l29.62-17.1c-3.11,5.52-6.89,10.61-11.22,15.17-5.54,1.27-11.31,1.95-17.25,1.95-.38,0-.77,0-1.16-.01Z"/>
      <path class="cls-2" d="m162.67,166.48c-1.14,5.24-2.83,10.28-4.99,15.06l-39.5,22.81c-5.35-.55-10.52-1.65-15.48-3.24l59.98-34.63Z"/>
      <path class="cls-2" d="m164.45,150c0,3.95-.3,7.84-.87,11.63l-65.51,37.82c-3.96-1.56-7.76-3.44-11.37-5.6l21.46-12.39c1.3.66,2.67,1.21,4.1,1.64,7.19,2.15,15.24-1.82,19.46-8.01.04-.05.07-.11.1-.16-.05.07-.11.15-.17.22-.17.22-.35.43-.52.64-.06.07-.12.13-.18.21-.21.24-.44.48-.66.71-.22.23-.45.45-.69.67-.13.13-.27.25-.41.37-.35.31-.7.6-1.07.88-.16.12-.32.24-.48.36-.13.1-.27.19-.41.28-.08.05-.15.1-.23.15-.07.05-.15.1-.23.15-.08.05-.16.1-.24.15s-.16.09-.24.14-.16.09-.24.14l-.25.15c-.14.07-.27.15-.42.22-.04.02-.07.04-.12.06-.14.07-.28.15-.43.22-.1.05-.21.1-.32.15-.06.03-.12.05-.18.08-.08.04-.17.08-.25.11l-.25.11c-.09.04-.18.07-.27.11-.16.06-.33.12-.49.18-.18.06-.35.12-.52.17-.11.04-.21.07-.32.1-.21.06-.42.12-.64.18-.11.02-.21.05-.32.08-.02,0-.05.01-.07.02-.13.03-.26.05-.39.08-.25.05-.52.1-.78.14-.13.02-.26.04-.39.05-.08.01-.18.02-.27.03-.27.03-.55.05-.82.07-.13.01-.26.02-.39.02-.07,0-.15,0-.22,0h-.45c-.17,0-.34-.01-.51-.02-.08,0-.17-.01-.25-.02-.18-.01-.35-.03-.52-.05-.17-.02-.35-.04-.52-.07-.13-.02-.25-.04-.38-.06-.13-.02-.26-.05-.39-.07-.21-.05-.43-.1-.64-.15-.21-.05-.42-.12-.64-.18-.31-.1-.62-.2-.93-.31-.1-.04-.21-.07-.31-.11-.27-.1-.54-.21-.81-.32-.48-.2-.97-.42-1.44-.65l25.5-14.72,28.78-16.62c0,.35,0,.7,0,1.04Z"/>
    </g>
    <path class="cls-3" d="m100.98,96.79l-23.4,13.51s.02-.05.04-.07c.28-.61.6-1.19.95-1.78.12-.19.23-.38.35-.57.06-.1.12-.19.18-.28.13-.18.25-.37.38-.55.06-.1.13-.19.19-.28.3-.41.61-.81.94-1.21.11-.13.22-.26.33-.39.22-.26.45-.51.69-.76h0c.08-.09.16-.17.24-.25.08-.08.16-.17.24-.25.04-.04.08-.08.13-.12.12-.13.25-.25.38-.37.17-.16.34-.32.52-.48.2-.18.4-.36.6-.53.07-.06.14-.12.21-.18.19-.15.37-.3.56-.45.19-.15.38-.3.58-.44.19-.15.39-.29.59-.43.3-.21.59-.42.9-.62.15-.1.3-.21.45-.3.5-.33,1.01-.64,1.52-.93.34-.19.67-.38,1.02-.55.17-.09.34-.18.52-.26.12-.05.23-.11.35-.16.06-.02.12-.05.18-.08.05-.02.12-.05.17-.08h.01c.05-.03.11-.05.17-.08.12-.05.24-.1.35-.15.76-.32,1.53-.58,2.32-.8.18-.05.35-.09.53-.13.15-.04.31-.07.46-.1.16-.03.31-.06.47-.09h0c.16-.03.32-.05.47-.08.68-.1,1.36-.15,2.02-.15.42,0,.84.02,1.24.06.41.04.82.1,1.22.18.3.05.6.12.9.2.02,0,.04.01.06.02Z"/>
    <path class="cls-3" d="m112.61,106.57l-35.9,20.73c-.08-.34-.16-.67-.24-1.01-.1-.44-.19-.89-.28-1.34-.09-.44-.18-.89-.25-1.33-.04-.21-.07-.41-.1-.61-.05-.31-.08-.62-.12-.92,0-.04,0-.08-.01-.12-.04-.32-.06-.64-.08-.96-.07-1.1-.07-2.19.01-3.25l31.11-17.96c2.28,1.82,4.24,4.21,5.87,6.76Z"/>
    <path class="cls-3" d="m118.46,119.69l-36.98,21.35c-.21-.5-.42-1.01-.63-1.52-.18-.43-.35-.86-.53-1.29-.27-.68-.53-1.36-.79-2.05-.11-.28-.21-.58-.32-.86-.32-.86-.62-1.73-.91-2.59l36.94-21.33c.28.62.56,1.24.81,1.84.9,2.2,1.68,4.34,2.42,6.45Z"/>
    <path class="cls-3" d="m123.54,133.26l-35.9,20.72s0-.01-.01-.02c-.01-.02-.02-.03-.03-.05-.03-.06-.06-.12-.09-.18-.33-.6-.64-1.21-.96-1.81-.75-1.44-1.47-2.9-2.16-4.37-.12-.24-.23-.48-.35-.73-.12-.24-.23-.49-.34-.73l36.59-21.12c.77,2.2,1.58,4.41,2.55,6.69.21.5.44,1.01.67,1.52,0,.02.02.05.03.07Z"/>
    <path class="cls-3" d="m130.1,145.98l-34.93,20.16c-.16-.24-.33-.47-.5-.72-.41-.59-.81-1.18-1.2-1.76-1.07-1.62-2.1-3.25-3.1-4.91l35.59-20.55c1.35,2.6,2.78,5.22,4.14,7.78Z"/>
    <polygon class="cls-3" points="110.16 180.3 110.16 180.3 110.16 180.3 110.16 180.3"/>
    <path class="cls-3" d="m135.66,165.58c-.45,3-1.5,5.91-3.21,8.45-.25.38-.52.75-.81,1.11-.17.22-.35.43-.52.64-.06.07-.12.13-.18.21-.21.24-.44.48-.66.71-.22.23-.45.45-.69.67-.13.13-.27.25-.41.37-.35.31-.7.6-1.07.88-.16.12-.32.24-.48.36-.13.1-.27.19-.41.28-.08.05-.15.1-.23.15-.07.05-.15.1-.23.15-.08.05-.16.1-.24.15s-.16.09-.24.14-.16.09-.24.14l-.25.15c-.14.07-.27.15-.42.22-.04.02-.07.04-.12.06-.14.07-.28.15-.43.22-.1.05-.21.1-.32.15-.06.03-.12.05-.18.08-.08.04-.17.08-.25.11l-.25.11c-.09.04-.18.07-.27.11-.16.06-.33.12-.49.18-.18.06-.35.12-.52.17-.11.04-.21.07-.32.1-.21.06-.42.12-.64.18-.11.02-.21.05-.32.08-.02,0-.05.01-.07.02-.13.03-.26.05-.39.08-.25.05-.52.1-.78.14-.13.02-.26.04-.39.05-.08.01-.18.02-.27.03-.27.03-.55.05-.82.07-.13.01-.26.02-.39.02-.07,0-.15,0-.22,0h-.45c-.17,0-.34-.01-.51-.02-.08,0-.17-.01-.25-.02-.18-.01-.35-.03-.52-.05-.17-.02-.35-.04-.52-.07-.13-.02-.25-.04-.38-.06-.13-.02-.26-.05-.39-.07-.21-.05-.43-.1-.64-.15-.21-.05-.42-.12-.64-.18-.31-.1-.62-.2-.93-.31-.1-.04-.21-.07-.31-.11-.27-.1-.54-.21-.81-.32-.48-.2-.97-.42-1.44-.65l25.5-14.72Z"/>
    <path class="cls-3" d="m135.65,159.23l-30.72,17.74s-.04-.04-.07-.05c-1.3-1.03-2.52-2.16-3.68-3.37-.2-.21-.4-.42-.59-.63-.2-.21-.39-.42-.59-.64-.19-.21-.38-.43-.58-.65-.19-.22-.38-.44-.56-.66h0c-.12-.14-.24-.28-.35-.42l34.08-19.68c1.32,2.72,2.51,5.4,3.04,8.28,0,.03.01.06.02.08Z"/>
    <g>
      <path class="cls-3" d="m90.76,97.92h.01c-.06.02-.12.05-.18.08.05-.02.12-.05.17-.08Z"/>
      <path class="cls-3" d="m91.29,97.69c-.18.07-.35.15-.52.22.05-.03.11-.05.17-.08.12-.05.24-.1.35-.15Z"/>
      <path class="cls-3" d="m87.63,153.96s-.02-.03-.03-.05c-.03-.06-.06-.12-.09-.18.03.05.06.12.1.18,0,.01.02.03.02.05Z"/>
    </g>
    <g>
      <path class="cls-1" d="m131.13,175.78c-.06.07-.12.14-.18.21-.21.24-.43.48-.66.71-.22.23-.46.46-.69.68-.14.13-.27.25-.41.37-.35.31-.7.6-1.07.87-.16.12-.32.24-.49.36-.14.1-.27.19-.41.28-.08.05-.15.1-.23.15-.08.05-.15.1-.23.15-.08.05-.15.1-.23.15-.08.05-.16.1-.24.14-.08.05-.16.09-.24.14-.09.05-.17.1-.26.14-.14.08-.27.15-.41.22-.04.02-.08.04-.12.06-.14.07-.29.14-.43.21-.1.05-.21.1-.31.15-.06.03-.12.06-.18.08-.08.04-.17.07-.25.11-.08.04-.17.07-.25.1-.09.04-.18.07-.27.11-.16.06-.33.13-.5.18-.17.06-.34.12-.52.17-.1.03-.21.07-.32.1-.21.06-.43.12-.64.18-.11.03-.21.05-.32.08-.02,0-.05.01-.07.02-.13.03-.26.06-.39.08-.26.05-.52.1-.78.14-.13.02-.26.04-.39.05-.09.01-.18.02-.27.03-.27.03-.55.05-.82.07-.13,0-.27.01-.4.02-.07,0-.14,0-.21,0-.15,0-.29,0-.44,0,0,0,0,0,0,0-.17,0-.34,0-.51-.02-.09,0-.17-.01-.26-.02-.17-.01-.35-.03-.52-.05-.17-.02-.34-.04-.51-.07t0,0c-.13-.02-.26-.04-.38-.06-.13-.02-.26-.05-.38-.07t0,0c-.21-.04-.43-.09-.64-.15-.21-.05-.43-.11-.64-.18-.31-.1-.62-.2-.93-.31-.1-.04-.21-.07-.31-.11h0c-.27-.1-.54-.21-.8-.32-.49-.2-.97-.42-1.44-.65,0,0,0,0,0,0l-2.01,1.16c1.3.66,2.67,1.21,4.11,1.64,7.19,2.14,15.24-1.82,19.46-8.01.04-.05.07-.11.1-.16-.06.07-.11.15-.17.22-.17.22-.34.43-.52.64Z"/>
      <path class="cls-1" d="m103.14,97.57s-.02,0-.02-.01c-.69-.31-1.4-.57-2.14-.77l-23.4,13.51s.02-.05.04-.08c.29-.6.6-1.2.95-1.77.11-.19.23-.38.35-.57.06-.1.12-.19.18-.28.12-.19.25-.37.38-.56.06-.09.13-.18.2-.28.3-.41.61-.81.94-1.21.11-.13.22-.26.33-.39.22-.26.45-.51.69-.77,0,0,0,0,0,0,.08-.08.16-.17.24-.25.08-.08.16-.17.24-.25.04-.04.08-.08.12-.12.12-.12.25-.25.38-.37,0,0,0,0,0,0,.17-.16.34-.32.51-.48h0c.2-.18.4-.35.6-.53.07-.06.14-.12.2-.17.18-.15.37-.3.56-.45.19-.15.38-.3.57-.44.19-.15.39-.29.59-.43.3-.21.59-.42.9-.62.15-.1.3-.2.45-.3.5-.32,1-.64,1.52-.93.33-.19.67-.37,1.01-.55.17-.09.34-.17.52-.26h0c.11-.06.23-.11.35-.16.29-.13.58-.26.88-.39.76-.31,1.53-.58,2.32-.79.17-.05.35-.09.53-.13.15-.04.31-.07.46-.11.16-.03.31-.06.47-.09,0,0,0,0,0,0,.16-.03.31-.05.47-.08,1.56-.24,3.06-.19,4.48.08.05,0,.1.02.14.03-1.76-.46-3.65-.58-5.66-.27-3.72.59-7.15,2.41-10.21,4.61-4.02,2.88-7.04,6.43-8.81,10.52-.01.02-.02.05-.03.07-.35.82-.66,1.66-.9,2.53,0,0,0,.02,0,.03l2.01-1.16,26.59-15.35Z"/>
      <path class="cls-1" d="m113.52,108.07c-.29-.5-.59-1-.91-1.5l-35.9,20.73c-.08-.34-.16-.67-.24-1.01-.1-.44-.2-.89-.29-1.34-.09-.45-.17-.89-.25-1.34-.03-.2-.07-.41-.1-.61-.05-.31-.09-.62-.12-.92,0-.04,0-.08-.01-.11-.03-.32-.06-.64-.08-.96-.07-1.11-.07-2.19,0-3.25l-1.89,1.09c-.1,1.73,0,3.52.29,5.36.22,1.37.51,2.75.85,4.13.15.58.3,1.17.46,1.75l1.83-1.06,36.35-20.99Z"/>
      <path class="cls-1" d="m119.05,121.37c-.19-.56-.39-1.12-.58-1.69l-36.98,21.35c-.21-.5-.42-1.01-.63-1.52-.18-.43-.35-.86-.52-1.29h0c-.27-.68-.54-1.36-.8-2.05-.11-.29-.21-.57-.32-.86-.32-.86-.62-1.72-.91-2.59-.02-.05-.04-.11-.06-.17.02.06.03.11.05.17l-1.84,1.06c.94,2.82,2.04,5.61,3.17,8.32.23.55.46,1.09.69,1.63l1.86-1.07,36.87-21.28Z"/>
      <path class="cls-1" d="m124.28,134.85s-.01-.02-.02-.04c-.25-.52-.49-1.04-.72-1.55l-35.9,20.72s0-.01-.01-.02c0-.02-.02-.03-.03-.05-.03-.06-.06-.12-.1-.18-.32-.6-.64-1.2-.96-1.81-.75-1.44-1.47-2.89-2.16-4.36-.12-.24-.23-.49-.35-.73-.11-.24-.23-.49-.34-.74h0l-1.87,1.08c1.2,2.65,2.5,5.26,3.89,7.83.01.02.02.05.04.07.27.5.54,1,.82,1.5,0,.01.01.02.02.04l1.89-1.09,35.79-20.67Z"/>
      <path class="cls-1" d="m130.1,145.98l-34.93,20.16c-.17-.24-.33-.48-.5-.72-.41-.59-.81-1.18-1.2-1.77-1.07-1.61-2.11-3.25-3.1-4.91l-1.9,1.09c1.02,1.72,2.09,3.41,3.2,5.07.52.78,1.05,1.56,1.59,2.33.33.48.67.95,1.02,1.42l1.91-1.1,34.72-20.04c-.27-.51-.54-1.02-.81-1.54Z"/>
      <path class="cls-1" d="m135.87,161.06c-.04-.62-.12-1.23-.23-1.83l-30.72,17.73s-.05-.04-.07-.06c-1.29-1.03-2.52-2.16-3.68-3.37-.2-.21-.4-.42-.59-.63-.2-.21-.4-.43-.59-.64-.19-.21-.39-.43-.58-.65-.19-.22-.38-.44-.56-.66,0,0,0,0,0,0-.12-.14-.23-.28-.35-.42l-1.92,1.11c1.91,2.33,4,4.52,6.32,6.39.02.02.05.04.07.06.48.39.97.76,1.47,1.12.02.01.04.03.06.04l1.96-1.14h0l29.41-16.98s0-.05,0-.07Z"/>
    </g>
  </g>
</svg>