<?xml version="1.0" encoding="UTF-8"?>
<svg id="Layer_1" data-name="Layer 1" xmlns="http://www.w3.org/2000/svg" viewBox="0 0 200 200">
  <defs>
    <style>
      .cls-1, .cls-2 {
        fill: #1d252c;
      }

      .cls-2 {
        fill-rule: evenodd;
      }

      .cls-3 {
        fill: #db0032;
      }
    </style>
  </defs>
  <g>
    <circle class="cls-3" cx="26.2" cy="56.02" r="7.88"/>
    <path class="cls-3" d="M48.74,79.33c-.43.96-.83,1.94-1.2,2.92l-10.5-4.69c-2.32-1.04-4.19-2.9-5.23-5.22l-3.88-8.63-3.17-7.04,2.88-1.29,3.17,7.04,3.39,7.54c1.04,2.32,2.91,4.18,5.23,5.22l9.31,4.15Z"/>
    <circle class="cls-3" cx="177.58" cy="56.02" r="7.88"/>
    <path class="cls-3" d="M179.02,56.67l-3.17,7.04-3.88,8.63c-1.04,2.32-2.91,4.18-5.23,5.22l-10.71,4.78c-.37-.98-.77-1.96-1.19-2.93l9.52-4.24c2.33-1.04,4.19-2.9,5.24-5.22l3.39-7.53,3.17-7.04,2.88,1.29Z"/>
    <circle class="cls-3" cx="26.2" cy="149.86" r="7.88"/>
    <path class="cls-3" d="M48.92,126.47l-9.49,4.23c-2.33,1.04-4.19,2.9-5.23,5.22l-3.39,7.54-3.17,7.04-2.88-1.29,3.17-7.04,3.88-8.63c1.04-2.32,2.91-4.18,5.23-5.22l10.67-4.76c.37.98.78,1.96,1.21,2.91Z"/>
    <circle class="cls-3" cx="177.58" cy="149.86" r="7.88"/>
    <path class="cls-3" d="M179.02,149.21l-2.88,1.29-3.17-7.04-3.39-7.53c-1.04-2.32-2.91-4.18-5.24-5.22l-9.71-4.33c.44-.96.84-1.93,1.22-2.91l10.87,4.85c2.33,1.04,4.19,2.9,5.23,5.22l3.88,8.63,3.17,7.04Z"/>
    <circle class="cls-3" cx="130.88" cy="35.14" r="7.88"/>
    <path class="cls-3" d="M132.32,35.79l-3.18,7.04-3.24,7.17c-.96-.44-1.92-.85-2.91-1.24l3.27-7.23,3.18-7.04,2.88,1.29Z"/>
    <circle class="cls-3" cx="72.91" cy="35.14" r="7.88"/>
    <path class="cls-3" d="M80.75,48.69c-.98.38-1.95.79-2.91,1.22l-3.19-7.08-3.18-7.04,2.88-1.29,3.18,7.04,3.22,7.15Z"/>
    <circle class="cls-3" cx="130.88" cy="170.74" r="7.88"/>
    <path class="cls-3" d="M132.32,170.09l-2.88,1.29-3.18-7.04-3.46-7.66c.98-.38,1.95-.79,2.91-1.22l3.42,7.59,3.18,7.04Z"/>
    <circle class="cls-3" cx="72.91" cy="170.74" r="7.88"/>
    <path class="cls-3" d="M80.94,156.76l-3.42,7.58-3.18,7.04-2.88-1.29,3.18-7.04,3.38-7.5c.96.44,1.93.84,2.91,1.21Z"/>
  </g>
  <path class="cls-2" d="M163.15,91.52l-9.01-1.48c-1.46-.24-2.64-1.33-3.08-2.74-.88-2.83-2-5.55-3.34-8.15-.67-1.31-.6-2.89.26-4.09l5.3-7.37c1.07-1.49.91-3.54-.4-4.85l-10.9-10.9c-1.3-1.3-3.35-1.47-4.84-.4l-7.23,5.2c-1.2.86-2.81.93-4.12.23-2.64-1.39-5.42-2.56-8.32-3.48-1.41-.45-2.48-1.62-2.72-3.08l-1.43-8.74c-.3-1.81-1.87-3.15-3.71-3.15h-15.43c-1.84,0-3.41,1.34-3.7,3.15l-1.42,8.66c-.25,1.46-1.32,2.64-2.74,3.08-2.93.92-5.75,2.09-8.43,3.49-1.31.69-2.91.62-4.11-.24l-7.13-5.12c-1.49-1.07-3.54-.9-4.84.4l-10.9,10.9c-1.31,1.31-1.47,3.36-.4,4.85l5.15,7.17c.86,1.2.93,2.79.25,4.1-1.38,2.67-2.54,5.47-3.44,8.38-.44,1.42-1.62,2.5-3.08,2.75l-8.75,1.43c-1.82.3-3.15,1.87-3.15,3.71v15.42c0,1.84,1.33,3.41,3.15,3.71l8.91,1.46c1.46.23,2.62,1.31,3.07,2.71.91,2.83,2.06,5.56,3.42,8.15.69,1.31.63,2.91-.23,4.12l-5.3,7.38c-1.07,1.49-.91,3.54.4,4.84l10.9,10.91c1.3,1.3,3.36,1.47,4.84.39l7.53-5.4c1.2-.86,2.78-.93,4.09-.26,2.54,1.31,5.21,2.4,7.97,3.27,1.41.45,2.5,1.62,2.74,3.08l1.5,9.18c.3,1.82,1.87,3.15,3.71,3.15h15.43c1.84,0,3.41-1.33,3.71-3.15l1.51-9.26c.24-1.46,1.31-2.62,2.72-3.07,2.72-.88,5.35-1.97,7.86-3.27,1.31-.67,2.89-.61,4.09.25l7.64,5.48c1.49,1.08,3.54.91,4.84-.39l10.9-10.91c1.31-1.3,1.47-3.35.4-4.84l-5.45-7.58c-.86-1.2-.93-2.8-.25-4.11,1.32-2.52,2.43-5.18,3.32-7.93.45-1.4,1.62-2.47,3.07-2.71l9.18-1.5c1.82-.3,3.15-1.87,3.15-3.71v-15.42c0-1.84-1.33-3.41-3.15-3.71ZM101.89,142.95c-22.09,0-40-17.91-40-40.01s17.91-40,40-40,40,17.91,40,40-17.91,40.01-40,40.01Z"/>
  <path class="cls-1" d="M98.63,105.93h-9.13c.46-1.37.94-2.8,1.44-4.28.58-1.73,1.15-3.38,1.69-4.97.55-1.58,1.03-2.98,1.46-4.18h.26c.35,1.05.76,2.33,1.24,3.83.47,1.49,1,3.1,1.56,4.81.52,1.59,1.02,3.18,1.48,4.79Z"/>
  <g>
    <path class="cls-3" d="M101.89,69.19c-18.64,0-33.76,15.11-33.76,33.75s15.12,33.76,33.76,33.76,33.76-15.11,33.76-33.76-15.12-33.75-33.76-33.75ZM107.62,119.01c-.64.26-1.37.4-2.22.4-1.24,0-2.11-.22-2.62-.66-.51-.44-.91-1.14-1.19-2.09l-1.6-5.28h-11.85c-.09.3-.18.62-.27.95-.23.81-.47,1.63-.71,2.43-.25.81-.49,1.58-.71,2.3-.23.72-.42,1.34-.55,1.87-.39.14-.79.26-1.19.37-.4.11-.91.16-1.51.16-1.2,0-2.13-.24-2.8-.71-.67-.48-1.01-1.15-1.01-2.04,0-.42.06-.84.19-1.24.12-.4.27-.87.45-1.4.35-1.16.82-2.62,1.4-4.39.58-1.76,1.24-3.66,1.96-5.71.73-2.04,1.46-4.1,2.19-6.16.74-2.06,1.44-3.99,2.12-5.79.67-1.8,1.23-3.29,1.69-4.49.45-.25,1.14-.49,2.06-.74.91-.25,1.82-.37,2.69-.37,1.27,0,2.42.18,3.44.55,1.02.37,1.67.98,1.95,1.82.74,1.9,1.53,4.11,2.35,6.61.83,2.5,1.68,5.11,2.57,7.83.88,2.71,1.72,5.35,2.51,7.9.79,2.55,1.49,4.86,2.09,6.9-.32.38-.79.71-1.43.98ZM121.21,118.88c-.28.07-.72.16-1.32.26-.61.11-1.22.16-1.85.16-1.34,0-2.29-.25-2.85-.74-.57-.5-.85-1.32-.85-2.48v-29.24c.32-.07.78-.16,1.37-.26.6-.11,1.2-.16,1.8-.16,1.31,0,2.25.23,2.83.69.58.45.87,1.31.87,2.54v29.24Z"/>
    <path class="cls-3" d="M98.63,105.93h-9.13c.46-1.37.94-2.8,1.44-4.28.58-1.73,1.15-3.38,1.69-4.97.55-1.58,1.03-2.98,1.46-4.18h.26c.35,1.05.76,2.33,1.24,3.83.47,1.49,1,3.1,1.56,4.81.52,1.59,1.02,3.18,1.48,4.79Z"/>
  </g>
</svg>