<?xml version="1.0" encoding="UTF-8"?>
<svg id="Layer_1" data-name="Layer 1" xmlns="http://www.w3.org/2000/svg" viewBox="0 0 200 200">
  <defs>
    <style>
      .cls-1 {
        fill: #db0032;
      }

      .cls-1, .cls-2, .cls-3 {
        stroke-width: 0px;
      }

      .cls-2 {
        fill: #e3e3e4;
      }

      .cls-3 {
        fill: #1d252c;
      }
    </style>
  </defs>
  <circle class="cls-3" cx="100" cy="100" r="63.45"/>
  <g>
    <g>
      <g>
        <path class="cls-3" d="M121.45,27.74c0,2.48-.43,4.86-1.21,7.08,9.81,3.05,18.68,8.27,26.05,15.09,1.56-1.82,3.43-3.38,5.57-4.61.26-.15.54-.29.81-.43-8.71-8.32-19.38-14.6-31.24-18.08.01.32.02.63.02.95Z"/>
        <path class="cls-3" d="M47.34,44.87c.27.14.54.28.81.43,2.14,1.23,4.01,2.79,5.57,4.61,7.37-6.82,16.24-12.03,26.05-15.09-.78-2.22-1.21-4.6-1.21-7.08,0-.32.01-.64.02-.95-11.86,3.48-22.53,9.76-31.24,18.08Z"/>
        <path class="cls-3" d="M31.76,100c0-5.18.58-10.22,1.68-15.06-2.36-.45-4.64-1.28-6.74-2.49-.28-.16-.55-.33-.81-.5-1.41,5.79-2.16,11.84-2.16,18.05s.75,12.26,2.16,18.05c.27-.17.54-.34.81-.5,2.1-1.21,4.38-2.05,6.74-2.49-1.1-4.85-1.68-9.89-1.68-15.06Z"/>
        <path class="cls-3" d="M152.66,155.13c-.27-.14-.54-.28-.81-.43-2.14-1.23-4.01-2.79-5.57-4.61-7.37,6.82-16.24,12.03-26.05,15.09.78,2.22,1.21,4.6,1.21,7.08,0,.32-.01.64-.02.95,11.86-3.48,22.53-9.76,31.24-18.08Z"/>
        <path class="cls-3" d="M174.12,81.95c-.27.17-.54.34-.81.5-2.1,1.21-4.38,2.05-6.74,2.49,1.1,4.85,1.68,9.89,1.68,15.06s-.58,10.22-1.68,15.07c2.36.45,4.64,1.28,6.74,2.49.28.16.55.33.81.5,1.41-5.79,2.16-11.84,2.16-18.05s-.75-12.26-2.16-18.05Z"/>
        <path class="cls-3" d="M78.55,172.26c0-2.48.43-4.86,1.21-7.08-9.82-3.05-18.69-8.27-26.06-15.09-1.54,1.8-3.4,3.37-5.56,4.62-.26.15-.54.29-.81.43,8.71,8.32,19.38,14.6,31.24,18.08-.01-.32-.02-.63-.02-.95Z"/>
      </g>
      <path class="cls-1" d="M100,44.59c-9.29,0-16.85-7.56-16.85-16.85s7.56-16.85,16.85-16.85,16.85,7.56,16.85,16.85-7.56,16.85-16.85,16.85ZM100,18.93c-4.86,0-8.81,3.95-8.81,8.81s3.95,8.81,8.81,8.81,8.81-3.95,8.81-8.81-3.95-8.81-8.81-8.81ZM37.39,80.72c-2.86,0-5.75-.73-8.4-2.25-3.9-2.25-6.69-5.88-7.85-10.23-1.16-4.35-.57-8.89,1.68-12.79,4.65-8.05,14.97-10.82,23.02-6.17,3.9,2.25,6.69,5.88,7.85,10.23,1.16,4.35.57,8.89-1.68,12.79-3.12,5.4-8.79,8.42-14.62,8.42ZM37.43,55.06c-3.05,0-6.02,1.58-7.65,4.4-1.18,2.04-1.49,4.41-.88,6.69.61,2.27,2.07,4.17,4.11,5.35,4.21,2.43,9.61.98,12.04-3.23,1.18-2.04,1.49-4.41.88-6.69-.61-2.27-2.07-4.17-4.11-5.35-1.38-.8-2.9-1.18-4.39-1.18ZM37.45,152.98c-5.83,0-11.51-3.02-14.62-8.42-2.25-3.9-2.85-8.44-1.68-12.79,1.17-4.35,3.95-7.98,7.85-10.23,8.05-4.65,18.37-1.88,23.02,6.17,4.65,8.05,1.88,18.37-6.17,23.02-2.65,1.53-5.54,2.25-8.4,2.25ZM37.4,127.32c-1.49,0-3.01.38-4.39,1.18-2.04,1.18-3.5,3.08-4.11,5.35-.61,2.27-.3,4.65.88,6.69,1.18,2.04,3.08,3.5,5.35,4.11,2.27.61,4.65.3,6.69-.88,2.04-1.18,3.5-3.08,4.11-5.35.61-2.27.3-4.65-.88-6.69-1.63-2.82-4.6-4.4-7.65-4.4ZM100,189.11c-9.29,0-16.85-7.56-16.85-16.85s7.56-16.85,16.85-16.85,16.85,7.56,16.85,16.85-7.56,16.85-16.85,16.85ZM100,163.45c-4.86,0-8.81,3.95-8.81,8.81s3.95,8.81,8.81,8.81,8.81-3.95,8.81-8.81-3.95-8.81-8.81-8.81ZM162.55,152.99c-2.92,0-5.8-.77-8.4-2.26-3.9-2.25-6.69-5.88-7.85-10.23-1.16-4.35-.57-8.89,1.68-12.79,4.65-8.05,14.97-10.82,23.02-6.17,3.9,2.25,6.69,5.88,7.85,10.23,1.16,4.35.57,8.89-1.68,12.79-2.25,3.9-5.88,6.69-10.23,7.85-1.45.39-2.93.58-4.39.58ZM162.6,127.32c-3.05,0-6.02,1.58-7.65,4.4-1.18,2.04-1.49,4.41-.88,6.69.61,2.27,2.07,4.17,4.11,5.35,2.04,1.18,4.41,1.49,6.69.88,2.27-.61,4.17-2.07,5.35-4.11,1.18-2.04,1.49-4.41.88-6.69-.61-2.27-2.07-4.17-4.11-5.35-1.38-.8-2.9-1.18-4.39-1.18ZM162.61,80.72c-5.83,0-11.5-3.02-14.62-8.42-2.25-3.9-2.85-8.44-1.68-12.79,1.17-4.35,3.95-7.98,7.85-10.23,8.05-4.65,18.37-1.88,23.02,6.17,2.25,3.9,2.85,8.44,1.68,12.79-1.17,4.35-3.95,7.98-7.85,10.23-2.65,1.53-5.54,2.25-8.4,2.25ZM162.57,55.06c-1.49,0-3.01.38-4.39,1.18-4.21,2.43-5.66,7.83-3.23,12.04,2.43,4.21,7.83,5.65,12.04,3.23,2.04-1.18,3.5-3.08,4.11-5.35.61-2.27.3-4.65-.88-6.69-1.63-2.82-4.6-4.4-7.65-4.4Z"/>
    </g>
    <g>
      <rect class="cls-2" x="74.53" y="90.12" width="52.3" height="20.83"/>
      <rect class="cls-2" x="73.03" y="80.63" width="53.8" height="4.48"/>
      <rect class="cls-2" x="74.53" y="115.04" width="20.7" height="4.22"/>
      <rect class="cls-2" x="106.13" y="115.04" width="20.7" height="4.22"/>
      <path class="cls-2" d="M130.97,129.06h-61.95c-3.02,0-5.48-2.46-5.48-5.48v-47.17c0-3.02,2.46-5.48,5.48-5.48h61.95c3.02,0,5.48,2.46,5.48,5.48v47.17c0,3.02-2.46,5.48-5.48,5.48ZM69.03,75.15c-.69,0-1.26.58-1.26,1.26v47.17c0,.69.58,1.26,1.26,1.26h61.95c.69,0,1.26-.58,1.26-1.26v-47.17c0-.69-.58-1.26-1.26-1.26h-61.95Z"/>
    </g>
  </g>
</svg>