<?xml version="1.0" encoding="UTF-8"?>
<svg id="Layer_1" data-name="Layer 1" xmlns="http://www.w3.org/2000/svg" viewBox="0 0 200 200">
  <defs>
    <style>
      .cls-1 {
        fill: #1d252c;
      }

      .cls-2 {
        fill: #db0032;
      }
    </style>
  </defs>
  <circle class="cls-1" cx="100" cy="100" r="72.17"/>
  <g>
    <path class="cls-2" d="M113.61,126.65c-1.72,0-3.13.36-4.23,1.09-1.11.72-1.66,1.68-1.66,2.87,0,.64.18,1.26.54,1.86.36.6.88,1.07,1.56,1.42.68.35,1.51.53,2.5.53s1.96-.19,2.92-.58c.96-.39,1.73-.87,2.33-1.45.36-.32.66-.69.89-1.11.23-.42.35-.77.35-1.06v-2.56c-.79-.32-1.65-.57-2.57-.75-.92-.18-1.8-.27-2.62-.27Z"/>
    <path class="cls-2" d="M85.21,126.65c-1.72,0-3.13.36-4.23,1.09-1.11.72-1.66,1.68-1.66,2.87,0,.64.18,1.26.54,1.86.36.6.88,1.07,1.56,1.42.68.35,1.51.53,2.5.53s1.96-.19,2.92-.58c.96-.39,1.73-.87,2.33-1.45.36-.32.66-.69.89-1.11.23-.42.35-.77.35-1.06v-2.56c-.79-.32-1.65-.57-2.57-.75-.92-.18-1.8-.27-2.62-.27Z"/>
    <path class="cls-2" d="M157.06,91.36c.35-2.18.53-4.42.53-6.7,0-23.43-18.99-42.42-42.42-42.42-16.29,0-30.43,9.18-37.54,22.65-3.7-1.78-7.86-2.78-12.24-2.78-15.6,0-28.25,12.65-28.25,28.25,0,.59.02,1.17.06,1.75-12.18,3.13-21.19,14.18-21.19,27.34v3.89c0,19.02,15.42,34.44,34.44,34.44h100.78c18.12,0,32.8-14.69,32.8-32.8v-3.89c0-15.51-11.83-28.26-26.95-29.72ZM69.28,133.35c-.69,1.31-1.64,2.39-2.85,3.22-1.2.84-2.59,1.44-4.16,1.82-1.57.38-3.22.57-4.97.57s-3.5-.18-5.24-.54c-1.75-.36-3.42-.88-5.02-1.56-1.6-.68-3.09-1.49-4.48-2.45l3.02-5.89c.3.3.82.69,1.58,1.16.76.48,1.68.96,2.77,1.43,1.09.48,2.28.88,3.56,1.21,1.29.33,2.59.49,3.91.49,1.88,0,3.28-.3,4.21-.91.92-.6,1.39-1.49,1.39-2.67,0-1.05-.37-1.88-1.11-2.49-.74-.61-1.79-1.13-3.14-1.58-1.35-.44-2.95-.91-4.8-1.4-2.24-.62-4.1-1.33-5.57-2.12-1.47-.79-2.57-1.77-3.31-2.93s-1.11-2.64-1.11-4.41c0-2.4.58-4.41,1.73-6.04,1.15-1.63,2.7-2.86,4.65-3.7,1.95-.84,4.11-1.26,6.48-1.26,1.65,0,3.21.18,4.68.54,1.47.36,2.84.84,4.13,1.43,1.29.59,2.44,1.24,3.46,1.93l-3.02,5.54c-.23-.23-.65-.54-1.26-.92-.61-.38-1.35-.77-2.23-1.16-.87-.4-1.82-.73-2.84-.99-1.02-.26-2.06-.4-3.12-.4-1.85,0-3.24.34-4.18,1.01-.94.67-1.41,1.65-1.41,2.93,0,.95.3,1.71.89,2.26.59.56,1.48,1.03,2.67,1.43,1.19.39,2.67.82,4.45,1.28,2.31.56,4.31,1.24,6.01,2.04,1.7.8,3,1.85,3.91,3.15.91,1.3,1.36,3.03,1.36,5.19,0,1.84-.35,3.41-1.04,4.73ZM98.62,138.72c-.59.1-1.13.18-1.61.25-.48.07-.88.08-1.21.05-1.32,0-2.32-.29-2.99-.87-.68-.58-1.08-1.29-1.21-2.15l-.15-1.34c-1.16,1.45-2.57,2.57-4.26,3.36-1.68.79-3.4,1.19-5.15,1.19s-3.26-.36-4.63-1.08c-1.37-.72-2.44-1.69-3.22-2.91-.78-1.22-1.16-2.58-1.16-4.08,0-1.66.47-3.11,1.41-4.35.94-1.24,2.24-2.21,3.91-2.91,1.67-.7,3.6-1.05,5.81-1.05,1.09,0,2.19.08,3.31.25,1.12.17,2.09.43,2.92.79v-1.43c0-1.59-.48-2.82-1.43-3.69-.96-.87-2.39-1.31-4.3-1.31-1.45,0-2.82.25-4.11.74-1.29.49-2.64,1.2-4.06,2.13l-2.08-4.3c1.68-1.15,3.42-2,5.22-2.55,1.8-.54,3.69-.82,5.66-.82,3.69,0,6.57.9,8.63,2.71,2.06,1.8,3.09,4.41,3.09,7.83v8.15c0,.68.12,1.17.37,1.46.25.29.65.47,1.21.54v5.39ZM127.01,138.72c-.59.1-1.13.18-1.61.25-.48.07-.88.08-1.21.05-1.32,0-2.32-.29-2.99-.87-.68-.58-1.08-1.29-1.21-2.15l-.15-1.34c-1.16,1.45-2.57,2.57-4.26,3.36-1.68.79-3.4,1.19-5.15,1.19s-3.26-.36-4.63-1.08c-1.37-.72-2.44-1.69-3.22-2.91-.78-1.22-1.16-2.58-1.16-4.08,0-1.66.47-3.11,1.41-4.35.94-1.24,2.24-2.21,3.91-2.91,1.67-.7,3.6-1.05,5.81-1.05,1.09,0,2.19.08,3.31.25,1.12.17,2.09.43,2.92.79v-1.43c0-1.59-.48-2.82-1.43-3.69-.96-.87-2.39-1.31-4.3-1.31-1.45,0-2.82.25-4.11.74-1.29.49-2.64,1.2-4.06,2.13l-2.08-4.3c1.68-1.15,3.42-2,5.22-2.55,1.8-.54,3.69-.82,5.67-.82,3.69,0,6.57.9,8.63,2.71,2.06,1.8,3.09,4.41,3.09,7.83v8.15c0,.68.12,1.17.37,1.46.25.29.65.47,1.21.54v5.39ZM156.4,133.35c-.69,1.31-1.64,2.39-2.85,3.22-1.2.84-2.59,1.44-4.16,1.82-1.57.38-3.22.57-4.97.57s-3.5-.18-5.24-.54c-1.75-.36-3.42-.88-5.02-1.56-1.6-.68-3.09-1.49-4.48-2.45l3.02-5.89c.3.3.82.69,1.58,1.16.76.48,1.68.96,2.77,1.43,1.09.48,2.28.88,3.56,1.21,1.29.33,2.59.49,3.91.49,1.88,0,3.28-.3,4.21-.91.92-.6,1.39-1.49,1.39-2.67,0-1.05-.37-1.88-1.11-2.49-.74-.61-1.79-1.13-3.14-1.58-1.35-.44-2.95-.91-4.8-1.4-2.24-.62-4.1-1.33-5.57-2.12-1.47-.79-2.57-1.77-3.31-2.93s-1.11-2.64-1.11-4.41c0-2.4.58-4.41,1.73-6.04,1.15-1.63,2.7-2.86,4.65-3.7,1.95-.84,4.11-1.26,6.48-1.26,1.65,0,3.21.18,4.68.54,1.47.36,2.84.84,4.13,1.43,1.29.59,2.44,1.24,3.46,1.93l-3.02,5.54c-.23-.23-.65-.54-1.26-.92-.61-.38-1.35-.77-2.23-1.16-.87-.4-1.82-.73-2.84-.99-1.02-.26-2.06-.4-3.12-.4-1.85,0-3.24.34-4.18,1.01-.94.67-1.41,1.65-1.41,2.93,0,.95.3,1.71.89,2.26.59.56,1.48,1.03,2.67,1.43,1.19.39,2.67.82,4.45,1.28,2.31.56,4.31,1.24,6.01,2.04,1.7.8,3,1.85,3.91,3.15.91,1.3,1.36,3.03,1.36,5.19,0,1.84-.35,3.41-1.04,4.73Z"/>
  </g>
</svg>