<?xml version="1.0" encoding="UTF-8"?>
<svg id="Layer_1" data-name="Layer 1" xmlns="http://www.w3.org/2000/svg" viewBox="0 0 200 200">
  <defs>
    <style>
      .cls-1 {
        fill: #1d252c;
      }

      .cls-2 {
        stroke: #1d252c;
        stroke-linecap: round;
        stroke-linejoin: round;
        stroke-width: 11.04px;
      }

      .cls-2, .cls-3 {
        fill: none;
      }

      .cls-4 {
        fill: #e3e3e3;
      }

      .cls-3 {
        stroke: #e3e3e3;
        stroke-miterlimit: 10;
        stroke-width: 3.68px;
      }

      .cls-5 {
        fill: #db0032;
      }
    </style>
  </defs>
  <circle class="cls-1" cx="97.87" cy="93.2" r="77.39"/>
  <g>
    <path class="cls-2" d="M156.24,132.56c-12.78,18.68-34.26,30.93-58.6,30.93-39.18,0-70.95-31.77-70.95-70.95,0-19.98,8.26-38.03,21.55-50.93"/>
    <path class="cls-2" d="M82.75,23.16c4.8-1.03,9.78-1.56,14.89-1.56,39.18,0,70.95,31.77,70.95,70.95,0,3.96-.32,7.84-.95,11.62"/>
    <circle class="cls-5" cx="27.84" cy="85.1" r="8.09"/>
    <circle class="cls-5" cx="146.29" cy="39.1" r="13.28"/>
    <g>
      <path class="cls-4" d="M72.78,68.57l-12.56,16.13c-.77.99.02,2.34,1.38,2.34h23.09c1.37,0,2.16-1.39,1.35-2.37l-13.25-16.1"/>
      <line class="cls-3" x1="73.19" y1="74.24" x2="73.19" y2="140.95"/>
      <path class="cls-4" d="M97.46,41.62l-12.56,16.13c-.77.99.02,2.34,1.38,2.34h23.09c1.37,0,2.16-1.39,1.35-2.37l-13.25-16.1"/>
      <line class="cls-3" x1="97.87" y1="47.29" x2="97.87" y2="114"/>
      <path class="cls-4" d="M123.9,67.15l-12.56,16.13c-.77.99.02,2.34,1.38,2.34h23.09c1.37,0,2.16-1.39,1.35-2.37l-13.25-16.1"/>
      <line class="cls-3" x1="124.31" y1="72.82" x2="124.31" y2="139.53"/>
    </g>
  </g>
  <g>
    <circle class="cls-1" cx="124.92" cy="134.42" r="29.49"/>
    <path class="cls-5" d="M154.83,153.5c3.68-5.62,5.86-12.3,5.86-19.5,0-19.7-16.02-35.72-35.72-35.72s-35.72,16.02-35.72,35.72,16.03,35.72,35.72,35.72c7.2,0,13.88-2.18,19.5-5.86l18.96,22.06c.3.34.66.71,1.02,1.02,4,3.44,10.03,2.98,13.47-1.02s2.98-10.03-1.02-13.47l-22.06-18.95h-.01ZM97.85,134c0-14.95,12.16-27.11,27.11-27.11s27.11,12.16,27.11,27.11-12.16,27.11-27.11,27.11-27.11-12.16-27.11-27.11Z"/>
    <path class="cls-5" d="M140.84,137.64c-2.01,0-3.65-1.63-3.65-3.64,0-6.75-5.49-12.24-12.24-12.24-2.01,0-3.65-1.63-3.65-3.64s1.63-3.64,3.65-3.64c10.77,0,19.53,8.76,19.53,19.53,0,2.02-1.63,3.64-3.65,3.64h0Z"/>
  </g>
</svg>