<?xml version="1.0" encoding="UTF-8"?>
<svg id="Layer_1" data-name="Layer 1" xmlns="http://www.w3.org/2000/svg" viewBox="0 0 200 200">
  <defs>
    <style>
      .cls-1 {
        fill: #1d252c;
      }

      .cls-2 {
        fill: #db0032;
      }
    </style>
  </defs>
  <g>
    <path class="cls-1" d="M156.32,37.06H38.63c-1.41,0-2.56,1.14-2.56,2.55v28.82c0,1.41,1.15,2.55,2.56,2.55h117.68c1.4,0,2.55-1.15,2.55-2.55v-28.82c0-1.41-1.14-2.55-2.55-2.55ZM103.32,56.18c0,.68-.56,1.23-1.24,1.23h-48.74c-.68,0-1.23-.56-1.23-1.23v-4.34c0-.68.56-1.23,1.23-1.23h48.74c.69,0,1.24.56,1.24,1.23v4.34ZM126.93,58.01c-2.87.54-5.34-1.93-4.8-4.8.3-1.6,1.6-2.9,3.2-3.2,2.87-.54,5.34,1.93,4.8,4.8-.3,1.6-1.6,2.9-3.2,3.2ZM144.27,58.01c-1.6-.31-2.89-1.6-3.19-3.2-.54-2.86,1.9-5.33,4.77-4.8,1.61.29,2.91,1.58,3.22,3.18.56,2.88-1.92,5.37-4.8,4.82Z"/>
    <path class="cls-1" d="M156.31,79.19H38.63c-1.41,0-2.56,1.15-2.56,2.56v28.8c0,1.41,1.15,2.56,2.56,2.56h83.6c6.7-5.45,15.25-8.71,24.56-8.71,3.81,0,7.49.54,10.97,1.56.56.16,1.11-.24,1.11-.82v-23.4c0-1.41-1.15-2.55-2.55-2.55ZM103.32,98.32c0,.68-.55,1.23-1.23,1.23h-48.75c-.68,0-1.23-.56-1.23-1.23v-4.34c0-.68.56-1.23,1.23-1.23h48.74c.69,0,1.24.56,1.24,1.24v4.34ZM126.13,100.22c-2.26,0-4.09-1.84-4.08-4.11.02-2.16,1.83-3.99,3.99-4.04,2.29-.05,4.16,1.79,4.16,4.07s-1.83,4.08-4.08,4.08ZM145.07,100.22c-2.27,0-4.09-1.83-4.08-4.1.01-2.16,1.82-3.99,3.98-4.04,2.29-.05,4.17,1.79,4.17,4.07s-1.83,4.08-4.08,4.08Z"/>
    <path class="cls-1" d="M114.65,121.33H38.63c-1.41,0-2.56,1.15-2.56,2.55v28.81c0,1.41,1.15,2.56,2.56,2.56h69.89c.58,0,.98-.55.82-1.11-.98-3.43-1.51-7.05-1.51-10.79,0-8.18,2.52-15.76,6.82-22.02ZM103.32,140.46c0,.68-.56,1.23-1.24,1.23h-48.74c-.68,0-1.23-.56-1.23-1.23v-4.34c0-.69.56-1.24,1.23-1.24h48.74c.69,0,1.24.56,1.24,1.24v4.34Z"/>
  </g>
  <path class="cls-2" d="M150.07,165.36c-.14.1-.28.2-.44.28.15-.08.3-.18.44-.28Z"/>
  <path class="cls-2" d="M149.05,108.28c-20.7-.66-37.61,16.25-36.95,36.95.6,18.74,15.86,34.01,34.61,34.61,20.7.66,37.61-16.25,36.95-36.95-.6-18.74-15.86-34.01-34.6-34.6ZM168.89,146.51l-18.43,18.51s0,0,0,0c-.12.12-.25.24-.39.34-.14.1-.28.2-.44.28-.05.03-.1.05-.16.08-.05.03-.11.05-.16.07-.21.09-.44.16-.67.21-.05.01-.11.02-.16.03-.18.03-.37.04-.56.04h0c-.42,0-.83-.07-1.21-.21-.04-.01-.08-.03-.11-.04-.08-.03-.16-.06-.23-.1-.05-.03-.1-.05-.16-.08-.22-.12-.43-.26-.61-.42-.07-.06-.14-.13-.21-.19l-18.51-18.51c-1.4-1.4-1.4-3.67,0-5.07,1.4-1.4,3.67-1.4,5.07,0l12.38,12.38-.03-28.2c0-1.98,1.6-3.59,3.58-3.59h0c1.98,0,3.58,1.6,3.58,3.58l.03,28.2,12.32-12.37c1.4-1.4,3.67-1.41,5.07-.01,1.4,1.4,1.41,3.67.01,5.07Z"/>
</svg>