<?xml version="1.0" encoding="utf-8"?>
<!-- Generator: Adobe Illustrator 28.0.0, SVG Export Plug-In . SVG Version: 6.00 Build 0)  -->
<svg version="1.1" id="Layer_1" xmlns="http://www.w3.org/2000/svg" xmlns:xlink="http://www.w3.org/1999/xlink" x="0px" y="0px"
	 viewBox="0 0 500 300" style="enable-background:new 0 0 500 300;" xml:space="preserve">
<style type="text/css">
	.st0{fill:#EC7620;}
	.st1{fill-rule:evenodd;clip-rule:evenodd;fill:#350600;}
	.st2{fill:#350600;}
	.st3{fill:#F88D2A;}
	.st4{fill:#FFC629;}
	.st5{fill:#42A7C6;}
	.st6{fill:#AD8B80;}
	.st7{fill:#404041;}
	.st8{fill:#E20613;}
	.st9{fill:#007A8A;}
	.st10{fill:#A0002D;}
	.st11{fill:#0380C3;}
	.st12{fill:#FFFCE7;}
	.st13{fill:#DAC094;}
	.st14{fill:#692525;}
	.st15{fill:#699043;}
	.st16{fill:#70715B;}
	.st17{fill:#C1E7F6;}
	.st18{clip-path:url(#SVGID_00000049934560453828335040000000214838288411005312_);fill:#C1E7F6;}
	.st19{clip-path:url(#SVGID_00000049934560453828335040000000214838288411005312_);fill:#7CD1EE;}
	.st20{fill:#7CD1EE;}
	.st21{fill:#92A1C6;}
	.st22{filter:url(#Adobe_OpacityMaskFilter);}
	
		.st23{clip-path:url(#SVGID_00000078025249620289163330000011322265289810182816_);fill:url(#SVGID_00000075139182661602440280000001080830269407245703_);}
	
		.st24{clip-path:url(#SVGID_00000078025249620289163330000011322265289810182816_);mask:url(#SVGID_00000015315705146473100710000017068095171410929283_);fill:url(#SVGID_00000018238006670165482850000012330009003133210518_);}
	.st25{clip-path:url(#SVGID_00000171713993647086565070000002362695357043403680_);fill:#604693;}
	.st26{fill:#00B2E3;}
	.st27{fill:#F5911E;}
	.st28{fill:#B12B26;}
	.st29{fill:#ED4036;}
	.st30{fill:#6D6E70;}
	.st31{fill:#121921;}
	.st32{fill:#0381C4;}
	.st33{fill:#A2732A;}
	.st34{fill:#513A16;}
	.st35{fill:#B99664;}
	.st36{fill:none;stroke:#B99664;stroke-width:1.2826;stroke-miterlimit:10;}
	.st37{fill:#8F9191;}
	.st38{fill:none;}
	.st39{fill:url(#SVGID_00000068666530551076933500000005014893331490381195_);}
	.st40{fill:url(#SVGID_00000143610267515787198940000011424287380934477198_);}
	.st41{fill:url(#SVGID_00000072258173972765462390000009522893198986685362_);}
	.st42{fill:#1A1A1A;}
	.st43{fill:url(#SVGID_00000000944866227446577350000000917140692946994863_);}
	.st44{fill:url(#SVGID_00000037660651005690373860000012747415211853503927_);}
	.st45{fill:url(#SVGID_00000098921771554785421650000011383471575538601601_);}
	.st46{fill:url(#SVGID_00000082343183470850194490000010664969818617078932_);}
	.st47{opacity:0.6;fill:url(#SVGID_00000007399935275989387200000002877199831984320655_);}
	.st48{fill:url(#SVGID_00000014614443540178236370000010130666811739327928_);}
	.st49{opacity:0.6;fill:url(#SVGID_00000156564345459779257560000006269063818907526018_);}
	.st50{fill:url(#SVGID_00000147916741814620407110000006733203270358528411_);}
	.st51{opacity:0.6;fill:url(#SVGID_00000178196235573284409680000002588405634715769255_);}
	.st52{fill:url(#SVGID_00000169522094108375305170000014966455658385304747_);}
	.st53{opacity:0.6;fill:url(#SVGID_00000014599193324066357710000000116364904011385504_);}
	.st54{fill:url(#SVGID_00000031209473618001256890000017854193059873652873_);}
	.st55{fill:url(#SVGID_00000090267111459598479170000007551520348914778249_);}
	.st56{opacity:0.6;fill:url(#SVGID_00000021813653838083177300000010137498803811405243_);}
	.st57{fill:url(#SVGID_00000178163123327270034490000001526735415039945887_);}
	.st58{fill:url(#SVGID_00000132047570452972264810000011837532611027550110_);}
	.st59{opacity:0.6;fill:url(#SVGID_00000150083150783036863380000012673321302727938483_);}
	.st60{fill:#AB774D;}
</style>
<g>
	<polygon points="9.1,104.8 16.6,104.8 16.6,143.1 39.2,143.1 39.2,104.8 46.7,104.8 46.7,166.3 39.2,166.3 39.2,150.6 16.6,150.6 
		16.6,166.3 9.1,166.3 	"/>
	<rect x="55.3" y="104.8" width="7.5" height="61.5"/>
	<path d="M71.4,104.8h14.4c2.2,0,4.2,0.6,6.1,1.7c1.9,1.1,3.3,2.6,4.4,4.4c1.1,1.8,1.6,3.7,1.6,5.6c0,1.3-0.3,2.6-0.9,3.9
		c-0.6,1.3-1.4,2.3-2.6,3.1c3.8,1.7,6.6,4.2,8.6,7.5c1.9,3.3,2.9,7.2,2.9,11.8c0,4.7-1,8.8-3,12.3c-2,3.6-4.8,6.3-8.3,8.2
		c-3.6,1.9-7.7,2.9-12.4,2.9H71.4V104.8z M85.9,121.2c1.3,0,2.3-0.4,3.2-1.3c0.9-0.9,1.3-1.9,1.3-3.1c0-1.3-0.4-2.3-1.3-3.2
		c-0.9-0.9-2-1.3-3.2-1.3H79v8.9H85.9z M82.4,158.8c4.4,0,8.2-1.3,11.4-3.9c3.2-2.6,4.7-6.5,4.7-11.8c0-5.3-1.5-9-4.6-11.1
		c-3-2.2-6.9-3.2-11.6-3.2H79v30H82.4z"/>
	<path d="M130.7,104.8l22,61.6h-7.5l-3-8.2h-22.9l-3,8.2h-7.5L130.7,104.8z M139.5,150.6l-8.8-24.7l-8.8,24.7H139.5z"/>
	<polygon points="183.5,104.8 191,104.8 191,143.1 213.6,143.1 213.6,104.8 221.2,104.8 221.2,166.3 213.6,166.3 213.6,150.6 
		191,150.6 191,166.3 183.5,166.3 	"/>
	<path d="M245,146c-3.4-2-6.1-4.7-8-8c-2-3.4-3-7.1-3-11.1c0-4,1-7.7,3-11.1c2-3.4,4.7-6.1,8-8c3.4-2,7.1-3,11.1-3c4,0,7.7,1,11.1,3
		c3.4,2,6.1,4.7,8,8c2,3.4,3,7.1,3,11.1c0,4-1,7.7-3,11.1c-2,3.4-4.7,6.1-8,8c-3.4,2-7.1,3-11.1,3C252,148.9,248.4,148,245,146
		 M264.4,141.3c2.5-1.5,4.6-3.5,6.1-6.1c1.5-2.5,2.3-5.3,2.3-8.3c0-3-0.7-5.8-2.3-8.3c-1.5-2.5-3.5-4.6-6.1-6.1
		c-2.6-1.5-5.3-2.3-8.3-2.3c-3,0-5.8,0.7-8.3,2.3c-2.6,1.5-4.6,3.5-6.1,6.1c-1.5,2.6-2.2,5.3-2.2,8.3c0,3,0.7,5.8,2.2,8.3
		c1.5,2.5,3.5,4.6,6.1,6.1c2.6,1.5,5.3,2.3,8.3,2.3C259,143.5,261.8,142.8,264.4,141.3"/>
	<path d="M245,146c-3.4-2-6.1-4.7-8-8c-2-3.4-3-7.1-3-11.1c0-4,1-7.7,3-11.1c2-3.4,4.7-6.1,8-8c3.4-2,7.1-3,11.1-3c4,0,7.7,1,11.1,3
		c3.4,2,6.1,4.7,8,8c2,3.4,3,7.1,3,11.1c0,4-1,7.7-3,11.1c-2,3.4-4.7,6.1-8,8c-3.4,2-7.1,3-11.1,3C252,148.9,248.4,148,245,146z
		 M264.4,141.3c2.5-1.5,4.6-3.5,6.1-6.1c1.5-2.5,2.3-5.3,2.3-8.3c0-3-0.7-5.8-2.3-8.3c-1.5-2.5-3.5-4.6-6.1-6.1
		c-2.6-1.5-5.3-2.3-8.3-2.3c-3,0-5.8,0.7-8.3,2.3c-2.6,1.5-4.6,3.5-6.1,6.1c-1.5,2.6-2.2,5.3-2.2,8.3c0,3,0.7,5.8,2.2,8.3
		c1.5,2.5,3.5,4.6,6.1,6.1c2.6,1.5,5.3,2.3,8.3,2.3C259,143.5,261.8,142.8,264.4,141.3z"/>
	<path d="M299.5,163.7c-3-1.7-5.3-4.1-7.1-7.1c-1.7-3-2.6-6.2-2.6-9.8v-42.1h7.5v42.1c0,3.3,1.2,6.1,3.5,8.4
		c2.3,2.3,5.1,3.5,8.4,3.5c3.3,0,6.1-1.2,8.4-3.5c2.3-2.3,3.5-5.1,3.5-8.4v-42.1h7.5v42.1c0,3.5-0.9,6.8-2.6,9.8
		c-1.7,3-4.1,5.3-7.1,7.1c-3,1.7-6.2,2.6-9.8,2.6C305.8,166.3,302.5,165.5,299.5,163.7"/>
	<path d="M338.2,104.8h12c4.1,0,7.9,1,11.5,3.1c3.5,2.1,6.3,4.8,8.4,8.3c2.1,3.5,3.1,7.3,3.1,11.4c0,3.9-0.9,7.6-2.8,11
		c-1.9,3.4-4.4,6.2-7.6,8.2l10.4,19.4h-8.5l-8.8-16.4c-1.9,0.5-3.8,0.7-5.6,0.7h-4.5v15.7h-7.5V104.8z M350.2,143.1
		c2.8,0,5.4-0.7,7.8-2.1c2.4-1.4,4.2-3.2,5.6-5.6c1.4-2.4,2.1-4.9,2.1-7.8c0-2.7-0.7-5.3-2.1-7.7c-1.4-2.4-3.2-4.2-5.6-5.6
		c-2.4-1.4-4.9-2.1-7.8-2.1h-4.5v30.7H350.2z"/>
	<path d="M402.1,104.8l22,61.6h-7.5l-3-8.2h-22.9l-3,8.2h-7.5L402.1,104.8z M410.9,150.6l-8.8-24.7l-8.8,24.7H410.9z"/>
	<polygon points="438.6,125.3 438.6,166.3 431.1,166.3 431.1,104.8 467.3,146 467.3,104.9 474.8,104.9 474.8,166.4 	"/>
	<rect x="483.4" y="104.8" width="7.5" height="61.5"/>
	<rect x="237.9" y="158.7" width="36.3" height="7"/>
	<path d="M186.9,194.8c-0.7-0.3-1.3-0.7-1.8-1.2c-0.5-0.5-0.9-1.1-1.2-1.8c-0.3-0.7-0.4-1.4-0.4-2.1v-1h2.1v1c0,0.6,0.2,1.2,0.5,1.7
		c0.3,0.5,0.7,0.9,1.2,1.2c0.5,0.3,1.1,0.5,1.7,0.5c0.5,0,1-0.1,1.4-0.4c0.5-0.2,0.8-0.6,1.1-1c0.4-0.5,0.5-1,0.5-1.5
		c0-0.3,0-0.6-0.1-0.8c-0.2-0.6-0.5-1.1-1-1.5c-0.5-0.4-1.2-0.8-2.2-1.4l-1-0.5c-0.9-0.5-1.5-1-2-1.6c-0.7-0.8-1-1.7-1-2.7
		c0-0.7,0.2-1.4,0.6-2c0.4-0.6,0.8-1.1,1.4-1.4c0.6-0.3,1.2-0.5,1.9-0.5c0.8,0,1.5,0.2,2.1,0.6c0.6,0.4,1.2,0.9,1.5,1.5
		c0.4,0.6,0.6,1.4,0.6,2.1h-2.1c0-0.6-0.2-1.1-0.6-1.5c-0.4-0.4-0.9-0.6-1.5-0.6c-0.5,0-0.9,0.2-1.3,0.5c-0.3,0.3-0.5,0.8-0.5,1.3
		c0,0.5,0.2,0.9,0.5,1.3c0.3,0.4,0.8,0.8,1.5,1.2c0.1,0.1,0.4,0.2,0.9,0.5c1.1,0.6,1.9,1,2.4,1.5c0.9,0.7,1.6,1.6,1.9,2.6
		c0.2,0.5,0.2,1,0.2,1.4c0,1-0.3,2-0.9,2.8c-0.5,0.7-1.1,1.2-1.8,1.6c-0.7,0.4-1.5,0.6-2.4,0.6C188.3,195.2,187.6,195.1,186.9,194.8
		"/>
	<rect x="196.3" y="177.9" width="2.1" height="17.3"/>
	<polygon points="202.7,183.6 202.7,195.2 200.6,195.2 200.6,177.8 210.8,189.5 210.8,177.9 212.9,177.9 212.9,195.2 	"/>
	<path d="M219.6,194.1c-1.4-0.8-2.5-1.8-3.2-3.1c-0.8-1.3-1.2-2.8-1.2-4.4c0-1.6,0.4-3.1,1.2-4.4c0.8-1.3,1.9-2.4,3.2-3.1
		c1.4-0.8,2.9-1.1,4.6-1.1v2.1c-1.3,0-2.5,0.3-3.5,0.9c-1,0.6-1.9,1.4-2.5,2.4c-0.6,1-0.9,2.1-0.9,3.3c0,1.2,0.3,2.3,0.9,3.4
		c0.6,1,1.4,1.8,2.5,2.4c1,0.6,2.2,0.8,3.5,0.8v2.1C222.5,195.2,221,194.8,219.6,194.1"/>
	<polygon points="226.6,177.9 236.5,177.9 236.5,180 228.7,180 228.7,188.7 234.4,188.7 234.4,190.8 228.7,190.8 228.7,193.1 
		236.5,193.1 236.5,195.2 226.6,195.2 	"/>
	<rect x="245.4" y="177.8" width="2.1" height="17.4"/>
	<path d="M261.4,183.8c0,0.9-0.2,1.7-0.6,2.5l-4.2,8.9h-2.4l2.7-5.7c-0.5,0.1-1,0.2-1.5,0.2c-0.9,0-1.7-0.2-2.5-0.6
		c-0.7-0.3-1.4-0.8-1.9-1.4c-0.5-0.6-0.9-1.3-1.2-2c-0.3-0.7-0.4-1.3-0.4-2c0-0.9,0.2-1.7,0.6-2.5c0.3-0.7,0.8-1.3,1.4-1.9
		c0.6-0.5,1.2-0.9,2-1.2c0.7-0.2,1.3-0.4,2-0.4c0.9,0,1.7,0.2,2.5,0.6c0.7,0.3,1.3,0.8,1.9,1.4c0.5,0.6,0.9,1.3,1.2,2
		C261.2,182.5,261.4,183.1,261.4,183.8 M258,186.6c0.4-0.3,0.7-0.7,0.9-1.2c0.2-0.6,0.4-1.1,0.4-1.6c0-0.5-0.1-0.9-0.2-1.3
		c-0.4-1-1-1.7-2-2.1c-0.5-0.2-1-0.4-1.6-0.4c-0.5,0-0.9,0.1-1.3,0.2c-0.5,0.2-0.9,0.4-1.3,0.8c-0.4,0.3-0.7,0.7-0.9,1.2
		c-0.2,0.6-0.4,1.1-0.4,1.6c0,0.4,0.1,0.9,0.2,1.3c0.2,0.5,0.4,0.9,0.8,1.3c0.3,0.4,0.7,0.7,1.2,0.9c0.5,0.3,1,0.4,1.6,0.4
		c0.4,0,0.9-0.1,1.3-0.2C257.2,187.2,257.6,187,258,186.6"/>
	<path d="M271.4,192.9h-2.1v2.3h-2.1v-2.3h-7.1l7.1-15.1h2.1v12.9h2.1V192.9z M267.2,190.8v-7.9l-3.7,7.9H267.2z"/>
	<rect x="273.8" y="177.8" width="2.1" height="17.4"/>
</g>
</svg>
