<?xml version="1.0" encoding="UTF-8"?>
<svg id="Layer_1" data-name="Layer 1" xmlns="http://www.w3.org/2000/svg" viewBox="0 0 200 200">
  <defs>
    <style>
      .cls-1 {
        fill: #db0032;
      }

      .cls-1, .cls-2, .cls-3 {
        stroke-width: 0px;
      }

      .cls-2 {
        fill: #e3e3e4;
      }

      .cls-3 {
        fill: #1d252c;
      }
    </style>
  </defs>
  <g>
    <rect class="cls-3" x="50.14" y="15.15" width="99.72" height="169.7" rx="27.64" ry="27.64"/>
    <circle class="cls-1" cx="100" cy="171.1" r="4.08"/>
    <path class="cls-1" d="M122.22,185.51h-44.45c-15.6,0-28.3-12.69-28.3-28.3V42.79c0-15.6,12.69-28.3,28.3-28.3h44.45c15.6,0,28.29,12.69,28.29,28.3v114.43c0,15.6-12.69,28.3-28.29,28.3ZM77.78,15.81c-14.88,0-26.98,12.1-26.98,26.98v114.43c0,14.88,12.1,26.98,26.98,26.98h44.45c14.88,0,26.98-12.1,26.98-26.98V42.79c0-14.88-12.1-26.98-26.98-26.98h-44.45Z"/>
  </g>
  <path class="cls-2" d="M98.36,130.27l-4.48.37c-.66.05-1.26.43-1.59,1.01-.71,1.25-1.43,2.52-2.18,3.84-.52.91-1.58,1.36-2.59,1.1l-2.7-.71-2.22-.58c-1.01-.27-1.71-1.18-1.71-2.22v-4.83c0-.59-.26-1.15-.7-1.53l-3.63-3.13c-.53-.46-1.27-.61-1.94-.4l-5.72,1.79c-.92.29-1.91-.11-2.38-.95l-2.49-4.44c-.46-.83-.3-1.86.4-2.5l4.4-4.03c.42-.38.66-.93.66-1.49v-4.72c0-.73-.39-1.41-1.03-1.77l-5.62-3.16c-.79-.44-1.2-1.42-.93-2.33l1.32-4.45c.26-.86,1.05-1.45,1.94-1.45h6.6c.62,0,1.2-.28,1.58-.76l2.98-3.73c.42-.53.55-1.23.35-1.87l-1.8-5.77c-.29-.93.12-1.93.97-2.4l4.54-2.48c.82-.45,1.84-.28,2.47.42l4.06,4.46c.39.42.93.67,1.51.67h4.59c.72,0,1.38-.38,1.75-1l3.32-5.65c.48-.81,1.45-1.19,2.35-.91l4.71,1.46c.85.26,1.43,1.05,1.43,1.94v6.66c0,.6.27,1.17.73,1.56l3.33,2.77c.52.43,1.22.58,1.87.38l5.84-1.72c.9-.27,1.87.13,2.34.95l2.51,4.44c.47.83.3,1.87-.4,2.52l-4.31,3.95c-.42.38-.66.93-.66,1.49v4.78c0,.72.38,1.38,1,1.74l5.56,3.28c.77.46,1.16,1.43.89,2.32l-1.44,4.7c-.26.85-1.05,1.43-1.94,1.43h-6.67c-.59,0-1.15.26-1.53.7l-2.87,3.32c-.44.51-.59,1.24-.39,1.9l1.8,5.83c.28.91-.11,1.89-.94,2.36l-4.42,2.5c-.78.44-1.81.29-2.45-.38l-4.4-4.64c-.43-.45-1.04-.69-1.66-.63ZM93.45,89.76c-8.97.05-16.41,7.52-16.44,16.53-.03,9,7.32,16.45,16.37,16.6,9.26.15,16.94-7.56,16.79-16.86-.14-8.94-7.72-16.31-16.72-16.27Z"/>
  <path class="cls-1" d="M120.88,90.39l-2.68.43c-.4.06-.74.32-.91.68-.37.79-.74,1.59-1.13,2.42-.27.57-.89.9-1.51.78l-1.66-.3-1.36-.25c-.62-.11-1.09-.63-1.14-1.26l-.23-2.91c-.03-.36-.21-.68-.5-.89l-2.33-1.71c-.34-.25-.79-.31-1.19-.15l-3.36,1.35c-.54.22-1.16.03-1.48-.46l-1.71-2.56c-.32-.48-.27-1.11.12-1.53l2.46-2.64c.23-.25.35-.59.33-.93l-.22-2.84c-.03-.44-.3-.83-.71-1.02l-3.53-1.64c-.5-.23-.79-.8-.67-1.36l.59-2.75c.11-.53.56-.92,1.1-.96l3.97-.31c.37-.03.71-.23.92-.53l1.62-2.39c.23-.34.28-.76.12-1.14l-1.35-3.39c-.22-.55-.02-1.17.47-1.49l2.62-1.71c.47-.31,1.09-.25,1.51.13l2.66,2.5c.25.24.59.36.94.33l2.76-.22c.43-.03.82-.29,1.01-.69l1.73-3.56c.25-.51.82-.78,1.37-.66l2.91.66c.52.12.91.56.95,1.1l.31,4.01c.03.36.22.69.51.9l2.14,1.51c.33.24.76.29,1.14.14l3.44-1.31c.53-.2,1.13-.01,1.45.46l1.72,2.56c.32.48.27,1.12-.12,1.54l-2.41,2.59c-.23.25-.35.59-.33.93l.23,2.88c.03.43.29.81.68,1l3.5,1.72c.49.24.77.81.64,1.36l-.64,2.9c-.12.53-.56.91-1.1.96l-4.02.32c-.35.03-.68.21-.89.5l-1.57,2.14c-.24.33-.3.77-.14,1.17l1.36,3.43c.21.54.02,1.15-.45,1.47l-2.55,1.71c-.45.3-1.08.26-1.49-.11l-2.87-2.59c-.28-.25-.66-.36-1.03-.3ZM116.01,66.2c-5.41.45-9.53,5.31-9.12,10.74.41,5.42,5.19,9.57,10.65,9.23,5.58-.35,9.85-5.36,9.32-10.95-.51-5.38-5.43-9.47-10.85-9.01Z"/>
</svg>