<?xml version="1.0" encoding="UTF-8"?>
<svg id="Layer_1" data-name="Layer 1" xmlns="http://www.w3.org/2000/svg" viewBox="0 0 200 200">
  <defs>
    <style>
      .cls-1 {
        fill: #1d252c;
      }

      .cls-2 {
        fill: #e3e3e4;
      }

      .cls-3 {
        fill: #db0032;
      }
    </style>
  </defs>
  <circle class="cls-1" cx="100" cy="100" r="89"/>
  <g>
    <circle class="cls-2" cx="100" cy="100" r="53.36"/>
    <g>
      <ellipse class="cls-3" cx="100" cy="51.61" rx="53.85" ry="21.17"/>
      <path class="cls-3" d="M153.21,67.63c-3.19,2.88-7.54,5.44-12.97,7.57-10.8,4.25-25.04,6.58-40.1,6.58s-29.3-2.34-40.1-6.58c-5.5-2.16-9.9-4.76-13.1-7.7-.28-.25-.72-.05-.72.32l-.09,15.77c0,11.69,24.11,21.17,53.85,21.17s53.85-9.48,53.85-21.17l.08-15.64c0-.37-.44-.57-.72-.33ZM142.48,88.56c-1.81,0-3.27-1.46-3.27-3.27s1.47-3.27,3.27-3.27,3.27,1.46,3.27,3.27-1.47,3.27-3.27,3.27Z"/>
      <path class="cls-3" d="M153.17,100.03c-3.19,2.88-7.54,5.44-12.97,7.57-10.8,4.25-25.04,6.58-40.1,6.58s-29.3-2.34-40.1-6.58c-5.5-2.16-9.9-4.76-13.1-7.7-.28-.25-.72-.05-.72.32l-.09,15.77c0,11.69,24.11,21.17,53.85,21.17s53.85-9.48,53.85-21.17l.08-15.64c0-.37-.44-.57-.72-.33ZM142.44,120.96c-1.81,0-3.27-1.46-3.27-3.27s1.47-3.27,3.27-3.27,3.27,1.46,3.27,3.27-1.47,3.27-3.27,3.27Z"/>
      <path class="cls-3" d="M153.13,132.42c-3.19,2.88-7.54,5.44-12.97,7.57-10.8,4.25-25.04,6.58-40.1,6.58s-29.3-2.34-40.1-6.58c-5.5-2.16-9.9-4.76-13.1-7.7-.28-.25-.72-.05-.72.32l-.09,15.77c0,11.69,24.11,21.17,53.85,21.17s53.85-9.48,53.85-21.17l.08-15.64c0-.37-.44-.57-.72-.33ZM142.4,153.36c-1.81,0-3.27-1.46-3.27-3.27s1.47-3.27,3.27-3.27,3.27,1.46,3.27,3.27-1.47,3.27-3.27,3.27Z"/>
    </g>
  </g>
</svg>