<?xml version="1.0" encoding="UTF-8"?>
<svg version="1.1" xmlns="http://www.w3.org/2000/svg" width="413" height="263">
<path d="M0 0 C1.20523457 -0.0001808 1.20523457 -0.0001808 2.43481731 -0.00036526 C5.02452593 0.00037855 7.61416175 0.00798248 10.20385742 0.01586914 C11.80716924 0.01734021 13.41048155 0.0183599 15.01379395 0.0189209 C20.94564537 0.02415468 26.87748649 0.03811593 32.80932617 0.05102539 C46.07120117 0.07165039 59.33307617 0.09227539 72.99682617 0.11352539 C72.99682617 44.00352539 72.99682617 87.89352539 72.99682617 133.11352539 C29.10682617 133.11352539 -14.78317383 133.11352539 -60.00317383 133.11352539 C-60.08567383 120.01665039 -60.16817383 106.91977539 -60.25317383 93.42602539 C-60.28958984 89.31560791 -60.32600586 85.20519043 -60.36352539 80.97021484 C-60.3815918 75.8873291 -60.3815918 75.8873291 -60.38494873 73.49552917 C-60.39102561 71.85188951 -60.40495539 70.20826583 -60.42547607 68.56474304 C-60.65253307 49.39384589 -56.1347654 33.57249807 -43.00317383 19.11352539 C-31.23966581 7.18014722 -16.88257095 -0.08199444 0 0 Z " fill="#040300" transform="translate(69.003173828125,120.886474609375)"/>
<path d="M0 0 C1.59720546 0.00442073 3.19441529 0.00747517 4.79162598 0.00915527 C10.65932812 0.02476947 16.52693672 0.06665297 22.39453125 0.10546875 C42.10171875 0.19828125 42.10171875 0.19828125 62.20703125 0.29296875 C62.20703125 44.18296875 62.20703125 88.07296875 62.20703125 133.29296875 C30.20703125 133.29296875 30.20703125 133.29296875 22.76953125 126.91796875 C20.31640625 123.03125 20.31640625 123.03125 19.25585938 121.09228516 C17.69857945 118.42069459 15.65677685 116.32519195 13.51953125 114.10546875 C9.59041065 109.78343609 5.89921169 105.2981341 2.25 100.73828125 C0.25129618 98.25971311 0.25129618 98.25971311 -2.0546875 96.09765625 C-3.79296875 94.29296875 -3.79296875 94.29296875 -3.79296875 92.29296875 C-1.38268633 90.69317026 1.03130223 89.1998493 3.51953125 87.73046875 C10.62671135 83.41573176 16.92416286 78.75454715 23.20703125 73.29296875 C23.9340625 72.7103125 24.66109375 72.12765625 25.41015625 71.52734375 C31.67785171 66.40792837 39.54259911 58.30217121 40.47265625 49.890625 C40.55605043 43.30933273 40.55605043 43.30933273 38.20703125 37.29296875 C36.89513438 36.5850501 35.55782736 35.92350194 34.20703125 35.29296875 C33.57667969 34.9371875 32.94632812 34.58140625 32.296875 34.21484375 C7.51433897 20.72162994 -22.265731 19.56056317 -49.79296875 17.29296875 C-47.75147568 11.16848955 -39.30320721 8.01002023 -33.79296875 5.04296875 C-22.64901657 -0.06083452 -12.00852666 -0.1117543 0 0 Z " fill="#030300" transform="translate(79.79296875,120.70703125)"/>
<path d="M0 0 C10.73097816 8.13005087 18.33337428 20.43008413 20.43359375 33.84375 C21.36155723 46.74396362 19.54793585 57.99068647 12.19140625 68.94140625 C11.2282318 70.8175044 11.2282318 70.8175044 11.91796875 72.75 C14.47639543 76.28432139 17.91824669 78.92805752 21.265625 81.68945312 C25.35571997 85.23981402 25.35571997 85.23981402 25.80078125 88.69140625 C25.61902344 89.75681641 25.61902344 89.75681641 25.43359375 90.84375 C11.39233814 91.9172926 11.39233814 91.9172926 6.58984375 89.28515625 C4.68218309 87.56757048 3.00536077 85.87050221 1.43359375 83.84375 C0.52738281 84.25367187 -0.37882812 84.66359375 -1.3125 85.0859375 C-16.75375072 91.97187192 -32.24272517 94.97493948 -48.640625 89.09375 C-61.4485313 83.62174731 -71.26588719 74.03379348 -76.71875 61.11328125 C-81.94879327 47.32160131 -81.85430785 34.47667734 -76.3125 20.734375 C-69.68012124 6.49373613 -59.40162958 -1.83501026 -44.85546875 -7.4296875 C-29.38786308 -12.33920056 -13.1679867 -9.0207398 0 0 Z M-56.37890625 17.7265625 C-63.17312631 26.11742427 -65.27315306 34.50043049 -64.94921875 45.22265625 C-63.96994495 54.48578697 -59.5338813 62.21885943 -52.75390625 68.53125 C-44.57808655 75.12465298 -36.53775603 77.5253627 -26.0625 77.25 C-20.8620838 76.64570583 -16.30785633 75.01127004 -11.56640625 72.84375 C-16.6614629 66.50935524 -22.47987707 61.21577358 -28.56640625 55.84375 C-29.29085937 55.19277344 -30.0153125 54.54179688 -30.76171875 53.87109375 C-33.72189429 50.87225664 -33.72189429 50.87225664 -37.56640625 49.84375 C-37.23640625 49.18375 -36.90640625 48.52375 -36.56640625 47.84375 C-18.68174355 46.74620028 -18.68174355 46.74620028 -12.12109375 51.8046875 C-8.64926843 54.90745374 -5.55919509 58.2811421 -2.56640625 61.84375 C0.57269657 61.18195194 0.57269657 61.18195194 1.56640625 58.69140625 C5.62909725 47.28708074 6.86056022 37.12010809 1.80859375 25.78125 C-3.44264301 16.24407735 -10.62484349 10.23882448 -21.02734375 7.1015625 C-34.35246435 3.86988873 -46.87768308 7.85675739 -56.37890625 17.7265625 Z " fill="#000000" transform="translate(377.56640625,15.15625)"/>
<path d="M0 0 C1.50038637 0.16677768 3.00095929 0.33188525 4.50170898 0.49536133 C8.88328372 0.98683495 13.2538593 1.54905515 17.625 2.125 C18.75083496 2.26760254 19.87666992 2.41020508 21.03662109 2.55712891 C32.18705924 4.02509368 42.79955334 6.53377362 53.5 10 C54.48105713 10.31541748 55.46211426 10.63083496 56.47290039 10.95581055 C63.69225663 13.43861183 70.46047376 16.67278956 75.6875 22.375 C77.47823905 27.62783454 77.72279437 32.49511898 75.55859375 37.6796875 C67.25827469 52.19959169 53.97216402 61.6582509 40.375 70.8125 C39.73103271 71.2468335 39.08706543 71.68116699 38.42358398 72.12866211 C33.87676208 75.125 33.87676208 75.125 31.625 75.125 C36.28486397 80.96996518 41.03371593 86.65502538 46.125 92.125 C51.21185591 97.59468023 55.9414114 103.30571156 60.625 109.125 C61.64280854 110.33588229 62.66303358 111.54474538 63.6875 112.75 C65.625 115.125 65.625 115.125 65.625 116.125 C39.225 116.125 12.825 116.125 -14.375 116.125 C-12.52392591 112.42285182 -10.75206972 110.09014393 -8.0625 107 C9.73569836 86.07780756 36.59660371 53.1960959 35.8203125 24.140625 C35.46277486 20.45083659 34.63647688 18.2605375 32.625 15.125 C20.46380746 6.52829493 4.86063822 6.11277535 -9.4375 5.5625 C-10.49388672 5.51931641 -11.55027344 5.47613281 -12.63867188 5.43164062 C-15.21734879 5.32662663 -17.79610435 5.22447123 -20.375 5.125 C-16.03072844 -3.4973867 -8.24072279 -1.028284 0 0 Z " fill="#FCD400" transform="translate(44.375,137.875)"/>
<path d="M0 0 C56.21565594 0 56.21565594 0 71.70703125 14.5546875 C75.27653453 18.36134687 77.76212649 22.30046564 80 27 C80.4125 27.845625 80.825 28.69125 81.25 29.5625 C86.27523238 41.84640138 85.78867428 57.90476404 81.2734375 70.265625 C79.28343332 74.5386401 76.86494708 78.26927221 74 82 C73.4225 82.86625 72.845 83.7325 72.25 84.625 C64.4908067 92.81525959 54.89066697 96.82186661 44 99 C29.48 99 14.96 99 0 99 C0 66.33 0 33.66 0 0 Z M15 16 C15 38.44 15 60.88 15 84 C39.70117587 85.23851743 39.70117587 85.23851743 59.5625 74.75 C67.21230724 66.11944824 69.45345167 58.00617186 69.24609375 46.50390625 C68.52083166 36.17755551 64.45110214 29.45110214 57.25 22.25 C43.26430774 12.56759767 33.41928187 16 15 16 Z " fill="#000000" transform="translate(164,7)"/>
<path d="M0 0 C49.45260664 0 49.45260664 0 58.77734375 8.6484375 C65.24287347 15.34634356 68.1539529 22.83883238 68.4375 32.125 C68.07942175 41.06540543 65.4476957 48.61946779 59 55 C54.29886341 58.39777661 49.41196186 60.93554396 44 63 C44.68964844 63.73863281 45.37929688 64.47726563 46.08984375 65.23828125 C51.50177956 71.06786153 56.72954541 76.97933541 61.71875 83.1796875 C63.38864762 85.24418421 65.07233606 87.28862979 66.78125 89.3203125 C67.2445874 89.87138672 67.7079248 90.42246094 68.18530273 90.99023438 C69.49863498 92.54919071 70.813726 94.10666488 72.12890625 95.6640625 C74 98 74 98 74 99 C57.55267991 101.21374697 57.55267991 101.21374697 51.921875 97.70507812 C48.12724967 94.26315836 45.20731107 90.1685429 42.34033203 85.94482422 C40.47489335 83.2380693 38.37219311 80.7580464 36.25 78.25 C34.83205902 76.50103236 33.41539389 74.75102958 32 73 C30.41794198 71.06145851 28.83461001 69.12395599 27.25 67.1875 C26.51394531 66.27742188 25.77789062 65.36734375 25.01953125 64.4296875 C23.83206073 63.00104792 22.61205571 61.59668263 21.32421875 60.2578125 C19.43047542 58.28405185 18.07069009 56.75642956 17.81079102 53.9753418 C17.87386068 51.9835612 17.93693034 49.9917806 18 48 C18.99797607 47.97812622 18.99797607 47.97812622 20.01611328 47.95581055 C23.05297114 47.88098635 26.08877091 47.78443984 29.125 47.6875 C30.69507813 47.65366211 30.69507813 47.65366211 32.296875 47.61914062 C37.87038637 47.42512599 42.23805906 47.22108525 47 44 C50.63900364 39.77088767 52.26137131 35.5828911 52 30 C51.09374345 25.58901677 49.73909865 22.72062118 46.5 19.5625 C36.84214071 13.52633794 27.90747513 16.49644135 15 16 C15 43.39 15 70.78 15 99 C10.05 99 5.1 99 0 99 C0 66.33 0 33.66 0 0 Z " fill="#000000" transform="translate(9,7)"/>
<path d="M0 0 C5.28 0 10.56 0 16 0 C16.01981934 2.21549561 16.03963867 4.43099121 16.06005859 6.71362305 C16.12699911 14.03789879 16.20463818 21.36203308 16.28752708 28.68614483 C16.33744896 33.1262621 16.38377936 37.56635606 16.421875 42.0065918 C16.45877972 46.29256488 16.50515376 50.57834094 16.55806351 54.86414528 C16.5765799 56.49834546 16.59169803 58.13258784 16.60334396 59.76685143 C16.62025372 62.05790712 16.64929961 64.3485143 16.68115234 66.6394043 C16.69447601 67.94290329 16.70779968 69.24640228 16.7215271 70.58940125 C16.9885178 73.85937168 17.48483585 76.10660177 19 79 C21.0867944 80.27325863 21.0867944 80.27325863 24 81 C24.71414062 81.26941406 25.42828125 81.53882812 26.1640625 81.81640625 C34.11604798 84.63115667 41.63006453 84.75993904 49.4375 81.3125 C53.2305911 79.45282034 54.93335349 76.6213669 57 73 C57.61018242 69.4544203 57.61018242 69.4544203 57.54589844 65.61767578 C57.55623611 64.90478897 57.56657379 64.19190216 57.57722473 63.45741272 C57.60653461 61.11981218 57.6081493 58.78308192 57.609375 56.4453125 C57.62436474 54.8171932 57.64109356 53.18908907 57.65948486 51.56100464 C57.70308189 47.28999107 57.72314035 43.0191826 57.73822021 38.74798584 C57.75781902 34.38395092 57.79978587 30.0201366 57.83984375 25.65625 C57.91506317 17.10419749 57.96333553 8.5523048 58 0 C63.28 0 68.56 0 74 0 C74.04534633 8.95415546 74.08197081 17.90823353 74.10362434 26.86247826 C74.11402163 31.02115552 74.12810595 35.17974954 74.15087891 39.33837891 C74.17275294 43.35842319 74.18459905 47.37838784 74.18975449 51.39848709 C74.19342428 52.9253324 74.20058981 54.45217381 74.21146011 55.97898483 C74.37081547 79.30845587 74.37081547 79.30845587 66 89 C57.08546737 97.58932436 45.84516473 100.39006918 33.80859375 100.27734375 C21.31179356 99.36732035 12.49882971 94.23651458 4.32421875 85.1015625 C0.69316325 79.33900244 -0.37469041 73.93890702 -0.34057617 67.20703125 C-0.34101425 66.47434525 -0.34145233 65.74165924 -0.34190369 64.98677063 C-0.33983448 62.59506401 -0.31659368 60.20408224 -0.29296875 57.8125 C-0.28736611 56.14241926 -0.28309917 54.47233355 -0.28010559 52.80224609 C-0.26870932 48.42920058 -0.23928776 44.05645902 -0.20599365 39.68353271 C-0.1751796 35.21224071 -0.16157614 30.74089908 -0.14648438 26.26953125 C-0.11441241 17.51286653 -0.06168781 8.75650622 0 0 Z " fill="#000000" transform="translate(82,7)"/>
<path d="M0 0 C17.16 0 34.32 0 52 0 C52 4.95 52 9.9 52 15 C51.67 15.33 51.34 15.66 51 16 C45.06 16 39.12 16 33 16 C33 38.44 33 60.88 33 84 C39.27 84 45.54 84 52 84 C52 88.95 52 93.9 52 99 C34.84 99 17.68 99 0 99 C0 94.05 0 89.1 0 84 C5.94 84 11.88 84 18 84 C18 61.56 18 39.12 18 16 C12.06 16 6.12 16 0 16 C0 10.72 0 5.44 0 0 Z " fill="#000000" transform="translate(246,7)"/>
<path d="M0 0 C11.4586407 1.71704402 24.34379973 5.73231861 32.3125 14.5625 C35.45408906 19.10035087 35.66874764 23.65001892 35 29 C31.40885615 41.75419698 24.07802383 51.83767998 16.01953125 62.12890625 C12.21578081 66.98729131 8.48665053 71.90245137 4.75 76.8125 C4.07654541 77.69599121 3.40309082 78.57948242 2.70922852 79.48974609 C1.73167603 80.77292725 1.73167603 80.77292725 0.734375 82.08203125 C0.10595703 82.90654785 -0.52246094 83.73106445 -1.16992188 84.58056641 C-3.42991619 87.56836573 -5.65219298 90.58329802 -7.86230469 93.6081543 C-8.23774414 94.06746338 -8.61318359 94.52677246 -9 95 C-9.33 95 -9.66 95 -10 95 C-10.09322537 85.96733877 -10.16402865 76.93484652 -10.20724869 67.90180683 C-10.22800607 63.70609189 -10.25610288 59.51070929 -10.30175781 55.31518555 C-10.34564386 51.25619999 -10.36922586 47.19753139 -10.37950897 43.13832664 C-10.38682453 41.59996752 -10.4011069 40.06162312 -10.42292023 38.52340126 C-10.61010839 24.75927882 -7.92411265 13.0464116 -1 1 C-0.67 0.67 -0.34 0.34 0 0 Z " fill="#FDD500" transform="translate(19,149)"/>
<path d="M0 0 C1.80031478 0.00560586 3.60063418 0.00987127 5.4009552 0.01286316 C10.10439021 0.02423407 14.80754054 0.0536331 19.51086426 0.0869751 C24.32426098 0.11784457 29.13770438 0.13140432 33.95117188 0.14648438 C43.36993589 0.17851144 52.78841519 0.2312146 62.20703125 0.29296875 C62.20703125 9.53296875 62.20703125 18.77296875 62.20703125 28.29296875 C60.18578125 27.09671875 58.16453125 25.90046875 56.08203125 24.66796875 C39.87648894 15.32982741 22.63170292 9.10890854 3.7734375 9.16015625 C2.58004005 9.15872116 2.58004005 9.15872116 1.36253357 9.15725708 C-0.31747517 9.15657959 -1.99748659 9.1584037 -3.67749023 9.16259766 C-6.19195783 9.16788773 -8.7062415 9.16267137 -11.22070312 9.15625 C-21.4518463 9.15247286 -31.5899834 9.51527788 -41.79296875 10.29296875 C-28.95988438 0.5608402 -15.52805154 -0.14305884 0 0 Z " fill="#FCD400" transform="translate(79.79296875,120.70703125)"/>
<path d="M0 0 C0.33 0 0.66 0 1 0 C1 19.47 1 38.94 1 59 C-1.475 56.525 -1.475 56.525 -4 54 C-5.3926119 52.61786736 -6.78582943 51.23634464 -8.1796875 49.85546875 C-9.74485315 48.29954101 -11.3099557 46.7435498 -12.875 45.1875 C-13.65230469 44.41857422 -14.42960937 43.64964844 -15.23046875 42.85742188 C-27.85904812 30.28190377 -27.85904812 30.28190377 -30 26 C-29.33355469 25.59910156 -28.66710937 25.19820312 -27.98046875 24.78515625 C-17.63938943 18.40695208 -8.76542844 11.66507446 -1.4609375 1.87109375 C-0.97882813 1.25363281 -0.49671875 0.63617188 0 0 Z " fill="#FBD400" transform="translate(141,186)"/>
<path d="M0 0 C3.36845324 1.68422662 5.29499483 2.98847084 7.4375 6.0625 C8 8 8 8 7 11 C2.2743106 9.33962264 2.2743106 9.33962264 0.6875 7.375 C-1.79173067 5.35488612 -4.00183125 5.51846314 -7.125 5.65625 C-9.16570244 5.88068322 -9.16570244 5.88068322 -11 7.5625 C-12.69829236 11.70208763 -12.69829236 15.29791237 -11 19.4375 C-7.73859795 21.98547035 -5.06005224 21.38667164 -1 21 C-0.34 20.34 0.32 19.68 1 19 C-1.64 18.67 -4.28 18.34 -7 18 C-7 16.35 -7 14.7 -7 13 C-2.05 13 2.9 13 8 13 C8 19 8 19 5.75 22.25 C2.267359 25.732641 -0.3745607 27.2895017 -5.3125 27.5 C-10.03412879 27.42195655 -12.35224944 25.70409428 -15.6875 22.5078125 C-18.73658669 19.00499267 -18.44338138 15.30440996 -18.42578125 10.83984375 C-17.7569677 6.37904146 -15.40998318 3.80926076 -12 1 C-8.28986322 -0.85506839 -4.04907177 -0.45334699 0 0 Z " fill="#000000" transform="translate(252,222)"/>
<path d="M0 0 C5.625 1.125 5.625 1.125 7.67578125 4.16015625 C8.11083984 4.78857422 8.54589844 5.41699219 8.99414062 6.06445312 C9.64672852 7.05348633 9.64672852 7.05348633 10.3125 8.0625 C10.76689453 8.72572266 11.22128906 9.38894531 11.68945312 10.07226562 C12.80602967 11.70599341 13.90479181 13.35187117 15 15 C15.33 10.05 15.66 5.1 16 0 C17.65 0 19.3 0 21 0 C21 8.91 21 17.82 21 27 C16 27 16 27 14.5144043 25.62304688 C13.92526245 24.68041992 13.92526245 24.68041992 13.32421875 23.71875 C12.88916016 23.04199219 12.45410156 22.36523438 12.00585938 21.66796875 C11.57080078 20.95253906 11.13574219 20.23710937 10.6875 19.5 C10.23310547 18.78457031 9.77871094 18.06914062 9.31054688 17.33203125 C8.19118806 15.56462259 7.09347793 13.78353681 6 12 C5.67 16.95 5.34 21.9 5 27 C3.35 27 1.7 27 0 27 C0 18.09 0 9.18 0 0 Z " fill="#000000" transform="translate(287,222)"/>
<path d="M0 0 C3.1875 1.625 3.1875 1.625 5 4 C5.8125 7.25 5.8125 7.25 6 10 C2.75091983 9.63899109 1.34484249 9.36709039 -0.9375 6.9375 C-2.90423327 4.7304764 -2.90423327 4.7304764 -6 4.5 C-9.04389815 4.79929585 -9.04389815 4.79929585 -11.375 6.5625 C-13.62340519 9.93510779 -13.56783945 12.02512383 -13 16 C-11.52006844 18.56338689 -11.52006844 18.56338689 -9 20 C-4.89222251 20.50299316 -3.49124017 20.32749345 0 18 C-2.64 17.67 -5.28 17.34 -8 17 C-8 15.35 -8 13.7 -8 12 C-3.38 12 1.24 12 6 12 C6 19 6 19 4.85546875 20.99609375 C0.26563645 24.96248279 -3.42628145 25.80928831 -9.47265625 25.4609375 C-12.93905637 24.8287347 -14.71034753 23.65895126 -17 21 C-19.50665575 16.73600907 -19.69663091 12.84284377 -19 8 C-14.48072599 -0.57103692 -9.01213684 -0.97297024 0 0 Z " fill="#000000" transform="translate(389,188)"/>
<path d="M0 0 C5 1 5 1 6.51171875 2.84765625 C7.09373047 3.94400391 7.09373047 3.94400391 7.6875 5.0625 C8.81932171 7.23199669 8.81932171 7.23199669 10 9 C10.66 9 11.32 9 12 9 C13.54328561 6.71901482 14.89584734 4.35520355 16.26953125 1.96875 C16.84058594 1.3190625 17.41164062 0.669375 18 0 C19.65 0 21.3 0 23 0 C23 8.25 23 16.5 23 25 C21.35 25 19.7 25 18 25 C17.505 18.565 17.505 18.565 17 12 C15.35 13.98 13.7 15.96 12 18 C8.28139821 16.46126823 7.64366459 15.52488612 5 12 C4.67 16.29 4.34 20.58 4 25 C2.68 25 1.36 25 0 25 C0 16.75 0 8.5 0 0 Z " fill="#000000" transform="translate(182,188)"/>
<path d="M0 0 C4.60513107 1.84205243 6.48855405 4.81425675 9 9 C8.67 9.66 8.34 10.32 8 11 C5.6875 10.75 5.6875 10.75 3 10 C2.566875 9.319375 2.13375 8.63875 1.6875 7.9375 C0.21303359 5.84541312 0.21303359 5.84541312 -1.85546875 5.6328125 C-4.9810716 5.53033372 -7.23750597 5.53266495 -9.9375 7.1875 C-11.31956119 9.54513379 -11.8045898 11.26425721 -12 14 C-10.93600927 17.81263347 -10.3748349 18.75011007 -7 21 C-4.0850745 21.5838196 -4.0850745 21.5838196 -1 21 C0.68711423 19.3540349 2.3545622 17.68762851 4 16 C6.8125 15.6875 6.8125 15.6875 9 16 C7.75892597 20.96429611 6.23893588 23.13871828 2 26 C-1.5329185 27.76645925 -5.15255861 27.64124023 -9 27 C-12.7981894 25.12946312 -15.22596986 22.70224955 -16.98046875 18.84375 C-18.12128793 14.80594151 -18.09363593 12.35113472 -17 8.25 C-12.60420459 1.10683247 -8.16895329 -1.36149222 0 0 Z " fill="#000000" transform="translate(329,222)"/>
<path d="M0 0 C5.61 0 11.22 0 17 0 C17 1.65 17 3.3 17 5 C13.04 5 9.08 5 5 5 C5 6.98 5 8.96 5 11 C8.96 11 12.92 11 17 11 C17 12.65 17 14.3 17 16 C13.04 16 9.08 16 5 16 C5 17.98 5 19.96 5 22 C8.96 22 12.92 22 17 22 C17 23.65 17 25.3 17 27 C11.39 27 5.78 27 0 27 C0 18.09 0 9.18 0 0 Z " fill="#000000" transform="translate(265,222)"/>
<path d="M0 0 C13.36391936 -0.49495998 13.36391936 -0.49495998 16.39453125 1.86328125 C18.29369885 4.39088387 18.92277544 5.83379292 19 9 C17.6875 11.625 17.6875 11.625 16 14 C15.01 15.485 15.01 15.485 14 17 C15.98 19.64 17.96 22.28 20 25 C16.9375 25.5625 16.9375 25.5625 13 25 C10.24862054 22.27517826 8.11251255 19.23618944 6 16 C5.67 18.97 5.34 21.94 5 25 C3.35 25 1.7 25 0 25 C0 16.75 0 8.5 0 0 Z M5 4 C5 6.64 5 9.28 5 12 C9.18966713 12.34685528 9.18966713 12.34685528 12.9375 10.75 C14.21450959 9.03598141 14.21450959 9.03598141 13.8125 6.875 C13.1564434 4.81035868 13.1564434 4.81035868 11 4 C9.00039988 3.960008 6.99952758 3.95653201 5 4 Z " fill="#000000" transform="translate(237,188)"/>
<path d="M0 0 C5.26935227 1.05387045 5.82487918 1.49992258 8.63867188 5.70898438 C9.2197168 6.62647461 9.2197168 6.62647461 9.8125 7.5625 C10.21919922 8.17802734 10.62589844 8.79355469 11.04492188 9.42773438 C12.0433873 10.94305249 13.02353265 12.47041388 14 14 C14.33 9.38 14.66 4.76 15 0 C16.32 0 17.64 0 19 0 C19 8.25 19 16.5 19 25 C13.73064773 23.94612955 13.17512082 23.50007742 10.36132812 19.29101562 C9.7802832 18.37352539 9.7802832 18.37352539 9.1875 17.4375 C8.57745117 16.51420898 8.57745117 16.51420898 7.95507812 15.57226562 C6.9566127 14.05694751 5.97646735 12.52958612 5 11 C4.67 15.62 4.34 20.24 4 25 C2.68 25 1.36 25 0 25 C0 16.75 0 8.5 0 0 Z " fill="#000000" transform="translate(346,188)"/>
<path d="M0 0 C1.65 0 3.3 0 5 0 C6.67223282 4.12276549 8.33684063 8.24856675 10 12.375 C10.47695312 13.550625 10.95390625 14.72625 11.4453125 15.9375 C11.89648438 17.05898437 12.34765625 18.18046875 12.8125 19.3359375 C13.23144531 20.37282715 13.65039062 21.4097168 14.08203125 22.47802734 C15 25 15 25 15 27 C13.35 27 11.7 27 10 27 C7 21.25 7 21.25 7 19 C4.03 19 1.06 19 -2 19 C-2.2165625 20.1446875 -2.2165625 20.1446875 -2.4375 21.3125 C-3 24 -3 24 -4 27 C-5.65 27 -7.3 27 -9 27 C-8.45371735 20.67872937 -6.36700755 15.39080049 -3.9375 9.5625 C-3.56044922 8.64017578 -3.18339844 7.71785156 -2.79492188 6.76757812 C-1.87031 4.5087162 -0.93855136 2.2530973 0 0 Z M2 8 C1.34 10.31 0.68 12.62 0 15 C1.65 15 3.3 15 5 15 C4.34 12.69 3.68 10.38 3 8 C2.67 8 2.34 8 2 8 Z " fill="#000000" transform="translate(216,222)"/>
<path d="M0 0 C1.65 0 3.3 0 5 0 C5.33 2.64 5.66 5.28 6 8 C6.35191406 7.4225 6.70382812 6.845 7.06640625 6.25 C8.59101256 3.9571195 10.04025227 1.93849233 12 0 C15.875 -0.5 15.875 -0.5 19 0 C18.60167969 0.51949219 18.20335937 1.03898438 17.79296875 1.57421875 C16.99826172 2.62029297 16.99826172 2.62029297 16.1875 3.6875 C15.66542969 4.37199219 15.14335937 5.05648437 14.60546875 5.76171875 C12.92657063 8.10237234 11.45058822 10.51265504 10 13 C10.721875 13.78246094 11.44375 14.56492188 12.1875 15.37109375 C13.12512973 16.39311016 14.0626227 17.41525205 15 18.4375 C15.47695313 18.95376953 15.95390625 19.47003906 16.4453125 20.00195312 C20 23.88671875 20 23.88671875 20 25 C16.9375 25.5625 16.9375 25.5625 13 25 C10.24862054 22.27517826 8.11251255 19.23618944 6 16 C5.67 18.97 5.34 21.94 5 25 C3.35 25 1.7 25 0 25 C0 16.75 0 8.5 0 0 Z " fill="#000000" transform="translate(261,188)"/>
<path d="M0 0 C5.28 0 10.56 0 16 0 C16 1.32 16 2.64 16 4 C10.555 4.495 10.555 4.495 5 5 C5 6.65 5 8.3 5 10 C8.63 10 12.26 10 16 10 C16 11.65 16 13.3 16 15 C12.37 15 8.74 15 5 15 C5 16.98 5 18.96 5 21 C8.63 21 12.26 21 16 21 C16 22.32 16 23.64 16 25 C10.72 25 5.44 25 0 25 C0 16.75 0 8.5 0 0 Z " fill="#000000" transform="translate(284,188)"/>
<path d="M0 0 C1.65 0 3.3 0 5 0 C8.91631266 8.16592852 12.0647725 16.44412409 15 25 C13.02 25 11.04 25 9 25 C8.34 22.69 7.68 20.38 7 18 C2.91435675 18.11544282 2.91435675 18.11544282 -1 19 C-3.08632697 21.91841857 -3.08632697 21.91841857 -4 25 C-5.65 25 -7.3 25 -9 25 C-6.286575 16.55823333 -3.14265947 8.28889147 0 0 Z M2 8 C1.67 9.98 1.34 11.96 1 14 C2.32 14 3.64 14 5 14 C4.34 12.02 3.68 10.04 3 8 C2.67 8 2.34 8 2 8 Z " fill="#000000" transform="translate(218,188)"/>
<path d="M0 0 C2.6875 -0.5 2.6875 -0.5 6 0 C8.47575002 2.80201165 11 6.16508611 11 10 C11.66 10 12.32 10 13 10 C13.268125 9.278125 13.53625 8.55625 13.8125 7.8125 C15.02618879 4.93797393 16.08983806 2.47613585 18 0 C20.6875 -0.3125 20.6875 -0.3125 23 0 C22.45185113 4.24815377 21.00273677 6.6888655 18.5 10.125 C14.77876086 15.71827356 13.9100377 20.3556412 14 27 C12.35 27 10.7 27 9 27 C9.020625 26.28457031 9.04125 25.56914062 9.0625 24.83203125 C8.88629475 16.31911527 6.37912446 11.45376063 1.71484375 4.6171875 C0 2 0 2 0 0 Z " fill="#000000" transform="translate(340,222)"/>
<path d="M0 0 C4.62 0 9.24 0 14 0 C14 1.32 14 2.64 14 4 C12.35 4 10.7 4 9 4 C9 9.61 9 15.22 9 21 C10.65 21 12.3 21 14 21 C14 22.32 14 23.64 14 25 C9.38 25 4.76 25 0 25 C0 23.68 0 22.36 0 21 C1.65 21 3.3 21 5 21 C4.67 20.34 4.34 19.68 4 19 C3.92883618 16.62597499 3.91590915 14.24999323 3.9375 11.875 C3.94652344 10.59367188 3.95554687 9.31234375 3.96484375 7.9921875 C3.97644531 7.00476563 3.98804688 6.01734375 4 5 C2.68 4.67 1.36 4.34 0 4 C0 2.68 0 1.36 0 0 Z " fill="#000000" transform="translate(327,188)"/>
<path d="M0 0 C6.6 0 13.2 0 20 0 C20 1.32 20 2.64 20 4 C17.36 4 14.72 4 12 4 C12 10.93 12 17.86 12 25 C10.35 25 8.7 25 7 25 C7 18.07 7 11.14 7 4 C4.69 4 2.38 4 0 4 C0 2.68 0 1.36 0 0 Z " fill="#000000" transform="translate(303,188)"/>
</svg>
