<?xml version="1.0" encoding="UTF-8"?>
<svg version="1.1" xmlns="http://www.w3.org/2000/svg" width="413" height="263">
<path d="M0 0 C0.76420258 -0.00024107 1.52840515 -0.00048214 2.31576538 -0.00073051 C4.76011289 0.00074799 7.20414542 0.01591259 9.6484375 0.03173828 C11.16926934 0.03468327 12.69010322 0.0367209 14.2109375 0.0378418 C19.81513532 0.04827634 25.41928959 0.07619886 31.0234375 0.10205078 C43.5634375 0.14330078 56.1034375 0.18455078 69.0234375 0.22705078 C69.0234375 42.46705078 69.0234375 84.70705078 69.0234375 128.22705078 C26.7834375 128.22705078 -15.4565625 128.22705078 -58.9765625 128.22705078 C-59.0590625 115.81080078 -59.1415625 103.39455078 -59.2265625 90.60205078 C-59.26297852 86.70956543 -59.29939453 82.81708008 -59.33691406 78.80664062 C-59.35498047 73.98217773 -59.35498047 73.98217773 -59.3583374 71.70986938 C-59.36440242 70.15293782 -59.37830616 68.59602272 -59.39886475 67.03921509 C-59.63468992 48.20807645 -55.51400922 32.53289692 -42.28466797 18.44116211 C-31.06962561 6.98673986 -16.17495553 -0.16806527 0 0 Z " fill="#030200" transform="translate(73.9765625,123.77294921875)"/>
<path d="M0 0 C0.76384097 -0.00012053 1.52768194 -0.00024107 2.31466961 -0.00036526 C4.77515818 0.0003782 7.23556999 0.00798052 9.69604492 0.01586914 C11.21992964 0.01734032 12.74381487 0.01835995 14.2677002 0.0189209 C19.90397908 0.02415342 25.54024714 0.03811468 31.17651367 0.05102539 C43.77838867 0.07165039 56.38026367 0.09227539 69.36401367 0.11352539 C69.36401367 42.35352539 69.36401367 84.59352539 69.36401367 128.11352539 C38.36401367 128.11352539 38.36401367 128.11352539 30.98901367 121.73852539 C28.50854492 117.85180664 28.50854492 117.85180664 27.42895508 115.9128418 C25.85429181 113.25230344 23.811919 111.14756471 21.67651367 108.92602539 C8.89804217 94.81840631 8.89804217 94.81840631 6.36401367 89.11352539 C7.45456055 88.40389648 7.45456055 88.40389648 8.56713867 87.67993164 C32.31712371 72.58398452 32.31712371 72.58398452 48.36401367 50.11352539 C48.75093162 47.96076083 48.75093162 47.96076083 48.73901367 45.73852539 C48.76737305 45.00891602 48.79573242 44.27930664 48.82495117 43.52758789 C48.14637872 39.97370843 46.63222314 37.91433577 44.36401367 35.11352539 C20.56178145 19.41087936 -11.15065637 19.13618469 -38.63598633 17.11352539 C-35.56443066 10.2099411 -27.21669838 6.68260146 -20.50708008 3.74243164 C-13.56703611 1.16470102 -7.41677493 -0.03794053 0 0 Z " fill="#030200" transform="translate(73.635986328125,123.886474609375)"/>
<path d="M0 0 C2.71788433 1.88636978 5.32769525 3.73320205 7.77734375 5.95703125 C7.77734375 6.61703125 7.77734375 7.27703125 7.77734375 7.95703125 C8.43734375 7.95703125 9.09734375 7.95703125 9.77734375 7.95703125 C12.77734375 11.41856971 12.77734375 11.41856971 12.77734375 13.95703125 C13.43734375 13.95703125 14.09734375 13.95703125 14.77734375 13.95703125 C22.89508641 26.37428978 24.43745609 40.8638775 22.2734375 55.32421875 C20.82213259 61.84265107 18.36627514 67.33957342 14.77734375 72.95703125 C14.11734375 72.95703125 13.45734375 72.95703125 12.77734375 72.95703125 C13.95296875 74.41109375 13.95296875 74.41109375 15.15234375 75.89453125 C15.59320313 76.43980469 16.0340625 76.98507813 16.48828125 77.546875 C17.74398285 79.08969562 17.74398285 79.08969562 19.77734375 79.95703125 C19.77734375 80.61703125 19.77734375 81.27703125 19.77734375 81.95703125 C20.43734375 81.95703125 21.09734375 81.95703125 21.77734375 81.95703125 C21.77734375 82.61703125 21.77734375 83.27703125 21.77734375 83.95703125 C22.43734375 83.95703125 23.09734375 83.95703125 23.77734375 83.95703125 C23.77734375 84.61703125 23.77734375 85.27703125 23.77734375 85.95703125 C25.75734375 86.94703125 25.75734375 86.94703125 27.77734375 87.95703125 C27.77734375 89.93703125 27.77734375 91.91703125 27.77734375 93.95703125 C13.44094689 95.04129656 13.44094689 95.04129656 9.33203125 92.36328125 C7.58984375 90.39453125 7.58984375 90.39453125 6.234375 88.390625 C5.51314453 87.68099609 5.51314453 87.68099609 4.77734375 86.95703125 C0.79919821 87.18029452 -2.6632857 88.88190676 -6.28515625 90.45703125 C-18.11529935 95.5888966 -33.73597795 96.20107602 -46.09765625 92.33203125 C-54.46426669 88.87124174 -61.25446471 83.71998196 -67.22265625 76.95703125 C-67.67382812 76.44785156 -68.125 75.93867187 -68.58984375 75.4140625 C-72.91451615 69.97464535 -74.95445366 63.44707079 -77.22265625 56.95703125 C-77.65578125 55.80203125 -78.08890625 54.64703125 -78.53515625 53.45703125 C-81.22514206 39.76255804 -77.96008846 26.5362974 -70.72265625 14.76953125 C-68.1864307 11.1005688 -65.66155826 7.8064072 -62.22265625 4.95703125 C-61.56265625 4.95703125 -60.90265625 4.95703125 -60.22265625 4.95703125 C-60.22265625 4.29703125 -60.22265625 3.63703125 -60.22265625 2.95703125 C-58.04048191 1.65559579 -55.85260383 0.36595698 -53.66015625 -0.91796875 C-52.7465332 -1.46517578 -52.7465332 -1.46517578 -51.81445312 -2.0234375 C-36.22308584 -11.09777825 -14.93936892 -9.47065448 0 0 Z M-54.94140625 19.875 C-62.39422945 29.31889606 -64.30445499 39.23857697 -62.984375 51.09765625 C-60.98274285 61.04516148 -54.41836518 69.26994477 -46.22265625 74.95703125 C-36.90353519 79.74140144 -28.539283 80.58533276 -18.22265625 78.95703125 C-15.05482636 77.88805162 -12.1431834 76.57954633 -9.22265625 74.95703125 C-12.51649172 70.73680455 -16.01657137 67.23551991 -20.09375 63.76953125 C-22.96977321 61.32095369 -25.76005538 58.77871132 -28.55859375 56.2421875 C-30.13604683 54.75328592 -30.13604683 54.75328592 -32.22265625 54.95703125 C-32.22265625 54.29703125 -32.22265625 53.63703125 -32.22265625 52.95703125 C-33.68098983 51.33188657 -33.68098983 51.33188657 -35.22265625 49.95703125 C-31.84597542 49.95073315 -28.47351653 50.01058447 -25.09765625 50.08203125 C-24.14632812 50.07945313 -23.195 50.076875 -22.21484375 50.07421875 C-17.29813806 50.21079391 -14.18957031 50.37023288 -10.66796875 54.01171875 C-9.86101562 54.98367187 -9.0540625 55.955625 -8.22265625 56.95703125 C-7.56265625 56.95703125 -6.90265625 56.95703125 -6.22265625 56.95703125 C-6.22265625 57.61703125 -6.22265625 58.27703125 -6.22265625 58.95703125 C-4.43541684 60.54158991 -4.43541684 60.54158991 -2.22265625 62.08203125 C-1.48015625 62.62085938 -0.73765625 63.1596875 0.02734375 63.71484375 C0.60484375 64.12476563 1.18234375 64.5346875 1.77734375 64.95703125 C7.38692856 56.16868171 9.20333959 46.74608413 7.3125 36.41796875 C4.7437739 26.59905124 -0.91148949 18.76428933 -9.22265625 12.95703125 C-24.76588338 4.5324485 -42.82365634 6.35269272 -54.94140625 19.875 Z " fill="#F3F3F3" transform="translate(378.22265625,14.04296875)"/>
<path d="M0 0 C52.4 0 52.4 0 63.125 6.1875 C64.05570312 6.71730469 64.98640625 7.24710938 65.9453125 7.79296875 C66.62335938 8.19128906 67.30140625 8.58960938 68 9 C68 9.66 68 10.32 68 11 C68.58910156 11.24878906 69.17820312 11.49757813 69.78515625 11.75390625 C77.12395177 15.88278768 81.297571 25.38886208 84 33 C88.05660073 47.72630578 86.69309649 64.03456903 79.25 77.5 C78.51967321 78.6790818 77.77814649 79.85191501 77 81 C76.34 81 75.68 81 75 81 C74.63261719 81.86625 74.63261719 81.86625 74.2578125 82.75 C69.76594456 90.78514265 60.8944843 95.3393714 52.5 98.1875 C35.39487562 102.15833245 17.18397644 100 0 100 C0 67 0 34 0 0 Z M16 15 C16 37.77 16 60.54 16 84 C40.86428243 85.60315471 40.86428243 85.60315471 61 75 C69.44578803 64.7752763 71.24635738 55.39840454 70.36376953 42.43115234 C69.45073512 36.32914118 66.28334658 31.13441698 63 26 C62.34 26 61.68 26 61 26 C60.505 24.515 60.505 24.515 60 23 C57.96310619 21.37847169 57.96310619 21.37847169 55.4375 19.9375 C54.61121094 19.43089844 53.78492188 18.92429687 52.93359375 18.40234375 C40.92226378 12.66057616 29.72741868 15 16 15 Z " fill="#F6F6F6" transform="translate(164,8)"/>
<path d="M0 0 C1.0282489 0.12103844 1.0282489 0.12103844 2.07727051 0.24452209 C2.80458374 0.30583817 3.53189697 0.36715424 4.28125 0.43032837 C6.64882454 0.64073579 9.0079938 0.89930743 11.37023926 1.16249084 C13.00384659 1.32382924 14.63755551 1.48414213 16.2713623 1.64344788 C67.95682514 6.92044 67.95682514 6.92044 82.18273926 22.16249084 C84.04165795 26.47180236 84.51913854 29.73676484 83.55773926 34.34999084 C75.91822103 52.42537924 57.52922519 63.43665475 41.55773926 73.34999084 C42.82038829 76.06532954 44.16124351 78.25044945 46.13977051 80.49452209 C46.65362305 81.0818512 47.16747559 81.6691803 47.69689941 82.27430725 C48.24910156 82.89740784 48.80130371 83.52050842 49.37023926 84.16249084 C49.94048828 84.81395081 50.5107373 85.46541077 51.0982666 86.13661194 C52.91427266 88.2111242 54.73547906 90.28097126 56.55773926 92.34999084 C58.93756599 95.05413786 61.31169191 97.76314559 63.68273926 100.47499084 C64.22648193 101.08963196 64.77022461 101.70427307 65.33044434 102.33753967 C65.84115479 102.92172668 66.35186523 103.5059137 66.87805176 104.10780334 C67.32422852 104.61456604 67.77040527 105.12132874 68.23010254 105.64344788 C69.86376439 107.74335525 71.18890379 110.0685984 72.55773926 112.34999084 C47.14773926 112.34999084 21.73773926 112.34999084 -4.44226074 112.34999084 C2.24763473 103.43013022 2.24763473 103.43013022 4.85461426 100.15858459 C12.23167735 90.83556158 19.24261685 81.42589083 25.55773926 71.34999084 C25.98039062 70.68145081 26.40304199 70.01291077 26.83850098 69.32411194 C36.30091542 54.23577857 45.6588414 37.77893495 43.55773926 19.34999084 C40.64711884 13.72948245 36.80207006 12.26171261 30.96008301 10.20936584 C21.29815129 7.76892385 11.74451216 6.99476748 1.80773926 6.72499084 C0.02883301 6.66698303 0.02883301 6.66698303 -1.78601074 6.60780334 C-4.67128449 6.51473 -7.55657095 6.42890144 -10.44226074 6.34999084 C-7.37717501 1.83032565 -5.85280203 -0.4053764 0 0 Z " fill="#FBD400" transform="translate(39.4422607421875,139.65000915527344)"/>
<path d="M0 0 C51.52266631 0 51.52266631 0 61.20703125 9.0078125 C68.0247404 16.58304489 69.29158589 24.37285854 69.14453125 34.265625 C68.7315347 42.07907318 66.1717918 48.05794133 61 54 C56.17327795 58.0368948 50.84789965 60.76037886 45 63 C45.66 64.32 46.32 65.64 47 67 C47.66 67 48.32 67 49 67 C50.49877503 68.65483608 51.92488473 70.37590512 53.3125 72.125 C54.11171875 73.12660156 54.9109375 74.12820312 55.734375 75.16015625 C56.85585937 76.56587891 56.85585937 76.56587891 58 78 C59.0164283 79.19127262 60.03611371 80.37979626 61.0625 81.5625 C63 84 63 84 63 86 C63.99 86.33 64.98 86.66 66 87 C67.1875 89.5625 67.1875 89.5625 68 92 C68.66 92 69.32 92 70 92 C75 97.47619048 75 97.47619048 75 100 C58.68941444 102.51058309 58.68941444 102.51058309 52.85595703 98.54101562 C48.80689501 94.58799103 45.67837068 89.9591123 42.55517578 85.26220703 C40.23126611 81.88177579 37.57579813 78.83121793 34.875 75.75 C26 65.33738602 26 65.33738602 26 63 C24.515 62.505 24.515 62.505 23 62 C18.81684993 57.09973849 18.81715878 54.10941869 19 48 C19.99797607 47.97812622 19.99797607 47.97812622 21.01611328 47.95581055 C24.05297114 47.88098635 27.08877091 47.78443984 30.125 47.6875 C31.69507813 47.65366211 31.69507813 47.65366211 33.296875 47.61914062 C39.72458859 47.3953911 44.95226026 47.13279294 49.6796875 42.2734375 C52.92523408 37.11874588 53.88077385 33.0539266 53 27 C52.11539972 23.58528076 52.11539972 23.58528076 51 21 C50.34 21 49.68 21 49 21 C49 20.34 49 19.68 49 19 C37.62386735 14.74452565 37.62386735 14.74452565 15 15 C15 43.05 15 71.1 15 100 C10.05 100 5.1 100 0 100 C0 67 0 34 0 0 Z " fill="#F4F4F4" transform="translate(7,8)"/>
<path d="M0 0 C4.95 0 9.9 0 15 0 C15.01458252 2.18520264 15.02916504 4.37040527 15.04418945 6.62182617 C15.09455426 13.84635736 15.16115265 21.07067345 15.23571491 28.2949934 C15.280419 32.67458947 15.31967498 37.05409251 15.34643555 41.43383789 C15.37246825 45.66152759 15.41287022 49.8888593 15.46318626 54.11632729 C15.47985524 55.72818864 15.49136934 57.34011191 15.49761391 58.95204735 C15.50725491 61.21214593 15.5353125 63.47132862 15.56762695 65.73120117 C15.57873001 67.01693527 15.58983307 68.30266937 15.60127258 69.62736511 C16.16588236 74.40311552 17.86752976 76.92874437 21.3125 80.1875 C27.78975557 84.55588166 34.39447113 84.6496181 42 84 C47.59483498 82.7413918 52.87207417 80.21555053 56.11288452 75.31829834 C57.3423435 72.10535393 57.28328258 69.28268378 57.31884766 65.84472656 C57.33391609 64.77583443 57.33391609 64.77583443 57.34928894 63.68534851 C57.38010465 61.33711531 57.39715135 58.98899605 57.4140625 56.640625 C57.43277547 55.00965394 57.45234898 53.37869255 57.4727478 51.7477417 C57.52406147 47.46032411 57.56369124 43.17287513 57.60089111 38.88531494 C57.64093558 34.50809978 57.6920259 30.13101509 57.7421875 25.75390625 C57.8389378 17.1693534 57.92232427 8.58474666 58 0 C63.28 0 68.56 0 74 0 C74.09083791 9.16309975 74.16402296 18.3258941 74.20724869 27.4893446 C74.22800844 31.74559114 74.25610982 36.00151021 74.30175781 40.25756836 C74.34563508 44.37490815 74.36922409 48.49193556 74.37950897 52.60949135 C74.38682606 54.17017844 74.40111157 55.73085096 74.42292023 57.29140282 C74.58207326 69.16618704 74.22672668 80.90480048 65.75 90.0625 C61.84142018 93.56674397 57.91609782 96.1647836 53 98 C52.14019531 98.35320312 51.28039062 98.70640625 50.39453125 99.0703125 C39.57995164 102.03218816 26.39473626 101.35185591 16.375 96.38671875 C15.59125 95.92910156 14.8075 95.47148438 14 95 C13.071875 94.49082031 12.14375 93.98164062 11.1875 93.45703125 C10.465625 92.97621094 9.74375 92.49539062 9 92 C9 91.34 9 90.68 9 90 C8.34 90 7.68 90 7 90 C5.78125 88.64453125 5.78125 88.64453125 4.5 86.8125 C4.0771875 86.22082031 3.654375 85.62914063 3.21875 85.01953125 C0.27277661 80.13790226 -0.28392502 75.89894305 -0.22705078 70.2722168 C-0.22734283 69.51070816 -0.22763489 68.74919952 -0.22793579 67.96461487 C-0.22654768 65.45936502 -0.21101112 62.95441634 -0.1953125 60.44921875 C-0.19158052 58.70758731 -0.18873442 56.96595376 -0.18673706 55.22431946 C-0.17911516 50.64910038 -0.15947908 46.07400907 -0.1373291 41.49884033 C-0.11683956 36.82671843 -0.1077287 32.1545758 -0.09765625 27.48242188 C-0.0762318 18.32154953 -0.04106143 9.1608054 0 0 Z " fill="#F7F7F7" transform="translate(82,8)"/>
<path d="M0 0 C16.83 0 33.66 0 51 0 C51 4.95 51 9.9 51 15 C45.06 15 39.12 15 33 15 C33 37.77 33 60.54 33 84 C38.94 84 44.88 84 51 84 C51 89.28 51 94.56 51 100 C34.17 100 17.34 100 0 100 C0 94.72 0 89.44 0 84 C5.94 84 11.88 84 18 84 C18 61.23 18 38.46 18 15 C12.06 15 6.12 15 0 15 C0 10.05 0 5.1 0 0 Z " fill="#F8F8F8" transform="translate(248,8)"/>
<path d="M0 0 C12.42277474 0.26899709 22.92412575 4.4125136 32 13 C35.35747922 18.03621882 34.88777723 23.13947057 34 29 C29.72806298 41.42391769 21.43924314 52.37878643 13.375 62.5625 C8.08891908 69.28953162 2.89838156 76.07597362 -2.18017578 82.96118164 C-4.31023679 85.83172796 -6.4300005 88.51748193 -9 91 C-9.09332669 82.37574649 -9.16407863 73.75170948 -9.20724869 65.12707329 C-9.22798461 61.12082762 -9.25604034 57.11493137 -9.30175781 53.10888672 C-9.34572281 49.23144297 -9.36924184 45.35433194 -9.37950897 41.47665787 C-9.38681076 40.00889993 -9.40106468 38.54115693 -9.42292023 37.07354355 C-9.61647788 23.51740879 -7.46820617 11.56959809 0 0 Z " fill="#FDD500" transform="translate(24,152)"/>
<path d="M0 0 C0.75175507 -0.00014603 1.50351013 -0.00029205 2.27804565 -0.0004425 C4.75074193 0.00025144 7.22336189 0.00801949 9.69604492 0.01586914 C11.41525735 0.01773516 13.13447032 0.0191582 14.85368347 0.02015686 C19.36967446 0.02396753 23.88563309 0.03378542 28.40161133 0.04486084 C33.01342328 0.05510615 37.62524048 0.05966116 42.23706055 0.06469727 C51.27939473 0.07540901 60.32169644 0.09299405 69.36401367 0.11352539 C69.36401367 9.02352539 69.36401367 17.93352539 69.36401367 27.11352539 C65.73401367 25.13352539 62.10401367 23.15352539 58.36401367 21.11352539 C41.44671958 11.94149848 24.99887866 8.75453463 5.95678711 8.90771484 C3.63147836 8.92588889 1.30657348 8.92822412 -1.01879883 8.92797852 C-10.92360115 8.95194301 -20.7591889 9.38044229 -30.63598633 10.11352539 C-26.90964923 7.02365236 -23.69049318 5.11268272 -19.13598633 3.42602539 C-18.03254883 3.0096582 -16.92911133 2.59329102 -15.79223633 2.16430664 C-10.46226144 0.38984718 -5.59410382 -0.02864882 0 0 Z " fill="#FBD300" transform="translate(73.635986328125,123.886474609375)"/>
<path d="M0 0 C0.33 0 0.66 0 1 0 C1 18.48 1 36.96 1 56 C-6.8708863 49.25352603 -6.8708863 49.25352603 -9.97265625 45.90625 C-10.64490234 45.18566406 -11.31714844 44.46507812 -12.00976562 43.72265625 C-13.02586914 42.62244141 -13.02586914 42.62244141 -14.0625 41.5 C-18.6308507 36.58156755 -23.21947565 31.71340311 -28 27 C-26.53039195 23.18230312 -24.71589768 22.01009286 -21.1875 20.0625 C-13.06677117 15.13205749 -5.28623726 7.92935589 0 0 Z " fill="#FBD300" transform="translate(142,187)"/>
<path d="M0 0 C3.89988281 2.02216146 6.77775643 4.17280275 9 8 C9 8.99 9 9.98 9 11 C6.6875 11.25 6.6875 11.25 4 11 C3.566875 10.360625 3.13375 9.72125 2.6875 9.0625 C0.7122641 6.64832279 0.05038907 6.57152955 -2.9375 6.125 C-5.29190048 5.96083997 -7.05383243 6.01133314 -9.375 6.5 C-12.10655958 9.02143961 -12.46641569 11.38348411 -13 15 C-12.34426215 17.70291945 -11.38500527 19.5267763 -10 22 C-7.50331711 23.24834144 -6.18670849 22.95155125 -3.4375 22.625 C-2.63183594 22.53476563 -1.82617188 22.44453125 -0.99609375 22.3515625 C0.99326676 22.1979788 0.99326676 22.1979788 2 21 C-0.97 20.67 -3.94 20.34 -7 20 C-7 18.02 -7 16.04 -7 14 C-1.72 14 3.56 14 9 14 C9 20.19972517 8.8094062 21.48886108 5 26 C0.53121083 29.04690171 -3.71440395 29.96005836 -9 29 C-14.10209922 26.30455136 -17.17381037 23.4785689 -19 18 C-19.39614654 12.75105833 -18.86557317 9.44657906 -16 5 C-10.74940535 0.26165848 -6.97215488 -0.85684732 0 0 Z " fill="#DBDBDB" transform="translate(253,201)"/>
<path d="M0 0 C5.625 1.125 5.625 1.125 7.67578125 4.16015625 C8.11083984 4.78857422 8.54589844 5.41699219 8.99414062 6.06445312 C9.64672852 7.05348633 9.64672852 7.05348633 10.3125 8.0625 C10.76689453 8.72572266 11.22128906 9.38894531 11.68945312 10.07226562 C12.80602967 11.70599341 13.90479181 13.35187117 15 15 C15.33 10.05 15.66 5.1 16 0 C17.98 0 19.96 0 22 0 C22 9.57 22 19.14 22 29 C17 29 17 29 15.42260742 27.53125 C14.98795166 26.8609375 14.5532959 26.190625 14.10546875 25.5 C13.62529297 24.778125 13.14511719 24.05625 12.65039062 23.3125 C12.16763672 22.549375 11.68488281 21.78625 11.1875 21 C10.68541016 20.236875 10.18332031 19.47375 9.66601562 18.6875 C8.42849663 16.80175678 7.21218256 14.90212886 6 13 C5.67 18.28 5.34 23.56 5 29 C3.35 29 1.7 29 0 29 C0 19.43 0 9.86 0 0 Z " fill="#DEDEDE" transform="translate(291,201)"/>
<path d="M0 0 C2.90655157 1.34531816 3.89281098 2.43720254 6 5 C6.375 7.8125 6.375 7.8125 6 10 C3.625 9.6875 3.625 9.6875 1 9 C0.34 8.01 -0.32 7.02 -1 6 C-4.63274158 4.86981373 -6.33175318 4.68815148 -9.8125 6.3125 C-12.59061831 8.45561984 -12.91244144 9.34331079 -13.375 12.8125 C-13.23748209 16.15633275 -13.23748209 16.15633275 -10.9375 18.9375 C-8.08608629 21.37927277 -8.08608629 21.37927277 -4.25 20.875 C-1.16905703 20.33537851 -1.16905703 20.33537851 0 19 C-2.64 18.67 -5.28 18.34 -8 18 C-8 16.35 -8 14.7 -8 13 C-3.38 13 1.24 13 6 13 C6 20 6 20 4.8203125 21.99609375 C0.4849051 25.68218898 -2.90844819 26.8843282 -8.62890625 26.52734375 C-13.21596244 25.50715827 -15.5657591 22.89059028 -18.375 19.1875 C-19.84642784 14.03750258 -19.70719826 10.33862529 -17.25 5.6875 C-12.16731275 -0.38348755 -7.74290837 -1.19551399 0 0 Z " fill="#DEDEDE" transform="translate(391,162)"/>
<path d="M0 0 C5 1 5 1 6.80078125 3.06640625 C7.29964844 3.89011719 7.79851562 4.71382812 8.3125 5.5625 C8.82425781 6.38878906 9.33601562 7.21507812 9.86328125 8.06640625 C10.23839844 8.70449219 10.61351562 9.34257812 11 10 C13.47541919 7.70139646 15.21545052 5.64989291 17 2.75 C17.66 1.8425 18.32 0.935 19 0 C20.32 0 21.64 0 23 0 C23 8.58 23 17.16 23 26 C21.35 26 19.7 26 18 26 C17.505 19.565 17.505 19.565 17 13 C15.68 14.65 14.36 16.3 13 18 C11.25 17.875 11.25 17.875 9 17 C7.68 15.02 6.36 13.04 5 11 C4.67 15.95 4.34 20.9 4 26 C2.68 26 1.36 26 0 26 C0 17.42 0 8.84 0 0 Z " fill="#DFDFDF" transform="translate(181,162)"/>
<path d="M0 0 C4.12025719 1.77920197 6.50055722 4.2971218 9 8 C9 8.99 9 9.98 9 11 C6.8125 11.3125 6.8125 11.3125 4 11 C3.195625 10.175 2.39125 9.35 1.5625 8.5 C-0.78131418 5.73498666 -0.78131418 5.73498666 -4.0625 5.5 C-7.42877241 6.07298254 -8.79003464 6.3807818 -11 9 C-12.04218874 13.30771347 -12.40275244 15.73804235 -11.0625 19.9375 C-8.45954514 22.54045486 -6.62187991 23.0147326 -3.00390625 23.28125 C0.42374286 22.80017644 1.95096293 20.60786536 4 18 C5 17 5 17 7.5625 16.9375 C8.7690625 16.9684375 8.7690625 16.9684375 10 17 C8.67761712 22.68624639 6.55651636 24.67754016 2 28 C-1.21875167 29.60937584 -4.5092177 29.4623984 -8 29 C-12.79678945 26.60160527 -15.63683712 23.81721665 -18 19 C-18.82454452 14.31355821 -18.47650352 10.97133409 -16.375 6.6875 C-11.27605978 0.91764659 -7.51166672 -0.83462964 0 0 Z " fill="#D9D9D9" transform="translate(335,201)"/>
<path d="M0 0 C5.94 0 11.88 0 18 0 C18 1.65 18 3.3 18 5 C13.71 5 9.42 5 5 5 C5 7.31 5 9.62 5 12 C8.96 12 12.92 12 17 12 C17 13.65 17 15.3 17 17 C13.04 17 9.08 17 5 17 C5 19.31 5 21.62 5 24 C9.29 24 13.58 24 18 24 C18 25.65 18 27.3 18 29 C12.06 29 6.12 29 0 29 C0 19.43 0 9.86 0 0 Z " fill="#E7E7E7" transform="translate(268,201)"/>
<path d="M0 0 C13.30720013 -0.36964445 13.30720013 -0.36964445 16.38671875 1.2734375 C18.53129958 3.56860633 18.9761583 5.83935706 19.25 8.92578125 C18.8012997 12.64859152 16.62068684 14.44323235 14 17 C14.433125 17.48210937 14.86625 17.96421875 15.3125 18.4609375 C15.869375 19.09257812 16.42625 19.72421875 17 20.375 C17.556875 21.00148437 18.11375 21.62796875 18.6875 22.2734375 C20 24 20 24 20 26 C17.2734375 26.3125 17.2734375 26.3125 14 26 C11.6640625 23.8125 11.6640625 23.8125 9.625 21 C8.93664062 20.071875 8.24828125 19.14375 7.5390625 18.1875 C6.77722656 17.1046875 6.77722656 17.1046875 6 16 C5.67 19.3 5.34 22.6 5 26 C3.35 26 1.7 26 0 26 C0 17.42 0 8.84 0 0 Z M5 5 C5 7.31 5 9.62 5 12 C8.41656024 12.16677282 8.41656024 12.16677282 12 12 C12.66 11.34 13.32 10.68 14 10 C13.67958603 7.39719432 13.67958603 7.39719432 13 5 C10.36 5 7.72 5 5 5 Z " fill="#DADADA" transform="translate(237,162)"/>
<path d="M0 0 C5 0 5 0 6.4855957 1.37695312 C6.87835693 2.00537109 7.27111816 2.63378906 7.67578125 3.28125 C8.11083984 3.95800781 8.54589844 4.63476562 8.99414062 5.33203125 C9.42919922 6.04746094 9.86425781 6.76289063 10.3125 7.5 C10.76689453 8.21542969 11.22128906 8.93085938 11.68945312 9.66796875 C12.80881194 11.43537741 13.90652207 13.21646319 15 15 C15.33 10.05 15.66 5.1 16 0 C17.32 0 18.64 0 20 0 C20 8.58 20 17.16 20 26 C14.73064773 24.94612955 14.17512082 24.50007742 11.36132812 20.29101562 C10.7802832 19.37352539 10.7802832 19.37352539 10.1875 18.4375 C9.57745117 17.51420898 9.57745117 17.51420898 8.95507812 16.57226562 C7.9566127 15.05694751 6.97646735 13.52958612 6 12 C5.67 16.62 5.34 21.24 5 26 C3.35 26 1.7 26 0 26 C0 17.42 0 8.84 0 0 Z " fill="#E4E4E4" transform="translate(347,162)"/>
<path d="M0 0 C2.33276367 0.15869141 2.33276367 0.15869141 5 1 C6.4855957 3.36083984 6.4855957 3.36083984 7.67578125 6.4609375 C8.11083984 7.57210937 8.54589844 8.68328125 8.99414062 9.828125 C9.42919922 10.99859375 9.86425781 12.1690625 10.3125 13.375 C10.9940918 15.11910156 10.9940918 15.11910156 11.68945312 16.8984375 C15 25.50088111 15 25.50088111 15 29 C13.35 29 11.7 29 10 29 C7 23.25 7 23.25 7 21 C3.7 21 0.4 21 -3 21 C-3.12375 21.763125 -3.2475 22.52625 -3.375 23.3125 C-4 26 -4 26 -6 29 C-7.32 29 -8.64 29 -10 29 C-9.48397915 22.3104934 -7.04376051 16.69699068 -4.4375 10.5625 C-4.01275391 9.54478516 -3.58800781 8.52707031 -3.15039062 7.47851562 C-2.10747277 4.98254369 -1.05720058 2.48994786 0 0 Z M2 9 C0.5393715 11.64738916 0 12.89448334 0 16 C1.65 16 3.3 16 5 16 C4.34 13.69 3.68 11.38 3 9 C2.67 9 2.34 9 2 9 Z " fill="#DDDDDD" transform="translate(216,201)"/>
<path d="M0 0 C1.65 0 3.3 0 5 0 C5.33 2.97 5.66 5.94 6 9 C6.43570312 8.3503125 6.87140625 7.700625 7.3203125 7.03125 C9.10628846 4.52624476 10.84929345 2.20222048 13 0 C16.4375 -0.5625 16.4375 -0.5625 19 0 C17.59023295 3.03852705 15.91129772 5.5939595 13.875 8.25 C13.33617187 8.95640625 12.79734375 9.6628125 12.2421875 10.390625 C11.83226562 10.92171875 11.42234375 11.4528125 11 12 C12.81823178 16.095613 15.52454063 18.93470721 18.5390625 22.1953125 C20 24 20 24 20 26 C17.2734375 26.3125 17.2734375 26.3125 14 26 C11.6640625 23.8125 11.6640625 23.8125 9.625 21 C8.93664062 20.071875 8.24828125 19.14375 7.5390625 18.1875 C6.77722656 17.1046875 6.77722656 17.1046875 6 16 C5.67 19.3 5.34 22.6 5 26 C3.35 26 1.7 26 0 26 C0 17.42 0 8.84 0 0 Z " fill="#CACACA" transform="translate(261,162)"/>
<path d="M0 0 C5.28 0 10.56 0 16 0 C16 1.65 16 3.3 16 5 C12.04 5 8.08 5 4 5 C4 6.65 4 8.3 4 10 C7.96 10 11.92 10 16 10 C16 11.65 16 13.3 16 15 C12.04 15 8.08 15 4 15 C4 16.98 4 18.96 4 21 C7.96 21 11.92 21 16 21 C16 22.65 16 24.3 16 26 C10.72 26 5.44 26 0 26 C0 17.42 0 8.84 0 0 Z " fill="#E1E1E1" transform="translate(285,162)"/>
<path d="M0 0 C1.65 0 3.3 0 5 0 C6.67239921 3.95593578 8.33694382 7.9151284 10 11.875 C10.47695312 13.00292969 10.95390625 14.13085938 11.4453125 15.29296875 C12.12207031 16.90751953 12.12207031 16.90751953 12.8125 18.5546875 C13.23144531 19.54968262 13.65039062 20.54467773 14.08203125 21.56982422 C15 24 15 24 15 26 C13.35 26 11.7 26 10 26 C9.690625 25.030625 9.38125 24.06125 9.0625 23.0625 C7.37918483 19.85054552 7.37918483 19.85054552 4.796875 19.37890625 C2.52061916 19.14627004 0.28756601 19.00959147 -2 19 C-2.66 21.31 -3.32 23.62 -4 26 C-5.65 26 -7.3 26 -9 26 C-8.37658609 22.4617797 -7.44678155 19.26706972 -6.15234375 15.91796875 C-5.79462891 14.98662109 -5.43691406 14.05527344 -5.06835938 13.09570312 C-4.69517578 12.13599609 -4.32199219 11.17628906 -3.9375 10.1875 C-3.56044922 9.20845703 -3.18339844 8.22941406 -2.79492188 7.22070312 C-1.86684405 4.8123999 -0.93509884 2.40558386 0 0 Z M2 8 C1.67 9.98 1.34 11.96 1 14 C2.32 13.67 3.64 13.34 5 13 C4.34 11.35 3.68 9.7 3 8 C2.67 8 2.34 8 2 8 Z " fill="#D9D9D9" transform="translate(218,162)"/>
<path d="M0 0 C2.625 -0.625 2.625 -0.625 6 0 C7.86589277 2.45719682 9.27362698 4.98265803 10.703125 7.71484375 C11.7922581 10.12827599 11.7922581 10.12827599 14 11 C14.2475 10.29875 14.495 9.5975 14.75 8.875 C16.19944956 5.541266 17.7004562 2.82515381 20 0 C22.75 -0.375 22.75 -0.375 25 0 C24.38152383 4.02009508 22.27091339 6.69095478 20 10 C15.9338939 16.19423637 14.78753709 21.63019292 15 29 C13.35 29 11.7 29 10 29 C10.03222656 28.22398437 10.06445312 27.44796875 10.09765625 26.6484375 C9.99808426 17.37717871 7.16659215 12.0881383 1.93359375 4.80078125 C0 2 0 2 0 0 Z " fill="#DADADA" transform="translate(347,201)"/>
<path d="M0 0 C4.95 0 9.9 0 15 0 C14.67 1.65 14.34 3.3 14 5 C13.01 5 12.02 5 11 5 C10.67 10.28 10.34 15.56 10 21 C11.65 21 13.3 21 15 21 C15 22.65 15 24.3 15 26 C10.05 26 5.1 26 0 26 C0 24.35 0 22.7 0 21 C1.65 21 3.3 21 5 21 C4.67 15.72 4.34 10.44 4 5 C2.68 4.67 1.36 4.34 0 4 C0 2.68 0 1.36 0 0 Z " fill="#D8D8D8" transform="translate(328,162)"/>
<path d="M0 0 C6.6 0 13.2 0 20 0 C20 1.32 20 2.64 20 4 C17.36 4 14.72 4 12 4 C12 11.26 12 18.52 12 26 C10.35 26 8.7 26 7 26 C7 19.07 7 12.14 7 5 C4.69 4.67 2.38 4.34 0 4 C0 2.68 0 1.36 0 0 Z " fill="#DFDFDF" transform="translate(304,162)"/>
<path d="M0 0 C1.32 0 2.64 0 4 0 C4 8.58 4 17.16 4 26 C2.68 26 1.36 26 0 26 C0 17.42 0 8.84 0 0 Z " fill="#F8F8F8" transform="translate(261,162)"/>
<path d="M0 0 C-4.37686837 3.4713094 -7.43717636 4.1246967 -12.98046875 4.09765625 C-14.14384766 4.09443359 -15.30722656 4.09121094 -16.50585938 4.08789062 C-17.72080078 4.07951172 -18.93574219 4.07113281 -20.1875 4.0625 C-21.41404297 4.05798828 -22.64058594 4.05347656 -23.90429688 4.04882812 C-26.93624668 4.03703065 -29.96809906 4.02056921 -33 4 C-33 3.67 -33 3.34 -33 3 C-25.74 3 -18.48 3 -11 3 C-11 2.34 -11 1.68 -11 1 C-7.32589215 -0.17571451 -3.83070817 -0.07366746 0 0 Z " fill="#DAB800" transform="translate(62,142)"/>
<path d="M0 0 C2.97 0 5.94 0 9 0 C7.68 0.33 6.36 0.66 5 1 C5 1.66 5 2.32 5 3 C-1.93 3 -8.86 3 -16 3 C-16 2.67 -16 2.34 -16 2 C-8.08 1.505 -8.08 1.505 0 1 C0 0.67 0 0.34 0 0 Z " fill="#FFDE00" transform="translate(46,142)"/>
<path d="" fill="#404040" transform="translate(0,0)"/>
</svg>
