<svg id="Layer_2" xmlns="http://www.w3.org/2000/svg" viewBox="0 0 18.61 11.95" height="63" width="99">
  <defs>
    <style>
      .cls-navlogo {
        fill: #db0032;
      }
      .cls-navlogo-white {
        fill: #ffffff;
      }
    </style>
  </defs>
  <g id="Layer_1-2">
    <g>
      <path class="cls-navlogo-white navlogo-path1 cls-navlogo-light" d="M2.67,0C1.21,0,0,1.21,0,2.67V7.71c.27-.48,.67-.88,1.15-1.15v-1.68c.48,.32,.96,.49,1.51,.49,1.49,0,2.68-1.21,2.68-2.7S4.16,0,2.67,0Zm0,4.23c-.86,0-1.54-.71-1.54-1.57s.68-1.54,1.54-1.54,1.57,.71,1.57,1.54-.71,1.57-1.57,1.57Z">
      </path>

      <path class="cls-navlogo-white navlogo-path2 cls-navlogo-light" d="M10.67,0C9.19,0,7.98,1.22,7.98,2.7s1.22,2.7,2.7,2.7c.55,0,1.13-.17,1.51-.46v.44h1.16V2.7C13.35,1.22,12.15,0,10.67,0Zm.02,4.2c-.84,0-1.51-.67-1.51-1.51s.67-1.51,1.51-1.51,1.51,.67,1.51,1.51-.67,1.51-1.51,1.51Z">
      </path>

      <path class="cls-navlogo-white navlogo-path3 cls-navlogo-light" d="M15.24,5.37V2.26c0-.58,.49-1.07,1.07-1.07h0c.61,0,1.1,.49,1.1,1.07v3.11h1.19V2.29C18.61,1.04,17.59,0,16.31,0h0C15.07,0,14.02,1.04,14.02,2.29v3.08h1.22Z">
      </path>

      <path class="cls-navlogo navlogo-path4" d="M2.69,6.56c-1.48,0-2.69,1.22-2.69,2.7s1.22,2.7,2.7,2.7c.55,0,1.13-.17,1.51-.46v.44h1.16v-2.67c0-1.48-1.2-2.7-2.68-2.7Zm.02,4.2c-.84,0-1.51-.67-1.51-1.51s.67-1.51,1.51-1.51,1.51,.67,1.51,1.51-.67,1.51-1.51,1.51Z">
      </path>

      <path class="cls-navlogo-white navlogo-path5 cls-navlogo-light" d="M9.77,9.6v.42h-.12v-.42l-.36-.6h.15l.28,.49,.27-.49h.14l-.35,.6Z"></path>

      <path class="cls-navlogo-white navlogo-path6 cls-navlogo-light" d="M10.68,8.97c.29,0,.44,.26,.44,.53s-.15,.53-.44,.53-.44-.26-.44-.53,.15-.53,.44-.53Zm0,.95c.22,0,.32-.21,.32-.42s-.09-.42-.32-.42-.32,.21-.32,.42,.09,.42,.32,.42Z">
      </path>

      <path class="cls-navlogo-white navlogo-path7 cls-navlogo-light" d="M12.07,9.65c0,.26-.13,.39-.36,.39s-.38-.12-.38-.39v-.65h.12v.65c0,.18,.09,.28,.25,.28s.24-.1,.24-.28v-.65h.12v.65Z">
      </path>

      <path class="cls-navlogo-white navlogo-path8 cls-navlogo-light" d="M12.33,9h.43c.17,0,.28,.1,.28,.27,0,.12-.05,.22-.16,.26h0c.11,.03,.13,.11,.14,.21,0,.1,0,.21,.05,.28h-.14s-.02-.15-.03-.25c-.01-.1-.03-.18-.15-.18h-.3v.43h-.12v-1.02Zm.38,.47c.11,0,.21-.03,.21-.18,0-.1-.05-.17-.16-.17h-.3v.36h.25Z">
      </path>

      <path class="cls-navlogo-white navlogo-path9 cls-navlogo-light" d="M13.7,9h.33c.08,0,.19,0,.24,.04,.06,.04,.11,.11,.11,.21,0,.11-.05,.19-.14,.23h0c.11,.03,.18,.12,.18,.25,0,.15-.1,.29-.28,.29h-.44v-1.02Zm.12,.44h.24c.14,0,.2-.06,.2-.16,0-.14-.09-.16-.2-.16h-.24v.32Zm0,.47h.31c.11,0,.17-.07,.17-.18,0-.13-.1-.17-.2-.17h-.28v.35Z">
      </path>

      <path class="cls-navlogo-white navlogo-path10 cls-navlogo-light" d="M14.64,9h.43c.17,0,.28,.1,.28,.27,0,.12-.05,.22-.16,.26h0c.11,.03,.13,.11,.14,.21,0,.1,0,.21,.05,.28h-.14s-.02-.15-.03-.25c-.01-.1-.03-.18-.15-.18h-.3v.43h-.12v-1.02Zm.38,.47c.11,0,.21-.03,.21-.18,0-.1-.05-.17-.16-.17h-.3v.36h.25Z">
      </path>

      <path class="cls-navlogo-white navlogo-path11 cls-navlogo-light" d="M15.84,9h.14l.36,1.02h-.14l-.1-.31h-.39l-.1,.31h-.13l.36-1.02Zm-.09,.6h.31l-.15-.48h0l-.16,.48Z">
      </path>

      <path class="cls-navlogo-white navlogo-path12 cls-navlogo-light" d="M16.49,9h.13l.48,.83h0v-.83h.12v1.02h-.13l-.48-.82h0v.82h-.12v-1.02Z"></path>

      <path class="cls-navlogo-white navlogo-path13 cls-navlogo-light" d="M17.48,9h.32c.28,0,.44,.16,.44,.49s-.14,.53-.44,.53h-.32v-1.02Zm.12,.9h.2c.08,0,.31-.03,.31-.4,0-.24-.08-.39-.31-.39h-.21v.79Z">
      </path>

      <path class="cls-navlogo-white-navlogo cls-navlogo-light" d="M18.46,9.86h.14v.16h-.14v-.16Z"></path>

      <path class="cls-navlogo-white cls-navlogo-light navlogo-path14" d="M10.22,11.93h-.13l-.21-.86h0l-.21,.86h-.13l-.24-1.02h.12l.18,.85h0l.21-.85h.13l.2,.85h0l.19-.85h.12l-.25,1.02Z">
      </path>

      <path class="cls-navlogo-white cls-navlogo-light navlogo-path15" d="M11.1,10.89c.29,0,.44,.26,.44,.53s-.15,.53-.44,.53-.44-.26-.44-.53,.15-.53,.44-.53Zm0,.95c.22,0,.32-.21,.32-.42s-.09-.42-.32-.42-.32,.21-.32,.42,.09,.42,.32,.42Z">
      </path>

      <path class="cls-navlogo-white cls-navlogo-light navlogo-path16" d="M11.82,10.91h.43c.17,0,.28,.1,.28,.27,0,.12-.05,.22-.16,.26h0c.11,.03,.13,.11,.14,.21,0,.1,0,.21,.05,.28h-.14s-.02-.15-.03-.25c-.01-.1-.03-.18-.15-.18h-.3v.43h-.12v-1.02Zm.38,.47c.11,0,.21-.03,.21-.18,0-.1-.05-.17-.16-.17h-.3v.36h.25Z">
      </path>

      <path class="cls-navlogo-white cls-navlogo-light navlogo-path17" d="M12.83,10.91h.12v.9h.49v.11h-.61v-1.02Z"></path>

      <path class="cls-navlogo-white cls-navlogo-light navlogo-path18" d="M13.68,10.91h.32c.28,0,.44,.16,.44,.48s-.14,.53-.44,.53h-.32v-1.02Zm.12,.9h.2c.08,0,.31-.03,.31-.4,0-.24-.08-.39-.31-.39h-.21v.79Z">
      </path>

      <path class="cls-navlogo-white cls-navlogo-light navlogo-path19" d="M15.54,11.93h-.13l-.21-.86h0l-.21,.86h-.13l-.24-1.02h.12l.18,.85h0l.21-.85h.13l.2,.85h0l.19-.85h.12l-.25,1.02Z">
      </path>

      <path class="cls-navlogo-white cls-navlogo-light navlogo-path20" d="M16.04,10.91h.12v1.02h-.12v-1.02Z">
      </path>

      <path class="cls-navlogo-white cls-navlogo-light navlogo-path21" d="M16.5,10.91h.32c.28,0,.44,.16,.44,.48s-.14,.53-.44,.53h-.32v-1.02Zm.12,.9h.2c.08,0,.31-.03,.31-.4,0-.24-.08-.39-.31-.39h-.21v.79Z">
      </path>

      <path class="cls-navlogo-white cls-navlogo-light navlogo-path22" d="M17.53,10.91h.63v.11h-.51v.32h.48v.11h-.48v.35h.52v.11h-.64v-1.02Z"></path>

      <path class="cls-navlogo cls-navlogo-light navlogo-path23" d="M18.45,11.77h.14v.16h-.14v-.16Z"></path>

      <polygon class="cls-navlogo-white cls-navlogo-light" points="5.94 5.37 5.94 0 7.13 0 7.13 5.37 5.94 5.37"></polygon>

    </g>
  </g>
</svg>
