<?xml version="1.0" encoding="UTF-8"?>
<svg id="Layer_1" data-name="Layer 1" xmlns="http://www.w3.org/2000/svg" viewBox="0 0 200 200">
  <defs>
    <style>
      .cls-1 {
        fill: #1d252c;
      }

      .cls-2 {
        fill: #e3e3e4;
      }

      .cls-3 {
        fill: #db0032;
      }
    </style>
  </defs>
  <path class="cls-3" d="M138.71,41.19H61.29c-11.01,0-19.94,8.93-19.94,19.94v77.42c0,11.01,8.93,19.94,19.94,19.94h77.42c11.01,0,19.94-8.92,19.94-19.94V61.13c0-11-8.92-19.94-19.94-19.94Z"/>
  <path class="cls-2" d="M113.02,131.47c-1.24.52-2.69.78-4.35.78-2.41,0-4.13-.43-5.12-1.3-1-.86-1.78-2.22-2.34-4.09l-3.12-10.35h-23.2c-.18.6-.36,1.22-.54,1.87-.45,1.59-.92,3.17-1.4,4.76-.48,1.58-.95,3.09-1.4,4.5s-.81,2.64-1.09,3.67c-.76.28-1.54.52-2.33.72-.8.21-1.78.31-2.95.31-2.34,0-4.17-.46-5.49-1.4-1.31-.93-1.97-2.26-1.97-3.98,0-.83.12-1.64.37-2.44.23-.79.53-1.7.87-2.74.69-2.28,1.6-5.14,2.75-8.59,1.14-3.45,2.41-7.18,3.83-11.18,1.41-4,2.85-8.02,4.3-12.06,1.46-4.03,2.83-7.82,4.15-11.33,1.31-3.52,2.41-6.45,3.31-8.8.89-.48,2.24-.97,4.04-1.45s3.55-.72,5.28-.72c2.48,0,4.72.36,6.72,1.09,2,.72,3.28,1.92,3.83,3.57,1.45,3.73,2.98,8.04,4.61,12.94,1.62,4.9,3.29,10,5.02,15.32,1.73,5.32,3.37,10.47,4.91,15.48,1.55,5.01,2.92,9.51,4.09,13.51-.62.76-1.55,1.39-2.79,1.91Z"/>
  <path class="cls-3" d="M92.52,96.48c1.02,3.11,1.98,6.23,2.89,9.36h-17.87c.9-2.69,1.84-5.48,2.81-8.38,1.14-3.38,2.24-6.62,3.32-9.73,1.07-3.11,2.02-5.84,2.85-8.18h.52c.69,2.07,1.5,4.57,2.44,7.5.93,2.93,1.95,6.08,3.05,9.42Z"/>
  <path class="cls-2" d="M139.62,131.21c-.55.13-1.42.31-2.59.52-1.17.21-2.38.31-3.62.31-2.63,0-4.49-.48-5.59-1.45-1.11-.97-1.66-2.58-1.66-4.86v-57.25c.62-.14,1.52-.31,2.69-.52,1.18-.21,2.35-.31,3.52-.31,2.56,0,4.4.45,5.54,1.35,1.14.89,1.71,2.55,1.71,4.97v57.25Z"/>
  <path class="cls-1" d="M137.31,30.42H62.68c-17.77.05-32.22,14.5-32.27,32.27v74.63c.05,17.77,14.5,32.22,32.27,32.27h74.63c17.78-.05,32.22-14.49,32.27-32.27V62.69c-.05-17.77-14.5-32.22-32.27-32.27ZM164.28,137.23c0,14.92-12.14,27.05-27.06,27.05H62.78c-14.92,0-27.06-12.13-27.06-27.05V62.78c0-14.92,12.13-27.06,27.06-27.06h74.45c14.92,0,27.06,12.13,27.06,27.06v74.45Z"/>
  <path class="cls-1" d="M67.33,35.4c-2.56,0-4.64-2.08-4.64-4.64v-11.32c0-2.56,2.08-4.64,4.64-4.64s4.64,2.08,4.64,4.64v11.32c0,2.56-2.08,4.64-4.64,4.64Z"/>
  <path class="cls-1" d="M89.11,35.4c-2.56,0-4.64-2.08-4.64-4.64v-11.32c0-2.56,2.08-4.64,4.64-4.64s4.64,2.08,4.64,4.64v11.32c0,2.56-2.08,4.64-4.64,4.64Z"/>
  <path class="cls-1" d="M110.89,35.4c-2.56,0-4.64-2.08-4.64-4.64v-11.32c0-2.56,2.08-4.64,4.64-4.64s4.64,2.08,4.64,4.64v11.32c0,2.56-2.08,4.64-4.64,4.64Z"/>
  <path class="cls-1" d="M132.67,35.4c-2.56,0-4.64-2.08-4.64-4.64v-11.32c0-2.56,2.08-4.64,4.64-4.64s4.64,2.08,4.64,4.64v11.32c0,2.56-2.08,4.64-4.64,4.64Z"/>
  <path class="cls-1" d="M67.33,185.2c-2.56,0-4.64-2.08-4.64-4.64v-11.32c0-2.56,2.08-4.64,4.64-4.64s4.64,2.08,4.64,4.64v11.32c0,2.56-2.08,4.64-4.64,4.64Z"/>
  <path class="cls-1" d="M89.11,185.2c-2.56,0-4.64-2.08-4.64-4.64v-11.32c0-2.56,2.08-4.64,4.64-4.64s4.64,2.08,4.64,4.64v11.32c0,2.56-2.08,4.64-4.64,4.64Z"/>
  <path class="cls-1" d="M110.89,185.2c-2.56,0-4.64-2.08-4.64-4.64v-11.32c0-2.56,2.08-4.64,4.64-4.64s4.64,2.08,4.64,4.64v11.32c0,2.56-2.08,4.64-4.64,4.64Z"/>
  <path class="cls-1" d="M132.67,185.2c-2.56,0-4.64-2.08-4.64-4.64v-11.32c0-2.56,2.08-4.64,4.64-4.64s4.64,2.08,4.64,4.64v11.32c0,2.56-2.08,4.64-4.64,4.64Z"/>
  <path class="cls-1" d="M180.56,71.97h-11.32c-2.56,0-4.64-2.08-4.64-4.64s2.08-4.64,4.64-4.64h11.32c2.56,0,4.64,2.08,4.64,4.64s-2.08,4.64-4.64,4.64Z"/>
  <path class="cls-1" d="M180.56,93.75h-11.32c-2.56,0-4.64-2.08-4.64-4.64s2.08-4.64,4.64-4.64h11.32c2.56,0,4.64,2.08,4.64,4.64s-2.08,4.64-4.64,4.64Z"/>
  <path class="cls-1" d="M180.56,115.53h-11.32c-2.56,0-4.64-2.08-4.64-4.64s2.08-4.64,4.64-4.64h11.32c2.56,0,4.64,2.08,4.64,4.64s-2.08,4.64-4.64,4.64Z"/>
  <path class="cls-1" d="M180.56,137.31h-11.32c-2.56,0-4.64-2.08-4.64-4.64s2.08-4.64,4.64-4.64h11.32c2.56,0,4.64,2.08,4.64,4.64s-2.08,4.64-4.64,4.64Z"/>
  <path class="cls-1" d="M30.76,71.97h-11.32c-2.56,0-4.64-2.08-4.64-4.64s2.08-4.64,4.64-4.64h11.32c2.56,0,4.64,2.08,4.64,4.64s-2.08,4.64-4.64,4.64Z"/>
  <path class="cls-1" d="M30.76,93.75h-11.32c-2.56,0-4.64-2.08-4.64-4.64s2.08-4.64,4.64-4.64h11.32c2.56,0,4.64,2.08,4.64,4.64s-2.08,4.64-4.64,4.64Z"/>
  <path class="cls-1" d="M30.76,115.53h-11.32c-2.56,0-4.64-2.08-4.64-4.64s2.08-4.64,4.64-4.64h11.32c2.56,0,4.64,2.08,4.64,4.64s-2.08,4.64-4.64,4.64Z"/>
  <path class="cls-1" d="M30.76,137.31h-11.32c-2.56,0-4.64-2.08-4.64-4.64s2.08-4.64,4.64-4.64h11.32c2.56,0,4.64,2.08,4.64,4.64s-2.08,4.64-4.64,4.64Z"/>
</svg>