<?xml version="1.0" encoding="utf-8"?>
<!-- Generator: Adobe Illustrator 27.9.0, SVG Export Plug-In . SVG Version: 6.00 Build 0)  -->
<svg version="1.1" id="Layer_2_00000080203268878012386870000008085297694889180079_"
	 xmlns="http://www.w3.org/2000/svg" xmlns:xlink="http://www.w3.org/1999/xlink" x="0px" y="0px" viewBox="0 0 76.2 397.9"
	 style="enable-background:new 0 0 76.2 397.9;" xml:space="preserve">
<style type="text/css">
	.st0{opacity:0.2;}
	.st1{opacity:0.3;}
	.st2{fill:#FFFFFF;}
	.st3{fill:none;}
</style>
<g id="Layer_1-2" class="st0">
	<g class="st1">
		<g class="st0">
			<path class="st2" d="M23,44.1c-7.4,0-13.5,6.1-13.5,13.5c0,7.4,6.1,13.6,13.6,13.6c2.8,0,5.6-0.9,7.6-2.3v2.2h5.8V57.6
				C36.5,50.2,30.4,44.1,23,44.1z M23.1,65.2c-4.2,0-7.6-3.3-7.6-7.6s3.4-7.6,7.6-7.6s7.6,3.4,7.6,7.6S27.3,65.2,23.1,65.2z"/>
			<path class="st2" d="M15.3,44.1v-8.5c2.4,1.6,4.8,2.5,7.6,2.5c7.5,0,13.4-6.1,13.4-13.6s-5.9-13.4-13.4-13.4S9.5,17.2,9.5,24.5
				v25.3C10.9,47.5,12.9,45.5,15.3,44.1L15.3,44.1z M22.9,17.1c4.2,0,7.6,3.5,7.6,7.5s-3.5,7.6-7.6,7.6s-7.5-3.5-7.5-7.6
				S18.7,17.1,22.9,17.1z"/>
			<path class="st2" d="M53,38.2c7.4,0,13.5-6.1,13.5-13.5S60.5,11.1,53,11.1c-2.8,0-5.7,0.9-7.6,2.3v-2.2h-5.8v13
				c0,0.1,0,0.3,0,0.4C39.7,32.1,45.7,38.2,53,38.2z M52.9,17.1c4.2,0,7.6,3.4,7.6,7.6s-3.3,7.6-7.6,7.6c-4.3,0-7.6-3.4-7.6-7.6
				S48.8,17.1,52.9,17.1z"/>
			<path class="st2" d="M60.8,38.2v8.5c-2.4-1.6-4.8-2.5-7.6-2.5c-7.5,0-13.5,6.1-13.5,13.6c0,7.4,5.9,13.4,13.4,13.4
				c7.4,0,13.4-6.1,13.4-13.4V32.4C65.2,34.8,63.2,36.8,60.8,38.2L60.8,38.2z M53.2,65.3c-4.2,0-7.7-3.5-7.7-7.5
				c0-4.2,3.5-7.6,7.7-7.6c4.2,0,7.5,3.5,7.5,7.6C60.7,61.8,57.3,65.3,53.2,65.3z"/>
			<path class="st2" d="M23,108.6c-7.4,0-13.5,6.1-13.5,13.6c0,7.4,6.1,13.6,13.6,13.6c2.8,0,5.6-0.9,7.6-2.3v2.2h5.8v-13.4
				C36.5,114.7,30.4,108.6,23,108.6z M23.1,129.7c-4.2,0-7.6-3.4-7.6-7.6s3.4-7.6,7.6-7.6s7.6,3.3,7.6,7.6S27.3,129.7,23.1,129.7z"
				/>
			<path class="st2" d="M15.3,108.6v-8.5c2.4,1.6,4.8,2.4,7.6,2.4c7.5,0,13.4-6.1,13.4-13.6s-5.9-13.4-13.4-13.4S9.5,81.6,9.5,88.9
				v25.5C10.9,112,12.9,110,15.3,108.6L15.3,108.6z M22.9,81.5c4.2,0,7.6,3.5,7.6,7.5s-3.5,7.6-7.6,7.6s-7.5-3.5-7.5-7.6
				S18.7,81.5,22.9,81.5z"/>
			<path class="st2" d="M53,102.7c7.4,0,13.5-6.1,13.5-13.6S60.5,75.5,53,75.5c-2.8,0-5.7,0.9-7.6,2.3v-2.2h-5.8v13
				c0,0.2,0,0.3,0,0.4C39.7,96.6,45.7,102.7,53,102.7z M52.9,81.6c4.2,0,7.6,3.3,7.6,7.6c0,4.2-3.3,7.6-7.6,7.6
				c-4.2,0-7.6-3.3-7.6-7.6S48.8,81.6,52.9,81.6z"/>
			<path class="st2" d="M60.8,102.7v8.5c-2.4-1.6-4.8-2.4-7.6-2.4c-7.5,0-13.5,6.1-13.5,13.6c0,7.4,5.9,13.4,13.4,13.4
				c7.4,0,13.4-6.1,13.4-13.4V96.9C65.2,99.3,63.2,101.3,60.8,102.7L60.8,102.7z M53.2,129.8c-4.2,0-7.7-3.5-7.7-7.5
				c0-4.2,3.5-7.6,7.7-7.6c4.2,0,7.5,3.5,7.5,7.6C60.7,126.3,57.3,129.8,53.2,129.8z"/>
			<path class="st2" d="M36.5,151.6v-13.4h-5.8v2.2c-1.9-1.5-4.8-2.3-7.6-2.3c-7.4,0-13.6,6.1-13.6,13.6s6.1,13.6,13.5,13.6
				S36.5,159.1,36.5,151.6L36.5,151.6z M30.7,151.6c0,4.2-3.4,7.6-7.6,7.6s-7.6-3.4-7.6-7.6s3.4-7.6,7.6-7.6S30.7,147.4,30.7,151.6z
				"/>
			<path class="st2" d="M9.5,159.4v25.4c0,7.4,6.1,13.4,13.4,13.4s13.4-6.1,13.4-13.4s-6-13.6-13.5-13.6c-2.7,0-5.2,0.9-7.6,2.4
				v-8.5C12.9,163.8,10.9,161.8,9.5,159.4L9.5,159.4z M15.4,184.7c0-4.2,3.3-7.6,7.5-7.6s7.6,3.5,7.6,7.6s-3.5,7.5-7.6,7.5
				S15.4,188.8,15.4,184.7z"/>
			<path class="st2" d="M39.7,184.6V198h5.8v-2.2c1.9,1.5,4.8,2.3,7.6,2.3c7.4,0,13.6-6.1,13.6-13.6s-6.1-13.6-13.5-13.6
				S39.7,177.1,39.7,184.6L39.7,184.6z M45.4,184.6c0-4.2,3.3-7.6,7.6-7.6c4.3,0,7.6,3.4,7.6,7.6s-3.3,7.6-7.6,7.6
				C48.8,192.2,45.4,188.8,45.4,184.6z"/>
			<path class="st2" d="M66.6,176.8v-24.9c0-0.1,0-0.3,0-0.4c0-7.4-6-13.4-13.4-13.4c-7.5,0-13.4,6.1-13.4,13.4
				c0,7.5,6,13.6,13.5,13.6c2.7,0,5.2-0.9,7.6-2.4v8.5C63.2,172.4,65.2,174.4,66.6,176.8L66.6,176.8z M60.7,151.5
				c0,4.2-3.3,7.6-7.5,7.6c-4.2,0-7.7-3.5-7.7-7.6c0-4,3.5-7.5,7.7-7.5C57.3,144,60.7,147.4,60.7,151.5z"/>
			<path class="st2" d="M23,233.5c-7.4,0-13.5,6.1-13.5,13.6s6.1,13.6,13.6,13.6c2.8,0,5.6-0.9,7.6-2.3v2.2h5.8v-13.4
				C36.5,239.6,30.4,233.5,23,233.5L23,233.5z M23.1,254.6c-4.2,0-7.6-3.4-7.6-7.6s3.4-7.6,7.6-7.6s7.6,3.4,7.6,7.6
				S27.3,254.6,23.1,254.6z"/>
			<path class="st2" d="M15.3,233.5V225c2.4,1.6,4.8,2.4,7.6,2.4c7.5,0,13.4-6.1,13.4-13.6s-5.9-13.4-13.4-13.4s-13.4,6.1-13.4,13.4
				v25.4C10.9,236.9,12.9,234.9,15.3,233.5L15.3,233.5z M22.9,206.4c4.2,0,7.6,3.5,7.6,7.5s-3.5,7.6-7.6,7.6s-7.5-3.5-7.5-7.6
				S18.7,206.4,22.9,206.4z"/>
			<path class="st2" d="M53,227.6c7.4,0,13.5-6.1,13.5-13.6s-6.1-13.6-13.6-13.6c-2.8,0-5.7,0.9-7.6,2.3v-2.2h-5.8v13
				c0,0.1,0,0.3,0,0.4C39.7,221.5,45.7,227.6,53,227.6z M52.9,206.5c4.2,0,7.6,3.4,7.6,7.6c0,4.2-3.3,7.6-7.6,7.6
				c-4.2,0-7.6-3.4-7.6-7.6S48.8,206.5,52.9,206.5z"/>
			<path class="st2" d="M60.8,227.6v8.5c-2.4-1.6-4.8-2.4-7.6-2.4c-7.5,0-13.5,6.1-13.5,13.6c0,7.4,5.9,13.4,13.4,13.4
				c7.4,0,13.4-6.1,13.4-13.4v-25.4C65.2,224.2,63.2,226.2,60.8,227.6L60.8,227.6z M53.2,254.6c-4.2,0-7.7-3.5-7.7-7.5
				c0-4.2,3.5-7.6,7.7-7.6c4.2,0,7.5,3.5,7.5,7.6C60.7,251.2,57.3,254.6,53.2,254.6z"/>
			<path class="st2" d="M36.5,276.5v-13.4h-5.8v2.2c-1.9-1.5-4.8-2.3-7.6-2.3c-7.4,0-13.6,6.1-13.6,13.5S15.6,290,23,290
				S36.5,283.9,36.5,276.5z M30.7,276.5c0,4.2-3.4,7.6-7.6,7.6s-7.6-3.4-7.6-7.6s3.4-7.6,7.6-7.6S30.7,272.3,30.7,276.5z"/>
			<path class="st2" d="M9.5,284.3v25.4c0,7.4,6.1,13.4,13.4,13.4s13.4-6.1,13.4-13.4s-6-13.6-13.5-13.6c-2.7,0-5.2,0.9-7.6,2.5
				v-8.5C12.9,288.7,10.9,286.7,9.5,284.3L9.5,284.3z M15.4,309.6c0-4.2,3.3-7.6,7.5-7.6s7.6,3.5,7.6,7.6s-3.5,7.5-7.6,7.5
				S15.4,313.7,15.4,309.6z"/>
			<path class="st2" d="M39.7,309.5v13.4h5.8v-2.2c1.9,1.5,4.8,2.3,7.6,2.3c7.4,0,13.6-6.1,13.6-13.5S60.6,296,53.2,296
				S39.7,302,39.7,309.5z M45.4,309.5c0-4.2,3.3-7.6,7.6-7.6c4.3,0,7.6,3.4,7.6,7.6s-3.3,7.6-7.6,7.6
				C48.8,317.1,45.4,313.7,45.4,309.5z"/>
			<path class="st2" d="M66.6,301.7v-24.9c0-0.1,0-0.3,0-0.4c0-7.4-6-13.4-13.4-13.4c-7.5,0-13.4,6.1-13.4,13.4
				c0,7.5,6,13.6,13.5,13.6c2.7,0,5.2-0.9,7.6-2.5v8.5C63.2,297.3,65.2,299.3,66.6,301.7L66.6,301.7z M60.7,276.4
				c0,4.2-3.3,7.6-7.5,7.6c-4.2,0-7.7-3.5-7.7-7.6c0-4,3.5-7.5,7.7-7.5C57.3,268.9,60.7,272.3,60.7,276.4z"/>
			<path class="st2" d="M23,358.4c-7.4,0-13.5,6.1-13.5,13.5s6.1,13.5,13.6,13.5c2.8,0,5.6-0.9,7.6-2.3v2.2h5.8v-13.4
				C36.5,364.5,30.4,358.4,23,358.4z M23.1,379.5c-4.2,0-7.6-3.4-7.6-7.6s3.4-7.6,7.6-7.6s7.6,3.4,7.6,7.6S27.3,379.5,23.1,379.5z"
				/>
			<path class="st2" d="M15.3,358.4v-8.5c2.4,1.6,4.8,2.5,7.6,2.5c7.5,0,13.4-6.1,13.4-13.6s-5.9-13.4-13.4-13.4
				s-13.4,6.1-13.4,13.4v25.4C10.9,361.8,12.9,359.8,15.3,358.4L15.3,358.4z M22.9,331.3c4.2,0,7.6,3.5,7.6,7.5s-3.5,7.6-7.6,7.6
				s-7.5-3.5-7.5-7.6S18.7,331.3,22.9,331.3z"/>
			<path class="st2" d="M53,352.5c7.4,0,13.5-6.1,13.5-13.5s-6.1-13.6-13.5-13.6c-2.8,0-5.7,0.9-7.6,2.3v-2.2h-5.8v13
				c0,0.1,0,0.3,0,0.4C39.7,346.4,45.7,352.5,53,352.5z M52.9,331.4c4.2,0,7.6,3.4,7.6,7.6s-3.3,7.6-7.6,7.6c-4.3,0-7.6-3.4-7.6-7.6
				C45.4,334.7,48.8,331.4,52.9,331.4z"/>
			<path class="st2" d="M60.8,352.5v8.5c-2.4-1.6-4.8-2.5-7.6-2.5c-7.5,0-13.5,6.1-13.5,13.6c0,7.4,5.9,13.4,13.4,13.4
				c7.4,0,13.4-6.1,13.4-13.4v-25.4C65.2,349.1,63.2,351.1,60.8,352.5L60.8,352.5z M53.2,379.6c-4.2,0-7.7-3.5-7.7-7.5
				c0-4.2,3.5-7.6,7.7-7.6c4.2,0,7.5,3.5,7.5,7.6C60.7,376.1,57.3,379.6,53.2,379.6z"/>
		</g>
		<rect y="-13.9" class="st3" width="76.1" height="424.4"/>
	</g>
</g>
</svg>
