<?xml version="1.0" encoding="utf-8"?>
<!-- Generator: Adobe Illustrator 27.9.0, SVG Export Plug-In . SVG Version: 6.00 Build 0)  -->
<svg version="1.1" id="Layer_2_00000134968450257637450050000013720922371372653961_"
	 xmlns="http://www.w3.org/2000/svg" xmlns:xlink="http://www.w3.org/1999/xlink" x="0px" y="0px" viewBox="0 0 178.6 650.8"
	 style="enable-background:new 0 0 178.6 650.8;" xml:space="preserve">
<style type="text/css">
	.st0{fill:#DB0032;}
</style>
<g id="Layer_1-2">
	<g>
		<g>
			<path class="st0" d="M99.7,289.9c0,0,14.4-15.4,13.3-25.3c-1-9.9-23.1-8.5-23.1-8.5s-22.1-1.4-23.1,8.5
				c-1,9.9,13.3,25.3,13.3,25.3S63,620,64,623.8c1,3.8,25.9,27,25.9,27s24.8-23.2,25.9-27C116.8,620,99.7,289.9,99.7,289.9
				L99.7,289.9z"/>
			<g>
				<path class="st0" d="M80.6,40.2C80.6,18.1,62.4,0,40.3,0S0,18.2,0,40.3c0,8.2,2.6,16.8,6.9,22.6H0.3v17.3h39.9
					C62.4,80.2,80.6,62.3,80.6,40.2z M17.7,40.4c0-12.6,10-22.5,22.5-22.5s22.5,10,22.5,22.5s-10,22.5-22.5,22.5S17.7,53,17.7,40.4z
					"/>
				<path class="st0" d="M80.5,17.2h25.2c-4.7,7.1-7.3,14.4-7.3,22.5c0,22.3,18,40,40.3,40s39.9-17.5,39.9-39.8S160.5,0,138.7,0
					H63.3C70.5,4.1,76.4,10.1,80.5,17.2z M161,39.9c0,12.4-10.3,22.7-22.3,22.7s-22.7-10.3-22.7-22.7s10.3-22.3,22.7-22.3
					S161,27.5,161,39.9z"/>
			</g>
		</g>
		<path class="st0" d="M152.3,147.7c-6.2,11-15.8,19.7-27.3,24.9c-1.2,0.6-1.5,2.3-0.9,3.4c0.7,1.3,2.2,1.5,3.4,0.9
			c12.2-5.6,22.4-15.1,29.1-26.7C158.2,147.4,153.9,144.9,152.3,147.7L152.3,147.7L152.3,147.7z"/>
	</g>
</g>
</svg>
