<?xml version="1.0" encoding="UTF-8"?>
<svg id="Layer_1" data-name="Layer 1" xmlns="http://www.w3.org/2000/svg" viewBox="0 0 200 200">
  <defs>
    <style>
      .cls-1 {
        fill: #1d252c;
      }

      .cls-2 {
        fill: #db0032;
      }
    </style>
  </defs>
  <path class="cls-1" d="M136.88,90.48c10.13,0,18.34-8.21,18.34-18.34s-7.79-17.91-17.55-18.32c-1.92-8.8-9.76-15.39-19.14-15.39-2.29,0-4.5.4-6.54,1.12-4.36-9.91-13.59-16.75-24.28-16.75-13.44,0-24.58,10.81-26.62,24.96-10.69,1.21-19,10.28-19,21.3,0,11.84,9.6,21.44,21.44,21.44h73.34Z"/>
  <g>
    <path class="cls-2" d="M173.95,111.71c-.63-.63-1.41-.64-1.55-.64h-66.58c-1.21,0-2.19.98-2.19,2.19v41.61c0,1.21.98,2.19,2.19,2.19h66.58c1.21,0,2.19-.98,2.19-2.19v-41.61c0-.61-.25-1.15-.64-1.55ZM162.08,154.59c-.57,0-1.03-.46-1.03-1.03s.46-1.03,1.03-1.03,1.03.46,1.03,1.03-.46,1.03-1.03,1.03ZM168.15,154.59c-.57,0-1.03-.46-1.03-1.03s.46-1.03,1.03-1.03,1.03.46,1.03,1.03-.46,1.03-1.03,1.03ZM171.76,149.74c0,.31-.25.56-.56.56h-64.18c-.31,0-.56-.25-.56-.56v-35.22c0-.31.25-.56.56-.56h64.18c.31,0,.56.25.56.56v35.22Z"/>
    <rect class="cls-2" x="134.68" y="157.65" width="9.18" height="9.18" rx="2.15" ry="2.15"/>
    <path class="cls-2" d="M150.28,171.73h-22.33c-.14,0-.26-.12-.26-.26v-1.32c0-1.51,1.22-2.73,2.73-2.73h17.4c.18,0,1.15.02,1.93.8.49.49.8,1.17.8,1.93v1.32c0,.14-.12.26-.26.26Z"/>
  </g>
  <path class="cls-2" d="M60.57,111.19h-25.6c-2.03,0-3.68,1.65-3.68,3.68v52.71c0,2.03,1.65,3.68,3.68,3.68h25.6c2.03,0,3.68-1.65,3.68-3.68v-52.71c0-2.03-1.65-3.68-3.68-3.68ZM45.08,113.04h5.16c.31,0,.56.25.56.56s-.25.56-.56.56h-5.16c-.31,0-.56-.25-.56-.56s.25-.56.56-.56ZM50.81,167.18c0,.47-.38.86-.86.86h-4.36c-.47,0-.86-.38-.86-.86v-1.22c0-.47.39-.86.86-.86h4.36c.47,0,.86.38.86.86v1.22ZM61.48,161.19c0,.42-.34.76-.76.76h-25.89c-.42,0-.76-.34-.76-.76v-44.68c0-.42.34-.76.76-.76h25.89c.42,0,.76.34.76.76v44.68Z"/>
  <g>
    <path class="cls-1" d="M48.98,108.46l-2.31-.05c-.26,0-.46-.22-.46-.47l.18-9.01c0-.25.21-.46.46-.46h92.95c.26,0,.46.21.46.46v9.03c0,.26-.21.46-.46.46h-2.31c-.26,0-.46-.21-.46-.46v-5.79c0-.26-.21-.46-.46-.46H50.03c-.25,0-.46.2-.46.46l-.11,5.83c0,.26-.22.46-.47.46Z"/>
    <rect class="cls-1" x="91.62" y="93.09" width="3.24" height="7" rx=".46" ry=".46"/>
  </g>
</svg>