<?xml version="1.0" encoding="UTF-8"?>
<svg id="Layer_1" data-name="Layer 1" xmlns="http://www.w3.org/2000/svg" viewBox="0 0 500 300">
  <defs>
    <style>
      .cls-1 {
        fill: #808085;
      }

      .cls-1, .cls-2 {
        stroke-width: 0px;
      }

      .cls-2 {
        fill: #e39731;
      }
    </style>
  </defs>
  <g>
    <polygon class="cls-1" points="14.4 112.26 48.92 147.23 50.54 145.62 12.12 106.7 12.12 189.86 14.4 189.86 14.4 112.26"/>
    <g>
      <polygon class="cls-2" points="16.95 189.86 68.41 137.53 68.67 137.26 66.62 135.05 12.72 189.86 16.95 189.86"/>
      <polygon class="cls-2" points="24.65 189.86 72.15 141.55 72.41 141.29 70.33 139.05 20.37 189.86 24.65 189.86"/>
      <polygon class="cls-2" points="32.34 189.86 75.88 145.58 76.14 145.32 74.06 143.08 28.06 189.86 32.34 189.86"/>
    </g>
    <polygon class="cls-1" points="77.79 147.66 77.79 147.66 36.3 189.86 39.5 189.86 68.88 159.99 68.88 159.99 115.79 112.27 115.79 189.86 118.08 189.86 118.08 106.7 77.79 147.66"/>
    <polygon class="cls-2" points="81.53 151.69 43.99 189.86 47.19 189.86 83.08 153.37 81.53 151.69"/>
    <polygon class="cls-2" points="85.26 155.72 65.36 175.96 66.93 177.62 86.82 157.39 85.26 155.72"/>
    <polygon class="cls-2" points="89 159.75 69.14 179.95 70.71 181.6 90.55 161.42 89 159.75"/>
    <polygon class="cls-2" points="92.74 163.77 72.92 183.93 74.49 185.59 94.29 165.45 92.74 163.77"/>
    <polygon class="cls-2" points="96.47 167.8 76.7 187.91 78.27 189.57 98.02 169.48 96.47 167.8"/>
    <polygon class="cls-2" points="100.21 171.83 82.47 189.86 85.67 189.86 101.76 173.5 100.21 171.83"/>
    <polygon class="cls-2" points="103.94 175.86 90.17 189.86 93.37 189.86 105.5 177.53 103.94 175.86"/>
    <polygon class="cls-2" points="107.68 179.88 97.87 189.86 101.06 189.86 109.23 181.56 107.68 179.88"/>
    <polygon class="cls-2" points="111.41 183.91 105.56 189.86 108.76 189.86 112.97 185.59 111.41 183.91"/>
    <polygon class="cls-2" points="115.15 187.94 113.26 189.86 116.93 189.86 115.15 187.94"/>
  </g>
  <g>
    <g>
      <g>
        <path class="cls-2" d="m157.93,184.39h-7.73l2.88-7.62h1.97l-3.01-7.89-3.01,7.89-2.88,7.62-2.08,5.47h-10.63l13.55-31.38h10.27l13.55,31.38h-10.8l-2.08-5.47Z"/>
        <path class="cls-2" d="m201.95,189.86l-.09-14.3-6.73,11.48h-4.6l-6.73-10.99v13.81h-9.52v-31.38h8.59l10.09,16.72,9.83-16.72h8.59l.09,31.38h-9.52Z"/>
        <path class="cls-1" d="m225.33,158.48h7.17v31.38h-7.17v-31.38Z"/>
        <path class="cls-1" d="m266.5,158.48v31.38h-5.89l-15.45-19.05v19.05h-7.08v-31.38h5.93l15.41,19.05v-19.05h7.08Z"/>
        <path class="cls-1" d="m310.31,186.68c-2.47-2.48-3.7-6.02-3.7-10.62v-17.58h7.17v17.31c0,5.62,2.3,8.43,6.91,8.43,2.24,0,3.96-.68,5.14-2.04s1.77-3.49,1.77-6.39v-17.31h7.08v17.58c0,4.6-1.23,8.15-3.7,10.62-2.47,2.48-5.91,3.72-10.34,3.72s-7.87-1.24-10.34-3.72Z"/>
        <path class="cls-1" d="m343.07,189.39c-2.29-.67-4.12-1.55-5.51-2.62l2.43-5.47c1.33.99,2.91,1.78,4.74,2.38,1.83.6,3.66.9,5.49.9,2.04,0,3.54-.31,4.52-.92.97-.61,1.46-1.43,1.46-2.45,0-.75-.29-1.37-.86-1.86-.58-.49-1.31-.89-2.21-1.19-.9-.3-2.12-.63-3.65-.99-2.36-.57-4.29-1.13-5.8-1.7-1.51-.57-2.8-1.48-3.87-2.74-1.08-1.25-1.62-2.93-1.62-5.02,0-1.82.49-3.47,1.46-4.95.97-1.48,2.44-2.65,4.4-3.52,1.96-.87,4.36-1.3,7.19-1.3,1.98,0,3.91.24,5.8.72,1.89.48,3.54,1.17,4.96,2.06l-2.21,5.51c-2.86-1.64-5.73-2.47-8.59-2.47-2.01,0-3.49.33-4.45.98-.96.66-1.44,1.53-1.44,2.6s.55,1.87,1.66,2.4,2.8,1.04,5.07,1.55c2.36.57,4.29,1.14,5.8,1.71,1.51.57,2.8,1.46,3.87,2.69s1.62,2.88,1.62,4.98c0,1.79-.49,3.43-1.48,4.91-.99,1.48-2.47,2.65-4.45,3.52-1.98.87-4.38,1.3-7.21,1.3-2.45,0-4.82-.34-7.11-1.01Z"/>
        <path class="cls-1" d="m373.42,164.4h-9.92v-5.92h27v5.92h-9.92v25.47h-7.17v-25.47Z"/>
        <polygon class="cls-2" points="430.52 162.63 430.52 158.48 423.35 158.48 423.35 169.93 430.52 162.63"/>
        <path class="cls-1" d="m460.09,184.04v5.83h-23.99v-31.38h23.42v5.83h-16.29v6.81h14.39v5.65h-14.39v7.26h16.87Z"/>
        <path class="cls-1" d="m467.11,189.39c-2.29-.67-4.12-1.55-5.51-2.62l2.43-5.47c1.33.99,2.91,1.78,4.74,2.38,1.83.6,3.66.9,5.49.9,2.04,0,3.54-.31,4.52-.92.97-.61,1.46-1.43,1.46-2.45,0-.75-.29-1.37-.86-1.86-.58-.49-1.31-.89-2.21-1.19-.9-.3-2.12-.63-3.65-.99-2.36-.57-4.29-1.13-5.8-1.7-1.51-.57-2.8-1.48-3.87-2.74-1.08-1.25-1.62-2.93-1.62-5.02,0-1.82.49-3.47,1.46-4.95.97-1.48,2.44-2.65,4.4-3.52,1.96-.87,4.36-1.3,7.19-1.3,1.98,0,3.91.24,5.8.72,1.89.48,3.54,1.17,4.96,2.06l-2.21,5.51c-2.86-1.64-5.73-2.47-8.59-2.47-2.01,0-3.49.33-4.45.98-.96.66-1.44,1.53-1.44,2.6s.55,1.87,1.66,2.4c1.11.52,2.8,1.04,5.07,1.55,2.36.57,4.29,1.14,5.8,1.71s2.8,1.46,3.87,2.69c1.08,1.23,1.62,2.88,1.62,4.98,0,1.79-.49,3.43-1.48,4.91-.99,1.48-2.47,2.65-4.45,3.52-1.98.87-4.38,1.3-7.21,1.3-2.45,0-4.82-.34-7.11-1.01Z"/>
      </g>
      <polygon class="cls-1" points="423.35 173.65 423.35 189.86 430.52 189.86 430.52 166.35 423.35 173.65"/>
    </g>
    <g>
      <path class="cls-1" d="m461.16,203.2v-7.81h1.59v6.49h3.95v1.33h-5.54Z"/>
      <path class="cls-1" d="m467.28,203.2v-1.51h1.51v1.51h-1.51Z"/>
      <path class="cls-1" d="m469.84,203.2v-7.81h1.59v6.49h3.95v1.33h-5.54Z"/>
      <path class="cls-1" d="m475.95,203.2v-1.51h1.51v1.51h-1.51Z"/>
      <path class="cls-1" d="m483.51,200.3l1.54.49c-.24.86-.63,1.5-1.18,1.92-.55.42-1.25.62-2.09.62-1.05,0-1.9-.36-2.58-1.07-.67-.71-1.01-1.69-1.01-2.93,0-1.31.34-2.33,1.02-3.05s1.57-1.09,2.67-1.09c.96,0,1.75.28,2.35.85.36.34.63.82.81,1.45l-1.58.38c-.09-.41-.29-.73-.58-.97-.29-.23-.65-.35-1.08-.35-.58,0-1.06.21-1.42.63s-.54,1.1-.54,2.04c0,1,.18,1.7.54,2.13.36.42.82.63,1.4.63.42,0,.79-.13,1.09-.4.3-.27.52-.69.65-1.27Z"/>
      <path class="cls-1" d="m485.86,203.2v-1.51h1.51v1.51h-1.51Z"/>
    </g>
    <g>
      <path class="cls-1" d="m133.45,146.26v-1.39h1.09v1.39h-1.09Z"/>
      <path class="cls-1" d="m139.27,146.26h-1.67c-.99,0-1.41.54-1.41,1.45v.8h-1.06v-.84c0-1.46.75-2.48,2.23-2.45-.34-.51-.49-1.22-.49-2.08,0-1.92.91-3.1,2.4-3.1s2.4,1.16,2.4,3.11-.87,3.11-2.4,3.11Zm0-5.29c-.89,0-1.31.72-1.31,2.15s.42,2.11,1.31,2.11,1.31-.71,1.31-2.07c0-1.46-.44-2.18-1.31-2.18Z"/>
      <path class="cls-1" d="m142.25,146.26v-1.39h1.09v1.39h-1.09Z"/>
      <path class="cls-1" d="m148.06,146.26h-1.67c-.99,0-1.41.54-1.41,1.45v.8h-1.06v-.84c0-1.46.75-2.48,2.23-2.45-.34-.51-.49-1.22-.49-2.08,0-1.92.91-3.1,2.4-3.1s2.4,1.16,2.4,3.11-.87,3.11-2.4,3.11Zm0-5.29c-.89,0-1.31.72-1.31,2.15s.42,2.11,1.31,2.11,1.31-.71,1.31-2.07c0-1.46-.44-2.18-1.31-2.18Z"/>
      <path class="cls-1" d="m151.04,146.26v-1.39h1.09v1.39h-1.09Z"/>
      <path class="cls-1" d="m152.72,146.26v-1.04h2.65v-2.18c0-1.37-.22-1.76-.97-1.76l.17-.97c.76,0,1.35.35,1.66.95.17.32.2.55.2,1.22v3.78h-3.71Zm1.88-6.95v-1.17h1.07v1.17h-1.07Z"/>
    </g>
    <g>
      <path class="cls-2" d="m408.1,118.54c-.75-.7-1.66-1.23-2.73-1.57-1.06-.35-2.24-.52-3.52-.52s-2.46.18-3.52.54c-1.06.36-1.98.89-2.74,1.59-.77.7-1.37,1.58-1.8,2.63-.43,1.05-.65,2.28-.65,3.69v2.07c0,.27.02.59.06.96.04.37.08.65.13.85-1.46.05-2.61.52-3.45,1.41-.84.89-1.26,2.27-1.26,4.15v9.33c0,.22.07.41.22.56.15.15.32.22.52.22h4.12c.22,0,.41-.08.56-.22.15-.15.22-.33.22-.56v-8.68c0-.47.1-.79.32-.96.21-.17.6-.26,1.17-.26.77.64,1.67,1.08,2.73,1.32,1.05.23,2.15.35,3.28.35,1.34,0,2.54-.16,3.62-.48,1.08-.32,1.99-.81,2.74-1.48.75-.67,1.34-1.52,1.74-2.57.41-1.05.61-2.3.61-3.76v-2.3c0-1.41-.2-2.63-.61-3.68-.41-1.05-.99-1.92-1.74-2.63Zm-3.21,8.03c0,1.36-.27,2.3-.8,2.82-.53.52-1.32.78-2.36.78-1.11,0-1.9-.28-2.36-.84-.46-.56-.69-1.48-.69-2.76v-1.41c0-1.36.26-2.32.78-2.88.52-.56,1.3-.83,2.34-.83s1.81.27,2.32.81c.51.55.76,1.51.76,2.89v1.41Z"/>
      <path class="cls-2" d="m420.73,142.6h-2.71c-.22-.13-.4-.33-.52-.61-.12-.28-.19-.63-.19-1.02,0-.52.14-.88.43-1.08.28-.2.72-.3,1.32-.3h1.37c.32,0,.48-.12.48-.37v-1.26c0-.2-.12-.32-.37-.37-.35-.1-.71-.16-1.09-.19-.38-.03-.69-.04-.91-.04-2.52,0-3.78,1.06-3.78,3.19,0,.37.04.73.13,1.09.09.36.23.7.43,1.02h-.74c-.15,0-.28.02-.39.08-.11.05-.17.13-.17.26v1.37c0,.15.06.26.17.33.11.08.24.11.39.11h6.16c.37,0,.56-.15.56-.45v-1.41c0-.25-.19-.37-.56-.37Z"/>
      <path class="cls-2" d="m475.24,134.7c.3-.1.5-.23.61-.41.11-.17.19-.38.24-.63.07-.72.12-1.64.15-2.76.02-1.13.04-2.6.04-4.43v-1.76c0-.56,0-1.11-.02-1.67-.01-.56-.03-1.15-.04-1.78-.01-.63-.03-1.33-.06-2.1-.03-.2-.11-.37-.24-.5-.14-.14-.34-.2-.61-.2h-4.08c-.22,0-.4.07-.54.2-.14.13-.2.3-.2.5.05,1.71.07,3.35.07,4.93v4.16c0,.57-.09.9-.28,1-.19.1-.55.15-1.09.15h-20.41c-.72,0-1.23-.11-1.54-.33-.31-.22-.46-.69-.46-1.41v-10.09c0-.2-.04-.35-.13-.45-.09-.1-.27-.2-.54-.3-.27-.08-.62-.15-1.04-.22-.42-.08-.88-.14-1.39-.2-.51-.06-1.03-.1-1.58-.13-.54-.02-1.05-.04-1.52-.04-3.46,0-6.11.83-7.94,2.48-1.83,1.66-2.74,4.05-2.74,7.16v.63c0,1.39.2,2.57.61,3.54.41.98.98,1.78,1.71,2.39.73.62,1.58,1.08,2.56,1.37.98.3,2.02.45,3.13.45h.37c.74,0,1.5-.09,2.28-.28.78-.19,1.49-.46,2.13-.83.59.79,1.37,1.32,2.32,1.59.95.27,1.96.41,3.02.41h20.44c.54,0,1.15,0,1.82-.02.67-.01,1.32-.04,1.95-.08.63-.04,1.21-.09,1.74-.15.53-.06.95-.13,1.24-.2Zm-34.17-7.34c0,.57-.2.96-.61,1.19-.41.22-.95.34-1.61.34h-.44c-.99,0-1.74-.24-2.24-.73-.51-.48-.76-1.33-.76-2.54v-.48c0-1.24.38-2.18,1.13-2.84.75-.66,1.8-.98,3.13-.98h.74c.22,0,.45.03.67.08v5.97Z"/>
      <path class="cls-2" d="m476.61,138.26h-3.23c-.22,0-.43.08-.63.24-.2.16-.3.36-.3.61v3.56c0,.2.1.38.3.54.2.16.41.24.63.24h3.23c.25,0,.46-.08.63-.24s.26-.34.26-.54v-3.56c0-.25-.09-.45-.26-.61-.17-.16-.38-.24-.63-.24Z"/>
      <path class="cls-2" d="m469.04,138.26h-3.23c-.25,0-.46.08-.63.24-.17.16-.26.36-.26.61v3.56c0,.2.09.38.26.54.17.16.38.24.63.24h3.23c.22,0,.43-.08.63-.24.2-.16.3-.34.3-.54v-3.56c0-.25-.09-.45-.28-.61-.19-.16-.4-.24-.65-.24Z"/>
      <path class="cls-2" d="m487.33,101.9h-2.71c-.22-.12-.4-.33-.52-.61-.13-.28-.19-.62-.19-1.02,0-.52.14-.88.43-1.08.28-.2.72-.3,1.32-.3h1.37c.32,0,.48-.12.48-.37v-1.26c0-.2-.12-.32-.37-.37-.35-.1-.71-.16-1.09-.19-.38-.02-.69-.04-.91-.04-2.52,0-3.78,1.06-3.78,3.19,0,.37.04.74.13,1.09.09.36.23.7.43,1.02h-.74c-.15,0-.28.03-.39.08-.11.05-.17.14-.17.26v1.37c0,.15.06.26.17.33.11.08.24.11.39.11h6.16c.37,0,.56-.15.56-.45v-1.41c0-.25-.19-.37-.56-.37Z"/>
      <path class="cls-2" d="m486.58,106.7h-4.23c-.25,0-.44.07-.58.22-.14.15-.2.32-.2.52v26.93c0,.2.07.38.2.54.14.16.33.24.58.24h4.23c.22,0,.41-.08.56-.24.15-.16.22-.34.22-.54v-26.93c0-.2-.08-.37-.22-.52-.15-.15-.33-.22-.56-.22Z"/>
      <path class="cls-2" d="m420.1,106.7h-4.23c-.25,0-.44.07-.58.22-.14.15-.2.32-.2.52v26.93c0,.2.07.38.2.54.14.16.33.24.58.24h4.23c.22,0,.41-.08.56-.24.15-.16.22-.34.22-.54v-26.93c0-.2-.08-.37-.22-.52-.15-.15-.33-.22-.56-.22Z"/>
    </g>
    <g>
      <path class="cls-2" d="m270.55,113.27v-2.49c0-.31-.25-.56-.56-.56h-3.57c-.31,0-.56.25-.56.56v6.12c0,.5.61.75.96.39l3.57-3.63c.1-.1.16-.25.16-.39Z"/>
      <g>
        <path class="cls-1" d="m143.85,116.83h2.58c.22,0,.44-.08.64-.24.2-.16.3-.35.3-.58v-2.92c0-.25-.09-.45-.28-.62-.19-.16-.41-.24-.65-.24h-2.58c-.25,0-.46.08-.64.24-.17.16-.26.37-.26.62v2.92c0,.22.09.42.26.58.17.16.39.24.64.24Z"/>
        <path class="cls-1" d="m163.53,121.87c-.01-.6-.02-1.3-.02-2.09,0-.2-.07-.37-.2-.51-.14-.14-.34-.21-.62-.21h-3.1c-.2,0-.37.07-.5.21-.14.14-.21.31-.21.51.02,1.79.03,3.44.02,4.95-.01,1.51-.02,2.97-.02,4.39,0,.6-.1.95-.3,1.07-.2.11-.6.17-1.2.17h-11.14c-1.72,0-3.12-.15-4.21-.45-1.08-.3-1.92-.73-2.52-1.31-.6-.57-1.01-1.29-1.23-2.15-.22-.86-.34-1.85-.34-2.97,0-.7.04-1.57.11-2.62.05-.5-.16-.75-.64-.75h-2.8c-.27,0-.46.05-.56.17-.1.11-.17.31-.22.58-.25,1.47-.37,2.79-.37,3.96,0,1.62.19,3.07.56,4.34.37,1.27,1.03,2.35,1.96,3.23.93.89,2.21,1.56,3.81,2.04,1.61.47,3.66.71,6.15.71h8.23c.7,0,1.48,0,2.34-.02.86-.01,1.69-.04,2.51-.07.81-.04,1.54-.08,2.19-.13.65-.05,1.11-.11,1.38-.19.3-.12.5-.27.6-.45.1-.17.17-.39.22-.64.07-.67.12-1.55.15-2.64.02-1.08.04-2.42.04-4.02v-1.81c0-.54,0-1.07-.02-1.61-.01-.54-.03-1.1-.04-1.7Z"/>
        <path class="cls-1" d="m150.76,116.83h2.62c.25,0,.45-.08.62-.24s.24-.35.24-.58v-2.92c0-.25-.08-.45-.24-.62s-.37-.24-.62-.24h-2.62c-.22,0-.43.08-.62.24-.19.16-.28.37-.28.62v2.92c0,.22.09.42.28.58.19.16.39.24.62.24Z"/>
        <path class="cls-1" d="m240.72,130.36h-7.81c-.57-.22-1.09-.75-1.53-1.59-.45-.83-.67-1.77-.67-2.82v-.41c0-1.57.47-2.69,1.4-3.35.93-.66,2.26-.99,3.98-.99.4,0,.75,0,1.06.02s.61.02.9.04c.29.01.59.03.9.05.31.03.67.05,1.07.08.52.05.78-.17.78-.67v-2.73c0-.25-.07-.42-.22-.5-.15-.09-.36-.16-.64-.21-.82-.15-1.56-.25-2.22-.32-.66-.06-1.44-.09-2.34-.09-1.27,0-2.47.15-3.61.45-1.14.3-2.13.77-2.99,1.42-.86.65-1.54,1.48-2.04,2.49-.5,1.01-.75,2.24-.75,3.68v.41c0,1.1.13,2.09.39,2.97.26.89.6,1.58,1.03,2.08h-51.34c-.7,0-1.22-.11-1.57-.32-.35-.21-.52-.74-.52-1.59v-21.01c0-.2-.06-.37-.19-.53-.12-.15-.31-.22-.56-.22h-3.33c-.22,0-.41.07-.56.22-.15.15-.22.33-.22.53v22.43c0,1.1.13,1.99.39,2.67.26.69.64,1.22,1.12,1.61.49.38,1.07.65,1.76.78.69.14,1.45.21,2.3.21h66.03c.2,0,.37-.05.52-.17.15-.11.22-.27.22-.47v-3.48c0-.2-.07-.36-.22-.48-.15-.12-.32-.19-.52-.19Z"/>
        <path class="cls-1" d="m377.49,106.92c-.14-.15-.3-.22-.5-.22h-3.4c-.2,0-.37.07-.52.22-.15.15-.22.34-.22.56v21.65c0,.6-.09.95-.28,1.07-.19.11-.58.17-1.18.17h-9.47c-.35,0-.78-.04-1.31-.11-.52-.07-.88-.25-1.08-.52v-22.25c0-.22-.06-.41-.19-.56-.12-.15-.3-.22-.52-.22h-3.4c-.2,0-.37.07-.52.22-.15.15-.22.34-.22.56v21.61c0,.3-.07.53-.21.69-.14.16-.31.29-.52.37-.21.09-.44.14-.69.17-.25.02-.49.04-.71.04h-51.87c.05-.12.09-.3.13-.52.04-.22.06-.47.07-.73.01-.26.02-.52.02-.77v-1.46c0-1.84-.25-3.41-.75-4.69-.5-1.28-1.21-2.32-2.13-3.1-.92-.79-2.04-1.35-3.35-1.7-1.31-.35-2.76-.52-4.36-.52-.42,0-.97.02-1.64.08-.67.05-1.39.15-2.15.32-.76.16-1.53.39-2.3.67-.77.29-1.48.67-2.13,1.14v-1.38c0-.2-.07-.37-.22-.52-.15-.15-.33-.22-.52-.22h-3.21c-.2,0-.37.07-.52.22-.15.15-.22.32-.22.52v12.67h-4.37c-.17,0-.38,0-.62-.02-.24-.01-.48-.04-.73-.09-.25-.05-.47-.12-.67-.2-.2-.09-.34-.2-.41-.32v-11.47c0-.71-.86-1.06-1.36-.55l-2.83,2.88c-.33.34-.52.8-.52,1.28v7.23c0,.3-.07.53-.22.69-.15.16-.33.29-.54.37-.21.09-.44.14-.69.17-.25.02-.49.04-.71.04h-10.32c-.7,0-1.22-.11-1.57-.32-.35-.21-.52-.74-.52-1.59v-21.01c0-.2-.06-.37-.19-.53-.12-.15-.31-.22-.56-.22h-3.33c-.22,0-.41.07-.56.22-.15.15-.22.33-.22.53v22.43c0,1.1.13,1.99.39,2.67.26.69.64,1.22,1.12,1.61.49.38,1.07.65,1.76.78.69.14,1.45.21,2.3.21h11c.4,0,.83-.02,1.29-.05.46-.04.92-.11,1.38-.21.46-.1.9-.23,1.33-.39.42-.16.81-.37,1.16-.62.65.52,1.46.87,2.43,1.03.97.16,1.93.24,2.88.24h78.52c.4,0,.83-.02,1.29-.05.46-.04.92-.11,1.38-.21.46-.1.9-.23,1.33-.39.42-.16.81-.37,1.16-.62.62.52,1.42.87,2.39,1.03.97.16,1.93.24,2.88.24h8.09c.5,0,1.05,0,1.66-.02.61-.01,1.2-.04,1.78-.07.57-.04,1.1-.08,1.59-.13.49-.05.87-.11,1.14-.19.3-.12.51-.27.62-.45.11-.17.19-.39.24-.64.07-.67.12-1.41.15-2.22.02-.81.04-1.55.04-2.22v-21.72c0-.22-.07-.41-.21-.56Zm-81.32,21.09c0,1-.07,1.66-.22,1.98-.15.33-.37.48-.67.48h-8.64c-.97,0-1.83,0-2.58-.02-.75-.01-1.41-.03-1.98-.05v-7.18c.47-.35,1.03-.64,1.66-.88.64-.24,1.28-.43,1.94-.56.66-.14,1.29-.23,1.89-.28.6-.05,1.1-.07,1.5-.07,1.22,0,2.28.1,3.18.3.9.2,1.63.54,2.21,1.01.57.47,1,1.1,1.29,1.87.29.77.43,1.72.43,2.84v.56Z"/>
      </g>
    </g>
  </g>
  <path class="cls-1" d="m301.1,165.92c-1.43-2.36-3.44-4.19-6.02-5.49-2.58-1.3-5.56-1.95-8.92-1.95h-14.08v31.38h7.17v-25.42h6.55c3.1,0,5.57.88,7.42,2.62,1.84,1.75,2.77,4.12,2.77,7.11s-.92,5.36-2.77,7.11c-1.85,1.75-4.32,2.62-7.42,2.62h-2.68v5.96h3.03c3.36,0,6.34-.65,8.92-1.95,2.58-1.3,4.59-3.13,6.02-5.49,1.43-2.36,2.15-5.11,2.15-8.25s-.72-5.89-2.15-8.25Z"/>
  <path class="cls-1" d="m413.08,179.78c2.04-.9,3.61-2.19,4.72-3.88,1.11-1.69,1.66-3.7,1.66-6.03s-.55-4.35-1.64-6.05c-1.09-1.7-2.65-3.02-4.67-3.95-2.02-.93-4.4-1.39-7.15-1.39h-13.42v31.38h7.17v-25.47h5.84c2.15,0,3.79.47,4.92,1.41,1.12.94,1.68,2.3,1.68,4.06s-.56,3.08-1.68,4.04c-1.12.96-2.76,1.43-4.92,1.43h-1.97v5.78h2.72l5.98,8.74h7.7l-6.95-10.09Z"/>
</svg>