<?xml version="1.0" encoding="utf-8"?>
<!-- Generator: Adobe Illustrator 28.0.0, SVG Export Plug-In . SVG Version: 6.00 Build 0)  -->
<svg version="1.1" id="Layer_1" xmlns="http://www.w3.org/2000/svg" xmlns:xlink="http://www.w3.org/1999/xlink" x="0px" y="0px"
	 viewBox="0 0 500 300" style="enable-background:new 0 0 500 300;" xml:space="preserve">
<style type="text/css">
	.st0{fill:#EC7620;}
	.st1{fill-rule:evenodd;clip-rule:evenodd;fill:#350600;}
	.st2{fill:#350600;}
	.st3{fill:#F88D2A;}
	.st4{fill:#FFC629;}
	.st5{fill:#42A7C6;}
	.st6{fill:#AD8B80;}
	.st7{fill:#404041;}
	.st8{fill:#E20613;}
	.st9{fill:#007A8A;}
	.st10{fill:#A0002D;}
	.st11{fill:#0380C3;}
	.st12{fill:#FFFCE7;}
	.st13{fill:#DAC094;}
	.st14{fill:#692525;}
	.st15{fill:#699043;}
	.st16{fill:#70715B;}
	.st17{fill:#C1E7F6;}
	.st18{clip-path:url(#SVGID_00000072965452391391669550000008015681359521768623_);fill:#C1E7F6;}
	.st19{clip-path:url(#SVGID_00000072965452391391669550000008015681359521768623_);fill:#7CD1EE;}
	.st20{fill:#7CD1EE;}
	.st21{fill:#92A1C6;}
	.st22{filter:url(#Adobe_OpacityMaskFilter);}
	
		.st23{clip-path:url(#SVGID_00000087378737930126937610000009221388361255551413_);fill:url(#SVGID_00000019648058112584261650000015854273549322836390_);}
	
		.st24{clip-path:url(#SVGID_00000087378737930126937610000009221388361255551413_);mask:url(#SVGID_00000075121785466743436260000014284505941797465786_);fill:url(#SVGID_00000124847318636695187790000009667585194199202449_);}
	.st25{clip-path:url(#SVGID_00000147926782252387857050000003985904560595793084_);fill:#604693;}
	.st26{fill:#00B2E3;}
	.st27{fill:#F5911E;}
	.st28{fill:#B12B26;}
	.st29{fill:#ED4036;}
	.st30{fill:#6D6E70;}
	.st31{fill:#121921;}
	.st32{fill:#0381C4;}
	.st33{fill:#A2732A;}
	.st34{fill:#513A16;}
	.st35{fill:#B99664;}
	.st36{fill:none;stroke:#B99664;stroke-width:1.2826;stroke-miterlimit:10;}
	.st37{fill:#8F9191;}
	.st38{fill:none;}
	.st39{fill:url(#SVGID_00000138539088589416819800000007322813986210671002_);}
	.st40{fill:url(#SVGID_00000101078985563187548240000013125603810917157786_);}
	.st41{fill:url(#SVGID_00000078002552518982344890000010379221705099394211_);}
	.st42{fill:#1A1A1A;}
	.st43{fill:url(#SVGID_00000122716890115055501420000005409376813027191209_);}
	.st44{fill:url(#SVGID_00000180336052187640195910000003796595825170377356_);}
	.st45{fill:url(#SVGID_00000122687683938188441200000007179559474994908858_);}
	.st46{fill:url(#SVGID_00000137819072415307075080000004397543634454219427_);}
	.st47{opacity:0.6;fill:url(#SVGID_00000168807508222737921910000014389120893329978270_);}
	.st48{fill:url(#SVGID_00000059292137105955063310000009449186215771208591_);}
	.st49{opacity:0.6;fill:url(#SVGID_00000085240628005512334580000014482677680057395123_);}
	.st50{fill:url(#SVGID_00000008127103034997594000000008069721306680001211_);}
	.st51{opacity:0.6;fill:url(#SVGID_00000073722740698100578480000003188564255722518425_);}
	.st52{fill:url(#SVGID_00000083089198973201480970000012810424678075291018_);}
	.st53{opacity:0.6;fill:url(#SVGID_00000000914978518214702140000008936623351074614407_);}
	.st54{fill:url(#SVGID_00000176016123664975241480000004157504181554610836_);}
	.st55{fill:url(#SVGID_00000150804213208212019630000004977174335360516531_);}
	.st56{opacity:0.6;fill:url(#SVGID_00000008120229385795754510000011177359930846708391_);}
	.st57{fill:url(#SVGID_00000155117428963386064330000017450589243635368592_);}
	.st58{fill:url(#SVGID_00000149364264093091422040000014456532562321733251_);}
	.st59{opacity:0.6;fill:url(#SVGID_00000170249712169010779670000016271357410570437801_);}
	.st60{fill:#AB774D;}
</style>
<g>
	<g>
		<g>
			<path class="st9" d="M91.3,162.8l53.2-64.2c-2.3-3.3-4.7-6.6-7.1-9.9l-61.5,74.1C83.8,162.8,87.8,162.8,91.3,162.8z"/>
			<path class="st9" d="M129.9,199c-6.9,0-11.8,0-15.4,0l-44.1,53.2c3.8,1.7,7.7,3.2,11.8,4.3L129.9,199z"/>
			<path class="st9" d="M59.9,246.3L99,199c-2.2,0-3.7,0-4.9,0c-5.5-0.2-9.9,0-15.4-0.7c-9.9-1.2-17.5-9.6-18.9-19
				c-0.3-2-0.2-3.9,0.1-5.9l0-0.2c0.6-3.8,2.6-10.8,8.8-19.6l3.6-5.2L130,78.8l-27.2-38.2l-49.3,69.3c-16.2,25-28.4,49.1-28.4,71.5
				C25.2,208.5,39,232.3,59.9,246.3z"/>
			<path class="st9" d="M151.4,108.7l-44.8,54.1c7.5,0,12.9,0,19.2,0c14.8-0.1,19.7,12.1,19.7,12.1s7.1,13-8.5,34L95.6,259
				c2.4,0.2,4.9,0.4,7.4,0.4c2.5,0,4.9-0.1,7.3-0.3c39.7-3.6,70.8-37,70.8-77.6C181.1,157.5,169,134.6,151.4,108.7z"/>
		</g>
		<g>
			<path class="st9" d="M259.6,125.3l-10.9,5.4v-5.4c0-3-1.1-5.1-3.2-6.3c-2.1-1.2-4.7-1.8-7.7-1.8c-3,0-5.6,0.6-7.7,1.8
				c-2.1,1.2-3.2,3.3-3.2,6.3c0,4,5.4,7.3,16.3,9.8c10.9,2.5,16.3,8.4,16.3,17.4c0,6-2.1,10.7-6.4,14.1c-4.3,3.3-9.4,5-15.4,5
				c-6,0-11.2-1.7-15.4-5c-4.2-3.3-6.4-8-6.4-14.1l10.9-5.4v5.4c0,3,1.1,5.1,3.2,6.3c2.1,1.2,4.7,1.8,7.7,1.8c3,0,5.6-0.6,7.7-1.8
				c2.1-1.2,3.2-3.3,3.2-6.3c0-4-5.4-7.3-16.3-9.8c-10.9-2.5-16.3-8.4-16.3-17.4c0-6,2.1-10.7,6.4-14.1c4.3-3.3,9.4-5,15.4-5
				c6,0,11.2,1.7,15.4,5C257.4,114.6,259.6,119.3,259.6,125.3z"/>
			<path class="st9" d="M289.5,117.1v54.5h-10.9v-54.5H265l-5.4-10.9h43.6v10.9H289.5z"/>
			<path class="st9" d="M308.6,149.8V128c0-6,2.1-11.2,6.4-15.4c4.3-4.3,9.4-6.4,15.4-6.4c6,0,11.2,2.1,15.4,6.4
				c4.2,4.2,6.4,9.4,6.4,15.4v21.8c0,6-2.1,11.2-6.4,15.4c-4.3,4.2-9.4,6.4-15.4,6.4c-6,0-11.2-2.1-15.4-6.4
				C310.7,161,308.6,155.8,308.6,149.8z M319.5,128v21.8c0,3,1.1,5.6,3.2,7.7c2.1,2.1,4.7,3.2,7.7,3.2c3,0,5.6-1.1,7.7-3.2
				c2.1-2.1,3.2-4.7,3.2-7.7V128c0-3-1.1-5.6-3.2-7.7c-2.1-2.1-4.7-3.2-7.7-3.2c-3,0-5.6,1.1-7.7,3.2
				C320.6,122.4,319.5,125,319.5,128z"/>
			<path class="st9" d="M374,136.8v34.8h-10.9v-65.4h24.5c12.7,0,19.1,6.4,19.1,19.1c0,11.6-5.3,17.9-15.8,18.9l15.8,27.4H394
				L374,136.8z M374,117.1v16.3h13.6c5.4,0,8.2-2.7,8.2-8.2c0-5.4-2.7-8.2-8.2-8.2H374z"/>
			<path class="st9" d="M428.5,128.9v42.7h-10.9v-65.4h12l15.2,31.4l15.2-31.4h12v65.4h-10.9v-42.7l-16.3,33.8L428.5,128.9z"/>
			<path class="st9" d="M224.4,246.6h23.2v9.3h-32.5v-55.7h32.5v9.3h-23.2V246.6z M247.6,232.7h-18.6l-4.6-9.3h23.2V232.7z"/>
			<path class="st9" d="M266.2,219.5v36.3h-9.3v-55.7h10.3l17.6,36.3v-36.3h9.3v55.7h-10.3L266.2,219.5z"/>
			<path class="st9" d="M312.6,246.6h23.2v9.3h-32.5v-55.7h32.5v9.3h-23.2V246.6z M335.8,232.7h-18.6l-4.6-9.3h23.2V232.7z"/>
			<path class="st9" d="M354.4,226.3v29.6h-9.3v-55.7H366c10.8,0,16.2,5.4,16.2,16.2c0,9.9-4.5,15.2-13.5,16.1l13.5,23.3h-10.8
				L354.4,226.3z M354.4,209.5v13.9H366c4.6,0,7-2.3,7-7c0-4.6-2.3-7-7-7H354.4z"/>
			<path class="st9" d="M391.5,218.8c0-5.1,1.8-9.5,5.4-13.1c3.6-3.6,8-5.4,13.1-5.4c5.1,0,9.5,1.4,13.1,4.3s5.4,6.8,5.4,12h-9.3
				c0-2.6-0.9-4.4-2.7-5.4c-1.8-1-4-1.6-6.6-1.6c-2.6,0-4.8,0.9-6.6,2.7c-1.8,1.8-2.7,4-2.7,6.6v18.6c0,2.6,0.9,4.8,2.7,6.6
				c1.8,1.8,4,2.7,6.6,2.7c2.6,0,4.8-0.9,6.6-2.7c1.8-1.8,2.7-4,2.7-6.6v-4.6h-7l-4.6-9.3h20.9v13.9c0,5.1-1.8,9.5-5.4,13.1
				c-3.6,3.6-8,5.4-13.1,5.4c-5.1,0-9.5-1.8-13.1-5.4c-3.6-3.6-5.4-8-5.4-13.1V218.8z"/>
			<path class="st9" d="M449.6,229.2l-16-29h10.6l10,18.2l10-18.2h10.6l-16,29v26.7h-9.3V229.2z"/>
		</g>
	</g>
</g>
</svg>
