<?xml version="1.0" encoding="UTF-8"?>
<svg id="Layer_1" data-name="Layer 1" xmlns="http://www.w3.org/2000/svg" viewBox="0 0 200 200">
  <defs>
    <style>
      .cls-1 {
        fill: #1d252c;
      }

      .cls-2 {
        fill: #e3e3e4;
      }

      .cls-3 {
        fill: #db0032;
      }
    </style>
  </defs>
  <path class="cls-1" d="M141.74,91.87c.62-3.9.68-7.98.07-12.16-2.63-18.16-17.69-32.36-35.97-33.94-16.81-1.45-31.69,7.52-38.89,21.17-3.49-1.68-7.4-2.62-11.53-2.62-14.69,0-26.6,11.91-26.6,26.6,0,.55.02,1.1.06,1.65-11.47,2.94-19.95,13.35-19.95,25.74v3.66c0,17.91,14.52,32.42,32.42,32.42h94.89c17.06,0,30.88-13.83,30.88-30.88v-3.66c0-14.6-11.13-26.6-25.38-27.98Z"/>
  <g>
    <path class="cls-2" d="M147.72,147.08l-5.12.42c-.75.06-1.44.49-1.82,1.15-.81,1.43-1.63,2.88-2.49,4.39-.59,1.04-1.81,1.55-2.96,1.26l-3.09-.81-2.54-.66c-1.15-.31-1.95-1.35-1.95-2.54v-5.52c0-.67-.3-1.31-.8-1.75l-4.15-3.58c-.61-.53-1.45-.7-2.22-.46l-6.54,2.05c-1.05.33-2.18-.13-2.72-1.09l-2.85-5.07c-.53-.95-.34-2.13.46-2.86l5.03-4.6c.48-.43.75-1.06.75-1.7v-5.39c0-.83-.45-1.61-1.18-2.02l-6.42-3.61c-.9-.5-1.37-1.62-1.06-2.66l1.51-5.08c.3-.98,1.2-1.66,2.22-1.66h7.54c.71,0,1.37-.32,1.81-.87l3.41-4.26c.48-.61.63-1.41.4-2.14l-2.06-6.59c-.33-1.06.14-2.21,1.11-2.74l5.19-2.83c.94-.51,2.1-.32,2.82.48l4.64,5.1c.45.48,1.06.77,1.73.77h5.24c.82,0,1.58-.43,2-1.14l3.79-6.46c.55-.93,1.66-1.36,2.69-1.04l5.38,1.67c.97.3,1.63,1.2,1.63,2.22v7.61c0,.69.31,1.34.83,1.78l3.8,3.17c.59.49,1.39.66,2.14.43l6.67-1.97c1.03-.31,2.14.15,2.67,1.09l2.87,5.07c.54.95.34,2.14-.46,2.88l-4.92,4.51c-.48.43-.75,1.06-.75,1.7v5.46c0,.82.43,1.58,1.14,1.99l6.35,3.75c.88.53,1.33,1.63,1.02,2.65l-1.65,5.37c-.3.97-1.2,1.63-2.22,1.63h-7.62c-.67,0-1.31.3-1.75.8l-3.28,3.79c-.5.58-.67,1.42-.45,2.17l2.06,6.66c.32,1.04-.13,2.16-1.07,2.7l-5.05,2.86c-.89.5-2.07.33-2.8-.43l-5.03-5.3c-.49-.51-1.19-.79-1.9-.72h-.01ZM142.11,100.79c-10.25.06-18.75,8.59-18.78,18.89-.03,10.28,8.36,18.8,18.7,18.97,10.58.17,19.36-8.64,19.18-19.26-.16-10.22-8.82-18.64-19.1-18.59Z"/>
    <path class="cls-3" d="M173.45,101.51l-3.06.49c-.46.07-.85.37-1.04.78-.42.9-.85,1.82-1.29,2.77-.31.65-1.02,1.03-1.73.89l-1.9-.34-1.55-.29c-.71-.13-1.25-.72-1.3-1.44l-.26-3.33c-.03-.41-.24-.78-.57-1.02l-2.66-1.95c-.39-.29-.9-.35-1.36-.17l-3.84,1.54c-.62.25-1.33.03-1.69-.53l-1.95-2.93c-.37-.55-.31-1.27.14-1.75l2.81-3.02c.26-.29.4-.67.38-1.06l-.25-3.25c-.03-.5-.34-.95-.81-1.17l-4.03-1.87c-.57-.26-.9-.91-.77-1.55l.67-3.14c.13-.61.64-1.05,1.26-1.1l4.54-.35c.42-.03.81-.26,1.05-.61l1.85-2.73c.26-.39.32-.87.14-1.3l-1.54-3.87c-.25-.63-.02-1.34.54-1.7l2.99-1.95c.54-.35,1.25-.29,1.73.15l3.04,2.86c.29.27.67.41,1.07.38l3.15-.25c.49-.03.94-.33,1.15-.79l1.98-4.07c.29-.58.94-.89,1.57-.75l3.33.75c.59.14,1.04.64,1.09,1.26l.35,4.58c.03.41.25.79.58,1.03l2.45,1.73c.38.27.87.33,1.3.16l3.93-1.5c.61-.23,1.29-.01,1.66.53l1.97,2.93c.37.55.31,1.28-.14,1.76l-2.75,2.96c-.26.29-.4.67-.38,1.06l.26,3.29c.03.49.33.93.78,1.14l4,1.97c.56.27.88.93.73,1.55l-.73,3.31c-.14.61-.64,1.04-1.26,1.1l-4.59.37c-.4.03-.78.24-1.02.57l-1.79,2.45c-.27.38-.34.88-.16,1.34l1.55,3.92c.24.62.02,1.31-.51,1.68l-2.91,1.95c-.51.34-1.23.3-1.7-.13l-3.28-2.96c-.32-.29-.75-.41-1.18-.34v-.02ZM167.88,73.87c-6.18.51-10.89,6.07-10.42,12.27.47,6.19,5.93,10.93,12.17,10.55,6.38-.4,11.25-6.12,10.65-12.51-.58-6.15-6.2-10.82-12.4-10.3h0Z"/>
  </g>
  <g>
    <path class="cls-3" d="M31.44,123.35c.7.55,1.64.83,2.84.83.96,0,1.73-.18,2.31-.55.59-.37.88-.91.88-1.63,0-.46-.16-.81-.49-1.08s-.83-.48-1.52-.67-1.81-.44-3.37-.77c-1.52-.33-2.78-.71-3.78-1.16-1-.45-1.8-1.12-2.41-2.02-.61-.9-.91-2.1-.91-3.6,0-1.35.39-2.56,1.16-3.65.77-1.09,1.84-1.94,3.19-2.56,1.36-.62,2.87-.93,4.55-.93s3.27.32,4.64.95c1.38.63,2.47,1.5,3.26,2.62s1.19,2.36,1.19,3.73h-5.83c-.07-.8-.38-1.45-.95-1.94-.56-.49-1.34-.73-2.31-.73-.85,0-1.54.17-2.07.52s-.8.86-.8,1.53c0,.46.16.81.47,1.06.32.25.81.47,1.48.65s1.77.43,3.29.73c1.54.3,2.82.67,3.85,1.11s1.84,1.09,2.46,1.96.93,2.03.93,3.49-.4,2.69-1.21,3.85-1.92,2.05-3.34,2.71c-1.42.65-3.01.98-4.77.98s-3.48-.34-4.95-1.01c-1.48-.67-2.64-1.6-3.49-2.77-.85-1.17-1.27-2.49-1.27-3.94l5.83.13c.07.89.45,1.61,1.14,2.17Z"/>
    <path class="cls-3" d="M62.73,128.58h-2.84c-1.11,0-1.91-.23-2.41-.7-.5-.47-.75-1.1-.75-1.91v-.13c-.63.98-1.38,1.71-2.25,2.2-.87.49-1.91.73-3.13.73-1.89,0-3.42-.43-4.58-1.29-1.16-.86-1.74-2.08-1.74-3.67,0-1.85.71-3.27,2.12-4.27,1.41-1,3.46-1.5,6.13-1.5h2.48v-.65c0-.59-.23-1.06-.7-1.42-.47-.36-1.08-.54-1.84-.54-.7,0-1.27.15-1.71.44-.45.29-.69.69-.73,1.19h-5.41c.15-1.76.95-3.12,2.38-4.07,1.43-.96,3.35-1.43,5.74-1.43s4.43.52,5.8,1.56,2.05,2.58,2.05,4.6v5.21c0,.39.08.66.25.8.16.14.43.21.8.21h.36v4.63ZM53.38,121.54c-.83,0-1.48.17-1.96.5-.48.34-.72.79-.72,1.35,0,.46.17.82.51,1.09.34.27.79.41,1.35.41.96,0,1.72-.3,2.3-.9.58-.6.87-1.4.9-2.4v-.07h-2.38Z"/>
    <path class="cls-3" d="M81.38,128.58h-2.84c-1.11,0-1.91-.23-2.41-.7-.5-.47-.75-1.1-.75-1.91v-.13c-.63.98-1.38,1.71-2.25,2.2-.87.49-1.91.73-3.13.73-1.89,0-3.42-.43-4.58-1.29-1.16-.86-1.74-2.08-1.74-3.67,0-1.85.71-3.27,2.12-4.27,1.41-1,3.46-1.5,6.13-1.5h2.48v-.65c0-.59-.23-1.06-.7-1.42-.47-.36-1.08-.54-1.84-.54-.7,0-1.27.15-1.71.44-.45.29-.69.69-.73,1.19h-5.41c.15-1.76.95-3.12,2.38-4.07,1.43-.96,3.35-1.43,5.74-1.43s4.43.52,5.8,1.56,2.05,2.58,2.05,4.6v5.21c0,.39.08.66.25.8.16.14.43.21.8.21h.36v4.63ZM72.02,121.54c-.83,0-1.48.17-1.96.5-.48.34-.72.79-.72,1.35,0,.46.17.82.51,1.09.34.27.79.41,1.35.41.96,0,1.72-.3,2.3-.9.58-.6.87-1.4.9-2.4v-.07h-2.38Z"/>
    <path class="cls-3" d="M89.4,123.35c.7.55,1.64.83,2.84.83.96,0,1.73-.18,2.31-.55.59-.37.88-.91.88-1.63,0-.46-.16-.81-.49-1.08s-.83-.48-1.52-.67-1.81-.44-3.37-.77c-1.52-.33-2.78-.71-3.78-1.16-1-.45-1.8-1.12-2.41-2.02-.61-.9-.91-2.1-.91-3.6,0-1.35.39-2.56,1.16-3.65.77-1.09,1.84-1.94,3.19-2.56,1.36-.62,2.87-.93,4.55-.93s3.27.32,4.64.95c1.38.63,2.47,1.5,3.26,2.62s1.19,2.36,1.19,3.73h-5.83c-.07-.8-.38-1.45-.95-1.94-.56-.49-1.34-.73-2.31-.73-.85,0-1.54.17-2.07.52s-.8.86-.8,1.53c0,.46.16.81.47,1.06.32.25.81.47,1.48.65s1.77.43,3.29.73c1.54.3,2.82.67,3.85,1.11s1.84,1.09,2.46,1.96.93,2.03.93,3.49-.4,2.69-1.21,3.85-1.92,2.05-3.34,2.71c-1.42.65-3.01.98-4.77.98s-3.48-.34-4.95-1.01c-1.48-.67-2.64-1.6-3.49-2.77-.85-1.17-1.27-2.49-1.27-3.94l5.83.13c.07.89.45,1.61,1.14,2.17Z"/>
  </g>
</svg>