<?xml version="1.0" encoding="UTF-8"?>
<svg id="Layer_1" data-name="Layer 1" xmlns="http://www.w3.org/2000/svg" viewBox="0 0 200 200">
  <defs>
    <style>
      .cls-1 {
        fill: #db0032;
      }

      .cls-1, .cls-2 {
        fill-rule: evenodd;
      }

      .cls-2 {
        fill: #1d252c;
      }
    </style>
  </defs>
  <path class="cls-2" d="M145,21.06H55c-3.14,0-5.69,2.55-5.69,5.69v16.69c0,3.14,2.55,5.69,5.69,5.69h89.99c3.14,0,5.69-2.55,5.69-5.69v-16.69c0-3.14-2.55-5.69-5.69-5.69h0ZM120.42,37.36c-1.25,0-2.26-1.01-2.26-2.26s1.02-2.26,2.26-2.26,2.26,1.01,2.26,2.26-1.02,2.26-2.26,2.26h0ZM135.16,35.1c0-1.25,1-2.26,2.26-2.26s2.26,1.01,2.26,2.26-1.02,2.26-2.26,2.26-2.26-1.01-2.26-2.26h0ZM106.69,35.1c0,1.25-1.02,2.26-2.26,2.26h-41.83c-1.26,0-2.26-1.01-2.26-2.26s1-2.26,2.26-2.26h41.83c1.25,0,2.26,1.01,2.26,2.26Z"/>
  <path class="cls-2" d="M145,53.66H55c-3.14,0-5.69,2.55-5.69,5.69v16.69c0,3.14,2.55,5.69,5.69,5.69h89.99c3.14,0,5.69-2.55,5.69-5.69v-16.69c0-3.14-2.55-5.69-5.69-5.69h0ZM135.16,67.7c0-1.25,1-2.26,2.26-2.26s2.26,1.01,2.26,2.26-1.02,2.26-2.26,2.26-2.26-1.01-2.26-2.26h0ZM118.16,67.7c0-1.25,1.02-2.26,2.26-2.26s2.26,1.01,2.26,2.26-1.02,2.26-2.26,2.26-2.26-1.01-2.26-2.26h0ZM62.59,65.44h41.83c1.25,0,2.26,1.01,2.26,2.26s-1.02,2.26-2.26,2.26h-41.83c-1.26,0-2.26-1.01-2.26-2.26s1-2.26,2.26-2.26Z"/>
  <path class="cls-1" d="M104.14,153.09l-3.92,14.63c-.26,1.01-1.17,1.68-2.17,1.68-.2,0-.38-.03-.58-.08-1.22-.32-1.92-1.56-1.6-2.77l3.92-14.63c.32-1.21,1.55-1.92,2.77-1.6,1.2.32,1.91,1.56,1.58,2.77h0ZM126.88,140.7h-53.76v38.25h53.76v-38.25h0ZM109.66,168.98c-.88-.89-.86-2.32.03-3.2l6.05-5.96-6.05-5.96c-.89-.88-.91-2.31-.03-3.2s2.31-.9,3.2-.02l7.69,7.57c.43.42.68,1,.68,1.61s-.25,1.19-.68,1.61l-7.69,7.57c-.45.43-1.02.65-1.58.65s-1.17-.22-1.62-.67h0ZM90.31,165.78c.89.87.91,2.3.03,3.2-.45.45-1.03.67-1.62.67s-1.14-.22-1.58-.65l-7.69-7.57c-.43-.43-.68-1.01-.68-1.61s.25-1.19.68-1.61l7.69-7.57c.89-.88,2.32-.86,3.2.02s.86,2.32-.03,3.2l-6.05,5.96,6.05,5.96Z"/>
  <path class="cls-1" d="M126.88,178.94v-38.25h-53.76v38.25h53.76ZM98.05,169.39c-.2,0-.38-.03-.58-.08-1.2-.32-1.92-1.56-1.6-2.77l3.92-14.63c.32-1.21,1.55-1.92,2.77-1.6,1.2.32,1.92,1.56,1.58,2.77l-3.91,14.63c-.28,1.01-1.18,1.68-2.18,1.68h0ZM111.28,169.65c-.58,0-1.17-.22-1.62-.67-.88-.89-.86-2.32.03-3.2l6.05-5.96-6.05-5.96c-.89-.88-.91-2.31-.03-3.2.88-.89,2.31-.9,3.2-.02l7.69,7.57c.43.42.68,1,.68,1.61s-.25,1.19-.68,1.61l-7.69,7.57c-.45.43-1.02.65-1.58.65h0ZM90.34,168.98c-.45.45-1.03.67-1.62.67s-1.14-.22-1.58-.65l-7.69-7.57c-.43-.43-.66-1.01-.66-1.61s.23-1.19.66-1.61l7.69-7.57c.89-.88,2.32-.86,3.2.02.88.89.86,2.32-.02,3.2l-6.06,5.96,6.06,5.96c.88.87.89,2.3.02,3.2Z"/>
  <path class="cls-2" d="M42.87,108.9h114.27v17.93c0,1.25,1.02,2.26,2.26,2.26s2.26-1.01,2.26-2.26v-20.19c0-1.25-1.02-2.26-2.26-2.26h-57.13v-18.11h-4.52v18.11h-57.14c-1.25,0-2.26,1.01-2.26,2.26v20.19c0,1.25,1.02,2.26,2.26,2.26s2.26-1.01,2.26-2.26v-17.93Z"/>
</svg>