<?xml version="1.0" encoding="utf-8"?>
<!-- Generator: Adobe Illustrator 28.0.0, SVG Export Plug-In . SVG Version: 6.00 Build 0)  -->
<svg version="1.1" id="Layer_2_00000093153497718572627460000009178944511271595664_"
	 xmlns="http://www.w3.org/2000/svg" xmlns:xlink="http://www.w3.org/1999/xlink" x="0px" y="0px" viewBox="0 0 500 300"
	 style="enable-background:new 0 0 500 300;" xml:space="preserve">
<style type="text/css">
	.st0{fill:#BC0D26;}
</style>
<g id="Capa_1">
	<g>
		<path class="st0" d="M86.4,120.5c0-7.5,7.8-10.5,14.9-10.5c6.3,0,12.8,2.8,16.7,6.3l9.7-13.8c-9.1-6.7-18.2-9.1-28-9.1
			c-16,0-31.8,9.9-31.8,27.2c0,10.9,6,17.5,13.7,21.9c13,7.6,30.9,9.1,30.9,21.5c0,7-5.8,12.1-14,12.1c-8.8,0-17.2-4.5-22.7-10.6
			l-12.1,12.7c9.9,9.1,21.9,14.5,34.9,14.5c17.4,0,32.7-11.8,32.7-29C130.9,131.2,86.4,136,86.4,120.5L86.4,120.5z"/>
		<path class="st0" d="M338.9,135.5v-9h-17.2v65.5h17.9v-42c2.2-4,8.4-9.7,16.3-9.7c3.9,0,7.5,1.1,9.9,2.5l5.5-15.6
			c-4.7-2.5-9.8-3.5-14.7-3.5C346.6,123.8,338.9,130,338.9,135.5L338.9,135.5z"/>
		<path class="st0" d="M176.3,123.8c-12,0-18.2,7.6-18.2,13.1V94.2h-17.9v97.8h17.9v-43.4c2.5-3.5,8.7-8.3,16.3-8.3
			c4.1,0,7.7,1.4,10,3.7c2.5,2.5,4,5.9,4,12.5V192h17.9v-34c0-11.5-2.5-18.2-6.9-23.4C194,127.9,185.6,123.8,176.3,123.8z"/>
		<path class="st0" d="M402.7,123.8c-11.5,0-20.8,4-25.2,6.9l5.8,13.8c4-2.5,11.3-5.5,17.8-5.5c4.8,0,9.9,1.1,12.3,5.9
			c1.1,2,1.4,3.9,1.4,10.5c-2-6.7-8.8-7.5-13.2-7.5c-14.6,0-27.4,8.5-27.4,23.2c0,12.5,10.5,22.3,24.1,22.3c10.3,0,17-6.2,17.2-11.7
			v10.3h17.2v-37.2c0-10.5-2.2-15.7-6-20.5C421,127.4,412.3,123.9,402.7,123.8L402.7,123.8z M414.7,171.4c-3.9,4.7-8.8,6.9-13.8,6.9
			s-9-2.8-9-7.2c0-6.9,8.4-8.7,13.8-8.7c2.9,0,6,0.4,9,2V171.4L414.7,171.4z"/>
		<path class="st0" d="M312.7,99c3.9,0,7.3,1.2,9.1,2l4.5-14.9c-4-1.8-9.8-2.9-13.7-2.9c-15.5,0-28.1,6.6-33.5,24.4
			c-1.5,4.8-2.6,11.6-3.7,19h-20.9v15.2h19c-2,17.2-3.9,35.4-7.3,46.4c-2.3,7.2-6.8,11.6-13.4,12.6c-5.1,0.6-14.3-2.3-14.3-12.7
			v-61.4h-23v15.2h5v47.8c0,9.5,4.8,18.9,15.4,24.4c4,1.8,9.8,2.9,13.7,2.9c15.5,0,28.1-6.6,33.5-24.4c3.3-11,5.1-31.8,7.5-50.7
			h21.2v-15.2h-19c1-5.7,2-10.6,3.3-14.7C298.8,103.6,304.4,99,312.7,99L312.7,99z"/>
		<rect x="220.7" y="94.2" class="st0" width="17.9" height="17.9"/>
		<path class="st0" d="M49.5,161.4v18.8L7.7,148.6v-11l41.8-31.5v18.8l-24.2,18.3L49.5,161.4z"/>
		<path class="st0" d="M450.5,124.8v-18.8l41.8,31.5v11l-41.8,31.5v-18.8l24.2-18.3C474.7,143.1,450.5,124.8,450.5,124.8z"/>
	</g>
</g>
</svg>
