<?xml version="1.0" encoding="UTF-8"?>
<svg id="Layer_1" data-name="Layer 1" xmlns="http://www.w3.org/2000/svg" version="1.1" viewBox="0 0 500 200">
  <defs>
    <style>
      .cls-1 {
        fill: #febf2c;
      }

      .cls-1, .cls-2, .cls-3 {
        stroke-width: 0px;
      }

      .cls-2 {
        fill: #2e3192;
      }

      .cls-3 {
        fill: #fff;
      }
    </style>
  </defs>
  <g>
    <g>
      <path class="cls-2" d="M424.42,102.17c.48,3.84-2.25,7.34-6.08,7.81-3.84.49-7.35-2.23-7.84-6.07-.47-3.85,2.24-7.35,6.09-7.83,3.83-.48,7.35,2.25,7.83,6.09Z"/>
      <path class="cls-1" d="M417.45,110.87c-3.94,0-7.28-2.94-7.76-6.86-.53-4.29,2.52-8.21,6.79-8.74,4.35-.53,8.23,2.57,8.75,6.8.26,2.07-.31,4.12-1.59,5.78-1.27,1.64-3.13,2.69-5.2,2.96-.33.04-.67.06-.99.06ZM417.46,96.85c-.26,0-.52.02-.77.05-3.38.42-5.79,3.52-5.37,6.91.42,3.35,3.54,5.77,6.91,5.37,1.64-.2,3.1-1.04,4.11-2.34,1.02-1.3,1.46-2.92,1.26-4.57-.38-3.09-3.03-5.42-6.14-5.42Z"/>
      <path class="cls-3" d="M414.58,107.2l-.93-7.47,3.16-.39c.81-.11,1.38-.11,1.76-.02.37.09.7.3.95.6.28.32.42.69.47,1.14.06.55-.03,1.04-.33,1.45-.28.4-.73.69-1.37.86.34.16.64.33.88.54.24.19.57.55,1,1.09l1.09,1.34-1.8.22-1.28-1.48c-.45-.52-.78-.85-.94-.99s-.33-.23-.48-.26c-.17-.02-.42-.03-.77.02l-.3.04.38,3.1-1.49.21ZM415.55,102.7l1.11-.15c.72-.09,1.16-.18,1.35-.25.16-.08.29-.21.37-.37.08-.17.11-.35.08-.58-.03-.25-.12-.45-.28-.58-.15-.13-.35-.22-.61-.24-.11.01-.48.06-1.09.13l-1.17.15.24,1.89Z"/>
    </g>
    <g>
      <path class="cls-2" d="M311.48,115.38c9.33,7.99,21.65,11.77,35.48,9.93h.13c14.49-2.08,25.87-9.38,32.55-20.39,1.48.08,2.65.15,4.64.05,2.33-.1,7.75-.39,13.16-2.74,8.62-3.73,13.87-11.21,14.42-20.5.08-1.62.03-3.19-.18-4.73-.59-4.5-2.46-8.6-5.52-12-.36-.41-.74-.78-1.12-1.16,0-.06,1.1-20,1.1-20l-13.16-1.76c-1.51-.19-2.71-.23-3.58-.25h-.38s-.25-.02-.25-.02h.13c-5.59-.26-11.25.92-15.68,3.28-9.39-10.33-23.28-15.3-39.2-13.18h-.01c-12.97,1.74-23.51,7.47-30.45,16.56-1.29,1.68-3.53,4.65-3.53,4.65l-158.28,20.97c-.43-3.11-3.93-28.5-3.93-28.5,0,0-6.86-.39-12.29-.03-2.06.15-3.11.16-4.65.38h-.07c-28.1,3.95-43.89,24.26-40.23,51.76v.02c2.17,16.29,9.81,25.21,15.84,29.82,4.5,3.44,9.78,5.83,15.66,7.12.51,3.78,3.22,24.01,3.22,24.01,0,0,49.64-6.64,51.07-6.82,24.98,17.1,43.34,18.18,46.26,18.25,6.95.25,12.41-.49,17.17-2.31,7.4-2.84,12.77-8.28,15.54-15.73l.03-.1.04-.09c3.67-10.41.77-20.64-6.92-26.8l72.99-9.69Z"/>
      <path class="cls-1" d="M215.2,172.38h0c-.86,0-1.75,0-2.65-.05-3.42-.06-21.76-1.26-46.74-18.14-6.73.89-50.21,6.71-50.21,6.71-.59.07-1.19-.09-1.66-.44-.47-.37-.78-.91-.86-1.48l-3.01-22.49c-5.63-1.44-10.66-3.84-15-7.17-6.37-4.87-14.44-14.24-16.7-31.3-3.86-28.87,12.68-50.18,42.12-54.29,1.26-.18,2.17-.23,3.4-.31l1.48-.09c5.57-.38,12.59.02,12.59.02,1.07.06,1.95.87,2.09,1.93,0,0,2.67,19.26,3.62,26.28l155.11-20.54,2.97-3.91c7.31-9.56,18.32-15.58,31.84-17.4.04,0,.08-.01.11-.01,15.58-2.08,30.04,2.52,39.99,12.65,4.43-1.99,9.8-2.99,15.03-2.78h.15v.02h.12c.08.01.17.03.25.05v-.03c1.14.03,2.42.06,4,.26l13.18,1.76c1.16.16,2,1.18,1.95,2.35-.68,12.47-.95,17.19-1.05,19.01.17.17.33.35.49.53,3.37,3.76,5.41,8.19,6.08,13.21.22,1.6.29,3.34.19,5.14-.58,10.18-6.33,18.35-15.76,22.44-5.82,2.53-11.51,2.81-13.94,2.93-1.45.08-2.51.06-3.55.02-7.17,11.04-18.99,18.22-33.43,20.28-2.52.33-4.91.5-7.24.5-11.02,0-21.15-3.55-29.37-10.28l-67.42,8.96c5.88,6.89,7.5,16.43,4.16,25.91-3.08,8.31-8.91,14.2-16.92,17.28-4.47,1.69-9.37,2.47-15.41,2.47ZM166.37,149.61c.45,0,.89.14,1.27.39,24.8,16.97,43.04,17.8,45.04,17.84.89.04,1.73.05,2.53.05,5.48,0,9.86-.7,13.8-2.21,6.77-2.6,11.69-7.58,14.23-14.4,3.34-9.47.96-18.77-6.14-24.46-.7-.56-1-1.5-.76-2.36.24-.87.98-1.51,1.87-1.62l72.99-9.7c.63-.08,1.27.1,1.75.51,9.1,7.78,21,11.13,33.74,9.42,13.68-1.95,24.67-8.81,31.04-19.32.43-.71,1.22-1.13,2.04-1.08,1.43.08,2.53.13,4.41.04,2.19-.1,7.3-.36,12.38-2.55,7.81-3.38,12.58-10.14,13.06-18.56.08-1.51.02-2.96-.15-4.3-.54-4.11-2.22-7.74-4.97-10.79-.33-.37-.68-.73-1.02-1.07-.51-.49-.75-1.21-.64-1.91.01-.31.69-12.71.96-17.73l-11.09-1.49c-1.4-.18-2.53-.21-3.35-.23-.02,0-.43-.01-.44-.02h0s-.07,0-.11,0c-5.2-.25-10.45.84-14.52,3-.91.48-2.02.29-2.72-.47-9.06-9.98-22.27-14.44-37.14-12.48-.04.01-.08.02-.11.02-12.37,1.65-22.38,7.08-28.97,15.69l-3.52,4.64c-.36.47-.9.79-1.5.87l-158.28,20.98c-1.21.15-2.35-.7-2.52-1.93-.36-2.58-2.86-20.72-3.67-26.63-2.36-.08-6.59-.18-10.18.06l-1.51.1c-1.11.07-1.93.12-2.99.25-26.82,3.76-41.86,23.08-38.37,49.26,2.06,15.53,9.29,23.98,14.98,28.33,4.21,3.23,9.18,5.48,14.78,6.71.92.2,1.62.96,1.74,1.9l2.92,21.8c9.67-1.29,47.62-6.38,48.85-6.53.09-.01.19-.02.29-.02Z"/>
      <g>
        <path class="cls-3" d="M378.04,58.4c-2.18,1.84-3.36,4.4-3.54,7.59-.06.77-.03,1.49.05,2.16.58,4.31,3.95,6.42,7.6,8.04l2.71,1.21c2.01.83,3.82,1.7,4.02,3.24.01.14.03.28.01.43-.18,2.36-3.31,3.37-5.35,3.3h-.06c-.64.02-1.08,0-1.76-.01l-1.64-.06-.03.68-.44,6.3.71.03c1.37.07,2,.11,3.28.06,3.48-.2,14.07-.73,14.61-10.38.35-6.07-3.7-8.71-7.71-10.49h-.03s-.03-.02-.03-.02c-.9-.32-1.8-.72-2.64-1.09l-.02-.02h-.04c-2.05-.78-4.03-1.64-3.95-3.22.08-1.24.53-2.24,1.35-2.94.84-.74,2.07-1.14,3.27-1.1.75.03,1.48.14,2.22.22l.8.11.37-6.71-.64-.08c-.78-.11-1.41-.11-2.13-.13,0,0-.35,0-.38,0-.04,0-.18-.02-.18-.02h-.25c-4.1-.24-7.73.8-10.18,2.91Z"/>
        <path class="cls-3" d="M372.27,84.89c-.08.72-.21,1.42-.33,2.11-2.29,13.06-11.41,22.61-26.76,24.79-20.65,2.76-33.36-9.62-35.99-29.29-2.6-19.52,6.63-34.38,27-37.1,18.32-2.44,30.89,7.45,34.98,23.87.13.47.23.92.33,1.39,0-.01,1.35,8.03.77,14.23ZM337.66,56.41c-12.01,1.6-15.58,13.15-14.11,24.16,1.51,11.31,7.72,21.7,20.14,20.04,5.86-.77,9.71-3.84,11.99-7.98-2.18,1.71-4.88,2.8-7.8,3.17-7.4.99-12.92-3.12-13.99-11.19-1.43-10.6,7.75-17.36,16.98-18.6,1.4-.18,2.65-.2,3.93-.22-3.24-6.25-8.77-10.48-17-9.39h-.14ZM344.37,79.65c-5.31.7-8.06,3.36-7.27,7.8.44,2.49,4.99,6.58,10.31,6,4.88-.66,8.5-2.41,10.03-6.73.55-1.56.58-3.2.64-4.91-4.75-1.49-9.6-2.69-13.22-2.21l-.49.05Z"/>
        <path class="cls-3" d="M201.62,80.48l2.63,19.76c1.47,11.07-4.26,16.49-14.71,17.88-10.55,1.4-17.49-2.3-18.96-13.39l-2.66-19.79,8.85-1.16,2.31,17.36c.9,6.79,3.61,10.69,9.4,9.84,5.9-.79,7.49-5.28,6.57-12.07l-2.22-17.28,8.79-1.15Z"/>
        <path class="cls-3" d="M210.79,114.98l-2.63-19.77c-1.47-11.08,4.26-16.49,14.72-17.86,10.53-1.42,17.47,2.31,18.96,13.38l2.64,19.78-8.86,1.17-2.31-17.35c-.9-6.79-3.61-10.7-9.39-9.84-5.9.78-7.49,5.28-6.57,12.07l2.22,17.26-8.78,1.16Z"/>
        <path class="cls-3" d="M269.62,106.99c-.6.13-1.22.25-1.82.32-11,1.46-20.4-2.88-21.94-14.44-1.56-11.65,5.66-19.27,17.23-20.88.57-.07,1.19-.13,1.85-.15l.95,7.01c-.67.09-1.31.18-2.02.27-7.4.98-10.07,6.77-9.36,12.13.89,6.68,5.13,9.72,12.19,8.94.64-.07,1.35-.16,2-.27l.92,7.07Z"/>
        <path class="cls-3" d="M302.19,66.59l-8.88,1.2,1.47,10.4c-1.61-.33-3.11-.41-4.94-.17-3.98.53-7.83,2.61-9.74,5.92l-1.89-14.15-8.77,1.17,4.69,35.17,8.7-1.18-1.16-9.23-.7-5.25c.37-2.04,2.21-3.3,5.03-3.69,2.93-.3,7.28,1.06,10.09,1.9l1.91,14.24,8.87-1.19"/>
        <path class="cls-3" d="M225.87,135.75c4.17,1.55,5.87,6.16,5.17,8.15-1.09,3.11-6.7,4.33-9.65,4.43.1,0-26.49,2.94-58.5-32.01-.27-.32-3.4-2.8-5.61-3.68h.12c5.78-2.07,8.79-7.47,8-13.3-1.88-14.99-15.99-12.53-26.39-11.15l-19.21,2.68.35,2.74c5.27-.7,6.56,1.1,7.34,7.05l.02.09,1.41,10.55c-.24.04-.48.07-.72.11-12.12,1.62-19.18-6.34-20.75-18.07-1.72-11.85,4.53-21.84,16.38-23.42,1.17-.16,2.34-.3,3.54-.33l-1.43-10.39c-1.14.04-2.23.13-3.23.28-20.33,2.83-31.31,15.96-28.59,36.44,2.71,20.33,16.3,28.35,35.58,25.77.21-.03.4-.06.6-.09l1.78,13.39c.53,3.99-.51,4.95-5.42,5.59l.37,2.75,24.82-3.32-.36-2.73c-5.03.67-6.4.04-6.95-4.09l-1.77-13.36,2.86-.39c2.85-.38,3.83-.05,5.06,1.3,35.01,35.62,62.14,35.7,62.25,35.71,8.81.35,16.62-1.06,19.62-9.13,2.2-6.24-.23-11.38-5.86-13.43M143.98,109.88l-2.86.38-1.57-11.81,2.97-.39c5.26-.7,10.41-1.32,11.17,4.28.68,5.95-4.56,6.85-9.71,7.54Z"/>
      </g>
      <g>
        <path class="cls-1" d="M382.41,91.86c-.63,0-1.22-.04-2.11-.08l-1.21-.06.54-7.92,2.1.07c.67.03,1.09.05,1.73.01h.28c1.84.01,4.51-.88,4.66-2.85.02-.11.01-.22,0-.32-.17-1.3-1.85-2.1-3.73-2.88l-2.72-1.2c-3.55-1.57-7.26-3.8-7.88-8.42-.1-.69-.11-1.45-.06-2.24.19-3.34,1.43-6.01,3.7-7.93,2.53-2.17,6.29-3.29,10.52-3.07l.82.04c.77.02,1.39.04,2.17.14l1.08.15-.41,7.67-1.31-.16c-.75-.1-1.48-.2-2.18-.23h-.13c-1.05,0-2.09.36-2.81.97-.72.63-1.12,1.5-1.17,2.61-.07,1.24,1.76,2.03,3.63,2.73l.15.08c.77.33,1.67.73,2.56,1.05,4.24,1.86,8.43,4.61,8.08,10.98-.56,10.07-11.46,10.65-15.05,10.83-.5.02-.89.03-1.25.03ZM380.11,90.8h.24c1.35.09,1.97.12,3.23.07,3.39-.18,13.64-.72,14.15-9.93.33-5.78-3.57-8.3-7.42-10.01-.94-.34-1.85-.74-2.71-1.12h-.03c-1.74-.67-4.36-1.66-4.25-3.7.08-1.38.59-2.49,1.52-3.29.87-.77,2.17-1.22,3.44-1.22h.16c.76.04,1.51.14,2.28.24l.28.04.31-5.75-.2-.02c-.74-.11-1.33-.12-2.01-.13l-.88-.05c-4.02-.2-7.51.83-9.86,2.84-2.07,1.75-3.21,4.2-3.37,7.26-.06.74-.04,1.44.05,2.06.55,4.14,3.84,6.12,7.32,7.67l2.71,1.2c2.13.87,4.06,1.81,4.3,3.62.02.16.04.34.02.56-.22,2.7-3.57,3.72-5.62,3.72h-.22c-.72,0-1.14,0-1.83-.03l-1.17-.05-.44,6.02Z"/>
        <path class="cls-1" d="M339.6,112.65c-16.84,0-28.38-11.26-30.89-30.09-2.75-20.61,7.76-35.03,27.41-37.64,1.86-.25,3.69-.37,5.45-.37,14.99,0,26.23,9.19,30.06,24.6.13.46.24.92.33,1.41.02.1,1.37,8.2.78,14.38-.08.74-.2,1.45-.33,2.15-2.44,13.9-12.34,23.07-27.18,25.18-1.92.24-3.82.38-5.63.38ZM341.57,45.5c-1.73,0-3.51.13-5.32.37-19.36,2.58-29.3,16.25-26.6,36.56,2.44,18.32,13.63,29.25,29.94,29.25,1.77,0,3.62-.12,5.5-.38,14.39-2.04,24-10.93,26.37-24.4.13-.68.24-1.37.31-2.07.57-6.05-.75-14.03-.76-14.11-.1-.44-.21-.9-.33-1.35-3.75-15.17-14.37-23.87-29.11-23.87ZM341.14,101.27h0c-9.6,0-16.35-7.71-18.06-20.63-.8-5.96-.08-11.62,2.04-15.89,2.48-5.02,6.78-8.06,12.47-8.81h.15c7.54-1.04,13.71,2.35,17.49,9.61l.36.7h-.78c-1.35.03-2.54.07-3.88.24-5.67.77-10.82,3.54-13.81,7.45-2.32,3.05-3.27,6.71-2.75,10.6.9,6.85,5.16,10.93,11.39,10.93.67,0,1.36-.05,2.06-.14,2.86-.37,5.48-1.44,7.57-3.08l.72.62c-2.57,4.65-6.83,7.5-12.35,8.23-.89.12-1.77.17-2.62.17ZM340.34,56.71c-.8,0-1.64.06-2.49.17h-.15c-5.34.72-9.4,3.59-11.73,8.3-2.03,4.1-2.73,9.55-1.96,15.33.62,4.64,3.68,19.8,17.12,19.8h0c.81,0,1.64-.06,2.48-.17,4.46-.59,7.97-2.56,10.41-5.84-1.82,1.02-3.89,1.7-6.1,1.98-.74.1-1.47.15-2.18.15-6.75,0-11.36-4.41-12.34-11.78-.56-4.14.46-8.05,2.95-11.31,3.13-4.1,8.53-7.03,14.44-7.81,1.14-.15,2.19-.19,3.21-.23-2.29-4.07-6.46-8.59-13.66-8.59ZM346.4,93.99h0c-5,0-9.3-3.86-9.76-6.47-.37-2.01-.04-3.73.96-5.11,1.27-1.73,3.52-2.82,6.71-3.23l.49-.06c.54-.08,1.15-.12,1.78-.12,3.7,0,8.16,1.25,11.63,2.35l.35.13-.02.52c-.05,1.7-.1,3.32-.66,4.89-1.44,4.06-4.75,6.29-10.42,7.05-.36.03-.72.05-1.06.05ZM346.59,79.97c-.59,0-1.15.03-1.67.1l-.49.05c-2.91.39-4.95,1.36-6.05,2.86-.84,1.15-1.12,2.62-.8,4.37.34,1.94,4.04,5.67,8.82,5.67h0c.31,0,.64-.01.96-.05,5.34-.71,8.31-2.69,9.63-6.42.48-1.38.55-2.85.59-4.4-3.35-1.03-7.54-2.18-10.99-2.18Z"/>
        <path class="cls-1" d="M185.51,118.88c-8.98,0-14.17-4.74-15.42-14.1l-2.72-20.26,9.81-1.29,2.38,17.84c.85,6.42,3.28,9.54,7.41,9.54h0c.46,0,.94-.04,1.44-.11,2.21-.29,3.79-1.1,4.85-2.49,1.46-1.9,1.89-4.87,1.32-9.04l-2.29-17.75,9.73-1.29,2.7,20.24c.73,5.5-.28,9.86-3,12.95-2.55,2.89-6.63,4.73-12.13,5.46-1.43.2-2.8.3-4.08.3ZM168.47,85.34l2.59,19.31c1.35,10.21,7.4,14.45,18.41,12.98,5.27-.7,9.15-2.43,11.54-5.14,2.53-2.89,3.46-6.99,2.77-12.2l-2.57-19.29-7.83,1.03,2.16,16.81c.61,4.43.11,7.62-1.51,9.74-1.2,1.57-3.04,2.53-5.48,2.85-.54.08-1.07.13-1.58.13h0c-4.7,0-7.43-3.4-8.36-10.38l-2.25-16.88-7.89,1.04Z"/>
        <path class="cls-1" d="M210.37,115.53l-2.7-20.25c-.74-5.5.28-9.86,3-12.95,2.54-2.9,6.62-4.73,12.13-5.46,11.51-1.54,18.08,3.12,19.52,13.8l2.7,20.26-9.8,1.29-2.39-17.83c-.94-7.13-3.81-10.18-8.84-9.43-2.2.3-3.79,1.1-4.85,2.49-1.45,1.9-1.88,4.86-1.32,9.04l2.28,17.73-9.73,1.31ZM226.89,77.55c-1.23,0-2.57.09-3.96.28-5.27.7-9.15,2.42-11.53,5.14-2.54,2.89-3.46,6.98-2.77,12.2l2.58,19.28,7.81-1.04-2.15-16.79c-.6-4.45-.1-7.64,1.51-9.75,1.21-1.58,3.05-2.54,5.49-2.85.54-.08,1.08-.13,1.58-.13,4.69,0,7.43,3.4,8.35,10.37l2.26,16.88,7.9-1.04-2.58-19.29c-1.22-8.92-5.95-13.26-14.49-13.26Z"/>
        <path class="cls-1" d="M263.8,108.07c-10.42,0-17.13-5.52-18.41-15.15-1.53-11.46,5.23-19.67,17.64-21.41.64-.09,1.28-.14,1.89-.16h.44s1.09,7.89,1.09,7.89l-.47.07c-.68.1-1.32.19-2.03.27-3.27.44-5.82,1.89-7.38,4.22-1.37,2.04-1.93,4.66-1.57,7.38.85,6.39,4.83,9.28,11.67,8.53.63-.08,1.33-.17,1.97-.27l.49-.09,1.04,8.01-.44.1c-.61.13-1.24.24-1.85.32-1.4.19-2.77.29-4.08.29ZM264.53,72.34c-.46.02-.92.07-1.37.13-11.82,1.66-18.27,9.45-16.82,20.33,1.21,9.1,7.58,14.31,17.46,14.31,1.27,0,2.6-.08,3.94-.27.44-.06.9-.13,1.35-.23l-.78-6.14c-.52.08-1.05.14-1.53.2-7.36.79-11.81-2.47-12.73-9.35-.39-2.96.22-5.82,1.73-8.05,1.71-2.56,4.5-4.15,8.06-4.64.53-.06,1.02-.12,1.53-.19l-.84-6.1Z"/>
        <path class="cls-1" d="M273.71,106.67l-4.81-36.13,9.72-1.3,1.79,13.36c2.04-2.7,5.45-4.55,9.36-5.07,1.6-.21,2.94-.19,4.44.05l-1.45-10.22,9.83-1.32,4.81,36.12-9.82,1.31-1.93-14.4-.07-.03c-2.82-.84-6.8-2.06-9.52-1.77-2.61.35-4.24,1.5-4.6,3.22l.69,5.17,1.22,9.71-9.66,1.3ZM269.98,71.38l4.56,34.22,7.75-1.06-1.8-14.08v-.08c.42-2.21,2.36-3.66,5.45-4.08.31-.03.62-.04.94-.04,2.81,0,6.37,1.06,8.97,1.84l.67.2,1.88,14.07,7.92-1.05-4.55-34.2-7.93,1.05,1.5,10.62-.67-.15c-1.67-.34-3.06-.39-4.78-.16-4.08.53-7.67,2.71-9.39,5.69l-.71,1.22-2.01-15.09-7.8,1.08Z"/>
        <path class="cls-1" d="M215.23,156.98c-.76,0-1.54-.02-2.32-.05-1.14-.02-28.22-.88-62.58-35.83-1.08-1.19-1.75-1.55-4.65-1.17l-2.37.32,1.7,12.89c.41,3.06,1.2,3.9,3.67,3.9.7,0,1.58-.08,2.73-.23l.48-.06.5,3.69-25.78,3.45-.5-3.71.48-.07c2.56-.33,3.81-.73,4.48-1.4.65-.66.8-1.68.54-3.66l-1.72-12.9s-.08.01-.12.02c-2.34.31-4.62.46-6.78.46-16.63,0-27.05-9.46-29.34-26.66-2.68-20.24,8.16-34.07,29.01-36.98,1.04-.14,2.14-.24,3.28-.28l.44-.02,1.56,11.35h-.53c-1.13.05-2.23.19-3.38.33-5.35.73-9.65,3.12-12.54,6.95-3.17,4.19-4.43,9.86-3.54,15.94,1.67,12.51,9.18,19.12,20.21,17.66.09,0,.16-.01.24-.02l-1.34-10.08c-.72-5.41-1.78-6.86-4.98-6.86-.54,0-1.14.04-1.84.13l-.48.07-.48-3.7,20.77-2.89c3.16-.43,6.76-.92,10.15-.92,6.06,0,14.27,1.31,15.69,12.63.79,5.83-2.14,11.1-7.35,13.41,2.09,1.1,4.43,2.97,4.73,3.3,27.12,29.61,50.17,31.92,56.59,31.92.44,0,.79-.02,1.05-.04h0s.5-.03.5-.03c3.05-.11,8.24-1.32,9.21-4.1.62-1.78-.97-6.09-4.88-7.54l-.48-.19,1.2-2.74.43.16c5.97,2.17,8.39,7.69,6.15,14.04-3.2,8.53-11.69,9.51-17.8,9.51ZM147.46,118.82c1.75,0,2.64.59,3.56,1.61,34.07,34.65,60.77,35.51,61.89,35.53.79.03,1.55.05,2.31.05,9.39,0,14.59-2.73,16.86-8.86,2.03-5.73.05-10.54-5.15-12.63l-.43.97c3.98,1.76,5.78,6.31,4.99,8.57-1.27,3.63-7.64,4.67-10.05,4.75-.31.07-.81.07-1.61.07-6.51,0-29.91-2.32-57.3-32.23-.26-.29-3.33-2.73-5.44-3.56l.12-.93c5.38-1.9,8.47-7.02,7.7-12.75-1.01-8.05-5.69-11.8-14.74-11.8-3.33,0-6.89.49-10.02.91l-1.09.15-18.74,2.61.23,1.8c.55-.06,1.04-.09,1.49-.09,4.15,0,5.25,2.56,5.9,7.61l1.49,11.11-.46.07c-.27.05-.51.08-.76.11-1.04.14-2.08.21-3.09.21-9.81,0-16.61-6.98-18.18-18.7-.92-6.33.41-12.24,3.73-16.65,3.07-4.04,7.59-6.56,13.09-7.31l.12-.02c.96-.11,1.94-.25,2.94-.31l-1.3-9.42c-.96.04-1.88.13-2.75.25-20.56,2.89-30.84,15.97-28.19,35.9,2.25,16.9,12.07,25.84,28.39,25.84,2.12,0,4.36-.15,6.65-.47l1.07-.15,1.85,13.85c.22,1.67.28,3.37-.81,4.46-.89.91-2.47,1.32-4.56,1.62l.24,1.8,23.88-3.19-.24-1.78c-.97.11-1.74.17-2.39.17-2.99,0-4.15-1.19-4.63-4.73l-1.83-13.84,3.32-.44c.81-.11,1.42-.16,1.94-.16ZM140.71,110.81l-1.7-12.78,3.45-.45c1.59-.22,3.39-.46,5.02-.46,2.58,0,6.07.53,6.69,5.14.75,6.63-5.53,7.48-10.13,8.09l-3.33.46ZM140.09,98.86l1.44,10.86,2.38-.3c5.63-.76,9.9-1.76,9.3-7.03-.4-3-2.12-4.29-5.73-4.29-1.56,0-3.33.23-4.89.44l-2.5.32Z"/>
      </g>
    </g>
  </g>
  <path class="cls-1" d="M215.2,172.38h0c-.86,0-1.75,0-2.65-.05-3.42-.06-21.76-1.26-46.74-18.14-6.73.89-50.21,6.71-50.21,6.71-.59.07-1.19-.09-1.66-.44-.47-.37-.78-.91-.86-1.48l-3.01-22.49c-5.63-1.44-10.66-3.84-15-7.17-6.37-4.87-14.44-14.24-16.7-31.3-3.86-28.87,12.68-50.18,42.12-54.29,1.26-.18,2.17-.23,3.4-.31l1.48-.09c5.57-.38,12.59.02,12.59.02,1.07.06,1.95.87,2.09,1.93,0,0,2.67,19.26,3.62,26.28l155.11-20.54,2.97-3.91c7.31-9.56,18.32-15.58,31.84-17.4.04,0,.08-.01.11-.01,15.58-2.08,30.04,2.52,39.99,12.65,4.43-1.99,9.8-2.99,15.03-2.78h.15v.02h.12c.08.01.17.03.25.05v-.03c1.14.03,2.42.06,4,.26l13.18,1.76c1.16.16,2,1.18,1.95,2.35-.68,12.47-.95,17.19-1.05,19.01.17.17.33.35.49.53,3.37,3.76,5.41,8.19,6.08,13.21.22,1.6.29,3.34.19,5.14-.58,10.18-6.33,18.35-15.76,22.44-5.82,2.53-11.51,2.81-13.94,2.93-1.45.08-2.51.06-3.55.02-7.17,11.04-18.99,18.22-33.43,20.28-2.52.33-4.91.5-7.24.5-11.02,0-21.15-3.55-29.37-10.28l-67.42,8.96c5.88,6.89,7.5,16.43,4.16,25.91-3.08,8.31-8.91,14.2-16.92,17.28-4.47,1.69-9.37,2.47-15.41,2.47ZM166.37,149.61c.45,0,.89.14,1.27.39,24.8,16.97,43.04,17.8,45.04,17.84.89.04,1.73.05,2.53.05,5.48,0,9.86-.7,13.8-2.21,6.77-2.6,11.69-7.58,14.23-14.4,3.34-9.47.96-18.77-6.14-24.46-.7-.56-1-1.5-.76-2.36.24-.87.98-1.51,1.87-1.62l72.99-9.7c.63-.08,1.27.1,1.75.51,9.1,7.78,21,11.13,33.74,9.42,13.68-1.95,24.67-8.81,31.04-19.32.43-.71,1.22-1.13,2.04-1.08,1.43.08,2.53.13,4.41.04,2.19-.1,7.3-.36,12.38-2.55,7.81-3.38,12.58-10.14,13.06-18.56.08-1.51.02-2.96-.15-4.3-.54-4.11-2.22-7.74-4.97-10.79-.33-.37-.68-.73-1.02-1.07-.51-.49-.75-1.21-.64-1.91.01-.31.69-12.71.96-17.73l-11.09-1.49c-1.4-.18-2.53-.21-3.35-.23-.02,0-.43-.01-.44-.02h0s-.07,0-.11,0c-5.2-.25-10.45.84-14.52,3-.91.48-2.02.29-2.72-.47-9.06-9.98-22.27-14.44-37.14-12.48-.04.01-.08.02-.11.02-12.37,1.65-22.38,7.08-28.97,15.69l-3.52,4.64c-.36.47-.9.79-1.5.87l-158.28,20.98c-1.21.15-2.35-.7-2.52-1.93-.36-2.58-2.86-20.72-3.67-26.63-2.36-.08-6.59-.18-10.18.06l-1.51.1c-1.11.07-1.93.12-2.99.25-26.82,3.76-41.86,23.08-38.37,49.26,2.06,15.53,9.29,23.98,14.98,28.33,4.21,3.23,9.18,5.48,14.78,6.71.92.2,1.62.96,1.74,1.9l2.92,21.8c9.67-1.29,47.62-6.38,48.85-6.53.09-.01.19-.02.29-.02Z"/>
</svg>