<?xml version="1.0" encoding="UTF-8"?>
<svg id="Layer_1" data-name="Layer 1" xmlns="http://www.w3.org/2000/svg" viewBox="0 0 500 300">
  <defs>
    <style>
      .cls-1 {
        fill: #1b82c5;
        stroke-width: 0px;
      }
    </style>
  </defs>
  <g>
    <polygon class="cls-1" points="144.34 210.67 115.66 210.67 217.11 26.7 317.87 210.67 289.18 210.67 250.35 139.44 216.76 198.91 192.27 152.92 207.32 128.02 216.76 148.08 236.36 111.77 216.76 77.88 144.34 210.67"/>
    <polygon class="cls-1" points="275.89 89.99 262.24 64.05 283.59 26.7 384.34 210.67 356.01 210.67 283.59 77.54 275.89 89.99"/>
  </g>
  <g>
    <path class="cls-1" d="m87.36,229.6c-2.55,2.13-4.08,4.71-4.59,7.73l-.56,3.13-.06.32-.67,3.63-3.09,17.96c-.05.32-.08.64-.1.98-.02.33-.03.66-.03.98,0,2.51.86,4.65,2.57,6.41,1.69,1.71,3.89,2.57,6.6,2.57h32.42l2.54-14.05h-29.26l2.61-14.84.58-3.95h29.38l2.54-14.05h-32.42c-3.06,0-5.87,1.07-8.45,3.19Z"/>
    <polygon class="cls-1" points="173.13 240.46 175.67 226.41 132.16 226.41 129.65 240.46 144.25 240.46 138.41 273.3 152.66 273.3 158.5 240.46 173.13 240.46"/>
    <polygon class="cls-1" points="177.09 240.46 191.3 240.46 193.84 226.41 179.59 226.41 177.09 240.46"/>
    <polygon class="cls-1" points="171.32 273.3 185.46 273.3 190.61 244.37 176.36 244.37 171.32 273.3"/>
    <polygon class="cls-1" points="240.89 226.41 226.65 226.41 220.57 240.46 218.38 245.57 218.38 245.57 212.5 259.21 211.32 244.37 211.08 240.46 210.04 226.41 195.82 226.41 196.83 240.46 197.14 244.37 199.3 273.3 220.63 273.3 233.04 244.37 234.78 240.46 240.89 226.41"/>
    <polygon class="cls-1" points="240.34 240.46 239.62 244.37 239.61 244.37 234.57 273.3 274.01 273.3 276.55 259.25 251.25 259.25 251.95 255.33 277.24 255.33 279.16 244.37 253.68 244.37 254.3 240.46 279.85 240.46 282.39 226.41 242.84 226.41 240.34 240.46"/>
    <polygon class="cls-1" points="383.62 226.41 369.37 226.41 366.87 240.46 381.08 240.46 383.62 226.41"/>
    <polygon class="cls-1" points="366.14 244.37 361.1 273.3 375.24 273.3 380.39 244.37 366.14 244.37"/>
    <polygon class="cls-1" points="398.56 244.41 399.26 240.46 401.79 226.41 387.55 226.41 385.04 240.46 384.31 244.41 379.28 273.3 418.72 273.3 421.25 259.25 395.96 259.25 398.56 244.41"/>
    <polygon class="cls-1" points="468.07 240.46 470.6 226.41 431.05 226.41 428.55 240.46 427.82 244.37 422.79 273.3 462.23 273.3 464.76 259.25 439.47 259.25 439.94 256.57 439.94 256.57 439.94 256.57 440.16 255.33 465.46 255.33 467.37 244.37 442.03 244.37 442.7 240.46 468.07 240.46"/>
    <path class="cls-1" d="m71.93,240.46l-1.04-14.05h-21.34l-1.26,2.91h0s-4.82,11.14-4.82,11.14h.03l-1.69,3.92h-.01l-3.38,7.88h0s-9.03,21.05-9.03,21.05h14.14l2.68-6.25h13.45l.49,6.25h14.21l-2.12-28.92-.31-3.92Zm-20.57,14.87l4.69-10.96h-.09l1.6-3.92h.17l.28,3.92h-.01l.87,10.96h-7.51Z"/>
    <polygon class="cls-1" points="362.91 240.46 365.44 226.41 351.2 226.41 340.46 240.46 337.38 244.37 336.93 244.37 329.44 229.33 328.26 226.41 314.01 226.41 311.77 239.02 310.8 244.37 310.78 244.37 305.74 273.3 319.88 273.3 323.36 253.68 331.35 273.3 346.3 253.68 342.82 273.3 357.03 273.3 362.18 244.37 362.91 240.46"/>
  </g>
</svg>