<?xml version="1.0" encoding="UTF-8"?>
<svg id="Layer_1" data-name="Layer 1" xmlns="http://www.w3.org/2000/svg" version="1.1" viewBox="0 0 500 200">
  <defs>
    <style>
      .cls-1 {
        fill: #7ca7ad;
      }

      .cls-1, .cls-2, .cls-3 {
        stroke-width: 0px;
      }

      .cls-2 {
        fill-rule: evenodd;
      }

      .cls-2, .cls-3 {
        fill: #ff4d00;
      }
    </style>
  </defs>
  <g id="Group_41" data-name="Group 41">
    <g id="Group_39" data-name="Group 39">
      <g id="Group_34" data-name="Group 34">
        <path id="Path_26" data-name="Path 26" class="cls-3" d="M425.68,144.06c-16.46,0-30.18-13.41-30.18-30.18v-59.14h7.32v39.63c.3-.61.91-.91,1.52-1.52,11.89-11.58,30.79-11.58,42.37,0,11.58,11.58,11.58,30.79,0,42.68-5.49,5.49-13.11,8.84-21.03,8.54ZM425.68,91.32c-12.5,0-22.56,10.06-22.56,22.56h0c0,12.5,10.06,22.56,22.56,22.56s22.56-10.06,22.56-22.56-10.06-22.56-22.56-22.56h0Z"/>
      </g>
      <g id="Group_35" data-name="Group 35">
        <path id="Path_27" data-name="Path 27" class="cls-3" d="M172.92,144.06c-16.46,0-30.18-13.41-30.18-30.18,0-7.93,3.05-15.55,8.84-21.34,11.89-11.89,30.79-11.89,42.68,0,.61.61.91.91,1.22,1.52v-39.33h7.32v59.45c0,16.46-13.41,29.88-29.88,29.88ZM172.92,91.32c-12.5,0-22.56,10.06-22.56,22.56,0,6.1,2.44,11.89,6.71,15.85,8.84,8.84,23.17,8.84,32.01,0h0c8.84-8.84,8.84-23.17,0-32.01-4.57-3.96-10.36-6.4-16.16-6.4h0Z"/>
      </g>
      <g id="Group_36" data-name="Group 36">
        <path id="Path_28" data-name="Path 28" class="cls-3" d="M236.01,144.26c-7.93,0-15.24-3.05-20.73-8.84-5.49-5.49-8.54-13.41-8.23-21.34v-28.35h7.32v28.35c-.3,6.1,1.83,11.89,6.1,15.85h0c8.23,8.54,21.64,8.84,30.18.91l.91-.91c4.27-4.27,6.4-10.06,6.1-15.85v-28.35h7.32v28.35c.3,7.93-2.74,15.55-8.23,21.34-5.49,5.49-12.8,8.84-20.73,8.84Z"/>
      </g>
      <g id="Group_37" data-name="Group 37">
        <path id="Path_29" data-name="Path 29" class="cls-3" d="M298.06,144.02c-16.77,0-30.18-13.41-30.18-30.18,0-7.93,3.05-15.55,8.84-21.34,11.58-11.58,30.79-11.58,42.37.3,3.66,3.66,6.4,8.23,7.62,13.41l.61,1.83-7.32,1.83-.3-1.83c-1.22-4.88-3.96-9.15-7.93-11.89-3.96-3.05-8.84-4.88-14.02-4.88-12.5,0-22.56,10.06-22.56,22.56,0,6.1,2.44,11.89,6.71,15.85,4.27,4.27,10.06,6.71,16.16,6.71,10.36,0,19.21-7.01,21.95-16.77l.61-1.83,7.32,1.83-.61,1.83c-3.96,13.41-15.85,22.56-29.27,22.56h0Z"/>
      </g>
      <g id="Group_38" data-name="Group 38">
        <path id="Path_30" data-name="Path 30" class="cls-3" d="M360.12,144.02c-16.77,0-30.18-13.41-30.18-29.88,0-7.93,3.05-15.55,8.84-21.34,11.58-11.89,30.79-11.89,42.37,0,5.49,5.49,8.84,13.41,8.84,21.34v28.35h-7.32v-8.54c-.3.61-.91.91-1.22,1.52-5.79,5.49-13.41,8.84-21.34,8.54ZM360.12,91.28c-12.5,0-22.56,10.06-22.56,22.56,0,6.1,2.44,11.89,6.71,16.16,8.84,8.84,23.17,8.54,32.01-.3,8.54-8.84,8.54-22.86,0-31.7-4.57-4.27-10.36-6.71-16.16-6.71Z"/>
      </g>
    </g>
    <g id="Group_40" data-name="Group 40">
      <path id="Path_31" data-name="Path 31" class="cls-3" d="M72.79,55.27c10.67-2.44,21.95-.3,30.79,6.1,4.57,3.05,8.23,7.01,10.97,11.89,8.84,14.63,7.32,33.23-3.66,46.03-7.32,8.54-17.99,13.72-29.27,14.33-5.18,0-10.97-.91-16.16-3.05-2.74-.91-5.18-2.44-7.32-3.96-2.44-1.52-4.57-3.35-6.71-5.49-1.83-2.13-3.35-4.57-4.57-7.32-1.22-2.74-1.83-5.49-2.13-8.54-.61-5.79.61-11.58,3.66-16.77,1.22-2.44,3.05-4.88,5.18-6.71s4.57-3.66,7.32-4.57c5.18-2.44,11.28-3.05,16.77-1.83,2.74.61,5.49,1.52,7.93,3.05,1.22.61,2.44,1.52,3.35,2.44,1.22.91,2.13,1.83,3.05,2.74,3.66,3.96,6.1,9.15,6.71,14.63h-.61c-1.22-5.18-3.96-9.76-7.62-13.11-.91-.91-1.83-1.52-3.05-2.44-.91-.61-2.13-1.22-3.35-1.83-2.13-.91-4.57-1.83-7.01-2.13-4.88-.61-9.76.3-14.33,2.44-4.27,2.13-7.93,5.49-10.06,9.76-4.88,8.54-3.66,19.21,2.74,26.83,1.52,1.83,3.35,3.35,5.49,4.88s4.27,2.74,6.4,3.66c4.57,2.13,9.76,3.05,14.63,3.05,20.43-.3,36.58-17.07,35.97-37.5,0-1.22,0-2.13-.3-3.35-.61-5.18-2.13-10.06-4.57-14.63-2.74-4.57-6.1-8.54-10.36-11.58-8.54-6.4-19.21-8.84-29.88-6.71v-.3Z"/>
      <path id="Path_32" data-name="Path 32" class="cls-1" d="M60.6,65.64c9.45-5.79,20.73-7.01,31.09-3.96,5.18,1.52,10.06,4.27,14.33,7.62,13.11,10.97,17.68,28.96,11.28,44.81-4.27,10.36-12.5,18.6-23.17,22.56-5.18,2.13-10.97,2.74-16.46,2.44-2.74-.3-5.49-.61-8.23-1.22-2.74-.61-5.49-1.83-7.93-3.05-2.44-1.52-4.88-3.35-6.71-5.49-1.83-2.13-3.66-4.57-4.88-7.32-2.44-5.49-3.05-11.28-1.83-17.07.61-2.74,1.52-5.49,3.05-8.23,1.52-2.44,3.35-4.88,5.49-6.71,4.27-3.96,9.76-6.4,15.24-7.01,2.74-.3,5.79-.3,8.54.3,1.22.3,2.74.61,3.96,1.22,1.22.3,2.44.91,3.66,1.83,4.88,2.74,8.54,6.71,10.97,11.89l-.3.3c-2.74-4.57-6.71-7.93-11.58-10.06-1.22-.61-2.44-.91-3.66-1.22-1.22-.3-2.44-.61-3.66-.61-2.44-.3-4.88-.3-7.32.3-4.88.91-9.45,3.35-12.8,6.71-1.83,1.83-3.05,3.66-4.27,5.79s-1.83,4.57-2.44,6.71c-1.83,9.76,2.44,19.51,10.97,24.69,1.83.91,3.96,1.83,6.4,2.74,2.44.61,4.88,1.22,7.32,1.52,4.88.3,10.06-.3,14.94-1.83,19.21-6.71,29.27-27.74,22.25-46.95-.3-.91-.61-2.13-1.22-3.05-2.13-4.57-5.18-8.84-9.15-12.5-3.96-3.35-8.54-6.1-13.41-7.62-10.06-3.35-21.03-2.13-30.49,3.05v-.61Z"/>
      <path id="Path_33" data-name="Path 33" class="cls-3" d="M51.76,80.58c6.71-8.54,16.77-13.72,27.74-14.63,5.49-.3,10.97.61,16.16,2.44,16.16,5.79,26.52,21.34,25.91,38.41-.3,11.28-5.49,21.95-14.02,29.27-4.27,3.66-9.15,6.4-14.63,7.93-2.74.91-5.49,1.22-8.23,1.52s-5.79.3-8.54-.3c-2.74-.61-5.79-1.52-8.23-2.74-2.44-1.52-4.88-3.05-7.01-5.18-3.96-4.27-6.71-9.76-7.62-15.55-.3-2.74-.3-5.79,0-8.54s1.52-5.49,2.74-8.23c2.74-5.18,7.01-9.15,11.89-11.89,2.44-1.22,5.18-2.13,7.93-2.44,1.52-.3,2.74-.3,4.27-.3s2.74,0,4.27.3c5.49.91,10.36,3.35,14.33,7.32l-.3.3c-3.96-3.35-9.15-5.18-14.33-5.49h-3.66c-1.22,0-2.44.3-3.66.61-2.74.61-4.88,1.52-7.01,2.74-4.27,2.44-7.62,6.4-9.76,10.67-2.13,4.27-2.74,9.45-1.83,14.02,1.52,9.76,9.15,17.38,18.9,19.51,2.44.61,4.88.61,7.32.3,7.62-.3,14.94-3.35,20.73-7.93,15.55-12.8,17.68-35.97,4.88-51.82-.61-.91-1.52-1.52-2.13-2.44-3.66-3.66-7.93-6.71-12.8-8.54-4.88-1.83-10.06-2.74-15.24-2.74-10.97.91-20.73,5.49-27.74,13.72l-.3-.3Z"/>
      <path id="Path_34" data-name="Path 34" class="cls-2" d="M93.83,102.22c-2.74-2.74-2.74-7.32,0-10.36,2.74-2.74,7.32-2.74,10.36,0,2.74,2.74,2.74,7.32,0,10.36-2.74,2.74-7.32,2.74-10.36,0"/>
    </g>
  </g>
</svg>