<?xml version="1.0" encoding="UTF-8"?>
<svg id="Layer_2" data-name="Layer 2" xmlns="http://www.w3.org/2000/svg" viewBox="0 0 249.78 57.42">
  <g id="Layer_1-2" data-name="Layer 1">
    <rect x="102.65" y="0" width="25.44" height="25.44"/>
    <path d="M64.04,13.65c29.15,0,54.06,18.16,64.04,43.78H0C9.94,31.78,35.11,13.59,64.04,13.65"/>
    <polygon points="154.51 0 160.38 16.63 160.45 16.63 166.36 0 174.82 0 174.82 25.49 169.2 25.49 169.2 7.34 162.43 25.49 158.15 25.49 151.71 7.34 151.63 25.49 146.02 25.49 146.02 0 154.51 0"/>
    <path d="M179.76,9.65c1.84-1.69,4.21-2.52,7.06-2.52,3.38,0,8.06,2.05,8.06,9.36v1.51h-12.53c.43,2.05,1.91,3.38,4.07,3.38,1.48,0,2.77-.72,3.85-2.12l3.78,2.77c-1.69,2.16-4.61,3.46-7.38,3.46s-5.01-.83-6.88-2.52c-1.91-1.69-2.84-3.89-2.84-6.66s.94-4.97,2.81-6.66M189.48,14.33c0-1.98-1.44-3.31-3.35-3.31-2.05,0-3.6,1.29-3.78,3.31h7.13Z"/>
    <path d="M210.51,0h5.4v25.49h-4.97v-2.74h-.07c-1.15,1.69-3.35,2.74-5.4,2.74-2.59,0-4.68-.86-6.23-2.56-1.55-1.69-2.34-3.85-2.34-6.48,0-2.48.72-4.68,2.19-6.55,1.44-1.84,3.38-2.77,5.8-2.77,2.56,0,4.43.76,5.54,2.3h.07V0ZM206.62,20.74c2.63,0,4.32-1.73,4.32-4.43s-1.76-4.43-4.36-4.43-4.28,1.73-4.28,4.43,1.69,4.43,4.32,4.43"/>
    <path d="M242.41,15.91v9.58h-4.97v-2.63h-.07c-1.12,1.76-2.95,2.63-5.54,2.63-1.73,0-3.2-.47-4.39-1.44-1.22-.97-1.84-2.27-1.84-3.96s.68-3.06,1.58-3.92c.86-.83,2.59-1.44,3.78-1.73,1.08-.25,3.53-.47,4.46-.5h2.02c0-1.91-1.58-3.13-3.46-3.13-1.69,0-3.13.68-4.39,2.09l-2.88-2.95c1.95-1.87,4.5-2.81,7.7-2.81,5.87,0,7.99,2.74,7.99,8.78M233.37,21.82c2.2,0,4.07-1.19,4.07-3.31v-1.12h-1.62c-3.35,0-5.04.83-5.04,2.52,0,1.26,1.26,1.91,2.59,1.91"/>
    <path d="M246.03,21.06c.22-.04.54-.07.83-.07.46,0,.77.09.97.27.16.15.26.38.26.64,0,.44-.28.73-.63.85h0c.25.1.41.34.49.69.11.47.19.79.26.92h-.45c-.05-.1-.13-.38-.22-.8-.1-.46-.28-.63-.67-.65h-.41v1.45h-.43v-3.3ZM246.46,22.58h.44c.46,0,.75-.25.75-.63,0-.43-.31-.62-.77-.62-.21,0-.35.02-.43.04v1.22Z"/>
    <path d="M246.99,25.49c-1.54,0-2.8-1.25-2.8-2.8s1.25-2.8,2.8-2.8,2.8,1.25,2.8,2.8-1.25,2.8-2.8,2.8M246.99,20.34c-1.3,0-2.35,1.06-2.35,2.35s1.05,2.35,2.35,2.35,2.35-1.05,2.35-2.35-1.05-2.35-2.35-2.35"/>
    <rect x="218.29" y="7.99" width="5.4" height="17.5"/>
    <path d="M223.8,2.81c0,1.55-1.26,2.81-2.81,2.81s-2.81-1.26-2.81-2.81,1.26-2.81,2.81-2.81,2.81,1.26,2.81,2.81"/>
    <path d="M223.8,2.81c0,1.55-1.26,2.81-2.81,2.81s-2.81-1.26-2.81-2.81,1.26-2.81,2.81-2.81,2.81,1.26,2.81,2.81"/>
    <polygon points="165.19 31.9 165.19 36.86 158.4 36.86 158.4 57.39 152.79 57.39 152.79 36.86 146.02 36.86 146.02 31.9 165.19 31.9"/>
    <path d="M167.89,39.89v8.68c0,1.01,0,1.33.18,2.3.11.5.25.9.43,1.15.36.54,1.15,1.04,2.2,1.04,2.27,0,3.24-1.4,3.24-4.32v-8.86h5.4v17.5h-5.18v-2.38h-.07c-.97,1.76-2.88,2.38-5.15,2.38-4.57,0-6.44-2.02-6.44-7.63v-9.86h5.4Z"/>
    <path d="M193.79,40.29v4.28c-.9-.25-1.66-.36-2.3-.36-3.64,0-4.61,1.73-4.61,5.65v7.52h-5.4v-17.5h5.4v2.81h.07c1.19-2.16,2.88-2.58,5.07-2.58.76,0,1.37.07,1.76.18"/>
    <rect x="208.52" y="36.2" width="5.4" height="21.19"/>
    <path d="M218.87,41.54c1.84-1.69,4.21-2.52,7.06-2.52,3.38,0,8.06,2.05,8.06,9.36v1.51h-12.53c.43,2.05,1.91,3.38,4.07,3.38,1.48,0,2.77-.72,3.85-2.12l3.78,2.77c-1.69,2.16-4.61,3.46-7.38,3.46s-5.01-.83-6.88-2.52c-1.91-1.69-2.84-3.89-2.84-6.66s.94-4.97,2.81-6.66M228.58,46.22c0-1.98-1.44-3.31-3.35-3.31-2.05,0-3.6,1.29-3.78,3.31h7.13Z"/>
    <path d="M249.1,41.33l-3.31,3.28c-.83-.97-1.84-1.48-3.1-1.48-1.19,0-2.02.58-2.02,1.44s.79,1.22,3.24,1.69c4.21.83,5.87,2.45,5.87,5.36,0,3.78-3.2,5.76-8.06,5.76-3.06,0-5.33-.79-6.88-2.38l3.28-3.64c1.08,1.26,2.34,1.91,3.82,1.91,1.62,0,2.45-.43,2.45-1.26,0-.9-.9-1.3-2.77-1.69-1.55-.32-2.2-.43-3.49-1.01-.65-.25-1.15-.57-1.51-.94-.72-.68-1.33-1.91-1.33-3.46,0-3.64,3.02-5.9,7.34-5.9,2.84,0,5.01.76,6.48,2.3"/>
    <path d="M206.38,52.77h-1.79c-1.23-.23-1.74-1.07-1.74-2.84v-5.36h1.95v-4.32h-1.95v-4.14h-5.4v4.14h-1.53v4.32h1.53v7.67c0,3.09,2.08,5,5.93,5.13h0s3,.01,3,.01v-4.61Z"/>
  </g>
</svg>