<?xml version="1.0" encoding="UTF-8"?>
<svg id="Layer_1" data-name="Layer 1" xmlns="http://www.w3.org/2000/svg" version="1.1" viewBox="0 0 500 200">
  <defs>
    <style>
      .cls-1 {
        fill: #85754e;
      }

      .cls-1, .cls-2 {
        stroke-width: 0px;
      }

      .cls-2 {
        fill: #003a70;
      }
    </style>
  </defs>
  <g>
    <path class="cls-2" d="M143.42,145.3c0,.53-.46.53-.46.53h-2.23s-.53,0-.53-.53v-36.51h7.46c8.73,0,11.8,4.46,11.8,10v1.11c0,5.29-2.07,8.79-6.87,10.09l4.71,9.57c1.15,2.01,2.32,3.34,3.87,3.34h.53c.53,0,.53.53.53.53v1.8s0,.59-.53.59h-.84c-2.85,0-4.49-1.58-6.72-5.45l-4.77-9.94h-5.91v14.86h-.03ZM143.42,127.37h4.71c5.2,0,8.08-1.55,8.08-7.46v-1.11c0-4.86-2.91-6.94-8.3-6.94h-4.49v15.51Z"/>
    <path class="cls-2" d="M166.98,139.75c0-3.9,1.49-6.72,6.22-7.9l7.68-1.8v-2.91c-.15-2.97-2.17-5.17-5.23-5.17s-4.92,1.8-4.92,4.55c0,.28-.31.37-.31.37h-2.54s-.25-.09-.25-.37c0-4.61,3.5-7.52,8.05-7.52s8.3,2.85,8.3,8.98v17.31c0,.53-.46.53-.46.53h-2.07s-.53,0-.53-.53v-1.86c-1.7,2.26-4.27,2.76-6.13,2.76-4.95,0-7.8-2.63-7.8-6.44ZM180.89,137.12v-3.87l-7.37,1.7c-3.07.68-3.5,3.13-3.5,4.49,0,2.48,1.86,3.81,4.71,3.81,3.62,0,6.16-2.97,6.16-6.13Z"/>
    <path class="cls-2" d="M194.17,145.3c0,.53-.46.53-.46.53h-2.07s-.53,0-.53-.53v-35.95c0-.53.46-.53.46-.53h2.07s.53,0,.53.53v11.89c.99-1.49,3.38-2.23,5.36-2.23,5.17,0,8.73,3.72,8.73,8.89v9.69c0,4.86-3.19,8.61-7.93,8.61-1.86,0-4.46-.46-6.13-2.76v1.86h-.03ZM205.16,127.89c0-3.28-2.07-5.88-5.67-5.88-2.38,0-5.39,1.42-5.39,5.88v9.94c0,3.38,2.32,5.39,5.91,5.39,2.91,0,4.99-2.54,5.14-5.67,0,.03,0-9.23,0-9.66Z"/>
    <path class="cls-2" d="M231.95,145.3c0,.53-.53.53-.53.53h-2.07s-.46,0-.46-.53v-1.86c-1.7,2.26-4.06,2.76-5.91,2.76-4.77,0-8.08-3.72-8.08-8.58v-9.69c0-4.92,2.76-8.95,8.3-8.95,2.07,0,4.77.9,5.7,2.45v-12.11c0-.53.46-.53.46-.53h2.11c.28,0,.46.22.46.53v35.98h.03ZM228.88,127.96c0-4.61-3.16-5.98-5.7-5.98-3.56,0-5.23,2.38-5.23,5.98v9.69c0,3.13,2.11,5.6,5.02,5.6,3.44,0,5.91-1.8,5.91-5.6v-9.69Z"/>
    <path class="cls-2" d="M237.24,139.75c0-3.9,1.49-6.72,6.22-7.9l7.68-1.8v-2.91c-.15-2.97-2.17-5.17-5.23-5.17s-4.92,1.8-4.92,4.55c0,.28-.34.37-.34.37h-2.54s-.28-.09-.28-.37c0-4.61,3.5-7.52,8.05-7.52s8.3,2.85,8.3,8.98v17.31c0,.53-.46.53-.46.53h-2.04s-.53,0-.53-.53v-1.86c-1.7,2.26-4.27,2.76-6.13,2.76-4.92,0-7.77-2.63-7.77-6.44ZM251.14,137.12v-3.87l-7.34,1.7c-3.07.68-3.5,3.13-3.5,4.49,0,2.48,1.86,3.81,4.71,3.81,3.59,0,6.13-2.97,6.13-6.13Z"/>
    <path class="cls-2" d="M261.36,119.91c0-.53.5-.53.5-.53h2.11s.46,0,.46.53v1.52c1.21-1.7,3.31-2.45,5.6-2.45,4.77,0,8.3,3.13,8.3,8.98v17.31c0,.53-.53.53-.53.53h-2.01s-.53,0-.53-.53v-17.25c0-3.44-1.49-6.04-5.39-6.04-4.24,0-5.45,3.22-5.45,6.04v17.31c0,.53-.59.53-.59.53h-1.95s-.53,0-.53-.53v-25.42Z"/>
    <path class="cls-2" d="M310.78,108.79s.46,0,.62.53l10.06,36.14c.09.37-.31.37-.31.37h-2.6c-.15,0-.37-.15-.46-.53l-3.81-13.38h-11.64l-3.9,13.38c-.12.37-.31.53-.46.53h-2.63s-.43,0-.31-.37l10.22-36.14c.15-.53.59-.53.59-.53h4.64ZM303.41,128.79h10.03l-4.46-16.94h-.96l-4.61,16.94Z"/>
    <path class="cls-2" d="M339.7,137h1.86c.43,0,.68.22.68.68,0,4.12-2.54,8.52-8.36,8.52-5.2,0-8.64-2.97-8.64-9.51v-7.93c0-6.97,3.44-9.72,8.64-9.72,3.07,0,7.03,1.11,7.9,6.44.06.28.09.53-.31.68l-1.95.53c-.31.09-.53-.06-.59-.43-.22-1.89-1.55-4.27-5.02-4.27-3.81,0-5.54,2.26-5.54,6.87v7.83c0,3.75,1.92,6.56,5.54,6.56s5.29-3.16,5.29-5.67c-.03-.59.5-.59.5-.59Z"/>
    <path class="cls-2" d="M346.42,139.75c0-3.9,1.49-6.72,6.25-7.9l7.68-1.8v-2.91c-.15-2.97-2.17-5.17-5.23-5.17s-4.92,1.8-4.92,4.55c0,.28-.31.37-.31.37h-2.54s-.28-.09-.28-.37c0-4.61,3.47-7.52,8.05-7.52,4.34,0,8.3,2.85,8.3,8.98v17.31c0,.53-.46.53-.46.53h-2.07s-.53,0-.53-.53v-1.86c-1.7,2.26-4.3,2.76-6.13,2.76-4.95,0-7.8-2.63-7.8-6.44ZM360.36,137.12v-3.87l-7.37,1.7c-3.07.68-3.5,3.13-3.5,4.49,0,2.48,1.86,3.81,4.71,3.81,3.62,0,6.16-2.97,6.16-6.13Z"/>
    <path class="cls-2" d="M386.58,145.3c0,.53-.53.53-.53.53h-2.07s-.46,0-.46-.53v-1.86c-1.7,2.26-4.09,2.76-5.95,2.76-4.77,0-8.08-3.72-8.08-8.58v-9.69c0-4.92,2.76-8.95,8.3-8.95,2.07,0,4.77.9,5.7,2.45v-12.11c0-.53.46-.53.46-.53h2.11c.28,0,.46.22.46.53v35.98h.06ZM383.52,127.96c0-4.61-3.19-5.98-5.7-5.98-3.53,0-5.23,2.38-5.23,5.98v9.69c0,3.13,2.11,5.6,5.02,5.6,3.44,0,5.95-1.8,5.95-5.6v-9.69h-.03Z"/>
    <path class="cls-2" d="M410.77,138.02c0,5.29-3.5,8.21-8.52,8.21s-8.52-3.5-8.52-8.21v-10.16c0-5.08,3.38-8.82,8.95-8.82,4.61,0,8.08,3.07,8.08,7.09v4.71c0,.9-.46,1.8-1.8,2.07l-12.17,2.29v2.85c.15,2.97,2.07,5.23,5.45,5.23s5.51-2.01,5.51-5.23c0-.28.31-.37.31-.37h2.42s.28.06.28.34ZM407.7,126.22c0-2.76-2.17-4.24-5.29-4.24-4.12,0-5.6,2.63-5.6,5.88v4.27l10.9-2.07v-3.84Z"/>
    <path class="cls-2" d="M432.35,121.55c1.21-1.73,3.38-2.54,5.45-2.54,4.03,0,8.21,1.73,8.21,8.89v17.4c0,.53-.53.53-.53.53h-2.01s-.53,0-.53-.53v-17.4c0-3.44-1.49-5.91-5.14-5.91-2.23,0-3.96,1.7-3.96,4.27v19.04c0,.53-.53.53-.53.53h-1.89s-.53,0-.53-.53v-19.04c0-2.11-1.33-4.27-4.61-4.27-4.24,0-5.29,3.13-5.29,5.91v17.4c0,.53-.59.53-.59.53h-1.95s-.53,0-.53-.53v-25.39c0-.53.46-.53.46-.53h2.11s.46,0,.46.53v1.52c.9-1.49,3.07-2.45,5.36-2.45,2.32.03,4.77.68,6.04,2.57Z"/>
    <path class="cls-2" d="M450.8,119.91c-.15-.53.37-.53.37-.53h2.38s.37,0,.53.53l6.19,22.57h.43l6.25-22.57c.12-.53.53-.53.53-.53h2.32s.53,0,.37.53l-9.04,30.9c-1.73,5.67-4.49,6.25-6.56,6.25h-.59c-.53,0-.53-.59-.53-.59v-1.86s0-.53.53-.53c.81,0,3.13.28,4.27-3.38l1.55-4.86h-.99s-.37,0-.59-.53l-7.43-25.42Z"/>
  </g>
  <g>
    <path class="cls-2" d="M154.81,64.73c1.27,0,1.95-.71,1.95-2.01s-.68-2.01-1.95-2.01-2.01.71-2.01,2.01c0,1.3.71,2.01,2.01,2.01Z"/>
    <path class="cls-2" d="M226.74,87.36c-1.3,0-1.95.65-1.95,1.89,0,1.36.65,2.07,1.95,2.07s2.01-.71,2.01-2.07c0-1.24-.71-1.89-2.01-1.89Z"/>
    <path class="cls-2" d="M273.66,43.05c-1.3,0-1.95.65-1.95,1.89,0,1.36.65,2.07,1.95,2.07s2.01-.71,2.01-2.07c.03-1.21-.68-1.89-2.01-1.89Z"/>
    <path class="cls-2" d="M280.1,43.05c-1.3,0-1.95.65-1.95,1.89,0,1.36.65,2.07,1.95,2.07s2.01-.71,2.01-2.07c0-1.21-.68-1.89-2.01-1.89Z"/>
    <path class="cls-2" d="M304.34,87.36c-1.3,0-1.95.65-1.95,1.89,0,1.36.65,2.07,1.95,2.07s2.01-.71,2.01-2.07c0-1.24-.68-1.89-2.01-1.89Z"/>
    <path class="cls-2" d="M310.78,87.36c-1.3,0-1.95.65-1.95,1.89,0,1.36.65,2.07,1.95,2.07s2.01-.71,2.01-2.07c0-1.24-.68-1.89-2.01-1.89Z"/>
    <path class="cls-2" d="M360.26,87.36c-1.3,0-1.95.65-1.95,1.89,0,1.36.65,2.07,1.95,2.07s2.01-.71,2.01-2.07c0-1.24-.71-1.89-2.01-1.89Z"/>
    <path class="cls-2" d="M366.7,87.36c-1.3,0-1.95.65-1.95,1.89,0,1.36.65,2.07,1.95,2.07s2.01-.71,2.01-2.07c0-1.24-.71-1.89-2.01-1.89Z"/>
    <path class="cls-2" d="M179.71,43.05h-2.07s-.46,0-.46.53v35.95c0,.53.46.53.46.53h2.07s.53,0,.53-.53v-35.95c0-.53-.53-.53-.53-.53Z"/>
    <path class="cls-2" d="M140.2,70.52c-.06,1.86-.03,3.22-.03,4.12.4,5.67,1.76,9.82,3.78,12.29,2.32,2.97,6.07,4.4,11.49,4.4,9.78,0,14.15-3.44,14.15-11.18v-25.98c0-.53-.53-.53-.53-.53h-2.07s-.46,0-.46.53v25.45h0v.59c0,3.41-1.08,5.73-3.25,6.91-1.49.84-4.03,1.24-7.71,1.24-8.73,0-11.86-4.37-12.29-14.68v-2.72"/>
    <path class="cls-2" d="M466.94,51.29h-2.07s-.46,0-.46.53v27.74c0,.53.46.53.46.53h2.07s.53,0,.53-.53v-27.74c0-.53-.53-.53-.53-.53Z"/>
    <path class="cls-2" d="M143.26,72.81v-3.25c0-.53-.53-.53-.53-.53h-2.07s-.46,0-.46.53v3.22"/>
    <path class="cls-2" d="M249.53,53.64h-2.07s-.46,0-.46.53v21.77h0v2.42c0,2.88-.65,5.26-1.95,7.06-1.36,2.07-3.38,3.13-6.01,3.16h-7.03c-.46,0-.46.43-.46.43v1.83s0,.46.46.46h7.12c3.5-.06,6.25-1.27,8.17-3.65,1.86-2.32,2.79-5.42,2.79-9.41v-24.06c-.03-.53-.56-.53-.56-.53Z"/>
    <path class="cls-2" d="M469.79,47.6h-4.58v-.43c0-1.42.53-2.14,1.55-2.2h1.8c.34,0,.34-.34.34-.34v-1.27s0-.31-.34-.31h-2.11c-2.2.15-3.34,1.67-3.34,4.24v.31h-2.69c-.34,0-.34.31-.34.31v1.39s0,.34.34.34h9.41c.37,0,.37-.34.37-.34v-1.39s-.03-.31-.4-.31Z"/>
    <path class="cls-2" d="M452.72,60.64c-2.57-2.54-6.07-3.81-10.31-3.81-1.67,0-3.31.22-5.02.68l10.03-11.36h0l.74-.87.03-.03.09-.12c.34-.37-.06-.71-.06-.71l-1.49-1.3s-.34-.31-.68.09l-.62.71-.46.56-13.59,15.14-.22.25-.56.62-.65.74c-.34.4,0,.71,0,.71l1.55,1.36s.4.37.74-.03c2.76-2.66,5.85-3.56,10.16-3.56,3.31,0,5.85.93,7.77,2.85,1.64,1.64,2.69,4.03,3.07,7.06.15,1.05.22,3.34.22,7.71h-40.84c-2.51,0-3.75-1.33-3.75-4.09v-1.52h0v-28.18c0-.53-.53-.53-.53-.53h-2.07s-.46,0-.46.53v29.76c0,4.52,2.11,6.81,6.29,6.81h44.12c.09,0,.56-.03.56-.56v-5.39c.03-6.19-1.33-10.74-4.06-13.53Z"/>
    <path class="cls-2" d="M388.6,53.64h-7.03c-.5,0-.5.43-.5.43v1.86s0,.46.5.46h6.78c4.58,0,6.81,2.42,6.81,7.4v13.53h-16.44c-.46,0-.46.43-.46.43v1.89s0,.46.46.46h18.98s.53,0,.56-.53l.03-.03v-16.16c-.03-5.85-3.81-9.63-9.69-9.75Z"/>
    <path class="cls-2" d="M370.64,59.56v-5.39c0-.53-.53-.53-.53-.53h-2.07s-.46,0-.46.53v13.93h0v2.14c0,4.77-2.26,7.09-6.87,7.09h-7.03c-4.3,0-6.5-2.17-6.78-6.56v-8.05c0-6.29-2.76-9.78-8.52-9.78s-8.52,3.5-8.52,9.78v7.49c-.06,4.8-2.29,7.15-6.81,7.15h-7.03c-4.64,0-6.87-2.32-6.87-7.09v-16.1c0-.53-.53-.53-.53-.53h-2.07s-.46,0-.46.53v13.93h0v1.86c0,4.99-2.23,7.4-6.81,7.4h-7.86c-3.81-.25-5.79-2.45-6.01-6.56v-8.08c0-4.71-1.55-7.86-4.74-9.13-.22-.09-.43-.12-.68-.19-.34-.09-.68-.25-1.08-.31-.62-.09-1.3-.15-2.01-.15-5.76,0-8.52,3.5-8.52,9.78h0v7.9c0,2.32.43,4.34,1.33,5.88h0c.65,1.15,1.55,2.04,2.72,2.63.06.03.09.03.12.06.25.12.46.22.74.31.09.03.19.06.28.09.22.06.46.12.68.19.12.03.25.06.37.09.25.06.46.09.71.12.12.03.25.03.37.06.31.03.65.03.99.06h.37c.34,0,.68-.03.99-.06.12,0,.25-.03.4-.06.25-.03.46-.06.71-.09.12-.03.25-.06.37-.09.25-.06.43-.12.65-.19.09-.03.19-.06.31-.09.25-.09.46-.19.68-.31.06-.03.12-.06.15-.09,1.18-.62,2.04-1.49,2.72-2.6v-.03c1.58,2.26,4.06,3.44,7.31,3.56v.03h8.21c3.75,0,6.5-1.36,8.14-4.03,1.7,2.66,4.37,4.03,7.93,4.03h8.05c3.41-.06,5.95-1.27,7.59-3.62,1.33,2.29,3.65,3.62,7.18,3.62s5.85-1.33,7.15-3.59c1.67,2.38,4.3,3.59,7.83,3.59h7.71c3.56,0,6.22-1.36,7.93-4.03,1.83-3.07,1.61-6.13,1.61-6.13v-10.25c-.06-.03-.06-.09-.06-.12ZM282.29,70.64c0,4.12-2.32,6.5-5.45,6.5s-5.45-2.38-5.45-6.5v-7.93c0-5.2,2.29-6.81,5.45-6.81s5.45,1.64,5.45,6.81v7.93ZM343.85,70.64c0,4.12-2.32,6.5-5.45,6.5s-5.45-2.38-5.45-6.5v-7.93c0-5.2,2.26-6.81,5.45-6.81s5.45,1.64,5.45,6.81v7.93Z"/>
    <path class="cls-2" d="M231.14,53.61h-2.07s-.46,0-.46.53v13.93h0v1.86c0,4.99-2.26,7.4-6.87,7.4h-7.18c-4.37-.06-6.56-2.29-6.69-6.72v-7.25c0-5.85-3.81-9.66-9.75-9.75h-7.06c-.46,0-.46.43-.46.43v1.86s0,.46.46.46h6.87c4.58,0,6.81,2.42,6.81,7.4v4.21h0v1.86c0,4.95-2.2,7.37-6.69,7.46h-9.75c-.5,0-.5.43-.5.43v1.89s0,.5.5.5h9.85c3.78,0,6.56-1.36,8.24-4.09,1.7,2.69,4.37,4.06,7.93,4.09h7.77c5.73,0,9.57-3.93,9.57-9.75v-16.23c.03-.53-.5-.53-.5-.53Z"/>
    <polygon class="cls-2" points="204.73 67.98 204.76 67.98 204.76 67.98 204.73 67.98"/>
  </g>
  <path class="cls-1" d="M50.03,45.5l-.31.06v.28c-.03,7.68-5.57,14.43-13.19,15.98l-.25.06v.28c.31,27.71,2.32,44.59,12.54,60.04,10.59,16.01,25.76,22.42,30.13,24l.12.03.12-.03c3.47-1.24,13.72-5.57,23.1-15.27-1.46-8.08-1.89-13.38-2.32-18.24-.4-4.37-3.53-10.62-7.77-11.74-.34-.09,2.01-3.78,2.2-7.09-.9,2.54-3.22,6.35-4.4,7-4.18,2.57-6.04,3.5-8.14,3.25-2.11-.22-3.25-.22-5.11.25-1.86.46-9.29,2.07-11.61,1.61s-3.96-.46-4.43.68c-.46,1.18-2.32,2.79-3.72,2.79s-3.5.46-4.89-1.15c-4.18-.46-3.47-3.72-3.47-5.36s.46-5.33.71-6.72c.22-1.39,2.07-2.32,3.25-3,1.18-.68,11.83-7.9,14.18-10.22,2.32-2.32,6.25-8.82,12.29-13.01.46-1.39,1.61-4.18,1.61-4.18l-3.03-10.68,5.11,6.72s-.22-5.79-.93-8.58c3.47,4.4,7.65,10.68,9.29,12.08,1.61,1.39,15.54,7.18,18.58,9.51,2.14.19,5.54.4,11.61,4.77.34-5.33.5-11.12.56-17.46v-.28l-.25-.06c-7.62-1.58-13.16-8.3-13.19-15.98v-.28l-.28-.03c-6.94-1.11-17.62-2.42-29.04-2.42-11.46,0-22.14,1.3-29.08,2.38"/>
</svg>