<?xml version="1.0" encoding="UTF-8"?>
<svg id="Layer_1" data-name="Layer 1" xmlns="http://www.w3.org/2000/svg" viewBox="0 0 500 300">
  <defs>
    <style>
      .cls-1 {
        fill: #ce0e2d;
      }

      .cls-1, .cls-2, .cls-3 {
        stroke-width: 0px;
      }

      .cls-2 {
        fill: #2d2a26;
      }

      .cls-3 {
        fill: #00833e;
      }
    </style>
  </defs>
  <g>
    <polygon class="cls-1" points="164.7 189.88 424.84 115.22 454.43 189.88 164.7 189.88"/>
    <polygon class="cls-3" points="350.51 54.06 146.31 177.13 383.18 105.79 350.51 54.06"/>
    <polygon class="cls-3" points="128.18 167.24 271.4 33.3 299.69 60.28 128.18 167.24"/>
    <polygon class="cls-3" points="108.1 161.4 193.7 36.26 221.24 52.24 108.1 161.4"/>
    <polygon class="cls-2" points="88.63 156.9 129.89 55.47 149.54 65.7 88.63 156.9"/>
    <polygon class="cls-2" points="64.87 154.65 81.86 80.92 93.89 87.1 64.87 154.65"/>
    <polygon class="cls-2" points="45.93 155.4 45.93 114.95 53.01 114.95 45.93 155.4"/>
  </g>
  <g>
    <path class="cls-2" d="m46.5,266.7v-10.75h46.15c2.88,0,5.09-.73,6.65-2.2,1.55-1.47,2.33-3.42,2.33-5.84,0-2.65-.78-4.64-2.33-5.97-1.55-1.33-3.77-1.99-6.65-1.99h-28.28c-2.88,0-5.49-.44-7.83-1.31-2.34-.87-4.32-2.09-5.93-3.64-1.61-1.55-2.85-3.4-3.73-5.55-.88-2.14-1.31-4.49-1.31-7.03s.41-4.78,1.23-6.9c.82-2.12,2.03-3.94,3.64-5.46,1.61-1.52,3.6-2.72,5.97-3.6,2.37-.87,5.08-1.31,8.13-1.31h44.21v10.76h-44.21c-2.49,0-4.4.66-5.76,1.99-1.35,1.33-2.03,3.18-2.03,5.55s.69,4.21,2.07,5.5c1.38,1.3,3.26,1.95,5.63,1.95h28.2c6.27,0,11.02,1.47,14.27,4.4,3.25,2.94,4.87,7.4,4.87,13.38,0,2.6-.4,5-1.19,7.2-.79,2.2-1.98,4.11-3.56,5.72-1.58,1.61-3.57,2.87-5.97,3.77-2.4.9-5.21,1.36-8.43,1.36h-46.15Z"/>
    <path class="cls-2" d="m158.2,266.7v-50.81h-23.37v-10.76h57.5v10.76h-23.37v50.81h-10.76Z"/>
    <path class="cls-2" d="m269.48,266.7l-9.23-15.5h-29.13l5.08-8.72h18.88l-13.72-23.03-27.95,47.25h-12.28l35.4-58.94c.62-1.07,1.35-1.92,2.2-2.54.85-.62,1.86-.93,3.05-.93s2.19.31,3.01.93c.82.62,1.54,1.47,2.16,2.54l35.48,58.94h-12.96Z"/>
    <path class="cls-2" d="m363.65,266.7l-15.58-17.11h-23.03v-9.48h25.66c3.9,0,6.83-1.06,8.81-3.18,1.98-2.12,2.96-5.18,2.96-9.19s-1.03-6.99-3.09-8.93c-2.06-1.95-4.95-2.92-8.68-2.92h-33.54v50.81h-10.67v-61.57h44.21c3.5,0,6.63.52,9.4,1.57,2.76,1.05,5.11,2.54,7.03,4.49,1.92,1.95,3.39,4.31,4.4,7.07,1.02,2.77,1.52,5.87,1.52,9.32,0,5.14-1.12,9.44-3.34,12.91-2.23,3.47-5.35,5.97-9.36,7.49l18.55,18.72h-15.24Z"/>
    <path class="cls-2" d="m420.3,266.7v-50.81h-23.37v-10.76h57.5v10.76h-23.37v50.81h-10.76Z"/>
  </g>
</svg>