<?xml version="1.0" encoding="UTF-8"?>
<svg id="Layer_1" data-name="Layer 1" xmlns="http://www.w3.org/2000/svg" viewBox="0 0 500 300">
  <defs>
    <style>
      .cls-1 {
        fill: #e87d1d;
      }

      .cls-1, .cls-2, .cls-3 {
        stroke-width: 0px;
      }

      .cls-2 {
        fill: #0a72b1;
      }

      .cls-3 {
        fill: none;
      }
    </style>
  </defs>
  <g id="Layer_2" data-name="Layer 2">
    <g id="Layer_1-2" data-name="Layer 1-2">
      <path class="cls-2" d="m419.91,239.17H80.09c-13.83,0-25.01-11.18-25.01-25.01V45.9c0-13.83,11.18-25.01,25.01-25.01h339.81c13.83,0,25.01,11.18,25.01,25.01v168.27c0,13.83-11.18,25.01-25.01,25.01ZM80.09,29.57c-9.07,0-16.41,7.35-16.41,16.41v168.27c0,9.07,7.35,16.41,16.41,16.41h339.81c9.07,0,16.41-7.35,16.41-16.41h0V45.9c0-9.07-7.35-16.41-16.41-16.41l-339.81.08Z"/>
      <path class="cls-2" d="m299.78,91.78v10.94c-.16,3.52-2.97,6.25-6.49,6.25h-20.71c-2.81.16-2.81-2.19-2.81-2.19v-13.29h24.46v-17.58h-24.46v-7.03c-.63-3.67,1.17-3.99,1.17-3.99h20.48c2.97-.08,5.86,1.41,7.58,3.83.94,1.41,1.48,3.05,1.56,4.69v6.56h32.82v-31.42h-121.06v17.12h12.43c1.8-.08,3.67.16,5.39.7,1.56.63,2.58,2.11,2.58,3.83v33.29c-.7,3.13-1.95,5.55-10.39,5.63-8.75.08-11.64-5.63-11.64-5.63l-36.42-55.02h-38.06s-26.42,44.55-32.9,54.4c-6.41,9.61-20.24,7.35-20.24,7.35v16.33h59.32v-15.94h-5.31c-2.5,0-5-.31-7.42-.94h0c-7.27-1.64-2.19-5.94-2.19-5.94h39.39c4.14,1.88,1.8,4.53,1.8,4.53-.39.78-1.64,1.41-2.89,1.8-1.56.47-3.28.7-4.92.7l-7.5.08v15.08h181.47v-34.15h-35.01Zm-162.87-4.53l9.14-17.9,10,17.9h-19.15Z"/>
      <path class="cls-2" d="m420.14,109.28v16.65h-79.56v-16.57h13.21c4.14,0,7.58-3.44,7.58-7.58v-33.84c0-2.34-1.95-4.22-4.3-4.22h-15.71v-15.71h77.06v15.71h-15.71c-2.34,0-4.22,1.88-4.3,4.22v33.76c0,4.22,3.36,7.58,7.58,7.58h14.15Z"/>
      <path class="cls-3" d="m113.15,149.37h-3.75c-3.2,0-5.78,2.58-5.78,5.78h0v36.34c0,3.83,3.05,6.88,6.88,6.88,4.69,0,8.52-3.83,8.52-8.52v-7.27h-4.38v-20.24h4.38v-7.19c-.08-3.2-2.66-5.78-5.86-5.78Z"/>
      <path class="cls-2" d="m118.94,189.23c0,4.69-3.83,8.44-8.52,8.44h0c-3.75,0-6.88-3.05-6.88-6.8h0v-35.95c0-3.13,2.58-5.71,5.71-5.71h3.83c3.2,0,5.78,2.5,5.78,5.71h0v7.11h21.18v-18.13c0-5.71-4.69-10.32-10.39-10.32h-37.28c-5.71,0-10.39,4.61-10.39,10.32h0v54.24c0,7.42,6.02,13.36,13.44,13.36h31.11c7.42.08,13.44-5.86,13.52-13.29v-.08h0v-16.18h-21.18l.08,7.27h0Z"/>
      <path class="cls-2" d="m187.32,134.53h-31.34l-19.15,76.9,21.18.16,3.28-13.36h14.93l4.3,12.5h22.51l-15.71-76.2Zm-23.99,48.46l5.94-26.96,5.78,26.96h-11.72Z"/>
      <path class="cls-2" d="m258.05,172.43c-.94-.23-1.95-.39-2.89-.39,5.94-.08,10.71-4.92,10.71-10.86v-15.32c0-6.49-5.24-11.72-11.72-11.72h-48.61v76.59h50.49c.7-.08,1.33-.16,2.03-.31,4.92-1.17,8.44-5.63,8.44-10.71v-16.33c0-5.16-3.44-9.61-8.44-10.94Zm-17.43,19.07c0,2.34-1.95,4.3-4.3,4.3h-7.66v-17.58h7.19c2.58,0,4.77,2.11,4.77,4.69v.08h0v8.52h0Zm.7-32.04c0,2.19-1.8,3.99-3.99,3.99h-8.75v-15.87h8.21c2.42,0,4.45,2.03,4.45,4.45h0l.08,7.42h0Z"/>
      <polygon class="cls-2" points="292.52 196.74 292.52 134.13 270.48 134.13 270.48 210.73 281.5 210.73 292.52 210.73 311.12 210.73 311.12 196.74 292.52 196.74"/>
      <polygon class="cls-2" points="338.24 196.74 338.24 179.15 357.07 179.15 357.07 163.36 338.24 163.36 338.24 146.72 360.35 146.72 360.35 134.13 338.24 134.13 327.22 134.13 313.85 134.13 313.85 210.73 327.22 210.73 338.24 210.73 360.35 210.73 360.35 196.74 338.24 196.74"/>
      <path class="cls-2" d="m399.51,157.19v-6.56c0-2.19-1.8-4.06-3.99-4.06h-5.24c-2.19,0-4.06,1.8-4.06,3.99v.08h0v9.46c0,2.19,1.8,4.06,3.99,4.06h25.71c2.81,0,5.08,2.27,5.08,5.08h0v32.28c0,5.08-4.14,9.22-9.22,9.22h-35.48c-5.86,0-10.55-4.69-10.55-10.55h0v-15.94h21.34v7.97c0,2.34,1.95,4.3,4.3,4.3h4.53c1.95,0,3.6-1.64,3.6-3.6v-10.86c0-2.58-2.03-4.61-4.61-4.61h-23.21c-3.28,0-5.94-2.58-5.94-5.86h0v-7.35l.16-.08h-.16v-23.76c0-4.38,3.6-7.97,7.97-7.97h37.28c5.55,0,10,4.53,10,10.08h0v14.69h-21.49Z"/>
      <polygon class="cls-2" points="365.9 164.15 365.75 164.22 365.75 164.15 365.9 164.15"/>
    </g>
  </g>
  <g>
    <path class="cls-1" d="m73.92,273.01h-8.44l-1.41,5.55h-8.44l9.07-27.9h10.24l9.07,27.9h-8.6l-1.48-5.55Zm-7.03-5.86h5.55l-2.74-10.16h-.16l-2.66,10.16Z"/>
    <path class="cls-1" d="m106.2,250.66c8.52,0,13.52,4.85,13.52,13.76s-5,14.15-13.52,14.15h-11.96v-27.9h11.96Zm-3.75,21.34h2.58c4.06,0,6.25-2.42,6.25-7.66,0-4.69-2.27-7.19-6.25-7.19h-2.58v14.85Z"/>
    <path class="cls-1" d="m131.05,267.7c0,2.97,1.41,4.61,4.06,4.61s4.06-1.64,4.06-4.61v-17.04h8.21v17.98c0,6.33-4.92,10.47-12.27,10.47s-12.27-4.06-12.27-10.47v-17.98h8.21v17.04Z"/>
    <path class="cls-1" d="m150.67,264.57c0-9.22,5.31-14.46,13.83-14.46,7.35,0,12.97,4.85,12.97,11.72h-7.89c-.16-3.13-2.27-5.24-5.08-5.24-3.36,0-5.55,2.97-5.55,7.97s2.11,8.05,5.55,8.05c2.81,0,4.85-2.03,5.08-5.24h7.89c0,6.96-5.55,11.72-12.97,11.72-8.6-.08-13.83-5.31-13.83-14.54Z"/>
    <path class="cls-1" d="m195.6,273.01h-8.52l-1.41,5.55h-8.36l9.07-27.9h10.32l9.07,27.9h-8.75l-1.41-5.55Zm-7.03-5.86h5.55l-2.74-10.16h-.16l-2.66,10.16Z"/>
    <path class="cls-1" d="m208.34,278.56v-27.9h13.76c5.71,0,9.07,2.66,9.07,6.96,0,3.2-2.42,5.63-5.71,6.02v.16c3.75.08,6.96,2.97,6.96,6.64,0,4.92-3.91,8.13-9.85,8.13h-14.22Zm8.21-16.72h3.13c2.11,0,3.36-1.09,3.36-2.81s-1.25-2.81-3.28-2.81h-3.28v5.63h.08Zm3.52,11.1c2.58,0,3.99-1.09,3.99-3.2,0-1.95-1.41-3.13-3.91-3.13h-3.6v6.41h3.52v-.08Z"/>
    <path class="cls-1" d="m242.03,264.57c0-9.22,5.31-14.46,13.83-14.46,7.35,0,12.97,4.85,12.97,11.72h-7.89c-.16-3.13-2.27-5.24-5.08-5.24-3.36,0-5.55,2.97-5.55,7.97s2.11,8.05,5.55,8.05c2.81,0,4.85-2.03,5.08-5.24h7.89c0,6.96-5.55,11.72-12.97,11.72-8.6-.08-13.83-5.31-13.83-14.54Z"/>
    <path class="cls-1" d="m299.32,264.65c0,8.91-5.39,14.46-14.07,14.46s-14.07-5.55-14.07-14.46,5.39-14.46,14.07-14.46c8.68-.08,14.07,5.47,14.07,14.46Zm-19.69,0c0,4.85,2.27,7.89,5.71,7.89s5.71-3.05,5.71-7.89-2.27-7.89-5.71-7.89c-3.44-.08-5.71,3.05-5.71,7.89Z"/>
    <path class="cls-1" d="m326.98,278.56v-16.18h-.16l-6.25,16.18h-4.45l-6.25-16.18h-.16v16.18h-7.11v-27.9h9.53l6.25,16.65h.16l6.17-16.65h9.53v27.9h-7.27Z"/>
    <path class="cls-1" d="m350.82,250.66c6.17,0,10.32,3.99,10.32,10.16s-4.38,10.08-10.94,10.08h-3.99v7.66h-8.21v-27.9h12.82Zm-4.53,14.22h2.27c2.74,0,4.3-1.33,4.3-4.06s-1.64-3.99-4.3-3.99h-2.34v8.05h.08Z"/>
    <path class="cls-1" d="m377.31,273.01h-8.52l-1.41,5.55h-8.36l9.07-27.9h10.24l9.07,27.9h-8.75l-1.33-5.55Zm-7.03-5.86h5.55l-2.74-10.16h-.16l-2.66,10.16Z"/>
    <path class="cls-1" d="m389.97,278.56v-27.9h6.33l10.79,14.54h.16v-14.54h7.74v27.9h-6.25l-10.86-14.69h-.16v14.69h-7.74Z"/>
    <path class="cls-1" d="m427.1,278.56v-8.83l-9.53-19.07h8.75l4.92,11.25h.16l4.92-11.25h8.6l-9.53,19.07v8.83h-8.28Z"/>
  </g>
</svg>