<?xml version="1.0" encoding="UTF-8"?>
<svg id="Layer_1" data-name="Layer 1" xmlns="http://www.w3.org/2000/svg" viewBox="0 0 500 300">
  <defs>
    <style>
      .cls-1 {
        fill: #6a5e50;
      }

      .cls-1, .cls-2, .cls-3, .cls-4, .cls-5 {
        stroke-width: 0px;
      }

      .cls-2 {
        fill: #81c241;
      }

      .cls-3 {
        fill: #fff;
      }

      .cls-4 {
        fill: #766557;
      }

      .cls-5 {
        fill: #645f57;
      }
    </style>
  </defs>
  <path class="cls-3" d="m178.06,157.99s-.02-.06-.03-.08c.01.03.02.05.03.08"/>
  <path class="cls-5" d="m113.11,259.18c.31,0,.5.16.5.48v4.23c0,.32-.19.48-.5.48h-10.93v5.03h10.02c.31,0,.5.16.5.48v4c0,.32-.19.48-.5.48h-10.02v4.87h10.93c.31,0,.5.16.5.48v4.22c0,.32-.19.49-.5.49h-16.26c-.31,0-.47-.16-.47-.52v-24.23c0-.32.16-.52.47-.52h16.26Z"/>
  <path class="cls-5" d="m142.56,259.15c.31,0,.34.23.38.55l2.39,24.19c.03.39-.16.55-.47.55h-4.87c-.32,0-.44-.16-.47-.55l-1.35-14.07-5.05,13.32c-.16.36-.38.52-.69.52h-3.36c-.32,0-.56-.16-.69-.52l-5.05-13.32-1.38,14.07c-.03.39-.16.55-.47.55h-4.87c-.32,0-.5-.16-.47-.55l2.39-24.19c.03-.29.09-.52.41-.52h4.46c1.13,0,1.63.26,2.01,1.29l5.34,14.42,5.34-14.45c.41-1.03.88-1.29,2.01-1.29h4.49Z"/>
  <path class="cls-5" d="m153.86,259.18c.31,0,.47.19.47.52v24.19c0,.39-.16.55-.47.55h-4.87c-.31,0-.47-.16-.47-.55v-24.19c0-.32.16-.52.47-.52h4.87Z"/>
  <path class="cls-5" d="m177.25,267.47c0,4.74-1.23,6.81-4.65,7.58l5.34,8.74c.25.36.09.65-.38.65h-4.9c-.72,0-.94-.23-1.26-.71l-5.12-8.29h-2.01v8.48c0,.42-.1.52-.47.52h-4.87c-.38,0-.47-.1-.47-.52v-24.1c0-.32.09-.42.47-.45,3.08-.26,6.22-.39,9.2-.39,6.78,0,9.1,2.13,9.1,8.48m-12.97-3.29v6.81h3.23c3.02,0,3.83-.65,3.83-3.32s-.82-3.48-3.83-3.48h-3.23Z"/>
  <path class="cls-5" d="m195.78,262.89l5.59,21.03c.06.36-.1.52-.41.52h-4.81c-.28,0-.35-.16-.44-.52l-1.7-6.52h-7.88l-1.76,6.52c-.09.36-.12.52-.41.52h-4.8c-.32,0-.47-.16-.41-.52l5.62-21.03c.97-3.61,1.67-3.9,5.68-3.9s4.74.32,5.71,3.9m-6.25,1.58l-2.1,8.06h5.31l-2.13-8.06c-.12-.42-.16-.52-.56-.52-.34,0-.38.1-.5.52"/>
  <path class="cls-5" d="m218.73,259.18c.31,0,.5.16.5.48v4.23c0,.32-.19.48-.5.48h-6.31v19.55c0,.35-.16.52-.47.52h-4.87c-.31,0-.47-.16-.47-.52v-19.55h-6.28c-.31,0-.47-.16-.47-.48v-4.23c0-.32.16-.48.47-.48h18.4Z"/>
  <path class="cls-5" d="m238.54,259.18c.31,0,.5.16.5.48v4.23c0,.32-.19.48-.5.48h-10.93v5.03h10.02c.31,0,.5.16.5.48v4c0,.32-.19.48-.5.48h-10.02v4.87h10.93c.31,0,.5.16.5.48v4.22c0,.32-.19.49-.5.49h-16.26c-.31,0-.47-.16-.47-.52v-24.23c0-.32.16-.52.47-.52h16.26Z"/>
  <path class="cls-5" d="m257.63,259.73c.47.16.63.32.63.68v3.13c0,.48-.19.65-.63.65h-7.63c-1.51,0-2.33.58-2.33,1.71v.39c0,.9.47,1.58,1.6,2.03l5.43,2.07c3.08,1.19,4.71,2.55,4.71,6.9v.84c0,4.71-3.48,6.48-9.42,6.48-2.23,0-4.71-.23-7.82-.81-.44-.1-.6-.32-.6-.81v-2.9c0-.48.19-.68.66-.68h9.07c1.45,0,2.23-.48,2.23-1.58v-.32c0-1.23-.69-1.71-2.2-2.26l-5.43-2.03c-2.67-.97-4.11-2.68-4.11-7.06v-.71c0-4.71,2.95-6.45,9.07-6.45,2.61,0,4.4.23,6.75.74"/>
  <path class="cls-5" d="m340.17,259.18c.31,0,.5.16.5.48v4.23c0,.32-.19.48-.5.48h-10.08v5.07h9.17c.31,0,.5.16.5.48v3.97c0,.32-.19.48-.5.48h-9.17v9.55c0,.35-.16.52-.47.52h-4.87c-.31,0-.47-.16-.47-.52v-24.23c0-.32.16-.52.47-.52h15.42Z"/>
  <path class="cls-5" d="m360.23,259.18c.31,0,.5.16.5.48v4.23c0,.32-.19.48-.5.48h-10.93v5.03h10.02c.31,0,.5.16.5.48v4c0,.32-.19.48-.5.48h-10.02v4.87h10.93c.31,0,.5.16.5.48v4.22c0,.32-.19.49-.5.49h-16.26c-.31,0-.47-.16-.47-.52v-24.23c0-.32.16-.52.47-.52h16.26Z"/>
  <path class="cls-5" d="m382.97,267.47c0,4.74-1.23,6.81-4.65,7.58l5.34,8.74c.25.36.09.65-.38.65h-4.9c-.72,0-.94-.23-1.26-.71l-5.12-8.29h-2.01v8.48c0,.42-.09.52-.47.52h-4.87c-.38,0-.47-.1-.47-.52v-24.1c0-.32.09-.42.47-.45,3.08-.26,6.22-.39,9.2-.39,6.78,0,9.1,2.13,9.1,8.48m-12.97-3.29v6.81h3.23c3.02,0,3.83-.65,3.83-3.32s-.82-3.48-3.83-3.48h-3.23Z"/>
  <path class="cls-5" d="m403.22,259.18c.31,0,.5.16.5.48v4.23c0,.32-.19.48-.5.48h-6.31v19.55c0,.35-.16.52-.47.52h-4.87c-.31,0-.47-.16-.47-.52v-19.55h-6.28c-.31,0-.47-.16-.47-.48v-4.23c0-.32.16-.48.47-.48h18.4Z"/>
  <path class="cls-1" d="m190.53,166.74c10.86-.91,20.43-3.46,29.12-6.9-5.86-.24-13.45-1.34-21.51-4.59-7.88-3.17-17.28-8.87-24.61-19.06.45,7.59,2,14.89,4.5,21.73.01.03.02.05.03.08,1.15,3.14,2.52,6.17,4.05,9.1,1.39,0,2.77-.03,4.12-.09.27-.05,4.03-.21,4.3-.27"/>
  <path class="cls-1" d="m200.86,149.16c14.69,5.92,29.43,4.58,36.91,1.48,5.11-2.94,9.94-6.02,14.62-9.01,3.05-1.95,6.06-3.87,9.07-5.69-11.39,2.64-22.18,5.11-33.39,5.11-12.7,0-24.06-3.32-34.7-10.16-8.38-5.38-14.13-11.39-18.01-16.63-.64,2.77-1.13,5.59-1.46,8.46,6.55,15.3,17.91,22.8,26.96,26.45"/>
  <path class="cls-1" d="m289.99,130.66c-11.3,1.73-21.98,8.54-34.07,16.25-3.86,2.47-7.83,5-11.97,7.47,1.08-.44,2.15-.87,3.2-1.3,0,0,.48-.21.82-.34.19-.08.38-.15.57-.23,12.25-5.03,22.82-9.37,36.41-9.37,12.33,0,25.99,5.71,38.14,12.75,2.2-6.57,3.54-13.52,3.88-20.75-18.65-7.02-34.08-4.75-36.97-4.48"/>
  <path class="cls-4" d="m204.71,184.46c.32-.25.63-.51.94-.77.1-.09.2-.18.3-.28-2.82.5-5.67,1.02-8.41,1.75-.61.16-1.2.34-1.79.53,1.02,1.03,2.07,2.02,3.15,2.99,1.1-.78,2.22-1.56,3.31-2.35.85-.61,1.7-1.24,2.52-1.88"/>
  <path class="cls-4" d="m284.94,149.45c-11.16,0-20.46,3.4-30.77,7.59v3.21c1.62,1.13,3.28,2.23,4.96,3.29,2.17,1.36,4.42,2.7,6.75,3.89.95.49,1.93.97,2.94,1.38.73.3,1.54.61,2.34.79,1.3.29,2.57.4,3.91.38,1.43-.01,2.86-.14,4.29-.2,5.47-.21,10.94-.59,16.42-.6.78,0,1.47-.06,2.22-.22.58-.12,1.15-.27,1.73-.4,3.84-.81,7.7-1.6,11.55-2.4.48-.14.96-.34,1.42-.54.62-.27,1.23-.57,1.82-.88,1.43-.75,2.83-1.57,4.14-2.44.43-.28.86-.58,1.28-.88-11.37-6.63-23.96-11.99-35-11.99"/>
  <path class="cls-4" d="m221.96,169.79c1.43.06,2.86.19,4.29.2,1.35.01,2.61-.09,3.91-.38.79-.18,1.6-.48,2.33-.79,1.01-.42,1.99-.9,2.94-1.38,2.32-1.2,4.57-2.53,6.75-3.9,1.69-1.06,3.98-2.78,5.6-3.92l-.63.3c-8.46,3.43-18.13,7.07-30.22,9.65,1.68.08,3.35.16,5.03.22"/>
  <path class="cls-4" d="m220.74,197.21c.33-.37.66-.74.96-1.13.13-.16.26-.33.38-.5-3.1.95-6.23,1.93-9.22,3.1,1.42.79,2.86,1.54,4.33,2.24.3-.3.61-.61.91-.91.9-.92,1.8-1.84,2.64-2.79"/>
  <path class="cls-4" d="m242.88,200.63c-.15-.56-.32-1.12-.5-1.67-.08-.23-.18-.54-.31-.79-.74.59-1.35,1.33-1.89,2.04-.4.53-.78,1.07-1.18,1.6l-4.08,5.02c3.14.63,6.35,1.06,9.62,1.3-.17-1-.36-2-.58-2.99-.32-1.51-.67-3.02-1.08-4.51"/>
  <path class="cls-4" d="m277.47,197.9c-1.07-1.12-2.17-2.28-3.44-3.26-1.24-.96-2.68-1.8-4.07-2.61-.59-.34-1.17-.7-1.74-1.06-.84-.52-1.67-1.06-2.5-1.6-2.09-1.36-4.17-2.75-6.2-4.17-.89-.62-1.78-1.26-2.66-1.9.99,3.48,2.07,6.95,3.1,10.43.59,1.98,1.92,3.15,3.27,4.79,2.04,2.48,4.19,4.91,6.17,7.43,4.08-1.05,8.02-2.44,11.81-4.12-.34-.36-.68-.71-1.02-1.06-.91-.96-1.81-1.91-2.73-2.87"/>
  <path class="cls-4" d="m261.14,200.22c-.54-.71-1.14-1.45-1.89-2.04-.13.25-.23.55-.31.79-.19.55-.35,1.11-.5,1.67-.41,1.49-.76,3-1.08,4.51-.21.97-.39,1.95-.56,2.92,3.22-.27,6.38-.74,9.48-1.39l-3.95-4.86c-.4-.53-.78-1.07-1.18-1.59"/>
  <path class="cls-4" d="m315.99,165.27c-.71.38-1.43.76-2.11,1.18,1.43.33,2.96.52,4.45.61.69-1.32,1.34-2.66,1.96-4.03-.74.34-1.42.74-2.13,1.11-.72.37-1.45.74-2.16,1.12"/>
  <path class="cls-4" d="m241.36,193.72c1.03-3.48,2.1-6.94,3.1-10.43-.88.64-1.77,1.27-2.66,1.9-2.03,1.42-4.1,2.81-6.2,4.17-.83.54-1.66,1.07-2.5,1.6-.57.36-1.15.72-1.74,1.06-1.39.81-2.83,1.65-4.07,2.61-1.26.98-2.36,2.14-3.44,3.26-.91.95-1.81,1.91-2.72,2.87-.43.45-.86.9-1.29,1.34,3.83,1.65,7.82,3,11.95,4.01,2.02-2.58,4.22-5.07,6.31-7.6,1.35-1.64,2.69-2.81,3.27-4.79"/>
  <path class="cls-4" d="m215.19,195.69c1.78-.69,3.56-1.39,5.37-2.05.36-.13.72-.29,1.06-.45.5-.23,1-.48,1.49-.73,1.35-.69,2.67-1.43,3.97-2.18,3.42-1.98,6.76-4.1,9.93-6.33,1.77-1.25,3.5-2.55,5.14-3.9,1.46-1.21,2.88-2.49,4.13-3.85.53-2.57.82-5.12.82-7.73,0-.81,0-1.62,0-2.43-1.23.58-2.48,1.13-3.73,1.67-1.49.64-2.98,1.27-4.48,1.9-.33.14-.66.28-.99.41-1.78.85-3.53,1.78-5.25,2.71-1.69.9-3.37,1.82-5.04,2.74-.59.32-1.17.64-1.76.96-.19.1-.38.21-.57.3-.1.05-.21.11-.32.16-2.07.89-4.15,1.77-6.23,2.63-1.36.56-2.72,1.11-4.08,1.67-.87.36-1.74.7-2.6,1.08-.61.27-1.2.55-1.77.86-1.14.63-2.18,1.4-3.2,2.16-.86.64-1.72,1.28-2.58,1.92-1.28.95-2.56,1.89-3.85,2.82-.04.03-.08.06-.12.08,3.15,2.67,6.5,5.11,10.06,7.25.05-.02.11-.03.16-.05,1.51-.48,2.98-1.05,4.45-1.62"/>
  <path class="cls-4" d="m317.8,168.1c-.72-.08-1.44-.16-2.15-.23-.82-.08-1.65-.14-2.47-.11-.87.04-1.71.19-2.55.36-1.44.29-2.87.63-4.29.95-.92.21-1.84.4-2.76.6-.92.2-1.85.4-2.75.64,1.79.24,3.54.56,5.32.91,1.65.32,3.33.65,5.02.81,1.48.13,2.92.12,4.39-.07"/>
  <path class="cls-4" d="m279.61,196.08c.31.39.63.76.96,1.13.85.95,1.74,1.88,2.64,2.79.21.21.41.41.62.62,1.39-.67,2.74-1.4,4.08-2.16-2.83-1.08-5.76-2-8.68-2.89.12.18.25.35.37.5"/>
  <path class="cls-4" d="m304.51,172.85c-1.2-.19-2.39-.4-3.59-.59-.75-.12-1.5-.23-2.25-.33-.5-.06-1.1-.14-1.6-.13-4.67.15-9.35.31-14.03.46-1.16.01-2.33.07-3.48.17-.87.08-1.72.2-2.58.33-.47.07-.94.14-1.42.2l2.19,1.11c1.23.59,2.48,1.17,3.73,1.74,1.59.72,3.19,1.43,4.8,2.13,1.92.83,3.86,1.65,5.83,2.42.78.31,1.58.61,2.38.88.55.19,1.13.39,1.7.52,1.52.35,3.03.73,4.54,1.1,1.24.31,2.48.61,3.74.85.61.12,1.23.21,1.85.29,2.74-2.93,5.27-6.06,7.53-9.39-.6-.24-1.23-.46-1.82-.58-2.48-.47-5.01-.79-7.5-1.19"/>
  <path class="cls-4" d="m295.38,183.42c.1.1.2.19.3.28.3.27.62.52.93.77.82.64,1.67,1.27,2.52,1.88.93.67,1.88,1.33,2.82,2,1.01-.92,1.99-1.87,2.95-2.84-.37-.11-.73-.23-1.1-.33-2.74-.73-5.6-1.25-8.41-1.75"/>
  <path class="cls-4" d="m294.25,185.29c-1.02-.75-2.06-1.53-3.2-2.16-.57-.32-1.17-.6-1.78-.86-.85-.37-1.73-.72-2.6-1.08-1.36-.55-2.73-1.1-4.08-1.67-2.09-.86-4.16-1.74-6.23-2.63-.11-.05-.21-.11-.32-.16-.19-.1-.38-.2-.57-.3-.59-.32-1.18-.64-1.76-.96-1.68-.92-3.35-1.84-5.04-2.74-1.73-.93-3.47-1.85-5.25-2.71-.33-.14-.66-.28-.99-.41-1.5-.63-2.99-1.25-4.48-1.9-1.25-.54-2.5-1.09-3.73-1.67,0,.81.01,1.62.01,2.43,0,2.61.29,5.16.82,7.73,1.24,1.36,2.67,2.64,4.13,3.86,1.64,1.36,3.37,2.66,5.14,3.9,3.17,2.24,6.51,4.36,9.93,6.33,1.3.75,2.62,1.48,3.97,2.18.49.25.98.5,1.49.73.34.16.7.32,1.05.45,1.8.66,3.58,1.36,5.37,2.06,1.33.52,2.67,1.02,4.04,1.48,3.59-2.19,6.97-4.68,10.14-7.41-1.16-.85-2.32-1.7-3.48-2.55-.86-.64-1.72-1.28-2.58-1.92"/>
  <path class="cls-4" d="m253.87,208.17c.28-1.05.5-2.11.74-3.17.47-2.04.97-4.07,1.49-6.1.19-.73.03-1.8-.11-2.54-.21-1.17-.53-2.35-.87-3.5-.3-1.02-.63-2.04-.95-3.06-.25-.8-.52-1.6-.74-2.4-.09-.34-.71-1.78-1.66-3.24-.14-.22-.78-.87-1.13-1.16-.34.29-.98.95-1.13,1.16-.91,1.29-1.56,2.9-1.66,3.24-.22.8-.48,1.6-.74,2.4-.33,1.02-.65,2.04-.95,3.06-.34,1.15-.66,2.33-.87,3.5-.13.74-.3,1.81-.1,2.54.53,2.03,1.03,4.06,1.49,6.1.24,1.05.46,2.12.74,3.17v.02s0,.1,0,.1c.92.03,1.84.07,2.77.07,1.23,0,2.45-.03,3.66-.09v-.08s0-.02,0-.02Z"/>
  <path class="cls-4" d="m200.6,182.87c1.51-.38,3.02-.75,4.54-1.1.57-.13,1.16-.32,1.7-.52.8-.28,1.59-.58,2.38-.88,1.96-.77,3.9-1.59,5.83-2.42,1.61-.7,3.21-1.41,4.8-2.13,1.25-.57,2.5-1.14,3.73-1.73l2.19-1.12c-.47-.06-.95-.13-1.42-.2-.86-.12-1.71-.24-2.58-.33-1.16-.11-2.32-.16-3.49-.18-4.67-.16-9.35-.31-14.02-.46-.51,0-1.11.07-1.61.13-.75.1-1.5.21-2.25.33-1.2.19-2.4.4-3.59.59-2.5.4-5.02.72-7.5,1.19-.8.15-1.69.5-2.46.85.26.4.53.79.79,1.18,2.01,2.82,4.21,5.51,6.58,8.03.89-.1,1.77-.22,2.64-.39,1.26-.24,2.51-.54,3.75-.85"/>
  <path class="cls-4" d="m217.13,232.93c.17.17.36.3.58.39.22.09.45.14.7.14s.48-.05.7-.14c.22-.09.41-.22.57-.39.16-.17.29-.36.39-.58.1-.22.14-.45.14-.7s-.05-.48-.14-.7c-.1-.22-.23-.41-.39-.58-.16-.17-.35-.3-.57-.39-.22-.1-.45-.14-.7-.14s-.48.05-.7.14c-.22.1-.41.23-.58.39-.17.17-.3.36-.39.58-.1.22-.14.45-.14.7s.05.48.14.7c.1.22.23.41.39.58"/>
  <path class="cls-4" d="m221.3,232.93c.17.17.36.3.58.39.22.09.45.14.7.14s.48-.05.7-.14c.22-.09.41-.22.57-.39.16-.17.29-.36.39-.58.1-.22.14-.45.14-.7s-.05-.48-.14-.7c-.1-.22-.23-.41-.39-.58-.16-.17-.35-.3-.57-.39-.22-.1-.45-.14-.7-.14s-.48.05-.7.14c-.22.1-.41.23-.58.39-.17.17-.3.36-.39.58-.1.22-.15.45-.15.7s.05.48.15.7c.1.22.23.41.39.58"/>
  <path class="cls-4" d="m224.17,237.23c-.47-.49-1.01-.86-1.64-1.11-.63-.25-1.29-.38-1.99-.38-.78,0-1.49.16-2.13.47-.64.31-1.18.73-1.63,1.26-.45.53-.8,1.14-1.05,1.84-.25.7-.37,1.43-.37,2.2,0,.83.14,1.55.41,2.16.28.61.65,1.11,1.12,1.5.47.4,1.03.69,1.66.88.64.19,1.32.28,2.03.28.93,0,1.72-.13,2.37-.4.65-.27,1.18-.62,1.58-1.07.4-.45.7-.96.88-1.54.19-.58.28-1.18.28-1.8,0-.93-.14-1.75-.41-2.47-.28-.72-.65-1.32-1.12-1.81m-2.29,5.68c-.32.35-.75.53-1.29.53-.65,0-1.13-.19-1.43-.58-.3-.39-.45-.92-.45-1.61,0-.26.03-.54.1-.83.06-.3.17-.57.32-.81.14-.25.33-.45.57-.61.23-.16.52-.24.86-.24.3,0,.56.07.79.22.23.14.42.34.57.57.15.23.27.5.35.81.08.31.12.62.12.93,0,.74-.16,1.28-.48,1.63"/>
  <path class="cls-4" d="m280.24,236.06h-2.11c-.33,0-.6.27-.6.6v6.03c0,.33-.27.6-.6.6h-.96c-.35,0-.65-.04-.87-.11s-.4-.18-.53-.33c-.13-.15-.22-.33-.27-.55-.05-.22-.07-.49-.07-.79v-3.74c0-.33-.27-.6-.6-.6h-2.14c-.33,0-.6.27-.6.6v4.29c0,.26-.04.47-.12.62-.08.16-.19.28-.33.38-.14.09-.31.16-.51.19-.2.03-.42.05-.67.05-.65,0-1.12-.16-1.41-.48-.29-.32-.43-.75-.43-1.3v-3.74c0-.33-.27-.6-.6-.6h-2.14c-.33,0-.6.27-.6.6v4.29c0,.28-.03.51-.1.67-.06.17-.17.29-.33.38-.15.08-.36.14-.61.16-.25.02-.56.03-.93.03h-4.9c-.1,0-.23-.02-.38-.06-.15-.04-.3-.1-.45-.19-.15-.09-.29-.2-.43-.34-.14-.14-.25-.31-.33-.52.02-.11.03-.23.03-.34v-.36c0-.8-.13-1.52-.38-2.16-.25-.64-.6-1.18-1.03-1.63-.43-.44-.94-.78-1.52-1.02-.58-.24-1.2-.36-1.85-.36-.47,0-.95.06-1.45.19-.5.13-1,.37-1.49.73-.49.36-.97.87-1.43,1.52-.46.65-.88,1.49-1.27,2.54-.15.41-.3.75-.45,1.01s-.3.47-.47.61c-.17.14-.34.25-.53.3-.19.06-.39.08-.62.08h-4.2c-.17,0-.33-.05-.48-.14-.15-.1-.32-.26-.51-.48-.19-.22-.4-.52-.63-.89-.23-.37-.52-.83-.86-1.38l-2.88-4.7c-.16-.26-.51-.34-.77-.18l-2.07,1.32c-.26.17-.34.52-.16.78l2.02,2.98c.22.32.4.59.54.82.14.22.26.41.35.56.09.16.15.29.19.39.03.11.05.21.05.31,0,.23-.1.39-.3.48-.2.09-.5.13-.89.13h-4.5c-.31,0-.55.25-.55.56v1.82c0,.31.25.56.55.56h3.89c.32,0,.65-.01.97-.03.32-.02.63-.07.94-.14.3-.08.6-.19.88-.35.28-.16.55-.37.8-.65.14.24.3.43.46.58.17.15.34.27.52.36.18.09.37.15.57.18s.42.05.64.05h6.19c.28,0,.54,0,.78-.03.25-.01.48-.06.71-.12.23-.07.46-.17.68-.31.22-.14.45-.33.67-.58.75.5,1.47.85,2.17,1.05.7.2,1.38.3,2.07.3.9,0,1.68-.17,2.32-.5.65-.34,1.15-.8,1.51-1.39.18.34.36.61.56.82.19.21.39.36.59.48.2.11.4.19.61.23.07.01.14.01.21.02,0,0,0,0,.01,0,.12.02.25.04.39.04h4.85c.56,0,1.08-.02,1.56-.04.47-.03.9-.09,1.28-.18.38-.09.72-.23,1.02-.41.3-.18.56-.42.79-.71.7.9,1.93,1.34,3.69,1.34.3,0,.6-.02.9-.05.3-.03.59-.1.87-.19.28-.1.54-.23.8-.41.25-.18.49-.41.71-.69.16.21.34.4.53.56s.42.3.68.42c.26.11.56.2.91.27.34.06.74.1,1.2.1h3.26c.33,0,.6-.27.6-.6v-8.96c0-.33-.27-.6-.6-.6m-28.39,6.95c-.3.31-.72.47-1.26.47-.43,0-.86-.08-1.29-.22-.42-.15-.82-.34-1.18-.58.14-.58.32-1.08.52-1.51.2-.42.41-.78.63-1.05.22-.28.45-.48.68-.62.23-.13.45-.2.66-.2.31,0,.57.06.78.19.22.13.39.3.53.51.14.21.24.44.3.7s.09.51.09.76c0,.72-.15,1.23-.45,1.54"/>
  <path class="cls-4" d="m290.69,228.93h-1.34c-.4,0-.68-.08-.82-.24-.15-.16-.22-.36-.22-.59s.07-.43.21-.58.38-.22.72-.22c.18,0,.49.05.94.14v-1.68c-.19-.06-.39-.12-.6-.17-.21-.05-.46-.07-.74-.07s-.56.05-.84.15c-.28.1-.53.25-.74.45-.22.2-.4.44-.53.73-.14.29-.21.63-.21,1.02,0,.15.02.34.06.54.03.21.1.39.19.52h-1.02v1.79h4.96v-1.79Z"/>
  <path class="cls-4" d="m304.68,228.53h-2.26c-.3,0-.54.24-.54.54v13.69c0,.3-.24.54-.54.54h-2.39c-.4,0-.74-.03-1.01-.1-.27-.06-.49-.17-.65-.31-.16-.14-.28-.33-.34-.55-.07-.23-.1-.5-.1-.82v-12.45c0-.3-.24-.54-.54-.54h-2.25c-.3,0-.54.24-.54.54v12.74c0,.31-.03.57-.08.77-.05.2-.14.35-.27.45-.12.1-.29.17-.48.21-.2.04-.44.06-.73.06h-1.37c-.3,0-.54-.24-.54-.54v-10.03c0-.3-.24-.54-.54-.54h-2.26c-.3,0-.54.24-.54.54v10.03c0,.3-.24.54-.54.54h-2.66c-.3,0-.54.24-.54.54v1.85c0,.3.24.54.54.54h9.01c.36,0,.71-.01,1.06-.04.35-.02.69-.08,1.01-.17.32-.09.62-.22.9-.39.28-.17.52-.41.72-.72.15.27.34.5.55.67.21.17.44.31.68.41.24.1.49.16.75.19.26.03.51.05.76.05h5.73c.3,0,.54-.24.54-.54v-16.61c0-.3-.24-.54-.54-.54"/>
  <path class="cls-4" d="m98.53,231.67c.17.17.36.3.57.39.22.09.45.14.7.14s.48-.05.7-.14c.22-.09.41-.22.57-.39.16-.17.29-.36.39-.57.1-.22.14-.45.14-.7s-.05-.48-.14-.7c-.1-.22-.23-.41-.39-.58-.16-.17-.35-.3-.57-.39-.22-.1-.45-.14-.7-.14s-.48.05-.7.14c-.22.1-.41.23-.57.39-.17.17-.3.36-.39.58-.1.22-.14.45-.14.7s.05.48.14.7c.1.22.23.41.39.57"/>
  <path class="cls-4" d="m102.69,231.67c.17.17.36.3.57.39.22.09.45.14.7.14s.48-.05.7-.14c.22-.09.41-.22.57-.39.16-.17.29-.36.39-.57.1-.22.14-.45.14-.7s-.05-.48-.14-.7c-.1-.22-.23-.41-.39-.58-.16-.17-.35-.3-.57-.39-.22-.1-.45-.14-.7-.14s-.48.05-.7.14c-.22.1-.41.23-.57.39-.17.17-.3.36-.39.58-.1.22-.14.45-.14.7s.05.48.14.7c.1.22.23.41.39.57"/>
  <path class="cls-4" d="m119.42,249.24c-.16-.16-.35-.29-.57-.39-.22-.1-.45-.14-.7-.14s-.48.05-.7.14c-.22.1-.41.23-.57.39-.17.16-.3.35-.39.57-.1.22-.15.45-.15.7s.05.48.15.7c.1.22.23.41.39.58.17.17.36.3.57.39.22.1.45.14.7.14s.48-.05.7-.14c.22-.1.41-.23.57-.39.16-.17.29-.36.39-.58.1-.22.15-.45.15-.7s-.05-.48-.15-.7c-.1-.22-.23-.41-.39-.57"/>
  <path class="cls-4" d="m123.59,249.24c-.16-.16-.35-.29-.57-.39-.22-.1-.45-.14-.7-.14s-.48.05-.7.14c-.22.1-.41.23-.57.39-.17.16-.3.35-.39.57-.1.22-.14.45-.14.7s.05.48.14.7.23.41.39.58c.17.17.36.3.57.39.22.1.45.14.7.14s.48-.05.7-.14c.22-.1.41-.23.57-.39.16-.17.29-.36.39-.58s.14-.45.14-.7-.05-.48-.14-.7c-.1-.22-.23-.41-.39-.57"/>
  <path class="cls-4" d="m135.68,249.19c-.17-.16-.36-.29-.57-.39-.22-.1-.45-.15-.7-.15s-.48.05-.7.15c-.22.1-.41.23-.58.39-.17.16-.3.35-.39.57-.09.22-.14.45-.14.7s.05.48.14.7c.09.22.22.41.39.57.17.17.36.3.58.39.22.1.45.14.7.14s.48-.05.7-.14c.22-.1.41-.23.57-.39.17-.17.3-.36.39-.57.1-.22.14-.45.14-.7s-.05-.48-.14-.7c-.1-.22-.23-.41-.39-.57"/>
  <path class="cls-4" d="m139.42,238.03c-.56-.77-1.3-1.39-2.22-1.85-.91-.46-2.03-.69-3.36-.69-.36,0-.71.02-1.06.07-.35.05-.69.1-1.01.17-.32.07-.61.14-.89.22-.28.08-.51.15-.71.22v2.97c.3-.09.6-.17.91-.23s.6-.12.87-.16c.27-.04.52-.07.74-.08.22-.01.4-.02.53-.02.81,0,1.49.11,2.03.34.55.23.99.55,1.33.96.34.41.59.9.76,1.48.17.57.28,1.2.33,1.89h-12.85c-.42,0-.77-.03-1.06-.1-.29-.06-.52-.17-.69-.31-.17-.14-.3-.32-.37-.55-.08-.23-.12-.5-.12-.82v-5.02c0-.24-.2-.44-.44-.44h-2.43c-.24,0-.44.2-.44.44v5.31c0,.32-.03.57-.08.77-.05.2-.14.35-.27.45s-.29.17-.49.21c-.2.04-.44.06-.73.06h-10.81c-.18,0-.32-.02-.43-.05-.11-.03-.2-.09-.26-.17-.06-.08-.1-.19-.13-.32-.02-.13-.04-.3-.04-.5v-7.62h-4.38c-.61,0-1.24.09-1.87.27-.63.18-1.21.48-1.73.88-.52.41-.95.93-1.28,1.58-.33.65-.5,1.43-.5,2.36,0,.64.08,1.19.24,1.67.16.47.38.89.64,1.23.27.35.57.63.91.86.34.23.7.41,1.06.54.36.13.72.23,1.07.28.35.05.67.08.95.08.31,0,.61-.02.92-.06.3-.04.6-.09.9-.16.13.41.32.75.56,1.02.25.27.53.48.85.63.32.15.67.26,1.06.32.38.06.78.09,1.19.09h11.61c.34,0,.68-.01,1.04-.03.35-.03.69-.08,1.02-.17.33-.09.63-.22.91-.39.28-.17.53-.41.73-.72.17.28.37.51.59.68.23.17.47.31.72.4.25.09.52.16.78.19.27.03.53.05.79.05h15c.65,0,1.18-.53,1.18-1.18v-1.21c0-1.09-.12-2.14-.37-3.14-.25-1.01-.65-1.89-1.22-2.67m-36.72,3.26c-.25.09-.49.14-.72.16-.23.01-.45.02-.66.02-.36,0-.66-.06-.9-.17-.23-.11-.42-.26-.55-.44-.13-.18-.22-.39-.27-.61-.05-.23-.07-.45-.07-.67,0-.55.16-.99.47-1.31.31-.33.78-.49,1.42-.49h1.28v3.51Z"/>
  <path class="cls-4" d="m161.04,228.53h-2.07c-.35,0-.63.29-.63.64v13.49c0,.35-.29.64-.64.64h-3.91v-1.18c0-.98-.09-1.87-.26-2.68-.17-.81-.46-1.51-.85-2.09-.4-.59-.92-1.04-1.56-1.36-.64-.32-1.43-.49-2.37-.49-.84,0-1.58.16-2.23.47-.65.31-1.19.73-1.63,1.25-.44.52-.77,1.11-1.01,1.77-.23.66-.34,1.34-.34,2.04,0,.95.13,1.76.38,2.42.25.66.61,1.2,1.07,1.61.45.41,1,.71,1.63.9.63.19,1.32.28,2.08.28h1.59c-.05.34-.14.68-.27,1.02-.13.34-.37.66-.72.93-.35.28-.83.51-1.45.68-.62.18-1.44.27-2.46.27h-.59v3.1h.79c1.52,0,2.77-.14,3.75-.42.98-.28,1.77-.68,2.37-1.2.59-.52,1.03-1.15,1.32-1.9.29-.74.49-1.57.61-2.49h7.41c.35,0,.63-.28.63-.64v-16.42c0-.35-.28-.64-.63-.64m-10.62,14.77h-1.69c-.58,0-1.04-.18-1.39-.53-.34-.35-.51-.92-.51-1.69,0-.39.03-.74.1-1.06.07-.32.17-.59.32-.82.14-.23.32-.41.55-.53.23-.12.5-.19.81-.19.35,0,.64.07.87.21.23.14.42.34.56.59.14.25.24.55.3.9.06.35.09.73.09,1.14v1.98Z"/>
  <path class="cls-4" d="m184.3,249.24c-.16-.16-.35-.29-.57-.39-.22-.1-.45-.14-.7-.14s-.48.05-.7.14c-.22.1-.41.23-.57.39-.17.16-.3.35-.39.57-.1.22-.14.45-.14.7s.05.48.14.7.23.41.39.58c.17.17.36.3.57.39.22.1.45.14.7.14s.48-.05.7-.14c.22-.1.41-.23.57-.39.16-.17.29-.36.39-.58s.14-.45.14-.7-.05-.48-.14-.7c-.1-.22-.23-.41-.39-.57"/>
  <path class="cls-4" d="m180.14,249.24c-.16-.16-.35-.29-.57-.39-.22-.1-.45-.14-.7-.14s-.48.05-.7.14c-.22.1-.41.23-.57.39-.17.16-.3.35-.39.57-.1.22-.15.45-.15.7s.05.48.15.7c.1.22.23.41.39.58.17.17.36.3.57.39.22.1.45.14.7.14s.48-.05.7-.14c.22-.1.41-.23.57-.39.16-.17.29-.36.39-.58.1-.22.15-.45.15-.7s-.05-.48-.15-.7c-.1-.22-.23-.41-.39-.57"/>
  <path class="cls-4" d="m191.57,249.17c-.17-.16-.36-.29-.57-.39-.22-.1-.45-.14-.7-.14s-.48.05-.7.14c-.22.1-.41.23-.58.39-.17.16-.29.35-.39.57-.09.22-.14.45-.14.7s.05.48.14.7c.09.22.22.41.39.57.17.17.36.3.58.39.22.1.45.14.7.14s.48-.05.7-.14c.22-.1.41-.23.57-.39.17-.17.3-.36.39-.57.1-.22.14-.45.14-.7s-.05-.48-.14-.7c-.1-.22-.23-.41-.39-.57"/>
  <path class="cls-4" d="m199.68,228.53h-2c-.37,0-.67.3-.67.67v13.43c0,.37-.3.67-.67.67h-2.26c-.41,0-.75-.03-1.03-.1-.27-.06-.49-.17-.65-.31s-.27-.33-.33-.55c-.06-.23-.1-.5-.1-.82v-4.81c0-.35-.29-.64-.64-.64h-2.05c-.36,0-.64.29-.64.64v5.11c0,.31-.03.57-.08.77-.05.2-.14.35-.27.45s-.29.17-.48.21c-.2.04-.44.06-.73.06h-1.54c-.42,0-.77-.03-1.06-.1-.29-.06-.52-.17-.69-.31-.17-.14-.3-.33-.37-.55-.08-.23-.12-.5-.12-.82v-4.75c0-.39-.32-.71-.71-.71h-1.9c-.39,0-.71.32-.71.71v5.04c0,.31-.03.57-.08.77s-.14.35-.27.45-.29.17-.48.21c-.2.04-.44.06-.73.06h-3.65v-1.18c0-.98-.09-1.87-.26-2.68-.17-.81-.46-1.51-.85-2.09-.4-.59-.91-1.04-1.56-1.36-.64-.32-1.43-.49-2.37-.49-.84,0-1.58.16-2.23.47-.65.31-1.19.73-1.63,1.25-.44.52-.77,1.11-1,1.77-.23.66-.35,1.34-.35,2.04,0,.95.13,1.76.38,2.42.25.66.61,1.2,1.07,1.61.45.41,1,.71,1.63.9.63.19,1.32.28,2.08.28h1.59c-.05.34-.14.68-.27,1.02-.13.34-.37.66-.72.93-.35.28-.83.51-1.45.68-.62.18-1.44.27-2.46.27h-.59v3.1h.79c1.52,0,2.77-.14,3.75-.42.98-.28,1.77-.68,2.37-1.2.59-.52,1.03-1.15,1.32-1.9.29-.74.49-1.57.61-2.49h4.36c.34,0,.68-.01,1.03-.04.35-.02.69-.08,1.02-.17.33-.09.63-.22.91-.39.28-.17.53-.41.73-.72.17.28.37.51.59.68.23.17.47.31.72.4.25.09.51.16.78.19.27.03.53.05.79.05h2.08c.34,0,.7-.01,1.05-.04.35-.02.69-.08,1.01-.17s.63-.22.91-.39c.28-.17.53-.41.75-.72.18.28.38.51.59.68.22.17.44.31.68.4.23.09.48.16.73.19.25.03.5.05.75.05h5.6c.37,0,.67-.3.67-.67v-16.36c0-.37-.3-.67-.67-.67m-28.28,14.77h-1.69c-.58,0-1.04-.18-1.39-.53-.34-.35-.51-.92-.51-1.69,0-.39.03-.74.1-1.06.07-.32.17-.59.32-.82.14-.23.32-.41.55-.53.23-.12.5-.19.81-.19.35,0,.64.07.87.21.23.14.42.34.56.59.14.25.24.55.3.9.06.35.09.73.09,1.14v1.98Z"/>
  <path class="cls-4" d="m206.34,228.53h-2.26c-.3,0-.54.24-.54.54v16.61c0,.3.24.54.54.54h2.26c.3,0,.54-.24.54-.54v-16.61c0-.3-.24-.54-.54-.54"/>
  <path class="cls-4" d="m334.03,236.06h-2.04c-.36,0-.65.29-.65.65v5.93c0,.36-.29.65-.65.65h-10.34c-.57,0-1.05-.02-1.42-.07-.37-.04-.67-.13-.89-.25-.22-.12-.37-.28-.46-.49-.09-.21-.13-.47-.13-.78v-3.09c0-.36-.29-.65-.65-.65h-2.04c-.36,0-.65.29-.65.65v3.56c0,.73.08,1.36.26,1.87.17.51.47.93.88,1.25.41.32.96.56,1.63.7.68.14,1.52.22,2.53.22h14.62c.36,0,.65-.29.65-.65v-8.86c0-.36-.29-.65-.65-.65"/>
  <path class="cls-4" d="m325.34,234.43c.17.17.36.3.57.39.22.09.45.14.7.14s.48-.05.7-.14c.22-.09.41-.22.57-.39.16-.17.29-.36.39-.57.1-.22.14-.45.14-.7s-.05-.48-.14-.7c-.1-.22-.23-.41-.39-.58-.16-.17-.35-.3-.57-.39-.22-.1-.45-.14-.7-.14s-.48.05-.7.14c-.22.1-.41.23-.57.39-.17.17-.3.36-.39.58-.1.22-.14.45-.14.7s.05.48.14.7c.1.22.23.41.39.57"/>
  <path class="cls-4" d="m321.18,234.43c.17.17.36.3.58.39.22.09.45.14.7.14s.48-.05.7-.14c.22-.09.41-.22.57-.39.16-.17.29-.36.39-.57.1-.22.14-.45.14-.7s-.05-.48-.14-.7c-.1-.22-.23-.41-.39-.58-.16-.17-.35-.3-.57-.39-.22-.1-.45-.14-.7-.14s-.48.05-.7.14c-.22.1-.41.23-.58.39-.17.17-.3.36-.39.58-.1.22-.14.45-.14.7s.05.48.14.7c.1.22.23.41.39.57"/>
  <path class="cls-4" d="m348.61,236.06h-1.97c-.38,0-.69.31-.69.69v9.35c0,.67-.05,1.21-.16,1.61-.11.4-.27.71-.48.92-.22.21-.49.35-.82.41-.33.06-.72.1-1.17.1h-.4v3.1h.79c.97,0,1.8-.1,2.51-.31.7-.21,1.28-.55,1.74-1.03.46-.48.8-1.1,1.02-1.88.22-.78.33-1.73.33-2.87v-9.4c0-.38-.31-.69-.69-.69"/>
  <path class="cls-4" d="m380.14,237.69c-.43-.44-.94-.78-1.52-1.02-.58-.24-1.2-.36-1.85-.36-.47,0-.95.06-1.45.19-.5.13-1,.37-1.49.73-.49.36-.97.87-1.43,1.52-.46.65-.88,1.49-1.27,2.54-.15.41-.3.75-.45,1.01s-.3.47-.47.61c-.17.14-.34.25-.53.3s-.39.08-.62.08h-12.18c-.2,0-.38-.01-.53-.05-.15-.03-.28-.1-.38-.19s-.18-.23-.23-.42c-.06-.18-.08-.42-.08-.72v-12.79c0-.33-.27-.6-.6-.6h-2.15c-.33,0-.6.27-.6.6v13.24c0,.74.1,1.36.29,1.86.19.5.46.89.82,1.19.35.3.77.5,1.25.63.48.12,1.01.19,1.59.19h13.56c.28,0,.54,0,.78-.03.25-.01.48-.06.71-.12.23-.07.46-.17.68-.31.22-.14.45-.33.67-.58.75.5,1.47.85,2.17,1.05.7.2,1.38.3,2.07.3.77,0,1.44-.13,2.02-.38.58-.25,1.07-.6,1.45-1.05.39-.45.68-.98.87-1.6.19-.62.29-1.29.29-2.03,0-.8-.13-1.52-.38-2.16-.25-.64-.6-1.18-1.03-1.63m-2.38,5.32c-.3.31-.72.47-1.26.47-.43,0-.86-.08-1.29-.22-.42-.15-.82-.34-1.18-.58.14-.58.32-1.08.52-1.51.2-.42.41-.78.63-1.05.22-.28.45-.48.68-.62.23-.13.45-.2.66-.2.31,0,.57.06.78.19.22.13.39.3.53.51.14.21.24.44.3.7s.09.51.09.76c0,.72-.15,1.23-.45,1.54"/>
  <path class="cls-4" d="m389.35,251.01c-.13-.04-.24-.1-.32-.18-.08-.08-.14-.16-.17-.26-.03-.1-.05-.2-.05-.3,0-.24.07-.43.21-.58.14-.15.38-.22.72-.22.09,0,.21.01.37.03.16.03.35.07.58.12v-1.72c-.19-.06-.39-.12-.6-.17-.21-.05-.46-.07-.74-.07s-.56.05-.84.15c-.28.1-.53.25-.74.45-.22.2-.4.45-.53.75-.14.3-.21.65-.21,1.04,0,.14.02.31.06.51.03.2.1.37.19.51h-1.02v1.79h4.96v-1.79h-1.34c-.2,0-.37-.02-.5-.07"/>
  <path class="cls-4" d="m403.08,228.53h-2.26c-.3,0-.54.24-.54.54v16.61c0,.3.24.54.54.54h2.26c.3,0,.54-.24.54-.54v-16.61c0-.3-.24-.54-.54-.54"/>
  <path class="cls-4" d="m340.51,228.53h-2.26c-.3,0-.54.24-.54.54v16.61c0,.3.24.54.54.54h2.26c.3,0,.54-.24.54-.54v-16.61c0-.3-.24-.54-.54-.54"/>
  <path class="cls-4" d="m396.77,228.53h-2.36c-.27,0-.49.22-.49.49v13.79c0,.27-.22.49-.49.49h-2.49c-.27,0-.49-.22-.49-.49v-10.13c0-.27-.22-.49-.49-.49h-2.36c-.27,0-.49.22-.49.49v10.13c0,.27-.22.49-.49.49h-2.76c-.27,0-.49.22-.49.49v1.95c0,.27.22.49.49.49h11.52c1.04,0,1.89-.85,1.89-1.89v-15.32c0-.27-.22-.49-.49-.49"/>
  <path class="cls-2" d="m287.02,265.99c0,3.71-1.04,5.29-3.89,5.77v.1c3.33.32,4.43,2.03,4.43,5.77,0,5.19-2.48,6.97-8.85,6.97-2.95,0-6.66-.13-9.73-.39-.38-.03-.47-.13-.47-.45v-23.93c0-.32.1-.42.47-.45,3.08-.26,6.16-.39,9.14-.39,6.44,0,8.92,1.87,8.92,7m-12.72-1.81v5.51h2.89c2.92,0,3.93-.55,3.93-2.71s-1.01-2.81-3.64-2.81h-3.17Zm0,9.68v5.55h3.86c2.51,0,3.49-.64,3.49-2.68,0-2.16-1.04-2.87-3.45-2.87h-3.89Z"/>
  <path class="cls-2" d="m296.09,259.18c.31,0,.47.19.47.52v24.19c0,.39-.16.55-.47.55h-4.87c-.31,0-.47-.16-.47-.55v-24.19c0-.32.16-.52.47-.52h4.87Z"/>
  <path class="cls-2" d="m320.89,271.83c0,9.84-2.32,12.77-10.49,12.77s-10.45-2.94-10.45-12.77,2.29-12.84,10.45-12.84,10.49,2.94,10.49,12.84m-15.07,0c0,5.71.82,7.58,4.58,7.58s4.59-1.87,4.59-7.58-.78-7.65-4.59-7.65-4.58,1.87-4.58,7.65"/>
  <path class="cls-2" d="m274.62,90.31c-5.88,0-11.81,2.66-21.8,4.8-.15-7.13-.57-27.71-.7-34.15-.03-1.45.3-2.89,1.04-4.14.35-.6,1.08-1.36,1.71-1.88.29.03.59.04.89-.03,3.79-.85,7.78,1.26,15.45-.05,22.58-3.87,23.78-31.87,23.74-38.6,0-.67-.73-1.08-1.31-.75-1.55.89-3.7,2.12-5.81,2.21-29.2,1.2-34.65,22.69-35.35,34.34,0,.04,0,.09,0,.13-.86.75-2.14,2.39-2.67,3.49-.4-.82-1.21-1.93-1.95-2.76.07-.27.11-.56.09-.86-.84-11.65-6.53-33.07-35.75-33.93-2.11-.06-4.28-1.27-5.84-2.14-.58-.33-1.3.1-1.3.76.04,6.72,1.57,34.71,24.19,38.32,7.69,1.23,11.66-.93,15.46-.12.03,0,.06,0,.08,0,.62.52,1.33,1.27,1.68,1.85.74,1.25,1.07,2.69,1.04,4.14-.13,6.82-.6,29.5-.72,35.27-5.69.9-12.52,1.54-20.99,1.54-2.61,0-5.37-.06-8.3-.19.43,2.54,2.62,10.33,18.2,11.05,4.48.21,7.51.13,9.77.24,7.03.32,8.37.82,8.37.82,0,0-12.75,7.5-30.13,7.5-8.16,0-17.33-1.65-26.68-6.51-11.87-6.16-17.4-10.45-17.4-10.45,0,0,4.03,14.51,21.55,26.02,10.06,6.61,19.81,8.87,29.6,8.87,18.51,0,37.16-8.08,58.26-10.07,1.9-.28,3.82-.44,5.78-.44v.06c1.09-.04,2.19-.07,3.3-.07,9.06,0,18.59,1.39,28.77,5.18.05-.55-16.48-39.45-52.29-39.45m-6.83-57.75c5.07-4.56,12.19-8.62,21.58-11.43,0,0-8.69,4.66-18.1,12.64-5.65,4.79-11.55,10.78-16,17.69,0,0,2.59-9.97,12.52-18.9m-38.81,1.45c-9.5-7.88-18.24-12.43-18.24-12.43,9.41,2.69,16.58,6.67,21.71,11.17,10.04,8.82,12.74,18.75,12.74,18.75-4.53-6.85-10.51-12.77-16.21-17.5"/>
</svg>