<?xml version="1.0" encoding="UTF-8"?>
<svg id="Layer_1" data-name="Layer 1" xmlns="http://www.w3.org/2000/svg" viewBox="0 0 500 300">
  <defs>
    <style>
      .cls-1 {
        fill: #ec1c24;
      }

      .cls-1, .cls-2 {
        stroke-width: 0px;
      }

      .cls-2 {
        fill: #101010;
      }
    </style>
  </defs>
  <g>
    <path class="cls-2" d="m164.75,207.9l-17.31,2.6-2.4-7.45-11.29,1.7-.22,7.84-17.31,2.6,5.87-62.42,20.49-3.08,22.17,58.2Zm-23.61-17.46l-2.14-6.85s-.14-.36-.32-1.03c-.14-.56-.76-2.78-1.86-6.65-.12-.43-.28-1.03-.47-1.78-.2-.75-.45-1.7-.76-2.85l-1.38-5.61c.03.55.05,1.17.05,1.86,0,.69.02,1.45.04,2.26.05,1.64.09,2.78.1,3.42.01.63.01,1.02,0,1.16l-.07,7.46-.27,9.68,7.07-1.06Z"/>
    <path class="cls-2" d="m165.31,212.28v-60.85h19.71c7.37,0,12.83,1.58,16.37,4.73,3.6,3.23,5.4,7.41,5.4,12.53,0,7.62-3.9,11.74-11.7,12.37,4.44.63,7.7,2.05,9.77,4.26,2.07,2.21,3.11,5.39,3.11,9.54,0,5.23-1.75,9.43-5.24,12.61-3.47,3.21-8.03,4.81-13.69,4.81h-23.73Zm16.95-37.2h1.14c2.03,0,3.63-.46,4.81-1.38,1.18-.92,1.77-2.21,1.77-3.86,0-3.52-1.99-5.28-5.97-5.28-.19,0-.43,0-.71.02-.29.02-.63.04-1.03.06v10.45Zm0,24c.32.03.61.05.85.06.24.01.45.02.61.02,2.12,0,3.8-.54,5.06-1.62,1.26-1.08,1.89-2.53,1.89-4.34s-.63-3.23-1.89-4.26c-1.26-1.02-2.98-1.54-5.18-1.54h-1.34v11.67Z"/>
    <path class="cls-2" d="m213.86,210.78v-19.11c3.33,4.41,6.94,6.62,10.81,6.62,1.46,0,2.66-.37,3.58-1.12.92-.75,1.38-1.69,1.38-2.82,0-1.63-1-3.22-3.01-4.77l-2.76-2.09c-1.84-1.34-3.41-2.68-4.71-4-1.3-1.33-2.36-2.69-3.17-4.1-.81-1.4-1.41-2.86-1.79-4.35s-.57-3.08-.57-4.73c0-2.84.68-5.8,2.03-8.91.68-1.44,1.47-2.76,2.36-3.96.89-1.2,1.92-2.26,3.09-3.18,3.2-2.62,7.06-3.94,11.58-3.94,4.04,0,8.1,1.04,12.19,3.11v18.6c-1.38-2.08-2.95-3.71-4.71-4.91-1.76-1.2-3.5-1.79-5.2-1.79-1.3,0-2.37.37-3.21,1.11-.86.71-1.3,1.56-1.3,2.56,0,1.63,1.15,3.24,3.46,4.85l2.68,1.93c3.58,2.5,6.13,5.06,7.68,7.69,1.57,2.63,2.36,5.7,2.36,9.22,0,5.99-1.88,10.93-5.65,14.82-3.76,3.89-8.53,5.84-14.3,5.84-3.98,0-8.25-.86-12.8-2.56Z"/>
    <path class="cls-2" d="m299.34,182.05c0,9.28-2.18,16.82-6.54,22.62-4.33,5.78-9.98,8.67-16.94,8.67-6.17,0-11.47-2.22-15.89-6.66-5.55-5.62-8.33-14.06-8.33-25.3s2.9-19.01,8.7-24.71c4.3-4.23,9.41-6.35,15.31-6.35,7.23,0,12.99,2.86,17.27,8.59,4.28,5.73,6.42,13.44,6.42,23.14Zm-17.59.12c0-11.01-2.01-16.51-6.01-16.51-2.01,0-3.61,1.44-4.8,4.33-1.16,2.68-1.75,6.62-1.75,11.83s.55,9.09,1.65,11.92c1.1,2.82,2.62,4.24,4.57,4.24s3.55-1.39,4.63-4.18c1.14-2.79,1.71-6.66,1.71-11.62Z"/>
    <path class="cls-2" d="m336.23,212.28h-29.66v-60.85h16.95v46.23h12.72v14.62Z"/>
    <path class="cls-2" d="m366.95,151.43h16.94v43.04c0,3.6-.58,6.52-1.75,8.75-1.14,2.34-3.03,4.45-5.69,6.35-3.58,2.52-7.92,3.78-13.04,3.78-5.8,0-10.66-1.39-14.59-4.18-4.98-3.55-7.48-9.22-7.48-17.02v-40.72h16.95v39.25c0,2.66.33,4.53.99,5.63.67,1.11,1.78,1.66,3.35,1.66s2.75-.51,3.37-1.54c.62-1.08.94-2.98.94-5.71v-39.3Z"/>
    <path class="cls-2" d="m414.56,212.28h-16.94v-46.27h-9.34v-14.58h36v14.58h-9.71v46.27Z"/>
    <path class="cls-2" d="m428.66,212.28v-60.85h31.49v14.31h-14.55v8.87h13.04v13.75h-13.04v9.3h14.55v14.62h-31.49Z"/>
    <path class="cls-2" d="m97.61,271.68l-17.16,3.49-2.77-7.32-11.19,2.27.18,7.84-17.16,3.49,2.65-62.63,20.31-4.13,25.13,56.99Zm-24.48-11.95l-2.49-6.73s-.16-.36-.37-1.01c-.17-.55-.9-2.74-2.2-6.55-.14-.43-.33-1.01-.56-1.76-.24-.74-.54-1.68-.91-2.81l-1.66-5.53c.06.55.11,1.17.15,1.86.04.69.09,1.44.15,2.26.14,1.64.23,2.77.28,3.41.04.63.06,1.02.06,1.15l.32,7.46.22,9.69,7.01-1.42Z"/>
    <path class="cls-2" d="m101.49,281.45v-60.85h14.63c8.37,0,14.88,2.18,19.54,6.54,6.12,5.7,9.18,13.68,9.18,23.93s-2.58,17.88-7.76,23.37c-4.41,4.68-11,7.02-19.75,7.02h-15.84Zm16.95-14.7c6.06-.29,9.1-5.36,9.1-15.21,0-4.86-.77-8.7-2.32-11.51-1.54-2.84-3.63-4.26-6.26-4.26h-.52v30.98Z"/>
    <path class="cls-2" d="m177.99,281.45h-17.26l-14.38-60.85h17.79l3.09,17.38c1.16,6.65,2.09,14.08,2.8,22.3.3-3.65.67-7.07,1.1-10.25.43-3.18.95-6.28,1.54-9.3l4.02-20.14h18.41l-17.11,60.85Z"/>
    <path class="cls-2" d="m199.49,281.45v-60.85h31.49v14.31h-14.55v8.87h13.04v13.75h-13.04v9.3h14.55v14.62h-31.49Z"/>
    <path class="cls-2" d="m238.2,281.45v-60.85h16.17l8.49,21.36c.46,1.26.98,2.71,1.56,4.33.58,1.63,1.23,3.51,1.93,5.64l1.75,5.36c-.62-5.28-1.1-9.8-1.42-13.56-.33-3.76-.49-6.91-.49-9.46v-13.68h16.17v60.85h-16.17l-8.53-22.39c-.89-2.39-1.7-4.63-2.42-6.72-.72-2.09-1.35-4.08-1.89-5.97.35,4.28.61,8.01.77,11.19.16,3.18.24,5.97.24,8.36v15.53h-16.17Z"/>
    <path class="cls-2" d="m313.04,281.45h-16.94v-46.27h-9.34v-14.58h36v14.58h-9.71v46.27Z"/>
    <path class="cls-2" d="m352.74,220.6h16.94v43.04c0,3.6-.58,6.52-1.75,8.75-1.14,2.34-3.03,4.45-5.69,6.35-3.58,2.52-7.92,3.78-13.04,3.78-5.8,0-10.66-1.39-14.59-4.18-4.98-3.55-7.48-9.22-7.48-17.02v-40.72h16.95v39.25c0,2.66.33,4.53.99,5.63.67,1.11,1.78,1.66,3.35,1.66s2.75-.51,3.37-1.54c.62-1.08.94-2.98.94-5.71v-39.3Z"/>
    <path class="cls-2" d="m423.06,281.45h-18.32l-8.37-21.67c-.08-.37-.22-.85-.43-1.46-.2-.6-.45-1.33-.75-2.17l.12,4.02v21.28h-16.86v-60.85h17.35c7.64,0,13.35,1.46,17.14,4.38,4.82,3.73,7.23,9.04,7.23,15.92,0,7.36-3.24,12.44-9.71,15.25l12.6,25.3Zm-27.67-32.67h1.14c1.95,0,3.58-.72,4.87-2.17,1.3-1.44,1.95-3.28,1.95-5.52,0-4.55-2.45-6.82-7.35-6.82h-.61v14.5Z"/>
    <path class="cls-2" d="m428.67,281.45v-60.85h31.49v14.31h-14.55v8.87h13.04v13.75h-13.04v9.3h14.55v14.62h-31.49Z"/>
  </g>
  <g>
    <path class="cls-1" d="m104.63,42.99c.09-.53-.26-1.02-.78-1.11-.53-.09-1.02.26-1.11.78-.09.53.26,1.02.78,1.11.53.09,1.02-.26,1.11-.78Z"/>
    <path class="cls-1" d="m112.82,45.37c.53.09,1.03-.26,1.11-.78.09-.53-.26-1.02-.78-1.11-.53-.09-1.02.26-1.11.78-.09.53.26,1.02.78,1.11Z"/>
    <path class="cls-1" d="m98.65,34.3l21.86,3.75s.01,0,.01-.02l.03-.04c.12-.19.52-.78,1.14-1.53h0c.07-.09.14-.18.22-.27,0,0,.01,0,.01-.02,1.46-1.72,3.94-4.09,6.99-4.77-.69.06-2.71-.1-4.52.2,1.9-4.32,2.57-8.22,2.58-8.27,0,0-1.56,1.98-5.21,2.23-3.65.25-8.23,4.24-8.23,4.24-1.5-8.35-6.38-12.3-6.38-12.3.59,4.49-1.62,11.74-1.62,11.74.05-7.28-9.23-8.22-9.65-8.37,1.45,1.65,2.16,4.66,2.48,7.42-.87-1-2.67-1.63-6.09-1.35,0,0,4.78,4.05,6.38,7.38Z"/>
    <path class="cls-1" d="m128.91,31.39c.12,0,.2-.03.23-.06-.08.02-.16.03-.23.06Z"/>
    <path class="cls-1" d="m167.63,51.19c-.22-.14-.44-.31-.68-.42-.45-.21-.94-.32-1.44-.32-.99-.02-1.93.34-2.87.61-.67.19-1.34.35-2.02.41-.06,0-.12.01-.19.01-.41-.01-.81-.16-1.15-.39-.27-.19-.93-.71-.65-1.1,3.2-4.41,10.34-7.13,8.26-12.78q-.09-.02-.17-.04c-1.86,1.83-3.84,3.52-5.67,5.39-.81.81-1.58,1.65-2.28,2.56-.33.42-.64.85-.93,1.29-.28.44-.71.96-1.31.77-.55-.17-.68-.9-.64-1.39.46-4.89,2.47-11.45-.64-14.72.01-.01,0-.03-.03-.04-.04.04-.03.06-.02.06-1.27,5.31-1.76,11.16-3.45,16.22-3.76-2.23-8.42-5.7-9.17-2.59,1.1.82,2.63,2.51,3.51,3.28,5.09,4.28,5.21,7.53,4.49,13.38l-2.45,14.36-42.09-7.22h0s0-.01,0-.01h0s.86-5.03.86-5.03h0c3.14-.33,5.8-2.71,6.37-5.98l.94-5.48c.16-.93.97-1.59,1.88-1.59.11,0,.22,0,.33.03,1.05.18,2.04-.53,2.22-1.57l1.67-9.73-21.86-3.75-1.66,9.74c-.02.11-.03.22-.03.33,0,.91.66,1.72,1.59,1.88,1.05.18,1.75,1.17,1.57,2.22l-.94,5.48c-.07.41-.11.83-.11,1.23,0,2.57,1.37,4.92,3.53,6.21,0,0,0,0,0,0l-.9,5.23h0s-48.71-8.31-48.71-8.31l-3.67,21.57c-.35.61-.7,1.1-1.18,1.54-.86.81-1.81,1.42-2.82,2.02-1.68.99-3.32,2.13-4.79,3.42-.34.31-.74.67-.33,1,.33.27.84.3,1.24.31,1.6-.03,3.94-1.34,5.49-1.31.1-.01.15.21.17.53.06,1.2.35,2.45-.23,3.58-.22.42-.51.81-.76,1.22-.71,1.16-1.01,2.45-1.25,3.77-.03.15-.21,1.6-.27,1.82h0s0,.02-.01.02h0c3.58-.22,4.79-5.63,6.54-6.24.43-.16.46-.12.46-.12,1.35.39,2.51,5.46,5.19,9.79.01,0,.03-.06.05-.16.35-1.45.36-2.97.04-4.43-.56-2.61-1.14-5-1.63-7.83-.12-.68.1-1.39.6-1.87.03-.03.06-.05.06-.05.04,0,.35.62.39.68.15.24.31.48.47.72.35.51.72,1,1.1,1.49.78,1.03,1.59,2.04,2.31,3.1.21.31.42.63.61.96.1.16.19.33.28.5.09.16.15.36.26.5.09-.11.16-.26.25-.39.09-.13.18-.27.21-.42.09-.35-.06-.72-.14-1.06-.18-.82-.39-1.62-.66-2.41-.23-.68-.48-1.34-.76-2s-.56-1.32-.87-1.96c-.29-.61-.6-1.21-.91-1.81-.28-.53-.57-1.05-.88-1.56-.25-.41-.49-.82-.77-1.21-.18-.26-.37-.52-.58-.75-.06-.07-.19-.22-.3-.21h-.05s2.56-15.05,2.56-15.05l17.56,3.01,10.81,54.56.17.5,1.97,9.02-.37.61h0s-.03,0-.03,0l-1.13,1.92-.04.07v.02s-.02.02-.02.02l-1.87,3.17-1.78,3.03-2.27,3.87-1.34,2.24.05.03h0s-15.62,26.55-15.62,26.55l14.76,8.08-5.24-10.33,22.93-38.81,14.35-3.41h0s4.91,9.68,4.91,9.68l2.92,5.7,3.11,6.14,14.99-7.59-12.15-1.6-9.87-19.37h0s0,0,0,0l-13.83,2.94,28.25-47.81h0s0,0,0,0l24.13,4.13,3.72-21.63h-.05c.46-1.87.89-3.34,1.46-4.08,1.82-2.63,5.53-3.37,8.52-5.03.25-.13.51-.26.75-.41.15-.1.28-.24.41-.38.26-.29-.58-.64-.76-.76Zm-57.01-7.17c.23-1.3,1.46-2.17,2.76-1.95,1.3.22,2.17,1.46,1.95,2.76-.22,1.3-1.46,2.17-2.75,1.95-1.3-.23-2.17-1.46-1.95-2.76Zm-9.3-1.59c.23-1.3,1.46-2.17,2.76-1.95,1.3.22,2.17,1.46,1.95,2.76-.22,1.3-1.46,2.17-2.76,1.95-1.3-.23-2.17-1.46-1.95-2.76Zm1.07,13.15l.77-4.47,7.49,1.28-.76,4.47c-.35,2.07-2.32,3.45-4.39,3.1-1.04-.18-1.9-.76-2.46-1.55-.55-.79-.82-1.8-.64-2.84Zm-8.59,70.08l-10.38-54.24,38.43,6.58-28.05,47.66Z"/>
    <polygon class="cls-1" points="97.32 105.79 110.34 83.53 92.46 80.46 97.32 105.79"/>
    <path class="cls-1" d="m95.55,116.05l20.61-35.26-28.32-4.83,7.71,40.09Zm.9-5.12l-6.34-32.71,23.13,3.93-16.8,28.78Z"/>
  </g>
</svg>