<?xml version="1.0" encoding="utf-8"?>
<!-- Generator: Adobe Illustrator 28.0.0, SVG Export Plug-In . SVG Version: 6.00 Build 0)  -->
<svg version="1.1" id="Layer_1" xmlns="http://www.w3.org/2000/svg" xmlns:xlink="http://www.w3.org/1999/xlink" x="0px" y="0px"
	 viewBox="0 0 500 300" style="enable-background:new 0 0 500 300;" xml:space="preserve">
<style type="text/css">
	.st0{fill:#EC7620;}
	.st1{fill-rule:evenodd;clip-rule:evenodd;fill:#350600;}
	.st2{fill:#350600;}
	.st3{fill:#F88D2A;}
	.st4{fill:#FFC629;}
	.st5{fill:#42A7C6;}
	.st6{fill:#AD8B80;}
	.st7{fill:#404041;}
	.st8{fill:#E20613;}
	.st9{fill:#007A8A;}
	.st10{fill:#A0002D;}
	.st11{fill:#0380C3;}
	.st12{fill:#FFFCE7;}
	.st13{fill:#DAC094;}
	.st14{fill:#692525;}
	.st15{fill:#699043;}
	.st16{fill:#70715B;}
	.st17{fill:#C1E7F6;}
	.st18{clip-path:url(#SVGID_00000127022509624014171380000003100965111135631502_);fill:#C1E7F6;}
	.st19{clip-path:url(#SVGID_00000127022509624014171380000003100965111135631502_);fill:#7CD1EE;}
	.st20{fill:#7CD1EE;}
	.st21{fill:#92A1C6;}
	.st22{filter:url(#Adobe_OpacityMaskFilter);}
	
		.st23{clip-path:url(#SVGID_00000013892071665000783960000016267221528653458346_);fill:url(#SVGID_00000170278349497287281820000006223046373810737304_);}
	
		.st24{clip-path:url(#SVGID_00000013892071665000783960000016267221528653458346_);mask:url(#SVGID_00000023280138932924140430000008043252086817081756_);fill:url(#SVGID_00000082342951651477139810000010413107769501131906_);}
	.st25{clip-path:url(#SVGID_00000095310572295791828890000008496844141475399564_);fill:#604693;}
	.st26{fill:#00B2E3;}
	.st27{fill:#F5911E;}
	.st28{fill:#B12B26;}
	.st29{fill:#ED4036;}
	.st30{fill:#6D6E70;}
	.st31{fill:#121921;}
	.st32{fill:#0381C4;}
	.st33{fill:#A2732A;}
	.st34{fill:#513A16;}
	.st35{fill:#B99664;}
	.st36{fill:none;stroke:#B99664;stroke-width:1.2826;stroke-miterlimit:10;}
	.st37{fill:#8F9191;}
	.st38{fill:none;}
	.st39{fill:url(#SVGID_00000148632622411251176450000006799131429563204003_);}
	.st40{fill:url(#SVGID_00000120538429012078739870000014726186118842811822_);}
	.st41{fill:url(#SVGID_00000170240343167834185810000002730931586989249683_);}
	.st42{fill:#1A1A1A;}
	.st43{fill:url(#SVGID_00000042728712552510818410000013036852670552287154_);}
	.st44{fill:url(#SVGID_00000178163144017191244160000016989512670555676819_);}
	.st45{fill:url(#SVGID_00000147188498039639212560000016047318121346089361_);}
	.st46{fill:url(#SVGID_00000156569096766624235010000009573589413124035480_);}
	.st47{opacity:0.6;fill:url(#SVGID_00000114786097687250718690000014499834208316936876_);}
	.st48{fill:url(#SVGID_00000172428963216450410320000004613720126765284785_);}
	.st49{opacity:0.6;fill:url(#SVGID_00000018928201534096535320000006202538446434797191_);}
	.st50{fill:url(#SVGID_00000136411223993559587800000003132259690722965165_);}
	.st51{opacity:0.6;fill:url(#SVGID_00000160157474925752544270000015490726484117603498_);}
	.st52{fill:url(#SVGID_00000169554608412718064860000006677426750173038776_);}
	.st53{opacity:0.6;fill:url(#SVGID_00000132770292981796377160000018371717698002423734_);}
	.st54{fill:url(#SVGID_00000013892963748725330230000017973646611721842359_);}
	.st55{fill:url(#SVGID_00000107581623538463173870000003246760811976793513_);}
	.st56{opacity:0.6;fill:url(#SVGID_00000056403338244653309810000010155478891997751699_);}
	.st57{fill:url(#SVGID_00000080190697732164416840000003123539212184282772_);}
	.st58{fill:url(#SVGID_00000137819212090634419870000010335582764571385263_);}
	.st59{opacity:0.6;fill:url(#SVGID_00000128452749693076117330000012333070008500907688_);}
	.st60{fill:#AB774D;}
</style>
<g>
	<path class="st11" d="M16.7,116c0-10.4,0-20.9,0-31.3c0-0.9,0-1.8,0-2.7c0-1.2,0.5-1.9,1.8-1.9c3.7,0,7.4,0,11.1,0
		c1.7,0,2,1.3,2.5,2.5c1.4,3.8,2.9,7.6,4.3,11.4c4.6,12.8,9.3,25.6,13.9,38.3c0.4,1.2,0.7,2.4,1.1,3.7c0.1,0.4,0.1,1.1,0.8,1
		c0.6-0.1,0.6-0.7,0.7-1.2c2.7-9.1,6.3-18,9.6-26.9c3-8.2,6-16.5,9-24.7c0.3-0.8,0.8-1.6,1.1-2.4c0.5-1.2,1.4-1.7,2.7-1.7
		c3.3,0,6.6,0,10,0c1.4,0,2.2,0.5,2.1,2c0,0.8,0,1.5,0,2.3c0,21.2,0,42.3,0,63.5c0,0.5,0,1,0,1.5c-0.1,2.5-0.1,2.6-2.6,2.6
		c-2.3,0.1-4.6,0-6.9,0c-1.4,0-2.1-0.6-2.1-2c0-0.9,0-1.8,0-2.7c0-13.4,0-26.8,0-40.1c0-0.9,0-1.8,0-2.7c0-0.2-0.1-0.7-0.2-0.7
		c-0.5-0.1-0.4,0.4-0.6,0.6c-0.1,0.2-0.2,0.5-0.3,0.7c-2.6,7.3-5.3,14.6-7.9,21.9c-2.7,7.5-5.3,15.1-8,22.6c-1,2.8-1.4,3-4.5,3.1
		c-1.8,0-3.6,0-5.4,0c-1.8,0.1-2.7-0.6-3.3-2.4c-2-5.9-4.2-11.7-6.3-17.6c-3.4-9.6-6.8-19.2-10.2-28.7c-0.1-0.4,0-1-0.7-1
		c-0.1,0-0.2,0.7-0.2,1.1c0,12.6,0,25.2,0,37.8c0,2.5,0.1,5.1,0,7.6c-0.1,2.2-0.2,2.3-2.5,2.4c-2.2,0.1-4.3,0.1-6.5,0
		c-2.5-0.1-2.6-0.1-2.6-2.7c0-8.2,0-16.3,0-24.5C16.7,121.8,16.7,118.9,16.7,116z"/>
	<path class="st11" d="M229.3,150.2C229.3,150.2,229.3,150.2,229.3,150.2c-0.1-0.2-0.2-0.4-0.4-0.6c-2.7-4.6-5.6-9.1-8.4-13.6
		c-2.4-3.9-4.9-7.7-7.3-11.6c-0.7-1.1-0.8-1.7,0.5-2.3c0,0,0,0,0,0c0.1,0,0.2-0.1,0.3-0.1c0.6-0.2,1.3-0.5,1.9-0.8
		c1.5-0.6,2.9-1.3,4.3-2.2c0,0,0.1,0,0.1-0.1c0.6-0.4,1.2-0.9,1.7-1.4c1.1-1.1,2-2.2,2.8-3.3c0.7-1.1,1.4-2.2,1.9-3.3
		c1.1-2.4,1.6-4.9,1.8-7.6c0.1-0.9,0.1-1.7,0.1-2.6c0-0.3,0-0.6-0.1-0.9c0,0,0,0,0-0.1c0-0.6-0.1-1.1-0.1-1.6c0,0,0-0.1,0-0.1
		c-0.3-2-0.8-3.9-1.5-5.6c-0.1-0.1-0.1-0.3-0.2-0.4c-2.1-4.8-6.1-8.1-11.6-9.8c-0.3-0.1-0.6-0.2-0.8-0.3c0,0-0.1,0-0.1,0
		c-1.4-0.4-2.7-0.7-4.1-0.9c0,0-0.1,0-0.1,0c-2.8-0.4-5.6-0.6-8.5-0.7c-7.5-0.3-15.1-0.1-22.6-0.1c-0.6,0-1.3,0-2,0.1
		c-0.1,0-0.2,0-0.3,0c-0.9,0.1-1.5,0.6-1.7,1.4c0,0.1,0,0.2-0.1,0.4c-0.1,1-0.1,2-0.1,3.1V143c0,2.2-0.1,4.3,0,6.5
		c0,0.6,0,1.1,0.1,1.4c0.2,0.6,0.5,0.8,1.5,0.9c0.2,0,0.6,0,0.9,0c2.4,0.1,4.9,0.1,7.3,0c0.4,0,0.7,0,0.9,0c1.4-0.1,1.5-0.5,1.5-2.4
		c0.1-3.9,0-7.9,0-11.8c0-4,0-7.9,0-11.9c0-0.3,0-0.5,0-0.7c0.1-0.8,0.5-1.3,1.2-1.4c0.3-0.1,0.6-0.1,1-0.1c1,0,1.9,0.1,2.9,0.1
		c0.6,0,1.1,0,1.6,0c0.7,0,1.3-0.1,2-0.2c1-0.2,1.8-0.1,2.6,0.2c1,0.3,1.8,1,2.6,2c0.3,0.4,0.6,0.9,0.9,1.4c0.4,0.6,0.8,1.3,1.1,1.9
		c3.5,5.9,7.1,11.8,10.7,17.6c0.9,1.5,1.6,2.5,2.2,3.3c0,0,0,0,0,0c1.6,2,2.9,2,7.4,2c1.4,0,2.8,0,4.2,0
		C229.7,151.9,230.1,151.7,229.3,150.2z M187.1,93.7c0-0.4,0-0.7,0.1-1c0.2-0.7,0.6-1,1.3-1.2c0.2-0.1,0.5-0.1,0.8-0.1
		c3.1,0.1,6.1,0,9.2,0c0,0,0,0,0,0c2.6,0,5.1-0.2,7.7,0c0.2,0,0.5,0,0.8,0.1c1.5,0.1,2.9,0.4,4.2,1c0.7,0.3,1.3,0.6,1.8,1.1
		c0,0,0.1,0,0.1,0.1c1,0.7,1.8,1.7,2.4,2.9c1,1.9,1.4,4.3,1.2,6.5c0,0,0,0,0,0c-0.3,3.6-2.2,6.9-5.7,8.3c0,0-0.1,0-0.1,0
		c-2.2,0.8-4.3,1.5-6.6,1.5c-4.9-0.1-9.7,0-14.6,0c-1.7,0-2.3-0.1-2.4-1c-0.1-0.3-0.1-0.8-0.1-1.3
		C187.1,104.9,187.1,99.3,187.1,93.7z"/>
	<path class="st11" d="M164.7,150.3c0-0.2-0.1-0.3-0.1-0.4c0,0,0,0,0,0c-0.2-0.6-0.4-1.1-0.6-1.7c-1.8-5-3.7-10-5.5-15
		c-4.8-12.8-9.6-25.7-14.4-38.5c-1.6-4.2-3.1-8.3-4.7-12.5c-0.4-1-0.9-1.7-1.7-2c-0.1-0.1-0.2-0.1-0.3-0.1c-0.3-0.1-0.7-0.1-1.1-0.1
		c-3.1,0.1-6.1,0.1-9.2,0c-0.4,0-0.7,0-1,0.1c-0.6,0.1-1.1,0.4-1.5,0.8c-0.3,0.3-0.5,0.7-0.7,1.2c-0.3,0.7-0.7,1.4-1,2.1
		c-1.5,4-2.9,8-4.3,12c0,0,0,0.1,0,0.1c-0.5,1.3-1,2.7-1.5,4c-0.5,1.3-0.9,2.5-1.4,3.8c-3.1,8.2-6.2,16.5-9.3,24.7
		c-2.6,7-5.3,14-7.8,21.1c-0.2,0.6-0.3,1-0.2,1.3c0,0,0,0,0,0c0.1,0.4,0.4,0.6,0.9,0.7c0.2,0.1,0.5,0.1,0.9,0.1
		c2.4,0.1,4.9-0.1,7.3,0.1c0.7,0,1.2,0,1.7-0.2c0.7-0.2,1.2-0.7,1.6-1.5c0.1-0.2,0.2-0.5,0.3-0.8c0.2-0.6,0.4-1.1,0.6-1.7
		c1-2.9,2.1-5.7,3.1-8.5c0-0.1,0.1-0.2,0.1-0.3c0.4-1,0.8-2,1.1-3.1c0.8-2.2,1.1-2.9,2.5-3.1c0.5-0.1,1.1-0.1,1.9-0.1
		c7.5,0,15.1,0,22.6-0.1c0.5,0,1,0,1.4,0.1c1.2,0.3,1.9,1,2.5,2.5c1.4,4.1,3.1,8.1,4.7,12.1c0.1,0.3,0.3,0.7,0.4,1
		c0.4,1.1,0.7,1.9,1,2.5c0.5,1,1,1.3,2.1,1.5c0.6,0.1,1.4,0.1,2.5,0.1c0.5,0,1,0,1.5,0v0c1.4,0,2.8,0.1,4.2,0c0.2,0,0.3,0,0.4,0
		C164.7,152.3,165,151.7,164.7,150.3z M140.3,122c-3.1,0-6.1,0-9.2,0c0,0,0,0,0,0c-2.9,0-5.9-0.1-8.8,0c-0.4,0-0.6,0-0.9-0.1
		c-0.7-0.2-0.7-0.8-0.4-1.7c1.3-3.4,2.5-6.9,3.8-10.3c1.8-5,3.7-10,5.5-15c0.1-0.4,0.2-0.7,0.7-0.8c0.5-0.1,0.6,0.3,0.7,0.7
		c0.2,0.5,0.5,1.1,0.7,1.6c0.3,0.6,0.5,1.3,0.8,1.9c1.6,4.4,3.2,8.8,4.7,13.1c0.8,2.2,1.6,4.3,2.3,6.5c0.3,1,0.6,1.9,0.9,2.9
		c0.2,0.7,0,1-0.5,1.1C140.6,122,140.5,122,140.3,122z"/>
	<path class="st11" d="M302.2,148.6c-1.9-5.3-3.8-10.5-5.8-15.7c-1.7-4.5-3.4-9.1-5.1-13.6c-1.7-4.7-3.5-9.3-5.2-14c0,0,0,0,0,0
		c-0.9-2.3-1.7-4.6-2.6-6.9c-0.4-1-0.8-2-1.1-3c-0.6-1.5-1.1-3.1-1.7-4.6c-0.1-0.2-0.1-0.3-0.2-0.5c-0.4-1.1-0.8-2.3-1.3-3.4
		c-1-2.8-1.6-4.5-2.5-5.4c-0.7-0.8-1.5-1.1-2.9-1.3c-1-0.1-2.3-0.1-4.1-0.1c-1.7,0-3.3,0-5,0c-0.4,0-0.7,0-1,0.1
		c-0.4,0.1-0.8,0.3-1.1,0.6c-0.2,0.2-0.5,0.6-0.6,0.9c-0.3,0.8-0.8,1.6-1.1,2.4c-3.5,9.5-7,19-10.6,28.6c-1.9,5-3.8,10.1-5.7,15.1
		c-0.3,0.9-0.6,1.7-1,2.6c-0.4,1-0.7,2-1.1,3c-0.5,1.3-1,2.6-1.5,3.9c-0.7,1.8-1.3,3.5-2,5.3c-0.5,1.2-0.9,2.4-1.3,3.5
		c-0.5,1.2-0.9,2.4-1.3,3.6c-0.2,0.7-0.3,1.2-0.2,1.5c0.1,0.3,0.4,0.4,0.8,0.5c0.2,0.1,0.5,0.1,0.9,0.1c1.7,0.1,3.3,0,5,0
		c1.6,0,2.8,0,3.6-0.2c1-0.2,1.6-0.6,2.1-1.6c0.4-0.8,0.8-1.8,1.3-3.4c1.3-3.7,2.6-7.4,3.9-11.1c0-0.1,0.1-0.2,0.1-0.3
		c0.5-1.1,1-2.1,2.2-2.4c0.3-0.1,0.7-0.2,1.2-0.2c8,0.1,16.1,0.1,24.1,0c0.4,0,0.8,0,1.1,0.1c0.9,0.2,1.5,0.9,2,2.1
		c1.5,4.3,3.3,8.5,4.9,12.7c0,0,0,0,0,0c0.2,0.6,0.4,1.2,0.7,1.8c0.3,0.8,0.5,1.4,0.8,1.8c0.7,1.3,1.5,1.2,3.6,1.2
		c1.5,0,3.1,0,4.6,0c2.5,0,3.6-0.1,3.7-1.1c0,0,0,0,0,0C303,150.9,302.7,150,302.2,148.6z M272,122c-0.9,0-1.7,0-2.6,0
		c-0.8,0-1.6,0-2.4,0c-1.3,0-2.6,0-3.8,0c-0.5,0-1,0-1.4,0c-2.7-0.1-2.8-0.2-1.9-2.9c1.3-3.7,2.6-7.4,3.9-11.1
		c1.6-4.3,3.1-8.6,4.7-12.9c0.1-0.1,0.1-0.3,0.2-0.4c0,0,0,0,0,0c0.1-0.2,0.2-0.4,0.3-0.6c0,0,0,0,0,0c0.1-0.2,0.3-0.3,0.5-0.5
		c0.2,0.6,0.5,1.1,0.7,1.7c3,8.2,6,16.5,8.9,24.7c0.6,1.8,0.5,2-1.4,2c-0.7,0-1.4,0-2.2,0C274.5,122,273.3,122,272,122z"/>
	<path class="st11" d="M338.1,79.2c7.6-0.5,14.2,1.4,20.6,4.7c2.9,1.5,2.9,1.5,1.6,4.3c-0.8,1.8-1.7,3.7-2.4,5.6
		c-0.5,1.2-1.1,1.5-2.4,0.9c-2-1.1-4.1-2.1-6.3-2.8c-5.9-1.9-11.9-2.6-18-1.2c-3.7,0.9-6.2,3-6.6,6c-0.7,4.7,0.6,7.5,4.5,9.6
		c4.4,2.4,9.2,3.6,14,5c5.2,1.5,10.2,3.4,14.2,7.1c3.9,3.6,5.6,8.3,5.7,13.7c0.1,6.3-2.2,11.4-6.9,15.5c-3.3,2.8-7.3,4.1-11.4,5
		c-3.5,0.8-7,1.1-10.6,0.9c-7.8-0.5-15.3-2.3-22.3-6c-1.6-0.8-1.5-1.7-0.8-3c1-2,1.9-4.1,2.9-6.2c0.8-1.7,1.1-1.8,2.9-0.9
		c3.4,1.7,6.8,3.3,10.6,4.2c5.9,1.4,11.6,1.4,17.2-0.8c4.2-1.7,6-4.5,6-8.8c0.1-3.2-1.4-5.3-4-6.8c-2.1-1.2-4.3-2.1-6.7-2.9
		c-5.2-1.7-10.5-3.1-15.5-5.4c-8.1-3.6-12.2-8.8-12.1-18.8c0.1-7.6,4.5-13.7,12-16.5C328.8,79.7,333.5,78.7,338.1,79.2z"/>
	<path class="st11" d="M388.9,116.3c0,10.3,0,20.6,0,30.9c0,0.9,0,1.8,0,2.7c0,1.2-0.4,2-1.8,2c-2.9,0-5.9,0-8.8,0
		c-1.1,0-1.6-0.6-1.7-1.6c0-0.9,0-1.8,0-2.7c0-20.9,0-41.8,0-62.7c0-4.9,0-4.9,4.8-4.9c1.2,0,2.3,0,3.5,0c3.7,0.1,4,0.2,4,3.8
		c0,4.5,0,8.9,0,13.4C388.9,103.6,388.9,109.9,388.9,116.3z"/>
	<path class="st11" d="M300.1,207.9C300.1,207.9,300.1,207.9,300.1,207.9c-0.3-0.7-0.7-1.4-1.1-2c-0.2-0.2-0.3-0.4-0.5-0.6
		c0-0.1-0.1-0.1-0.1-0.1c-0.5-0.5-1-0.9-1.6-1.2c0,0,0,0,0,0c-0.8-0.4-1.4-0.5-0.4-1.4c0.8-0.7,1.5-1.5,1.9-2.4c0,0,0,0,0,0
		c0.5-0.8,0.7-1.7,0.8-2.5c0,0,0,0,0,0c0.2-1.4-0.1-2.8-0.7-4.3c0,0,0,0,0,0c-0.1-0.2-0.1-0.3-0.2-0.4c-1.5-3.2-4.3-4.3-7.7-4.3
		c-3.6,0-7.2,0-10.7,0c-0.9,0-1.4,0-1.9,0.1h0c-0.9,0.2-1,0.8-1,2.6v0.3c-0.1,4.3,0,8.5,0,12.7c0,3.2,0,6.4,0,9.6c0,1.3,0,2.5,0,3.8
		c0,2.5,0.5,3,2.9,3c0.1,0,0.2,0,0.4,0c3.1,0.1,6.2,0.1,9.2,0c1.7-0.1,3.4-0.4,5-1c0.2-0.1,0.4-0.1,0.6-0.2c0,0,0,0,0,0
		c0.5-0.2,1-0.5,1.5-0.8c0.1,0,0.1-0.1,0.2-0.1c0.1-0.1,0.2-0.1,0.2-0.2c1.4-0.8,2.4-2,3-3.4c0.2-0.4,0.4-0.9,0.5-1.4
		c0.1-0.2,0.1-0.5,0.2-0.7C300.9,211.2,300.7,209.5,300.1,207.9z M283.1,194c0.2-0.5,0.6-0.7,1.6-0.7c0.2,0,0.5,0,0.8,0
		c0.5,0,1.2,0,2,0c1.2,0,2.5,0.4,3.7,0.8c0.2,0,0.3,0.1,0.5,0.2c0.6,0.2,1.1,0.6,1.4,1c0.4,0.5,0.6,1.1,0.7,1.8c0,0.2,0,0.5,0,0.7
		c-0.1,1.4-0.8,2.3-2.1,2.9c-2.1,1-4.4,0.9-6.7,0.9c-0.9,0-1.5-0.3-1.7-1c-0.1-0.2-0.1-0.5-0.1-0.9c0-0.8,0-1.5,0-2.3
		C283,195.6,282.9,194.6,283.1,194z M294.4,211.8c-0.2,0.7-0.5,1.3-1,1.7c-0.1,0-0.1,0.1-0.2,0.1c-0.1,0.1-0.2,0.2-0.3,0.2
		c0,0-0.1,0-0.1,0.1c-0.6,0.3-1.3,0.5-2.1,0.6c-0.1,0-0.2,0-0.4,0c-0.7,0.1-1.4,0-2.2,0c-0.2,0-0.3,0-0.5,0c-0.7,0-1.4,0-1.9,0
		c-1.8,0-2.4-0.1-2.6-1.1c-0.1-0.7-0.1-1.8-0.1-3.6c0-0.5,0-1,0-1.5c0-0.4,0-0.7,0.1-1c0.1-0.5,0.5-0.9,1-1c0.2-0.1,0.6-0.1,0.9-0.1
		c1.9,0,3.8-0.1,5.7,0.1c1.4,0.1,2.3,0.5,2.9,1.1l0,0c0.4,0.4,0.6,0.9,0.7,1.5c0.1,0.4,0.1,0.9,0.1,1.5
		C294.5,210.9,294.5,211.4,294.4,211.8z"/>
	<path class="st11" d="M366.6,210c-0.1-0.7-0.3-1.5-0.6-2.1c0,0,0,0,0,0c-0.1-0.3-0.3-0.5-0.4-0.8c0,0,0-0.1-0.1-0.1
		c-0.6-0.9-1.3-1.7-2.3-2.4c-0.1-0.1-0.2-0.2-0.3-0.2c-1-0.6-1.2-1-0.8-1.6c0.1-0.2,0.3-0.4,0.6-0.6c0.9-0.8,1.5-1.7,1.9-2.8
		c0.3-0.7,0.4-1.3,0.5-2.1c0-0.2,0-0.5,0-0.7c0-0.1,0-0.3,0-0.4c0-0.4-0.1-0.9-0.2-1.3c-0.1-0.5-0.3-0.9-0.4-1.4c0,0,0,0,0,0
		c-0.1-0.3-0.2-0.6-0.4-0.8c-0.6-1.2-1.5-2.1-2.6-2.8c-0.1-0.1-0.2-0.1-0.3-0.2c-1.2-0.7-2.6-1.1-4.2-1.1c-3.7-0.2-7.4-0.1-11.1,0
		c-0.8,0-1.4,0-1.8,0.1c-0.5,0.1-0.8,0.3-0.9,0.8c-0.1,0.4-0.1,1-0.1,1.8c-0.1,4.4,0,8.9,0,13.3c0,4.6,0,9.1,0,13.7
		c0,0.5,0,0.9,0.2,1.2c0.2,0.7,0.8,1.1,2,1.1c3.6-0.1,7.1,0.1,10.7-0.1c2.3-0.2,4.5-0.8,6.5-1.9c1.5-0.8,2.6-1.9,3.3-3.2
		c0,0,0,0,0,0C366.5,213.8,366.8,211.8,366.6,210z M349,199.8c0-0.9,0-1.7,0-2.6c0,0,0,0,0,0c0-0.5,0-1,0-1.5
		c0.1-2.4,0.1-2.3,2.3-2.5c0.2,0,0.3,0,0.5,0c0.3,0,0.6,0,0.9,0c0,0,0.1,0,0.1,0c1.5,0.1,3,0.5,4.5,0.9h0c0.4,0.1,0.8,0.3,1.1,0.5
		l0,0c0.2,0.2,0.4,0.4,0.6,0.6c0.4,0.5,0.6,1.2,0.6,1.9c0.1,1.6-0.5,2.7-1.9,3.4c-2.4,1.1-4.9,1.1-7.5,0.9
		C349.4,201.4,349.1,200.7,349,199.8C349,199.9,349,199.8,349,199.8z M349,208.3c0-0.5,0-0.9,0.1-1.2c0.2-0.5,0.6-0.8,1.1-0.9
		c0,0,0,0,0,0c0.3-0.1,0.7-0.1,1.1-0.1c1.6,0.1,3.3-0.1,4.9,0.1c0.7,0,1.3,0.2,1.8,0.4c0,0,0,0,0,0c1.6,0.6,2.4,2,2.4,3.9
		c-0.1,2.1-1.8,3.9-4.2,4c-0.9,0.1-1.8,0-2.7,0c-3.2,0-4.2,0.2-4.5-1c-0.2-0.7-0.1-1.8-0.1-3.8C349,209.3,349,208.8,349,208.3z"/>
	<path class="st11" d="M88.2,202.6c-0.1-1.2-0.3-2.4-0.6-3.5c-0.3-1.3-0.8-2.5-1.4-3.5c0,0,0,0,0,0c-0.1-0.2-0.2-0.4-0.4-0.6
		c-0.2-0.4-0.5-0.7-0.8-1.1c-0.1-0.1-0.2-0.3-0.3-0.4c-0.2-0.3-0.5-0.6-0.7-0.8c-0.5-0.5-1.1-1-1.7-1.5c-2.8-2.1-6.3-3.2-10.3-3.3
		c-1.9,0-3.7,0.3-5.4,0.9c0,0-0.1,0-0.1,0c-2.8,1-5.4,2.8-7.3,5c-0.1,0.2-0.2,0.3-0.4,0.5c-2.1,2.7-3.3,6.1-2.9,9.5v1.5
		c0,0.5,0,0.9,0,1.4c0.1,1.9,0.6,3.7,1.3,5.3c0,0,0,0,0,0c0.5,1,1,1.9,1.7,2.8c0.2,0.2,0.3,0.4,0.5,0.6c0.1,0.2,0.2,0.3,0.4,0.5
		c0.9,0.9,1.9,1.8,3,2.6c2.1,1.5,4.4,2.2,6.8,2.4c0.2,0,0.3,0,0.5,0c1.1,0.1,2.3,0.1,3.4,0c0.1,0,0.2,0,0.2,0
		c1.4-0.1,2.8-0.3,4.1-0.7c0,0,0,0,0.1,0c2.4-0.8,4.4-2.1,6.2-4.1c1.5-1.7,2.5-3.4,3.2-5.3c0.1-0.3,0.2-0.6,0.3-0.8
		c0.1-0.2,0.1-0.4,0.2-0.6c0.1-0.2,0.1-0.5,0.2-0.7c0-0.1,0.1-0.3,0.1-0.4C88.4,206.2,88.4,204.4,88.2,202.6z M62.4,199.3
		c0.1-0.3,0.3-0.6,0.4-0.9c0,0,0,0,0,0c0.8-1.4,2-2.5,3.3-3.4c0,0,0.1-0.1,0.1-0.1c0.7-0.5,1.5-0.9,2.3-1.1c0,0,0,0,0,0
		c1.1-0.4,2.4-0.6,3.6-0.6h0c0.4,0,0.8,0,1.2,0.1c0.5,0.1,1.1,0.2,1.6,0.4c1.3,0.4,2.5,1.1,3.6,2.1c0.1,0,0.1,0.1,0.2,0.2
		c2.1,1.9,3.6,4.8,3.7,8.4c0,0.3,0,0.6,0,0.9c0,0.6-0.1,1.1-0.2,1.6c0,0,0,0.1,0,0.1c-1.1,4.8-5.5,8.4-10.5,8.4
		c-6,0.4-10.7-5.6-10.6-11.2C61.3,202.4,61.7,200.8,62.4,199.3C62.4,199.3,62.4,199.3,62.4,199.3z"/>
	<path class="st11" d="M119.6,204.1c0,4.3,0,8.6,0,13c0,2.9-0.1,2.8-3.1,3c-2.3,0.1-3.7-0.8-4.9-2.8c-3.5-6-7.3-11.9-10.9-17.9
		c-0.4-0.6-1-1.2-1.4-1.7c-0.8,0.7-0.3,1.6-0.4,2.4c0,5.6,0,11.2,0,16.8c0,2.9-1.6,3.9-4.4,3c-0.5-0.2-0.9-0.5-1-1
		c-0.1-0.8-0.1-1.5-0.1-2.3c0-8.4,0-16.8,0-25.2c0-1.3-0.7-3,1.3-3.5c2.3-0.6,4.7,0,5.8,1.6c1.9,3,3.8,6,5.7,9
		c2.3,3.6,4.6,7.3,7,10.9c0.2,0.3,0.5,0.5,0.8,0.7c0.1-0.4,0.2-0.7,0.2-1.1c0-6.1,0-12.2,0-18.3c0-2.8,0.4-3,3.1-2.9
		c2.1,0.1,2.3,0.2,2.3,2.5C119.6,194.9,119.6,199.5,119.6,204.1z"/>
	<path class="st11" d="M205,219C205,219,205,219,205,219c-0.1-0.3-0.2-0.6-0.5-1c-1.6-2.5-3.2-4.9-4.7-7.4c-0.3-0.5-0.7-1-1-1.5
		c-0.1-0.1-0.2-0.2-0.2-0.4c-0.2-0.4-0.3-0.7-0.3-1.1c0-0.3,0.1-0.5,0.3-0.7c0.1-0.1,0.1-0.1,0.2-0.2c0.6-0.4,1.5-0.6,2.1-1.1
		c0.2-0.2,0.5-0.4,0.7-0.6c0,0,0,0,0,0c1-0.9,1.7-1.8,2.3-2.9c0.7-1.3,1.1-2.8,1.1-4.3v0c0-0.8-0.1-1.6-0.3-2.4
		c-0.2-0.6-0.3-1.3-0.6-1.8c-0.7-1.7-1.8-3.2-3.4-4.2c-0.1-0.1-0.2-0.1-0.3-0.2c-0.8-0.4-1.7-0.8-2.7-1c-1.1-0.2-2.1-0.4-3.2-0.4
		c0,0-0.1,0-0.1,0c-0.7,0-1.4-0.1-2.1-0.1h0c-0.7,0-1.4,0-2.1,0H190c-0.3,0-0.6,0-0.9,0c-1.7,0-3.1,0-4.5,0c-0.9,0-1.7,0-2.3,0.1
		c-0.6,0.1-1,0.2-1.3,0.3c-0.2,0.1-0.3,0.3-0.5,0.5c-0.1,0.2-0.2,0.5-0.3,0.8c-0.1,0.6-0.1,1.4-0.1,2.6c0,4.3,0,8.7,0,13
		c0,4.1,0,8.2,0,12.2c0,0.6-0.1,1.4,0.1,1.9c0.1,0.2,0.3,0.4,0.5,0.5c0.4,0.2,0.7,0.3,1.1,0.4c0,0,0,0,0,0c0.8,0.2,1.6,0.1,2.4,0
		c0.3-0.1,0.6-0.1,1-0.2c1.5-0.4,1-1.9,1-2.9c0.1-2.4,0.1-4.8,0-7.3c0-0.3,0-0.6,0.1-0.8c0.1-0.5,0.5-0.8,0.9-0.9
		c0.2-0.1,0.5-0.1,0.8-0.1c0.9-0.1,1.7,0,2.4,0.1c0.6,0.2,1.2,0.5,1.8,0.9c0.4,0.3,0.7,0.8,1,1.3c0.5,0.9,1,1.8,1.6,2.7
		c0.7,1.1,1.5,2.2,2.2,3.4c0,0.1,0.1,0.1,0.1,0.1c0.2,0.3,0.3,0.6,0.5,0.9c0.3,0.6,0.7,1.1,1.1,1.5c0.5,0.5,1.2,0.9,1.8,1.1
		c0.8,0.2,1.7,0.3,2.7,0.2c0.5,0,0.8-0.1,1.1-0.2C205,219.7,205.1,219.4,205,219z M191.6,202.3c-3.8,0-4.9,0.3-5.2-1.1
		c-0.2-0.8-0.1-2-0.1-4.2c0-1.4,0-2.3,0.1-2.9c0.2-0.7,0.6-0.9,1.6-1c0.1,0,0.2,0,0.4,0c0.3,0,0.6,0,0.9,0h2.1c0.2,0,0.3,0,0.5,0
		c1.3,0,2.7,0.2,3.9,0.7c0.1,0,0.2,0.1,0.2,0.1c1.9,0.9,3.3,2.9,3,4.5c-0.3,2.1-2.1,3.7-4.5,3.8c-0.3,0-0.7,0-1,0
		C193,202.3,192.3,202.3,191.6,202.3z"/>
	<path class="st11" d="M452.6,219.1c-0.1-0.6-0.3-1.2-0.5-1.8c-0.1-0.3-0.2-0.5-0.3-0.8c-3-8.2-6.1-16.4-9.1-24.5
		c-0.5-1.4-0.8-2.2-1.3-2.7c-0.2-0.2-0.4-0.4-0.7-0.5c-0.6-0.2-1.5-0.3-3-0.3c-1.4,0-2.2,0-2.7,0.3c-0.4,0.2-0.7,0.6-1,1.2
		c-0.2,0.4-0.4,0.9-0.6,1.6c-2.9,7.7-5.8,15.4-8.8,23.2c-0.5,1.4-1,2.9-1.5,4.3c-0.1,0.2-0.2,0.5-0.2,0.7c0,0.4,0.2,0.7,0.7,0.8
		c0.1,0,0.2,0.1,0.3,0.1c1.1,0.3,2.1,0.3,3,0c0.8-0.3,1.5-0.9,2-1.7c0.2-0.3,0.4-0.7,0.6-1.1c0.3-0.8,0.6-1.6,0.8-2.5
		c0.2-0.5,0.3-1,0.5-1.5c0.1-0.3,0.2-0.5,0.4-0.7c0.2-0.4,0.6-0.6,1-0.8c0.3-0.1,0.6-0.2,0.9-0.2c3.1,0.1,6.1,0,9.2,0
		c0.4,0,0.8,0,1.1,0.1c0.8,0.2,1.4,0.9,1.7,1.9c0.5,1.6,1.1,3.1,1.8,4.6c0,0,0,0,0,0c0.4,0.9,1.6,1.6,2.8,1.8c0.5,0.1,1,0.1,1.5,0
		c0.3-0.1,0.7-0.2,0.9-0.3C452.5,220.1,452.6,219.6,452.6,219.1z M437.9,206.2c-1.4,0-2.8,0-4.6,0c1.4-4,2.3-7.9,4.2-11.6
		c1.5,3.9,2.9,7.5,4.5,11.5C440.5,206.2,439.2,206.2,437.9,206.2z"/>
	<path class="st11" d="M264.9,201.2c-0.1-0.6-0.3-1.3-0.5-1.9c-1-3.1-2.9-6-5.4-8c0,0-0.1,0-0.1-0.1c-1.2-0.9-2.6-1.7-4-2.1
		c-0.4-0.1-0.8-0.2-1.2-0.3c-4.1-1-8.2-1.1-12.4-1.1h-0.8c-0.6,0-1.1,0-1.5,0.1c-0.8,0.1-1.2,0.3-1.3,0.9c-0.1,0.5-0.1,1.1-0.1,2.1
		c0,4.2,0,8.4,0,12.6c0,4.7,0,9.4,0,14.1c0,0.7,0,1.1,0.1,1.5c0.2,0.8,0.7,0.9,2.3,0.9c0.7,0,1.4,0,2.1,0c0.2,0,0.4,0,0.6,0
		c1.1,0,2.3,0,3.4,0c0.8,0,1.5,0,2.3,0c2.7,0,5.1-0.5,7.2-1.3c0,0,0,0,0,0c1.4-0.6,2.6-1.3,3.7-2.3c0,0,0.1,0,0.1-0.1
		c2.5-2.2,4.3-5.4,5.3-9.6C265.3,204.9,265.3,203,264.9,201.2z M254.9,213.2c-0.5,0.4-1,0.7-1.6,1c-0.5,0.2-1.1,0.4-1.7,0.6
		c0,0,0,0,0,0c-0.8,0.2-1.6,0.3-2.4,0.4c-4.4,0.2-5.7,0.4-5.9-0.8c-0.2-0.8,0-2.1,0-4.4c-0.1-2,0-4.1,0-6.1h0c0-2.9,0-5.8,0-8.8
		c0-0.2,0-0.4,0-0.6c0-0.4,0.2-0.8,0.5-1c0.1-0.1,0.3-0.1,0.5-0.2c3.2-0.2,6.5-0.2,9.4,1.3c0.6,0.3,1.3,0.7,1.8,1.2
		c1.2,1,2.1,2.2,2.7,3.4c0.6,1.2,0.9,2.5,1,3.9c0,0,0,0,0,0c0.1,1.4-0.1,2.8-0.6,4.3c-0.3,1-0.7,2-1.2,2.8
		C256.7,211.5,255.9,212.5,254.9,213.2z"/>
	<path class="st11" d="M457.1,203.6c0-4.5,0-8.9,0-13.4c0-2.3,0.2-2.4,2.4-2.5c2.8-0.1,3.7,0.3,3.7,2.5c0.1,2.8,0.1,5.6,0,8.4
		c0,1.4,0.5,2.1,2,2.1c3.6,0,7.1,0,10.7,0c1.3,0,1.8-0.7,1.8-1.9c0-2.9,0-5.9,0-8.8c0.1-2.2,0.4-2.4,2.9-2.3c2.2,0,2.5,0.2,2.5,2.4
		c0,9.2,0,18.3,0,27.5c0,2.2-0.4,2.4-2.9,2.4c-2.2,0-2.5-0.2-2.5-2.3c-0.1-3.1-0.1-6.1,0-9.2c0-1.6-0.5-2.3-2.2-2.3
		c-3.4,0.1-6.9,0-10.3,0c-1.5,0-2.1,0.6-2,2.1c0,2.9,0,5.9,0,8.8c0,2.8-0.2,2.9-3.1,2.9c-0.1,0-0.3,0-0.4,0
		c-2.5-0.1-2.6-0.1-2.7-2.6C457.1,212.8,457.1,208.2,457.1,203.6z"/>
	<path class="st11" d="M371.2,204.4c0-4.6,0-9.2,0-13.8c0-2.7,0.1-2.8,2.8-2.8c5.1,0,10.2,0,15.3,0c0.9,0,2-0.3,2.4,0.8
		c0.5,1.3,0.6,2.8-0.1,4.1c-0.4,0.7-1.4,0.6-2.1,0.6c-3.2,0-6.4,0-9.6,0c-2.4,0-2.5,0.1-2.5,2.3c0,6.1-0.5,5.2,4.9,5.3
		c1.9,0,3.8,0,5.8,0c2.2,0.1,2.3,0.2,2.4,2.5c0,0.5,0,1,0,1.5c0.1,1.5-0.7,2-2.1,2c-2.8,0-5.6,0-8.4,0c-2.4,0.1-2.5,0.1-2.5,2.3
		c0,7.2-0.8,5.9,5.7,6c2.3,0,4.6,0,6.9,0c1.8,0,2,1.1,2,2.5c0,2.4-0.2,2.9-2,2.9c-5.6,0.1-11.2,0-16.9,0c-1.5,0-2-0.8-1.9-2.2
		C371.2,213.8,371.2,209.1,371.2,204.4C371.2,204.4,371.2,204.4,371.2,204.4z"/>
	<path class="st11" d="M408.3,187.8c2.8,0,5.6-0.1,8.4,0c1.9,0.1,2.1,0.4,2.1,2.8c0,2.3-0.2,2.6-2.2,2.6c-3.3,0.1-6.6,0-10,0
		c-2.3,0-2.3,0.1-2.4,2.4c0,0.1,0,0.3,0,0.4c0,5.3-0.4,4.7,4.7,4.8c2,0,4.1,0.1,6.1,0c1.7,0,2.3,0.7,2.2,2.3c0,0.5,0,1,0,1.5
		c0.1,1.6-0.6,2.3-2.2,2.3c-2.8-0.1-5.6-0.1-8.4,0c-2.2,0.1-2.4,0.2-2.4,2.4c0,7-0.7,5.8,5.4,5.9c2.4,0,4.9,0,7.3,0
		c1.9,0,1.9,1.3,1.9,2.6c0,1.2,0.2,2.7-1.7,2.8c-5.8,0-11.5,0-17.3,0c-1.3,0-1.8-0.7-1.8-1.9c0-2.5,0-5.1,0-7.6c0-6.9,0-13.8,0-20.6
		c0-2.6,0.1-2.6,2.6-2.7C403.2,187.7,405.8,187.8,408.3,187.8z"/>
	<path class="st11" d="M153.3,203.9c0-4.3,0-8.7,0-13c0-3,0.1-3.1,2.9-3.1c5.1,0,10.2,0,15.3,0c0.9,0,2-0.2,2.3,0.9
		c0.4,1.3,0.6,2.8-0.2,4c-0.5,0.7-1.4,0.5-2.1,0.5c-3.2,0-6.4,0-9.6,0c-2.3,0-2.4,0.2-2.4,2.4c0,6-0.4,5.1,5,5.2c2,0,4.1,0,6.1,0
		c1.3,0,1.9,0.6,1.9,1.9c0,0.5,0,1,0,1.5c-0.1,2.5-0.1,2.6-2.6,2.7c-2.7,0.1-5.4,0-8.1,0c-2.3,0.1-2.4,0.2-2.4,2.4
		c0,7-0.7,5.8,5.4,5.9c2.3,0,4.6,0,6.9,0c2.1,0.1,2.3,0.3,2.3,2.6c0,2.5-0.2,2.8-2.4,2.8c-5.4,0.1-10.7,0-16.1,0
		c-1.7,0-2.3-0.7-2.3-2.3C153.3,213.6,153.3,208.7,153.3,203.9C153.3,203.9,153.3,203.9,153.3,203.9z"/>
	<path class="st11" d="M126.4,204.3c0-4.6,0-9.2,0-13.8c0-2.7,0.1-2.8,2.9-2.8c5.1,0,10.2,0,15.3,0c0.9,0,2-0.2,2.3,0.8
		c0.4,1.3,0.6,2.8-0.2,4.1c-0.4,0.7-1.4,0.5-2.1,0.5c-3.3,0-6.6,0-10,0c-1.4,0-2.1,0.5-2.1,2c0,6.7-0.4,5.5,5,5.6c1.7,0,3.3,0,5,0
		c3,0.1,3.2,0.2,3.1,3.3c0,0.3,0,0.5,0,0.8c0.1,1.5-0.7,2-2.1,2c-2.8,0-5.6,0-8.4,0c-2.3,0.1-2.5,0.2-2.5,2.3c0,7.2-0.8,5.9,5.7,6
		c2.3,0,4.6,0,6.9,0c1.8,0,2,1.1,2,2.5c0,2.4-0.2,2.8-2,2.9c-5.6,0.1-11.2,0-16.9,0c-1.5,0-1.9-0.9-1.9-2.2
		C126.5,213.8,126.4,209.1,126.4,204.3C126.4,204.3,126.4,204.3,126.4,204.3z"/>
	<path class="st11" d="M210.8,203.9c0-4.5,0-8.9,0-13.4c0-2.5,0.1-2.7,2.6-2.7c5.2-0.1,10.5-0.1,15.7,0c2.3,0,2.5,0.4,2.5,2.8
		c0,2.4-0.2,2.6-2.6,2.6c-3.4,0.1-6.9,0.1-10.3,0c-1.5,0-2.4,0.4-2.3,2.1c0.1,6.5-0.4,5.4,5.2,5.5c2,0,4.1-0.1,6.1,0
		c2,0.1,2.5,0.8,2.5,3c0,2.2-0.5,2.9-2.5,3c-2.9,0.1-5.9,0-8.8,0.1c-2.3,0-2.4,0.1-2.4,2.4c-0.1,1.3,0.1,2.6,0,3.8
		c-0.1,1.7,0.8,2.2,2.3,2.1c3.6-0.1,7.2-0.1,10.7,0c2.1,0,2.2,0.4,2.3,2.6c0,2.3-0.2,2.7-2.1,2.8c-5.5,0.1-11,0-16.5,0
		c-1.7,0-2.2-0.8-2.2-2.3C210.8,213.5,210.8,208.7,210.8,203.9z"/>
	<path class="st11" d="M39.8,197.3c0,0,0-0.1,0-0.1c0-1.1-0.2-2.1-0.6-3c-0.8-2.4-2.5-4.1-4.8-5c-0.5-0.2-1.1-0.4-1.7-0.5
		c-0.5-0.1-1-0.2-1.6-0.2c-1.9-0.1-3.8,0-5.8,0c-2,0-4.1-0.1-6.1,0c-0.6,0-1.1,0-1.4,0.1c-0.6,0.1-0.9,0.3-1,0.8
		c-0.1,0.3-0.1,0.8-0.1,1.4c0,9.2,0,18.3,0,27.5c0,0.6,0,1,0.1,1.3c0.1,0.6,0.4,0.8,1,0.9c0.4,0.1,0.8,0.1,1.4,0.1
		c0.8,0,1.3,0,1.8-0.1c0.9-0.2,1-0.8,1.1-2.3c0.1-2.3,0-4.6,0-6.9c0-0.2,0-0.3,0-0.5c0.1-2.2,0.2-2.4,2.5-2.4c0.2,0,0.3,0,0.5,0
		c1.3,0,2.6,0,3.8,0c2.6,0,4.8-0.5,6.5-1.5c0,0,0,0,0,0c1.2-0.7,2.1-1.6,2.8-2.8c0.4-0.7,0.7-1.4,1-2.3c0-0.1,0.1-0.3,0.1-0.4
		c0.2-1,0.4-2.2,0.4-3.4C39.8,197.8,39.8,197.6,39.8,197.3z M33.6,200.7c-0.7,1.3-2.1,2.1-3.9,2.3c-0.9,0.1-1.8,0-2.7,0
		c-3.5,0-4.5,0.2-4.7-1.1c-0.1-0.7-0.1-1.9-0.1-3.8c0-1.1,0-2,0.1-2.7c0.1-1.2,0.4-1.8,1.1-2.2c0.8-0.4,2.2-0.3,4.4,0
		c0.1,0,0.1,0,0.2,0c0.8,0.1,1.6,0.4,2.4,0.6c1.5,0.4,2.7,1.2,3.3,2.2c0.4,0.7,0.6,1.4,0.6,2.2C34.2,199.2,34,200,33.6,200.7z"/>
	<path class="st11" d="M306.2,187.8c2.1-0.4,3.3,0.7,4.3,2.6c1.8,3.5,3.9,6.9,5.8,10.3c0.9,1.5,1.3,1.5,2.3-0.1
		c1.4-2.4,2.8-4.9,4.1-7.3c0.6-1.1,1.3-2.2,1.9-3.3c0.7-1.3,1.4-2.5,3.2-2.3c1.3,0.2,3.1-0.8,3.8,0.7c0.5,1.1-0.9,2.2-1.5,3.3
		c-2.9,4.6-5.7,9.3-8.6,14c-0.8,1.2-1.1,2.5-1,4c0.1,2.5,0.1,5.1,0,7.6c-0.1,2.4-0.2,2.5-2.7,2.6c-0.5,0-1,0-1.5,0
		c-1.5,0-1.9-0.9-1.9-2.2c0-2.5,0-5.1,0-7.6c0-1.6-0.3-2.9-1.2-4.3c-3.1-4.9-6.1-10-9.1-15c-0.3-0.4-0.5-0.9-0.7-1.3
		c-0.6-1.2-0.1-1.7,1.1-1.7C305,187.8,305.5,187.8,306.2,187.8z"/>
	<path class="st11" d="M50.5,204c0,4.5,0,8.9,0,13.4c0,0.9,0.2,1.8-0.8,2.4c-0.7,0.4-4.3,0.3-4.9-0.2c-0.5-0.5-0.5-1.1-0.5-1.8
		c0-9.2,0-18.3,0-27.5c0-1.1,0.3-2.1,1.5-2.4c1.4-0.3,2.8-0.5,4.1,0.2c0.8,0.4,0.6,1.3,0.6,2.1C50.5,194.9,50.5,199.4,50.5,204z"/>
</g>
</svg>
