<?xml version="1.0" encoding="UTF-8"?>
<svg id="Layer_1" data-name="Layer 1" xmlns="http://www.w3.org/2000/svg" viewBox="0 0 200 200">
  <defs>
    <style>
      .cls-1 {
        fill: #1d252c;
      }

      .cls-2 {
        fill: #e3e3e4;
      }

      .cls-3 {
        fill: #db0032;
      }
    </style>
  </defs>
  <g>
    <path class="cls-1" d="M188.14,93.58c-.35-10.47-9.4-18.63-19.9-18.36-1.33.03-1.94-.33-2.54-1.51-15.24-29.94-48.78-45.93-81.48-38.52-22.57,5.12-39.26,18.19-50.02,38.71-.53,1-1.03,1.37-2.2,1.33-10.6-.38-19.78,7.83-20.13,18.43-.31,9.22-.3,18.46.02,27.67.36,10.47,10.19,18.81,20.64,18.05.43-.03,1.07.36,1.31.75.84,1.37,1.49,2.85,2.31,4.23,1.27,2.15,3.16,2.96,5.59,2.51,2.18-.4,3.96-2.18,4.41-4.36.4-1.9-.57-3.39-1.4-4.93-7.12-13.24-9.46-27.25-6.64-42.04,6.97-36.66,44.03-59.28,79.78-48.73,32.04,9.46,51.17,42.45,43.43,74.97-2.22,9.32-6.12,17.91-12.22,25.34-4.49,5.47-10.19,8.84-17.59,8.7-5.42-.11-10.84-.09-16.26-.08-1.01,0-1.7-.27-2.37-1.07-.06-.08-.13-.14-.2-.22-1.82-4.24-6.03-7.22-10.94-7.22h-4.61c-6.57,0-11.9,5.33-11.9,11.9h0v2.09h0c.12,3.22,2.48,5.26,6.6,5.39.39.01.78,0,1.17,0,6.84,0,12.89,0,19.73,0,6.3,0,12.6.01,18.9,0,1.56,0,3.13-.02,4.68-.23,8.15-1.09,14.73-5.08,20.23-11.06,3.75-4.07,6.41-8.83,8.74-13.79.73-1.55,1.42-2.22,3.41-2.16,10.01.26,19.08-8.11,19.41-18.11.31-9.22.32-18.46.02-27.67Z"/>
    <path class="cls-3" d="M150.1,104.41c-1.19-12.35-6.21-22.95-14.7-31.93-2.58-2.73-5.82-4-9.57-4.02-4.84-.03-9.44,1.35-14.05,2.54-6.86,1.75-13.72,2.29-20.69.66-4.6-1.08-9.19-2.23-13.84-3-4.86-.82-9.36.21-12.83,4.02-12.42,13.65-17.11,29.53-13.57,47.72.66,3.41,1.76,6.68,3.64,9.66,1.68,2.68,3.93,4.4,7.25,3.94,4.82-.67,9.64-1.35,14.42-2.25,6.9-1.29,13.76-2.75,20.81-3.05,9.15-.39,18.06,1.23,26.95,3.09,5,1.04,9.99,2.18,15.15,2.26,3.29.06,5.52-1.27,6.96-4.11.62-1.22,1.22-2.45,1.66-3.74,1.9-5.44,2.6-11.08,2.7-17.54-.07-.94-.14-2.6-.29-4.25ZM75.49,107.27c-4.01,0-7.27-3.25-7.27-7.27s3.25-7.26,7.27-7.26,7.26,3.25,7.26,7.26-3.25,7.27-7.26,7.27ZM100,107.27c-4.01,0-7.26-3.25-7.26-7.27s3.25-7.26,7.26-7.26,7.26,3.25,7.26,7.26-3.25,7.27-7.26,7.27ZM124.51,107.27c-4.01,0-7.26-3.25-7.26-7.27s3.25-7.26,7.26-7.26,7.27,3.25,7.27,7.26-3.25,7.27-7.27,7.27Z"/>
  </g>
  <g>
    <circle class="cls-2" cx="124.51" cy="101.22" r="9.05"/>
    <circle class="cls-2" cx="100" cy="101.22" r="9.05"/>
    <circle class="cls-2" cx="76.77" cy="101.22" r="9.05"/>
  </g>
</svg>