<?xml version="1.0" encoding="utf-8"?>
<!-- Generator: Adobe Illustrator 28.0.0, SVG Export Plug-In . SVG Version: 6.00 Build 0)  -->
<svg version="1.1" id="Layer_1" xmlns="http://www.w3.org/2000/svg" xmlns:xlink="http://www.w3.org/1999/xlink" x="0px" y="0px"
	 viewBox="0 0 500 300" style="enable-background:new 0 0 500 300;" xml:space="preserve">
<style type="text/css">
	.st0{fill:#EC7620;}
	.st1{fill-rule:evenodd;clip-rule:evenodd;fill:#350600;}
	.st2{fill:#350600;}
	.st3{fill:#F88D2A;}
	.st4{fill:#FFC629;}
	.st5{fill:#42A7C6;}
	.st6{fill:#AD8B80;}
	.st7{fill:#404041;}
	.st8{fill:#E20613;}
	.st9{fill:#007A8A;}
	.st10{fill:#A0002D;}
	.st11{fill:#0380C3;}
	.st12{fill:#FFFCE7;}
	.st13{fill:#DAC094;}
	.st14{fill:#692525;}
	.st15{fill:#699043;}
	.st16{fill:#70715B;}
	.st17{fill:#C1E7F6;}
	.st18{clip-path:url(#SVGID_00000098180043227398272090000001338973714541955518_);fill:#C1E7F6;}
	.st19{clip-path:url(#SVGID_00000098180043227398272090000001338973714541955518_);fill:#7CD1EE;}
	.st20{fill:#7CD1EE;}
	.st21{fill:#92A1C6;}
	.st22{filter:url(#Adobe_OpacityMaskFilter);}
	
		.st23{clip-path:url(#SVGID_00000166635219266462016520000011543896617792747657_);fill:url(#SVGID_00000115501601340162495620000012188292408426921351_);}
	
		.st24{clip-path:url(#SVGID_00000166635219266462016520000011543896617792747657_);mask:url(#SVGID_00000145752079762819426150000009206963536934842000_);fill:url(#SVGID_00000111902170238180842590000008351211188388056740_);}
	.st25{clip-path:url(#SVGID_00000054258589474131104700000002421128911334998961_);fill:#604693;}
	.st26{fill:#00B2E3;}
	.st27{fill:#F5911E;}
	.st28{fill:#B12B26;}
	.st29{fill:#ED4036;}
	.st30{fill:#6D6E70;}
	.st31{fill:#121921;}
	.st32{fill:#0381C4;}
	.st33{fill:#A2732A;}
	.st34{fill:#513A16;}
	.st35{fill:#B99664;}
	.st36{fill:none;stroke:#B99664;stroke-width:1.2826;stroke-miterlimit:10;}
	.st37{fill:#8F9191;}
	.st38{fill:none;}
	.st39{fill:url(#SVGID_00000101071546577661362950000002656108107395495340_);}
	.st40{fill:url(#SVGID_00000162338850132588178860000011387190757146133928_);}
	.st41{fill:url(#SVGID_00000129889972852710128370000002936537027475835542_);}
	.st42{fill:#1A1A1A;}
	.st43{fill:url(#SVGID_00000098922505705689533990000005692962110589143201_);}
	.st44{fill:url(#SVGID_00000159429147770486247470000003568837092134190735_);}
	.st45{fill:url(#SVGID_00000075865961868082159270000016687942380971325610_);}
	.st46{fill:url(#SVGID_00000174570414093902807860000011493146501772363429_);}
	.st47{opacity:0.6;fill:url(#SVGID_00000031178929275645122790000004645501009765153176_);}
	.st48{fill:url(#SVGID_00000099652195768176176700000017966516201186755231_);}
	.st49{opacity:0.6;fill:url(#SVGID_00000043422532045042436280000007451340817909618333_);}
	.st50{fill:url(#SVGID_00000121262614784103047610000014987657376531269563_);}
	.st51{opacity:0.6;fill:url(#SVGID_00000132775291404555372070000002847069669974112897_);}
	.st52{fill:url(#SVGID_00000018194675785159573940000011105363821862797704_);}
	.st53{opacity:0.6;fill:url(#SVGID_00000096020096420001361940000015238360667111409556_);}
	.st54{fill:url(#SVGID_00000033339825894176563070000000254732137245148328_);}
	.st55{fill:url(#SVGID_00000151516088363717539500000007291773648057012646_);}
	.st56{opacity:0.6;fill:url(#SVGID_00000144324751107678009870000015836330422595090832_);}
	.st57{fill:url(#SVGID_00000052092337489535220260000003089599942486704312_);}
	.st58{fill:url(#SVGID_00000069381621008265078580000004582280574069216180_);}
	.st59{opacity:0.6;fill:url(#SVGID_00000120538232161419095400000005734225898081820840_);}
	.st60{fill:#AB774D;}
</style>
<g>
	<g>
		<g>
			<path class="st6" d="M95.7,73.2c-42.3,0-76.8,34.4-76.8,76.8c0,41.8,33.6,75.9,75.3,76.7v0c0.2,0,0.5,0,0.7,0c0.2,0,0.5,0,0.7,0
				c42.3,0,76.8-34.4,76.8-76.8C172.4,107.7,138,73.2,95.7,73.2z M94.4,222.5c-1.6,0-3.2-0.1-4.7-0.2l0-89.7h5
				c24.6,0.2,44.5,20.3,44.5,45C139.2,202.2,119.1,222.4,94.4,222.5z M85.4,78.5l0,49.8H73.3l0-34.5C73.3,86.4,78.5,80.1,85.4,78.5z
				 M85.4,132.5l0,89.2c-4.2-0.6-8.2-1.5-12.1-2.8l0-86.4L85.4,132.5z M94.7,128.3c-0.2,0-0.3,0-0.5,0v0h-4.5l0-50.2l8.3,0
				c14.1,0,25.6,11.5,25.6,25.6v2.1c0,12.5-10.1,22.6-22.6,22.6H94.7z M23.1,150c0-32.4,21.3-59.9,50.7-69.2c-3,3.5-4.8,8-4.8,12.9
				l0,34.5l-23.8,0l0,4.3h23.8l0,84.9C42.2,206.8,23.1,180.6,23.1,150z M123.8,216.8c11.9-9,19.6-23.3,19.6-39.3
				c0-21.6-14-40-33.3-46.6c10.3-3.7,17.7-13.6,17.7-25.2v-2.1c0-9.2-4.2-17.4-10.7-22.9c29.6,9.2,51.1,36.8,51.1,69.3
				C168.2,180,149.9,205.8,123.8,216.8z"/>
			<g>
				<path class="st7" d="M193.9,170.1c1.4-0.3,3.6-0.5,5.8-0.5c3.2,0,5.1,0.5,6.6,1.7c1.2,0.9,2,2.3,2,4.2c0,2.2-1.5,4.3-3.9,5.2
					v0.1c2,0.5,4.8,2.2,4.8,5.9c0,2-0.8,3.6-2,4.7c-1.6,1.5-4.3,2.2-8.4,2.2c-2.1,0-3.8-0.2-4.9-0.3L193.9,170.1z M196.9,179.8h3.2
					c3.4,0,5.2-1.7,5.2-3.9c0-2.9-2.3-3.8-5.3-3.8c-1.6,0-2.5,0.1-3,0.2L196.9,179.8z M196.9,191c0.7,0.1,1.6,0.2,2.8,0.2
					c3.1,0,6.3-1,6.3-4.6c0-3.2-2.8-4.5-6.2-4.5h-2.8V191z"/>
				<path class="st7" d="M215.8,176.5l4,10.1c0.4,1.1,0.9,2.5,1.2,3.4h0.1c0.3-1,0.7-2.3,1.1-3.5l3.6-10h3.3l-5,12.5
					c-2.5,6.3-4,8.9-6,10.5c-1.6,1.3-3.1,1.7-3.8,1.8l-0.7-2.7c0.7-0.2,1.7-0.6,2.7-1.3c0.8-0.6,2-1.8,2.8-3.6
					c0.2-0.3,0.2-0.5,0.2-0.7c0-0.2-0.1-0.4-0.2-0.8l-6.6-15.6H215.8z"/>
				<path class="st7" d="M241.2,170.1c2.1-0.3,4.5-0.5,7.1-0.5c4.8,0,8.2,1.2,10.4,3.4c2.1,2,3.2,4.7,3.2,8.1c0,3.4-1.1,6.6-3.4,8.9
					c-2.4,2.4-6.3,3.7-11.2,3.7c-2.4,0-4.4-0.1-6.1-0.3L241.2,170.1z M244.3,191c0.9,0.1,2.2,0.2,3.6,0.2c7.4,0,10.9-4.1,10.9-10
					c0-5.5-3.4-9.1-10.3-9.1c-1.9,0-3.2,0.2-4.1,0.4V191z"/>
				<path class="st7" d="M267.4,182.1c0-2.2,0-3.9-0.1-5.6h2.7l0.1,3.5h0.1c0.8-2.5,2.7-4,4.9-4c0.3,0,0.6,0,0.9,0.1v2.9
					c-0.4-0.1-0.7-0.1-1.2-0.1c-2.2,0-3.8,1.7-4.2,4.1c-0.1,0.4-0.1,0.9-0.1,1.4v8.9h-3V182.1z"/>
				<path class="st7" d="M279.8,191.6c0-1.3,0.9-2.3,2.1-2.3c1.2,0,2.1,1,2.1,2.3c0,1.2-0.8,2.3-2.1,2.3
					C280.6,193.9,279.8,192.8,279.8,191.6z"/>
				<path class="st7" d="M289.3,170.1c1.4-0.3,3.6-0.5,5.8-0.5c3.2,0,5.1,0.5,6.6,1.7c1.2,0.9,2,2.3,2,4.2c0,2.2-1.5,4.3-3.9,5.2
					v0.1c2,0.5,4.8,2.2,4.8,5.9c0,2-0.8,3.6-2,4.7c-1.6,1.5-4.3,2.2-8.4,2.2c-2.1,0-3.8-0.2-4.9-0.3V170.1z M292.3,179.8h3.2
					c3.4,0,5.2-1.7,5.2-3.9c0-2.9-2.3-3.8-5.3-3.8c-1.6,0-2.5,0.1-3,0.2V179.8z M292.3,191c0.7,0.1,1.6,0.2,2.8,0.2
					c3.1,0,6.3-1,6.3-4.6c0-3.2-2.8-4.5-6.2-4.5h-2.8V191z"/>
				<path class="st7" d="M320.1,193.4l-0.3-2.3h-0.1c-0.9,1.3-2.9,2.7-5.5,2.7c-3.6,0-5.3-2.6-5.3-4.9c0-4.1,3.5-6.4,10.6-6.4v-0.3
					c0-1.1-0.3-4-4-3.9c-1.7,0-3.5,0.5-4.7,1.4l-0.7-2.1c1.6-1,3.7-1.6,5.8-1.6c5.5,0,6.6,4,6.6,7.2v6c0,1.5,0.1,2.9,0.3,4.1H320.1z
					 M319.6,184.8c-3.8-0.1-7.6,0.6-7.6,3.8c0,2,1.3,2.9,3,2.9c2.5,0,3.9-1.6,4.5-2.9c0.1-0.3,0.2-0.7,0.2-1V184.8z"/>
				<path class="st7" d="M341.9,192.8c-0.8,0.4-2.8,1.1-5.3,1.1c-5.3,0-8.8-3.6-8.8-8.7c0-5.3,3.7-9.1,9.4-9.1c2,0,3.8,0.5,4.7,1
					l-0.7,2.4c-0.8-0.5-2.1-0.9-4-0.9c-4,0-6.4,2.8-6.3,6.4c0,3.9,2.7,6.3,6.2,6.3c2,0,3.3-0.5,4.2-0.9L341.9,192.8z"/>
				<path class="st7" d="M347.2,168.3h3v11.1h0.1c0.5-1,1.3-1.8,2.4-2.4c0.9-0.6,2.1-0.9,3.3-0.9c2.2,0,6.2,1.3,6.2,7.7v9.7h-3v-9.4
					c0-3-1.2-5.4-4.2-5.4c-2.2,0-3.8,1.6-4.4,3.2c-0.2,0.5-0.2,0.9-0.2,1.5l0,10h-3V168.3z"/>
				<path class="st7" d="M372.4,171.6c0,1-0.7,2-2,2c-1.1,0-1.9-0.9-1.9-2c0-1.1,0.8-2,1.9-2C371.6,169.6,372.3,170.5,372.4,171.6z
					 M368.9,193.4v-16.9h3v16.9L368.9,193.4z"/>
				<path class="st7" d="M378.8,182.1c0-2.2,0-3.9-0.1-5.6h2.7l0.1,3.5h0.1c0.8-2.5,2.7-4,4.9-4c0.3,0,0.6,0,0.9,0.1v2.9
					c-0.4-0.1-0.7-0.1-1.2-0.1c-2.2,0-3.8,1.7-4.2,4.1c-0.1,0.4-0.1,0.9-0.1,1.4v8.9h-3V182.1z"/>
				<path class="st7" d="M398.3,169.8h3v11.4h0.1c0.6-0.9,1.3-1.7,1.9-2.4l7.8-9h3.8l-9,10l9.8,13.6l-3.7,0l-8.3-11.7l-2.5,2.7v9h-3
					L398.3,169.8z"/>
				<path class="st7" d="M429.2,193.4l-0.3-2.3h-0.1c-0.9,1.3-2.9,2.7-5.5,2.7c-3.6,0-5.3-2.6-5.3-4.9c0-4.1,3.5-6.4,10.6-6.4v-0.3
					c0-1.1-0.3-4-4-3.9c-1.7,0-3.5,0.5-4.7,1.4l-0.7-2.1c1.6-1,3.7-1.6,5.8-1.6c5.5,0,6.6,4,6.6,7.2v6c0,1.5,0.1,2.9,0.3,4.1H429.2z
					 M428.7,184.8c-3.8-0.1-7.6,0.6-7.6,3.8c0,2,1.3,2.9,3,2.9c2.5,0,3.9-1.6,4.5-2.9c0.1-0.3,0.2-0.7,0.2-1V184.8z"/>
				<path class="st7" d="M438.3,168.3h3v25.1h-3V168.3z"/>
				<path class="st7" d="M458,193.4l-0.3-2.3h-0.1c-0.9,1.3-2.9,2.7-5.5,2.7c-3.6,0-5.3-2.6-5.3-4.9c0-4.1,3.5-6.4,10.6-6.4v-0.3
					c0-1.1-0.3-4-4-3.9c-1.7,0-3.5,0.5-4.7,1.4l-0.7-2.1c1.6-1,3.7-1.6,5.8-1.6c5.5,0,6.6,4,6.6,7.2v6c0,1.5,0.1,2.9,0.3,4.1H458z
					 M457.5,184.8c-3.8-0.1-7.6,0.6-7.6,3.8c0,2,1.3,2.9,3,2.9c2.5,0,3.9-1.6,4.5-2.9c0.1-0.3,0.2-0.7,0.2-1V184.8z"/>
				<path class="st7" d="M462.7,198.3c1.6-0.1,2.8-0.5,3.5-1.3c0.9-1,1.2-2.3,1.2-6.7v-13.9h3l0,15.2c0,3.2-0.5,5.5-2,7.2
					c-1.4,1.5-3.7,2-5.5,2L462.7,198.3z M471,171.6c0,1-0.7,2-2,2c-1.2,0-1.9-1-1.9-2c0-1.1,0.8-2,2-2
					C470.2,169.6,470.9,170.5,471,171.6z"/>
				<path class="st7" d="M480.8,171.6c0,1-0.7,2-2,2c-1.1,0-1.9-0.9-1.9-2c0-1.1,0.8-2,1.9-2C480,169.6,480.8,170.5,480.8,171.6z
					 M477.3,193.4v-16.9h3l0,16.9H477.3z"/>
			</g>
			<g>
				<path class="st6" d="M300,107.8l0.3,0.2l-4.9,5.8l-0.6-0.5c-3.2-2.9-8.6-5.1-13.6-5.1c-13.4,0-20.9,11.5-20.9,20.7
					c0,9.4,7.2,20.7,20.9,20.7c5.3,0,9.5-1.8,13.1-4.6c0.1-0.1,0.2-0.2,0.2-0.2c0.1-0.1,0.2-0.2,0.2-0.2l0.6-0.6l4.9,5.9l-0.3,0.2
					c-5,4.1-11,6.8-18.7,6.8c-18.9,0-28.6-15.7-28.6-28c0-12.3,9.7-27.9,28.6-27.9C289,101,295,103.7,300,107.8z"/>
				<path class="st6" d="M340.4,149.6v7.3l-31.4,0l0-55.9h7.8l0,48.6H340.4z"/>
				<path class="st6" d="M357,157l-7.8,0l0-55.9h7.8V157z"/>
				<path class="st6" d="M424.7,157h-7.8l0-55.9h7.8V157z"/>
				<path class="st6" d="M480.8,107.8l0.3,0.2l-4.9,5.8l-0.6-0.5c-3.2-2.9-8.6-5.1-13.6-5.1c-13.4,0-20.9,11.5-20.9,20.7
					c0,9.4,7.2,20.7,20.9,20.7c5.3,0,9.6-1.8,13.1-4.6c0.1-0.1,0.2-0.2,0.2-0.2c0.1-0.1,0.2-0.2,0.2-0.2l0.6-0.6l4.9,5.9l-0.3,0.2
					c-5,4.1-11,6.8-18.7,6.8c-18.9,0-28.6-15.7-28.6-28c0-12.3,9.7-27.9,28.6-27.9C469.8,101,475.8,103.7,480.8,107.8z"/>
				<path class="st6" d="M366.1,101.2l7.3,0l0,0l26.9,41.3l0-41.3h7.8v55.9l-5.9,0l-0.8,0l-28-41.1v41.1h-7.7v-55.9l6,0"/>
				<path class="st6" d="M229.2,131.2c-1.2-1.2-2.6-2.3-4.2-3.1c-0.7-0.3-1.4-0.6-2.2-0.9c1.8-0.9,3.3-2.1,4.6-3.6
					c1.8-2.2,2.8-5.1,2.8-8.4c0-2.7-0.6-4.9-1.7-6.8c-1.1-1.8-2.6-3.3-4.4-4.4c-1.8-1.1-3.8-1.9-6-2.4c-2.2-0.5-4.5-0.7-6.8-0.7
					l-17.4,0l0,55.9h17c2.5,0,5.1-0.2,7.7-0.7c2.6-0.5,5-1.3,7.1-2.5c2.1-1.2,3.9-2.9,5.2-4.9c1.3-2.1,2-4.7,2-7.9
					c0-1.9-0.3-3.7-1-5.3C231.3,133.9,230.4,132.4,229.2,131.2z M220.5,120.1c-0.6,1-1.4,1.8-2.5,2.3c-1.1,0.6-2.3,1-3.6,1.2
					c-1.4,0.2-2.9,0.3-4.3,0.3h-7.9l0-15.1h8.6c1.4,0,2.8,0.1,4.1,0.3c1.3,0.2,2.4,0.6,3.4,1.2c1,0.5,1.7,1.3,2.3,2.2
					c0.6,0.9,0.8,2.1,0.8,3.6C221.5,117.8,221.1,119.1,220.5,120.1z M202.1,131.8h10.1c1.5,0,3.1,0.1,4.6,0.4
					c1.4,0.3,2.7,0.8,3.8,1.5c1.1,0.7,1.9,1.6,2.6,2.7c0.7,1.1,1,2.6,1,4.3c0,1.5-0.3,2.9-1,3.9c-0.7,1.1-1.6,1.9-2.7,2.6
					c-1.2,0.7-2.5,1.2-3.9,1.5c-1.5,0.3-3,0.5-4.5,0.5h-9.9V131.8z"/>
			</g>
		</g>
	</g>
</g>
</svg>
