<?xml version="1.0" encoding="UTF-8"?>
<svg id="Layer_1" data-name="Layer 1" xmlns="http://www.w3.org/2000/svg" viewBox="0 0 200 200">
  <defs>
    <style>
      .cls-1 {
        fill: #db0032;
      }

      .cls-1, .cls-2 {
        fill-rule: evenodd;
      }

      .cls-2 {
        fill: #1d252c;
      }
    </style>
  </defs>
  <path class="cls-2" d="M103.84,48.78l14.72-12.34c.32-.27.46-.59.43-1-.02-.42-.2-.72-.55-.95l-16.23-10.72c-.22-.14-.44-.22-.67-.22-.21,0-.41.06-.62.18-.43.25-.64.64-.61,1.14l.43,6.52c.04.55-.15,1.08-.52,1.49-.37.4-.89.64-1.44.65-19.5.35-37.72,9.29-49.98,24.51-.68.85-.85,1.74-.5,2.65.43,1.12,1.56,2.03,2.75,2.21.97.15,1.8-.2,2.48-1.05,11.24-13.96,27.96-22.07,45.85-22.25,1.06-.02,1.95.81,2.02,1.87l.42,6.47c.03.49.29.85.74,1.04.45.19.89.13,1.26-.19Z"/>
  <path class="cls-1" d="M105.81,67.44h-11.63l-.41,7.32c-.05.83-.6,1.54-1.38,1.79-3.33,1.08-6.33,2.81-8.91,5.14-.61.55-1.51.67-2.24.3l-6.53-3.3-5.81,10.07,6.13,4.01c.69.45,1.04,1.29.86,2.09-.73,3.41-.72,6.86,0,10.28.17.81-.17,1.64-.86,2.1l-6.13,4.01,5.81,10.07,6.54-3.3c.74-.37,1.63-.25,2.24.3,1.28,1.15,2.69,2.17,4.19,3.04,1.5.86,3.09,1.57,4.73,2.11.79.25,1.33.97,1.38,1.79l.41,7.31h11.63l.41-7.32c.05-.83.6-1.54,1.38-1.79,3.33-1.08,6.33-2.81,8.91-5.14.61-.55,1.51-.67,2.24-.3l6.53,3.3,5.81-10.07-6.13-4.01c-.69-.45-1.03-1.28-.86-2.09.73-3.4.72-6.86,0-10.28-.17-.81.17-1.64.86-2.09l6.13-4.01-5.81-10.07-6.54,3.3c-.74.37-1.63.25-2.24-.3-1.28-1.15-2.69-2.17-4.19-3.04-1.5-.86-3.09-1.57-4.73-2.11-.79-.25-1.33-.97-1.38-1.79l-.41-7.31h0ZM96.28,106.13l3.56-13.3c.29-1.07,1.39-1.7,2.45-1.42,1.07.29,1.7,1.38,1.42,2.45l-3.56,13.3c-.24.89-1.05,1.48-1.93,1.48-.17,0-.35-.02-.52-.07-1.07-.29-1.7-1.39-1.42-2.45h0ZM108.84,105.46l5.54-5.46-5.54-5.46c-.79-.78-.8-2.05-.02-2.83.78-.79,2.04-.8,2.83-.02l6.99,6.88c.38.38.6.89.6,1.43s-.22,1.05-.6,1.43l-6.99,6.88c-.39.38-.9.58-1.4.58s-1.04-.2-1.43-.6c-.78-.79-.77-2.06.02-2.83h0ZM85.61,100l5.54,5.46c.79.78.8,2.04.02,2.83-.39.4-.91.6-1.43.6s-1.02-.19-1.41-.58l-6.99-6.88c-.38-.38-.6-.89-.6-1.43s.22-1.05.6-1.43l6.99-6.88c.79-.78,2.06-.77,2.83.02.78.79.77,2.06-.02,2.83l-5.54,5.46Z"/>
  <path class="cls-2" d="M48.78,96.16l-12.34-14.72c-.27-.32-.59-.46-1.01-.43-.42.02-.72.2-.95.55l-10.72,16.23c-.27.41-.29.86-.04,1.29.25.43.64.64,1.14.61l6.52-.43s.09,0,.13,0c.5,0,.99.19,1.36.53.4.37.64.89.65,1.44.35,19.5,9.28,37.72,24.51,49.98.85.68,1.74.85,2.64.5,1.12-.43,2.03-1.57,2.21-2.76.15-.96-.2-1.8-1.05-2.48-13.96-11.24-22.07-27.96-22.25-45.85-.01-1.06.81-1.95,1.87-2.02l6.47-.42c.49-.03.85-.29,1.04-.74.19-.45.13-.89-.19-1.27Z"/>
  <path class="cls-2" d="M146.46,138.18c-11.24,13.96-27.96,22.07-45.85,22.25h-.02c-1.05,0-1.93-.82-2-1.87l-.42-6.47c-.03-.49-.29-.85-.74-1.04-.17-.07-.34-.11-.5-.11-.27,0-.53.1-.76.3l-14.72,12.34c-.32.27-.46.59-.43,1,.02.42.2.72.55.95l16.23,10.72c.41.27.86.29,1.29.04.43-.25.64-.64.6-1.14l-.43-6.52c-.04-.55.15-1.08.52-1.49.37-.4.89-.64,1.44-.65,19.5-.35,37.72-9.29,49.98-24.51.68-.85.85-1.74.5-2.65-.43-1.12-1.57-2.03-2.75-2.21-.97-.15-1.8.2-2.48,1.05Z"/>
  <path class="cls-2" d="M151.22,103.84l12.34,14.72c.27.32.59.46,1.01.43.42-.02.72-.2.95-.55l10.72-16.23c.27-.41.29-.86.04-1.29-.25-.43-.64-.64-1.14-.61l-6.52.43c-.54.03-1.08-.15-1.49-.52-.4-.37-.64-.89-.65-1.44-.35-19.5-9.28-37.72-24.51-49.98-.56-.45-1.14-.68-1.73-.68-.3,0-.61.06-.91.18-1.12.43-2.03,1.57-2.21,2.75-.15.97.2,1.8,1.05,2.48,13.96,11.24,22.07,27.96,22.25,45.85.01,1.06-.81,1.95-1.87,2.02l-6.47.42c-.49.03-.85.29-1.04.74-.19.45-.13.89.19,1.27Z"/>
</svg>