<?xml version="1.0" encoding="UTF-8"?>
<svg id="Layer_1" data-name="Layer 1" xmlns="http://www.w3.org/2000/svg" viewBox="0 0 200 200">
  <defs>
    <style>
      .cls-1 {
        fill: #1d252c;
      }

      .cls-2 {
        fill: #e3e3e4;
      }

      .cls-3 {
        fill: #db0032;
      }
    </style>
  </defs>
  <g>
    <rect class="cls-1" x="17.42" y="33.75" width="165.16" height="132.5" rx="20.54" ry="20.54"/>
    <path class="cls-3" d="M34.37,33.75h131.27c9.35,0,16.95,7.59,16.95,16.95v3.1H17.42v-3.1c0-9.35,7.59-16.95,16.95-16.95Z"/>
    <circle class="cls-1" cx="42.83" cy="45.4" r="3.85"/>
    <circle class="cls-2" cx="55.62" cy="45.4" r="3.85"/>
    <circle class="cls-2" cx="68.4" cy="45.4" r="3.85"/>
  </g>
  <g>
    <path class="cls-3" d="M46.1,112.98h13.82c1.39,0,2.51,1.13,2.51,2.51v20.87c0,1.39-1.13,2.51-2.51,2.51h-13.82c-1.39,0-2.51-1.13-2.51-2.51v-20.87c0-1.39,1.13-2.51,2.51-2.51Z"/>
    <path class="cls-2" d="M77.32,95.03h13.82c1.39,0,2.51,1.13,2.51,2.51v38.82c0,1.39-1.13,2.51-2.51,2.51h-13.82c-1.39,0-2.51-1.13-2.51-2.51v-38.82c0-1.39,1.13-2.51,2.51-2.51Z"/>
    <path class="cls-3" d="M110.38,112.98h13.83c1.39,0,2.51,1.13,2.51,2.51v20.86c0,1.39-1.13,2.51-2.51,2.51h-13.82c-1.39,0-2.51-1.13-2.51-2.51v-20.87c0-1.39,1.13-2.51,2.51-2.51h-.01Z"/>
    <path class="cls-2" d="M140.85,95.03h13.82c1.39,0,2.51,1.13,2.51,2.51v38.82c0,1.39-1.13,2.51-2.51,2.51h-13.82c-1.39,0-2.51-1.13-2.51-2.51v-38.81c0-1.39,1.13-2.51,2.51-2.51h0Z"/>
    <path class="cls-3" d="M58.44,97.64c5.08,0,9.19-4.11,9.19-9.19,0-.72-.1-1.42-.26-2.1l13.68-8.79c1.55,1.2,3.48,1.95,5.6,1.95s4.05-.75,5.6-1.95l13.68,8.79c-.16.68-.26,1.37-.26,2.1,0,5.08,4.12,9.19,9.19,9.19s9.19-4.11,9.19-9.19c0-.72-.1-1.42-.26-2.1l13.68-8.79c1.55,1.2,3.48,1.95,5.6,1.95,5.08,0,9.19-4.12,9.19-9.19s-4.11-9.19-9.19-9.19-9.19,4.12-9.19,9.19c0,.73.1,1.42.26,2.1l-13.68,8.79c-1.56-1.21-3.48-1.95-5.6-1.95s-4.05.75-5.6,1.95l-13.68-8.79c.16-.68.26-1.37.26-2.1,0-5.08-4.12-9.19-9.19-9.19s-9.19,4.12-9.19,9.19c0,.73.1,1.42.26,2.1l-13.68,8.79c-1.55-1.21-3.48-1.95-5.6-1.95-5.08,0-9.19,4.12-9.19,9.19s4.12,9.19,9.19,9.19Z"/>
  </g>
</svg>